%TF.GenerationSoftware,KiCad,Pcbnew,(6.0.8)*%
%TF.CreationDate,2022-11-19T23:44:14+04:00*%
%TF.ProjectId,MC34063_Buck_Rev2,4d433334-3036-4335-9f42-75636b5f5265,rev?*%
%TF.SameCoordinates,Original*%
%TF.FileFunction,Drillmap*%
%TF.FilePolarity,Positive*%
%FSLAX45Y45*%
G04 Gerber Fmt 4.5, Leading zero omitted, Abs format (unit mm)*
G04 Created by KiCad (PCBNEW (6.0.8)) date 2022-11-19 23:44:14*
%MOMM*%
%LPD*%
G01*
G04 APERTURE LIST*
%ADD10C,0.050000*%
%ADD11C,0.200000*%
%ADD12C,0.070000*%
%ADD13C,0.076200*%
%ADD14C,0.080000*%
%ADD15C,0.100000*%
%ADD16C,0.100076*%
%ADD17C,0.119888*%
%ADD18C,0.120000*%
%ADD19C,0.140000*%
G04 APERTURE END LIST*
D10*
X17700000Y-6600000D02*
X12400000Y-6600000D01*
X12400000Y-6600000D02*
X12400000Y-4400000D01*
X17700000Y-4400000D02*
X17700000Y-6600000D01*
X12400000Y-4400000D02*
X17700000Y-4400000D01*
D11*
D12*
X16085110Y-6311800D02*
X16155110Y-6381800D01*
X16155110Y-6311800D02*
X16085110Y-6381800D01*
X16086380Y-5982870D02*
X16156380Y-6052870D01*
X16156380Y-5982870D02*
X16086380Y-6052870D01*
X16847110Y-6311800D02*
X16917110Y-6381800D01*
X16917110Y-6311800D02*
X16847110Y-6381800D01*
X16848380Y-5982870D02*
X16918380Y-6052870D01*
X16918380Y-5982870D02*
X16848380Y-6052870D01*
D13*
X15041880Y-5236820D02*
G75*
G03*
X15041880Y-5236820I-38100J0D01*
G01*
X15041880Y-5490820D02*
G75*
G03*
X15041880Y-5490820I-38100J0D01*
G01*
X15041880Y-5744820D02*
G75*
G03*
X15041880Y-5744820I-38100J0D01*
G01*
X15041880Y-5998820D02*
G75*
G03*
X15041880Y-5998820I-38100J0D01*
G01*
X15803880Y-5236820D02*
G75*
G03*
X15803880Y-5236820I-38100J0D01*
G01*
X15803880Y-5490820D02*
G75*
G03*
X15803880Y-5490820I-38100J0D01*
G01*
X15803880Y-5744820D02*
G75*
G03*
X15803880Y-5744820I-38100J0D01*
G01*
X15803880Y-5998820D02*
G75*
G03*
X15803880Y-5998820I-38100J0D01*
G01*
D14*
X15460980Y-6287750D02*
X15460980Y-6367750D01*
X15420980Y-6327750D02*
X15500980Y-6327750D01*
X15710980Y-6287750D02*
X15710980Y-6367750D01*
X15670980Y-6327750D02*
X15750980Y-6327750D01*
D15*
X13673632Y-5573800D02*
X13673632Y-5503088D01*
X13602920Y-5503088D01*
X13602920Y-5573800D01*
X13673632Y-5573800D01*
X13673632Y-6073800D02*
X13673632Y-6003088D01*
X13602920Y-6003088D01*
X13602920Y-6073800D01*
X13673632Y-6073800D01*
X16541800Y-5068086D02*
X16541800Y-4997374D01*
X16471088Y-4997374D01*
X16471088Y-5068086D01*
X16541800Y-5068086D01*
X16541800Y-5568086D02*
X16541800Y-5497374D01*
X16471088Y-5497374D01*
X16471088Y-5568086D01*
X16541800Y-5568086D01*
D16*
X14526260Y-5434432D02*
X14576298Y-5384394D01*
X14526260Y-5334356D01*
X14476222Y-5384394D01*
X14526260Y-5434432D01*
X14526260Y-6234532D02*
X14576298Y-6184494D01*
X14526260Y-6134456D01*
X14476222Y-6184494D01*
X14526260Y-6234532D01*
D17*
X12697714Y-5407000D02*
X12817602Y-5526888D01*
X12817602Y-5407000D02*
X12697714Y-5526888D01*
X12817602Y-5466944D02*
G75*
G03*
X12817602Y-5466944I-59944J0D01*
G01*
X12697714Y-5985358D02*
X12817602Y-6105246D01*
X12817602Y-5985358D02*
X12697714Y-6105246D01*
X12817602Y-6045302D02*
G75*
G03*
X12817602Y-6045302I-59944J0D01*
G01*
X17237202Y-4813910D02*
X17357090Y-4933798D01*
X17357090Y-4813910D02*
X17237202Y-4933798D01*
X17357090Y-4873854D02*
G75*
G03*
X17357090Y-4873854I-59944J0D01*
G01*
X17237202Y-5509362D02*
X17357090Y-5629250D01*
X17357090Y-5509362D02*
X17237202Y-5629250D01*
X17357090Y-5569306D02*
G75*
G03*
X17357090Y-5569306I-59944J0D01*
G01*
D18*
X14947590Y-4739940D02*
X15067590Y-4859940D01*
X15067590Y-4739940D02*
X14947590Y-4859940D01*
X15007590Y-4739940D02*
X15007590Y-4859940D01*
X14947590Y-4799940D02*
X15067590Y-4799940D01*
X15455590Y-4739940D02*
X15575590Y-4859940D01*
X15575590Y-4739940D02*
X15455590Y-4859940D01*
X15515590Y-4739940D02*
X15515590Y-4859940D01*
X15455590Y-4799940D02*
X15575590Y-4799940D01*
D19*
X13819736Y-4869640D02*
X13959736Y-5009640D01*
X13959736Y-4869640D02*
X13819736Y-5009640D01*
X13939234Y-4989138D02*
X13939234Y-4890142D01*
X13840238Y-4890142D01*
X13840238Y-4989138D01*
X13939234Y-4989138D01*
X14327736Y-4869640D02*
X14467736Y-5009640D01*
X14467736Y-4869640D02*
X14327736Y-5009640D01*
X14447234Y-4989138D02*
X14447234Y-4890142D01*
X14348238Y-4890142D01*
X14348238Y-4989138D01*
X14447234Y-4989138D01*
D11*
X12655119Y-6912976D02*
X12655119Y-6712976D01*
X12702738Y-6712976D01*
X12731309Y-6722500D01*
X12750357Y-6741548D01*
X12759881Y-6760595D01*
X12769405Y-6798690D01*
X12769405Y-6827262D01*
X12759881Y-6865357D01*
X12750357Y-6884405D01*
X12731309Y-6903452D01*
X12702738Y-6912976D01*
X12655119Y-6912976D01*
X12855119Y-6912976D02*
X12855119Y-6779643D01*
X12855119Y-6817738D02*
X12864643Y-6798690D01*
X12874167Y-6789167D01*
X12893214Y-6779643D01*
X12912262Y-6779643D01*
X12978928Y-6912976D02*
X12978928Y-6779643D01*
X12978928Y-6712976D02*
X12969405Y-6722500D01*
X12978928Y-6732024D01*
X12988452Y-6722500D01*
X12978928Y-6712976D01*
X12978928Y-6732024D01*
X13102738Y-6912976D02*
X13083690Y-6903452D01*
X13074167Y-6884405D01*
X13074167Y-6712976D01*
X13207500Y-6912976D02*
X13188452Y-6903452D01*
X13178928Y-6884405D01*
X13178928Y-6712976D01*
X13436071Y-6912976D02*
X13436071Y-6712976D01*
X13502738Y-6855833D01*
X13569405Y-6712976D01*
X13569405Y-6912976D01*
X13750357Y-6912976D02*
X13750357Y-6808214D01*
X13740833Y-6789167D01*
X13721786Y-6779643D01*
X13683690Y-6779643D01*
X13664643Y-6789167D01*
X13750357Y-6903452D02*
X13731309Y-6912976D01*
X13683690Y-6912976D01*
X13664643Y-6903452D01*
X13655119Y-6884405D01*
X13655119Y-6865357D01*
X13664643Y-6846309D01*
X13683690Y-6836786D01*
X13731309Y-6836786D01*
X13750357Y-6827262D01*
X13845595Y-6779643D02*
X13845595Y-6979643D01*
X13845595Y-6789167D02*
X13864643Y-6779643D01*
X13902738Y-6779643D01*
X13921786Y-6789167D01*
X13931309Y-6798690D01*
X13940833Y-6817738D01*
X13940833Y-6874881D01*
X13931309Y-6893928D01*
X13921786Y-6903452D01*
X13902738Y-6912976D01*
X13864643Y-6912976D01*
X13845595Y-6903452D01*
X14026548Y-6893928D02*
X14036071Y-6903452D01*
X14026548Y-6912976D01*
X14017024Y-6903452D01*
X14026548Y-6893928D01*
X14026548Y-6912976D01*
X14026548Y-6789167D02*
X14036071Y-6798690D01*
X14026548Y-6808214D01*
X14017024Y-6798690D01*
X14026548Y-6789167D01*
X14026548Y-6808214D01*
D12*
X12327500Y-7207500D02*
X12397500Y-7277500D01*
X12397500Y-7207500D02*
X12327500Y-7277500D01*
D11*
X12693214Y-7132976D02*
X12712262Y-7132976D01*
X12731309Y-7142500D01*
X12740833Y-7152024D01*
X12750357Y-7171071D01*
X12759881Y-7209167D01*
X12759881Y-7256786D01*
X12750357Y-7294881D01*
X12740833Y-7313928D01*
X12731309Y-7323452D01*
X12712262Y-7332976D01*
X12693214Y-7332976D01*
X12674167Y-7323452D01*
X12664643Y-7313928D01*
X12655119Y-7294881D01*
X12645595Y-7256786D01*
X12645595Y-7209167D01*
X12655119Y-7171071D01*
X12664643Y-7152024D01*
X12674167Y-7142500D01*
X12693214Y-7132976D01*
X12845595Y-7313928D02*
X12855119Y-7323452D01*
X12845595Y-7332976D01*
X12836071Y-7323452D01*
X12845595Y-7313928D01*
X12845595Y-7332976D01*
X12921786Y-7132976D02*
X13055119Y-7132976D01*
X12969405Y-7332976D01*
X13169405Y-7132976D02*
X13188452Y-7132976D01*
X13207500Y-7142500D01*
X13217024Y-7152024D01*
X13226548Y-7171071D01*
X13236071Y-7209167D01*
X13236071Y-7256786D01*
X13226548Y-7294881D01*
X13217024Y-7313928D01*
X13207500Y-7323452D01*
X13188452Y-7332976D01*
X13169405Y-7332976D01*
X13150357Y-7323452D01*
X13140833Y-7313928D01*
X13131309Y-7294881D01*
X13121786Y-7256786D01*
X13121786Y-7209167D01*
X13131309Y-7171071D01*
X13140833Y-7152024D01*
X13150357Y-7142500D01*
X13169405Y-7132976D01*
X13359881Y-7132976D02*
X13378928Y-7132976D01*
X13397976Y-7142500D01*
X13407500Y-7152024D01*
X13417024Y-7171071D01*
X13426548Y-7209167D01*
X13426548Y-7256786D01*
X13417024Y-7294881D01*
X13407500Y-7313928D01*
X13397976Y-7323452D01*
X13378928Y-7332976D01*
X13359881Y-7332976D01*
X13340833Y-7323452D01*
X13331309Y-7313928D01*
X13321786Y-7294881D01*
X13312262Y-7256786D01*
X13312262Y-7209167D01*
X13321786Y-7171071D01*
X13331309Y-7152024D01*
X13340833Y-7142500D01*
X13359881Y-7132976D01*
X13512262Y-7332976D02*
X13512262Y-7199643D01*
X13512262Y-7218690D02*
X13521786Y-7209167D01*
X13540833Y-7199643D01*
X13569405Y-7199643D01*
X13588452Y-7209167D01*
X13597976Y-7228214D01*
X13597976Y-7332976D01*
X13597976Y-7228214D02*
X13607500Y-7209167D01*
X13626548Y-7199643D01*
X13655119Y-7199643D01*
X13674167Y-7209167D01*
X13683690Y-7228214D01*
X13683690Y-7332976D01*
X13778928Y-7332976D02*
X13778928Y-7199643D01*
X13778928Y-7218690D02*
X13788452Y-7209167D01*
X13807500Y-7199643D01*
X13836071Y-7199643D01*
X13855119Y-7209167D01*
X13864643Y-7228214D01*
X13864643Y-7332976D01*
X13864643Y-7228214D02*
X13874167Y-7209167D01*
X13893214Y-7199643D01*
X13921786Y-7199643D01*
X13940833Y-7209167D01*
X13950357Y-7228214D01*
X13950357Y-7332976D01*
X14340833Y-7123452D02*
X14169405Y-7380595D01*
X14597976Y-7132976D02*
X14617024Y-7132976D01*
X14636071Y-7142500D01*
X14645595Y-7152024D01*
X14655119Y-7171071D01*
X14664643Y-7209167D01*
X14664643Y-7256786D01*
X14655119Y-7294881D01*
X14645595Y-7313928D01*
X14636071Y-7323452D01*
X14617024Y-7332976D01*
X14597976Y-7332976D01*
X14578928Y-7323452D01*
X14569405Y-7313928D01*
X14559881Y-7294881D01*
X14550357Y-7256786D01*
X14550357Y-7209167D01*
X14559881Y-7171071D01*
X14569405Y-7152024D01*
X14578928Y-7142500D01*
X14597976Y-7132976D01*
X14750357Y-7313928D02*
X14759881Y-7323452D01*
X14750357Y-7332976D01*
X14740833Y-7323452D01*
X14750357Y-7313928D01*
X14750357Y-7332976D01*
X14883690Y-7132976D02*
X14902738Y-7132976D01*
X14921786Y-7142500D01*
X14931309Y-7152024D01*
X14940833Y-7171071D01*
X14950357Y-7209167D01*
X14950357Y-7256786D01*
X14940833Y-7294881D01*
X14931309Y-7313928D01*
X14921786Y-7323452D01*
X14902738Y-7332976D01*
X14883690Y-7332976D01*
X14864643Y-7323452D01*
X14855119Y-7313928D01*
X14845595Y-7294881D01*
X14836071Y-7256786D01*
X14836071Y-7209167D01*
X14845595Y-7171071D01*
X14855119Y-7152024D01*
X14864643Y-7142500D01*
X14883690Y-7132976D01*
X15026548Y-7152024D02*
X15036071Y-7142500D01*
X15055119Y-7132976D01*
X15102738Y-7132976D01*
X15121786Y-7142500D01*
X15131309Y-7152024D01*
X15140833Y-7171071D01*
X15140833Y-7190119D01*
X15131309Y-7218690D01*
X15017024Y-7332976D01*
X15140833Y-7332976D01*
X15207500Y-7132976D02*
X15340833Y-7132976D01*
X15255119Y-7332976D01*
X15502738Y-7132976D02*
X15464643Y-7132976D01*
X15445595Y-7142500D01*
X15436071Y-7152024D01*
X15417024Y-7180595D01*
X15407500Y-7218690D01*
X15407500Y-7294881D01*
X15417024Y-7313928D01*
X15426548Y-7323452D01*
X15445595Y-7332976D01*
X15483690Y-7332976D01*
X15502738Y-7323452D01*
X15512262Y-7313928D01*
X15521786Y-7294881D01*
X15521786Y-7247262D01*
X15512262Y-7228214D01*
X15502738Y-7218690D01*
X15483690Y-7209167D01*
X15445595Y-7209167D01*
X15426548Y-7218690D01*
X15417024Y-7228214D01*
X15407500Y-7247262D01*
X15597976Y-7132976D02*
X15597976Y-7171071D01*
X15674167Y-7132976D02*
X15674167Y-7171071D01*
X15969405Y-7409167D02*
X15959881Y-7399643D01*
X15940833Y-7371071D01*
X15931309Y-7352024D01*
X15921786Y-7323452D01*
X15912262Y-7275833D01*
X15912262Y-7237738D01*
X15921786Y-7190119D01*
X15931309Y-7161548D01*
X15940833Y-7142500D01*
X15959881Y-7113928D01*
X15969405Y-7104405D01*
X16131309Y-7199643D02*
X16131309Y-7332976D01*
X16083690Y-7123452D02*
X16036071Y-7266309D01*
X16159881Y-7266309D01*
X16388452Y-7332976D02*
X16388452Y-7132976D01*
X16474167Y-7332976D02*
X16474167Y-7228214D01*
X16464643Y-7209167D01*
X16445595Y-7199643D01*
X16417024Y-7199643D01*
X16397976Y-7209167D01*
X16388452Y-7218690D01*
X16597976Y-7332976D02*
X16578928Y-7323452D01*
X16569405Y-7313928D01*
X16559881Y-7294881D01*
X16559881Y-7237738D01*
X16569405Y-7218690D01*
X16578928Y-7209167D01*
X16597976Y-7199643D01*
X16626548Y-7199643D01*
X16645595Y-7209167D01*
X16655119Y-7218690D01*
X16664643Y-7237738D01*
X16664643Y-7294881D01*
X16655119Y-7313928D01*
X16645595Y-7323452D01*
X16626548Y-7332976D01*
X16597976Y-7332976D01*
X16778929Y-7332976D02*
X16759881Y-7323452D01*
X16750357Y-7304405D01*
X16750357Y-7132976D01*
X16931310Y-7323452D02*
X16912262Y-7332976D01*
X16874167Y-7332976D01*
X16855119Y-7323452D01*
X16845595Y-7304405D01*
X16845595Y-7228214D01*
X16855119Y-7209167D01*
X16874167Y-7199643D01*
X16912262Y-7199643D01*
X16931310Y-7209167D01*
X16940833Y-7228214D01*
X16940833Y-7247262D01*
X16845595Y-7266309D01*
X17017024Y-7323452D02*
X17036071Y-7332976D01*
X17074167Y-7332976D01*
X17093214Y-7323452D01*
X17102738Y-7304405D01*
X17102738Y-7294881D01*
X17093214Y-7275833D01*
X17074167Y-7266309D01*
X17045595Y-7266309D01*
X17026548Y-7256786D01*
X17017024Y-7237738D01*
X17017024Y-7228214D01*
X17026548Y-7209167D01*
X17045595Y-7199643D01*
X17074167Y-7199643D01*
X17093214Y-7209167D01*
X17169405Y-7409167D02*
X17178929Y-7399643D01*
X17197976Y-7371071D01*
X17207500Y-7352024D01*
X17217024Y-7323452D01*
X17226548Y-7275833D01*
X17226548Y-7237738D01*
X17217024Y-7190119D01*
X17207500Y-7161548D01*
X17197976Y-7142500D01*
X17178929Y-7113928D01*
X17169405Y-7104405D01*
D13*
X12397500Y-7506500D02*
G75*
G03*
X12397500Y-7506500I-38100J0D01*
G01*
D11*
X12693214Y-7396976D02*
X12712262Y-7396976D01*
X12731309Y-7406500D01*
X12740833Y-7416024D01*
X12750357Y-7435071D01*
X12759881Y-7473167D01*
X12759881Y-7520786D01*
X12750357Y-7558881D01*
X12740833Y-7577928D01*
X12731309Y-7587452D01*
X12712262Y-7596976D01*
X12693214Y-7596976D01*
X12674167Y-7587452D01*
X12664643Y-7577928D01*
X12655119Y-7558881D01*
X12645595Y-7520786D01*
X12645595Y-7473167D01*
X12655119Y-7435071D01*
X12664643Y-7416024D01*
X12674167Y-7406500D01*
X12693214Y-7396976D01*
X12845595Y-7577928D02*
X12855119Y-7587452D01*
X12845595Y-7596976D01*
X12836071Y-7587452D01*
X12845595Y-7577928D01*
X12845595Y-7596976D01*
X12921786Y-7396976D02*
X13055119Y-7396976D01*
X12969405Y-7596976D01*
X13217024Y-7396976D02*
X13178928Y-7396976D01*
X13159881Y-7406500D01*
X13150357Y-7416024D01*
X13131309Y-7444595D01*
X13121786Y-7482690D01*
X13121786Y-7558881D01*
X13131309Y-7577928D01*
X13140833Y-7587452D01*
X13159881Y-7596976D01*
X13197976Y-7596976D01*
X13217024Y-7587452D01*
X13226548Y-7577928D01*
X13236071Y-7558881D01*
X13236071Y-7511262D01*
X13226548Y-7492214D01*
X13217024Y-7482690D01*
X13197976Y-7473167D01*
X13159881Y-7473167D01*
X13140833Y-7482690D01*
X13131309Y-7492214D01*
X13121786Y-7511262D01*
X13312262Y-7416024D02*
X13321786Y-7406500D01*
X13340833Y-7396976D01*
X13388452Y-7396976D01*
X13407500Y-7406500D01*
X13417024Y-7416024D01*
X13426548Y-7435071D01*
X13426548Y-7454119D01*
X13417024Y-7482690D01*
X13302738Y-7596976D01*
X13426548Y-7596976D01*
X13512262Y-7596976D02*
X13512262Y-7463643D01*
X13512262Y-7482690D02*
X13521786Y-7473167D01*
X13540833Y-7463643D01*
X13569405Y-7463643D01*
X13588452Y-7473167D01*
X13597976Y-7492214D01*
X13597976Y-7596976D01*
X13597976Y-7492214D02*
X13607500Y-7473167D01*
X13626548Y-7463643D01*
X13655119Y-7463643D01*
X13674167Y-7473167D01*
X13683690Y-7492214D01*
X13683690Y-7596976D01*
X13778928Y-7596976D02*
X13778928Y-7463643D01*
X13778928Y-7482690D02*
X13788452Y-7473167D01*
X13807500Y-7463643D01*
X13836071Y-7463643D01*
X13855119Y-7473167D01*
X13864643Y-7492214D01*
X13864643Y-7596976D01*
X13864643Y-7492214D02*
X13874167Y-7473167D01*
X13893214Y-7463643D01*
X13921786Y-7463643D01*
X13940833Y-7473167D01*
X13950357Y-7492214D01*
X13950357Y-7596976D01*
X14340833Y-7387452D02*
X14169405Y-7644595D01*
X14597976Y-7396976D02*
X14617024Y-7396976D01*
X14636071Y-7406500D01*
X14645595Y-7416024D01*
X14655119Y-7435071D01*
X14664643Y-7473167D01*
X14664643Y-7520786D01*
X14655119Y-7558881D01*
X14645595Y-7577928D01*
X14636071Y-7587452D01*
X14617024Y-7596976D01*
X14597976Y-7596976D01*
X14578928Y-7587452D01*
X14569405Y-7577928D01*
X14559881Y-7558881D01*
X14550357Y-7520786D01*
X14550357Y-7473167D01*
X14559881Y-7435071D01*
X14569405Y-7416024D01*
X14578928Y-7406500D01*
X14597976Y-7396976D01*
X14750357Y-7577928D02*
X14759881Y-7587452D01*
X14750357Y-7596976D01*
X14740833Y-7587452D01*
X14750357Y-7577928D01*
X14750357Y-7596976D01*
X14883690Y-7396976D02*
X14902738Y-7396976D01*
X14921786Y-7406500D01*
X14931309Y-7416024D01*
X14940833Y-7435071D01*
X14950357Y-7473167D01*
X14950357Y-7520786D01*
X14940833Y-7558881D01*
X14931309Y-7577928D01*
X14921786Y-7587452D01*
X14902738Y-7596976D01*
X14883690Y-7596976D01*
X14864643Y-7587452D01*
X14855119Y-7577928D01*
X14845595Y-7558881D01*
X14836071Y-7520786D01*
X14836071Y-7473167D01*
X14845595Y-7435071D01*
X14855119Y-7416024D01*
X14864643Y-7406500D01*
X14883690Y-7396976D01*
X15017024Y-7396976D02*
X15140833Y-7396976D01*
X15074167Y-7473167D01*
X15102738Y-7473167D01*
X15121786Y-7482690D01*
X15131309Y-7492214D01*
X15140833Y-7511262D01*
X15140833Y-7558881D01*
X15131309Y-7577928D01*
X15121786Y-7587452D01*
X15102738Y-7596976D01*
X15045595Y-7596976D01*
X15026548Y-7587452D01*
X15017024Y-7577928D01*
X15264643Y-7396976D02*
X15283690Y-7396976D01*
X15302738Y-7406500D01*
X15312262Y-7416024D01*
X15321786Y-7435071D01*
X15331309Y-7473167D01*
X15331309Y-7520786D01*
X15321786Y-7558881D01*
X15312262Y-7577928D01*
X15302738Y-7587452D01*
X15283690Y-7596976D01*
X15264643Y-7596976D01*
X15245595Y-7587452D01*
X15236071Y-7577928D01*
X15226548Y-7558881D01*
X15217024Y-7520786D01*
X15217024Y-7473167D01*
X15226548Y-7435071D01*
X15236071Y-7416024D01*
X15245595Y-7406500D01*
X15264643Y-7396976D01*
X15455119Y-7396976D02*
X15474167Y-7396976D01*
X15493214Y-7406500D01*
X15502738Y-7416024D01*
X15512262Y-7435071D01*
X15521786Y-7473167D01*
X15521786Y-7520786D01*
X15512262Y-7558881D01*
X15502738Y-7577928D01*
X15493214Y-7587452D01*
X15474167Y-7596976D01*
X15455119Y-7596976D01*
X15436071Y-7587452D01*
X15426548Y-7577928D01*
X15417024Y-7558881D01*
X15407500Y-7520786D01*
X15407500Y-7473167D01*
X15417024Y-7435071D01*
X15426548Y-7416024D01*
X15436071Y-7406500D01*
X15455119Y-7396976D01*
X15597976Y-7396976D02*
X15597976Y-7435071D01*
X15674167Y-7396976D02*
X15674167Y-7435071D01*
X15969405Y-7673167D02*
X15959881Y-7663643D01*
X15940833Y-7635071D01*
X15931309Y-7616024D01*
X15921786Y-7587452D01*
X15912262Y-7539833D01*
X15912262Y-7501738D01*
X15921786Y-7454119D01*
X15931309Y-7425548D01*
X15940833Y-7406500D01*
X15959881Y-7377928D01*
X15969405Y-7368405D01*
X16074167Y-7482690D02*
X16055119Y-7473167D01*
X16045595Y-7463643D01*
X16036071Y-7444595D01*
X16036071Y-7435071D01*
X16045595Y-7416024D01*
X16055119Y-7406500D01*
X16074167Y-7396976D01*
X16112262Y-7396976D01*
X16131309Y-7406500D01*
X16140833Y-7416024D01*
X16150357Y-7435071D01*
X16150357Y-7444595D01*
X16140833Y-7463643D01*
X16131309Y-7473167D01*
X16112262Y-7482690D01*
X16074167Y-7482690D01*
X16055119Y-7492214D01*
X16045595Y-7501738D01*
X16036071Y-7520786D01*
X16036071Y-7558881D01*
X16045595Y-7577928D01*
X16055119Y-7587452D01*
X16074167Y-7596976D01*
X16112262Y-7596976D01*
X16131309Y-7587452D01*
X16140833Y-7577928D01*
X16150357Y-7558881D01*
X16150357Y-7520786D01*
X16140833Y-7501738D01*
X16131309Y-7492214D01*
X16112262Y-7482690D01*
X16388452Y-7596976D02*
X16388452Y-7396976D01*
X16474167Y-7596976D02*
X16474167Y-7492214D01*
X16464643Y-7473167D01*
X16445595Y-7463643D01*
X16417024Y-7463643D01*
X16397976Y-7473167D01*
X16388452Y-7482690D01*
X16597976Y-7596976D02*
X16578928Y-7587452D01*
X16569405Y-7577928D01*
X16559881Y-7558881D01*
X16559881Y-7501738D01*
X16569405Y-7482690D01*
X16578928Y-7473167D01*
X16597976Y-7463643D01*
X16626548Y-7463643D01*
X16645595Y-7473167D01*
X16655119Y-7482690D01*
X16664643Y-7501738D01*
X16664643Y-7558881D01*
X16655119Y-7577928D01*
X16645595Y-7587452D01*
X16626548Y-7596976D01*
X16597976Y-7596976D01*
X16778929Y-7596976D02*
X16759881Y-7587452D01*
X16750357Y-7568405D01*
X16750357Y-7396976D01*
X16931310Y-7587452D02*
X16912262Y-7596976D01*
X16874167Y-7596976D01*
X16855119Y-7587452D01*
X16845595Y-7568405D01*
X16845595Y-7492214D01*
X16855119Y-7473167D01*
X16874167Y-7463643D01*
X16912262Y-7463643D01*
X16931310Y-7473167D01*
X16940833Y-7492214D01*
X16940833Y-7511262D01*
X16845595Y-7530309D01*
X17017024Y-7587452D02*
X17036071Y-7596976D01*
X17074167Y-7596976D01*
X17093214Y-7587452D01*
X17102738Y-7568405D01*
X17102738Y-7558881D01*
X17093214Y-7539833D01*
X17074167Y-7530309D01*
X17045595Y-7530309D01*
X17026548Y-7520786D01*
X17017024Y-7501738D01*
X17017024Y-7492214D01*
X17026548Y-7473167D01*
X17045595Y-7463643D01*
X17074167Y-7463643D01*
X17093214Y-7473167D01*
X17169405Y-7673167D02*
X17178929Y-7663643D01*
X17197976Y-7635071D01*
X17207500Y-7616024D01*
X17217024Y-7587452D01*
X17226548Y-7539833D01*
X17226548Y-7501738D01*
X17217024Y-7454119D01*
X17207500Y-7425548D01*
X17197976Y-7406500D01*
X17178929Y-7377928D01*
X17169405Y-7368405D01*
D14*
X12357500Y-7730500D02*
X12357500Y-7810500D01*
X12317500Y-7770500D02*
X12397500Y-7770500D01*
D11*
X12693214Y-7660976D02*
X12712262Y-7660976D01*
X12731309Y-7670500D01*
X12740833Y-7680024D01*
X12750357Y-7699071D01*
X12759881Y-7737167D01*
X12759881Y-7784786D01*
X12750357Y-7822881D01*
X12740833Y-7841928D01*
X12731309Y-7851452D01*
X12712262Y-7860976D01*
X12693214Y-7860976D01*
X12674167Y-7851452D01*
X12664643Y-7841928D01*
X12655119Y-7822881D01*
X12645595Y-7784786D01*
X12645595Y-7737167D01*
X12655119Y-7699071D01*
X12664643Y-7680024D01*
X12674167Y-7670500D01*
X12693214Y-7660976D01*
X12845595Y-7841928D02*
X12855119Y-7851452D01*
X12845595Y-7860976D01*
X12836071Y-7851452D01*
X12845595Y-7841928D01*
X12845595Y-7860976D01*
X12969405Y-7746690D02*
X12950357Y-7737167D01*
X12940833Y-7727643D01*
X12931309Y-7708595D01*
X12931309Y-7699071D01*
X12940833Y-7680024D01*
X12950357Y-7670500D01*
X12969405Y-7660976D01*
X13007500Y-7660976D01*
X13026548Y-7670500D01*
X13036071Y-7680024D01*
X13045595Y-7699071D01*
X13045595Y-7708595D01*
X13036071Y-7727643D01*
X13026548Y-7737167D01*
X13007500Y-7746690D01*
X12969405Y-7746690D01*
X12950357Y-7756214D01*
X12940833Y-7765738D01*
X12931309Y-7784786D01*
X12931309Y-7822881D01*
X12940833Y-7841928D01*
X12950357Y-7851452D01*
X12969405Y-7860976D01*
X13007500Y-7860976D01*
X13026548Y-7851452D01*
X13036071Y-7841928D01*
X13045595Y-7822881D01*
X13045595Y-7784786D01*
X13036071Y-7765738D01*
X13026548Y-7756214D01*
X13007500Y-7746690D01*
X13169405Y-7660976D02*
X13188452Y-7660976D01*
X13207500Y-7670500D01*
X13217024Y-7680024D01*
X13226548Y-7699071D01*
X13236071Y-7737167D01*
X13236071Y-7784786D01*
X13226548Y-7822881D01*
X13217024Y-7841928D01*
X13207500Y-7851452D01*
X13188452Y-7860976D01*
X13169405Y-7860976D01*
X13150357Y-7851452D01*
X13140833Y-7841928D01*
X13131309Y-7822881D01*
X13121786Y-7784786D01*
X13121786Y-7737167D01*
X13131309Y-7699071D01*
X13140833Y-7680024D01*
X13150357Y-7670500D01*
X13169405Y-7660976D01*
X13359881Y-7660976D02*
X13378928Y-7660976D01*
X13397976Y-7670500D01*
X13407500Y-7680024D01*
X13417024Y-7699071D01*
X13426548Y-7737167D01*
X13426548Y-7784786D01*
X13417024Y-7822881D01*
X13407500Y-7841928D01*
X13397976Y-7851452D01*
X13378928Y-7860976D01*
X13359881Y-7860976D01*
X13340833Y-7851452D01*
X13331309Y-7841928D01*
X13321786Y-7822881D01*
X13312262Y-7784786D01*
X13312262Y-7737167D01*
X13321786Y-7699071D01*
X13331309Y-7680024D01*
X13340833Y-7670500D01*
X13359881Y-7660976D01*
X13512262Y-7860976D02*
X13512262Y-7727643D01*
X13512262Y-7746690D02*
X13521786Y-7737167D01*
X13540833Y-7727643D01*
X13569405Y-7727643D01*
X13588452Y-7737167D01*
X13597976Y-7756214D01*
X13597976Y-7860976D01*
X13597976Y-7756214D02*
X13607500Y-7737167D01*
X13626548Y-7727643D01*
X13655119Y-7727643D01*
X13674167Y-7737167D01*
X13683690Y-7756214D01*
X13683690Y-7860976D01*
X13778928Y-7860976D02*
X13778928Y-7727643D01*
X13778928Y-7746690D02*
X13788452Y-7737167D01*
X13807500Y-7727643D01*
X13836071Y-7727643D01*
X13855119Y-7737167D01*
X13864643Y-7756214D01*
X13864643Y-7860976D01*
X13864643Y-7756214D02*
X13874167Y-7737167D01*
X13893214Y-7727643D01*
X13921786Y-7727643D01*
X13940833Y-7737167D01*
X13950357Y-7756214D01*
X13950357Y-7860976D01*
X14340833Y-7651452D02*
X14169405Y-7908595D01*
X14597976Y-7660976D02*
X14617024Y-7660976D01*
X14636071Y-7670500D01*
X14645595Y-7680024D01*
X14655119Y-7699071D01*
X14664643Y-7737167D01*
X14664643Y-7784786D01*
X14655119Y-7822881D01*
X14645595Y-7841928D01*
X14636071Y-7851452D01*
X14617024Y-7860976D01*
X14597976Y-7860976D01*
X14578928Y-7851452D01*
X14569405Y-7841928D01*
X14559881Y-7822881D01*
X14550357Y-7784786D01*
X14550357Y-7737167D01*
X14559881Y-7699071D01*
X14569405Y-7680024D01*
X14578928Y-7670500D01*
X14597976Y-7660976D01*
X14750357Y-7841928D02*
X14759881Y-7851452D01*
X14750357Y-7860976D01*
X14740833Y-7851452D01*
X14750357Y-7841928D01*
X14750357Y-7860976D01*
X14883690Y-7660976D02*
X14902738Y-7660976D01*
X14921786Y-7670500D01*
X14931309Y-7680024D01*
X14940833Y-7699071D01*
X14950357Y-7737167D01*
X14950357Y-7784786D01*
X14940833Y-7822881D01*
X14931309Y-7841928D01*
X14921786Y-7851452D01*
X14902738Y-7860976D01*
X14883690Y-7860976D01*
X14864643Y-7851452D01*
X14855119Y-7841928D01*
X14845595Y-7822881D01*
X14836071Y-7784786D01*
X14836071Y-7737167D01*
X14845595Y-7699071D01*
X14855119Y-7680024D01*
X14864643Y-7670500D01*
X14883690Y-7660976D01*
X15017024Y-7660976D02*
X15140833Y-7660976D01*
X15074167Y-7737167D01*
X15102738Y-7737167D01*
X15121786Y-7746690D01*
X15131309Y-7756214D01*
X15140833Y-7775262D01*
X15140833Y-7822881D01*
X15131309Y-7841928D01*
X15121786Y-7851452D01*
X15102738Y-7860976D01*
X15045595Y-7860976D01*
X15026548Y-7851452D01*
X15017024Y-7841928D01*
X15331309Y-7860976D02*
X15217024Y-7860976D01*
X15274167Y-7860976D02*
X15274167Y-7660976D01*
X15255119Y-7689548D01*
X15236071Y-7708595D01*
X15217024Y-7718119D01*
X15512262Y-7660976D02*
X15417024Y-7660976D01*
X15407500Y-7756214D01*
X15417024Y-7746690D01*
X15436071Y-7737167D01*
X15483690Y-7737167D01*
X15502738Y-7746690D01*
X15512262Y-7756214D01*
X15521786Y-7775262D01*
X15521786Y-7822881D01*
X15512262Y-7841928D01*
X15502738Y-7851452D01*
X15483690Y-7860976D01*
X15436071Y-7860976D01*
X15417024Y-7851452D01*
X15407500Y-7841928D01*
X15597976Y-7660976D02*
X15597976Y-7699071D01*
X15674167Y-7660976D02*
X15674167Y-7699071D01*
X15969405Y-7937167D02*
X15959881Y-7927643D01*
X15940833Y-7899071D01*
X15931309Y-7880024D01*
X15921786Y-7851452D01*
X15912262Y-7803833D01*
X15912262Y-7765738D01*
X15921786Y-7718119D01*
X15931309Y-7689548D01*
X15940833Y-7670500D01*
X15959881Y-7641928D01*
X15969405Y-7632405D01*
X16036071Y-7680024D02*
X16045595Y-7670500D01*
X16064643Y-7660976D01*
X16112262Y-7660976D01*
X16131309Y-7670500D01*
X16140833Y-7680024D01*
X16150357Y-7699071D01*
X16150357Y-7718119D01*
X16140833Y-7746690D01*
X16026548Y-7860976D01*
X16150357Y-7860976D01*
X16388452Y-7860976D02*
X16388452Y-7660976D01*
X16474167Y-7860976D02*
X16474167Y-7756214D01*
X16464643Y-7737167D01*
X16445595Y-7727643D01*
X16417024Y-7727643D01*
X16397976Y-7737167D01*
X16388452Y-7746690D01*
X16597976Y-7860976D02*
X16578928Y-7851452D01*
X16569405Y-7841928D01*
X16559881Y-7822881D01*
X16559881Y-7765738D01*
X16569405Y-7746690D01*
X16578928Y-7737167D01*
X16597976Y-7727643D01*
X16626548Y-7727643D01*
X16645595Y-7737167D01*
X16655119Y-7746690D01*
X16664643Y-7765738D01*
X16664643Y-7822881D01*
X16655119Y-7841928D01*
X16645595Y-7851452D01*
X16626548Y-7860976D01*
X16597976Y-7860976D01*
X16778929Y-7860976D02*
X16759881Y-7851452D01*
X16750357Y-7832405D01*
X16750357Y-7660976D01*
X16931310Y-7851452D02*
X16912262Y-7860976D01*
X16874167Y-7860976D01*
X16855119Y-7851452D01*
X16845595Y-7832405D01*
X16845595Y-7756214D01*
X16855119Y-7737167D01*
X16874167Y-7727643D01*
X16912262Y-7727643D01*
X16931310Y-7737167D01*
X16940833Y-7756214D01*
X16940833Y-7775262D01*
X16845595Y-7794309D01*
X17017024Y-7851452D02*
X17036071Y-7860976D01*
X17074167Y-7860976D01*
X17093214Y-7851452D01*
X17102738Y-7832405D01*
X17102738Y-7822881D01*
X17093214Y-7803833D01*
X17074167Y-7794309D01*
X17045595Y-7794309D01*
X17026548Y-7784786D01*
X17017024Y-7765738D01*
X17017024Y-7756214D01*
X17026548Y-7737167D01*
X17045595Y-7727643D01*
X17074167Y-7727643D01*
X17093214Y-7737167D01*
X17169405Y-7937167D02*
X17178929Y-7927643D01*
X17197976Y-7899071D01*
X17207500Y-7880024D01*
X17217024Y-7851452D01*
X17226548Y-7803833D01*
X17226548Y-7765738D01*
X17217024Y-7718119D01*
X17207500Y-7689548D01*
X17197976Y-7670500D01*
X17178929Y-7641928D01*
X17169405Y-7632405D01*
D15*
X12382856Y-8069856D02*
X12382856Y-7999144D01*
X12312144Y-7999144D01*
X12312144Y-8069856D01*
X12382856Y-8069856D01*
D11*
X12759881Y-8124976D02*
X12645595Y-8124976D01*
X12702738Y-8124976D02*
X12702738Y-7924976D01*
X12683690Y-7953548D01*
X12664643Y-7972595D01*
X12645595Y-7982119D01*
X12845595Y-8105928D02*
X12855119Y-8115452D01*
X12845595Y-8124976D01*
X12836071Y-8115452D01*
X12845595Y-8105928D01*
X12845595Y-8124976D01*
X12978928Y-7924976D02*
X12997976Y-7924976D01*
X13017024Y-7934500D01*
X13026548Y-7944024D01*
X13036071Y-7963071D01*
X13045595Y-8001167D01*
X13045595Y-8048786D01*
X13036071Y-8086881D01*
X13026548Y-8105928D01*
X13017024Y-8115452D01*
X12997976Y-8124976D01*
X12978928Y-8124976D01*
X12959881Y-8115452D01*
X12950357Y-8105928D01*
X12940833Y-8086881D01*
X12931309Y-8048786D01*
X12931309Y-8001167D01*
X12940833Y-7963071D01*
X12950357Y-7944024D01*
X12959881Y-7934500D01*
X12978928Y-7924976D01*
X13169405Y-7924976D02*
X13188452Y-7924976D01*
X13207500Y-7934500D01*
X13217024Y-7944024D01*
X13226548Y-7963071D01*
X13236071Y-8001167D01*
X13236071Y-8048786D01*
X13226548Y-8086881D01*
X13217024Y-8105928D01*
X13207500Y-8115452D01*
X13188452Y-8124976D01*
X13169405Y-8124976D01*
X13150357Y-8115452D01*
X13140833Y-8105928D01*
X13131309Y-8086881D01*
X13121786Y-8048786D01*
X13121786Y-8001167D01*
X13131309Y-7963071D01*
X13140833Y-7944024D01*
X13150357Y-7934500D01*
X13169405Y-7924976D01*
X13359881Y-7924976D02*
X13378928Y-7924976D01*
X13397976Y-7934500D01*
X13407500Y-7944024D01*
X13417024Y-7963071D01*
X13426548Y-8001167D01*
X13426548Y-8048786D01*
X13417024Y-8086881D01*
X13407500Y-8105928D01*
X13397976Y-8115452D01*
X13378928Y-8124976D01*
X13359881Y-8124976D01*
X13340833Y-8115452D01*
X13331309Y-8105928D01*
X13321786Y-8086881D01*
X13312262Y-8048786D01*
X13312262Y-8001167D01*
X13321786Y-7963071D01*
X13331309Y-7944024D01*
X13340833Y-7934500D01*
X13359881Y-7924976D01*
X13512262Y-8124976D02*
X13512262Y-7991643D01*
X13512262Y-8010690D02*
X13521786Y-8001167D01*
X13540833Y-7991643D01*
X13569405Y-7991643D01*
X13588452Y-8001167D01*
X13597976Y-8020214D01*
X13597976Y-8124976D01*
X13597976Y-8020214D02*
X13607500Y-8001167D01*
X13626548Y-7991643D01*
X13655119Y-7991643D01*
X13674167Y-8001167D01*
X13683690Y-8020214D01*
X13683690Y-8124976D01*
X13778928Y-8124976D02*
X13778928Y-7991643D01*
X13778928Y-8010690D02*
X13788452Y-8001167D01*
X13807500Y-7991643D01*
X13836071Y-7991643D01*
X13855119Y-8001167D01*
X13864643Y-8020214D01*
X13864643Y-8124976D01*
X13864643Y-8020214D02*
X13874167Y-8001167D01*
X13893214Y-7991643D01*
X13921786Y-7991643D01*
X13940833Y-8001167D01*
X13950357Y-8020214D01*
X13950357Y-8124976D01*
X14340833Y-7915452D02*
X14169405Y-8172595D01*
X14597976Y-7924976D02*
X14617024Y-7924976D01*
X14636071Y-7934500D01*
X14645595Y-7944024D01*
X14655119Y-7963071D01*
X14664643Y-8001167D01*
X14664643Y-8048786D01*
X14655119Y-8086881D01*
X14645595Y-8105928D01*
X14636071Y-8115452D01*
X14617024Y-8124976D01*
X14597976Y-8124976D01*
X14578928Y-8115452D01*
X14569405Y-8105928D01*
X14559881Y-8086881D01*
X14550357Y-8048786D01*
X14550357Y-8001167D01*
X14559881Y-7963071D01*
X14569405Y-7944024D01*
X14578928Y-7934500D01*
X14597976Y-7924976D01*
X14750357Y-8105928D02*
X14759881Y-8115452D01*
X14750357Y-8124976D01*
X14740833Y-8115452D01*
X14750357Y-8105928D01*
X14750357Y-8124976D01*
X14883690Y-7924976D02*
X14902738Y-7924976D01*
X14921786Y-7934500D01*
X14931309Y-7944024D01*
X14940833Y-7963071D01*
X14950357Y-8001167D01*
X14950357Y-8048786D01*
X14940833Y-8086881D01*
X14931309Y-8105928D01*
X14921786Y-8115452D01*
X14902738Y-8124976D01*
X14883690Y-8124976D01*
X14864643Y-8115452D01*
X14855119Y-8105928D01*
X14845595Y-8086881D01*
X14836071Y-8048786D01*
X14836071Y-8001167D01*
X14845595Y-7963071D01*
X14855119Y-7944024D01*
X14864643Y-7934500D01*
X14883690Y-7924976D01*
X15017024Y-7924976D02*
X15140833Y-7924976D01*
X15074167Y-8001167D01*
X15102738Y-8001167D01*
X15121786Y-8010690D01*
X15131309Y-8020214D01*
X15140833Y-8039262D01*
X15140833Y-8086881D01*
X15131309Y-8105928D01*
X15121786Y-8115452D01*
X15102738Y-8124976D01*
X15045595Y-8124976D01*
X15026548Y-8115452D01*
X15017024Y-8105928D01*
X15236071Y-8124976D02*
X15274167Y-8124976D01*
X15293214Y-8115452D01*
X15302738Y-8105928D01*
X15321786Y-8077357D01*
X15331309Y-8039262D01*
X15331309Y-7963071D01*
X15321786Y-7944024D01*
X15312262Y-7934500D01*
X15293214Y-7924976D01*
X15255119Y-7924976D01*
X15236071Y-7934500D01*
X15226548Y-7944024D01*
X15217024Y-7963071D01*
X15217024Y-8010690D01*
X15226548Y-8029738D01*
X15236071Y-8039262D01*
X15255119Y-8048786D01*
X15293214Y-8048786D01*
X15312262Y-8039262D01*
X15321786Y-8029738D01*
X15331309Y-8010690D01*
X15502738Y-7991643D02*
X15502738Y-8124976D01*
X15455119Y-7915452D02*
X15407500Y-8058309D01*
X15531309Y-8058309D01*
X15597976Y-7924976D02*
X15597976Y-7963071D01*
X15674167Y-7924976D02*
X15674167Y-7963071D01*
X15969405Y-8201167D02*
X15959881Y-8191643D01*
X15940833Y-8163071D01*
X15931309Y-8144024D01*
X15921786Y-8115452D01*
X15912262Y-8067833D01*
X15912262Y-8029738D01*
X15921786Y-7982119D01*
X15931309Y-7953548D01*
X15940833Y-7934500D01*
X15959881Y-7905928D01*
X15969405Y-7896405D01*
X16131309Y-7991643D02*
X16131309Y-8124976D01*
X16083690Y-7915452D02*
X16036071Y-8058309D01*
X16159881Y-8058309D01*
X16388452Y-8124976D02*
X16388452Y-7924976D01*
X16474167Y-8124976D02*
X16474167Y-8020214D01*
X16464643Y-8001167D01*
X16445595Y-7991643D01*
X16417024Y-7991643D01*
X16397976Y-8001167D01*
X16388452Y-8010690D01*
X16597976Y-8124976D02*
X16578928Y-8115452D01*
X16569405Y-8105928D01*
X16559881Y-8086881D01*
X16559881Y-8029738D01*
X16569405Y-8010690D01*
X16578928Y-8001167D01*
X16597976Y-7991643D01*
X16626548Y-7991643D01*
X16645595Y-8001167D01*
X16655119Y-8010690D01*
X16664643Y-8029738D01*
X16664643Y-8086881D01*
X16655119Y-8105928D01*
X16645595Y-8115452D01*
X16626548Y-8124976D01*
X16597976Y-8124976D01*
X16778929Y-8124976D02*
X16759881Y-8115452D01*
X16750357Y-8096405D01*
X16750357Y-7924976D01*
X16931310Y-8115452D02*
X16912262Y-8124976D01*
X16874167Y-8124976D01*
X16855119Y-8115452D01*
X16845595Y-8096405D01*
X16845595Y-8020214D01*
X16855119Y-8001167D01*
X16874167Y-7991643D01*
X16912262Y-7991643D01*
X16931310Y-8001167D01*
X16940833Y-8020214D01*
X16940833Y-8039262D01*
X16845595Y-8058309D01*
X17017024Y-8115452D02*
X17036071Y-8124976D01*
X17074167Y-8124976D01*
X17093214Y-8115452D01*
X17102738Y-8096405D01*
X17102738Y-8086881D01*
X17093214Y-8067833D01*
X17074167Y-8058309D01*
X17045595Y-8058309D01*
X17026548Y-8048786D01*
X17017024Y-8029738D01*
X17017024Y-8020214D01*
X17026548Y-8001167D01*
X17045595Y-7991643D01*
X17074167Y-7991643D01*
X17093214Y-8001167D01*
X17169405Y-8201167D02*
X17178929Y-8191643D01*
X17197976Y-8163071D01*
X17207500Y-8144024D01*
X17217024Y-8115452D01*
X17226548Y-8067833D01*
X17226548Y-8029738D01*
X17217024Y-7982119D01*
X17207500Y-7953548D01*
X17197976Y-7934500D01*
X17178929Y-7905928D01*
X17169405Y-7896405D01*
D16*
X12347462Y-8348538D02*
X12397500Y-8298500D01*
X12347462Y-8248462D01*
X12297424Y-8298500D01*
X12347462Y-8348538D01*
D11*
X12759881Y-8388976D02*
X12645595Y-8388976D01*
X12702738Y-8388976D02*
X12702738Y-8188976D01*
X12683690Y-8217548D01*
X12664643Y-8236595D01*
X12645595Y-8246119D01*
X12845595Y-8369928D02*
X12855119Y-8379452D01*
X12845595Y-8388976D01*
X12836071Y-8379452D01*
X12845595Y-8369928D01*
X12845595Y-8388976D01*
X12978928Y-8188976D02*
X12997976Y-8188976D01*
X13017024Y-8198500D01*
X13026548Y-8208024D01*
X13036071Y-8227071D01*
X13045595Y-8265167D01*
X13045595Y-8312786D01*
X13036071Y-8350881D01*
X13026548Y-8369928D01*
X13017024Y-8379452D01*
X12997976Y-8388976D01*
X12978928Y-8388976D01*
X12959881Y-8379452D01*
X12950357Y-8369928D01*
X12940833Y-8350881D01*
X12931309Y-8312786D01*
X12931309Y-8265167D01*
X12940833Y-8227071D01*
X12950357Y-8208024D01*
X12959881Y-8198500D01*
X12978928Y-8188976D01*
X13169405Y-8188976D02*
X13188452Y-8188976D01*
X13207500Y-8198500D01*
X13217024Y-8208024D01*
X13226548Y-8227071D01*
X13236071Y-8265167D01*
X13236071Y-8312786D01*
X13226548Y-8350881D01*
X13217024Y-8369928D01*
X13207500Y-8379452D01*
X13188452Y-8388976D01*
X13169405Y-8388976D01*
X13150357Y-8379452D01*
X13140833Y-8369928D01*
X13131309Y-8350881D01*
X13121786Y-8312786D01*
X13121786Y-8265167D01*
X13131309Y-8227071D01*
X13140833Y-8208024D01*
X13150357Y-8198500D01*
X13169405Y-8188976D01*
X13426548Y-8388976D02*
X13312262Y-8388976D01*
X13369405Y-8388976D02*
X13369405Y-8188976D01*
X13350357Y-8217548D01*
X13331309Y-8236595D01*
X13312262Y-8246119D01*
X13512262Y-8388976D02*
X13512262Y-8255643D01*
X13512262Y-8274690D02*
X13521786Y-8265167D01*
X13540833Y-8255643D01*
X13569405Y-8255643D01*
X13588452Y-8265167D01*
X13597976Y-8284214D01*
X13597976Y-8388976D01*
X13597976Y-8284214D02*
X13607500Y-8265167D01*
X13626548Y-8255643D01*
X13655119Y-8255643D01*
X13674167Y-8265167D01*
X13683690Y-8284214D01*
X13683690Y-8388976D01*
X13778928Y-8388976D02*
X13778928Y-8255643D01*
X13778928Y-8274690D02*
X13788452Y-8265167D01*
X13807500Y-8255643D01*
X13836071Y-8255643D01*
X13855119Y-8265167D01*
X13864643Y-8284214D01*
X13864643Y-8388976D01*
X13864643Y-8284214D02*
X13874167Y-8265167D01*
X13893214Y-8255643D01*
X13921786Y-8255643D01*
X13940833Y-8265167D01*
X13950357Y-8284214D01*
X13950357Y-8388976D01*
X14340833Y-8179452D02*
X14169405Y-8436595D01*
X14597976Y-8188976D02*
X14617024Y-8188976D01*
X14636071Y-8198500D01*
X14645595Y-8208024D01*
X14655119Y-8227071D01*
X14664643Y-8265167D01*
X14664643Y-8312786D01*
X14655119Y-8350881D01*
X14645595Y-8369928D01*
X14636071Y-8379452D01*
X14617024Y-8388976D01*
X14597976Y-8388976D01*
X14578928Y-8379452D01*
X14569405Y-8369928D01*
X14559881Y-8350881D01*
X14550357Y-8312786D01*
X14550357Y-8265167D01*
X14559881Y-8227071D01*
X14569405Y-8208024D01*
X14578928Y-8198500D01*
X14597976Y-8188976D01*
X14750357Y-8369928D02*
X14759881Y-8379452D01*
X14750357Y-8388976D01*
X14740833Y-8379452D01*
X14750357Y-8369928D01*
X14750357Y-8388976D01*
X14883690Y-8188976D02*
X14902738Y-8188976D01*
X14921786Y-8198500D01*
X14931309Y-8208024D01*
X14940833Y-8227071D01*
X14950357Y-8265167D01*
X14950357Y-8312786D01*
X14940833Y-8350881D01*
X14931309Y-8369928D01*
X14921786Y-8379452D01*
X14902738Y-8388976D01*
X14883690Y-8388976D01*
X14864643Y-8379452D01*
X14855119Y-8369928D01*
X14845595Y-8350881D01*
X14836071Y-8312786D01*
X14836071Y-8265167D01*
X14845595Y-8227071D01*
X14855119Y-8208024D01*
X14864643Y-8198500D01*
X14883690Y-8188976D01*
X15017024Y-8188976D02*
X15140833Y-8188976D01*
X15074167Y-8265167D01*
X15102738Y-8265167D01*
X15121786Y-8274690D01*
X15131309Y-8284214D01*
X15140833Y-8303262D01*
X15140833Y-8350881D01*
X15131309Y-8369928D01*
X15121786Y-8379452D01*
X15102738Y-8388976D01*
X15045595Y-8388976D01*
X15026548Y-8379452D01*
X15017024Y-8369928D01*
X15236071Y-8388976D02*
X15274167Y-8388976D01*
X15293214Y-8379452D01*
X15302738Y-8369928D01*
X15321786Y-8341357D01*
X15331309Y-8303262D01*
X15331309Y-8227071D01*
X15321786Y-8208024D01*
X15312262Y-8198500D01*
X15293214Y-8188976D01*
X15255119Y-8188976D01*
X15236071Y-8198500D01*
X15226548Y-8208024D01*
X15217024Y-8227071D01*
X15217024Y-8274690D01*
X15226548Y-8293738D01*
X15236071Y-8303262D01*
X15255119Y-8312786D01*
X15293214Y-8312786D01*
X15312262Y-8303262D01*
X15321786Y-8293738D01*
X15331309Y-8274690D01*
X15502738Y-8255643D02*
X15502738Y-8388976D01*
X15455119Y-8179452D02*
X15407500Y-8322309D01*
X15531309Y-8322309D01*
X15597976Y-8188976D02*
X15597976Y-8227071D01*
X15674167Y-8188976D02*
X15674167Y-8227071D01*
X15969405Y-8465167D02*
X15959881Y-8455643D01*
X15940833Y-8427071D01*
X15931309Y-8408024D01*
X15921786Y-8379452D01*
X15912262Y-8331833D01*
X15912262Y-8293738D01*
X15921786Y-8246119D01*
X15931309Y-8217548D01*
X15940833Y-8198500D01*
X15959881Y-8169928D01*
X15969405Y-8160405D01*
X16036071Y-8208024D02*
X16045595Y-8198500D01*
X16064643Y-8188976D01*
X16112262Y-8188976D01*
X16131309Y-8198500D01*
X16140833Y-8208024D01*
X16150357Y-8227071D01*
X16150357Y-8246119D01*
X16140833Y-8274690D01*
X16026548Y-8388976D01*
X16150357Y-8388976D01*
X16388452Y-8388976D02*
X16388452Y-8188976D01*
X16474167Y-8388976D02*
X16474167Y-8284214D01*
X16464643Y-8265167D01*
X16445595Y-8255643D01*
X16417024Y-8255643D01*
X16397976Y-8265167D01*
X16388452Y-8274690D01*
X16597976Y-8388976D02*
X16578928Y-8379452D01*
X16569405Y-8369928D01*
X16559881Y-8350881D01*
X16559881Y-8293738D01*
X16569405Y-8274690D01*
X16578928Y-8265167D01*
X16597976Y-8255643D01*
X16626548Y-8255643D01*
X16645595Y-8265167D01*
X16655119Y-8274690D01*
X16664643Y-8293738D01*
X16664643Y-8350881D01*
X16655119Y-8369928D01*
X16645595Y-8379452D01*
X16626548Y-8388976D01*
X16597976Y-8388976D01*
X16778929Y-8388976D02*
X16759881Y-8379452D01*
X16750357Y-8360405D01*
X16750357Y-8188976D01*
X16931310Y-8379452D02*
X16912262Y-8388976D01*
X16874167Y-8388976D01*
X16855119Y-8379452D01*
X16845595Y-8360405D01*
X16845595Y-8284214D01*
X16855119Y-8265167D01*
X16874167Y-8255643D01*
X16912262Y-8255643D01*
X16931310Y-8265167D01*
X16940833Y-8284214D01*
X16940833Y-8303262D01*
X16845595Y-8322309D01*
X17017024Y-8379452D02*
X17036071Y-8388976D01*
X17074167Y-8388976D01*
X17093214Y-8379452D01*
X17102738Y-8360405D01*
X17102738Y-8350881D01*
X17093214Y-8331833D01*
X17074167Y-8322309D01*
X17045595Y-8322309D01*
X17026548Y-8312786D01*
X17017024Y-8293738D01*
X17017024Y-8284214D01*
X17026548Y-8265167D01*
X17045595Y-8255643D01*
X17074167Y-8255643D01*
X17093214Y-8265167D01*
X17169405Y-8465167D02*
X17178929Y-8455643D01*
X17197976Y-8427071D01*
X17207500Y-8408024D01*
X17217024Y-8379452D01*
X17226548Y-8331833D01*
X17226548Y-8293738D01*
X17217024Y-8246119D01*
X17207500Y-8217548D01*
X17197976Y-8198500D01*
X17178929Y-8169928D01*
X17169405Y-8160405D01*
D17*
X12277612Y-8502556D02*
X12397500Y-8622444D01*
X12397500Y-8502556D02*
X12277612Y-8622444D01*
X12397500Y-8562500D02*
G75*
G03*
X12397500Y-8562500I-59944J0D01*
G01*
D11*
X12759881Y-8652976D02*
X12645595Y-8652976D01*
X12702738Y-8652976D02*
X12702738Y-8452976D01*
X12683690Y-8481548D01*
X12664643Y-8500595D01*
X12645595Y-8510119D01*
X12845595Y-8633929D02*
X12855119Y-8643452D01*
X12845595Y-8652976D01*
X12836071Y-8643452D01*
X12845595Y-8633929D01*
X12845595Y-8652976D01*
X13045595Y-8652976D02*
X12931309Y-8652976D01*
X12988452Y-8652976D02*
X12988452Y-8452976D01*
X12969405Y-8481548D01*
X12950357Y-8500595D01*
X12931309Y-8510119D01*
X13140833Y-8652976D02*
X13178928Y-8652976D01*
X13197976Y-8643452D01*
X13207500Y-8633929D01*
X13226548Y-8605357D01*
X13236071Y-8567262D01*
X13236071Y-8491071D01*
X13226548Y-8472024D01*
X13217024Y-8462500D01*
X13197976Y-8452976D01*
X13159881Y-8452976D01*
X13140833Y-8462500D01*
X13131309Y-8472024D01*
X13121786Y-8491071D01*
X13121786Y-8538690D01*
X13131309Y-8557738D01*
X13140833Y-8567262D01*
X13159881Y-8576786D01*
X13197976Y-8576786D01*
X13217024Y-8567262D01*
X13226548Y-8557738D01*
X13236071Y-8538690D01*
X13331309Y-8652976D02*
X13369405Y-8652976D01*
X13388452Y-8643452D01*
X13397976Y-8633929D01*
X13417024Y-8605357D01*
X13426548Y-8567262D01*
X13426548Y-8491071D01*
X13417024Y-8472024D01*
X13407500Y-8462500D01*
X13388452Y-8452976D01*
X13350357Y-8452976D01*
X13331309Y-8462500D01*
X13321786Y-8472024D01*
X13312262Y-8491071D01*
X13312262Y-8538690D01*
X13321786Y-8557738D01*
X13331309Y-8567262D01*
X13350357Y-8576786D01*
X13388452Y-8576786D01*
X13407500Y-8567262D01*
X13417024Y-8557738D01*
X13426548Y-8538690D01*
X13512262Y-8652976D02*
X13512262Y-8519643D01*
X13512262Y-8538690D02*
X13521786Y-8529167D01*
X13540833Y-8519643D01*
X13569405Y-8519643D01*
X13588452Y-8529167D01*
X13597976Y-8548214D01*
X13597976Y-8652976D01*
X13597976Y-8548214D02*
X13607500Y-8529167D01*
X13626548Y-8519643D01*
X13655119Y-8519643D01*
X13674167Y-8529167D01*
X13683690Y-8548214D01*
X13683690Y-8652976D01*
X13778928Y-8652976D02*
X13778928Y-8519643D01*
X13778928Y-8538690D02*
X13788452Y-8529167D01*
X13807500Y-8519643D01*
X13836071Y-8519643D01*
X13855119Y-8529167D01*
X13864643Y-8548214D01*
X13864643Y-8652976D01*
X13864643Y-8548214D02*
X13874167Y-8529167D01*
X13893214Y-8519643D01*
X13921786Y-8519643D01*
X13940833Y-8529167D01*
X13950357Y-8548214D01*
X13950357Y-8652976D01*
X14340833Y-8443452D02*
X14169405Y-8700595D01*
X14597976Y-8452976D02*
X14617024Y-8452976D01*
X14636071Y-8462500D01*
X14645595Y-8472024D01*
X14655119Y-8491071D01*
X14664643Y-8529167D01*
X14664643Y-8576786D01*
X14655119Y-8614881D01*
X14645595Y-8633929D01*
X14636071Y-8643452D01*
X14617024Y-8652976D01*
X14597976Y-8652976D01*
X14578928Y-8643452D01*
X14569405Y-8633929D01*
X14559881Y-8614881D01*
X14550357Y-8576786D01*
X14550357Y-8529167D01*
X14559881Y-8491071D01*
X14569405Y-8472024D01*
X14578928Y-8462500D01*
X14597976Y-8452976D01*
X14750357Y-8633929D02*
X14759881Y-8643452D01*
X14750357Y-8652976D01*
X14740833Y-8643452D01*
X14750357Y-8633929D01*
X14750357Y-8652976D01*
X14883690Y-8452976D02*
X14902738Y-8452976D01*
X14921786Y-8462500D01*
X14931309Y-8472024D01*
X14940833Y-8491071D01*
X14950357Y-8529167D01*
X14950357Y-8576786D01*
X14940833Y-8614881D01*
X14931309Y-8633929D01*
X14921786Y-8643452D01*
X14902738Y-8652976D01*
X14883690Y-8652976D01*
X14864643Y-8643452D01*
X14855119Y-8633929D01*
X14845595Y-8614881D01*
X14836071Y-8576786D01*
X14836071Y-8529167D01*
X14845595Y-8491071D01*
X14855119Y-8472024D01*
X14864643Y-8462500D01*
X14883690Y-8452976D01*
X15121786Y-8519643D02*
X15121786Y-8652976D01*
X15074167Y-8443452D02*
X15026548Y-8586310D01*
X15150357Y-8586310D01*
X15207500Y-8452976D02*
X15340833Y-8452976D01*
X15255119Y-8652976D01*
X15407500Y-8472024D02*
X15417024Y-8462500D01*
X15436071Y-8452976D01*
X15483690Y-8452976D01*
X15502738Y-8462500D01*
X15512262Y-8472024D01*
X15521786Y-8491071D01*
X15521786Y-8510119D01*
X15512262Y-8538690D01*
X15397976Y-8652976D01*
X15521786Y-8652976D01*
X15597976Y-8452976D02*
X15597976Y-8491071D01*
X15674167Y-8452976D02*
X15674167Y-8491071D01*
X15969405Y-8729167D02*
X15959881Y-8719643D01*
X15940833Y-8691071D01*
X15931309Y-8672024D01*
X15921786Y-8643452D01*
X15912262Y-8595833D01*
X15912262Y-8557738D01*
X15921786Y-8510119D01*
X15931309Y-8481548D01*
X15940833Y-8462500D01*
X15959881Y-8433929D01*
X15969405Y-8424405D01*
X16131309Y-8519643D02*
X16131309Y-8652976D01*
X16083690Y-8443452D02*
X16036071Y-8586310D01*
X16159881Y-8586310D01*
X16388452Y-8652976D02*
X16388452Y-8452976D01*
X16474167Y-8652976D02*
X16474167Y-8548214D01*
X16464643Y-8529167D01*
X16445595Y-8519643D01*
X16417024Y-8519643D01*
X16397976Y-8529167D01*
X16388452Y-8538690D01*
X16597976Y-8652976D02*
X16578928Y-8643452D01*
X16569405Y-8633929D01*
X16559881Y-8614881D01*
X16559881Y-8557738D01*
X16569405Y-8538690D01*
X16578928Y-8529167D01*
X16597976Y-8519643D01*
X16626548Y-8519643D01*
X16645595Y-8529167D01*
X16655119Y-8538690D01*
X16664643Y-8557738D01*
X16664643Y-8614881D01*
X16655119Y-8633929D01*
X16645595Y-8643452D01*
X16626548Y-8652976D01*
X16597976Y-8652976D01*
X16778929Y-8652976D02*
X16759881Y-8643452D01*
X16750357Y-8624405D01*
X16750357Y-8452976D01*
X16931310Y-8643452D02*
X16912262Y-8652976D01*
X16874167Y-8652976D01*
X16855119Y-8643452D01*
X16845595Y-8624405D01*
X16845595Y-8548214D01*
X16855119Y-8529167D01*
X16874167Y-8519643D01*
X16912262Y-8519643D01*
X16931310Y-8529167D01*
X16940833Y-8548214D01*
X16940833Y-8567262D01*
X16845595Y-8586310D01*
X17017024Y-8643452D02*
X17036071Y-8652976D01*
X17074167Y-8652976D01*
X17093214Y-8643452D01*
X17102738Y-8624405D01*
X17102738Y-8614881D01*
X17093214Y-8595833D01*
X17074167Y-8586310D01*
X17045595Y-8586310D01*
X17026548Y-8576786D01*
X17017024Y-8557738D01*
X17017024Y-8548214D01*
X17026548Y-8529167D01*
X17045595Y-8519643D01*
X17074167Y-8519643D01*
X17093214Y-8529167D01*
X17169405Y-8729167D02*
X17178929Y-8719643D01*
X17197976Y-8691071D01*
X17207500Y-8672024D01*
X17217024Y-8643452D01*
X17226548Y-8595833D01*
X17226548Y-8557738D01*
X17217024Y-8510119D01*
X17207500Y-8481548D01*
X17197976Y-8462500D01*
X17178929Y-8433929D01*
X17169405Y-8424405D01*
D18*
X12277500Y-8766500D02*
X12397500Y-8886500D01*
X12397500Y-8766500D02*
X12277500Y-8886500D01*
X12337500Y-8766500D02*
X12337500Y-8886500D01*
X12277500Y-8826500D02*
X12397500Y-8826500D01*
D11*
X12759881Y-8916976D02*
X12645595Y-8916976D01*
X12702738Y-8916976D02*
X12702738Y-8716976D01*
X12683690Y-8745548D01*
X12664643Y-8764595D01*
X12645595Y-8774119D01*
X12845595Y-8897929D02*
X12855119Y-8907452D01*
X12845595Y-8916976D01*
X12836071Y-8907452D01*
X12845595Y-8897929D01*
X12845595Y-8916976D01*
X12931309Y-8736024D02*
X12940833Y-8726500D01*
X12959881Y-8716976D01*
X13007500Y-8716976D01*
X13026548Y-8726500D01*
X13036071Y-8736024D01*
X13045595Y-8755071D01*
X13045595Y-8774119D01*
X13036071Y-8802690D01*
X12921786Y-8916976D01*
X13045595Y-8916976D01*
X13169405Y-8716976D02*
X13188452Y-8716976D01*
X13207500Y-8726500D01*
X13217024Y-8736024D01*
X13226548Y-8755071D01*
X13236071Y-8793167D01*
X13236071Y-8840786D01*
X13226548Y-8878881D01*
X13217024Y-8897929D01*
X13207500Y-8907452D01*
X13188452Y-8916976D01*
X13169405Y-8916976D01*
X13150357Y-8907452D01*
X13140833Y-8897929D01*
X13131309Y-8878881D01*
X13121786Y-8840786D01*
X13121786Y-8793167D01*
X13131309Y-8755071D01*
X13140833Y-8736024D01*
X13150357Y-8726500D01*
X13169405Y-8716976D01*
X13359881Y-8716976D02*
X13378928Y-8716976D01*
X13397976Y-8726500D01*
X13407500Y-8736024D01*
X13417024Y-8755071D01*
X13426548Y-8793167D01*
X13426548Y-8840786D01*
X13417024Y-8878881D01*
X13407500Y-8897929D01*
X13397976Y-8907452D01*
X13378928Y-8916976D01*
X13359881Y-8916976D01*
X13340833Y-8907452D01*
X13331309Y-8897929D01*
X13321786Y-8878881D01*
X13312262Y-8840786D01*
X13312262Y-8793167D01*
X13321786Y-8755071D01*
X13331309Y-8736024D01*
X13340833Y-8726500D01*
X13359881Y-8716976D01*
X13512262Y-8916976D02*
X13512262Y-8783643D01*
X13512262Y-8802690D02*
X13521786Y-8793167D01*
X13540833Y-8783643D01*
X13569405Y-8783643D01*
X13588452Y-8793167D01*
X13597976Y-8812214D01*
X13597976Y-8916976D01*
X13597976Y-8812214D02*
X13607500Y-8793167D01*
X13626548Y-8783643D01*
X13655119Y-8783643D01*
X13674167Y-8793167D01*
X13683690Y-8812214D01*
X13683690Y-8916976D01*
X13778928Y-8916976D02*
X13778928Y-8783643D01*
X13778928Y-8802690D02*
X13788452Y-8793167D01*
X13807500Y-8783643D01*
X13836071Y-8783643D01*
X13855119Y-8793167D01*
X13864643Y-8812214D01*
X13864643Y-8916976D01*
X13864643Y-8812214D02*
X13874167Y-8793167D01*
X13893214Y-8783643D01*
X13921786Y-8783643D01*
X13940833Y-8793167D01*
X13950357Y-8812214D01*
X13950357Y-8916976D01*
X14340833Y-8707452D02*
X14169405Y-8964595D01*
X14597976Y-8716976D02*
X14617024Y-8716976D01*
X14636071Y-8726500D01*
X14645595Y-8736024D01*
X14655119Y-8755071D01*
X14664643Y-8793167D01*
X14664643Y-8840786D01*
X14655119Y-8878881D01*
X14645595Y-8897929D01*
X14636071Y-8907452D01*
X14617024Y-8916976D01*
X14597976Y-8916976D01*
X14578928Y-8907452D01*
X14569405Y-8897929D01*
X14559881Y-8878881D01*
X14550357Y-8840786D01*
X14550357Y-8793167D01*
X14559881Y-8755071D01*
X14569405Y-8736024D01*
X14578928Y-8726500D01*
X14597976Y-8716976D01*
X14750357Y-8897929D02*
X14759881Y-8907452D01*
X14750357Y-8916976D01*
X14740833Y-8907452D01*
X14750357Y-8897929D01*
X14750357Y-8916976D01*
X14883690Y-8716976D02*
X14902738Y-8716976D01*
X14921786Y-8726500D01*
X14931309Y-8736024D01*
X14940833Y-8755071D01*
X14950357Y-8793167D01*
X14950357Y-8840786D01*
X14940833Y-8878881D01*
X14931309Y-8897929D01*
X14921786Y-8907452D01*
X14902738Y-8916976D01*
X14883690Y-8916976D01*
X14864643Y-8907452D01*
X14855119Y-8897929D01*
X14845595Y-8878881D01*
X14836071Y-8840786D01*
X14836071Y-8793167D01*
X14845595Y-8755071D01*
X14855119Y-8736024D01*
X14864643Y-8726500D01*
X14883690Y-8716976D01*
X15121786Y-8783643D02*
X15121786Y-8916976D01*
X15074167Y-8707452D02*
X15026548Y-8850310D01*
X15150357Y-8850310D01*
X15207500Y-8716976D02*
X15340833Y-8716976D01*
X15255119Y-8916976D01*
X15407500Y-8736024D02*
X15417024Y-8726500D01*
X15436071Y-8716976D01*
X15483690Y-8716976D01*
X15502738Y-8726500D01*
X15512262Y-8736024D01*
X15521786Y-8755071D01*
X15521786Y-8774119D01*
X15512262Y-8802690D01*
X15397976Y-8916976D01*
X15521786Y-8916976D01*
X15597976Y-8716976D02*
X15597976Y-8755071D01*
X15674167Y-8716976D02*
X15674167Y-8755071D01*
X15969405Y-8993167D02*
X15959881Y-8983643D01*
X15940833Y-8955071D01*
X15931309Y-8936024D01*
X15921786Y-8907452D01*
X15912262Y-8859833D01*
X15912262Y-8821738D01*
X15921786Y-8774119D01*
X15931309Y-8745548D01*
X15940833Y-8726500D01*
X15959881Y-8697929D01*
X15969405Y-8688405D01*
X16036071Y-8736024D02*
X16045595Y-8726500D01*
X16064643Y-8716976D01*
X16112262Y-8716976D01*
X16131309Y-8726500D01*
X16140833Y-8736024D01*
X16150357Y-8755071D01*
X16150357Y-8774119D01*
X16140833Y-8802690D01*
X16026548Y-8916976D01*
X16150357Y-8916976D01*
X16388452Y-8916976D02*
X16388452Y-8716976D01*
X16474167Y-8916976D02*
X16474167Y-8812214D01*
X16464643Y-8793167D01*
X16445595Y-8783643D01*
X16417024Y-8783643D01*
X16397976Y-8793167D01*
X16388452Y-8802690D01*
X16597976Y-8916976D02*
X16578928Y-8907452D01*
X16569405Y-8897929D01*
X16559881Y-8878881D01*
X16559881Y-8821738D01*
X16569405Y-8802690D01*
X16578928Y-8793167D01*
X16597976Y-8783643D01*
X16626548Y-8783643D01*
X16645595Y-8793167D01*
X16655119Y-8802690D01*
X16664643Y-8821738D01*
X16664643Y-8878881D01*
X16655119Y-8897929D01*
X16645595Y-8907452D01*
X16626548Y-8916976D01*
X16597976Y-8916976D01*
X16778929Y-8916976D02*
X16759881Y-8907452D01*
X16750357Y-8888405D01*
X16750357Y-8716976D01*
X16931310Y-8907452D02*
X16912262Y-8916976D01*
X16874167Y-8916976D01*
X16855119Y-8907452D01*
X16845595Y-8888405D01*
X16845595Y-8812214D01*
X16855119Y-8793167D01*
X16874167Y-8783643D01*
X16912262Y-8783643D01*
X16931310Y-8793167D01*
X16940833Y-8812214D01*
X16940833Y-8831262D01*
X16845595Y-8850310D01*
X17017024Y-8907452D02*
X17036071Y-8916976D01*
X17074167Y-8916976D01*
X17093214Y-8907452D01*
X17102738Y-8888405D01*
X17102738Y-8878881D01*
X17093214Y-8859833D01*
X17074167Y-8850310D01*
X17045595Y-8850310D01*
X17026548Y-8840786D01*
X17017024Y-8821738D01*
X17017024Y-8812214D01*
X17026548Y-8793167D01*
X17045595Y-8783643D01*
X17074167Y-8783643D01*
X17093214Y-8793167D01*
X17169405Y-8993167D02*
X17178929Y-8983643D01*
X17197976Y-8955071D01*
X17207500Y-8936024D01*
X17217024Y-8907452D01*
X17226548Y-8859833D01*
X17226548Y-8821738D01*
X17217024Y-8774119D01*
X17207500Y-8745548D01*
X17197976Y-8726500D01*
X17178929Y-8697929D01*
X17169405Y-8688405D01*
D19*
X12257500Y-9020500D02*
X12397500Y-9160500D01*
X12397500Y-9020500D02*
X12257500Y-9160500D01*
X12376998Y-9139998D02*
X12376998Y-9041002D01*
X12278002Y-9041002D01*
X12278002Y-9139998D01*
X12376998Y-9139998D01*
D11*
X12759881Y-9180976D02*
X12645595Y-9180976D01*
X12702738Y-9180976D02*
X12702738Y-8980976D01*
X12683690Y-9009548D01*
X12664643Y-9028595D01*
X12645595Y-9038119D01*
X12845595Y-9161929D02*
X12855119Y-9171452D01*
X12845595Y-9180976D01*
X12836071Y-9171452D01*
X12845595Y-9161929D01*
X12845595Y-9180976D01*
X13026548Y-9047643D02*
X13026548Y-9180976D01*
X12978928Y-8971452D02*
X12931309Y-9114310D01*
X13055119Y-9114310D01*
X13169405Y-8980976D02*
X13188452Y-8980976D01*
X13207500Y-8990500D01*
X13217024Y-9000024D01*
X13226548Y-9019071D01*
X13236071Y-9057167D01*
X13236071Y-9104786D01*
X13226548Y-9142881D01*
X13217024Y-9161929D01*
X13207500Y-9171452D01*
X13188452Y-9180976D01*
X13169405Y-9180976D01*
X13150357Y-9171452D01*
X13140833Y-9161929D01*
X13131309Y-9142881D01*
X13121786Y-9104786D01*
X13121786Y-9057167D01*
X13131309Y-9019071D01*
X13140833Y-9000024D01*
X13150357Y-8990500D01*
X13169405Y-8980976D01*
X13359881Y-8980976D02*
X13378928Y-8980976D01*
X13397976Y-8990500D01*
X13407500Y-9000024D01*
X13417024Y-9019071D01*
X13426548Y-9057167D01*
X13426548Y-9104786D01*
X13417024Y-9142881D01*
X13407500Y-9161929D01*
X13397976Y-9171452D01*
X13378928Y-9180976D01*
X13359881Y-9180976D01*
X13340833Y-9171452D01*
X13331309Y-9161929D01*
X13321786Y-9142881D01*
X13312262Y-9104786D01*
X13312262Y-9057167D01*
X13321786Y-9019071D01*
X13331309Y-9000024D01*
X13340833Y-8990500D01*
X13359881Y-8980976D01*
X13512262Y-9180976D02*
X13512262Y-9047643D01*
X13512262Y-9066690D02*
X13521786Y-9057167D01*
X13540833Y-9047643D01*
X13569405Y-9047643D01*
X13588452Y-9057167D01*
X13597976Y-9076214D01*
X13597976Y-9180976D01*
X13597976Y-9076214D02*
X13607500Y-9057167D01*
X13626548Y-9047643D01*
X13655119Y-9047643D01*
X13674167Y-9057167D01*
X13683690Y-9076214D01*
X13683690Y-9180976D01*
X13778928Y-9180976D02*
X13778928Y-9047643D01*
X13778928Y-9066690D02*
X13788452Y-9057167D01*
X13807500Y-9047643D01*
X13836071Y-9047643D01*
X13855119Y-9057167D01*
X13864643Y-9076214D01*
X13864643Y-9180976D01*
X13864643Y-9076214D02*
X13874167Y-9057167D01*
X13893214Y-9047643D01*
X13921786Y-9047643D01*
X13940833Y-9057167D01*
X13950357Y-9076214D01*
X13950357Y-9180976D01*
X14340833Y-8971452D02*
X14169405Y-9228595D01*
X14597976Y-8980976D02*
X14617024Y-8980976D01*
X14636071Y-8990500D01*
X14645595Y-9000024D01*
X14655119Y-9019071D01*
X14664643Y-9057167D01*
X14664643Y-9104786D01*
X14655119Y-9142881D01*
X14645595Y-9161929D01*
X14636071Y-9171452D01*
X14617024Y-9180976D01*
X14597976Y-9180976D01*
X14578928Y-9171452D01*
X14569405Y-9161929D01*
X14559881Y-9142881D01*
X14550357Y-9104786D01*
X14550357Y-9057167D01*
X14559881Y-9019071D01*
X14569405Y-9000024D01*
X14578928Y-8990500D01*
X14597976Y-8980976D01*
X14750357Y-9161929D02*
X14759881Y-9171452D01*
X14750357Y-9180976D01*
X14740833Y-9171452D01*
X14750357Y-9161929D01*
X14750357Y-9180976D01*
X14883690Y-8980976D02*
X14902738Y-8980976D01*
X14921786Y-8990500D01*
X14931309Y-9000024D01*
X14940833Y-9019071D01*
X14950357Y-9057167D01*
X14950357Y-9104786D01*
X14940833Y-9142881D01*
X14931309Y-9161929D01*
X14921786Y-9171452D01*
X14902738Y-9180976D01*
X14883690Y-9180976D01*
X14864643Y-9171452D01*
X14855119Y-9161929D01*
X14845595Y-9142881D01*
X14836071Y-9104786D01*
X14836071Y-9057167D01*
X14845595Y-9019071D01*
X14855119Y-9000024D01*
X14864643Y-8990500D01*
X14883690Y-8980976D01*
X15131309Y-8980976D02*
X15036071Y-8980976D01*
X15026548Y-9076214D01*
X15036071Y-9066690D01*
X15055119Y-9057167D01*
X15102738Y-9057167D01*
X15121786Y-9066690D01*
X15131309Y-9076214D01*
X15140833Y-9095262D01*
X15140833Y-9142881D01*
X15131309Y-9161929D01*
X15121786Y-9171452D01*
X15102738Y-9180976D01*
X15055119Y-9180976D01*
X15036071Y-9171452D01*
X15026548Y-9161929D01*
X15321786Y-8980976D02*
X15226548Y-8980976D01*
X15217024Y-9076214D01*
X15226548Y-9066690D01*
X15245595Y-9057167D01*
X15293214Y-9057167D01*
X15312262Y-9066690D01*
X15321786Y-9076214D01*
X15331309Y-9095262D01*
X15331309Y-9142881D01*
X15321786Y-9161929D01*
X15312262Y-9171452D01*
X15293214Y-9180976D01*
X15245595Y-9180976D01*
X15226548Y-9171452D01*
X15217024Y-9161929D01*
X15521786Y-9180976D02*
X15407500Y-9180976D01*
X15464643Y-9180976D02*
X15464643Y-8980976D01*
X15445595Y-9009548D01*
X15426548Y-9028595D01*
X15407500Y-9038119D01*
X15597976Y-8980976D02*
X15597976Y-9019071D01*
X15674167Y-8980976D02*
X15674167Y-9019071D01*
X15969405Y-9257167D02*
X15959881Y-9247643D01*
X15940833Y-9219071D01*
X15931309Y-9200024D01*
X15921786Y-9171452D01*
X15912262Y-9123833D01*
X15912262Y-9085738D01*
X15921786Y-9038119D01*
X15931309Y-9009548D01*
X15940833Y-8990500D01*
X15959881Y-8961929D01*
X15969405Y-8952405D01*
X16036071Y-9000024D02*
X16045595Y-8990500D01*
X16064643Y-8980976D01*
X16112262Y-8980976D01*
X16131309Y-8990500D01*
X16140833Y-9000024D01*
X16150357Y-9019071D01*
X16150357Y-9038119D01*
X16140833Y-9066690D01*
X16026548Y-9180976D01*
X16150357Y-9180976D01*
X16388452Y-9180976D02*
X16388452Y-8980976D01*
X16474167Y-9180976D02*
X16474167Y-9076214D01*
X16464643Y-9057167D01*
X16445595Y-9047643D01*
X16417024Y-9047643D01*
X16397976Y-9057167D01*
X16388452Y-9066690D01*
X16597976Y-9180976D02*
X16578928Y-9171452D01*
X16569405Y-9161929D01*
X16559881Y-9142881D01*
X16559881Y-9085738D01*
X16569405Y-9066690D01*
X16578928Y-9057167D01*
X16597976Y-9047643D01*
X16626548Y-9047643D01*
X16645595Y-9057167D01*
X16655119Y-9066690D01*
X16664643Y-9085738D01*
X16664643Y-9142881D01*
X16655119Y-9161929D01*
X16645595Y-9171452D01*
X16626548Y-9180976D01*
X16597976Y-9180976D01*
X16778929Y-9180976D02*
X16759881Y-9171452D01*
X16750357Y-9152405D01*
X16750357Y-8980976D01*
X16931310Y-9171452D02*
X16912262Y-9180976D01*
X16874167Y-9180976D01*
X16855119Y-9171452D01*
X16845595Y-9152405D01*
X16845595Y-9076214D01*
X16855119Y-9057167D01*
X16874167Y-9047643D01*
X16912262Y-9047643D01*
X16931310Y-9057167D01*
X16940833Y-9076214D01*
X16940833Y-9095262D01*
X16845595Y-9114310D01*
X17017024Y-9171452D02*
X17036071Y-9180976D01*
X17074167Y-9180976D01*
X17093214Y-9171452D01*
X17102738Y-9152405D01*
X17102738Y-9142881D01*
X17093214Y-9123833D01*
X17074167Y-9114310D01*
X17045595Y-9114310D01*
X17026548Y-9104786D01*
X17017024Y-9085738D01*
X17017024Y-9076214D01*
X17026548Y-9057167D01*
X17045595Y-9047643D01*
X17074167Y-9047643D01*
X17093214Y-9057167D01*
X17169405Y-9257167D02*
X17178929Y-9247643D01*
X17197976Y-9219071D01*
X17207500Y-9200024D01*
X17217024Y-9171452D01*
X17226548Y-9123833D01*
X17226548Y-9085738D01*
X17217024Y-9038119D01*
X17207500Y-9009548D01*
X17197976Y-8990500D01*
X17178929Y-8961929D01*
X17169405Y-8952405D01*
M02*
