%TF.GenerationSoftware,KiCad,Pcbnew,(6.0.8)*%
%TF.CreationDate,2022-11-19T23:44:09+04:00*%
%TF.ProjectId,MC34063_Buck_Rev2,4d433334-3036-4335-9f42-75636b5f5265,rev?*%
%TF.SameCoordinates,Original*%
%TF.FileFunction,Legend,Top*%
%TF.FilePolarity,Positive*%
%FSLAX46Y46*%
G04 Gerber Fmt 4.6, Leading zero omitted, Abs format (unit mm)*
G04 Created by KiCad (PCBNEW (6.0.8)) date 2022-11-19 23:44:09*
%MOMM*%
%LPD*%
G01*
G04 APERTURE LIST*
%ADD10C,0.150000*%
%ADD11C,0.120000*%
G04 APERTURE END LIST*
D10*
%TO.C,C1*%
X160429913Y-46898582D02*
X160382294Y-46946201D01*
X160239437Y-46993820D01*
X160144199Y-46993820D01*
X160001341Y-46946201D01*
X159906103Y-46850963D01*
X159858484Y-46755725D01*
X159810865Y-46565249D01*
X159810865Y-46422392D01*
X159858484Y-46231916D01*
X159906103Y-46136678D01*
X160001341Y-46041440D01*
X160144199Y-45993820D01*
X160239437Y-45993820D01*
X160382294Y-46041440D01*
X160429913Y-46089059D01*
X161382294Y-46993820D02*
X160810865Y-46993820D01*
X161096580Y-46993820D02*
X161096580Y-45993820D01*
X161001341Y-46136678D01*
X160906103Y-46231916D01*
X160810865Y-46279535D01*
%TO.C,C2*%
X152228253Y-64025802D02*
X152180634Y-64073421D01*
X152037777Y-64121040D01*
X151942539Y-64121040D01*
X151799681Y-64073421D01*
X151704443Y-63978183D01*
X151656824Y-63882945D01*
X151609205Y-63692469D01*
X151609205Y-63549612D01*
X151656824Y-63359136D01*
X151704443Y-63263898D01*
X151799681Y-63168660D01*
X151942539Y-63121040D01*
X152037777Y-63121040D01*
X152180634Y-63168660D01*
X152228253Y-63216279D01*
X152609205Y-63216279D02*
X152656824Y-63168660D01*
X152752062Y-63121040D01*
X152990158Y-63121040D01*
X153085396Y-63168660D01*
X153133015Y-63216279D01*
X153180634Y-63311517D01*
X153180634Y-63406755D01*
X153133015Y-63549612D01*
X152561586Y-64121040D01*
X153180634Y-64121040D01*
%TO.C,C3*%
X131593293Y-52143682D02*
X131545674Y-52191301D01*
X131402817Y-52238920D01*
X131307579Y-52238920D01*
X131164721Y-52191301D01*
X131069483Y-52096063D01*
X131021864Y-52000825D01*
X130974245Y-51810349D01*
X130974245Y-51667492D01*
X131021864Y-51477016D01*
X131069483Y-51381778D01*
X131164721Y-51286540D01*
X131307579Y-51238920D01*
X131402817Y-51238920D01*
X131545674Y-51286540D01*
X131593293Y-51334159D01*
X131926626Y-51238920D02*
X132545674Y-51238920D01*
X132212340Y-51619873D01*
X132355198Y-51619873D01*
X132450436Y-51667492D01*
X132498055Y-51715111D01*
X132545674Y-51810349D01*
X132545674Y-52048444D01*
X132498055Y-52143682D01*
X132450436Y-52191301D01*
X132355198Y-52238920D01*
X132069483Y-52238920D01*
X131974245Y-52191301D01*
X131926626Y-52143682D01*
%TO.C,R1*%
X164750453Y-60613300D02*
X164417120Y-60137110D01*
X164179024Y-60613300D02*
X164179024Y-59613300D01*
X164559977Y-59613300D01*
X164655215Y-59660920D01*
X164702834Y-59708539D01*
X164750453Y-59803777D01*
X164750453Y-59946634D01*
X164702834Y-60041872D01*
X164655215Y-60089491D01*
X164559977Y-60137110D01*
X164179024Y-60137110D01*
X165702834Y-60613300D02*
X165131405Y-60613300D01*
X165417120Y-60613300D02*
X165417120Y-59613300D01*
X165321881Y-59756158D01*
X165226643Y-59851396D01*
X165131405Y-59899015D01*
%TO.C,R3*%
X164750453Y-63907680D02*
X164417120Y-63431490D01*
X164179024Y-63907680D02*
X164179024Y-62907680D01*
X164559977Y-62907680D01*
X164655215Y-62955300D01*
X164702834Y-63002919D01*
X164750453Y-63098157D01*
X164750453Y-63241014D01*
X164702834Y-63336252D01*
X164655215Y-63383871D01*
X164559977Y-63431490D01*
X164179024Y-63431490D01*
X165083786Y-62907680D02*
X165702834Y-62907680D01*
X165369500Y-63288633D01*
X165512358Y-63288633D01*
X165607596Y-63336252D01*
X165655215Y-63383871D01*
X165702834Y-63479109D01*
X165702834Y-63717204D01*
X165655215Y-63812442D01*
X165607596Y-63860061D01*
X165512358Y-63907680D01*
X165226643Y-63907680D01*
X165131405Y-63860061D01*
X165083786Y-63812442D01*
%TO.C,U1*%
X153300180Y-56940104D02*
X154109704Y-56940104D01*
X154204942Y-56892485D01*
X154252561Y-56844866D01*
X154300180Y-56749628D01*
X154300180Y-56559152D01*
X154252561Y-56463914D01*
X154204942Y-56416295D01*
X154109704Y-56368676D01*
X153300180Y-56368676D01*
X154300180Y-55368676D02*
X154300180Y-55940104D01*
X154300180Y-55654390D02*
X153300180Y-55654390D01*
X153443038Y-55749628D01*
X153538276Y-55844866D01*
X153585895Y-55940104D01*
%TO.C,L1*%
X143058140Y-55681926D02*
X143058140Y-56158117D01*
X142058140Y-56158117D01*
X143058140Y-54824783D02*
X143058140Y-55396212D01*
X143058140Y-55110498D02*
X142058140Y-55110498D01*
X142200998Y-55205736D01*
X142296236Y-55300974D01*
X142343855Y-55396212D01*
%TO.C,D1*%
X144687064Y-46648380D02*
X144687064Y-45648380D01*
X144925160Y-45648380D01*
X145068017Y-45696000D01*
X145163255Y-45791238D01*
X145210874Y-45886476D01*
X145258493Y-46076952D01*
X145258493Y-46219809D01*
X145210874Y-46410285D01*
X145163255Y-46505523D01*
X145068017Y-46600761D01*
X144925160Y-46648380D01*
X144687064Y-46648380D01*
X146210874Y-46648380D02*
X145639445Y-46648380D01*
X145925160Y-46648380D02*
X145925160Y-45648380D01*
X145829921Y-45791238D01*
X145734683Y-45886476D01*
X145639445Y-45934095D01*
%TO.C,R2*%
X158562300Y-46708106D02*
X158086110Y-47041440D01*
X158562300Y-47279535D02*
X157562300Y-47279535D01*
X157562300Y-46898582D01*
X157609920Y-46803344D01*
X157657539Y-46755725D01*
X157752777Y-46708106D01*
X157895634Y-46708106D01*
X157990872Y-46755725D01*
X158038491Y-46803344D01*
X158086110Y-46898582D01*
X158086110Y-47279535D01*
X157657539Y-46327154D02*
X157609920Y-46279535D01*
X157562300Y-46184297D01*
X157562300Y-45946201D01*
X157609920Y-45850963D01*
X157657539Y-45803344D01*
X157752777Y-45755725D01*
X157848015Y-45755725D01*
X157990872Y-45803344D01*
X158562300Y-46374773D01*
X158562300Y-45755725D01*
%TO.C,GND*%
X127048355Y-51116360D02*
X126953117Y-51068740D01*
X126810260Y-51068740D01*
X126667402Y-51116360D01*
X126572164Y-51211598D01*
X126524545Y-51306836D01*
X126476926Y-51497312D01*
X126476926Y-51640169D01*
X126524545Y-51830645D01*
X126572164Y-51925883D01*
X126667402Y-52021121D01*
X126810260Y-52068740D01*
X126905498Y-52068740D01*
X127048355Y-52021121D01*
X127095974Y-51973502D01*
X127095974Y-51640169D01*
X126905498Y-51640169D01*
X127524545Y-52068740D02*
X127524545Y-51068740D01*
X128095974Y-52068740D01*
X128095974Y-51068740D01*
X128572164Y-52068740D02*
X128572164Y-51068740D01*
X128810260Y-51068740D01*
X128953117Y-51116360D01*
X129048355Y-51211598D01*
X129095974Y-51306836D01*
X129143593Y-51497312D01*
X129143593Y-51640169D01*
X129095974Y-51830645D01*
X129048355Y-51925883D01*
X128953117Y-52021121D01*
X128810260Y-52068740D01*
X128572164Y-52068740D01*
%TO.C,Vout*%
X126164530Y-62806080D02*
X126497863Y-63806080D01*
X126831197Y-62806080D01*
X127307387Y-63806080D02*
X127212149Y-63758461D01*
X127164530Y-63710842D01*
X127116911Y-63615604D01*
X127116911Y-63329890D01*
X127164530Y-63234652D01*
X127212149Y-63187033D01*
X127307387Y-63139414D01*
X127450244Y-63139414D01*
X127545482Y-63187033D01*
X127593101Y-63234652D01*
X127640720Y-63329890D01*
X127640720Y-63615604D01*
X127593101Y-63710842D01*
X127545482Y-63758461D01*
X127450244Y-63806080D01*
X127307387Y-63806080D01*
X128497863Y-63139414D02*
X128497863Y-63806080D01*
X128069292Y-63139414D02*
X128069292Y-63663223D01*
X128116911Y-63758461D01*
X128212149Y-63806080D01*
X128355006Y-63806080D01*
X128450244Y-63758461D01*
X128497863Y-63710842D01*
X128831197Y-63139414D02*
X129212149Y-63139414D01*
X128974054Y-62806080D02*
X128974054Y-63663223D01*
X129021673Y-63758461D01*
X129116911Y-63806080D01*
X129212149Y-63806080D01*
%TO.C,Vin*%
X172783310Y-52328580D02*
X173116643Y-53328580D01*
X173449977Y-52328580D01*
X173783310Y-53328580D02*
X173783310Y-52661914D01*
X173783310Y-52328580D02*
X173735691Y-52376200D01*
X173783310Y-52423819D01*
X173830929Y-52376200D01*
X173783310Y-52328580D01*
X173783310Y-52423819D01*
X174259500Y-52661914D02*
X174259500Y-53328580D01*
X174259500Y-52757152D02*
X174307120Y-52709533D01*
X174402358Y-52661914D01*
X174545215Y-52661914D01*
X174640453Y-52709533D01*
X174688072Y-52804771D01*
X174688072Y-53328580D01*
%TO.C,GND*%
X170817635Y-45675680D02*
X170722397Y-45628060D01*
X170579540Y-45628060D01*
X170436682Y-45675680D01*
X170341444Y-45770918D01*
X170293825Y-45866156D01*
X170246206Y-46056632D01*
X170246206Y-46199489D01*
X170293825Y-46389965D01*
X170341444Y-46485203D01*
X170436682Y-46580441D01*
X170579540Y-46628060D01*
X170674778Y-46628060D01*
X170817635Y-46580441D01*
X170865254Y-46532822D01*
X170865254Y-46199489D01*
X170674778Y-46199489D01*
X171293825Y-46628060D02*
X171293825Y-45628060D01*
X171865254Y-46628060D01*
X171865254Y-45628060D01*
X172341444Y-46628060D02*
X172341444Y-45628060D01*
X172579540Y-45628060D01*
X172722397Y-45675680D01*
X172817635Y-45770918D01*
X172865254Y-45866156D01*
X172912873Y-46056632D01*
X172912873Y-46199489D01*
X172865254Y-46389965D01*
X172817635Y-46485203D01*
X172722397Y-46580441D01*
X172579540Y-46628060D01*
X172341444Y-46628060D01*
D11*
%TO.C,C1*%
X166245440Y-50346300D02*
X169469440Y-50346300D01*
X166245440Y-50226300D02*
X169400440Y-50226300D01*
X162228440Y-48626300D02*
X167900440Y-48626300D01*
X166245440Y-49946300D02*
X169221440Y-49946300D01*
X161629440Y-49106300D02*
X168499440Y-49106300D01*
X160024440Y-52507300D02*
X170104440Y-52507300D01*
X162924440Y-48226300D02*
X167204440Y-48226300D01*
X160177440Y-51546300D02*
X169951440Y-51546300D01*
X160188440Y-51506300D02*
X163883440Y-51506300D01*
X166245440Y-50986300D02*
X169770440Y-50986300D01*
X160594440Y-50466300D02*
X163883440Y-50466300D01*
X160157440Y-51626300D02*
X169971440Y-51626300D01*
X166245440Y-50426300D02*
X169513440Y-50426300D01*
X162170440Y-48666300D02*
X167958440Y-48666300D01*
X166245440Y-51506300D02*
X169940440Y-51506300D01*
X166245440Y-51266300D02*
X169870440Y-51266300D01*
X166245440Y-51306300D02*
X169882440Y-51306300D01*
X162687440Y-48346300D02*
X167441440Y-48346300D01*
X163799440Y-47906300D02*
X166329440Y-47906300D01*
X160358440Y-50986300D02*
X163883440Y-50986300D01*
X166245440Y-50626300D02*
X169614440Y-50626300D01*
X162412440Y-48506300D02*
X167716440Y-48506300D01*
X166245440Y-49386300D02*
X168776440Y-49386300D01*
X162349440Y-48546300D02*
X167779440Y-48546300D01*
X166245440Y-51426300D02*
X169918440Y-51426300D01*
X166245440Y-49266300D02*
X168662440Y-49266300D01*
X160083440Y-51986300D02*
X170045440Y-51986300D01*
X160514440Y-50626300D02*
X163883440Y-50626300D01*
X160992440Y-49826300D02*
X163883440Y-49826300D01*
X160029440Y-52427300D02*
X170099440Y-52427300D01*
X160406440Y-50866300D02*
X163883440Y-50866300D01*
X160476440Y-50706300D02*
X163883440Y-50706300D01*
X160342440Y-51026300D02*
X163883440Y-51026300D01*
X161316440Y-49426300D02*
X163883440Y-49426300D01*
X160636440Y-50386300D02*
X163883440Y-50386300D01*
X166245440Y-50026300D02*
X169275440Y-50026300D01*
X160246440Y-51306300D02*
X163883440Y-51306300D01*
X160327440Y-51066300D02*
X163883440Y-51066300D01*
X163657440Y-47946300D02*
X166471440Y-47946300D01*
X160015440Y-52707300D02*
X170113440Y-52707300D01*
X160313440Y-51106300D02*
X163883440Y-51106300D01*
X161956440Y-48826300D02*
X168172440Y-48826300D01*
X166245440Y-49466300D02*
X168848440Y-49466300D01*
X166245440Y-51106300D02*
X169815440Y-51106300D01*
X161505440Y-49226300D02*
X163883440Y-49226300D01*
X166245440Y-50106300D02*
X169327440Y-50106300D01*
X160065440Y-52106300D02*
X170063440Y-52106300D01*
X160071440Y-52066300D02*
X170057440Y-52066300D01*
X166245440Y-50586300D02*
X169595440Y-50586300D01*
X160147440Y-51666300D02*
X169981440Y-51666300D01*
X166245440Y-50786300D02*
X169688440Y-50786300D01*
X166245440Y-51186300D02*
X169843440Y-51186300D01*
X166245440Y-49626300D02*
X168983440Y-49626300D01*
X166245440Y-51066300D02*
X169801440Y-51066300D01*
X161145440Y-49626300D02*
X163883440Y-49626300D01*
X162287440Y-48586300D02*
X167841440Y-48586300D01*
X160752440Y-50186300D02*
X163883440Y-50186300D01*
X161245440Y-49506300D02*
X163883440Y-49506300D01*
X160129440Y-51746300D02*
X169999440Y-51746300D01*
X161082440Y-49706300D02*
X163883440Y-49706300D01*
X160105440Y-51866300D02*
X170023440Y-51866300D01*
X163528440Y-47986300D02*
X166600440Y-47986300D01*
X160681440Y-50306300D02*
X163883440Y-50306300D01*
X162545440Y-48426300D02*
X167583440Y-48426300D01*
X163102440Y-48146300D02*
X167026440Y-48146300D01*
X166245440Y-49746300D02*
X169077440Y-49746300D01*
X160044440Y-52267300D02*
X170084440Y-52267300D01*
X166245440Y-50266300D02*
X169424440Y-50266300D01*
X161809440Y-48946300D02*
X168319440Y-48946300D01*
X166245440Y-51226300D02*
X169856440Y-51226300D01*
X161546440Y-49186300D02*
X163883440Y-49186300D01*
X162115440Y-48706300D02*
X168013440Y-48706300D01*
X160827440Y-50066300D02*
X163883440Y-50066300D01*
X162615440Y-48386300D02*
X167513440Y-48386300D01*
X160033440Y-52387300D02*
X170095440Y-52387300D01*
X161352440Y-49386300D02*
X163883440Y-49386300D01*
X160021440Y-52547300D02*
X170107440Y-52547300D01*
X160121440Y-51786300D02*
X170007440Y-51786300D01*
X160440440Y-50786300D02*
X163883440Y-50786300D01*
X166245440Y-49866300D02*
X169165440Y-49866300D01*
X166245440Y-49226300D02*
X168623440Y-49226300D01*
X160014440Y-52787300D02*
X170114440Y-52787300D01*
X160017440Y-52627300D02*
X170111440Y-52627300D01*
X161021440Y-49786300D02*
X163883440Y-49786300D01*
X160272440Y-51226300D02*
X163883440Y-51226300D01*
X166245440Y-51026300D02*
X169786440Y-51026300D01*
X160704440Y-50266300D02*
X163883440Y-50266300D01*
X160090440Y-51946300D02*
X170038440Y-51946300D01*
X160167440Y-51586300D02*
X169961440Y-51586300D01*
X160016440Y-52667300D02*
X170112440Y-52667300D01*
X160233440Y-51346300D02*
X163883440Y-51346300D01*
X160019440Y-52587300D02*
X170109440Y-52587300D01*
X166245440Y-51386300D02*
X169907440Y-51386300D01*
X160054440Y-52187300D02*
X170074440Y-52187300D01*
X160879440Y-49986300D02*
X163883440Y-49986300D01*
X160285440Y-51186300D02*
X163883440Y-51186300D01*
X166245440Y-51346300D02*
X169895440Y-51346300D01*
X165064440Y-58027300D02*
X165064440Y-56527300D01*
X163410440Y-48026300D02*
X166718440Y-48026300D01*
X160728440Y-50226300D02*
X163883440Y-50226300D01*
X161113440Y-49666300D02*
X163883440Y-49666300D01*
X161178440Y-49586300D02*
X163883440Y-49586300D01*
X166245440Y-50546300D02*
X169575440Y-50546300D01*
X166245440Y-50826300D02*
X169705440Y-50826300D01*
X166245440Y-49186300D02*
X168582440Y-49186300D01*
X160963440Y-49866300D02*
X163883440Y-49866300D01*
X166245440Y-50746300D02*
X169670440Y-50746300D01*
X166245440Y-50506300D02*
X169555440Y-50506300D01*
X162007440Y-48786300D02*
X168121440Y-48786300D01*
X162060440Y-48746300D02*
X168068440Y-48746300D01*
X161587440Y-49146300D02*
X168541440Y-49146300D01*
X161427440Y-49306300D02*
X163883440Y-49306300D01*
X160495440Y-50666300D02*
X163883440Y-50666300D01*
X166245440Y-49786300D02*
X169107440Y-49786300D01*
X160801440Y-50106300D02*
X163883440Y-50106300D01*
X162842440Y-48266300D02*
X167286440Y-48266300D01*
X160373440Y-50946300D02*
X163883440Y-50946300D01*
X160659440Y-50346300D02*
X163883440Y-50346300D01*
X166245440Y-49826300D02*
X169136440Y-49826300D01*
X160907440Y-49946300D02*
X163883440Y-49946300D01*
X160014440Y-52827300D02*
X170114440Y-52827300D01*
X160097440Y-51906300D02*
X170031440Y-51906300D01*
X164151440Y-47826300D02*
X165977440Y-47826300D01*
X166245440Y-50946300D02*
X169755440Y-50946300D01*
X161280440Y-49466300D02*
X163883440Y-49466300D01*
X164314440Y-57277300D02*
X165814440Y-57277300D01*
X166245440Y-50066300D02*
X169301440Y-50066300D01*
X166245440Y-49346300D02*
X168739440Y-49346300D01*
X166245440Y-49506300D02*
X168883440Y-49506300D01*
X161051440Y-49746300D02*
X163883440Y-49746300D01*
X166245440Y-49546300D02*
X168917440Y-49546300D01*
X166245440Y-50866300D02*
X169722440Y-50866300D01*
X160049440Y-52227300D02*
X170079440Y-52227300D01*
X163198440Y-48106300D02*
X166930440Y-48106300D01*
X161857440Y-48906300D02*
X168271440Y-48906300D01*
X163011440Y-48186300D02*
X167117440Y-48186300D01*
X160615440Y-50426300D02*
X163883440Y-50426300D01*
X163301440Y-48066300D02*
X166827440Y-48066300D01*
X166245440Y-49986300D02*
X169249440Y-49986300D01*
X160458440Y-50746300D02*
X163883440Y-50746300D01*
X160221440Y-51386300D02*
X163883440Y-51386300D01*
X166245440Y-49426300D02*
X168812440Y-49426300D01*
X166245440Y-50706300D02*
X169652440Y-50706300D01*
X160573440Y-50506300D02*
X163883440Y-50506300D01*
X160934440Y-49906300D02*
X163883440Y-49906300D01*
X163960440Y-47866300D02*
X166168440Y-47866300D01*
X161673440Y-49066300D02*
X168455440Y-49066300D01*
X160026440Y-52467300D02*
X170102440Y-52467300D01*
X160390440Y-50906300D02*
X163883440Y-50906300D01*
X166245440Y-49706300D02*
X169046440Y-49706300D01*
X166245440Y-51146300D02*
X169829440Y-51146300D01*
X160113440Y-51826300D02*
X170015440Y-51826300D01*
X166245440Y-50386300D02*
X169492440Y-50386300D01*
X166245440Y-50186300D02*
X169376440Y-50186300D01*
X164785440Y-47746300D02*
X165343440Y-47746300D01*
X161211440Y-49546300D02*
X163883440Y-49546300D01*
X164392440Y-47786300D02*
X165736440Y-47786300D01*
X166245440Y-49586300D02*
X168950440Y-49586300D01*
X161466440Y-49266300D02*
X163883440Y-49266300D01*
X161906440Y-48866300D02*
X168222440Y-48866300D01*
X161389440Y-49346300D02*
X163883440Y-49346300D01*
X160077440Y-52026300D02*
X170051440Y-52026300D01*
X160533440Y-50586300D02*
X163883440Y-50586300D01*
X166245440Y-50466300D02*
X169534440Y-50466300D01*
X160423440Y-50826300D02*
X163883440Y-50826300D01*
X162477440Y-48466300D02*
X167651440Y-48466300D01*
X160138440Y-51706300D02*
X169990440Y-51706300D01*
X160210440Y-51426300D02*
X163883440Y-51426300D01*
X160199440Y-51466300D02*
X163883440Y-51466300D01*
X166245440Y-49666300D02*
X169015440Y-49666300D01*
X166245440Y-50146300D02*
X169352440Y-50146300D01*
X166245440Y-51466300D02*
X169929440Y-51466300D01*
X166245440Y-49906300D02*
X169194440Y-49906300D01*
X160040440Y-52307300D02*
X170088440Y-52307300D01*
X160036440Y-52347300D02*
X170092440Y-52347300D01*
X166245440Y-50666300D02*
X169633440Y-50666300D01*
X166245440Y-50906300D02*
X169738440Y-50906300D01*
X160299440Y-51146300D02*
X163883440Y-51146300D01*
X161762440Y-48986300D02*
X168366440Y-48986300D01*
X160258440Y-51266300D02*
X163883440Y-51266300D01*
X162763440Y-48306300D02*
X167365440Y-48306300D01*
X160553440Y-50546300D02*
X163883440Y-50546300D01*
X160059440Y-52147300D02*
X170069440Y-52147300D01*
X160014440Y-52747300D02*
X170114440Y-52747300D01*
X160776440Y-50146300D02*
X163883440Y-50146300D01*
X166245440Y-49306300D02*
X168701440Y-49306300D01*
X166245440Y-50306300D02*
X169447440Y-50306300D01*
X161717440Y-49026300D02*
X168411440Y-49026300D01*
X160853440Y-50026300D02*
X163883440Y-50026300D01*
X166447704Y-47928863D02*
G75*
G03*
X163684440Y-47927943I-1383264J-4898437D01*
G01*
X163681176Y-47928863D02*
G75*
G03*
X163684440Y-57726657I1383264J-4898437D01*
G01*
X166444440Y-57726657D02*
G75*
G03*
X166447704Y-47928863I-1380000J4899357D01*
G01*
%TO.C,C2*%
X155272800Y-62416500D02*
X156446800Y-62416500D01*
X155272800Y-64138500D02*
X156446800Y-64138500D01*
%TO.C,C3*%
X132281760Y-54923440D02*
X135201760Y-54923440D01*
X131517760Y-56523440D02*
X135201760Y-56523440D01*
X131741760Y-55883440D02*
X135201760Y-55883440D01*
X133863760Y-53483440D02*
X138901760Y-53483440D01*
X131933760Y-55483440D02*
X135201760Y-55483440D01*
X137563760Y-54483440D02*
X140130760Y-54483440D01*
X132784760Y-54323440D02*
X135201760Y-54323440D01*
X131912760Y-55523440D02*
X135201760Y-55523440D01*
X137563760Y-55723440D02*
X140951760Y-55723440D01*
X137563760Y-55563440D02*
X140873760Y-55563440D01*
X131377760Y-57204440D02*
X141387760Y-57204440D01*
X131999760Y-55363440D02*
X135201760Y-55363440D01*
X131423760Y-56923440D02*
X141341760Y-56923440D01*
X136103760Y-52803440D02*
X136661760Y-52803440D01*
X137563760Y-56363440D02*
X141200760Y-56363440D01*
X131395760Y-57083440D02*
X141369760Y-57083440D01*
X133274760Y-53883440D02*
X139490760Y-53883440D01*
X132225760Y-55003440D02*
X135201760Y-55003440D01*
X135710760Y-52843440D02*
X137054760Y-52843440D01*
X132947760Y-54163440D02*
X139817760Y-54163440D01*
X137563760Y-54923440D02*
X140483760Y-54923440D01*
X131871760Y-55603440D02*
X135201760Y-55603440D01*
X133546760Y-53683440D02*
X139218760Y-53683440D01*
X131337760Y-57644440D02*
X141427760Y-57644440D01*
X137563760Y-56163440D02*
X141133760Y-56163440D01*
X131332760Y-57844440D02*
X141432760Y-57844440D01*
X131603760Y-56243440D02*
X135201760Y-56243440D01*
X133127760Y-54003440D02*
X139637760Y-54003440D01*
X132369760Y-54803440D02*
X135201760Y-54803440D01*
X131676760Y-56043440D02*
X135201760Y-56043440D01*
X132991760Y-54123440D02*
X139773760Y-54123440D01*
X133080760Y-54043440D02*
X139684760Y-54043440D01*
X137563760Y-54883440D02*
X140454760Y-54883440D01*
X131724760Y-55923440D02*
X135201760Y-55923440D01*
X131401760Y-57043440D02*
X141363760Y-57043440D01*
X137563760Y-56243440D02*
X141161760Y-56243440D01*
X132496760Y-54643440D02*
X135201760Y-54643440D01*
X137563760Y-56563440D02*
X141258760Y-56563440D01*
X131645760Y-56123440D02*
X135201760Y-56123440D01*
X132145760Y-55123440D02*
X135201760Y-55123440D01*
X137563760Y-55803440D02*
X140988760Y-55803440D01*
X131347760Y-57484440D02*
X141417760Y-57484440D01*
X131691760Y-56003440D02*
X135201760Y-56003440D01*
X132431760Y-54723440D02*
X135201760Y-54723440D01*
X137563760Y-55243440D02*
X140694760Y-55243440D01*
X132707760Y-54403440D02*
X135201760Y-54403440D01*
X131813760Y-55723440D02*
X135201760Y-55723440D01*
X137563760Y-55003440D02*
X140539760Y-55003440D01*
X137563760Y-56003440D02*
X141073760Y-56003440D01*
X133224760Y-53923440D02*
X139540760Y-53923440D01*
X132670760Y-54443440D02*
X135201760Y-54443440D01*
X137563760Y-55443440D02*
X140810760Y-55443440D01*
X137563760Y-55683440D02*
X140932760Y-55683440D01*
X137563760Y-55883440D02*
X141023760Y-55883440D01*
X137563760Y-56283440D02*
X141174760Y-56283440D01*
X132563760Y-54563440D02*
X135201760Y-54563440D01*
X133605760Y-53643440D02*
X139159760Y-53643440D01*
X137563760Y-54443440D02*
X140094760Y-54443440D01*
X137563760Y-55403440D02*
X140787760Y-55403440D01*
X137563760Y-55523440D02*
X140852760Y-55523440D01*
X132400760Y-54763440D02*
X135201760Y-54763440D01*
X132864760Y-54243440D02*
X135201760Y-54243440D01*
X133325760Y-53843440D02*
X139439760Y-53843440D01*
X133488760Y-53723440D02*
X139276760Y-53723440D01*
X133667760Y-53603440D02*
X139097760Y-53603440D01*
X134619760Y-53123440D02*
X138145760Y-53123440D01*
X131776760Y-55803440D02*
X135201760Y-55803440D01*
X134728760Y-53083440D02*
X138036760Y-53083440D01*
X137563760Y-55323440D02*
X140742760Y-55323440D01*
X137563760Y-56403440D02*
X141213760Y-56403440D01*
X131576760Y-56323440D02*
X135201760Y-56323440D01*
X132197760Y-55043440D02*
X135201760Y-55043440D01*
X137563760Y-55203440D02*
X140670760Y-55203440D01*
X131389760Y-57123440D02*
X141375760Y-57123440D01*
X137563760Y-54283440D02*
X139941760Y-54283440D01*
X131590760Y-56283440D02*
X135201760Y-56283440D01*
X135469760Y-52883440D02*
X137295760Y-52883440D01*
X132905760Y-54203440D02*
X139859760Y-54203440D01*
X133795760Y-53523440D02*
X138969760Y-53523440D01*
X133433760Y-53763440D02*
X139331760Y-53763440D01*
X131439760Y-56843440D02*
X141325760Y-56843440D01*
X137563760Y-56043440D02*
X141088760Y-56043440D01*
X134420760Y-53203440D02*
X138344760Y-53203440D01*
X137563760Y-55923440D02*
X141040760Y-55923440D01*
X132252760Y-54963440D02*
X135201760Y-54963440D01*
X131758760Y-55843440D02*
X135201760Y-55843440D01*
X131660760Y-56083440D02*
X135201760Y-56083440D01*
X137563760Y-55483440D02*
X140831760Y-55483440D01*
X133035760Y-54083440D02*
X139729760Y-54083440D01*
X137563760Y-54603440D02*
X140235760Y-54603440D01*
X131372760Y-57244440D02*
X141392760Y-57244440D01*
X137563760Y-55643440D02*
X140913760Y-55643440D01*
X131362760Y-57324440D02*
X141402760Y-57324440D01*
X133730760Y-53563440D02*
X139034760Y-53563440D01*
X133933760Y-53443440D02*
X138831760Y-53443440D01*
X131539760Y-56443440D02*
X135201760Y-56443440D01*
X131708760Y-55963440D02*
X135201760Y-55963440D01*
X132022760Y-55323440D02*
X135201760Y-55323440D01*
X132171760Y-55083440D02*
X135201760Y-55083440D01*
X137563760Y-56443440D02*
X141225760Y-56443440D01*
X134005760Y-53403440D02*
X138759760Y-53403440D01*
X131832760Y-55683440D02*
X135201760Y-55683440D01*
X131335760Y-57684440D02*
X141429760Y-57684440D01*
X134081760Y-53363440D02*
X138683760Y-53363440D01*
X131344760Y-57524440D02*
X141420760Y-57524440D01*
X135632760Y-62334440D02*
X137132760Y-62334440D01*
X137563760Y-54363440D02*
X140019760Y-54363440D01*
X137563760Y-54563440D02*
X140201760Y-54563440D01*
X134975760Y-53003440D02*
X137789760Y-53003440D01*
X135117760Y-52963440D02*
X137647760Y-52963440D01*
X131977760Y-55403440D02*
X135201760Y-55403440D01*
X131431760Y-56883440D02*
X141333760Y-56883440D01*
X136382760Y-63084440D02*
X136382760Y-61584440D01*
X132339760Y-54843440D02*
X135201760Y-54843440D01*
X137563760Y-54403440D02*
X140057760Y-54403440D01*
X134242760Y-53283440D02*
X138522760Y-53283440D01*
X132529760Y-54603440D02*
X135201760Y-54603440D01*
X131465760Y-56723440D02*
X141299760Y-56723440D01*
X137563760Y-54683440D02*
X140301760Y-54683440D01*
X137563760Y-55363440D02*
X140765760Y-55363440D01*
X137563760Y-55043440D02*
X140567760Y-55043440D01*
X135278760Y-52923440D02*
X137486760Y-52923440D01*
X137563760Y-55083440D02*
X140593760Y-55083440D01*
X131415760Y-56963440D02*
X141349760Y-56963440D01*
X137563760Y-55843440D02*
X141006760Y-55843440D01*
X131334760Y-57724440D02*
X141430760Y-57724440D01*
X131367760Y-57284440D02*
X141397760Y-57284440D01*
X132634760Y-54483440D02*
X135201760Y-54483440D01*
X134846760Y-53043440D02*
X137918760Y-53043440D01*
X131617760Y-56203440D02*
X135201760Y-56203440D01*
X131475760Y-56683440D02*
X141289760Y-56683440D01*
X132310760Y-54883440D02*
X135201760Y-54883440D01*
X137563760Y-54763440D02*
X140364760Y-54763440D01*
X131506760Y-56563440D02*
X135201760Y-56563440D01*
X131339760Y-57604440D02*
X141425760Y-57604440D01*
X132046760Y-55283440D02*
X135201760Y-55283440D01*
X131528760Y-56483440D02*
X135201760Y-56483440D01*
X137563760Y-55123440D02*
X140619760Y-55123440D01*
X132094760Y-55203440D02*
X135201760Y-55203440D01*
X137563760Y-54843440D02*
X140425760Y-54843440D01*
X137563760Y-56203440D02*
X141147760Y-56203440D01*
X137563760Y-54963440D02*
X140512760Y-54963440D01*
X137563760Y-55283440D02*
X140718760Y-55283440D01*
X132070760Y-55243440D02*
X135201760Y-55243440D01*
X137563760Y-56323440D02*
X141188760Y-56323440D01*
X137563760Y-54323440D02*
X139980760Y-54323440D01*
X131332760Y-57804440D02*
X141432760Y-57804440D01*
X131485760Y-56643440D02*
X141279760Y-56643440D01*
X131408760Y-57003440D02*
X141356760Y-57003440D01*
X131332760Y-57884440D02*
X141432760Y-57884440D01*
X137563760Y-54243440D02*
X139900760Y-54243440D01*
X132119760Y-55163440D02*
X135201760Y-55163440D01*
X134160760Y-53323440D02*
X138604760Y-53323440D01*
X131354760Y-57404440D02*
X141410760Y-57404440D01*
X131891760Y-55563440D02*
X135201760Y-55563440D01*
X137563760Y-54803440D02*
X140395760Y-54803440D01*
X131342760Y-57564440D02*
X141422760Y-57564440D01*
X132598760Y-54523440D02*
X135201760Y-54523440D01*
X131851760Y-55643440D02*
X135201760Y-55643440D01*
X131333760Y-57764440D02*
X141431760Y-57764440D01*
X134329760Y-53243440D02*
X138435760Y-53243440D01*
X131447760Y-56803440D02*
X141317760Y-56803440D01*
X137563760Y-56083440D02*
X141104760Y-56083440D01*
X134516760Y-53163440D02*
X138248760Y-53163440D01*
X137563760Y-54723440D02*
X140333760Y-54723440D01*
X131794760Y-55763440D02*
X135201760Y-55763440D01*
X137563760Y-55163440D02*
X140645760Y-55163440D01*
X137563760Y-56123440D02*
X141119760Y-56123440D01*
X131631760Y-56163440D02*
X135201760Y-56163440D01*
X137563760Y-56523440D02*
X141247760Y-56523440D01*
X131351760Y-57444440D02*
X141413760Y-57444440D01*
X131456760Y-56763440D02*
X141308760Y-56763440D01*
X137563760Y-56483440D02*
X141236760Y-56483440D01*
X131551760Y-56403440D02*
X135201760Y-56403440D01*
X132463760Y-54683440D02*
X135201760Y-54683440D01*
X131954760Y-55443440D02*
X135201760Y-55443440D01*
X133378760Y-53803440D02*
X139386760Y-53803440D01*
X131358760Y-57364440D02*
X141406760Y-57364440D01*
X131564760Y-56363440D02*
X135201760Y-56363440D01*
X131495760Y-56603440D02*
X141269760Y-56603440D01*
X137563760Y-55603440D02*
X140893760Y-55603440D01*
X132823760Y-54283440D02*
X135201760Y-54283440D01*
X137563760Y-55963440D02*
X141056760Y-55963440D01*
X133175760Y-53963440D02*
X139589760Y-53963440D01*
X137563760Y-54523440D02*
X140166760Y-54523440D01*
X137563760Y-55763440D02*
X140970760Y-55763440D01*
X137563760Y-54643440D02*
X140268760Y-54643440D01*
X131383760Y-57163440D02*
X141381760Y-57163440D01*
X132745760Y-54363440D02*
X135201760Y-54363440D01*
X137766024Y-52986003D02*
G75*
G03*
X135002760Y-52985083I-1383264J-4898437D01*
G01*
X134999496Y-52986003D02*
G75*
G03*
X135002760Y-62783797I1383264J-4898437D01*
G01*
X137762760Y-62783797D02*
G75*
G03*
X137766024Y-52986003I-1380000J4899357D01*
G01*
%TO.C,R1*%
X166883800Y-59318700D02*
X163163800Y-59318700D01*
X163163800Y-59318700D02*
X163163800Y-61038700D01*
X167953800Y-60178700D02*
X166883800Y-60178700D01*
X166883800Y-61038700D02*
X166883800Y-59318700D01*
X162093800Y-60178700D02*
X163163800Y-60178700D01*
X163163800Y-61038700D02*
X166883800Y-61038700D01*
%TO.C,R3*%
X166871100Y-64328000D02*
X166871100Y-62608000D01*
X163151100Y-62608000D02*
X163151100Y-64328000D01*
X162081100Y-63468000D02*
X163151100Y-63468000D01*
X163151100Y-64328000D02*
X166871100Y-64328000D01*
X166871100Y-62608000D02*
X163151100Y-62608000D01*
X167941100Y-63468000D02*
X166871100Y-63468000D01*
D10*
%TO.C,U1*%
X150545800Y-53511200D02*
X150545800Y-53765200D01*
X150545800Y-51098200D02*
X150545800Y-51225200D01*
X157149800Y-56051200D02*
X157149800Y-56305200D01*
X154736800Y-51098200D02*
X157149800Y-51098200D01*
X150545800Y-58591200D02*
X150545800Y-58845200D01*
X150545800Y-61258200D02*
X150545800Y-61131200D01*
X150545800Y-61258200D02*
X157149800Y-61258200D01*
X150545800Y-56051200D02*
X150545800Y-56305200D01*
X157149800Y-58591200D02*
X157149800Y-58845200D01*
X157149800Y-51098200D02*
X157149800Y-51225200D01*
X152958800Y-51098200D02*
X150545800Y-51098200D01*
X157149800Y-61258200D02*
X157149800Y-61131200D01*
X157149800Y-53511200D02*
X157149800Y-53765200D01*
X152958800Y-51098200D02*
G75*
G03*
X153847800Y-51987200I889000J0D01*
G01*
X153847800Y-51987200D02*
G75*
G03*
X154736800Y-51098200I0J889000D01*
G01*
X151942800Y-51987200D02*
G75*
G03*
X151942800Y-51987200I-254000J0D01*
G01*
%TO.C,L1*%
X144561560Y-58545480D02*
X144063720Y-59645300D01*
X145262600Y-56744620D02*
X144462500Y-55743860D01*
X144863820Y-56945280D02*
X143962120Y-56043580D01*
X144962880Y-58845200D02*
X144663160Y-59945020D01*
X145262600Y-55543200D02*
X145262600Y-56744620D01*
X144561560Y-57143400D02*
X143461740Y-56543960D01*
X145262600Y-58845200D02*
X145262600Y-60044080D01*
X144363440Y-58144160D02*
X143461740Y-59043320D01*
X144462500Y-57344060D02*
X143162020Y-57245000D01*
X144363440Y-57745380D02*
X143062960Y-58045100D01*
X147563840Y-57844440D02*
G75*
G03*
X147563840Y-57844440I-2301240J0D01*
G01*
X146263360Y-57844440D02*
G75*
G03*
X146263360Y-57844440I-1000760J0D01*
G01*
D11*
%TO.C,D1*%
X142030027Y-49396400D02*
X140844693Y-50285400D01*
X140844693Y-50285400D02*
X140844693Y-48507400D01*
X141862461Y-49396400D02*
X140597360Y-49396400D01*
X140844693Y-48507400D02*
X142030027Y-49396400D01*
X142030027Y-50285400D02*
X142030027Y-48507400D01*
X146092259Y-49396400D02*
G75*
G03*
X146092259Y-49396400I-2114899J0D01*
G01*
%TO.C,R2*%
X153295900Y-47999400D02*
X151575900Y-47999400D01*
X157015900Y-47999400D02*
G75*
G03*
X157015900Y-47999400I-1860000J0D01*
G01*
%TD*%
M02*
