%TF.GenerationSoftware,KiCad,Pcbnew,(6.0.8)*%
%TF.CreationDate,2022-11-19T23:44:09+04:00*%
%TF.ProjectId,MC34063_Buck_Rev2,4d433334-3036-4335-9f42-75636b5f5265,rev?*%
%TF.SameCoordinates,Original*%
%TF.FileFunction,Copper,L2,Bot*%
%TF.FilePolarity,Positive*%
%FSLAX46Y46*%
G04 Gerber Fmt 4.6, Leading zero omitted, Abs format (unit mm)*
G04 Created by KiCad (PCBNEW (6.0.8)) date 2022-11-19 23:44:09*
%MOMM*%
%LPD*%
G01*
G04 APERTURE LIST*
%TA.AperFunction,ComponentPad*%
%ADD10R,2.000000X2.000000*%
%TD*%
%TA.AperFunction,ComponentPad*%
%ADD11C,2.000000*%
%TD*%
%TA.AperFunction,ComponentPad*%
%ADD12C,1.600000*%
%TD*%
%TA.AperFunction,ComponentPad*%
%ADD13C,1.400000*%
%TD*%
%TA.AperFunction,ComponentPad*%
%ADD14O,1.400000X1.400000*%
%TD*%
%TA.AperFunction,ComponentPad*%
%ADD15C,1.905000*%
%TD*%
%TA.AperFunction,ComponentPad*%
%ADD16C,2.499360*%
%TD*%
%TA.AperFunction,ComponentPad*%
%ADD17R,2.800000X2.800000*%
%TD*%
%TA.AperFunction,ComponentPad*%
%ADD18O,2.800000X2.800000*%
%TD*%
%TA.AperFunction,ComponentPad*%
%ADD19C,2.400000*%
%TD*%
%TA.AperFunction,ComponentPad*%
%ADD20O,2.400000X2.400000*%
%TD*%
%TA.AperFunction,ComponentPad*%
%ADD21C,3.500120*%
%TD*%
%TA.AperFunction,ComponentPad*%
%ADD22R,3.500120X3.500120*%
%TD*%
%TA.AperFunction,Conductor*%
%ADD23C,0.750000*%
%TD*%
%TA.AperFunction,Conductor*%
%ADD24C,1.000000*%
%TD*%
%TA.AperFunction,Conductor*%
%ADD25C,0.300000*%
%TD*%
%TA.AperFunction,Conductor*%
%ADD26C,0.250000*%
%TD*%
G04 APERTURE END LIST*
D10*
%TO.P,C1,1*%
%TO.N,VCC*%
X165064440Y-55327300D03*
D11*
%TO.P,C1,2*%
%TO.N,GNDREF*%
X165064440Y-50327300D03*
%TD*%
D12*
%TO.P,C2,1*%
%TO.N,Net-(C2-Pad1)*%
X154609800Y-63277500D03*
%TO.P,C2,2*%
%TO.N,GNDREF*%
X157109800Y-63277500D03*
%TD*%
D10*
%TO.P,C3,1*%
%TO.N,Vout1*%
X136382760Y-60384440D03*
D11*
%TO.P,C3,2*%
%TO.N,GNDREF*%
X136382760Y-55384440D03*
%TD*%
D13*
%TO.P,R1,1*%
%TO.N,Net-(R1-Pad1)*%
X161213800Y-60178700D03*
D14*
%TO.P,R1,2*%
%TO.N,GNDREF*%
X168833800Y-60178700D03*
%TD*%
D13*
%TO.P,R3,1*%
%TO.N,Net-(R1-Pad1)*%
X168821100Y-63468000D03*
D14*
%TO.P,R3,2*%
%TO.N,Vout1*%
X161201100Y-63468000D03*
%TD*%
D15*
%TO.P,U1,1*%
%TO.N,Net-(R2-Pad2)*%
X150037800Y-52368200D03*
%TO.P,U1,2*%
%TO.N,Net-(D1-Pad1)*%
X150037800Y-54908200D03*
%TO.P,U1,3*%
%TO.N,Net-(C2-Pad1)*%
X150037800Y-57448200D03*
%TO.P,U1,4*%
%TO.N,GNDREF*%
X150037800Y-59988200D03*
%TO.P,U1,5*%
%TO.N,Net-(R1-Pad1)*%
X157657800Y-59988200D03*
%TO.P,U1,6*%
%TO.N,VCC*%
X157657800Y-57448200D03*
%TO.P,U1,7*%
%TO.N,Net-(R2-Pad2)*%
X157657800Y-54908200D03*
%TO.P,U1,8*%
X157657800Y-52368200D03*
%TD*%
D16*
%TO.P,L1,1*%
%TO.N,Net-(D1-Pad1)*%
X145262600Y-53843940D03*
%TO.P,L1,2*%
%TO.N,Vout1*%
X145262600Y-61844940D03*
%TD*%
D17*
%TO.P,D1,1*%
%TO.N,Net-(D1-Pad1)*%
X143977360Y-49396400D03*
D18*
%TO.P,D1,2*%
%TO.N,GNDREF*%
X138897360Y-49396400D03*
%TD*%
D19*
%TO.P,R2,1*%
%TO.N,VCC*%
X155155900Y-47999400D03*
D20*
%TO.P,R2,2*%
%TO.N,Net-(R2-Pad2)*%
X150075900Y-47999400D03*
%TD*%
D21*
%TO.P,GND,1*%
%TO.N,GNDREF*%
X127576580Y-54669440D03*
%TD*%
D22*
%TO.P,Vout,1*%
%TO.N,Vout1*%
X127576580Y-60453020D03*
%TD*%
%TO.P,Vin,1*%
%TO.N,VCC*%
X172971460Y-55693060D03*
%TD*%
D21*
%TO.P,GND,1*%
%TO.N,GNDREF*%
X172971460Y-48738540D03*
%TD*%
D23*
%TO.N,VCC*%
X160782000Y-56483000D02*
X160782000Y-57397400D01*
X160832800Y-57448200D02*
X159816800Y-57448200D01*
X161874200Y-57448200D02*
X160832800Y-57448200D01*
X155155900Y-47999400D02*
X159537400Y-47999400D01*
X159816800Y-57448200D02*
X160782000Y-56483000D01*
D24*
X172971460Y-55693060D02*
X165430200Y-55693060D01*
X165430200Y-55693060D02*
X165064440Y-55327300D01*
D23*
X159816800Y-57448200D02*
X157657800Y-57448200D01*
X165064440Y-56010560D02*
X163626800Y-57448200D01*
X163626800Y-57448200D02*
X161874200Y-57448200D01*
X159537400Y-47999400D02*
X160782000Y-49244000D01*
X160909000Y-56483000D02*
X161874200Y-57448200D01*
X160782000Y-56483000D02*
X160909000Y-56483000D01*
X160782000Y-57397400D02*
X160832800Y-57448200D01*
X160782000Y-49244000D02*
X160782000Y-56483000D01*
X165064440Y-55327300D02*
X165064440Y-56010560D01*
D25*
%TO.N,Net-(C2-Pad1)*%
X152948200Y-57448200D02*
X150037800Y-57448200D01*
X154609800Y-63277500D02*
X154609800Y-59109800D01*
X154609800Y-59109800D02*
X152948200Y-57448200D01*
D24*
%TO.N,Vout1*%
X127576580Y-60453020D02*
X136314180Y-60453020D01*
D25*
X136382760Y-60384440D02*
X136382760Y-63882760D01*
D26*
X160084550Y-64584550D02*
X159919100Y-64750000D01*
D25*
X159919100Y-64750000D02*
X137250000Y-64750000D01*
D26*
X136382760Y-63882760D02*
X136382760Y-63382760D01*
D25*
X136382760Y-63882760D02*
X137250000Y-64750000D01*
X136382760Y-60384440D02*
X136382760Y-63382760D01*
X161201100Y-63468000D02*
X159919100Y-64750000D01*
D24*
X136314180Y-60453020D02*
X136382760Y-60384440D01*
D25*
X161201100Y-63468000D02*
X160084550Y-64584550D01*
%TO.N,Net-(R1-Pad1)*%
X168821100Y-63468000D02*
X167353100Y-62000000D01*
X161023300Y-59988200D02*
X161213800Y-60178700D01*
X163035100Y-62000000D02*
X161213800Y-60178700D01*
X157657800Y-59988200D02*
X161023300Y-59988200D01*
X167353100Y-62000000D02*
X163035100Y-62000000D01*
D26*
X157848300Y-60178700D02*
X157657800Y-59988200D01*
D23*
%TO.N,Net-(R2-Pad2)*%
X148590000Y-50920400D02*
X150037800Y-52368200D01*
X150037800Y-52368200D02*
X157657800Y-52368200D01*
X148590000Y-49485300D02*
X148590000Y-50920400D01*
X150075900Y-47999400D02*
X148590000Y-49485300D01*
X157657800Y-54908200D02*
X157657800Y-52368200D01*
%TD*%
%TA.AperFunction,Conductor*%
%TO.N,GNDREF*%
G36*
X176425500Y-44519962D02*
G01*
X176480038Y-44574500D01*
X176500000Y-44649000D01*
X176500000Y-65351000D01*
X176480038Y-65425500D01*
X176425500Y-65480038D01*
X176351000Y-65500000D01*
X159965327Y-65500000D01*
X159935305Y-65491956D01*
X159896202Y-65500000D01*
X137300702Y-65500000D01*
X137288718Y-65496789D01*
X137275719Y-65500000D01*
X124649000Y-65500000D01*
X124574500Y-65480038D01*
X124519962Y-65425500D01*
X124500000Y-65351000D01*
X124500000Y-62247726D01*
X125526020Y-62247726D01*
X125529138Y-62273926D01*
X125574581Y-62376233D01*
X125653807Y-62455321D01*
X125666387Y-62460883D01*
X125666389Y-62460884D01*
X125745946Y-62496056D01*
X125756193Y-62500586D01*
X125770838Y-62502293D01*
X125777590Y-62503081D01*
X125777598Y-62503081D01*
X125781874Y-62503580D01*
X129371286Y-62503580D01*
X129397486Y-62500462D01*
X129499793Y-62455019D01*
X129578881Y-62375793D01*
X129598194Y-62332110D01*
X129619616Y-62283654D01*
X129619616Y-62283653D01*
X129624146Y-62273407D01*
X129625853Y-62258762D01*
X129626641Y-62252010D01*
X129626641Y-62252002D01*
X129627140Y-62247726D01*
X129627140Y-61402520D01*
X129647102Y-61328020D01*
X129701640Y-61273482D01*
X129776140Y-61253520D01*
X134375560Y-61253520D01*
X134450060Y-61273482D01*
X134480919Y-61297161D01*
X134952088Y-61768330D01*
X134958175Y-61772397D01*
X135045108Y-61830486D01*
X135045113Y-61830489D01*
X135051194Y-61834552D01*
X135057956Y-61837353D01*
X135070240Y-61842442D01*
X135070244Y-61842443D01*
X135077003Y-61845243D01*
X135084177Y-61846670D01*
X135084180Y-61846671D01*
X135135049Y-61856790D01*
X135193918Y-61868500D01*
X135783260Y-61868500D01*
X135857760Y-61888462D01*
X135912298Y-61943000D01*
X135932260Y-62017500D01*
X135932260Y-63847188D01*
X135931227Y-63864701D01*
X135927396Y-63897070D01*
X135929397Y-63908026D01*
X135929397Y-63908029D01*
X135937871Y-63954428D01*
X135938639Y-63959044D01*
X135944804Y-64000046D01*
X135947311Y-64016722D01*
X135950439Y-64023235D01*
X135951735Y-64030333D01*
X135956868Y-64040214D01*
X135978603Y-64082056D01*
X135980686Y-64086225D01*
X136005951Y-64138839D01*
X136010854Y-64144143D01*
X136014181Y-64150548D01*
X136018485Y-64155588D01*
X136055417Y-64192520D01*
X136059471Y-64196737D01*
X136097906Y-64238316D01*
X136104514Y-64242154D01*
X136109662Y-64246765D01*
X136906291Y-65043394D01*
X136917944Y-65056507D01*
X136938128Y-65082110D01*
X136947291Y-65088443D01*
X136986082Y-65115253D01*
X136989890Y-65117974D01*
X137008379Y-65131630D01*
X137036817Y-65152635D01*
X137043634Y-65155029D01*
X137049569Y-65159131D01*
X137060187Y-65162489D01*
X137060189Y-65162490D01*
X137105139Y-65176706D01*
X137109536Y-65178172D01*
X137164631Y-65197520D01*
X137171848Y-65197804D01*
X137178730Y-65199980D01*
X137185337Y-65200500D01*
X137237546Y-65200500D01*
X137243396Y-65200615D01*
X137281569Y-65202115D01*
X137284228Y-65202941D01*
X137284352Y-65202900D01*
X137288865Y-65202402D01*
X137299994Y-65202839D01*
X137307381Y-65200880D01*
X137314289Y-65200500D01*
X159883528Y-65200500D01*
X159901040Y-65201533D01*
X159913714Y-65203033D01*
X159927440Y-65208509D01*
X159938558Y-65204424D01*
X159990768Y-65194889D01*
X159995384Y-65194121D01*
X160042043Y-65187106D01*
X160042045Y-65187105D01*
X160053062Y-65185449D01*
X160059575Y-65182321D01*
X160066673Y-65181025D01*
X160118413Y-65154148D01*
X160122565Y-65152074D01*
X160175179Y-65126809D01*
X160180483Y-65121906D01*
X160186888Y-65118579D01*
X160191928Y-65114275D01*
X160228860Y-65077343D01*
X160233078Y-65073288D01*
X160266477Y-65042415D01*
X160266478Y-65042413D01*
X160274656Y-65034854D01*
X160278494Y-65028246D01*
X160283105Y-65023098D01*
X160823363Y-64482840D01*
X160890158Y-64444276D01*
X160967286Y-64444276D01*
X160974730Y-64446481D01*
X160985218Y-64449889D01*
X161111696Y-64464971D01*
X161172815Y-64472259D01*
X161172818Y-64472259D01*
X161180046Y-64473121D01*
X161291543Y-64464542D01*
X161368414Y-64458627D01*
X161368416Y-64458627D01*
X161375676Y-64458068D01*
X161564656Y-64405303D01*
X161571162Y-64402016D01*
X161571166Y-64402015D01*
X161733284Y-64320123D01*
X161733285Y-64320123D01*
X161739789Y-64316837D01*
X161894403Y-64196040D01*
X162022609Y-64047511D01*
X162104419Y-63903501D01*
X162115927Y-63883243D01*
X162115928Y-63883241D01*
X162119525Y-63876909D01*
X162181458Y-63690732D01*
X162206049Y-63496071D01*
X162206441Y-63468000D01*
X162187294Y-63272728D01*
X162182059Y-63255387D01*
X162132691Y-63091873D01*
X162130584Y-63084894D01*
X162127161Y-63078456D01*
X162041892Y-62918088D01*
X162041890Y-62918085D01*
X162038470Y-62911653D01*
X162033867Y-62906010D01*
X162033865Y-62906006D01*
X161919064Y-62765246D01*
X161914461Y-62759602D01*
X161763280Y-62634535D01*
X161590685Y-62541213D01*
X161438878Y-62494221D01*
X161410211Y-62485347D01*
X161410209Y-62485347D01*
X161403252Y-62483193D01*
X161396010Y-62482432D01*
X161396006Y-62482431D01*
X161215360Y-62463444D01*
X161215359Y-62463444D01*
X161208119Y-62462683D01*
X161012718Y-62480466D01*
X160824493Y-62535864D01*
X160650612Y-62626767D01*
X160644938Y-62631329D01*
X160557959Y-62701262D01*
X160497700Y-62749711D01*
X160371580Y-62900016D01*
X160277056Y-63071954D01*
X160217728Y-63258978D01*
X160216915Y-63266222D01*
X160216915Y-63266224D01*
X160216140Y-63273134D01*
X160195857Y-63453963D01*
X160212275Y-63649483D01*
X160214285Y-63656492D01*
X160214285Y-63656493D01*
X160226020Y-63697417D01*
X160227366Y-63774533D01*
X160188151Y-63843846D01*
X159776138Y-64255859D01*
X159709343Y-64294423D01*
X159670779Y-64299500D01*
X155509007Y-64299500D01*
X155434507Y-64279538D01*
X155379969Y-64225000D01*
X155360007Y-64150500D01*
X155379969Y-64076000D01*
X155394450Y-64055223D01*
X155396281Y-64053022D01*
X155520637Y-63903501D01*
X155524239Y-63897070D01*
X155616125Y-63732993D01*
X155619464Y-63727031D01*
X155684478Y-63535507D01*
X155713500Y-63335342D01*
X155715015Y-63277500D01*
X155712675Y-63252028D01*
X155697133Y-63082893D01*
X155696508Y-63076091D01*
X155678622Y-63012670D01*
X155643463Y-62888007D01*
X155641607Y-62881426D01*
X155631576Y-62861084D01*
X155555170Y-62706149D01*
X155552151Y-62700027D01*
X155548070Y-62694562D01*
X155548067Y-62694557D01*
X155435223Y-62543441D01*
X155435221Y-62543439D01*
X155431135Y-62537967D01*
X155282612Y-62400674D01*
X155129791Y-62304251D01*
X155077437Y-62247614D01*
X155060300Y-62178238D01*
X155060300Y-59145371D01*
X155061333Y-59127858D01*
X155063855Y-59106549D01*
X155065164Y-59095489D01*
X155054691Y-59038147D01*
X155053922Y-59033528D01*
X155052030Y-59020945D01*
X155045249Y-58975838D01*
X155042121Y-58969325D01*
X155040825Y-58962227D01*
X155013946Y-58910481D01*
X155011869Y-58906325D01*
X155008316Y-58898925D01*
X154986609Y-58853721D01*
X154981707Y-58848418D01*
X154978379Y-58842011D01*
X154974075Y-58836972D01*
X154937143Y-58800040D01*
X154933088Y-58795822D01*
X154902215Y-58762423D01*
X154902213Y-58762422D01*
X154894654Y-58754244D01*
X154888046Y-58750406D01*
X154882898Y-58745795D01*
X153291909Y-57154806D01*
X153280256Y-57141693D01*
X153266967Y-57124836D01*
X153266966Y-57124836D01*
X153260072Y-57116090D01*
X153250910Y-57109758D01*
X153250908Y-57109756D01*
X153212110Y-57082941D01*
X153208302Y-57080220D01*
X153170343Y-57052183D01*
X153170342Y-57052182D01*
X153161384Y-57045566D01*
X153154568Y-57043173D01*
X153148631Y-57039069D01*
X153093032Y-57021485D01*
X153088620Y-57020013D01*
X153033569Y-57000681D01*
X153026355Y-57000398D01*
X153019470Y-56998220D01*
X153012863Y-56997700D01*
X152960629Y-56997700D01*
X152954779Y-56997585D01*
X152909333Y-56995799D01*
X152909331Y-56995799D01*
X152898206Y-56995362D01*
X152890821Y-56997320D01*
X152883918Y-56997700D01*
X151305184Y-56997700D01*
X151230684Y-56977738D01*
X151176146Y-56923200D01*
X151170144Y-56911670D01*
X151129825Y-56825205D01*
X151129824Y-56825203D01*
X151127075Y-56819307D01*
X151001320Y-56639711D01*
X150863081Y-56501472D01*
X150824517Y-56434677D01*
X150824517Y-56357549D01*
X150863081Y-56290754D01*
X150885790Y-56272138D01*
X151408659Y-55923559D01*
X151408668Y-55923553D01*
X151410208Y-55922526D01*
X151434462Y-55904565D01*
X151435876Y-55903405D01*
X151435892Y-55903393D01*
X151438273Y-55901440D01*
X151438275Y-55901438D01*
X151440024Y-55900004D01*
X151467258Y-55874752D01*
X151528552Y-55780689D01*
X151539243Y-55754880D01*
X151545925Y-55721292D01*
X151550790Y-55696834D01*
X151562500Y-55637965D01*
X151562500Y-54275618D01*
X151539243Y-54158703D01*
X151533506Y-54144852D01*
X151531353Y-54139656D01*
X151528552Y-54132894D01*
X151524489Y-54126813D01*
X151524486Y-54126808D01*
X151466397Y-54039875D01*
X151462330Y-54033788D01*
X150975712Y-53547170D01*
X150919933Y-53509899D01*
X150869081Y-53451912D01*
X150854034Y-53376266D01*
X150878826Y-53303232D01*
X150897356Y-53280653D01*
X151001320Y-53176689D01*
X151049951Y-53107237D01*
X151109035Y-53057660D01*
X151172005Y-53043700D01*
X156523595Y-53043700D01*
X156598095Y-53063662D01*
X156645649Y-53107237D01*
X156694280Y-53176689D01*
X156849311Y-53331720D01*
X156854637Y-53335449D01*
X156918763Y-53380351D01*
X156968340Y-53439435D01*
X156982300Y-53502405D01*
X156982300Y-53773995D01*
X156962338Y-53848495D01*
X156918763Y-53896049D01*
X156849311Y-53944680D01*
X156694280Y-54099711D01*
X156647045Y-54167169D01*
X156572258Y-54273975D01*
X156572256Y-54273979D01*
X156568525Y-54279307D01*
X156475868Y-54478012D01*
X156419123Y-54689788D01*
X156400014Y-54908200D01*
X156419123Y-55126612D01*
X156420804Y-55132886D01*
X156420805Y-55132891D01*
X156474185Y-55332107D01*
X156475868Y-55338388D01*
X156568525Y-55537093D01*
X156572256Y-55542421D01*
X156572258Y-55542425D01*
X156626204Y-55619467D01*
X156694280Y-55716689D01*
X156849311Y-55871720D01*
X156946533Y-55939796D01*
X157023575Y-55993742D01*
X157023579Y-55993744D01*
X157028907Y-55997475D01*
X157065377Y-56014481D01*
X157126879Y-56043160D01*
X157185963Y-56092737D01*
X157212342Y-56165214D01*
X157198949Y-56241170D01*
X157149372Y-56300254D01*
X157126879Y-56313240D01*
X157028907Y-56358925D01*
X157023579Y-56362656D01*
X157023575Y-56362658D01*
X156971103Y-56399400D01*
X156849311Y-56484680D01*
X156694280Y-56639711D01*
X156645649Y-56709163D01*
X156572258Y-56813975D01*
X156572256Y-56813979D01*
X156568525Y-56819307D01*
X156475868Y-57018012D01*
X156474185Y-57024293D01*
X156440880Y-57148591D01*
X156419123Y-57229788D01*
X156400014Y-57448200D01*
X156400581Y-57454681D01*
X156414719Y-57616273D01*
X156419123Y-57666612D01*
X156420804Y-57672886D01*
X156420805Y-57672891D01*
X156439302Y-57741923D01*
X156475868Y-57878388D01*
X156568525Y-58077093D01*
X156572256Y-58082421D01*
X156572258Y-58082425D01*
X156626204Y-58159467D01*
X156694280Y-58256689D01*
X156849311Y-58411720D01*
X156946533Y-58479796D01*
X157023575Y-58533742D01*
X157023579Y-58533744D01*
X157028907Y-58537475D01*
X157039424Y-58542379D01*
X157126879Y-58583160D01*
X157185963Y-58632737D01*
X157212342Y-58705214D01*
X157198949Y-58781170D01*
X157149372Y-58840254D01*
X157126879Y-58853240D01*
X157112211Y-58860080D01*
X157028907Y-58898925D01*
X157023579Y-58902656D01*
X157023575Y-58902658D01*
X156952616Y-58952345D01*
X156849311Y-59024680D01*
X156694280Y-59179711D01*
X156643129Y-59252762D01*
X156572258Y-59353975D01*
X156572256Y-59353979D01*
X156568525Y-59359307D01*
X156475868Y-59558012D01*
X156474185Y-59564293D01*
X156455894Y-59632558D01*
X156419123Y-59769788D01*
X156418557Y-59776259D01*
X156418556Y-59776264D01*
X156401041Y-59976459D01*
X156400014Y-59988200D01*
X156400581Y-59994681D01*
X156416318Y-60174549D01*
X156419123Y-60206612D01*
X156475868Y-60418388D01*
X156568525Y-60617093D01*
X156572256Y-60622421D01*
X156572258Y-60622425D01*
X156612682Y-60680156D01*
X156694280Y-60796689D01*
X156849311Y-60951720D01*
X156946533Y-61019796D01*
X157023575Y-61073742D01*
X157023579Y-61073744D01*
X157028907Y-61077475D01*
X157227612Y-61170132D01*
X157233893Y-61171815D01*
X157433109Y-61225195D01*
X157433114Y-61225196D01*
X157439388Y-61226877D01*
X157445859Y-61227443D01*
X157445864Y-61227444D01*
X157651319Y-61245419D01*
X157657800Y-61245986D01*
X157664281Y-61245419D01*
X157869736Y-61227444D01*
X157869741Y-61227443D01*
X157876212Y-61226877D01*
X157882486Y-61225196D01*
X157882491Y-61225195D01*
X158081707Y-61171815D01*
X158087988Y-61170132D01*
X158286693Y-61077475D01*
X158292021Y-61073744D01*
X158292025Y-61073742D01*
X158369067Y-61019796D01*
X158466289Y-60951720D01*
X158621320Y-60796689D01*
X158747075Y-60617093D01*
X158790144Y-60524730D01*
X158839721Y-60465646D01*
X158912198Y-60439267D01*
X158925184Y-60438700D01*
X160135210Y-60438700D01*
X160209710Y-60458662D01*
X160264248Y-60513200D01*
X160273632Y-60535302D01*
X160274367Y-60535011D01*
X160277049Y-60541785D01*
X160279058Y-60548791D01*
X160368744Y-60723301D01*
X160490618Y-60877069D01*
X160640038Y-61004235D01*
X160646401Y-61007791D01*
X160804949Y-61096401D01*
X160804955Y-61096404D01*
X160811313Y-61099957D01*
X160997918Y-61160589D01*
X161106821Y-61173575D01*
X161185515Y-61182959D01*
X161185518Y-61182959D01*
X161192746Y-61183821D01*
X161388376Y-61168768D01*
X161443970Y-61153246D01*
X161521093Y-61152439D01*
X161589396Y-61191399D01*
X162691391Y-62293394D01*
X162703044Y-62306507D01*
X162723228Y-62332110D01*
X162732390Y-62338442D01*
X162732392Y-62338444D01*
X162771190Y-62365259D01*
X162774998Y-62367980D01*
X162799329Y-62385951D01*
X162821916Y-62402634D01*
X162828732Y-62405027D01*
X162834669Y-62409131D01*
X162845290Y-62412490D01*
X162890265Y-62426714D01*
X162894680Y-62428187D01*
X162949731Y-62447519D01*
X162956945Y-62447802D01*
X162963830Y-62449980D01*
X162970437Y-62450500D01*
X163022671Y-62450500D01*
X163028521Y-62450615D01*
X163073966Y-62452401D01*
X163073968Y-62452401D01*
X163085094Y-62452838D01*
X163092478Y-62450880D01*
X163099380Y-62450500D01*
X167104779Y-62450500D01*
X167179279Y-62470462D01*
X167210138Y-62494141D01*
X167806721Y-63090724D01*
X167845285Y-63157519D01*
X167843389Y-63241133D01*
X167837728Y-63258978D01*
X167836916Y-63266217D01*
X167836915Y-63266222D01*
X167817022Y-63443579D01*
X167815857Y-63453963D01*
X167832275Y-63649483D01*
X167886358Y-63838091D01*
X167976044Y-64012601D01*
X168053284Y-64110055D01*
X168085379Y-64150548D01*
X168097918Y-64166369D01*
X168247338Y-64293535D01*
X168253701Y-64297091D01*
X168412249Y-64385701D01*
X168412255Y-64385704D01*
X168418613Y-64389257D01*
X168605218Y-64449889D01*
X168678497Y-64458627D01*
X168792815Y-64472259D01*
X168792818Y-64472259D01*
X168800046Y-64473121D01*
X168911543Y-64464542D01*
X168988414Y-64458627D01*
X168988416Y-64458627D01*
X168995676Y-64458068D01*
X169184656Y-64405303D01*
X169191162Y-64402016D01*
X169191166Y-64402015D01*
X169353284Y-64320123D01*
X169353285Y-64320123D01*
X169359789Y-64316837D01*
X169514403Y-64196040D01*
X169642609Y-64047511D01*
X169724419Y-63903501D01*
X169735927Y-63883243D01*
X169735928Y-63883241D01*
X169739525Y-63876909D01*
X169801458Y-63690732D01*
X169826049Y-63496071D01*
X169826441Y-63468000D01*
X169807294Y-63272728D01*
X169802059Y-63255387D01*
X169752691Y-63091873D01*
X169750584Y-63084894D01*
X169747161Y-63078456D01*
X169661892Y-62918088D01*
X169661890Y-62918085D01*
X169658470Y-62911653D01*
X169653867Y-62906010D01*
X169653865Y-62906006D01*
X169539064Y-62765246D01*
X169534461Y-62759602D01*
X169383280Y-62634535D01*
X169210685Y-62541213D01*
X169058878Y-62494221D01*
X169030211Y-62485347D01*
X169030209Y-62485347D01*
X169023252Y-62483193D01*
X169016010Y-62482432D01*
X169016006Y-62482431D01*
X168835360Y-62463444D01*
X168835359Y-62463444D01*
X168828119Y-62462683D01*
X168632718Y-62480466D01*
X168625729Y-62482523D01*
X168625724Y-62482524D01*
X168592390Y-62492335D01*
X168515285Y-62494221D01*
X168444960Y-62454757D01*
X167696804Y-61706601D01*
X167685151Y-61693487D01*
X167671868Y-61676638D01*
X167664972Y-61667890D01*
X167655810Y-61661558D01*
X167655807Y-61661555D01*
X167617010Y-61634741D01*
X167613202Y-61632020D01*
X167575243Y-61603983D01*
X167575242Y-61603982D01*
X167566284Y-61597366D01*
X167559468Y-61594973D01*
X167553531Y-61590869D01*
X167497932Y-61573285D01*
X167493520Y-61571813D01*
X167438469Y-61552481D01*
X167431255Y-61552198D01*
X167424370Y-61550020D01*
X167417763Y-61549500D01*
X167365529Y-61549500D01*
X167359679Y-61549385D01*
X167314233Y-61547599D01*
X167314231Y-61547599D01*
X167303106Y-61547162D01*
X167295721Y-61549120D01*
X167288818Y-61549500D01*
X163283421Y-61549500D01*
X163208921Y-61529538D01*
X163178062Y-61505859D01*
X162229144Y-60556941D01*
X162190580Y-60490146D01*
X162190580Y-60415529D01*
X162190243Y-60415452D01*
X162190580Y-60413969D01*
X162190580Y-60413018D01*
X162191471Y-60410047D01*
X162191856Y-60408351D01*
X162194158Y-60401432D01*
X162218749Y-60206771D01*
X162219141Y-60178700D01*
X162199994Y-59983428D01*
X162143284Y-59795594D01*
X162126224Y-59763509D01*
X162054592Y-59628788D01*
X162054590Y-59628785D01*
X162051170Y-59622353D01*
X162046567Y-59616710D01*
X162046565Y-59616706D01*
X161931764Y-59475946D01*
X161927161Y-59470302D01*
X161775980Y-59345235D01*
X161603385Y-59251913D01*
X161453571Y-59205538D01*
X161422911Y-59196047D01*
X161422909Y-59196047D01*
X161415952Y-59193893D01*
X161408710Y-59193132D01*
X161408706Y-59193131D01*
X161228060Y-59174144D01*
X161228059Y-59174144D01*
X161220819Y-59173383D01*
X161025418Y-59191166D01*
X160837193Y-59246564D01*
X160663312Y-59337467D01*
X160657638Y-59342029D01*
X160521272Y-59451670D01*
X160510400Y-59460411D01*
X160490208Y-59484475D01*
X160427028Y-59528714D01*
X160376067Y-59537700D01*
X158925184Y-59537700D01*
X158850684Y-59517738D01*
X158796146Y-59463200D01*
X158790144Y-59451670D01*
X158749825Y-59365205D01*
X158749824Y-59365203D01*
X158747075Y-59359307D01*
X158621320Y-59179711D01*
X158466289Y-59024680D01*
X158362984Y-58952345D01*
X158292025Y-58902658D01*
X158292021Y-58902656D01*
X158286693Y-58898925D01*
X158203389Y-58860080D01*
X158188721Y-58853240D01*
X158129637Y-58803663D01*
X158103258Y-58731186D01*
X158116651Y-58655230D01*
X158166228Y-58596146D01*
X158188721Y-58583160D01*
X158276176Y-58542379D01*
X158286693Y-58537475D01*
X158292021Y-58533744D01*
X158292025Y-58533742D01*
X158369067Y-58479796D01*
X158466289Y-58411720D01*
X158621320Y-58256689D01*
X158669951Y-58187237D01*
X158729035Y-58137660D01*
X158792005Y-58123700D01*
X159788254Y-58123700D01*
X159798388Y-58124045D01*
X159843448Y-58127117D01*
X159843449Y-58127117D01*
X159852413Y-58127728D01*
X159862780Y-58125919D01*
X159888395Y-58123700D01*
X160756862Y-58123700D01*
X160772298Y-58125118D01*
X160781240Y-58125681D01*
X160790074Y-58127318D01*
X160799041Y-58126801D01*
X160799042Y-58126801D01*
X160848534Y-58123947D01*
X160857112Y-58123700D01*
X161798262Y-58123700D01*
X161813698Y-58125118D01*
X161822640Y-58125681D01*
X161831474Y-58127318D01*
X161840441Y-58126801D01*
X161840442Y-58126801D01*
X161889941Y-58123947D01*
X161898518Y-58123700D01*
X163598254Y-58123700D01*
X163608388Y-58124045D01*
X163653448Y-58127117D01*
X163653449Y-58127117D01*
X163662413Y-58127728D01*
X163721679Y-58117385D01*
X163729376Y-58116248D01*
X163789113Y-58109019D01*
X163797518Y-58105843D01*
X163806139Y-58103725D01*
X163814624Y-58101164D01*
X163823475Y-58099619D01*
X163878586Y-58075427D01*
X163885779Y-58072492D01*
X163942055Y-58051227D01*
X163949465Y-58046134D01*
X163957315Y-58042030D01*
X163964949Y-58037515D01*
X163973183Y-58033901D01*
X163980315Y-58028428D01*
X163980319Y-58028426D01*
X164020905Y-57997284D01*
X164027214Y-57992700D01*
X164069392Y-57963711D01*
X164069395Y-57963708D01*
X164076797Y-57958621D01*
X164115751Y-57914900D01*
X164121641Y-57908660D01*
X165358860Y-56671441D01*
X165425655Y-56632877D01*
X165464219Y-56627800D01*
X166109086Y-56627800D01*
X166135286Y-56624682D01*
X166237593Y-56579239D01*
X166279466Y-56537293D01*
X166346228Y-56498671D01*
X166384917Y-56493560D01*
X170771900Y-56493560D01*
X170846400Y-56513522D01*
X170900938Y-56568060D01*
X170920900Y-56642560D01*
X170920900Y-57487766D01*
X170924018Y-57513966D01*
X170969461Y-57616273D01*
X171048687Y-57695361D01*
X171061267Y-57700923D01*
X171061269Y-57700924D01*
X171140826Y-57736096D01*
X171151073Y-57740626D01*
X171165718Y-57742333D01*
X171172470Y-57743121D01*
X171172478Y-57743121D01*
X171176754Y-57743620D01*
X174766166Y-57743620D01*
X174792366Y-57740502D01*
X174894673Y-57695059D01*
X174973761Y-57615833D01*
X175019026Y-57513447D01*
X175022020Y-57487766D01*
X175022020Y-53898354D01*
X175018902Y-53872154D01*
X174973459Y-53769847D01*
X174894233Y-53690759D01*
X174881653Y-53685197D01*
X174881651Y-53685196D01*
X174802094Y-53650024D01*
X174802093Y-53650024D01*
X174791847Y-53645494D01*
X174777202Y-53643787D01*
X174770450Y-53642999D01*
X174770442Y-53642999D01*
X174766166Y-53642500D01*
X171176754Y-53642500D01*
X171150554Y-53645618D01*
X171048247Y-53691061D01*
X170969159Y-53770287D01*
X170963597Y-53782867D01*
X170963596Y-53782869D01*
X170923894Y-53872673D01*
X170920900Y-53898354D01*
X170920900Y-54743560D01*
X170900938Y-54818060D01*
X170846400Y-54872598D01*
X170771900Y-54892560D01*
X166513940Y-54892560D01*
X166439440Y-54872598D01*
X166384902Y-54818060D01*
X166364940Y-54743560D01*
X166364940Y-54282654D01*
X166361822Y-54256454D01*
X166316379Y-54154147D01*
X166237153Y-54075059D01*
X166224573Y-54069497D01*
X166224571Y-54069496D01*
X166145014Y-54034324D01*
X166145013Y-54034324D01*
X166134767Y-54029794D01*
X166120122Y-54028087D01*
X166113370Y-54027299D01*
X166113362Y-54027299D01*
X166109086Y-54026800D01*
X164019794Y-54026800D01*
X163993594Y-54029918D01*
X163891287Y-54075361D01*
X163812199Y-54154587D01*
X163766934Y-54256973D01*
X163763940Y-54282654D01*
X163763940Y-56294041D01*
X163743978Y-56368541D01*
X163720299Y-56399400D01*
X163390640Y-56729059D01*
X163323845Y-56767623D01*
X163285281Y-56772700D01*
X162215719Y-56772700D01*
X162141219Y-56752738D01*
X162110360Y-56729059D01*
X161501141Y-56119840D01*
X161462577Y-56053045D01*
X161457500Y-56014481D01*
X161457500Y-49272546D01*
X161457845Y-49262412D01*
X161460917Y-49217352D01*
X161460917Y-49217351D01*
X161461528Y-49208387D01*
X161451183Y-49149109D01*
X161450049Y-49141429D01*
X161443897Y-49090598D01*
X161442819Y-49081687D01*
X161439646Y-49073289D01*
X161437534Y-49064691D01*
X161434963Y-49056174D01*
X161433418Y-49047324D01*
X161409239Y-48992242D01*
X161406291Y-48985018D01*
X161388206Y-48937156D01*
X161388203Y-48937151D01*
X161385027Y-48928745D01*
X161379935Y-48921336D01*
X161375830Y-48913485D01*
X161371315Y-48905851D01*
X161367701Y-48897617D01*
X161362228Y-48890485D01*
X161362226Y-48890481D01*
X161331084Y-48849895D01*
X161326500Y-48843586D01*
X161297511Y-48801408D01*
X161297508Y-48801405D01*
X161292421Y-48794003D01*
X161248700Y-48755049D01*
X161242460Y-48749159D01*
X160035240Y-47541939D01*
X160028318Y-47534529D01*
X159998620Y-47500486D01*
X159992717Y-47493719D01*
X159943497Y-47459126D01*
X159937246Y-47454484D01*
X159909108Y-47432421D01*
X159896962Y-47422897D01*
X159896959Y-47422895D01*
X159889897Y-47417358D01*
X159881714Y-47413663D01*
X159874130Y-47409071D01*
X159866306Y-47404876D01*
X159858952Y-47399707D01*
X159802885Y-47377847D01*
X159795706Y-47374829D01*
X159749075Y-47353774D01*
X159749072Y-47353773D01*
X159740886Y-47350077D01*
X159732051Y-47348440D01*
X159723579Y-47345785D01*
X159714996Y-47343581D01*
X159706624Y-47340317D01*
X159658591Y-47333993D01*
X159646971Y-47332463D01*
X159639269Y-47331243D01*
X159588959Y-47321919D01*
X159580126Y-47320282D01*
X159571159Y-47320799D01*
X159571158Y-47320799D01*
X159521666Y-47323653D01*
X159513088Y-47323900D01*
X156587181Y-47323900D01*
X156512681Y-47303938D01*
X156462078Y-47255833D01*
X156458727Y-47250653D01*
X156348805Y-47080739D01*
X156182746Y-46898242D01*
X155989110Y-46745318D01*
X155983757Y-46742363D01*
X155983754Y-46742361D01*
X155881104Y-46685695D01*
X155773098Y-46626073D01*
X155540510Y-46543709D01*
X155534495Y-46542638D01*
X155534493Y-46542637D01*
X155443147Y-46526366D01*
X155297594Y-46500439D01*
X155291481Y-46500364D01*
X155291478Y-46500364D01*
X155187554Y-46499095D01*
X155050872Y-46497425D01*
X155024163Y-46501512D01*
X154813007Y-46533823D01*
X154813004Y-46533824D01*
X154806970Y-46534747D01*
X154572440Y-46611403D01*
X154353579Y-46725335D01*
X154156264Y-46873483D01*
X154152040Y-46877903D01*
X154152039Y-46877904D01*
X153990023Y-47047444D01*
X153990019Y-47047448D01*
X153985796Y-47051868D01*
X153982349Y-47056920D01*
X153982349Y-47056921D01*
X153962600Y-47085872D01*
X153846751Y-47255700D01*
X153742865Y-47479504D01*
X153676926Y-47717271D01*
X153650706Y-47962614D01*
X153664910Y-48208945D01*
X153719155Y-48449649D01*
X153811984Y-48678261D01*
X153815178Y-48683473D01*
X153915263Y-48846795D01*
X153940906Y-48888641D01*
X153944909Y-48893262D01*
X153944911Y-48893265D01*
X153975645Y-48928745D01*
X154102457Y-49075141D01*
X154107168Y-49079053D01*
X154107172Y-49079056D01*
X154209185Y-49163748D01*
X154292299Y-49232751D01*
X154505333Y-49357238D01*
X154511033Y-49359415D01*
X154511036Y-49359416D01*
X154730134Y-49443081D01*
X154730140Y-49443083D01*
X154735839Y-49445259D01*
X154741820Y-49446476D01*
X154741824Y-49446477D01*
X154830598Y-49464538D01*
X154977626Y-49494452D01*
X154983735Y-49494676D01*
X155218083Y-49503269D01*
X155218087Y-49503269D01*
X155224200Y-49503493D01*
X155468941Y-49472141D01*
X155623478Y-49425778D01*
X155699422Y-49402994D01*
X155699426Y-49402993D01*
X155705274Y-49401238D01*
X155926854Y-49292687D01*
X156127729Y-49149404D01*
X156302505Y-48975237D01*
X156364731Y-48888641D01*
X156442921Y-48779827D01*
X156446488Y-48774863D01*
X156454882Y-48757879D01*
X156505788Y-48699937D01*
X156578845Y-48675210D01*
X156588457Y-48674900D01*
X159195881Y-48674900D01*
X159270381Y-48694862D01*
X159301240Y-48718541D01*
X160062859Y-49480160D01*
X160101423Y-49546955D01*
X160106500Y-49585519D01*
X160106500Y-56141481D01*
X160086538Y-56215981D01*
X160062859Y-56246840D01*
X159580640Y-56729059D01*
X159513845Y-56767623D01*
X159475281Y-56772700D01*
X158792005Y-56772700D01*
X158717505Y-56752738D01*
X158669951Y-56709163D01*
X158656380Y-56689782D01*
X158621320Y-56639711D01*
X158466289Y-56484680D01*
X158344497Y-56399400D01*
X158292025Y-56362658D01*
X158292021Y-56362656D01*
X158286693Y-56358925D01*
X158188721Y-56313240D01*
X158129637Y-56263663D01*
X158103258Y-56191186D01*
X158116651Y-56115230D01*
X158166228Y-56056146D01*
X158188721Y-56043160D01*
X158250223Y-56014481D01*
X158286693Y-55997475D01*
X158292021Y-55993744D01*
X158292025Y-55993742D01*
X158369067Y-55939796D01*
X158466289Y-55871720D01*
X158621320Y-55716689D01*
X158689396Y-55619467D01*
X158743342Y-55542425D01*
X158743344Y-55542421D01*
X158747075Y-55537093D01*
X158839732Y-55338388D01*
X158841415Y-55332107D01*
X158894795Y-55132891D01*
X158894796Y-55132886D01*
X158896477Y-55126612D01*
X158915586Y-54908200D01*
X158896477Y-54689788D01*
X158839732Y-54478012D01*
X158747075Y-54279307D01*
X158743344Y-54273979D01*
X158743342Y-54273975D01*
X158668555Y-54167169D01*
X158621320Y-54099711D01*
X158466289Y-53944680D01*
X158396837Y-53896049D01*
X158347260Y-53836965D01*
X158333300Y-53773995D01*
X158333300Y-53502405D01*
X158353262Y-53427905D01*
X158396837Y-53380351D01*
X158460963Y-53335449D01*
X158466289Y-53331720D01*
X158621320Y-53176689D01*
X158700463Y-53063662D01*
X158743342Y-53002425D01*
X158743344Y-53002421D01*
X158747075Y-52997093D01*
X158839732Y-52798388D01*
X158896477Y-52586612D01*
X158915586Y-52368200D01*
X158904058Y-52236436D01*
X158897044Y-52156264D01*
X158897043Y-52156259D01*
X158896477Y-52149788D01*
X158892215Y-52133880D01*
X158841415Y-51944293D01*
X158839732Y-51938012D01*
X158747075Y-51739307D01*
X158743344Y-51733979D01*
X158743342Y-51733975D01*
X158669951Y-51629163D01*
X158621320Y-51559711D01*
X158466289Y-51404680D01*
X158369067Y-51336604D01*
X158292025Y-51282658D01*
X158292021Y-51282656D01*
X158286693Y-51278925D01*
X158087988Y-51186268D01*
X158035351Y-51172164D01*
X157882491Y-51131205D01*
X157882486Y-51131204D01*
X157876212Y-51129523D01*
X157869741Y-51128957D01*
X157869736Y-51128956D01*
X157664281Y-51110981D01*
X157657800Y-51110414D01*
X157651319Y-51110981D01*
X157445864Y-51128956D01*
X157445859Y-51128957D01*
X157439388Y-51129523D01*
X157433114Y-51131204D01*
X157433109Y-51131205D01*
X157280249Y-51172164D01*
X157227612Y-51186268D01*
X157028907Y-51278925D01*
X157023579Y-51282656D01*
X157023575Y-51282658D01*
X156946533Y-51336604D01*
X156849311Y-51404680D01*
X156694280Y-51559711D01*
X156659220Y-51609782D01*
X156645649Y-51629163D01*
X156586565Y-51678740D01*
X156523595Y-51692700D01*
X151172005Y-51692700D01*
X151097505Y-51672738D01*
X151049951Y-51629163D01*
X151036380Y-51609782D01*
X151001320Y-51559711D01*
X150846289Y-51404680D01*
X150749067Y-51336604D01*
X150672025Y-51282658D01*
X150672021Y-51282656D01*
X150666693Y-51278925D01*
X150467988Y-51186268D01*
X150415351Y-51172164D01*
X150262491Y-51131205D01*
X150262486Y-51131204D01*
X150256212Y-51129523D01*
X150249741Y-51128957D01*
X150249736Y-51128956D01*
X150044281Y-51110981D01*
X150037800Y-51110414D01*
X149828866Y-51128694D01*
X149752911Y-51115301D01*
X149710522Y-51085620D01*
X149309141Y-50684240D01*
X149270577Y-50617445D01*
X149265500Y-50578881D01*
X149265500Y-49826819D01*
X149285462Y-49752319D01*
X149309141Y-49721460D01*
X149540648Y-49489953D01*
X149607443Y-49451389D01*
X149675713Y-49449303D01*
X149779330Y-49470384D01*
X149897626Y-49494452D01*
X149903735Y-49494676D01*
X150138083Y-49503269D01*
X150138087Y-49503269D01*
X150144200Y-49503493D01*
X150388941Y-49472141D01*
X150543478Y-49425778D01*
X150619422Y-49402994D01*
X150619426Y-49402993D01*
X150625274Y-49401238D01*
X150846854Y-49292687D01*
X151047729Y-49149404D01*
X151222505Y-48975237D01*
X151284731Y-48888641D01*
X151362921Y-48779827D01*
X151366488Y-48774863D01*
X151475811Y-48553664D01*
X151547539Y-48317580D01*
X151579745Y-48072950D01*
X151581543Y-47999400D01*
X151561325Y-47753489D01*
X151550749Y-47711381D01*
X151502705Y-47520111D01*
X151501216Y-47514183D01*
X151495261Y-47500486D01*
X151427994Y-47345785D01*
X151402828Y-47287907D01*
X151268805Y-47080739D01*
X151102746Y-46898242D01*
X150909110Y-46745318D01*
X150903757Y-46742363D01*
X150903754Y-46742361D01*
X150801104Y-46685695D01*
X150693098Y-46626073D01*
X150460510Y-46543709D01*
X150454495Y-46542638D01*
X150454493Y-46542637D01*
X150363147Y-46526366D01*
X150217594Y-46500439D01*
X150211481Y-46500364D01*
X150211478Y-46500364D01*
X150107554Y-46499095D01*
X149970872Y-46497425D01*
X149944163Y-46501512D01*
X149733007Y-46533823D01*
X149733004Y-46533824D01*
X149726970Y-46534747D01*
X149492440Y-46611403D01*
X149273579Y-46725335D01*
X149076264Y-46873483D01*
X149072040Y-46877903D01*
X149072039Y-46877904D01*
X148910023Y-47047444D01*
X148910019Y-47047448D01*
X148905796Y-47051868D01*
X148902349Y-47056920D01*
X148902349Y-47056921D01*
X148882600Y-47085872D01*
X148766751Y-47255700D01*
X148662865Y-47479504D01*
X148596926Y-47717271D01*
X148570706Y-47962614D01*
X148584910Y-48208945D01*
X148610711Y-48323430D01*
X148626847Y-48395032D01*
X148623751Y-48472098D01*
X148586851Y-48533148D01*
X148132539Y-48987460D01*
X148125129Y-48994382D01*
X148084319Y-49029983D01*
X148072131Y-49047324D01*
X148049726Y-49079203D01*
X148045084Y-49085454D01*
X148041051Y-49090598D01*
X148013497Y-49125738D01*
X148013495Y-49125741D01*
X148007958Y-49132803D01*
X148004263Y-49140986D01*
X147999671Y-49148570D01*
X147995476Y-49156394D01*
X147990307Y-49163748D01*
X147972903Y-49208387D01*
X147968452Y-49219804D01*
X147965429Y-49226994D01*
X147944862Y-49272546D01*
X147940677Y-49281814D01*
X147939040Y-49290649D01*
X147936385Y-49299121D01*
X147934181Y-49307704D01*
X147930917Y-49316076D01*
X147929745Y-49324981D01*
X147923063Y-49375729D01*
X147921843Y-49383431D01*
X147913995Y-49425778D01*
X147910882Y-49442574D01*
X147911399Y-49451541D01*
X147911399Y-49451542D01*
X147914253Y-49501034D01*
X147914500Y-49509612D01*
X147914500Y-50891854D01*
X147914155Y-50901987D01*
X147910472Y-50956013D01*
X147912017Y-50964865D01*
X147920813Y-51015263D01*
X147921952Y-51022976D01*
X147929181Y-51082713D01*
X147932357Y-51091118D01*
X147934475Y-51099739D01*
X147937036Y-51108224D01*
X147938581Y-51117075D01*
X147962773Y-51172186D01*
X147965708Y-51179379D01*
X147986973Y-51235655D01*
X147992066Y-51243065D01*
X147996170Y-51250915D01*
X148000685Y-51258549D01*
X148004299Y-51266783D01*
X148009772Y-51273915D01*
X148009774Y-51273919D01*
X148040916Y-51314505D01*
X148045500Y-51320814D01*
X148074489Y-51362992D01*
X148074492Y-51362995D01*
X148079579Y-51370397D01*
X148086284Y-51376371D01*
X148086285Y-51376372D01*
X148123300Y-51409351D01*
X148129540Y-51415241D01*
X148755220Y-52040921D01*
X148793784Y-52107716D01*
X148798294Y-52159265D01*
X148780014Y-52368200D01*
X148799123Y-52586612D01*
X148855868Y-52798388D01*
X148948525Y-52997093D01*
X148952256Y-53002421D01*
X148952258Y-53002425D01*
X148995137Y-53063662D01*
X149074280Y-53176689D01*
X149090232Y-53192641D01*
X149128796Y-53259436D01*
X149128796Y-53336564D01*
X149090232Y-53403359D01*
X149023437Y-53441923D01*
X148984873Y-53447000D01*
X148206760Y-53447000D01*
X148132260Y-53427038D01*
X148101401Y-53403359D01*
X147732641Y-53034599D01*
X147694077Y-52967804D01*
X147689000Y-52929240D01*
X147689000Y-52243618D01*
X147672221Y-52159267D01*
X147667171Y-52133880D01*
X147667170Y-52133877D01*
X147665743Y-52126703D01*
X147655052Y-52100894D01*
X147650989Y-52094813D01*
X147650986Y-52094808D01*
X147592897Y-52007875D01*
X147588830Y-52001788D01*
X146399141Y-50812099D01*
X146360577Y-50745304D01*
X146355500Y-50706740D01*
X146355500Y-47670506D01*
X146335220Y-47561053D01*
X146325850Y-47536636D01*
X146267706Y-47441720D01*
X145716451Y-46829214D01*
X145706087Y-46818255D01*
X145613667Y-46754510D01*
X145586537Y-46742427D01*
X145572604Y-46736630D01*
X145462245Y-46716000D01*
X142886696Y-46716000D01*
X142880991Y-46716892D01*
X142880989Y-46716892D01*
X142803480Y-46729009D01*
X142793456Y-46730576D01*
X142772242Y-46737375D01*
X142767075Y-46739969D01*
X142767074Y-46739969D01*
X142748867Y-46749108D01*
X142687914Y-46779703D01*
X141823717Y-47396986D01*
X141822545Y-47397899D01*
X141822531Y-47397909D01*
X141820222Y-47399707D01*
X141803809Y-47412487D01*
X141799215Y-47416379D01*
X141775742Y-47438496D01*
X141714448Y-47532559D01*
X141703757Y-47558368D01*
X141680500Y-47675283D01*
X141680500Y-51512904D01*
X141680814Y-51526755D01*
X141680964Y-51530060D01*
X141682625Y-51550887D01*
X141685026Y-51558689D01*
X141685027Y-51558694D01*
X141713622Y-51651609D01*
X141715648Y-51658191D01*
X141728631Y-51682926D01*
X141803557Y-51775636D01*
X141809179Y-51780321D01*
X143090116Y-52847769D01*
X143150888Y-52898412D01*
X143195340Y-52961441D01*
X143204500Y-53012877D01*
X143204500Y-55264333D01*
X143220177Y-55360941D01*
X143227477Y-55382841D01*
X143272900Y-55469533D01*
X143276493Y-55474324D01*
X143276497Y-55474330D01*
X143410336Y-55652781D01*
X143634716Y-55951955D01*
X143780908Y-56146877D01*
X143826150Y-56207200D01*
X143826991Y-56208242D01*
X143838949Y-56223059D01*
X143838968Y-56223082D01*
X143839781Y-56224089D01*
X143843172Y-56227998D01*
X143862963Y-56248758D01*
X143957026Y-56310052D01*
X143970519Y-56315641D01*
X143976072Y-56317942D01*
X143976076Y-56317943D01*
X143982835Y-56320743D01*
X143990009Y-56322170D01*
X143990012Y-56322171D01*
X144033860Y-56330893D01*
X144099750Y-56344000D01*
X149010273Y-56344000D01*
X149084773Y-56363962D01*
X149139311Y-56418500D01*
X149159273Y-56493000D01*
X149139311Y-56567500D01*
X149115632Y-56598359D01*
X149074280Y-56639711D01*
X149025649Y-56709163D01*
X148952258Y-56813975D01*
X148952256Y-56813979D01*
X148948525Y-56819307D01*
X148855868Y-57018012D01*
X148854185Y-57024293D01*
X148820880Y-57148591D01*
X148799123Y-57229788D01*
X148780014Y-57448200D01*
X148780581Y-57454681D01*
X148794719Y-57616273D01*
X148799123Y-57666612D01*
X148800804Y-57672886D01*
X148800805Y-57672891D01*
X148819302Y-57741923D01*
X148855868Y-57878388D01*
X148948525Y-58077093D01*
X148952256Y-58082421D01*
X148952258Y-58082425D01*
X149006204Y-58159467D01*
X149074280Y-58256689D01*
X149229311Y-58411720D01*
X149326533Y-58479796D01*
X149403575Y-58533742D01*
X149403579Y-58533744D01*
X149408907Y-58537475D01*
X149607612Y-58630132D01*
X149613893Y-58631815D01*
X149813109Y-58685195D01*
X149813114Y-58685196D01*
X149819388Y-58686877D01*
X149825859Y-58687443D01*
X149825864Y-58687444D01*
X150031319Y-58705419D01*
X150037800Y-58705986D01*
X150044281Y-58705419D01*
X150249736Y-58687444D01*
X150249741Y-58687443D01*
X150256212Y-58686877D01*
X150262486Y-58685196D01*
X150262491Y-58685195D01*
X150461707Y-58631815D01*
X150467988Y-58630132D01*
X150666693Y-58537475D01*
X150672021Y-58533744D01*
X150672025Y-58533742D01*
X150749067Y-58479796D01*
X150846289Y-58411720D01*
X151001320Y-58256689D01*
X151127075Y-58077093D01*
X151170144Y-57984730D01*
X151219721Y-57925646D01*
X151292198Y-57899267D01*
X151305184Y-57898700D01*
X152699879Y-57898700D01*
X152774379Y-57918662D01*
X152805238Y-57942341D01*
X154115659Y-59252762D01*
X154154223Y-59319557D01*
X154159300Y-59358121D01*
X154159300Y-62180162D01*
X154139338Y-62254662D01*
X154086483Y-62308213D01*
X153966042Y-62379868D01*
X153966033Y-62379874D01*
X153960171Y-62383362D01*
X153878462Y-62455019D01*
X153823684Y-62503058D01*
X153808105Y-62516720D01*
X153803878Y-62522082D01*
X153803877Y-62522083D01*
X153696696Y-62658043D01*
X153682889Y-62675557D01*
X153588714Y-62854553D01*
X153528737Y-63047713D01*
X153527934Y-63054496D01*
X153527934Y-63054497D01*
X153515741Y-63157519D01*
X153504964Y-63248569D01*
X153508981Y-63309854D01*
X153510364Y-63330952D01*
X153518192Y-63450394D01*
X153567978Y-63646428D01*
X153570836Y-63652628D01*
X153570838Y-63652633D01*
X153630379Y-63781785D01*
X153652656Y-63830107D01*
X153769388Y-63995280D01*
X153819168Y-64043773D01*
X153858602Y-64110055D01*
X153859612Y-64187176D01*
X153821926Y-64254470D01*
X153755641Y-64293906D01*
X153715196Y-64299500D01*
X137498322Y-64299500D01*
X137423822Y-64279538D01*
X137392963Y-64255859D01*
X136876901Y-63739798D01*
X136838337Y-63673003D01*
X136833260Y-63634439D01*
X136833260Y-62017500D01*
X136853222Y-61943000D01*
X136907760Y-61888462D01*
X136982260Y-61868500D01*
X137682940Y-61868500D01*
X137757440Y-61888462D01*
X137788299Y-61912141D01*
X138457288Y-62581130D01*
X138463375Y-62585197D01*
X138550308Y-62643286D01*
X138550313Y-62643289D01*
X138556394Y-62647352D01*
X138563156Y-62650153D01*
X138575440Y-62655242D01*
X138575444Y-62655243D01*
X138582203Y-62658043D01*
X138589377Y-62659470D01*
X138589380Y-62659471D01*
X138640249Y-62669590D01*
X138699118Y-62681300D01*
X141594540Y-62681300D01*
X141669040Y-62701262D01*
X141699899Y-62724941D01*
X142521288Y-63546330D01*
X142527375Y-63550397D01*
X142614308Y-63608486D01*
X142614313Y-63608489D01*
X142620394Y-63612552D01*
X142627156Y-63615353D01*
X142639440Y-63620442D01*
X142639444Y-63620443D01*
X142646203Y-63623243D01*
X142653377Y-63624670D01*
X142653380Y-63624671D01*
X142702486Y-63634439D01*
X142763118Y-63646500D01*
X146239194Y-63646500D01*
X146348647Y-63626220D01*
X146373064Y-63616850D01*
X146467980Y-63558706D01*
X146953486Y-63121751D01*
X146964445Y-63111387D01*
X147028190Y-63018967D01*
X147040273Y-62991837D01*
X147046070Y-62977904D01*
X147066700Y-62867545D01*
X147066700Y-60816118D01*
X147054990Y-60757249D01*
X147044871Y-60706380D01*
X147044870Y-60706377D01*
X147043443Y-60699203D01*
X147032752Y-60673394D01*
X147028689Y-60667313D01*
X147028686Y-60667308D01*
X146970597Y-60580375D01*
X146966530Y-60574288D01*
X146530712Y-60138470D01*
X146496813Y-60115819D01*
X146437692Y-60076314D01*
X146437687Y-60076311D01*
X146431606Y-60072248D01*
X146423475Y-60068880D01*
X146412560Y-60064358D01*
X146412556Y-60064357D01*
X146405797Y-60061557D01*
X146398623Y-60060130D01*
X146398620Y-60060129D01*
X146347751Y-60050010D01*
X146288882Y-60038300D01*
X141936214Y-60038300D01*
X141861714Y-60018338D01*
X141845914Y-60007819D01*
X141281802Y-59578020D01*
X140910946Y-59295463D01*
X140823506Y-59249013D01*
X140817765Y-59247075D01*
X140817760Y-59247073D01*
X140807139Y-59243488D01*
X140807136Y-59243487D01*
X140801385Y-59241546D01*
X140795392Y-59240562D01*
X140795389Y-59240561D01*
X140752532Y-59233523D01*
X140703679Y-59225500D01*
X138335430Y-59225500D01*
X138260930Y-59205538D01*
X138242350Y-59192849D01*
X138225928Y-59179711D01*
X137868841Y-58894042D01*
X137779118Y-58844319D01*
X137773186Y-58842238D01*
X137773181Y-58842236D01*
X137762250Y-58838402D01*
X137762248Y-58838402D01*
X137756317Y-58836321D01*
X137750121Y-58835266D01*
X137750118Y-58835265D01*
X137661392Y-58820155D01*
X137661390Y-58820155D01*
X137655196Y-58819100D01*
X135143118Y-58819100D01*
X135084249Y-58830810D01*
X135033380Y-58840929D01*
X135033377Y-58840930D01*
X135026203Y-58842357D01*
X135019444Y-58845157D01*
X135019440Y-58845158D01*
X135014101Y-58847370D01*
X135000394Y-58853048D01*
X134994313Y-58857111D01*
X134994308Y-58857114D01*
X134935850Y-58896176D01*
X134901288Y-58919270D01*
X134465470Y-59355088D01*
X134461403Y-59361175D01*
X134403314Y-59448108D01*
X134403311Y-59448113D01*
X134399248Y-59454194D01*
X134388557Y-59480003D01*
X134387130Y-59487179D01*
X134378096Y-59532591D01*
X134343982Y-59601764D01*
X134279851Y-59644613D01*
X134231959Y-59652520D01*
X129776140Y-59652520D01*
X129701640Y-59632558D01*
X129647102Y-59578020D01*
X129627140Y-59503520D01*
X129627140Y-58658314D01*
X129624022Y-58632114D01*
X129578579Y-58529807D01*
X129499353Y-58450719D01*
X129486773Y-58445157D01*
X129486771Y-58445156D01*
X129407214Y-58409984D01*
X129407213Y-58409984D01*
X129396967Y-58405454D01*
X129382322Y-58403747D01*
X129375570Y-58402959D01*
X129375562Y-58402959D01*
X129371286Y-58402460D01*
X125781874Y-58402460D01*
X125755674Y-58405578D01*
X125653367Y-58451021D01*
X125574279Y-58530247D01*
X125529014Y-58632633D01*
X125526020Y-58658314D01*
X125526020Y-62247726D01*
X124500000Y-62247726D01*
X124500000Y-44649000D01*
X124519962Y-44574500D01*
X124574500Y-44519962D01*
X124649000Y-44500000D01*
X176351000Y-44500000D01*
X176425500Y-44519962D01*
G37*
%TD.AperFunction*%
%TD*%
%TA.AperFunction,Conductor*%
%TO.N,Vout1*%
G36*
X137677997Y-59132598D02*
G01*
X138171145Y-59527116D01*
X138176000Y-59531000D01*
X140703679Y-59531000D01*
X140725800Y-59538467D01*
X141778031Y-60340167D01*
X141778032Y-60340167D01*
X141782800Y-60343800D01*
X146288882Y-60343800D01*
X146314691Y-60354491D01*
X146750509Y-60790309D01*
X146761200Y-60816118D01*
X146761200Y-62867545D01*
X146749117Y-62894675D01*
X146263611Y-63331630D01*
X146239194Y-63341000D01*
X142763118Y-63341000D01*
X142737309Y-63330309D01*
X141782800Y-62375800D01*
X138699118Y-62375800D01*
X138673309Y-62365109D01*
X137871200Y-61563000D01*
X135193918Y-61563000D01*
X135168109Y-61552309D01*
X134681491Y-61065691D01*
X134670800Y-61039882D01*
X134670800Y-59596918D01*
X134681491Y-59571109D01*
X135117309Y-59135291D01*
X135143118Y-59124600D01*
X137655196Y-59124600D01*
X137677997Y-59132598D01*
G37*
%TD.AperFunction*%
%TD*%
%TA.AperFunction,Conductor*%
%TO.N,Net-(D1-Pad1)*%
G36*
X145489375Y-47033583D02*
G01*
X146040630Y-47646089D01*
X146050000Y-47670506D01*
X146050000Y-50895000D01*
X147372809Y-52217809D01*
X147383500Y-52243618D01*
X147383500Y-53117500D01*
X148018500Y-53752500D01*
X150733882Y-53752500D01*
X150759691Y-53763191D01*
X151246309Y-54249809D01*
X151257000Y-54275618D01*
X151257000Y-55637965D01*
X151246309Y-55663774D01*
X151240747Y-55668335D01*
X150694695Y-56032370D01*
X150674448Y-56038500D01*
X144099750Y-56038500D01*
X144073941Y-56027809D01*
X144070550Y-56023900D01*
X143879116Y-55768655D01*
X149427840Y-55768655D01*
X149429478Y-55772609D01*
X149432857Y-55775484D01*
X149435773Y-55777511D01*
X149612840Y-55876470D01*
X149616087Y-55877889D01*
X149809003Y-55940572D01*
X149812468Y-55941333D01*
X150013876Y-55965349D01*
X150017434Y-55965424D01*
X150219660Y-55949864D01*
X150223177Y-55949244D01*
X150418526Y-55894701D01*
X150421852Y-55893411D01*
X150602886Y-55801964D01*
X150605899Y-55800052D01*
X150642993Y-55771070D01*
X150645729Y-55766235D01*
X150644724Y-55762611D01*
X150042934Y-55160821D01*
X150037800Y-55158694D01*
X150032666Y-55160821D01*
X149429967Y-55763521D01*
X149427840Y-55768655D01*
X143879116Y-55768655D01*
X143517300Y-55286233D01*
X143510000Y-55264333D01*
X143510000Y-54914956D01*
X144442079Y-54914956D01*
X144443308Y-54917922D01*
X144583872Y-55016345D01*
X144586629Y-55017937D01*
X144797774Y-55116395D01*
X144800760Y-55117482D01*
X145025797Y-55177781D01*
X145028921Y-55178332D01*
X145261011Y-55198637D01*
X145264189Y-55198637D01*
X145496279Y-55178332D01*
X145499403Y-55177781D01*
X145724440Y-55117482D01*
X145727426Y-55116395D01*
X145938571Y-55017937D01*
X145941328Y-55016345D01*
X146080180Y-54919121D01*
X146083166Y-54914434D01*
X146082471Y-54911299D01*
X146066379Y-54895207D01*
X148980459Y-54895207D01*
X148997433Y-55097340D01*
X148998073Y-55100829D01*
X149053983Y-55295811D01*
X149055290Y-55299111D01*
X149148008Y-55479520D01*
X149149931Y-55482505D01*
X149174637Y-55513676D01*
X149179491Y-55516378D01*
X149183186Y-55515326D01*
X149785179Y-54913334D01*
X149787306Y-54908200D01*
X150288294Y-54908200D01*
X150290421Y-54913334D01*
X150893589Y-55516501D01*
X150897994Y-55518326D01*
X150903038Y-55516017D01*
X151003080Y-55339909D01*
X151004522Y-55336671D01*
X151068548Y-55144202D01*
X151069335Y-55140737D01*
X151094853Y-54938740D01*
X151094995Y-54936709D01*
X151095379Y-54909221D01*
X151095294Y-54907190D01*
X151075425Y-54704558D01*
X151074734Y-54701066D01*
X151016109Y-54506893D01*
X151014756Y-54503608D01*
X150919529Y-54324511D01*
X150917564Y-54321554D01*
X150901654Y-54302048D01*
X150896762Y-54299414D01*
X150892922Y-54300566D01*
X150290421Y-54903066D01*
X150288294Y-54908200D01*
X149787306Y-54908200D01*
X149785179Y-54903066D01*
X149182911Y-54300799D01*
X149177777Y-54298672D01*
X149173909Y-54300275D01*
X149166315Y-54309325D01*
X149164305Y-54312262D01*
X149066593Y-54489999D01*
X149065187Y-54493279D01*
X149003857Y-54686616D01*
X149003120Y-54690080D01*
X148980508Y-54891669D01*
X148980459Y-54895207D01*
X146066379Y-54895207D01*
X145267734Y-54096561D01*
X145262600Y-54094434D01*
X145257466Y-54096561D01*
X144444206Y-54909822D01*
X144442079Y-54914956D01*
X143510000Y-54914956D01*
X143510000Y-53845529D01*
X143907903Y-53845529D01*
X143928208Y-54077619D01*
X143928759Y-54080743D01*
X143989058Y-54305780D01*
X143990145Y-54308766D01*
X144088603Y-54519911D01*
X144090195Y-54522668D01*
X144187419Y-54661520D01*
X144192106Y-54664506D01*
X144195241Y-54663811D01*
X145009979Y-53849074D01*
X145012106Y-53843940D01*
X145513094Y-53843940D01*
X145515221Y-53849074D01*
X146328482Y-54662334D01*
X146333616Y-54664461D01*
X146336582Y-54663232D01*
X146435005Y-54522668D01*
X146436597Y-54519911D01*
X146535055Y-54308766D01*
X146536142Y-54305780D01*
X146596441Y-54080743D01*
X146596992Y-54077619D01*
X146599445Y-54049583D01*
X149429336Y-54049583D01*
X149430437Y-54053349D01*
X150032666Y-54655579D01*
X150037800Y-54657706D01*
X150042934Y-54655579D01*
X150644805Y-54053707D01*
X150646932Y-54048573D01*
X150645364Y-54044788D01*
X150630580Y-54032559D01*
X150627623Y-54030564D01*
X150449203Y-53934092D01*
X150445932Y-53932717D01*
X150252163Y-53872735D01*
X150248683Y-53872021D01*
X150046957Y-53850819D01*
X150043408Y-53850795D01*
X149841402Y-53869179D01*
X149837916Y-53869843D01*
X149643330Y-53927114D01*
X149640037Y-53928444D01*
X149460287Y-54022415D01*
X149457309Y-54024363D01*
X149432005Y-54044708D01*
X149429336Y-54049583D01*
X146599445Y-54049583D01*
X146617297Y-53845529D01*
X146617297Y-53842351D01*
X146596992Y-53610261D01*
X146596441Y-53607137D01*
X146536142Y-53382100D01*
X146535055Y-53379114D01*
X146436597Y-53167969D01*
X146435005Y-53165212D01*
X146337781Y-53026360D01*
X146333094Y-53023374D01*
X146329959Y-53024069D01*
X145515221Y-53838806D01*
X145513094Y-53843940D01*
X145012106Y-53843940D01*
X145009979Y-53838806D01*
X144196718Y-53025546D01*
X144191584Y-53023419D01*
X144188618Y-53024648D01*
X144090195Y-53165212D01*
X144088603Y-53167969D01*
X143990145Y-53379114D01*
X143989058Y-53382100D01*
X143928759Y-53607137D01*
X143928208Y-53610261D01*
X143907903Y-53842351D01*
X143907903Y-53845529D01*
X143510000Y-53845529D01*
X143510000Y-52800000D01*
X143478135Y-52773446D01*
X144442034Y-52773446D01*
X144442729Y-52776581D01*
X145257466Y-53591319D01*
X145262600Y-53593446D01*
X145267734Y-53591319D01*
X146080994Y-52778058D01*
X146083121Y-52772924D01*
X146081892Y-52769958D01*
X145941328Y-52671535D01*
X145938571Y-52669943D01*
X145727426Y-52571485D01*
X145724440Y-52570398D01*
X145499403Y-52510099D01*
X145496279Y-52509548D01*
X145264189Y-52489243D01*
X145261011Y-52489243D01*
X145028921Y-52509548D01*
X145025797Y-52510099D01*
X144800760Y-52570398D01*
X144797774Y-52571485D01*
X144586629Y-52669943D01*
X144583872Y-52671535D01*
X144445020Y-52768759D01*
X144442034Y-52773446D01*
X143478135Y-52773446D01*
X141999133Y-51540944D01*
X141986150Y-51516209D01*
X141986000Y-51512904D01*
X141986000Y-50804458D01*
X142477361Y-50804458D01*
X142477710Y-50808003D01*
X142482461Y-50831892D01*
X142485159Y-50838407D01*
X142503268Y-50865509D01*
X142508251Y-50870492D01*
X142535356Y-50888603D01*
X142541863Y-50891298D01*
X142565759Y-50896052D01*
X142569299Y-50896400D01*
X143795100Y-50896400D01*
X143800233Y-50894273D01*
X143802360Y-50889140D01*
X143802360Y-50889139D01*
X144152360Y-50889139D01*
X144154487Y-50894272D01*
X144159620Y-50896399D01*
X145385418Y-50896399D01*
X145388963Y-50896050D01*
X145412852Y-50891299D01*
X145419367Y-50888601D01*
X145446469Y-50870492D01*
X145451452Y-50865509D01*
X145469563Y-50838404D01*
X145472258Y-50831897D01*
X145477012Y-50808001D01*
X145477360Y-50804461D01*
X145477360Y-49578660D01*
X145475233Y-49573527D01*
X145470100Y-49571400D01*
X144159620Y-49571400D01*
X144154487Y-49573527D01*
X144152360Y-49578660D01*
X144152360Y-50889139D01*
X143802360Y-50889139D01*
X143802360Y-49578660D01*
X143800233Y-49573527D01*
X143795100Y-49571400D01*
X142484621Y-49571400D01*
X142479488Y-49573527D01*
X142477361Y-49578660D01*
X142477361Y-50804458D01*
X141986000Y-50804458D01*
X141986000Y-49214140D01*
X142477360Y-49214140D01*
X142479487Y-49219273D01*
X142484620Y-49221400D01*
X143795100Y-49221400D01*
X143800233Y-49219273D01*
X143802360Y-49214140D01*
X144152360Y-49214140D01*
X144154487Y-49219273D01*
X144159620Y-49221400D01*
X145470099Y-49221400D01*
X145475232Y-49219273D01*
X145477359Y-49214140D01*
X145477359Y-47988342D01*
X145477010Y-47984797D01*
X145472259Y-47960908D01*
X145469561Y-47954393D01*
X145451452Y-47927291D01*
X145446469Y-47922308D01*
X145419364Y-47904197D01*
X145412857Y-47901502D01*
X145388961Y-47896748D01*
X145385421Y-47896400D01*
X144159620Y-47896400D01*
X144154487Y-47898527D01*
X144152360Y-47903660D01*
X144152360Y-49214140D01*
X143802360Y-49214140D01*
X143802360Y-47903661D01*
X143800233Y-47898528D01*
X143795100Y-47896401D01*
X142569302Y-47896401D01*
X142565757Y-47896750D01*
X142541868Y-47901501D01*
X142535353Y-47904199D01*
X142508251Y-47922308D01*
X142503268Y-47927291D01*
X142485157Y-47954396D01*
X142482462Y-47960903D01*
X142477708Y-47984799D01*
X142477360Y-47988339D01*
X142477360Y-49214140D01*
X141986000Y-49214140D01*
X141986000Y-47675283D01*
X141996691Y-47649474D01*
X142001285Y-47645582D01*
X142865482Y-47028299D01*
X142886696Y-47021500D01*
X145462245Y-47021500D01*
X145489375Y-47033583D01*
G37*
%TD.AperFunction*%
%TD*%
M02*
