%TF.GenerationSoftware,KiCad,Pcbnew,(6.0.8)*%
%TF.CreationDate,2022-11-19T23:42:55+04:00*%
%TF.ProjectId,MC34063_Buck,4d433334-3036-4335-9f42-75636b2e6b69,rev?*%
%TF.SameCoordinates,Original*%
%TF.FileFunction,Legend,Top*%
%TF.FilePolarity,Positive*%
%FSLAX46Y46*%
G04 Gerber Fmt 4.6, Leading zero omitted, Abs format (unit mm)*
G04 Created by KiCad (PCBNEW (6.0.8)) date 2022-11-19 23:42:55*
%MOMM*%
%LPD*%
G01*
G04 APERTURE LIST*
%ADD10C,0.150000*%
%ADD11C,0.120000*%
G04 APERTURE END LIST*
D10*
%TO.C,C1*%
X154011333Y-72493142D02*
X153963714Y-72540761D01*
X153820857Y-72588380D01*
X153725619Y-72588380D01*
X153582761Y-72540761D01*
X153487523Y-72445523D01*
X153439904Y-72350285D01*
X153392285Y-72159809D01*
X153392285Y-72016952D01*
X153439904Y-71826476D01*
X153487523Y-71731238D01*
X153582761Y-71636000D01*
X153725619Y-71588380D01*
X153820857Y-71588380D01*
X153963714Y-71636000D01*
X154011333Y-71683619D01*
X154963714Y-72588380D02*
X154392285Y-72588380D01*
X154678000Y-72588380D02*
X154678000Y-71588380D01*
X154582761Y-71731238D01*
X154487523Y-71826476D01*
X154392285Y-71874095D01*
%TO.C,C2*%
X134199333Y-87479142D02*
X134151714Y-87526761D01*
X134008857Y-87574380D01*
X133913619Y-87574380D01*
X133770761Y-87526761D01*
X133675523Y-87431523D01*
X133627904Y-87336285D01*
X133580285Y-87145809D01*
X133580285Y-87002952D01*
X133627904Y-86812476D01*
X133675523Y-86717238D01*
X133770761Y-86622000D01*
X133913619Y-86574380D01*
X134008857Y-86574380D01*
X134151714Y-86622000D01*
X134199333Y-86669619D01*
X134580285Y-86669619D02*
X134627904Y-86622000D01*
X134723142Y-86574380D01*
X134961238Y-86574380D01*
X135056476Y-86622000D01*
X135104095Y-86669619D01*
X135151714Y-86764857D01*
X135151714Y-86860095D01*
X135104095Y-87002952D01*
X134532666Y-87574380D01*
X135151714Y-87574380D01*
%TO.C,C3*%
X114641333Y-71985142D02*
X114593714Y-72032761D01*
X114450857Y-72080380D01*
X114355619Y-72080380D01*
X114212761Y-72032761D01*
X114117523Y-71937523D01*
X114069904Y-71842285D01*
X114022285Y-71651809D01*
X114022285Y-71508952D01*
X114069904Y-71318476D01*
X114117523Y-71223238D01*
X114212761Y-71128000D01*
X114355619Y-71080380D01*
X114450857Y-71080380D01*
X114593714Y-71128000D01*
X114641333Y-71175619D01*
X114974666Y-71080380D02*
X115593714Y-71080380D01*
X115260380Y-71461333D01*
X115403238Y-71461333D01*
X115498476Y-71508952D01*
X115546095Y-71556571D01*
X115593714Y-71651809D01*
X115593714Y-71889904D01*
X115546095Y-71985142D01*
X115498476Y-72032761D01*
X115403238Y-72080380D01*
X115117523Y-72080380D01*
X115022285Y-72032761D01*
X114974666Y-71985142D01*
%TO.C,C4*%
X104125733Y-79300342D02*
X104078114Y-79347961D01*
X103935257Y-79395580D01*
X103840019Y-79395580D01*
X103697161Y-79347961D01*
X103601923Y-79252723D01*
X103554304Y-79157485D01*
X103506685Y-78967009D01*
X103506685Y-78824152D01*
X103554304Y-78633676D01*
X103601923Y-78538438D01*
X103697161Y-78443200D01*
X103840019Y-78395580D01*
X103935257Y-78395580D01*
X104078114Y-78443200D01*
X104125733Y-78490819D01*
X104982876Y-78728914D02*
X104982876Y-79395580D01*
X104744780Y-78347961D02*
X104506685Y-79062247D01*
X105125733Y-79062247D01*
%TO.C,C5*%
X139533333Y-90781142D02*
X139485714Y-90828761D01*
X139342857Y-90876380D01*
X139247619Y-90876380D01*
X139104761Y-90828761D01*
X139009523Y-90733523D01*
X138961904Y-90638285D01*
X138914285Y-90447809D01*
X138914285Y-90304952D01*
X138961904Y-90114476D01*
X139009523Y-90019238D01*
X139104761Y-89924000D01*
X139247619Y-89876380D01*
X139342857Y-89876380D01*
X139485714Y-89924000D01*
X139533333Y-89971619D01*
X140438095Y-89876380D02*
X139961904Y-89876380D01*
X139914285Y-90352571D01*
X139961904Y-90304952D01*
X140057142Y-90257333D01*
X140295238Y-90257333D01*
X140390476Y-90304952D01*
X140438095Y-90352571D01*
X140485714Y-90447809D01*
X140485714Y-90685904D01*
X140438095Y-90781142D01*
X140390476Y-90828761D01*
X140295238Y-90876380D01*
X140057142Y-90876380D01*
X139961904Y-90828761D01*
X139914285Y-90781142D01*
%TO.C,D1*%
X129817904Y-72334380D02*
X129817904Y-71334380D01*
X130056000Y-71334380D01*
X130198857Y-71382000D01*
X130294095Y-71477238D01*
X130341714Y-71572476D01*
X130389333Y-71762952D01*
X130389333Y-71905809D01*
X130341714Y-72096285D01*
X130294095Y-72191523D01*
X130198857Y-72286761D01*
X130056000Y-72334380D01*
X129817904Y-72334380D01*
X131341714Y-72334380D02*
X130770285Y-72334380D01*
X131056000Y-72334380D02*
X131056000Y-71334380D01*
X130960761Y-71477238D01*
X130865523Y-71572476D01*
X130770285Y-71620095D01*
%TO.C,L1*%
X125817333Y-85288380D02*
X125341142Y-85288380D01*
X125341142Y-84288380D01*
X126674476Y-85288380D02*
X126103047Y-85288380D01*
X126388761Y-85288380D02*
X126388761Y-84288380D01*
X126293523Y-84431238D01*
X126198285Y-84526476D01*
X126103047Y-84574095D01*
%TO.C,L2*%
X114577833Y-86050380D02*
X114101642Y-86050380D01*
X114101642Y-85050380D01*
X114863547Y-85145619D02*
X114911166Y-85098000D01*
X115006404Y-85050380D01*
X115244500Y-85050380D01*
X115339738Y-85098000D01*
X115387357Y-85145619D01*
X115434976Y-85240857D01*
X115434976Y-85336095D01*
X115387357Y-85478952D01*
X114815928Y-86050380D01*
X115434976Y-86050380D01*
%TO.C,R1*%
X143343333Y-86050380D02*
X143010000Y-85574190D01*
X142771904Y-86050380D02*
X142771904Y-85050380D01*
X143152857Y-85050380D01*
X143248095Y-85098000D01*
X143295714Y-85145619D01*
X143343333Y-85240857D01*
X143343333Y-85383714D01*
X143295714Y-85478952D01*
X143248095Y-85526571D01*
X143152857Y-85574190D01*
X142771904Y-85574190D01*
X144295714Y-86050380D02*
X143724285Y-86050380D01*
X144010000Y-86050380D02*
X144010000Y-85050380D01*
X143914761Y-85193238D01*
X143819523Y-85288476D01*
X143724285Y-85336095D01*
%TO.C,R2*%
X144613333Y-73604380D02*
X144280000Y-73128190D01*
X144041904Y-73604380D02*
X144041904Y-72604380D01*
X144422857Y-72604380D01*
X144518095Y-72652000D01*
X144565714Y-72699619D01*
X144613333Y-72794857D01*
X144613333Y-72937714D01*
X144565714Y-73032952D01*
X144518095Y-73080571D01*
X144422857Y-73128190D01*
X144041904Y-73128190D01*
X144994285Y-72699619D02*
X145041904Y-72652000D01*
X145137142Y-72604380D01*
X145375238Y-72604380D01*
X145470476Y-72652000D01*
X145518095Y-72699619D01*
X145565714Y-72794857D01*
X145565714Y-72890095D01*
X145518095Y-73032952D01*
X144946666Y-73604380D01*
X145565714Y-73604380D01*
%TO.C,R3*%
X143343333Y-88844380D02*
X143010000Y-88368190D01*
X142771904Y-88844380D02*
X142771904Y-87844380D01*
X143152857Y-87844380D01*
X143248095Y-87892000D01*
X143295714Y-87939619D01*
X143343333Y-88034857D01*
X143343333Y-88177714D01*
X143295714Y-88272952D01*
X143248095Y-88320571D01*
X143152857Y-88368190D01*
X142771904Y-88368190D01*
X143676666Y-87844380D02*
X144295714Y-87844380D01*
X143962380Y-88225333D01*
X144105238Y-88225333D01*
X144200476Y-88272952D01*
X144248095Y-88320571D01*
X144295714Y-88415809D01*
X144295714Y-88653904D01*
X144248095Y-88749142D01*
X144200476Y-88796761D01*
X144105238Y-88844380D01*
X143819523Y-88844380D01*
X143724285Y-88796761D01*
X143676666Y-88749142D01*
%TO.C,U1*%
X135151880Y-79120904D02*
X135961404Y-79120904D01*
X136056642Y-79073285D01*
X136104261Y-79025666D01*
X136151880Y-78930428D01*
X136151880Y-78739952D01*
X136104261Y-78644714D01*
X136056642Y-78597095D01*
X135961404Y-78549476D01*
X135151880Y-78549476D01*
X136151880Y-77549476D02*
X136151880Y-78120904D01*
X136151880Y-77835190D02*
X135151880Y-77835190D01*
X135294738Y-77930428D01*
X135389976Y-78025666D01*
X135437595Y-78120904D01*
%TO.C,C6*%
X143089333Y-84431142D02*
X143041714Y-84478761D01*
X142898857Y-84526380D01*
X142803619Y-84526380D01*
X142660761Y-84478761D01*
X142565523Y-84383523D01*
X142517904Y-84288285D01*
X142470285Y-84097809D01*
X142470285Y-83954952D01*
X142517904Y-83764476D01*
X142565523Y-83669238D01*
X142660761Y-83574000D01*
X142803619Y-83526380D01*
X142898857Y-83526380D01*
X143041714Y-83574000D01*
X143089333Y-83621619D01*
X143946476Y-83526380D02*
X143756000Y-83526380D01*
X143660761Y-83574000D01*
X143613142Y-83621619D01*
X143517904Y-83764476D01*
X143470285Y-83954952D01*
X143470285Y-84335904D01*
X143517904Y-84431142D01*
X143565523Y-84478761D01*
X143660761Y-84526380D01*
X143851238Y-84526380D01*
X143946476Y-84478761D01*
X143994095Y-84431142D01*
X144041714Y-84335904D01*
X144041714Y-84097809D01*
X143994095Y-84002571D01*
X143946476Y-83954952D01*
X143851238Y-83907333D01*
X143660761Y-83907333D01*
X143565523Y-83954952D01*
X143517904Y-84002571D01*
X143470285Y-84097809D01*
%TO.C,Vin*%
X157022380Y-70111809D02*
X158022380Y-69778476D01*
X157022380Y-69445142D01*
X158022380Y-69111809D02*
X157355714Y-69111809D01*
X157022380Y-69111809D02*
X157070000Y-69159428D01*
X157117619Y-69111809D01*
X157070000Y-69064190D01*
X157022380Y-69111809D01*
X157117619Y-69111809D01*
X157355714Y-68635619D02*
X158022380Y-68635619D01*
X157450952Y-68635619D02*
X157403333Y-68588000D01*
X157355714Y-68492761D01*
X157355714Y-68349904D01*
X157403333Y-68254666D01*
X157498571Y-68207047D01*
X158022380Y-68207047D01*
%TO.C,Vout*%
X99771390Y-73315580D02*
X100104723Y-74315580D01*
X100438057Y-73315580D01*
X100914247Y-74315580D02*
X100819009Y-74267961D01*
X100771390Y-74220342D01*
X100723771Y-74125104D01*
X100723771Y-73839390D01*
X100771390Y-73744152D01*
X100819009Y-73696533D01*
X100914247Y-73648914D01*
X101057104Y-73648914D01*
X101152342Y-73696533D01*
X101199961Y-73744152D01*
X101247580Y-73839390D01*
X101247580Y-74125104D01*
X101199961Y-74220342D01*
X101152342Y-74267961D01*
X101057104Y-74315580D01*
X100914247Y-74315580D01*
X102104723Y-73648914D02*
X102104723Y-74315580D01*
X101676152Y-73648914D02*
X101676152Y-74172723D01*
X101723771Y-74267961D01*
X101819009Y-74315580D01*
X101961866Y-74315580D01*
X102057104Y-74267961D01*
X102104723Y-74220342D01*
X102438057Y-73648914D02*
X102819009Y-73648914D01*
X102580914Y-73315580D02*
X102580914Y-74172723D01*
X102628533Y-74267961D01*
X102723771Y-74315580D01*
X102819009Y-74315580D01*
D11*
%TO.C,C1*%
X145514000Y-76288000D02*
X155476000Y-76288000D01*
X145907000Y-75008000D02*
X149314000Y-75008000D01*
X151676000Y-73568000D02*
X154093000Y-73568000D01*
X145716000Y-75488000D02*
X149314000Y-75488000D01*
X151676000Y-74448000D02*
X154783000Y-74448000D01*
X151676000Y-73728000D02*
X154243000Y-73728000D01*
X146025000Y-74768000D02*
X149314000Y-74768000D01*
X146936000Y-73528000D02*
X149314000Y-73528000D01*
X145837000Y-75168000D02*
X149314000Y-75168000D01*
X146897000Y-73568000D02*
X149314000Y-73568000D01*
X151676000Y-74208000D02*
X154625000Y-74208000D01*
X145560000Y-76048000D02*
X155430000Y-76048000D01*
X151676000Y-74168000D02*
X154596000Y-74168000D01*
X151676000Y-74728000D02*
X154944000Y-74728000D01*
X151676000Y-74328000D02*
X154706000Y-74328000D01*
X151676000Y-74608000D02*
X154878000Y-74608000D01*
X146544000Y-73968000D02*
X149314000Y-73968000D01*
X146258000Y-74368000D02*
X149314000Y-74368000D01*
X145447000Y-76969000D02*
X155543000Y-76969000D01*
X145445000Y-77089000D02*
X155545000Y-77089000D01*
X145502000Y-76368000D02*
X155488000Y-76368000D01*
X145569000Y-76008000D02*
X155421000Y-76008000D01*
X151676000Y-74408000D02*
X154758000Y-74408000D01*
X146747000Y-73728000D02*
X149314000Y-73728000D01*
X145496000Y-76408000D02*
X155494000Y-76408000D01*
X146284000Y-74328000D02*
X149314000Y-74328000D01*
X149088000Y-72248000D02*
X151902000Y-72248000D01*
X151676000Y-75088000D02*
X155119000Y-75088000D01*
X146112000Y-74608000D02*
X149314000Y-74608000D01*
X148841000Y-72328000D02*
X152149000Y-72328000D01*
X146576000Y-73928000D02*
X149314000Y-73928000D01*
X147018000Y-73448000D02*
X153972000Y-73448000D01*
X146977000Y-73488000D02*
X149314000Y-73488000D01*
X151676000Y-73968000D02*
X154446000Y-73968000D01*
X151676000Y-74688000D02*
X154923000Y-74688000D01*
X145528000Y-76208000D02*
X155462000Y-76208000D01*
X146452000Y-74088000D02*
X149314000Y-74088000D01*
X145480000Y-76529000D02*
X155510000Y-76529000D01*
X151676000Y-75288000D02*
X155201000Y-75288000D01*
X147337000Y-73168000D02*
X153653000Y-73168000D01*
X151676000Y-74888000D02*
X155026000Y-74888000D01*
X151676000Y-73648000D02*
X154170000Y-73648000D01*
X145773000Y-75328000D02*
X149314000Y-75328000D01*
X145521000Y-76248000D02*
X155469000Y-76248000D01*
X151676000Y-73888000D02*
X154381000Y-73888000D01*
X151676000Y-75808000D02*
X155371000Y-75808000D01*
X145467000Y-76649000D02*
X155523000Y-76649000D01*
X145445000Y-77049000D02*
X155545000Y-77049000D01*
X145578000Y-75968000D02*
X155412000Y-75968000D01*
X147718000Y-72888000D02*
X153272000Y-72888000D01*
X146783000Y-73688000D02*
X149314000Y-73688000D01*
X145926000Y-74968000D02*
X149314000Y-74968000D01*
X151676000Y-74048000D02*
X154508000Y-74048000D01*
X145588000Y-75928000D02*
X155402000Y-75928000D01*
X146482000Y-74048000D02*
X149314000Y-74048000D01*
X145452000Y-76849000D02*
X155538000Y-76849000D01*
X145664000Y-75648000D02*
X149314000Y-75648000D01*
X145552000Y-76088000D02*
X155438000Y-76088000D01*
X145689000Y-75568000D02*
X149314000Y-75568000D01*
X145854000Y-75128000D02*
X149314000Y-75128000D01*
X147601000Y-72968000D02*
X153389000Y-72968000D01*
X151676000Y-74848000D02*
X155006000Y-74848000D01*
X146423000Y-74128000D02*
X149314000Y-74128000D01*
X151676000Y-74528000D02*
X154831000Y-74528000D01*
X146711000Y-73768000D02*
X149314000Y-73768000D01*
X151676000Y-75408000D02*
X155246000Y-75408000D01*
X151676000Y-73608000D02*
X154132000Y-73608000D01*
X148046000Y-72688000D02*
X152944000Y-72688000D01*
X146513000Y-74008000D02*
X149314000Y-74008000D01*
X147438000Y-73088000D02*
X153552000Y-73088000D01*
X145490000Y-76449000D02*
X155500000Y-76449000D01*
X145471000Y-76609000D02*
X155519000Y-76609000D01*
X151676000Y-75208000D02*
X155169000Y-75208000D01*
X145630000Y-75768000D02*
X149314000Y-75768000D01*
X148629000Y-72408000D02*
X152361000Y-72408000D01*
X145641000Y-75728000D02*
X149314000Y-75728000D01*
X146159000Y-74528000D02*
X149314000Y-74528000D01*
X147491000Y-73048000D02*
X153499000Y-73048000D01*
X151676000Y-75568000D02*
X155301000Y-75568000D01*
X147546000Y-73008000D02*
X153444000Y-73008000D01*
X145608000Y-75848000D02*
X155382000Y-75848000D01*
X145703000Y-75528000D02*
X149314000Y-75528000D01*
X151676000Y-73768000D02*
X154279000Y-73768000D01*
X151676000Y-74928000D02*
X155045000Y-74928000D01*
X145448000Y-76929000D02*
X155542000Y-76929000D01*
X145984000Y-74848000D02*
X149314000Y-74848000D01*
X151676000Y-75368000D02*
X155232000Y-75368000D01*
X151676000Y-73688000D02*
X154207000Y-73688000D01*
X147976000Y-72728000D02*
X153014000Y-72728000D01*
X147288000Y-73208000D02*
X153702000Y-73208000D01*
X145889000Y-75048000D02*
X149314000Y-75048000D01*
X151676000Y-75768000D02*
X155360000Y-75768000D01*
X151676000Y-75128000D02*
X155136000Y-75128000D01*
X147387000Y-73128000D02*
X153603000Y-73128000D01*
X146183000Y-74488000D02*
X149314000Y-74488000D01*
X147104000Y-73368000D02*
X153886000Y-73368000D01*
X145652000Y-75688000D02*
X149314000Y-75688000D01*
X151676000Y-74368000D02*
X154732000Y-74368000D01*
X145871000Y-75088000D02*
X149314000Y-75088000D01*
X147148000Y-73328000D02*
X153842000Y-73328000D01*
X149582000Y-72128000D02*
X151408000Y-72128000D01*
X145730000Y-75448000D02*
X149314000Y-75448000D01*
X147193000Y-73288000D02*
X153797000Y-73288000D01*
X148533000Y-72448000D02*
X152457000Y-72448000D01*
X151676000Y-74088000D02*
X154538000Y-74088000D01*
X149823000Y-72088000D02*
X151167000Y-72088000D01*
X146858000Y-73608000D02*
X149314000Y-73608000D01*
X151676000Y-74128000D02*
X154567000Y-74128000D01*
X148732000Y-72368000D02*
X152258000Y-72368000D01*
X151676000Y-75008000D02*
X155083000Y-75008000D01*
X145544000Y-76128000D02*
X155446000Y-76128000D01*
X146609000Y-73888000D02*
X149314000Y-73888000D01*
X145758000Y-75368000D02*
X149314000Y-75368000D01*
X149745000Y-81579000D02*
X151245000Y-81579000D01*
X151676000Y-75528000D02*
X155287000Y-75528000D01*
X151676000Y-75048000D02*
X155101000Y-75048000D01*
X145450000Y-76889000D02*
X155540000Y-76889000D01*
X151676000Y-74768000D02*
X154965000Y-74768000D01*
X151676000Y-74568000D02*
X154855000Y-74568000D01*
X145475000Y-76569000D02*
X155515000Y-76569000D01*
X151676000Y-73848000D02*
X154348000Y-73848000D01*
X145485000Y-76489000D02*
X155505000Y-76489000D01*
X148355000Y-72528000D02*
X152635000Y-72528000D01*
X151676000Y-74248000D02*
X154652000Y-74248000D01*
X146232000Y-74408000D02*
X149314000Y-74408000D01*
X147843000Y-72808000D02*
X153147000Y-72808000D01*
X145619000Y-75808000D02*
X149314000Y-75808000D01*
X151676000Y-74808000D02*
X154986000Y-74808000D01*
X145536000Y-76168000D02*
X155454000Y-76168000D01*
X151676000Y-74288000D02*
X154680000Y-74288000D01*
X145964000Y-74888000D02*
X149314000Y-74888000D01*
X151676000Y-74648000D02*
X154900000Y-74648000D01*
X146310000Y-74288000D02*
X149314000Y-74288000D01*
X145460000Y-76729000D02*
X155530000Y-76729000D01*
X147060000Y-73408000D02*
X153930000Y-73408000D01*
X146004000Y-74808000D02*
X149314000Y-74808000D01*
X149230000Y-72208000D02*
X151760000Y-72208000D01*
X148118000Y-72648000D02*
X152872000Y-72648000D01*
X151676000Y-75168000D02*
X155153000Y-75168000D01*
X145457000Y-76769000D02*
X155533000Y-76769000D01*
X146135000Y-74568000D02*
X149314000Y-74568000D01*
X146642000Y-73848000D02*
X149314000Y-73848000D01*
X151676000Y-74008000D02*
X154477000Y-74008000D01*
X145598000Y-75888000D02*
X155392000Y-75888000D01*
X146338000Y-74248000D02*
X149314000Y-74248000D01*
X147659000Y-72928000D02*
X153331000Y-72928000D01*
X145821000Y-75208000D02*
X149314000Y-75208000D01*
X146090000Y-74648000D02*
X149314000Y-74648000D01*
X146820000Y-73648000D02*
X149314000Y-73648000D01*
X149391000Y-72168000D02*
X151599000Y-72168000D01*
X151676000Y-73928000D02*
X154414000Y-73928000D01*
X145446000Y-77009000D02*
X155544000Y-77009000D01*
X151676000Y-75448000D02*
X155260000Y-75448000D01*
X147908000Y-72768000D02*
X153082000Y-72768000D01*
X151676000Y-75248000D02*
X155186000Y-75248000D01*
X151676000Y-75728000D02*
X155349000Y-75728000D01*
X151676000Y-75648000D02*
X155326000Y-75648000D01*
X145789000Y-75288000D02*
X149314000Y-75288000D01*
X151676000Y-75688000D02*
X155338000Y-75688000D01*
X146365000Y-74208000D02*
X149314000Y-74208000D01*
X146067000Y-74688000D02*
X149314000Y-74688000D01*
X145804000Y-75248000D02*
X149314000Y-75248000D01*
X147780000Y-72848000D02*
X153210000Y-72848000D01*
X145455000Y-76809000D02*
X155535000Y-76809000D01*
X151676000Y-73808000D02*
X154314000Y-73808000D01*
X146046000Y-74728000D02*
X149314000Y-74728000D01*
X145508000Y-76328000D02*
X155482000Y-76328000D01*
X150495000Y-82329000D02*
X150495000Y-80829000D01*
X151676000Y-75488000D02*
X155274000Y-75488000D01*
X145677000Y-75608000D02*
X149314000Y-75608000D01*
X151676000Y-74968000D02*
X155064000Y-74968000D01*
X150216000Y-72048000D02*
X150774000Y-72048000D01*
X151676000Y-73528000D02*
X154054000Y-73528000D01*
X145464000Y-76689000D02*
X155526000Y-76689000D01*
X145744000Y-75408000D02*
X149314000Y-75408000D01*
X148959000Y-72288000D02*
X152031000Y-72288000D01*
X151676000Y-75608000D02*
X155313000Y-75608000D01*
X148273000Y-72568000D02*
X152717000Y-72568000D01*
X148442000Y-72488000D02*
X152548000Y-72488000D01*
X145445000Y-77129000D02*
X155545000Y-77129000D01*
X146394000Y-74168000D02*
X149314000Y-74168000D01*
X146207000Y-74448000D02*
X149314000Y-74448000D01*
X146676000Y-73808000D02*
X149314000Y-73808000D01*
X151676000Y-73488000D02*
X154013000Y-73488000D01*
X145945000Y-74928000D02*
X149314000Y-74928000D01*
X151676000Y-75328000D02*
X155217000Y-75328000D01*
X147240000Y-73248000D02*
X153750000Y-73248000D01*
X151676000Y-74488000D02*
X154807000Y-74488000D01*
X148194000Y-72608000D02*
X152796000Y-72608000D01*
X149111736Y-72230563D02*
G75*
G03*
X149115000Y-82028357I1383264J-4898437D01*
G01*
X151875000Y-82028357D02*
G75*
G03*
X151878264Y-72230563I-1380000J4899357D01*
G01*
X151878264Y-72230563D02*
G75*
G03*
X149115000Y-72229643I-1383264J-4898437D01*
G01*
%TO.C,C2*%
X134909500Y-86268500D02*
X133735500Y-86268500D01*
X134909500Y-84546500D02*
X133735500Y-84546500D01*
%TO.C,C3*%
X117427000Y-70625500D02*
X122857000Y-70625500D01*
X121323000Y-71745500D02*
X124093000Y-71745500D01*
X121323000Y-72425500D02*
X124547000Y-72425500D01*
X115132000Y-74266500D02*
X125152000Y-74266500D01*
X118180000Y-70225500D02*
X122104000Y-70225500D01*
X121323000Y-72505500D02*
X124591000Y-72505500D01*
X121323000Y-73065500D02*
X124848000Y-73065500D01*
X121323000Y-73385500D02*
X124960000Y-73385500D01*
X116583000Y-71305500D02*
X118961000Y-71305500D01*
X121323000Y-73185500D02*
X124893000Y-73185500D01*
X115714000Y-72465500D02*
X118961000Y-72465500D01*
X121323000Y-71825500D02*
X124155000Y-71825500D01*
X121323000Y-72705500D02*
X124692000Y-72705500D01*
X121323000Y-71705500D02*
X124061000Y-71705500D01*
X121323000Y-72345500D02*
X124502000Y-72345500D01*
X121323000Y-71265500D02*
X123660000Y-71265500D01*
X115114000Y-74426500D02*
X125170000Y-74426500D01*
X115830000Y-72265500D02*
X118961000Y-72265500D01*
X115127000Y-74306500D02*
X125157000Y-74306500D01*
X121323000Y-72065500D02*
X124327000Y-72065500D01*
X115277000Y-73545500D02*
X118961000Y-73545500D01*
X121323000Y-72105500D02*
X124353000Y-72105500D01*
X121323000Y-72465500D02*
X124570000Y-72465500D01*
X116012000Y-71985500D02*
X118961000Y-71985500D01*
X115573000Y-72745500D02*
X118961000Y-72745500D01*
X115631000Y-72625500D02*
X118961000Y-72625500D01*
X121323000Y-73105500D02*
X124864000Y-73105500D01*
X117306000Y-70705500D02*
X122978000Y-70705500D01*
X115672000Y-72545500D02*
X118961000Y-72545500D01*
X116624000Y-71265500D02*
X118961000Y-71265500D01*
X115518000Y-72865500D02*
X118961000Y-72865500D01*
X115168000Y-74025500D02*
X125116000Y-74025500D01*
X115104000Y-74546500D02*
X125180000Y-74546500D01*
X117085000Y-70865500D02*
X123199000Y-70865500D01*
X121323000Y-72625500D02*
X124653000Y-72625500D01*
X121323000Y-72025500D02*
X124299000Y-72025500D01*
X121323000Y-71305500D02*
X123701000Y-71305500D01*
X115391000Y-73185500D02*
X118961000Y-73185500D01*
X115092000Y-74906500D02*
X125192000Y-74906500D01*
X121323000Y-72585500D02*
X124633000Y-72585500D01*
X115183000Y-73945500D02*
X125101000Y-73945500D01*
X116665000Y-71225500D02*
X123619000Y-71225500D01*
X115099000Y-74626500D02*
X125185000Y-74626500D01*
X121323000Y-72545500D02*
X124612000Y-72545500D01*
X121323000Y-73545500D02*
X125007000Y-73545500D01*
X121323000Y-73265500D02*
X124921000Y-73265500D01*
X116467000Y-71425500D02*
X118961000Y-71425500D01*
X115288000Y-73505500D02*
X118961000Y-73505500D01*
X116935000Y-70985500D02*
X123349000Y-70985500D01*
X119229000Y-69905500D02*
X121055000Y-69905500D01*
X118379000Y-70145500D02*
X121905000Y-70145500D01*
X115501000Y-72905500D02*
X118961000Y-72905500D01*
X116394000Y-71505500D02*
X118961000Y-71505500D01*
X121323000Y-71905500D02*
X124214000Y-71905500D01*
X115092000Y-74826500D02*
X125192000Y-74826500D01*
X121323000Y-71625500D02*
X123995000Y-71625500D01*
X120142000Y-80106500D02*
X120142000Y-78606500D01*
X115806000Y-72305500D02*
X118961000Y-72305500D01*
X121323000Y-72905500D02*
X124783000Y-72905500D01*
X115782000Y-72345500D02*
X118961000Y-72345500D01*
X115905000Y-72145500D02*
X118961000Y-72145500D01*
X115311000Y-73425500D02*
X118961000Y-73425500D01*
X117248000Y-70745500D02*
X123036000Y-70745500D01*
X118488000Y-70105500D02*
X121796000Y-70105500D01*
X116070000Y-71905500D02*
X118961000Y-71905500D01*
X121323000Y-71385500D02*
X123779000Y-71385500D01*
X118877000Y-69985500D02*
X121407000Y-69985500D01*
X115324000Y-73385500D02*
X118961000Y-73385500D01*
X121323000Y-73145500D02*
X124879000Y-73145500D01*
X121323000Y-71345500D02*
X123740000Y-71345500D01*
X116887000Y-71025500D02*
X123397000Y-71025500D01*
X118606000Y-70065500D02*
X121678000Y-70065500D01*
X115554000Y-72785500D02*
X118961000Y-72785500D01*
X121323000Y-73305500D02*
X124934000Y-73305500D01*
X118276000Y-70185500D02*
X122008000Y-70185500D01*
X121323000Y-72385500D02*
X124525000Y-72385500D01*
X116323000Y-71585500D02*
X118961000Y-71585500D01*
X115111000Y-74466500D02*
X125173000Y-74466500D01*
X117623000Y-70505500D02*
X122661000Y-70505500D01*
X121323000Y-73025500D02*
X124833000Y-73025500D01*
X121323000Y-73225500D02*
X124907000Y-73225500D01*
X115336000Y-73345500D02*
X118961000Y-73345500D01*
X121323000Y-71545500D02*
X123926000Y-71545500D01*
X118002000Y-70305500D02*
X122282000Y-70305500D01*
X115161000Y-74065500D02*
X125123000Y-74065500D01*
X115137000Y-74226500D02*
X125147000Y-74226500D01*
X116256000Y-71665500D02*
X118961000Y-71665500D01*
X115759000Y-72385500D02*
X118961000Y-72385500D01*
X115095000Y-74706500D02*
X125189000Y-74706500D01*
X116840000Y-71065500D02*
X123444000Y-71065500D01*
X117555000Y-70545500D02*
X122729000Y-70545500D01*
X121323000Y-72825500D02*
X124748000Y-72825500D01*
X115235000Y-73705500D02*
X125049000Y-73705500D01*
X121323000Y-71465500D02*
X123854000Y-71465500D01*
X116041000Y-71945500D02*
X118961000Y-71945500D01*
X115536000Y-72825500D02*
X118961000Y-72825500D01*
X116289000Y-71625500D02*
X118961000Y-71625500D01*
X121323000Y-71505500D02*
X123890000Y-71505500D01*
X115093000Y-74786500D02*
X125191000Y-74786500D01*
X115191000Y-73905500D02*
X125093000Y-73905500D01*
X116099000Y-71865500D02*
X118961000Y-71865500D01*
X115651000Y-72585500D02*
X118961000Y-72585500D01*
X121323000Y-72185500D02*
X124405000Y-72185500D01*
X121323000Y-72745500D02*
X124711000Y-72745500D01*
X115436000Y-73065500D02*
X118961000Y-73065500D01*
X115879000Y-72185500D02*
X118961000Y-72185500D01*
X117034000Y-70905500D02*
X123250000Y-70905500D01*
X116984000Y-70945500D02*
X123300000Y-70945500D01*
X116160000Y-71785500D02*
X118961000Y-71785500D01*
X121323000Y-73345500D02*
X124948000Y-73345500D01*
X115255000Y-73625500D02*
X125029000Y-73625500D01*
X115854000Y-72225500D02*
X118961000Y-72225500D01*
X115468000Y-72985500D02*
X118961000Y-72985500D01*
X119392000Y-79356500D02*
X120892000Y-79356500D01*
X115377000Y-73225500D02*
X118961000Y-73225500D01*
X115350000Y-73305500D02*
X118961000Y-73305500D01*
X115737000Y-72425500D02*
X118961000Y-72425500D01*
X116223000Y-71705500D02*
X118961000Y-71705500D01*
X121323000Y-73465500D02*
X124985000Y-73465500D01*
X116795000Y-71105500D02*
X123489000Y-71105500D01*
X115107000Y-74506500D02*
X125177000Y-74506500D01*
X115592000Y-72705500D02*
X118961000Y-72705500D01*
X115149000Y-74145500D02*
X125135000Y-74145500D01*
X121323000Y-72265500D02*
X124454000Y-72265500D01*
X115092000Y-74866500D02*
X125192000Y-74866500D01*
X121323000Y-72985500D02*
X124816000Y-72985500D01*
X115118000Y-74386500D02*
X125166000Y-74386500D01*
X115931000Y-72105500D02*
X118961000Y-72105500D01*
X116430000Y-71465500D02*
X118961000Y-71465500D01*
X116129000Y-71825500D02*
X118961000Y-71825500D01*
X115094000Y-74746500D02*
X125190000Y-74746500D01*
X117490000Y-70585500D02*
X122794000Y-70585500D01*
X121323000Y-71985500D02*
X124272000Y-71985500D01*
X115122000Y-74346500D02*
X125162000Y-74346500D01*
X117693000Y-70465500D02*
X122591000Y-70465500D01*
X121323000Y-71585500D02*
X123961000Y-71585500D01*
X117138000Y-70825500D02*
X123146000Y-70825500D01*
X116544000Y-71345500D02*
X118961000Y-71345500D01*
X115484000Y-72945500D02*
X118961000Y-72945500D01*
X117920000Y-70345500D02*
X122364000Y-70345500D01*
X115155000Y-74105500D02*
X125129000Y-74105500D01*
X115207000Y-73825500D02*
X125077000Y-73825500D01*
X115363000Y-73265500D02*
X118961000Y-73265500D01*
X121323000Y-72225500D02*
X124430000Y-72225500D01*
X119038000Y-69945500D02*
X121246000Y-69945500D01*
X115225000Y-73745500D02*
X125059000Y-73745500D01*
X116191000Y-71745500D02*
X118961000Y-71745500D01*
X116751000Y-71145500D02*
X123533000Y-71145500D01*
X121323000Y-72785500D02*
X124730000Y-72785500D01*
X116358000Y-71545500D02*
X118961000Y-71545500D01*
X117193000Y-70785500D02*
X123091000Y-70785500D01*
X118089000Y-70265500D02*
X122195000Y-70265500D01*
X121323000Y-71865500D02*
X124185000Y-71865500D01*
X116505000Y-71385500D02*
X118961000Y-71385500D01*
X121323000Y-71665500D02*
X124028000Y-71665500D01*
X115102000Y-74586500D02*
X125182000Y-74586500D01*
X121323000Y-72865500D02*
X124766000Y-72865500D01*
X115143000Y-74185500D02*
X125141000Y-74185500D01*
X121323000Y-71785500D02*
X124124000Y-71785500D01*
X115199000Y-73865500D02*
X125085000Y-73865500D01*
X115985000Y-72025500D02*
X118961000Y-72025500D01*
X115216000Y-73785500D02*
X125068000Y-73785500D01*
X116707000Y-71185500D02*
X123577000Y-71185500D01*
X121323000Y-73585500D02*
X125018000Y-73585500D01*
X118735000Y-70025500D02*
X121549000Y-70025500D01*
X121323000Y-71425500D02*
X123817000Y-71425500D01*
X117841000Y-70385500D02*
X122443000Y-70385500D01*
X115299000Y-73465500D02*
X118961000Y-73465500D01*
X115611000Y-72665500D02*
X118961000Y-72665500D01*
X115420000Y-73105500D02*
X118961000Y-73105500D01*
X121323000Y-72145500D02*
X124379000Y-72145500D01*
X117365000Y-70665500D02*
X122919000Y-70665500D01*
X115957000Y-72065500D02*
X118961000Y-72065500D01*
X115097000Y-74666500D02*
X125187000Y-74666500D01*
X121323000Y-73425500D02*
X124973000Y-73425500D01*
X115175000Y-73985500D02*
X125109000Y-73985500D01*
X117765000Y-70425500D02*
X122519000Y-70425500D01*
X119863000Y-69825500D02*
X120421000Y-69825500D01*
X121323000Y-72305500D02*
X124478000Y-72305500D01*
X115405000Y-73145500D02*
X118961000Y-73145500D01*
X121323000Y-72945500D02*
X124800000Y-72945500D01*
X115245000Y-73665500D02*
X125039000Y-73665500D01*
X115693000Y-72505500D02*
X118961000Y-72505500D01*
X121323000Y-71945500D02*
X124243000Y-71945500D01*
X115266000Y-73585500D02*
X118961000Y-73585500D01*
X121323000Y-73505500D02*
X124996000Y-73505500D01*
X119470000Y-69865500D02*
X120814000Y-69865500D01*
X121323000Y-72665500D02*
X124673000Y-72665500D01*
X115451000Y-73025500D02*
X118961000Y-73025500D01*
X121522000Y-79805857D02*
G75*
G03*
X121525264Y-70008063I-1380000J4899357D01*
G01*
X118758736Y-70008063D02*
G75*
G03*
X118762000Y-79805857I1383264J-4898437D01*
G01*
X121525264Y-70008063D02*
G75*
G03*
X118762000Y-70007143I-1383264J-4898437D01*
G01*
%TO.C,C4*%
X104062500Y-74049000D02*
X113996500Y-74049000D01*
X110210500Y-73409000D02*
X113835500Y-73409000D01*
X105317500Y-71529000D02*
X107848500Y-71529000D01*
X103979500Y-74970000D02*
X114079500Y-74970000D01*
X105594500Y-71249000D02*
X112464500Y-71249000D01*
X106025500Y-70889000D02*
X112033500Y-70889000D01*
X106807500Y-70409000D02*
X111251500Y-70409000D01*
X110210500Y-72449000D02*
X113412500Y-72449000D01*
X110210500Y-73169000D02*
X113751500Y-73169000D01*
X110210500Y-71849000D02*
X113011500Y-71849000D01*
X104164500Y-73609000D02*
X107848500Y-73609000D01*
X105110500Y-71769000D02*
X107848500Y-71769000D01*
X104036500Y-74209000D02*
X114022500Y-74209000D01*
X104001500Y-74490000D02*
X114057500Y-74490000D01*
X104559500Y-72609000D02*
X107848500Y-72609000D01*
X103979500Y-74930000D02*
X114079500Y-74930000D01*
X103994500Y-74570000D02*
X114064500Y-74570000D01*
X110210500Y-72569000D02*
X113478500Y-72569000D01*
X105078500Y-71809000D02*
X107848500Y-71809000D01*
X110210500Y-71329000D02*
X112547500Y-71329000D01*
X108750500Y-69889000D02*
X109308500Y-69889000D01*
X110210500Y-73049000D02*
X113703500Y-73049000D01*
X104601500Y-72529000D02*
X107848500Y-72529000D01*
X110210500Y-71369000D02*
X112588500Y-71369000D01*
X104818500Y-72169000D02*
X107848500Y-72169000D01*
X105682500Y-71169000D02*
X112376500Y-71169000D01*
X104338500Y-73089000D02*
X107848500Y-73089000D01*
X110210500Y-71409000D02*
X112627500Y-71409000D01*
X104086500Y-73929000D02*
X113972500Y-73929000D01*
X105921500Y-70969000D02*
X112137500Y-70969000D01*
X104355500Y-73049000D02*
X107848500Y-73049000D01*
X103998500Y-74530000D02*
X114060500Y-74530000D01*
X106080500Y-70849000D02*
X111978500Y-70849000D01*
X107163500Y-70249000D02*
X110895500Y-70249000D01*
X104405500Y-72929000D02*
X107848500Y-72929000D01*
X104292500Y-73209000D02*
X107848500Y-73209000D01*
X104078500Y-73969000D02*
X113980500Y-73969000D01*
X104142500Y-73689000D02*
X113916500Y-73689000D01*
X104250500Y-73329000D02*
X107848500Y-73329000D01*
X107925500Y-70009000D02*
X110133500Y-70009000D01*
X103981500Y-74810000D02*
X114077500Y-74810000D01*
X110210500Y-71889000D02*
X113042500Y-71889000D01*
X104766500Y-72249000D02*
X107848500Y-72249000D01*
X110210500Y-72729000D02*
X113560500Y-72729000D01*
X110210500Y-72089000D02*
X113186500Y-72089000D01*
X104717500Y-72329000D02*
X107848500Y-72329000D01*
X104872500Y-72089000D02*
X107848500Y-72089000D01*
X104030500Y-74249000D02*
X114028500Y-74249000D01*
X110210500Y-73649000D02*
X113905500Y-73649000D01*
X104423500Y-72889000D02*
X107848500Y-72889000D01*
X105638500Y-71209000D02*
X112420500Y-71209000D01*
X104103500Y-73849000D02*
X113955500Y-73849000D01*
X110210500Y-71729000D02*
X112915500Y-71729000D01*
X104624500Y-72489000D02*
X107848500Y-72489000D01*
X106135500Y-70809000D02*
X111923500Y-70809000D01*
X104669500Y-72409000D02*
X107848500Y-72409000D01*
X104479500Y-72769000D02*
X107848500Y-72769000D01*
X110210500Y-72249000D02*
X113292500Y-72249000D01*
X103989500Y-74650000D02*
X114069500Y-74650000D01*
X110210500Y-71769000D02*
X112948500Y-71769000D01*
X104264500Y-73289000D02*
X107848500Y-73289000D01*
X107622500Y-70089000D02*
X110436500Y-70089000D01*
X110210500Y-72329000D02*
X113341500Y-72329000D01*
X104957500Y-71969000D02*
X107848500Y-71969000D01*
X110210500Y-72049000D02*
X113159500Y-72049000D01*
X105871500Y-71009000D02*
X112187500Y-71009000D01*
X108116500Y-69969000D02*
X109942500Y-69969000D01*
X110210500Y-71929000D02*
X113072500Y-71929000D01*
X110210500Y-72409000D02*
X113389500Y-72409000D01*
X108279500Y-79420000D02*
X109779500Y-79420000D01*
X104019500Y-74330000D02*
X114039500Y-74330000D01*
X110210500Y-72169000D02*
X113240500Y-72169000D01*
X110210500Y-71489000D02*
X112704500Y-71489000D01*
X104928500Y-72009000D02*
X107848500Y-72009000D01*
X104175500Y-73569000D02*
X107848500Y-73569000D01*
X108357500Y-69929000D02*
X109701500Y-69929000D01*
X110210500Y-71969000D02*
X113101500Y-71969000D01*
X105392500Y-71449000D02*
X107848500Y-71449000D01*
X105245500Y-71609000D02*
X107848500Y-71609000D01*
X104441500Y-72849000D02*
X107848500Y-72849000D01*
X105281500Y-71569000D02*
X107848500Y-71569000D01*
X110210500Y-72489000D02*
X113434500Y-72489000D01*
X104211500Y-73449000D02*
X107848500Y-73449000D01*
X109029500Y-80170000D02*
X109029500Y-78670000D01*
X110210500Y-73449000D02*
X113847500Y-73449000D01*
X110210500Y-73009000D02*
X113687500Y-73009000D01*
X107375500Y-70169000D02*
X110683500Y-70169000D01*
X106193500Y-70769000D02*
X111865500Y-70769000D01*
X110210500Y-73089000D02*
X113720500Y-73089000D01*
X110210500Y-71609000D02*
X112813500Y-71609000D01*
X104986500Y-71929000D02*
X107848500Y-71929000D01*
X110210500Y-72929000D02*
X113653500Y-72929000D01*
X107266500Y-70209000D02*
X110792500Y-70209000D01*
X105354500Y-71489000D02*
X107848500Y-71489000D01*
X110210500Y-72969000D02*
X113670500Y-72969000D01*
X110210500Y-72129000D02*
X113214500Y-72129000D01*
X106510500Y-70569000D02*
X111548500Y-70569000D01*
X105470500Y-71369000D02*
X107848500Y-71369000D01*
X104153500Y-73649000D02*
X107848500Y-73649000D01*
X105972500Y-70929000D02*
X112086500Y-70929000D01*
X105431500Y-71409000D02*
X107848500Y-71409000D01*
X110210500Y-72769000D02*
X113579500Y-72769000D01*
X110210500Y-72849000D02*
X113617500Y-72849000D01*
X110210500Y-72649000D02*
X113520500Y-72649000D01*
X105774500Y-71089000D02*
X112284500Y-71089000D01*
X104741500Y-72289000D02*
X107848500Y-72289000D01*
X105047500Y-71849000D02*
X107848500Y-71849000D01*
X110210500Y-72369000D02*
X113365500Y-72369000D01*
X105552500Y-71289000D02*
X112506500Y-71289000D01*
X104186500Y-73529000D02*
X107848500Y-73529000D01*
X110210500Y-72289000D02*
X113317500Y-72289000D01*
X103979500Y-74890000D02*
X114079500Y-74890000D01*
X104024500Y-74290000D02*
X114034500Y-74290000D01*
X104122500Y-73769000D02*
X113936500Y-73769000D01*
X104005500Y-74450000D02*
X114053500Y-74450000D01*
X104042500Y-74169000D02*
X114016500Y-74169000D01*
X104198500Y-73489000D02*
X107848500Y-73489000D01*
X110210500Y-72809000D02*
X113598500Y-72809000D01*
X110210500Y-73529000D02*
X113872500Y-73529000D01*
X110210500Y-71529000D02*
X112741500Y-71529000D01*
X107764500Y-70049000D02*
X110294500Y-70049000D01*
X107067500Y-70289000D02*
X110991500Y-70289000D01*
X107493500Y-70129000D02*
X110565500Y-70129000D01*
X104323500Y-73129000D02*
X107848500Y-73129000D01*
X110210500Y-73329000D02*
X113808500Y-73329000D01*
X103982500Y-74770000D02*
X114076500Y-74770000D01*
X110210500Y-72609000D02*
X113499500Y-72609000D01*
X105727500Y-71129000D02*
X112331500Y-71129000D01*
X105143500Y-71729000D02*
X107848500Y-71729000D01*
X110210500Y-72009000D02*
X113130500Y-72009000D01*
X110210500Y-73569000D02*
X113883500Y-73569000D01*
X104237500Y-73369000D02*
X107848500Y-73369000D01*
X104899500Y-72049000D02*
X107848500Y-72049000D01*
X106442500Y-70609000D02*
X111616500Y-70609000D01*
X104009500Y-74410000D02*
X114049500Y-74410000D01*
X104693500Y-72369000D02*
X107848500Y-72369000D01*
X110210500Y-71649000D02*
X112848500Y-71649000D01*
X105016500Y-71889000D02*
X107848500Y-71889000D01*
X110210500Y-71449000D02*
X112666500Y-71449000D01*
X110210500Y-73489000D02*
X113860500Y-73489000D01*
X110210500Y-73249000D02*
X113780500Y-73249000D01*
X104371500Y-73009000D02*
X107848500Y-73009000D01*
X104844500Y-72129000D02*
X107848500Y-72129000D01*
X104132500Y-73729000D02*
X113926500Y-73729000D01*
X105822500Y-71049000D02*
X112236500Y-71049000D01*
X104498500Y-72729000D02*
X107848500Y-72729000D01*
X110210500Y-72209000D02*
X113266500Y-72209000D01*
X104460500Y-72809000D02*
X107848500Y-72809000D01*
X110210500Y-71809000D02*
X112980500Y-71809000D01*
X104112500Y-73809000D02*
X113946500Y-73809000D01*
X110210500Y-73289000D02*
X113794500Y-73289000D01*
X106252500Y-70729000D02*
X111806500Y-70729000D01*
X104307500Y-73169000D02*
X107848500Y-73169000D01*
X110210500Y-72889000D02*
X113635500Y-72889000D01*
X103984500Y-74730000D02*
X114074500Y-74730000D01*
X106889500Y-70369000D02*
X111169500Y-70369000D01*
X110210500Y-73369000D02*
X113821500Y-73369000D01*
X104646500Y-72449000D02*
X107848500Y-72449000D01*
X104014500Y-74370000D02*
X114044500Y-74370000D01*
X103986500Y-74690000D02*
X114072500Y-74690000D01*
X105176500Y-71689000D02*
X107848500Y-71689000D01*
X104792500Y-72209000D02*
X107848500Y-72209000D01*
X106652500Y-70489000D02*
X111406500Y-70489000D01*
X104070500Y-74009000D02*
X113988500Y-74009000D01*
X110210500Y-73129000D02*
X113735500Y-73129000D01*
X110210500Y-72689000D02*
X113540500Y-72689000D01*
X103991500Y-74610000D02*
X114067500Y-74610000D01*
X104055500Y-74089000D02*
X114003500Y-74089000D01*
X104094500Y-73889000D02*
X113964500Y-73889000D01*
X110210500Y-71689000D02*
X112882500Y-71689000D01*
X110210500Y-73609000D02*
X113894500Y-73609000D01*
X106580500Y-70529000D02*
X111478500Y-70529000D01*
X110210500Y-73209000D02*
X113766500Y-73209000D01*
X110210500Y-72529000D02*
X113457500Y-72529000D01*
X105210500Y-71649000D02*
X107848500Y-71649000D01*
X106314500Y-70689000D02*
X111744500Y-70689000D01*
X104048500Y-74129000D02*
X114010500Y-74129000D01*
X104518500Y-72689000D02*
X107848500Y-72689000D01*
X104388500Y-72969000D02*
X107848500Y-72969000D01*
X103980500Y-74850000D02*
X114078500Y-74850000D01*
X106377500Y-70649000D02*
X111681500Y-70649000D01*
X105511500Y-71329000D02*
X107848500Y-71329000D01*
X104278500Y-73249000D02*
X107848500Y-73249000D01*
X106976500Y-70329000D02*
X111082500Y-70329000D01*
X110210500Y-71569000D02*
X112777500Y-71569000D01*
X106728500Y-70449000D02*
X111330500Y-70449000D01*
X104580500Y-72569000D02*
X107848500Y-72569000D01*
X104223500Y-73409000D02*
X107848500Y-73409000D01*
X104538500Y-72649000D02*
X107848500Y-72649000D01*
X110409500Y-79869357D02*
G75*
G03*
X110412764Y-70071563I-1380000J4899357D01*
G01*
X107646236Y-70071563D02*
G75*
G03*
X107649500Y-79869357I1383264J-4898437D01*
G01*
X110412764Y-70071563D02*
G75*
G03*
X107649500Y-70070643I-1383264J-4898437D01*
G01*
%TO.C,C5*%
X143030000Y-91285000D02*
X144204000Y-91285000D01*
X143030000Y-89563000D02*
X144204000Y-89563000D01*
%TO.C,D1*%
X128016000Y-73744667D02*
X127127000Y-72559333D01*
X128905000Y-72559333D02*
X128016000Y-73744667D01*
X128016000Y-73577101D02*
X128016000Y-72312000D01*
X127127000Y-72559333D02*
X128905000Y-72559333D01*
X127127000Y-73744667D02*
X128905000Y-73744667D01*
X130130899Y-75692000D02*
G75*
G03*
X130130899Y-75692000I-2114899J0D01*
G01*
D10*
%TO.C,L1*%
X129921000Y-81915000D02*
G75*
G03*
X129921000Y-81915000I-3810000J0D01*
G01*
%TO.C,L2*%
X118554500Y-82804000D02*
G75*
G03*
X118554500Y-82804000I-3810000J0D01*
G01*
D11*
%TO.C,R1*%
X145370000Y-84738000D02*
X141650000Y-84738000D01*
X145370000Y-86458000D02*
X145370000Y-84738000D01*
X146440000Y-85598000D02*
X145370000Y-85598000D01*
X141650000Y-86458000D02*
X145370000Y-86458000D01*
X141650000Y-84738000D02*
X141650000Y-86458000D01*
X140580000Y-85598000D02*
X141650000Y-85598000D01*
%TO.C,R2*%
X143319500Y-73959000D02*
X143319500Y-72239000D01*
X145179500Y-75819000D02*
G75*
G03*
X145179500Y-75819000I-1860000J0D01*
G01*
%TO.C,R3*%
X141650000Y-87405000D02*
X141650000Y-89125000D01*
X146440000Y-88265000D02*
X145370000Y-88265000D01*
X140580000Y-88265000D02*
X141650000Y-88265000D01*
X141650000Y-89125000D02*
X145370000Y-89125000D01*
X145370000Y-87405000D02*
X141650000Y-87405000D01*
X145370000Y-89125000D02*
X145370000Y-87405000D01*
D10*
%TO.C,U1*%
X132397500Y-78232000D02*
X132397500Y-78486000D01*
X136588500Y-73279000D02*
X139001500Y-73279000D01*
X139001500Y-80772000D02*
X139001500Y-81026000D01*
X132397500Y-75692000D02*
X132397500Y-75946000D01*
X139001500Y-73279000D02*
X139001500Y-73406000D01*
X132397500Y-80772000D02*
X132397500Y-81026000D01*
X139001500Y-83439000D02*
X139001500Y-83312000D01*
X139001500Y-78232000D02*
X139001500Y-78486000D01*
X132397500Y-83439000D02*
X139001500Y-83439000D01*
X132397500Y-83439000D02*
X132397500Y-83312000D01*
X134810500Y-73279000D02*
X132397500Y-73279000D01*
X139001500Y-75692000D02*
X139001500Y-75946000D01*
X132397500Y-73279000D02*
X132397500Y-73406000D01*
X135699500Y-74168000D02*
G75*
G03*
X136588500Y-73279000I0J889000D01*
G01*
X134810500Y-73279000D02*
G75*
G03*
X135699500Y-74168000I889000J0D01*
G01*
X133794500Y-74168000D02*
G75*
G03*
X133794500Y-74168000I-254000J0D01*
G01*
D11*
%TO.C,C6*%
X142458500Y-80332000D02*
X142458500Y-81506000D01*
X144180500Y-80332000D02*
X144180500Y-81506000D01*
%TO.C,Vin*%
X150500000Y-71628000D02*
X150500000Y-66548000D01*
X156840000Y-66548000D02*
X150500000Y-66548000D01*
X156840000Y-71628000D02*
X150500000Y-71628000D01*
X154940000Y-71628000D02*
X154940000Y-66548000D01*
X156840000Y-66548000D02*
X156840000Y-71628000D01*
%TO.C,Vout*%
X103987600Y-72512000D02*
X98907600Y-72512000D01*
X103987600Y-66172000D02*
X103987600Y-72512000D01*
X98907600Y-66172000D02*
X98907600Y-72512000D01*
X98907600Y-66172000D02*
X103987600Y-66172000D01*
X103987600Y-68072000D02*
X98907600Y-68072000D01*
%TD*%
M02*
