%TF.GenerationSoftware,KiCad,Pcbnew,(6.0.8)*%
%TF.CreationDate,2022-11-19T23:42:55+04:00*%
%TF.ProjectId,MC34063_Buck,4d433334-3036-4335-9f42-75636b2e6b69,rev?*%
%TF.SameCoordinates,Original*%
%TF.FileFunction,Copper,L2,Bot*%
%TF.FilePolarity,Positive*%
%FSLAX46Y46*%
G04 Gerber Fmt 4.6, Leading zero omitted, Abs format (unit mm)*
G04 Created by KiCad (PCBNEW (6.0.8)) date 2022-11-19 23:42:55*
%MOMM*%
%LPD*%
G01*
G04 APERTURE LIST*
%ADD10C,0.300000*%
%TA.AperFunction,NonConductor*%
%ADD11C,0.300000*%
%TD*%
%TA.AperFunction,ComponentPad*%
%ADD12R,2.000000X2.000000*%
%TD*%
%TA.AperFunction,ComponentPad*%
%ADD13C,2.000000*%
%TD*%
%TA.AperFunction,ComponentPad*%
%ADD14C,1.600000*%
%TD*%
%TA.AperFunction,ComponentPad*%
%ADD15R,2.800000X2.800000*%
%TD*%
%TA.AperFunction,ComponentPad*%
%ADD16O,2.800000X2.800000*%
%TD*%
%TA.AperFunction,ComponentPad*%
%ADD17R,1.905000X1.905000*%
%TD*%
%TA.AperFunction,ComponentPad*%
%ADD18C,1.905000*%
%TD*%
%TA.AperFunction,ComponentPad*%
%ADD19C,1.400000*%
%TD*%
%TA.AperFunction,ComponentPad*%
%ADD20O,1.400000X1.400000*%
%TD*%
%TA.AperFunction,ComponentPad*%
%ADD21C,2.400000*%
%TD*%
%TA.AperFunction,ComponentPad*%
%ADD22O,2.400000X2.400000*%
%TD*%
%TA.AperFunction,ComponentPad*%
%ADD23O,3.010000X1.510000*%
%TD*%
%TA.AperFunction,ComponentPad*%
%ADD24O,1.510000X3.010000*%
%TD*%
%TA.AperFunction,Conductor*%
%ADD25C,2.500000*%
%TD*%
%TA.AperFunction,Conductor*%
%ADD26C,0.300000*%
%TD*%
%TA.AperFunction,Conductor*%
%ADD27C,3.000000*%
%TD*%
%TA.AperFunction,Conductor*%
%ADD28C,0.250000*%
%TD*%
%TA.AperFunction,Conductor*%
%ADD29C,1.000000*%
%TD*%
G04 APERTURE END LIST*
D10*
D11*
X100479942Y-84788857D02*
X100551371Y-85003142D01*
X100551371Y-85360285D01*
X100479942Y-85503142D01*
X100408514Y-85574571D01*
X100265657Y-85646000D01*
X100122800Y-85646000D01*
X99979942Y-85574571D01*
X99908514Y-85503142D01*
X99837085Y-85360285D01*
X99765657Y-85074571D01*
X99694228Y-84931714D01*
X99622800Y-84860285D01*
X99479942Y-84788857D01*
X99337085Y-84788857D01*
X99194228Y-84860285D01*
X99122800Y-84931714D01*
X99051371Y-85074571D01*
X99051371Y-85431714D01*
X99122800Y-85646000D01*
X100551371Y-86288857D02*
X99051371Y-86288857D01*
X99051371Y-86646000D01*
X99122800Y-86860285D01*
X99265657Y-87003142D01*
X99408514Y-87074571D01*
X99694228Y-87146000D01*
X99908514Y-87146000D01*
X100194228Y-87074571D01*
X100337085Y-87003142D01*
X100479942Y-86860285D01*
X100551371Y-86646000D01*
X100551371Y-86288857D01*
X100408514Y-88646000D02*
X100479942Y-88574571D01*
X100551371Y-88360285D01*
X100551371Y-88217428D01*
X100479942Y-88003142D01*
X100337085Y-87860285D01*
X100194228Y-87788857D01*
X99908514Y-87717428D01*
X99694228Y-87717428D01*
X99408514Y-87788857D01*
X99265657Y-87860285D01*
X99122800Y-88003142D01*
X99051371Y-88217428D01*
X99051371Y-88360285D01*
X99122800Y-88574571D01*
X99194228Y-88646000D01*
X100694228Y-88931714D02*
X100694228Y-90074571D01*
X99051371Y-90217428D02*
X100551371Y-90717428D01*
X99051371Y-91217428D01*
X99551371Y-92360285D02*
X100551371Y-92360285D01*
X98979942Y-92003142D02*
X100051371Y-91646000D01*
X100051371Y-92574571D01*
D12*
%TO.P,C1,1*%
%TO.N,VCC*%
X150495000Y-79629000D03*
D13*
%TO.P,C1,2*%
%TO.N,GNDREF*%
X150495000Y-74629000D03*
%TD*%
D14*
%TO.P,C2,1*%
%TO.N,Net-(C2-Pad1)*%
X135572500Y-85407500D03*
%TO.P,C2,2*%
%TO.N,GNDREF*%
X133072500Y-85407500D03*
%TD*%
D12*
%TO.P,C3,1*%
%TO.N,Vout1*%
X120142000Y-77406500D03*
D13*
%TO.P,C3,2*%
%TO.N,GNDREF*%
X120142000Y-72406500D03*
%TD*%
D12*
%TO.P,C4,1*%
%TO.N,Vout1*%
X109029500Y-77470000D03*
D13*
%TO.P,C4,2*%
%TO.N,GNDREF*%
X109029500Y-72470000D03*
%TD*%
D14*
%TO.P,C5,1*%
%TO.N,Net-(C5-Pad1)*%
X142367000Y-90424000D03*
%TO.P,C5,2*%
%TO.N,Vout1*%
X144867000Y-90424000D03*
%TD*%
D15*
%TO.P,D1,1*%
%TO.N,Net-(D1-Pad1)*%
X128016000Y-75692000D03*
D16*
%TO.P,D1,2*%
%TO.N,GNDREF*%
X128016000Y-70612000D03*
%TD*%
D17*
%TO.P,L1,1*%
%TO.N,Net-(D1-Pad1)*%
X128651000Y-81915000D03*
D18*
%TO.P,L1,2*%
%TO.N,Vout1*%
X123571000Y-81915000D03*
%TD*%
D17*
%TO.P,L2,1*%
%TO.N,Vout1*%
X117284500Y-82804000D03*
D18*
%TO.P,L2,2*%
X112204500Y-82804000D03*
%TD*%
D19*
%TO.P,R1,1*%
%TO.N,Net-(C5-Pad1)*%
X139700000Y-85598000D03*
D20*
%TO.P,R1,2*%
%TO.N,GNDREF*%
X147320000Y-85598000D03*
%TD*%
D21*
%TO.P,R2,1*%
%TO.N,VCC*%
X143319500Y-75819000D03*
D22*
%TO.P,R2,2*%
%TO.N,Net-(R2-Pad2)*%
X143319500Y-70739000D03*
%TD*%
D19*
%TO.P,R3,1*%
%TO.N,Net-(C5-Pad1)*%
X139700000Y-88265000D03*
D20*
%TO.P,R3,2*%
%TO.N,Vout1*%
X147320000Y-88265000D03*
%TD*%
D18*
%TO.P,U1,1*%
%TO.N,Net-(R2-Pad2)*%
X131889500Y-74549000D03*
%TO.P,U1,2*%
%TO.N,Net-(D1-Pad1)*%
X131889500Y-77089000D03*
%TO.P,U1,3*%
%TO.N,Net-(C2-Pad1)*%
X131889500Y-79629000D03*
%TO.P,U1,4*%
%TO.N,GNDREF*%
X131889500Y-82169000D03*
%TO.P,U1,5*%
%TO.N,Net-(C5-Pad1)*%
X139509500Y-82169000D03*
%TO.P,U1,6*%
%TO.N,VCC*%
X139509500Y-79629000D03*
%TO.P,U1,7*%
%TO.N,Net-(R2-Pad2)*%
X139509500Y-77089000D03*
%TO.P,U1,8*%
X139509500Y-74549000D03*
%TD*%
D14*
%TO.P,C6,1*%
%TO.N,VCC*%
X143319500Y-79669000D03*
%TO.P,C6,2*%
%TO.N,GNDREF*%
X143319500Y-82169000D03*
%TD*%
D23*
%TO.P,Vin,1*%
%TO.N,GNDREF*%
X153670000Y-67818000D03*
%TO.P,Vin,2*%
%TO.N,VCC*%
X153670000Y-70358000D03*
%TD*%
D24*
%TO.P,Vout,1*%
%TO.N,Vout1*%
X100177600Y-69342000D03*
%TO.P,Vout,2*%
%TO.N,GNDREF*%
X102717600Y-69342000D03*
%TD*%
D25*
%TO.N,VCC*%
X139509500Y-79629000D02*
X143279500Y-79629000D01*
X145669000Y-78168500D02*
X145669000Y-79629000D01*
X147129500Y-79629000D02*
X148209000Y-79629000D01*
X148209000Y-79629000D02*
X145669000Y-79629000D01*
X150495000Y-79629000D02*
X148209000Y-79629000D01*
X143319500Y-75819000D02*
X145669000Y-78168500D01*
X151663400Y-79629000D02*
X150495000Y-79629000D01*
X143319500Y-75819000D02*
X143319500Y-79669000D01*
X143319500Y-75819000D02*
X147129500Y-79629000D01*
X153670000Y-77622400D02*
X151663400Y-79629000D01*
X145669000Y-79629000D02*
X143359500Y-79629000D01*
X143359500Y-79629000D02*
X143319500Y-79669000D01*
X153670000Y-70358000D02*
X153670000Y-77622400D01*
X143279500Y-79629000D02*
X143319500Y-79669000D01*
D26*
%TO.N,Net-(C2-Pad1)*%
X135572500Y-81072500D02*
X135572500Y-85407500D01*
X134129000Y-79629000D02*
X135572500Y-81072500D01*
X131889500Y-79629000D02*
X134129000Y-79629000D01*
%TO.N,Vout1*%
X144500000Y-92250000D02*
X122000000Y-92250000D01*
X121750000Y-83736000D02*
X123571000Y-81915000D01*
D25*
X101760600Y-74930000D02*
X100177600Y-73347000D01*
X109029500Y-77470000D02*
X108915200Y-77470000D01*
D27*
X109029500Y-82359500D02*
X109029500Y-77470000D01*
X119888000Y-77406500D02*
X121856500Y-77406500D01*
X117284500Y-79565500D02*
X119443500Y-77406500D01*
D26*
X144867000Y-91883000D02*
X144500000Y-92250000D01*
D25*
X100177600Y-73347000D02*
X100177600Y-69342000D01*
D26*
X144867000Y-90424000D02*
X144867000Y-91883000D01*
X145485000Y-88265000D02*
X147320000Y-88265000D01*
D27*
X109474000Y-82804000D02*
X109029500Y-82359500D01*
X117284500Y-82804000D02*
X117284500Y-79565500D01*
D26*
X121750000Y-92000000D02*
X121750000Y-83736000D01*
X122000000Y-92250000D02*
X113250000Y-92250000D01*
D27*
X119443500Y-77406500D02*
X119888000Y-77406500D01*
X123571000Y-79121000D02*
X123571000Y-81915000D01*
D26*
X112204500Y-91204500D02*
X112204500Y-82804000D01*
D27*
X112204500Y-82804000D02*
X109474000Y-82804000D01*
D26*
X144867000Y-88883000D02*
X145485000Y-88265000D01*
X144867000Y-90424000D02*
X144867000Y-88883000D01*
D27*
X121856500Y-77406500D02*
X123571000Y-79121000D01*
D25*
X106375200Y-74930000D02*
X101760600Y-74930000D01*
D26*
X113250000Y-92250000D02*
X112204500Y-91204500D01*
D25*
X108915200Y-77470000D02*
X106375200Y-74930000D01*
D26*
X122000000Y-92250000D02*
X121750000Y-92000000D01*
D28*
%TO.N,Net-(C5-Pad1)*%
X141152000Y-85598000D02*
X139700000Y-85598000D01*
D26*
X141780000Y-88265000D02*
X139700000Y-88265000D01*
D28*
X139509500Y-82169000D02*
X141169000Y-82169000D01*
X141750000Y-82750000D02*
X141750000Y-85000000D01*
X141169000Y-82169000D02*
X141750000Y-82750000D01*
D26*
X142367000Y-90424000D02*
X142367000Y-88852000D01*
X142367000Y-88852000D02*
X141780000Y-88265000D01*
D28*
X139700000Y-85598000D02*
X139700000Y-88265000D01*
X141750000Y-85000000D02*
X141152000Y-85598000D01*
D25*
%TO.N,Net-(D1-Pad1)*%
X129413000Y-77089000D02*
X128016000Y-75692000D01*
X128016000Y-75692000D02*
X128016000Y-77827500D01*
D29*
X128016000Y-81280000D02*
X128651000Y-81915000D01*
D25*
X130024500Y-77089000D02*
X131889500Y-77089000D01*
X128651000Y-78462500D02*
X130024500Y-77089000D01*
X128651000Y-81915000D02*
X128651000Y-78462500D01*
X128016000Y-77827500D02*
X128651000Y-78462500D01*
X131889500Y-77089000D02*
X129413000Y-77089000D01*
%TO.N,Net-(R2-Pad2)*%
X139509500Y-72580500D02*
X139509500Y-74549000D01*
D28*
X139509500Y-77089000D02*
X140335000Y-77089000D01*
X139509500Y-77089000D02*
X140081000Y-77089000D01*
D25*
X143319500Y-70739000D02*
X141351000Y-70739000D01*
X139509500Y-74549000D02*
X138557001Y-73596501D01*
X132049510Y-74388990D02*
X131889500Y-74388990D01*
X138557001Y-73596501D02*
X132841999Y-73596501D01*
X141351000Y-70739000D02*
X139509500Y-72580500D01*
X132841999Y-73596501D02*
X132049510Y-74388990D01*
%TD*%
%TA.AperFunction,Conductor*%
%TO.N,GNDREF*%
G36*
X157985648Y-65514352D02*
G01*
X158000000Y-65549000D01*
X158000000Y-93451000D01*
X157985648Y-93485648D01*
X157951000Y-93500000D01*
X97549000Y-93500000D01*
X97514352Y-93485648D01*
X97500000Y-93451000D01*
X97500000Y-93239357D01*
X98139800Y-93239357D01*
X101605800Y-93239357D01*
X101605800Y-84052643D01*
X98139800Y-84052643D01*
X98139800Y-93239357D01*
X97500000Y-93239357D01*
X97500000Y-73428411D01*
X98624188Y-73428411D01*
X98634348Y-73504557D01*
X98635149Y-73510557D01*
X98635420Y-73513103D01*
X98637069Y-73533592D01*
X98639013Y-73557750D01*
X98642066Y-73595702D01*
X98642534Y-73597607D01*
X98642536Y-73597620D01*
X98651160Y-73632729D01*
X98652145Y-73637937D01*
X98656375Y-73669636D01*
X98657187Y-73675725D01*
X98657755Y-73677606D01*
X98681138Y-73755056D01*
X98681815Y-73757530D01*
X98701582Y-73838006D01*
X98702352Y-73839820D01*
X98716476Y-73873096D01*
X98718280Y-73878078D01*
X98729301Y-73914582D01*
X98730167Y-73916357D01*
X98765630Y-73989067D01*
X98766694Y-73991401D01*
X98798303Y-74065869D01*
X98798306Y-74065875D01*
X98799071Y-74067677D01*
X98819392Y-74099946D01*
X98821961Y-74104561D01*
X98838678Y-74138837D01*
X98839814Y-74140448D01*
X98839815Y-74140449D01*
X98886447Y-74206555D01*
X98887870Y-74208689D01*
X98932027Y-74278808D01*
X98954242Y-74304006D01*
X98957238Y-74307404D01*
X98960522Y-74311562D01*
X98982501Y-74342719D01*
X99002687Y-74364825D01*
X99045307Y-74407445D01*
X99047414Y-74409689D01*
X99093703Y-74462193D01*
X99097028Y-74465965D01*
X99120786Y-74485480D01*
X99133250Y-74495718D01*
X99136796Y-74498934D01*
X100647598Y-76009736D01*
X100648552Y-76010717D01*
X100719738Y-76085994D01*
X100785586Y-76136338D01*
X100787555Y-76137927D01*
X100850672Y-76191645D01*
X100852358Y-76192666D01*
X100852362Y-76192669D01*
X100883288Y-76211398D01*
X100887666Y-76214385D01*
X100917949Y-76237538D01*
X100919686Y-76238470D01*
X100919687Y-76238470D01*
X100990987Y-76276701D01*
X100993215Y-76277972D01*
X101062409Y-76319878D01*
X101062415Y-76319881D01*
X101064091Y-76320896D01*
X101065913Y-76321632D01*
X101099435Y-76335176D01*
X101104234Y-76337424D01*
X101115740Y-76343593D01*
X101137839Y-76355443D01*
X101139704Y-76356085D01*
X101139706Y-76356086D01*
X101216188Y-76382421D01*
X101218591Y-76383319D01*
X101248309Y-76395326D01*
X101295428Y-76414363D01*
X101332612Y-76422811D01*
X101337701Y-76424261D01*
X101373752Y-76436674D01*
X101455425Y-76450781D01*
X101457914Y-76451278D01*
X101538735Y-76469641D01*
X101540701Y-76469765D01*
X101540703Y-76469765D01*
X101557544Y-76470824D01*
X101576789Y-76472035D01*
X101582045Y-76472653D01*
X101619617Y-76479142D01*
X101621146Y-76479211D01*
X101621151Y-76479212D01*
X101648964Y-76480475D01*
X101648979Y-76480475D01*
X101649522Y-76480500D01*
X101709805Y-76480500D01*
X101712882Y-76480597D01*
X101718595Y-76480956D01*
X101785775Y-76485183D01*
X101785777Y-76485183D01*
X101787748Y-76485307D01*
X101834389Y-76480734D01*
X101839169Y-76480500D01*
X105712666Y-76480500D01*
X105747314Y-76494852D01*
X107214648Y-77962186D01*
X107229000Y-77996834D01*
X107229000Y-82305553D01*
X107228921Y-82308331D01*
X107224226Y-82391011D01*
X107224393Y-82392827D01*
X107224393Y-82392833D01*
X107234990Y-82508158D01*
X107235060Y-82508992D01*
X107238952Y-82561367D01*
X107243517Y-82622792D01*
X107243783Y-82626377D01*
X107244184Y-82628149D01*
X107246560Y-82638651D01*
X107247562Y-82644979D01*
X107248713Y-82657501D01*
X107249144Y-82659262D01*
X107276676Y-82771779D01*
X107276872Y-82772610D01*
X107302845Y-82887391D01*
X107303497Y-82889068D01*
X107303502Y-82889084D01*
X107307404Y-82899118D01*
X107309330Y-82905226D01*
X107311889Y-82915681D01*
X107312321Y-82917445D01*
X107337507Y-82979007D01*
X107356898Y-83026406D01*
X107357201Y-83027168D01*
X107399838Y-83136809D01*
X107406086Y-83147741D01*
X107408883Y-83153476D01*
X107413652Y-83165132D01*
X107414583Y-83166696D01*
X107414583Y-83166697D01*
X107473832Y-83266286D01*
X107474252Y-83267005D01*
X107532632Y-83369150D01*
X107540430Y-83379042D01*
X107544044Y-83384302D01*
X107550481Y-83395121D01*
X107551629Y-83396526D01*
X107551631Y-83396529D01*
X107624927Y-83486238D01*
X107625461Y-83486902D01*
X107698310Y-83579311D01*
X107699627Y-83580550D01*
X107699628Y-83580551D01*
X107777195Y-83653519D01*
X107778269Y-83654561D01*
X108162697Y-84038988D01*
X108164606Y-84041008D01*
X108219760Y-84102803D01*
X108221162Y-84103969D01*
X108221163Y-84103970D01*
X108310199Y-84178020D01*
X108310852Y-84178572D01*
X108400018Y-84255403D01*
X108401559Y-84256375D01*
X108401568Y-84256382D01*
X108410662Y-84262120D01*
X108415840Y-84265881D01*
X108425512Y-84273925D01*
X108427061Y-84274865D01*
X108526103Y-84334965D01*
X108526830Y-84335415D01*
X108626346Y-84398205D01*
X108637858Y-84403270D01*
X108643546Y-84406231D01*
X108652750Y-84411817D01*
X108652754Y-84411819D01*
X108654298Y-84412756D01*
X108655966Y-84413455D01*
X108655967Y-84413456D01*
X108762809Y-84458259D01*
X108763595Y-84458597D01*
X108806031Y-84477269D01*
X108871295Y-84505986D01*
X108873053Y-84506465D01*
X108873058Y-84506467D01*
X108883436Y-84509296D01*
X108889497Y-84511383D01*
X108901091Y-84516245D01*
X108902855Y-84516693D01*
X108902861Y-84516695D01*
X108989213Y-84538625D01*
X109015094Y-84545198D01*
X109015890Y-84545406D01*
X109026016Y-84548167D01*
X109127730Y-84575898D01*
X109127736Y-84575899D01*
X109129485Y-84576376D01*
X109136594Y-84577218D01*
X109141978Y-84577855D01*
X109148274Y-84579022D01*
X109160470Y-84582119D01*
X109202342Y-84586335D01*
X109277557Y-84593909D01*
X109278407Y-84594002D01*
X109340406Y-84601340D01*
X109395243Y-84607830D01*
X109397053Y-84607775D01*
X109397059Y-84607775D01*
X109503488Y-84604523D01*
X109504984Y-84604500D01*
X111705000Y-84604500D01*
X111739648Y-84618852D01*
X111754000Y-84653500D01*
X111754000Y-91174827D01*
X111753660Y-91180585D01*
X111749136Y-91218810D01*
X111759901Y-91277753D01*
X111760142Y-91279208D01*
X111769051Y-91338462D01*
X111770637Y-91341764D01*
X111771655Y-91345074D01*
X111772816Y-91348466D01*
X111773475Y-91352073D01*
X111775166Y-91355328D01*
X111801066Y-91405188D01*
X111801754Y-91406565D01*
X111814767Y-91433664D01*
X111827691Y-91460579D01*
X111830177Y-91463268D01*
X111832236Y-91466298D01*
X111831947Y-91466494D01*
X111832786Y-91467687D01*
X111833073Y-91467494D01*
X111834635Y-91469812D01*
X111835921Y-91472288D01*
X111837733Y-91474409D01*
X111837733Y-91474410D01*
X111839607Y-91476605D01*
X111839615Y-91476613D01*
X111840225Y-91477328D01*
X111878533Y-91515636D01*
X111879867Y-91517023D01*
X111919646Y-91560056D01*
X111922813Y-91561895D01*
X111925673Y-91564187D01*
X111925643Y-91564224D01*
X111932054Y-91569157D01*
X112910462Y-92547565D01*
X112914294Y-92551877D01*
X112938128Y-92582110D01*
X112941142Y-92584193D01*
X112941144Y-92584195D01*
X112987393Y-92616160D01*
X112988646Y-92617055D01*
X112996090Y-92622553D01*
X113036816Y-92652634D01*
X113040271Y-92653847D01*
X113043372Y-92655489D01*
X113046559Y-92657050D01*
X113049569Y-92659131D01*
X113053060Y-92660235D01*
X113053062Y-92660236D01*
X113106667Y-92677189D01*
X113108085Y-92677662D01*
X113164631Y-92697519D01*
X113168291Y-92697663D01*
X113171890Y-92698349D01*
X113171825Y-92698688D01*
X113173260Y-92698938D01*
X113173325Y-92698603D01*
X113176065Y-92699137D01*
X113178730Y-92699980D01*
X113185337Y-92700500D01*
X113239537Y-92700500D01*
X113241461Y-92700538D01*
X113299994Y-92702838D01*
X113303536Y-92701899D01*
X113307176Y-92701497D01*
X113307181Y-92701544D01*
X113315197Y-92700500D01*
X121989537Y-92700500D01*
X121991461Y-92700538D01*
X122049994Y-92702838D01*
X122053536Y-92701899D01*
X122057176Y-92701497D01*
X122057181Y-92701544D01*
X122065197Y-92700500D01*
X144470327Y-92700500D01*
X144476085Y-92700840D01*
X144514310Y-92705364D01*
X144573253Y-92694599D01*
X144574708Y-92694358D01*
X144633962Y-92685449D01*
X144637264Y-92683863D01*
X144640574Y-92682845D01*
X144643966Y-92681684D01*
X144647573Y-92681025D01*
X144700701Y-92653427D01*
X144702051Y-92652753D01*
X144722383Y-92642990D01*
X144752777Y-92628395D01*
X144752779Y-92628394D01*
X144756079Y-92626809D01*
X144758768Y-92624323D01*
X144761798Y-92622264D01*
X144761994Y-92622553D01*
X144763187Y-92621714D01*
X144762994Y-92621427D01*
X144765312Y-92619865D01*
X144767788Y-92618579D01*
X144769910Y-92616767D01*
X144772105Y-92614893D01*
X144772113Y-92614885D01*
X144772828Y-92614275D01*
X144811136Y-92575967D01*
X144812523Y-92574633D01*
X144852865Y-92537342D01*
X144852866Y-92537340D01*
X144855556Y-92534854D01*
X144857395Y-92531687D01*
X144859687Y-92528827D01*
X144859724Y-92528857D01*
X144864657Y-92522446D01*
X145164565Y-92222538D01*
X145168877Y-92218706D01*
X145196234Y-92197139D01*
X145199110Y-92194872D01*
X145201193Y-92191858D01*
X145201195Y-92191856D01*
X145233160Y-92145607D01*
X145234055Y-92144354D01*
X145267457Y-92099131D01*
X145269634Y-92096184D01*
X145270847Y-92092729D01*
X145272489Y-92089628D01*
X145274050Y-92086441D01*
X145276131Y-92083431D01*
X145294190Y-92026329D01*
X145294662Y-92024915D01*
X145314519Y-91968369D01*
X145314663Y-91964709D01*
X145315349Y-91961110D01*
X145315688Y-91961175D01*
X145315938Y-91959740D01*
X145315603Y-91959675D01*
X145316137Y-91956935D01*
X145316980Y-91954270D01*
X145317500Y-91947663D01*
X145317500Y-91893463D01*
X145317538Y-91891539D01*
X145319694Y-91836667D01*
X145319838Y-91833006D01*
X145318899Y-91829464D01*
X145318497Y-91825824D01*
X145318544Y-91825819D01*
X145317500Y-91817803D01*
X145317500Y-91461840D01*
X145331852Y-91427192D01*
X145342558Y-91419088D01*
X145491039Y-91335936D01*
X145491041Y-91335935D01*
X145493001Y-91334837D01*
X145555433Y-91282913D01*
X145646782Y-91206938D01*
X145648505Y-91205505D01*
X145669230Y-91180586D01*
X145776401Y-91051728D01*
X145776403Y-91051726D01*
X145777837Y-91050001D01*
X145876664Y-90873531D01*
X145941678Y-90682007D01*
X145970700Y-90481842D01*
X145972215Y-90424000D01*
X145953708Y-90222591D01*
X145898807Y-90027926D01*
X145886617Y-90003206D01*
X145810345Y-89848543D01*
X145809351Y-89846527D01*
X145688335Y-89684467D01*
X145539812Y-89547174D01*
X145514722Y-89531343D01*
X145495979Y-89519517D01*
X145368757Y-89439246D01*
X145348343Y-89431102D01*
X145321480Y-89404933D01*
X145317500Y-89385590D01*
X145317500Y-89089899D01*
X145331852Y-89055251D01*
X145657251Y-88729852D01*
X145691899Y-88715500D01*
X146396673Y-88715500D01*
X146431321Y-88729852D01*
X146440254Y-88742102D01*
X146472523Y-88804890D01*
X146474944Y-88809601D01*
X146476430Y-88811476D01*
X146476432Y-88811479D01*
X146526351Y-88874461D01*
X146596818Y-88963369D01*
X146598644Y-88964923D01*
X146598645Y-88964924D01*
X146629548Y-88991224D01*
X146746238Y-89090535D01*
X146917513Y-89186257D01*
X146963583Y-89201226D01*
X147101836Y-89246148D01*
X147101840Y-89246149D01*
X147104118Y-89246889D01*
X147298946Y-89270121D01*
X147494576Y-89255068D01*
X147683556Y-89202303D01*
X147685685Y-89201228D01*
X147685689Y-89201226D01*
X147768323Y-89159484D01*
X147858689Y-89113837D01*
X148013303Y-88993040D01*
X148037572Y-88964924D01*
X148139938Y-88846332D01*
X148139942Y-88846327D01*
X148141509Y-88844511D01*
X148238425Y-88673909D01*
X148256228Y-88620393D01*
X148299602Y-88490004D01*
X148300358Y-88487732D01*
X148324949Y-88293071D01*
X148325341Y-88265000D01*
X148306194Y-88069728D01*
X148281530Y-87988036D01*
X148250178Y-87884191D01*
X148250176Y-87884186D01*
X148249484Y-87881894D01*
X148157370Y-87708653D01*
X148033361Y-87556602D01*
X147882180Y-87431535D01*
X147709585Y-87338213D01*
X147522152Y-87280193D01*
X147519775Y-87279943D01*
X147519774Y-87279943D01*
X147329402Y-87259933D01*
X147329397Y-87259933D01*
X147327019Y-87259683D01*
X147324634Y-87259900D01*
X147324629Y-87259900D01*
X147229318Y-87268575D01*
X147131618Y-87277466D01*
X146996918Y-87317111D01*
X146945696Y-87332186D01*
X146945694Y-87332187D01*
X146943393Y-87332864D01*
X146769512Y-87423767D01*
X146616600Y-87546711D01*
X146615057Y-87548550D01*
X146492020Y-87695180D01*
X146492017Y-87695184D01*
X146490480Y-87697016D01*
X146482918Y-87710771D01*
X146439853Y-87789106D01*
X146410585Y-87812554D01*
X146396914Y-87814500D01*
X145514673Y-87814500D01*
X145508914Y-87814160D01*
X145470690Y-87809636D01*
X145411747Y-87820401D01*
X145410292Y-87820642D01*
X145351038Y-87829551D01*
X145347736Y-87831137D01*
X145344426Y-87832155D01*
X145341034Y-87833316D01*
X145337427Y-87833975D01*
X145284299Y-87861573D01*
X145282949Y-87862247D01*
X145278168Y-87864543D01*
X145232223Y-87886605D01*
X145232221Y-87886606D01*
X145228921Y-87888191D01*
X145226232Y-87890677D01*
X145223202Y-87892736D01*
X145223006Y-87892447D01*
X145221813Y-87893286D01*
X145222006Y-87893573D01*
X145219688Y-87895135D01*
X145217212Y-87896421D01*
X145215091Y-87898233D01*
X145215090Y-87898233D01*
X145212895Y-87900107D01*
X145212887Y-87900115D01*
X145212172Y-87900725D01*
X145173864Y-87939033D01*
X145172477Y-87940367D01*
X145132135Y-87977658D01*
X145132134Y-87977660D01*
X145129444Y-87980146D01*
X145127605Y-87983313D01*
X145125313Y-87986173D01*
X145125276Y-87986143D01*
X145120343Y-87992554D01*
X144569435Y-88543462D01*
X144565123Y-88547294D01*
X144534890Y-88571128D01*
X144532807Y-88574142D01*
X144532805Y-88574144D01*
X144500840Y-88620393D01*
X144499945Y-88621646D01*
X144464366Y-88669816D01*
X144463153Y-88673271D01*
X144461511Y-88676372D01*
X144459950Y-88679559D01*
X144457869Y-88682569D01*
X144456765Y-88686060D01*
X144456764Y-88686062D01*
X144439811Y-88739667D01*
X144439338Y-88741085D01*
X144419481Y-88797631D01*
X144419337Y-88801291D01*
X144418651Y-88804890D01*
X144418312Y-88804825D01*
X144418062Y-88806260D01*
X144418397Y-88806325D01*
X144417863Y-88809065D01*
X144417020Y-88811730D01*
X144416500Y-88818337D01*
X144416500Y-88872537D01*
X144416462Y-88874461D01*
X144414162Y-88932994D01*
X144415102Y-88936537D01*
X144415503Y-88940174D01*
X144415456Y-88940179D01*
X144416500Y-88948196D01*
X144416500Y-89383689D01*
X144402148Y-89418337D01*
X144391039Y-89426190D01*
X144391193Y-89426449D01*
X144219301Y-89528713D01*
X144219295Y-89528717D01*
X144217371Y-89529862D01*
X144215683Y-89531342D01*
X144215682Y-89531343D01*
X144198998Y-89545975D01*
X144065305Y-89663220D01*
X144063920Y-89664977D01*
X144063917Y-89664980D01*
X144048555Y-89684467D01*
X143940089Y-89822057D01*
X143845914Y-90001053D01*
X143845247Y-90003201D01*
X143845245Y-90003206D01*
X143786605Y-90192061D01*
X143785937Y-90194213D01*
X143785672Y-90196452D01*
X143782313Y-90224836D01*
X143762164Y-90395069D01*
X143775392Y-90596894D01*
X143825178Y-90792928D01*
X143909856Y-90976607D01*
X144026588Y-91141780D01*
X144028192Y-91143343D01*
X144028195Y-91143346D01*
X144090235Y-91203782D01*
X144171466Y-91282913D01*
X144173328Y-91284157D01*
X144173329Y-91284158D01*
X144279842Y-91355328D01*
X144339637Y-91395282D01*
X144386844Y-91415564D01*
X144413012Y-91442427D01*
X144416500Y-91460584D01*
X144416500Y-91676101D01*
X144402148Y-91710749D01*
X144327749Y-91785148D01*
X144293101Y-91799500D01*
X122249500Y-91799500D01*
X122214852Y-91785148D01*
X122200500Y-91750500D01*
X122200500Y-83942899D01*
X122214852Y-83908251D01*
X122628295Y-83494808D01*
X122662943Y-83480456D01*
X122684615Y-83485509D01*
X122839304Y-83561792D01*
X122894629Y-83589076D01*
X122896366Y-83589632D01*
X122896371Y-83589634D01*
X123147772Y-83670108D01*
X123149503Y-83670662D01*
X123151287Y-83670952D01*
X123151293Y-83670954D01*
X123401709Y-83711736D01*
X123413636Y-83713678D01*
X123415456Y-83713702D01*
X123415458Y-83713702D01*
X123509922Y-83714938D01*
X123681226Y-83717181D01*
X123683026Y-83716936D01*
X123683027Y-83716936D01*
X123944587Y-83681339D01*
X123944586Y-83681339D01*
X123946395Y-83681093D01*
X124203317Y-83606208D01*
X124446348Y-83494169D01*
X124457428Y-83486905D01*
X124515181Y-83449040D01*
X124670149Y-83347438D01*
X124869803Y-83169240D01*
X124882901Y-83153492D01*
X125028018Y-82979007D01*
X125040925Y-82963488D01*
X125042214Y-82961364D01*
X125079609Y-82899739D01*
X125109853Y-82877563D01*
X125146920Y-82883268D01*
X125169096Y-82913512D01*
X125170500Y-82925159D01*
X125170500Y-83299704D01*
X125170971Y-83302070D01*
X125190154Y-83398506D01*
X125193756Y-83416616D01*
X125208108Y-83451264D01*
X125274331Y-83550373D01*
X125745627Y-84021669D01*
X125844736Y-84087892D01*
X125879384Y-84102244D01*
X125881747Y-84102714D01*
X125881750Y-84102715D01*
X125937840Y-84113872D01*
X125996296Y-84125500D01*
X130035704Y-84125500D01*
X130094160Y-84113872D01*
X130150250Y-84102715D01*
X130150253Y-84102714D01*
X130152616Y-84102244D01*
X130187264Y-84087892D01*
X130286373Y-84021669D01*
X130757669Y-83550373D01*
X130823892Y-83451264D01*
X130838244Y-83416616D01*
X130841847Y-83398506D01*
X130861029Y-83302070D01*
X130861500Y-83299704D01*
X130861500Y-80491305D01*
X130875852Y-80456657D01*
X130910500Y-80442305D01*
X130945148Y-80456657D01*
X131081011Y-80592520D01*
X131082768Y-80593750D01*
X131082770Y-80593752D01*
X131246006Y-80708051D01*
X131260607Y-80718275D01*
X131262541Y-80719177D01*
X131262543Y-80719178D01*
X131347735Y-80758903D01*
X131459312Y-80810932D01*
X131461377Y-80811485D01*
X131461379Y-80811486D01*
X131669016Y-80867122D01*
X131669018Y-80867122D01*
X131671088Y-80867677D01*
X131673215Y-80867863D01*
X131673220Y-80867864D01*
X131887374Y-80886600D01*
X131889500Y-80886786D01*
X131891626Y-80886600D01*
X132105780Y-80867864D01*
X132105785Y-80867863D01*
X132107912Y-80867677D01*
X132109982Y-80867122D01*
X132109984Y-80867122D01*
X132317621Y-80811486D01*
X132317623Y-80811485D01*
X132319688Y-80810932D01*
X132431265Y-80758903D01*
X132516457Y-80719178D01*
X132516459Y-80719177D01*
X132518393Y-80718275D01*
X132532994Y-80708051D01*
X132696230Y-80593752D01*
X132696232Y-80593750D01*
X132697989Y-80592520D01*
X132853020Y-80437489D01*
X132941385Y-80311292D01*
X132977549Y-80259644D01*
X132977549Y-80259643D01*
X132978775Y-80257893D01*
X133048768Y-80107791D01*
X133076417Y-80082455D01*
X133093176Y-80079500D01*
X133922101Y-80079500D01*
X133956749Y-80093852D01*
X135107648Y-81244751D01*
X135122000Y-81279399D01*
X135122000Y-84367189D01*
X135107648Y-84401837D01*
X135096539Y-84409690D01*
X135096693Y-84409949D01*
X134924801Y-84512213D01*
X134924795Y-84512217D01*
X134922871Y-84513362D01*
X134921183Y-84514842D01*
X134921182Y-84514843D01*
X134811372Y-84611144D01*
X134770805Y-84646720D01*
X134769420Y-84648477D01*
X134769417Y-84648480D01*
X134682872Y-84758263D01*
X134645589Y-84805557D01*
X134551414Y-84984553D01*
X134550747Y-84986701D01*
X134550745Y-84986706D01*
X134492105Y-85175561D01*
X134491437Y-85177713D01*
X134491172Y-85179952D01*
X134487813Y-85208336D01*
X134467664Y-85378569D01*
X134480892Y-85580394D01*
X134530678Y-85776428D01*
X134615356Y-85960107D01*
X134732088Y-86125280D01*
X134733692Y-86126843D01*
X134733695Y-86126846D01*
X134751796Y-86144479D01*
X134876966Y-86266413D01*
X134878828Y-86267657D01*
X134878829Y-86267658D01*
X135043269Y-86377534D01*
X135045137Y-86378782D01*
X135230970Y-86458622D01*
X135289874Y-86471951D01*
X135426050Y-86502765D01*
X135426056Y-86502766D01*
X135428240Y-86503260D01*
X135508063Y-86506396D01*
X135628095Y-86511112D01*
X135628098Y-86511112D01*
X135630342Y-86511200D01*
X135632561Y-86510878D01*
X135632566Y-86510878D01*
X135748798Y-86494025D01*
X135830507Y-86482178D01*
X135832629Y-86481458D01*
X135832632Y-86481457D01*
X135938966Y-86445361D01*
X136022031Y-86417164D01*
X136182111Y-86327516D01*
X136196539Y-86319436D01*
X136196541Y-86319435D01*
X136198501Y-86318337D01*
X136260933Y-86266413D01*
X136352282Y-86190438D01*
X136354005Y-86189005D01*
X136407005Y-86125280D01*
X136481901Y-86035228D01*
X136481903Y-86035226D01*
X136483337Y-86033501D01*
X136489606Y-86022308D01*
X136581068Y-85858988D01*
X136582164Y-85857031D01*
X136647178Y-85665507D01*
X136676200Y-85465342D01*
X136677715Y-85407500D01*
X136675804Y-85386697D01*
X136663789Y-85255948D01*
X136659208Y-85206091D01*
X136604307Y-85011426D01*
X136592117Y-84986706D01*
X136515845Y-84832043D01*
X136514851Y-84830027D01*
X136393835Y-84667967D01*
X136294235Y-84575898D01*
X136246963Y-84532200D01*
X136246962Y-84532199D01*
X136245312Y-84530674D01*
X136222444Y-84516245D01*
X136131077Y-84458597D01*
X136074257Y-84422746D01*
X136053843Y-84414602D01*
X136026980Y-84388433D01*
X136023000Y-84369090D01*
X136023000Y-81102172D01*
X136023340Y-81096413D01*
X136027433Y-81061828D01*
X136027864Y-81058189D01*
X136018752Y-81008297D01*
X136017104Y-80999275D01*
X136016852Y-80997756D01*
X136008494Y-80942164D01*
X136007949Y-80938538D01*
X136006363Y-80935235D01*
X136005339Y-80931907D01*
X136004183Y-80928531D01*
X136003525Y-80924927D01*
X135975925Y-80871793D01*
X135975250Y-80870442D01*
X135950895Y-80819723D01*
X135950894Y-80819721D01*
X135949309Y-80816421D01*
X135946823Y-80813732D01*
X135944764Y-80810702D01*
X135945046Y-80810510D01*
X135944209Y-80809319D01*
X135943929Y-80809508D01*
X135942366Y-80807188D01*
X135941079Y-80804711D01*
X135936775Y-80799672D01*
X135898467Y-80761364D01*
X135897133Y-80759977D01*
X135859842Y-80719635D01*
X135859840Y-80719634D01*
X135857354Y-80716944D01*
X135854187Y-80715105D01*
X135851327Y-80712813D01*
X135851357Y-80712776D01*
X135844946Y-80707843D01*
X134468538Y-79331435D01*
X134464706Y-79327123D01*
X134443139Y-79299766D01*
X134440872Y-79296890D01*
X134437858Y-79294807D01*
X134437856Y-79294805D01*
X134391607Y-79262840D01*
X134390354Y-79261945D01*
X134345131Y-79228543D01*
X134342184Y-79226366D01*
X134338729Y-79225153D01*
X134335628Y-79223511D01*
X134332441Y-79221950D01*
X134329431Y-79219869D01*
X134325940Y-79218765D01*
X134325938Y-79218764D01*
X134272333Y-79201811D01*
X134270915Y-79201338D01*
X134214369Y-79181481D01*
X134210709Y-79181337D01*
X134207110Y-79180651D01*
X134207175Y-79180312D01*
X134205740Y-79180062D01*
X134205675Y-79180397D01*
X134202935Y-79179863D01*
X134200270Y-79179020D01*
X134193663Y-79178500D01*
X134139463Y-79178500D01*
X134137539Y-79178462D01*
X134136218Y-79178410D01*
X134079006Y-79176162D01*
X134075463Y-79177102D01*
X134071826Y-79177503D01*
X134071821Y-79177456D01*
X134063804Y-79178500D01*
X133093176Y-79178500D01*
X133058528Y-79164148D01*
X133048767Y-79150208D01*
X133028422Y-79106576D01*
X132978775Y-79000107D01*
X132886696Y-78868605D01*
X132878578Y-78831991D01*
X132898729Y-78800362D01*
X132926834Y-78791500D01*
X133083704Y-78791500D01*
X133142160Y-78779872D01*
X133198250Y-78768715D01*
X133198253Y-78768714D01*
X133200616Y-78768244D01*
X133235264Y-78753892D01*
X133334373Y-78687669D01*
X133805669Y-78216373D01*
X133871892Y-78117264D01*
X133886244Y-78082616D01*
X133909500Y-77965704D01*
X133909500Y-76212296D01*
X133888964Y-76109056D01*
X133886715Y-76097750D01*
X133886714Y-76097747D01*
X133886244Y-76095384D01*
X133871892Y-76060736D01*
X133805669Y-75961627D01*
X133334373Y-75490331D01*
X133268042Y-75446010D01*
X133247208Y-75414829D01*
X133254524Y-75378046D01*
X133260618Y-75370621D01*
X133469885Y-75161353D01*
X133504533Y-75147001D01*
X137894467Y-75147001D01*
X137929115Y-75161353D01*
X138377207Y-75609445D01*
X138379314Y-75611689D01*
X138422870Y-75661093D01*
X138428928Y-75667965D01*
X138476893Y-75707364D01*
X138514575Y-75738316D01*
X138515226Y-75738861D01*
X138599572Y-75810645D01*
X138601260Y-75811667D01*
X138601261Y-75811668D01*
X138608209Y-75815876D01*
X138613928Y-75819925D01*
X138621730Y-75826334D01*
X138623426Y-75827321D01*
X138717517Y-75882083D01*
X138718252Y-75882520D01*
X138811309Y-75938878D01*
X138811315Y-75938881D01*
X138812991Y-75939896D01*
X138822363Y-75943683D01*
X138828649Y-75946764D01*
X138830883Y-75948064D01*
X138832115Y-75948781D01*
X138854837Y-75978617D01*
X138849805Y-76015781D01*
X138835565Y-76031264D01*
X138724467Y-76109056D01*
X138701011Y-76125480D01*
X138545980Y-76280511D01*
X138544750Y-76282268D01*
X138544748Y-76282270D01*
X138436633Y-76436674D01*
X138420225Y-76460107D01*
X138419323Y-76462041D01*
X138419322Y-76462043D01*
X138408564Y-76485114D01*
X138327568Y-76658812D01*
X138270823Y-76870588D01*
X138270637Y-76872715D01*
X138270636Y-76872720D01*
X138258051Y-77016566D01*
X138251714Y-77089000D01*
X138251900Y-77091126D01*
X138261699Y-77203123D01*
X138270823Y-77307412D01*
X138327568Y-77519188D01*
X138420225Y-77717893D01*
X138421451Y-77719643D01*
X138421451Y-77719644D01*
X138507335Y-77842298D01*
X138545980Y-77897489D01*
X138701011Y-78052520D01*
X138702768Y-78053750D01*
X138702770Y-78053752D01*
X138837747Y-78148264D01*
X138857898Y-78179893D01*
X138849780Y-78216507D01*
X138828788Y-78233507D01*
X138790631Y-78249703D01*
X138790625Y-78249706D01*
X138788823Y-78250471D01*
X138787158Y-78251519D01*
X138787157Y-78251520D01*
X138734380Y-78284755D01*
X138577692Y-78383427D01*
X138556563Y-78402055D01*
X138443014Y-78502162D01*
X138390535Y-78548428D01*
X138389286Y-78549949D01*
X138233409Y-78739716D01*
X138233406Y-78739721D01*
X138232166Y-78741230D01*
X138231182Y-78742920D01*
X138231181Y-78742922D01*
X138190932Y-78812077D01*
X138106660Y-78956872D01*
X138017245Y-79189805D01*
X137966222Y-79434039D01*
X137954904Y-79683288D01*
X137983581Y-79931140D01*
X138051517Y-80171219D01*
X138052349Y-80173003D01*
X138052350Y-80173006D01*
X138126298Y-80331588D01*
X138156962Y-80397348D01*
X138158069Y-80398976D01*
X138158069Y-80398977D01*
X138296101Y-80602085D01*
X138296105Y-80602090D01*
X138297206Y-80603710D01*
X138298555Y-80605137D01*
X138298557Y-80605139D01*
X138445197Y-80760206D01*
X138468638Y-80784994D01*
X138470209Y-80786195D01*
X138470210Y-80786196D01*
X138660792Y-80931907D01*
X138666849Y-80936538D01*
X138833522Y-81025908D01*
X138857275Y-81054928D01*
X138853550Y-81092246D01*
X138838471Y-81109229D01*
X138715771Y-81195145D01*
X138701011Y-81205480D01*
X138545980Y-81360511D01*
X138420225Y-81540107D01*
X138327568Y-81738812D01*
X138327015Y-81740877D01*
X138327014Y-81740879D01*
X138299264Y-81844446D01*
X138270823Y-81950588D01*
X138270637Y-81952715D01*
X138270636Y-81952720D01*
X138251900Y-82166874D01*
X138251714Y-82169000D01*
X138270823Y-82387412D01*
X138271378Y-82389482D01*
X138271378Y-82389484D01*
X138300128Y-82496780D01*
X138327568Y-82599188D01*
X138420225Y-82797893D01*
X138421451Y-82799643D01*
X138421451Y-82799644D01*
X138537155Y-82964885D01*
X138545980Y-82977489D01*
X138701011Y-83132520D01*
X138702768Y-83133750D01*
X138702770Y-83133752D01*
X138831239Y-83223707D01*
X138880607Y-83258275D01*
X138882541Y-83259177D01*
X138882543Y-83259178D01*
X138898522Y-83266629D01*
X139079312Y-83350932D01*
X139081377Y-83351485D01*
X139081379Y-83351486D01*
X139289016Y-83407122D01*
X139289018Y-83407122D01*
X139291088Y-83407677D01*
X139293215Y-83407863D01*
X139293220Y-83407864D01*
X139507374Y-83426600D01*
X139509500Y-83426786D01*
X139511626Y-83426600D01*
X139725780Y-83407864D01*
X139725785Y-83407863D01*
X139727912Y-83407677D01*
X139729982Y-83407122D01*
X139729984Y-83407122D01*
X139937621Y-83351486D01*
X139937623Y-83351485D01*
X139939688Y-83350932D01*
X140120478Y-83266629D01*
X140136457Y-83259178D01*
X140136459Y-83259177D01*
X140138393Y-83258275D01*
X140187761Y-83223707D01*
X140316230Y-83133752D01*
X140316232Y-83133750D01*
X140317989Y-83132520D01*
X140473020Y-82977489D01*
X140481846Y-82964885D01*
X140597549Y-82799644D01*
X140597549Y-82799643D01*
X140598775Y-82797893D01*
X140680426Y-82622791D01*
X140708075Y-82597455D01*
X140724834Y-82594500D01*
X140972456Y-82594500D01*
X141007104Y-82608852D01*
X141310148Y-82911895D01*
X141324500Y-82946543D01*
X141324500Y-84803456D01*
X141310148Y-84838104D01*
X140990104Y-85158148D01*
X140955456Y-85172500D01*
X140636385Y-85172500D01*
X140601737Y-85158148D01*
X140593121Y-85146504D01*
X140538496Y-85043771D01*
X140537370Y-85041653D01*
X140413361Y-84889602D01*
X140262180Y-84764535D01*
X140089585Y-84671213D01*
X139902152Y-84613193D01*
X139899775Y-84612943D01*
X139899774Y-84612943D01*
X139709402Y-84592933D01*
X139709397Y-84592933D01*
X139707019Y-84592683D01*
X139704634Y-84592900D01*
X139704629Y-84592900D01*
X139609319Y-84601574D01*
X139511618Y-84610466D01*
X139393460Y-84645242D01*
X139325696Y-84665186D01*
X139325694Y-84665187D01*
X139323393Y-84665864D01*
X139149512Y-84756767D01*
X138996600Y-84879711D01*
X138995057Y-84881550D01*
X138872020Y-85028180D01*
X138872017Y-85028184D01*
X138870480Y-85030016D01*
X138832204Y-85099639D01*
X138777747Y-85198697D01*
X138775956Y-85201954D01*
X138716628Y-85388978D01*
X138694757Y-85583963D01*
X138711175Y-85779483D01*
X138711835Y-85781784D01*
X138762969Y-85960107D01*
X138765258Y-85968091D01*
X138766352Y-85970220D01*
X138766353Y-85970222D01*
X138845101Y-86123448D01*
X138854944Y-86142601D01*
X138976818Y-86296369D01*
X138978644Y-86297923D01*
X138978645Y-86297924D01*
X139009548Y-86324224D01*
X139126238Y-86423535D01*
X139128330Y-86424704D01*
X139249405Y-86492371D01*
X139272649Y-86521802D01*
X139274500Y-86535144D01*
X139274500Y-87328750D01*
X139260148Y-87363398D01*
X139248202Y-87372173D01*
X139149512Y-87423767D01*
X139147648Y-87425266D01*
X139147646Y-87425267D01*
X139137950Y-87433063D01*
X138996600Y-87546711D01*
X138995057Y-87548550D01*
X138872020Y-87695180D01*
X138872017Y-87695184D01*
X138870480Y-87697016D01*
X138862918Y-87710771D01*
X138780018Y-87861566D01*
X138775956Y-87868954D01*
X138775232Y-87871235D01*
X138775232Y-87871236D01*
X138768412Y-87892736D01*
X138716628Y-88055978D01*
X138694757Y-88250963D01*
X138694957Y-88253345D01*
X138694957Y-88253349D01*
X138702966Y-88348723D01*
X138711175Y-88446483D01*
X138711835Y-88448784D01*
X138751990Y-88588819D01*
X138765258Y-88635091D01*
X138766352Y-88637220D01*
X138766353Y-88637222D01*
X138852500Y-88804845D01*
X138854944Y-88809601D01*
X138856430Y-88811476D01*
X138856432Y-88811479D01*
X138906351Y-88874461D01*
X138976818Y-88963369D01*
X138978644Y-88964923D01*
X138978645Y-88964924D01*
X139009548Y-88991224D01*
X139126238Y-89090535D01*
X139297513Y-89186257D01*
X139343583Y-89201226D01*
X139481836Y-89246148D01*
X139481840Y-89246149D01*
X139484118Y-89246889D01*
X139678946Y-89270121D01*
X139874576Y-89255068D01*
X140063556Y-89202303D01*
X140065685Y-89201228D01*
X140065689Y-89201226D01*
X140148323Y-89159484D01*
X140238689Y-89113837D01*
X140393303Y-88993040D01*
X140417572Y-88964924D01*
X140519938Y-88846332D01*
X140519942Y-88846327D01*
X140521509Y-88844511D01*
X140580711Y-88740297D01*
X140610304Y-88717259D01*
X140623316Y-88715500D01*
X141573101Y-88715500D01*
X141607749Y-88729852D01*
X141902148Y-89024251D01*
X141916500Y-89058899D01*
X141916500Y-89383689D01*
X141902148Y-89418337D01*
X141891039Y-89426190D01*
X141891193Y-89426449D01*
X141719301Y-89528713D01*
X141719295Y-89528717D01*
X141717371Y-89529862D01*
X141715683Y-89531342D01*
X141715682Y-89531343D01*
X141698998Y-89545975D01*
X141565305Y-89663220D01*
X141563920Y-89664977D01*
X141563917Y-89664980D01*
X141548555Y-89684467D01*
X141440089Y-89822057D01*
X141345914Y-90001053D01*
X141345247Y-90003201D01*
X141345245Y-90003206D01*
X141286605Y-90192061D01*
X141285937Y-90194213D01*
X141285672Y-90196452D01*
X141282313Y-90224836D01*
X141262164Y-90395069D01*
X141275392Y-90596894D01*
X141325178Y-90792928D01*
X141409856Y-90976607D01*
X141526588Y-91141780D01*
X141528192Y-91143343D01*
X141528195Y-91143346D01*
X141590235Y-91203782D01*
X141671466Y-91282913D01*
X141673328Y-91284157D01*
X141673329Y-91284158D01*
X141779842Y-91355328D01*
X141839637Y-91395282D01*
X142025470Y-91475122D01*
X142084374Y-91488451D01*
X142220550Y-91519265D01*
X142220556Y-91519266D01*
X142222740Y-91519760D01*
X142307535Y-91523091D01*
X142422595Y-91527612D01*
X142422598Y-91527612D01*
X142424842Y-91527700D01*
X142427061Y-91527378D01*
X142427066Y-91527378D01*
X142543298Y-91510525D01*
X142625007Y-91498678D01*
X142627129Y-91497958D01*
X142627132Y-91497957D01*
X142790716Y-91442427D01*
X142816531Y-91433664D01*
X142887296Y-91394034D01*
X142991039Y-91335936D01*
X142991041Y-91335935D01*
X142993001Y-91334837D01*
X143055433Y-91282913D01*
X143146782Y-91206938D01*
X143148505Y-91205505D01*
X143169230Y-91180586D01*
X143276401Y-91051728D01*
X143276403Y-91051726D01*
X143277837Y-91050001D01*
X143376664Y-90873531D01*
X143441678Y-90682007D01*
X143470700Y-90481842D01*
X143472215Y-90424000D01*
X143453708Y-90222591D01*
X143398807Y-90027926D01*
X143386617Y-90003206D01*
X143310345Y-89848543D01*
X143309351Y-89846527D01*
X143188335Y-89684467D01*
X143039812Y-89547174D01*
X143014722Y-89531343D01*
X142995979Y-89519517D01*
X142868757Y-89439246D01*
X142848343Y-89431102D01*
X142821480Y-89404933D01*
X142817500Y-89385590D01*
X142817500Y-88881672D01*
X142817840Y-88875913D01*
X142821341Y-88846332D01*
X142822364Y-88837689D01*
X142819004Y-88819292D01*
X142811604Y-88778775D01*
X142811352Y-88777256D01*
X142802994Y-88721664D01*
X142802449Y-88718038D01*
X142800863Y-88714735D01*
X142799839Y-88711407D01*
X142798683Y-88708031D01*
X142798025Y-88704427D01*
X142770425Y-88651293D01*
X142769750Y-88649942D01*
X142745395Y-88599223D01*
X142745394Y-88599221D01*
X142743809Y-88595921D01*
X142741323Y-88593232D01*
X142739264Y-88590202D01*
X142739546Y-88590010D01*
X142738709Y-88588819D01*
X142738429Y-88589008D01*
X142736866Y-88586688D01*
X142735579Y-88584211D01*
X142731275Y-88579172D01*
X142692967Y-88540864D01*
X142691633Y-88539477D01*
X142654342Y-88499135D01*
X142654340Y-88499134D01*
X142651854Y-88496444D01*
X142648687Y-88494605D01*
X142645827Y-88492313D01*
X142645857Y-88492276D01*
X142639446Y-88487343D01*
X142119538Y-87967435D01*
X142115706Y-87963123D01*
X142097766Y-87940367D01*
X142091872Y-87932890D01*
X142088858Y-87930807D01*
X142088856Y-87930805D01*
X142042607Y-87898840D01*
X142041354Y-87897945D01*
X142002103Y-87868954D01*
X141993184Y-87862366D01*
X141989729Y-87861153D01*
X141986628Y-87859511D01*
X141983441Y-87857950D01*
X141980431Y-87855869D01*
X141976940Y-87854765D01*
X141976938Y-87854764D01*
X141923333Y-87837811D01*
X141921915Y-87837338D01*
X141865369Y-87817481D01*
X141861709Y-87817337D01*
X141858110Y-87816651D01*
X141858175Y-87816312D01*
X141856740Y-87816062D01*
X141856675Y-87816397D01*
X141853935Y-87815863D01*
X141851270Y-87815020D01*
X141844663Y-87814500D01*
X141790463Y-87814500D01*
X141788539Y-87814462D01*
X141780853Y-87814160D01*
X141730006Y-87812162D01*
X141726463Y-87813102D01*
X141722826Y-87813503D01*
X141722821Y-87813456D01*
X141714804Y-87814500D01*
X140623092Y-87814500D01*
X140588444Y-87800148D01*
X140579828Y-87788504D01*
X140538496Y-87710771D01*
X140537370Y-87708653D01*
X140413361Y-87556602D01*
X140262180Y-87431535D01*
X140151194Y-87371525D01*
X140127542Y-87342421D01*
X140125500Y-87328422D01*
X140125500Y-86534158D01*
X140139852Y-86499510D01*
X140152406Y-86490422D01*
X140238689Y-86446837D01*
X140393303Y-86326040D01*
X140394871Y-86324224D01*
X140519938Y-86179332D01*
X140519942Y-86179327D01*
X140521509Y-86177511D01*
X140594913Y-86048297D01*
X140624506Y-86025259D01*
X140637518Y-86023500D01*
X141219393Y-86023500D01*
X141223062Y-86022308D01*
X141247972Y-86014215D01*
X141255447Y-86012420D01*
X141273269Y-86009597D01*
X141285126Y-86007719D01*
X141311905Y-85994075D01*
X141318999Y-85991136D01*
X141347581Y-85981849D01*
X141363585Y-85970222D01*
X141371890Y-85964188D01*
X141378445Y-85960171D01*
X141401785Y-85948278D01*
X141405220Y-85946528D01*
X142098528Y-85253220D01*
X142112170Y-85226446D01*
X142116180Y-85219901D01*
X142133850Y-85195581D01*
X142143138Y-85166996D01*
X142146077Y-85159901D01*
X142159719Y-85133126D01*
X142160322Y-85129319D01*
X142160323Y-85129316D01*
X142164420Y-85103446D01*
X142166215Y-85095970D01*
X142174308Y-85071062D01*
X142174308Y-85071061D01*
X142175500Y-85067393D01*
X142175500Y-82682607D01*
X142167343Y-82657501D01*
X142166215Y-82654028D01*
X142164420Y-82646553D01*
X142160322Y-82620682D01*
X142159719Y-82616874D01*
X142146075Y-82590095D01*
X142143136Y-82583001D01*
X142133849Y-82554419D01*
X142131587Y-82551305D01*
X142131584Y-82551300D01*
X142116187Y-82530108D01*
X142112170Y-82523553D01*
X142100278Y-82500215D01*
X142098528Y-82496780D01*
X142003220Y-82401472D01*
X142003218Y-82401471D01*
X141446194Y-81844446D01*
X141422220Y-81820472D01*
X141395445Y-81806829D01*
X141388890Y-81802812D01*
X141367703Y-81787419D01*
X141367702Y-81787418D01*
X141364581Y-81785151D01*
X141335998Y-81775863D01*
X141328905Y-81772925D01*
X141302126Y-81759281D01*
X141290269Y-81757403D01*
X141272447Y-81754580D01*
X141264972Y-81752785D01*
X141240062Y-81744692D01*
X141240061Y-81744692D01*
X141236393Y-81743500D01*
X140724834Y-81743500D01*
X140690186Y-81729148D01*
X140680425Y-81715208D01*
X140676305Y-81706371D01*
X140598775Y-81540107D01*
X140473020Y-81360511D01*
X140375657Y-81263148D01*
X140361305Y-81228500D01*
X140375657Y-81193852D01*
X140410305Y-81179500D01*
X142958437Y-81179500D01*
X142967619Y-81180368D01*
X143001546Y-81186840D01*
X143003189Y-81187184D01*
X143059425Y-81199960D01*
X143095711Y-81208204D01*
X143095712Y-81208204D01*
X143097635Y-81208641D01*
X143099603Y-81208765D01*
X143099604Y-81208765D01*
X143102328Y-81208936D01*
X143107714Y-81209275D01*
X143114657Y-81210214D01*
X143122605Y-81211875D01*
X143122617Y-81211877D01*
X143124539Y-81212278D01*
X143130995Y-81212571D01*
X143134630Y-81212736D01*
X143141591Y-81213554D01*
X143144369Y-81214084D01*
X143151503Y-81215445D01*
X143153461Y-81215500D01*
X143153464Y-81215500D01*
X143185711Y-81216401D01*
X143248299Y-81218149D01*
X143249960Y-81218225D01*
X143322268Y-81222774D01*
X143344675Y-81224184D01*
X143344677Y-81224184D01*
X143346648Y-81224308D01*
X143356704Y-81223322D01*
X143363704Y-81223138D01*
X143369280Y-81223391D01*
X143371826Y-81223507D01*
X143371827Y-81223507D01*
X143373788Y-81223596D01*
X143375740Y-81223370D01*
X143375744Y-81223370D01*
X143383814Y-81222436D01*
X143390814Y-81222130D01*
X143391602Y-81222152D01*
X143400911Y-81222412D01*
X143496902Y-81209604D01*
X143498562Y-81209413D01*
X143553433Y-81204032D01*
X143593008Y-81200152D01*
X143593010Y-81200152D01*
X143594964Y-81199960D01*
X143596862Y-81199458D01*
X143596865Y-81199458D01*
X143604735Y-81197379D01*
X143611617Y-81196079D01*
X143615341Y-81195648D01*
X143621640Y-81194919D01*
X143631368Y-81192167D01*
X143638222Y-81190748D01*
X143646271Y-81189674D01*
X143646274Y-81189673D01*
X143648225Y-81189413D01*
X143650102Y-81188846D01*
X143650108Y-81188845D01*
X143674133Y-81181591D01*
X143688295Y-81179500D01*
X145631962Y-81179500D01*
X145634185Y-81179550D01*
X145721325Y-81183507D01*
X145721327Y-81183507D01*
X145723288Y-81183596D01*
X145725240Y-81183370D01*
X145725244Y-81183370D01*
X145755880Y-81179825D01*
X145761512Y-81179500D01*
X147078694Y-81179500D01*
X147081771Y-81179597D01*
X147154675Y-81184184D01*
X147154677Y-81184184D01*
X147156648Y-81184308D01*
X147196831Y-81180368D01*
X147203297Y-81179734D01*
X147208079Y-81179500D01*
X151639878Y-81179500D01*
X151641246Y-81179519D01*
X151744811Y-81182412D01*
X151826962Y-81171451D01*
X151829503Y-81171180D01*
X151849992Y-81169531D01*
X151910143Y-81164692D01*
X151910148Y-81164691D01*
X151912102Y-81164534D01*
X151914007Y-81164066D01*
X151914020Y-81164064D01*
X151949129Y-81155440D01*
X151954336Y-81154455D01*
X151972291Y-81152059D01*
X151990177Y-81149673D01*
X151990178Y-81149673D01*
X151992125Y-81149413D01*
X152071454Y-81125462D01*
X152073930Y-81124785D01*
X152152497Y-81105487D01*
X152152498Y-81105487D01*
X152154406Y-81105018D01*
X152167910Y-81099286D01*
X152189496Y-81090124D01*
X152194478Y-81088320D01*
X152200528Y-81086493D01*
X152230982Y-81077299D01*
X152305467Y-81040970D01*
X152307801Y-81039906D01*
X152382269Y-81008297D01*
X152382275Y-81008294D01*
X152384077Y-81007529D01*
X152416346Y-80987208D01*
X152420965Y-80984637D01*
X152453466Y-80968786D01*
X152453468Y-80968785D01*
X152455237Y-80967922D01*
X152499727Y-80936538D01*
X152522955Y-80920153D01*
X152525089Y-80918730D01*
X152575814Y-80886786D01*
X152595208Y-80874573D01*
X152623805Y-80849361D01*
X152627963Y-80846077D01*
X152657859Y-80824988D01*
X152657861Y-80824987D01*
X152659119Y-80824099D01*
X152681225Y-80803913D01*
X152723845Y-80761293D01*
X152726089Y-80759186D01*
X152780886Y-80710876D01*
X152780887Y-80710875D01*
X152782365Y-80709572D01*
X152812118Y-80673350D01*
X152815334Y-80669804D01*
X154749736Y-78735402D01*
X154750717Y-78734448D01*
X154824557Y-78664621D01*
X154824558Y-78664620D01*
X154825994Y-78663262D01*
X154876338Y-78597414D01*
X154877929Y-78595443D01*
X154916648Y-78549949D01*
X154931645Y-78532328D01*
X154951398Y-78499711D01*
X154954385Y-78495334D01*
X154976338Y-78466621D01*
X154976340Y-78466618D01*
X154977538Y-78465051D01*
X155016704Y-78392008D01*
X155017972Y-78389785D01*
X155059878Y-78320591D01*
X155059881Y-78320585D01*
X155060896Y-78318909D01*
X155075176Y-78283565D01*
X155077424Y-78278766D01*
X155083593Y-78267260D01*
X155095443Y-78245161D01*
X155104769Y-78218076D01*
X155122421Y-78166812D01*
X155123319Y-78164409D01*
X155136916Y-78130754D01*
X155154363Y-78087572D01*
X155162811Y-78050388D01*
X155164262Y-78045295D01*
X155176032Y-78011112D01*
X155176674Y-78009248D01*
X155190781Y-77927575D01*
X155191281Y-77925073D01*
X155196708Y-77901189D01*
X155209641Y-77844265D01*
X155212035Y-77806209D01*
X155212653Y-77800950D01*
X155218880Y-77764899D01*
X155219142Y-77763383D01*
X155220500Y-77733478D01*
X155220500Y-77673206D01*
X155220597Y-77670129D01*
X155225184Y-77597225D01*
X155225184Y-77597223D01*
X155225308Y-77595252D01*
X155220734Y-77548603D01*
X155220500Y-77543821D01*
X155220500Y-71063957D01*
X155231745Y-71032723D01*
X155297755Y-70952931D01*
X155299283Y-70951084D01*
X155397735Y-70769002D01*
X155458944Y-70571265D01*
X155460722Y-70554348D01*
X155480331Y-70367787D01*
X155480331Y-70367782D01*
X155480581Y-70365404D01*
X155480364Y-70363019D01*
X155480364Y-70363014D01*
X155471201Y-70262333D01*
X155461821Y-70159262D01*
X155403378Y-69960690D01*
X155307478Y-69777251D01*
X155177775Y-69615932D01*
X155019208Y-69482879D01*
X154956828Y-69448585D01*
X154922575Y-69429754D01*
X154909426Y-69419219D01*
X154751876Y-69240514D01*
X154751875Y-69240513D01*
X154750572Y-69239035D01*
X154635606Y-69144601D01*
X154559284Y-69081909D01*
X154559279Y-69081906D01*
X154557770Y-69080666D01*
X154342128Y-68955160D01*
X154109195Y-68865745D01*
X153938188Y-68830020D01*
X153866886Y-68815124D01*
X153866884Y-68815124D01*
X153864961Y-68814722D01*
X153722865Y-68808270D01*
X153617675Y-68803493D01*
X153617673Y-68803493D01*
X153615712Y-68803404D01*
X153613760Y-68803630D01*
X153613756Y-68803630D01*
X153375558Y-68831190D01*
X153367860Y-68832081D01*
X153127781Y-68900017D01*
X153125997Y-68900849D01*
X153125994Y-68900850D01*
X153007409Y-68956147D01*
X152901652Y-69005462D01*
X152900024Y-69006569D01*
X152900023Y-69006569D01*
X152696915Y-69144601D01*
X152696910Y-69144605D01*
X152695290Y-69145706D01*
X152693863Y-69147055D01*
X152693861Y-69147057D01*
X152515439Y-69315782D01*
X152515434Y-69315788D01*
X152514006Y-69317138D01*
X152512812Y-69318700D01*
X152512809Y-69318703D01*
X152441582Y-69411864D01*
X152425660Y-69425366D01*
X152383380Y-69447847D01*
X152333069Y-69474598D01*
X152331211Y-69476113D01*
X152331210Y-69476114D01*
X152201621Y-69581804D01*
X152172660Y-69605424D01*
X152040717Y-69764916D01*
X151942265Y-69946998D01*
X151881056Y-70144735D01*
X151880806Y-70147110D01*
X151880806Y-70147112D01*
X151875387Y-70198675D01*
X151859419Y-70350596D01*
X151859636Y-70352981D01*
X151859636Y-70352986D01*
X151860983Y-70367787D01*
X151878179Y-70556738D01*
X151936622Y-70755310D01*
X152032522Y-70938749D01*
X152034015Y-70940606D01*
X152034021Y-70940615D01*
X152108688Y-71033482D01*
X152119500Y-71064185D01*
X152119500Y-76959866D01*
X152105148Y-76994514D01*
X151035514Y-78064148D01*
X151000866Y-78078500D01*
X147792034Y-78078500D01*
X147757386Y-78064148D01*
X146801293Y-77108055D01*
X146799186Y-77105811D01*
X146750876Y-77051014D01*
X146750875Y-77051013D01*
X146749572Y-77049535D01*
X146713350Y-77019782D01*
X146709804Y-77016566D01*
X144451793Y-74758555D01*
X144449686Y-74756311D01*
X144401376Y-74701514D01*
X144401375Y-74701513D01*
X144400072Y-74700035D01*
X144314420Y-74629680D01*
X144313769Y-74629135D01*
X144230931Y-74558634D01*
X144230930Y-74558633D01*
X144229428Y-74557355D01*
X144227739Y-74556332D01*
X144220791Y-74552124D01*
X144215072Y-74548075D01*
X144208787Y-74542912D01*
X144208786Y-74542911D01*
X144207270Y-74541666D01*
X144178444Y-74524889D01*
X144111483Y-74485917D01*
X144110748Y-74485480D01*
X144017691Y-74429122D01*
X144017685Y-74429119D01*
X144016009Y-74428104D01*
X144006637Y-74424317D01*
X144000368Y-74421246D01*
X143991628Y-74416160D01*
X143989791Y-74415455D01*
X143989785Y-74415452D01*
X143888238Y-74376472D01*
X143887442Y-74376159D01*
X143784672Y-74334637D01*
X143774822Y-74332399D01*
X143768121Y-74330363D01*
X143760530Y-74327449D01*
X143760526Y-74327448D01*
X143758695Y-74326745D01*
X143756779Y-74326345D01*
X143756773Y-74326343D01*
X143650227Y-74304085D01*
X143649391Y-74303902D01*
X143543289Y-74279796D01*
X143543287Y-74279796D01*
X143541365Y-74279359D01*
X143539397Y-74279235D01*
X143539396Y-74279235D01*
X143536672Y-74279064D01*
X143531286Y-74278725D01*
X143524343Y-74277786D01*
X143516395Y-74276126D01*
X143514461Y-74275722D01*
X143466288Y-74273534D01*
X143403793Y-74270696D01*
X143402940Y-74270649D01*
X143294326Y-74263816D01*
X143294324Y-74263816D01*
X143292352Y-74263692D01*
X143282296Y-74264678D01*
X143275296Y-74264862D01*
X143269720Y-74264609D01*
X143267174Y-74264493D01*
X143267173Y-74264493D01*
X143265212Y-74264404D01*
X143263260Y-74264630D01*
X143263256Y-74264630D01*
X143210978Y-74270679D01*
X143155183Y-74277135D01*
X143154381Y-74277221D01*
X143083641Y-74284157D01*
X143045994Y-74287848D01*
X143045993Y-74287848D01*
X143044037Y-74288040D01*
X143034267Y-74290621D01*
X143027390Y-74291921D01*
X143017360Y-74293081D01*
X142979120Y-74303902D01*
X142910720Y-74323257D01*
X142909895Y-74323482D01*
X142804712Y-74351273D01*
X142804710Y-74351274D01*
X142802809Y-74351776D01*
X142801012Y-74352576D01*
X142793581Y-74355884D01*
X142787003Y-74358266D01*
X142777281Y-74361017D01*
X142744138Y-74376472D01*
X142676879Y-74407835D01*
X142676101Y-74408190D01*
X142629087Y-74429122D01*
X142574874Y-74453259D01*
X142573234Y-74454332D01*
X142573227Y-74454336D01*
X142566429Y-74458785D01*
X142560306Y-74462193D01*
X142555389Y-74464486D01*
X142551152Y-74466462D01*
X142549530Y-74467564D01*
X142549527Y-74467566D01*
X142459524Y-74528733D01*
X142458812Y-74529208D01*
X142367741Y-74588802D01*
X142367736Y-74588806D01*
X142366096Y-74589879D01*
X142358632Y-74596695D01*
X142353139Y-74601032D01*
X142346415Y-74605601D01*
X142346410Y-74605605D01*
X142344790Y-74606706D01*
X142343363Y-74608055D01*
X142343361Y-74608057D01*
X142264308Y-74682813D01*
X142263682Y-74683395D01*
X142183303Y-74756792D01*
X142183300Y-74756795D01*
X142181847Y-74758122D01*
X142180625Y-74759664D01*
X142180621Y-74759668D01*
X142175575Y-74766035D01*
X142170839Y-74771203D01*
X142164939Y-74776782D01*
X142164934Y-74776788D01*
X142163506Y-74778138D01*
X142096233Y-74866128D01*
X142095708Y-74866803D01*
X142042522Y-74933907D01*
X142026867Y-74953658D01*
X142021938Y-74962478D01*
X142018094Y-74968329D01*
X142013160Y-74974781D01*
X142013155Y-74974788D01*
X142011962Y-74976349D01*
X142011034Y-74978080D01*
X142011030Y-74978086D01*
X141959582Y-75074037D01*
X141959171Y-75074787D01*
X141905144Y-75171457D01*
X141902949Y-75177487D01*
X141901692Y-75180939D01*
X141898835Y-75187327D01*
X141894057Y-75196239D01*
X141860667Y-75293213D01*
X141857984Y-75301004D01*
X141857710Y-75301780D01*
X141819807Y-75405915D01*
X141818528Y-75412623D01*
X141817915Y-75415834D01*
X141816113Y-75422606D01*
X141812826Y-75432152D01*
X141800971Y-75500787D01*
X141793962Y-75541361D01*
X141793809Y-75542202D01*
X141773424Y-75649068D01*
X141773055Y-75651003D01*
X141773000Y-75652966D01*
X141773000Y-75652967D01*
X141772773Y-75661093D01*
X141772077Y-75668063D01*
X141770620Y-75676497D01*
X141770619Y-75676505D01*
X141770358Y-75678017D01*
X141770289Y-75679546D01*
X141770288Y-75679551D01*
X141769121Y-75705249D01*
X141769000Y-75707922D01*
X141769000Y-75795478D01*
X141768981Y-75796846D01*
X141766088Y-75900411D01*
X141767939Y-75914286D01*
X141768570Y-75919012D01*
X141769000Y-75925493D01*
X141769000Y-78029500D01*
X141754648Y-78064148D01*
X141720000Y-78078500D01*
X140410305Y-78078500D01*
X140375657Y-78064148D01*
X140361305Y-78029500D01*
X140375657Y-77994852D01*
X140473020Y-77897489D01*
X140511666Y-77842298D01*
X140597549Y-77719644D01*
X140597549Y-77719643D01*
X140598775Y-77717893D01*
X140691432Y-77519188D01*
X140748177Y-77307412D01*
X140757302Y-77203123D01*
X140767100Y-77091126D01*
X140767286Y-77089000D01*
X140760949Y-77016566D01*
X140748364Y-76872720D01*
X140748363Y-76872715D01*
X140748177Y-76870588D01*
X140691432Y-76658812D01*
X140610436Y-76485114D01*
X140599678Y-76462043D01*
X140599677Y-76462041D01*
X140598775Y-76460107D01*
X140582367Y-76436674D01*
X140474252Y-76282270D01*
X140474250Y-76282268D01*
X140473020Y-76280511D01*
X140317989Y-76125480D01*
X140294534Y-76109056D01*
X140180129Y-76028949D01*
X140159978Y-75997320D01*
X140168096Y-75960706D01*
X140188304Y-75944047D01*
X140237294Y-75922235D01*
X140254126Y-75914741D01*
X140255766Y-75913668D01*
X140255773Y-75913664D01*
X140262571Y-75909215D01*
X140268694Y-75905807D01*
X140276064Y-75902370D01*
X140276065Y-75902370D01*
X140277848Y-75901538D01*
X140279470Y-75900436D01*
X140279473Y-75900434D01*
X140369476Y-75839267D01*
X140370188Y-75838792D01*
X140461259Y-75779198D01*
X140461264Y-75779194D01*
X140462904Y-75778121D01*
X140470368Y-75771305D01*
X140475861Y-75766968D01*
X140482585Y-75762399D01*
X140482590Y-75762395D01*
X140484210Y-75761294D01*
X140485639Y-75759943D01*
X140564692Y-75685187D01*
X140565318Y-75684605D01*
X140645697Y-75611208D01*
X140645700Y-75611205D01*
X140647153Y-75609878D01*
X140648375Y-75608336D01*
X140648379Y-75608332D01*
X140653425Y-75601965D01*
X140658161Y-75596797D01*
X140664061Y-75591218D01*
X140664066Y-75591212D01*
X140665494Y-75589862D01*
X140732770Y-75501868D01*
X140733292Y-75501197D01*
X140800907Y-75415889D01*
X140800908Y-75415888D01*
X140802133Y-75414342D01*
X140807062Y-75405522D01*
X140810906Y-75399671D01*
X140815840Y-75393219D01*
X140815845Y-75393212D01*
X140817038Y-75391651D01*
X140817966Y-75389920D01*
X140817970Y-75389914D01*
X140869418Y-75293963D01*
X140869829Y-75293213D01*
X140922894Y-75198265D01*
X140922896Y-75198261D01*
X140923856Y-75196543D01*
X140927308Y-75187061D01*
X140930165Y-75180673D01*
X140931229Y-75178687D01*
X140934943Y-75171761D01*
X140971028Y-75066962D01*
X140971301Y-75066190D01*
X141008521Y-74963931D01*
X141009193Y-74962085D01*
X141011085Y-74952166D01*
X141012887Y-74945394D01*
X141015532Y-74937712D01*
X141016174Y-74935848D01*
X141035038Y-74826639D01*
X141035191Y-74825798D01*
X141047805Y-74759668D01*
X141055945Y-74716997D01*
X141056227Y-74706907D01*
X141056923Y-74699937D01*
X141058380Y-74691503D01*
X141058381Y-74691495D01*
X141058642Y-74689983D01*
X141058942Y-74683395D01*
X141059975Y-74660636D01*
X141059975Y-74660621D01*
X141060000Y-74660078D01*
X141060000Y-74572522D01*
X141060019Y-74571154D01*
X141062857Y-74469554D01*
X141062912Y-74467589D01*
X141060430Y-74448987D01*
X141060000Y-74442507D01*
X141060000Y-73243034D01*
X141074352Y-73208386D01*
X141978886Y-72303852D01*
X142013534Y-72289500D01*
X143382191Y-72289500D01*
X143383158Y-72289422D01*
X143383163Y-72289422D01*
X143566243Y-72274692D01*
X143566248Y-72274691D01*
X143568202Y-72274534D01*
X143570106Y-72274066D01*
X143570108Y-72274066D01*
X143808597Y-72215487D01*
X143808598Y-72215487D01*
X143810506Y-72215018D01*
X143812313Y-72214251D01*
X143812316Y-72214250D01*
X144038369Y-72118297D01*
X144038375Y-72118294D01*
X144040177Y-72117529D01*
X144251308Y-71984573D01*
X144438465Y-71819572D01*
X144505593Y-71737849D01*
X144595591Y-71628284D01*
X144595594Y-71628279D01*
X144596834Y-71626770D01*
X144608075Y-71607457D01*
X144721353Y-71412823D01*
X144722340Y-71411128D01*
X144811755Y-71178195D01*
X144862778Y-70933961D01*
X144874096Y-70684712D01*
X144859556Y-70559040D01*
X144845646Y-70438822D01*
X144845419Y-70436860D01*
X144777483Y-70196781D01*
X144758915Y-70156960D01*
X144672871Y-69972438D01*
X144672870Y-69972436D01*
X144672038Y-69970652D01*
X144654532Y-69944893D01*
X144532899Y-69765915D01*
X144532895Y-69765910D01*
X144531794Y-69764290D01*
X144433124Y-69659949D01*
X144361721Y-69584443D01*
X144361720Y-69584442D01*
X144360362Y-69583006D01*
X144280469Y-69521923D01*
X144163721Y-69432662D01*
X144163718Y-69432660D01*
X144162151Y-69431462D01*
X143942261Y-69313557D01*
X143706348Y-69232326D01*
X143460483Y-69189858D01*
X143458954Y-69189789D01*
X143458949Y-69189788D01*
X143431136Y-69188525D01*
X143431121Y-69188525D01*
X143430578Y-69188500D01*
X141374522Y-69188500D01*
X141373154Y-69188481D01*
X141368924Y-69188363D01*
X141269589Y-69185588D01*
X141187438Y-69196549D01*
X141184897Y-69196820D01*
X141164408Y-69198469D01*
X141104257Y-69203308D01*
X141104252Y-69203309D01*
X141102298Y-69203466D01*
X141100393Y-69203934D01*
X141100380Y-69203936D01*
X141065271Y-69212560D01*
X141060064Y-69213545D01*
X141042109Y-69215941D01*
X141024223Y-69218327D01*
X141024222Y-69218327D01*
X141022275Y-69218587D01*
X140974642Y-69232968D01*
X140942944Y-69242538D01*
X140940470Y-69243215D01*
X140859994Y-69262982D01*
X140858180Y-69263752D01*
X140824904Y-69277876D01*
X140819922Y-69279680D01*
X140813872Y-69281507D01*
X140783418Y-69290701D01*
X140740156Y-69311801D01*
X140708933Y-69327030D01*
X140706599Y-69328094D01*
X140632131Y-69359703D01*
X140632125Y-69359706D01*
X140630323Y-69360471D01*
X140598054Y-69380792D01*
X140593439Y-69383361D01*
X140559163Y-69400078D01*
X140557552Y-69401214D01*
X140557551Y-69401215D01*
X140491445Y-69447847D01*
X140489311Y-69449270D01*
X140419192Y-69493427D01*
X140417712Y-69494731D01*
X140417713Y-69494731D01*
X140390596Y-69518638D01*
X140386438Y-69521922D01*
X140355281Y-69543901D01*
X140333175Y-69564087D01*
X140290555Y-69606707D01*
X140288311Y-69608814D01*
X140232035Y-69658428D01*
X140230786Y-69659949D01*
X140202282Y-69694650D01*
X140199066Y-69698196D01*
X138429764Y-71467498D01*
X138428783Y-71468452D01*
X138353506Y-71539638D01*
X138303162Y-71605486D01*
X138301573Y-71607455D01*
X138247855Y-71670572D01*
X138246834Y-71672258D01*
X138246831Y-71672262D01*
X138228102Y-71703188D01*
X138225115Y-71707566D01*
X138201962Y-71737849D01*
X138201030Y-71739586D01*
X138201030Y-71739587D01*
X138162799Y-71810887D01*
X138161531Y-71813110D01*
X138157617Y-71819572D01*
X138119622Y-71882309D01*
X138119619Y-71882315D01*
X138118604Y-71883991D01*
X138117868Y-71885813D01*
X138104324Y-71919335D01*
X138102076Y-71924134D01*
X138084057Y-71957739D01*
X138083415Y-71959604D01*
X138083414Y-71959606D01*
X138065045Y-72012954D01*
X138040195Y-72041042D01*
X138018715Y-72046001D01*
X132865537Y-72046001D01*
X132864169Y-72045982D01*
X132858072Y-72045812D01*
X132760589Y-72043089D01*
X132678439Y-72054050D01*
X132675894Y-72054322D01*
X132663946Y-72055283D01*
X132595257Y-72060809D01*
X132595253Y-72060810D01*
X132593297Y-72060967D01*
X132591393Y-72061435D01*
X132591391Y-72061435D01*
X132576593Y-72065070D01*
X132556265Y-72070063D01*
X132551066Y-72071045D01*
X132537637Y-72072837D01*
X132515220Y-72075828D01*
X132515216Y-72075829D01*
X132513274Y-72076088D01*
X132511392Y-72076656D01*
X132511393Y-72076656D01*
X132433943Y-72100039D01*
X132431469Y-72100716D01*
X132359893Y-72118297D01*
X132350993Y-72120483D01*
X132349179Y-72121253D01*
X132315903Y-72135377D01*
X132310921Y-72137181D01*
X132274417Y-72148202D01*
X132231151Y-72169304D01*
X132199934Y-72184530D01*
X132197600Y-72185594D01*
X132121322Y-72217972D01*
X132119662Y-72219017D01*
X132119653Y-72219022D01*
X132089057Y-72238289D01*
X132084428Y-72240865D01*
X132051938Y-72256712D01*
X132051926Y-72256719D01*
X132050163Y-72257579D01*
X132026128Y-72274534D01*
X131982451Y-72305344D01*
X131980317Y-72306767D01*
X131910191Y-72350928D01*
X131881584Y-72376148D01*
X131877436Y-72379424D01*
X131846280Y-72401402D01*
X131824174Y-72421588D01*
X131781554Y-72464208D01*
X131779310Y-72466315D01*
X131723034Y-72515929D01*
X131721785Y-72517450D01*
X131693281Y-72552151D01*
X131690065Y-72555697D01*
X131291067Y-72954695D01*
X131275565Y-72965152D01*
X131170631Y-73009693D01*
X131170625Y-73009696D01*
X131168823Y-73010461D01*
X130957692Y-73143417D01*
X130770535Y-73308418D01*
X130623580Y-73487325D01*
X130590499Y-73504988D01*
X130554615Y-73494086D01*
X130544975Y-73483445D01*
X130519421Y-73445202D01*
X130503669Y-73421627D01*
X130032373Y-72950331D01*
X129933264Y-72884108D01*
X129898616Y-72869756D01*
X129896253Y-72869286D01*
X129896250Y-72869285D01*
X129840160Y-72858128D01*
X129781704Y-72846500D01*
X125996296Y-72846500D01*
X125937840Y-72858128D01*
X125881750Y-72869285D01*
X125881747Y-72869286D01*
X125879384Y-72869756D01*
X125844736Y-72884108D01*
X125745627Y-72950331D01*
X125274331Y-73421627D01*
X125208108Y-73520736D01*
X125193756Y-73555384D01*
X125193286Y-73557747D01*
X125193285Y-73557750D01*
X125188203Y-73583299D01*
X125170500Y-73672296D01*
X125170500Y-78106440D01*
X125156148Y-78141088D01*
X125121500Y-78155440D01*
X125086852Y-78141088D01*
X125078958Y-78130754D01*
X125068771Y-78112930D01*
X125067868Y-78111350D01*
X125060070Y-78101458D01*
X125056454Y-78096195D01*
X125050949Y-78086942D01*
X125050949Y-78086941D01*
X125050019Y-78085379D01*
X125045829Y-78080250D01*
X124975573Y-77994262D01*
X124975037Y-77993595D01*
X124954915Y-77968070D01*
X124902190Y-77901189D01*
X124899871Y-77899007D01*
X124823307Y-77826983D01*
X124822233Y-77825941D01*
X123167804Y-76171513D01*
X123165895Y-76169493D01*
X123111953Y-76109056D01*
X123110740Y-76107697D01*
X123093258Y-76093157D01*
X123020301Y-76032480D01*
X123019648Y-76031928D01*
X122931862Y-75956286D01*
X122931861Y-75956285D01*
X122930482Y-75955097D01*
X122928941Y-75954125D01*
X122928932Y-75954118D01*
X122919838Y-75948380D01*
X122914660Y-75944619D01*
X122904988Y-75936575D01*
X122804397Y-75875535D01*
X122803670Y-75875085D01*
X122746902Y-75839267D01*
X122704154Y-75812295D01*
X122692642Y-75807230D01*
X122686954Y-75804269D01*
X122677750Y-75798683D01*
X122677746Y-75798681D01*
X122676202Y-75797744D01*
X122674061Y-75796846D01*
X122567691Y-75752241D01*
X122566905Y-75751903D01*
X122482791Y-75714892D01*
X122459205Y-75704514D01*
X122457447Y-75704035D01*
X122457442Y-75704033D01*
X122447064Y-75701204D01*
X122441003Y-75699117D01*
X122429409Y-75694255D01*
X122427645Y-75693807D01*
X122427639Y-75693805D01*
X122341287Y-75671875D01*
X122315406Y-75665302D01*
X122314610Y-75665094D01*
X122273450Y-75653872D01*
X122202770Y-75634602D01*
X122202764Y-75634601D01*
X122201015Y-75634124D01*
X122193906Y-75633282D01*
X122188522Y-75632645D01*
X122182225Y-75631478D01*
X122170030Y-75628381D01*
X122122151Y-75623560D01*
X122052943Y-75616591D01*
X122052093Y-75616498D01*
X121990094Y-75609160D01*
X121935257Y-75602670D01*
X121933447Y-75602725D01*
X121933441Y-75602725D01*
X121827012Y-75605977D01*
X121825516Y-75606000D01*
X119497447Y-75606000D01*
X119494669Y-75605921D01*
X119492191Y-75605780D01*
X119411989Y-75601226D01*
X119410173Y-75601393D01*
X119410167Y-75601393D01*
X119326108Y-75609117D01*
X119294824Y-75611991D01*
X119294008Y-75612060D01*
X119241633Y-75615952D01*
X119178437Y-75620648D01*
X119178434Y-75620648D01*
X119176623Y-75620783D01*
X119174850Y-75621184D01*
X119174851Y-75621184D01*
X119164349Y-75623560D01*
X119158020Y-75624562D01*
X119145499Y-75625713D01*
X119134596Y-75628381D01*
X119031221Y-75653676D01*
X119030390Y-75653872D01*
X118915609Y-75679845D01*
X118913932Y-75680497D01*
X118913916Y-75680502D01*
X118903882Y-75684404D01*
X118897774Y-75686330D01*
X118887319Y-75688889D01*
X118887315Y-75688890D01*
X118885555Y-75689321D01*
X118776570Y-75733908D01*
X118775832Y-75734201D01*
X118666191Y-75776838D01*
X118655259Y-75783086D01*
X118649524Y-75785883D01*
X118637868Y-75790652D01*
X118636304Y-75791583D01*
X118636303Y-75791583D01*
X118536714Y-75850832D01*
X118535995Y-75851252D01*
X118433850Y-75909632D01*
X118423958Y-75917430D01*
X118418698Y-75921044D01*
X118407879Y-75927481D01*
X118406474Y-75928629D01*
X118406471Y-75928631D01*
X118316762Y-76001927D01*
X118316098Y-76002461D01*
X118223689Y-76075310D01*
X118222450Y-76076627D01*
X118222449Y-76076628D01*
X118149483Y-76154193D01*
X118148441Y-76155267D01*
X117098775Y-77204934D01*
X116049513Y-78254196D01*
X116047493Y-78256105D01*
X115985697Y-78311260D01*
X115984531Y-78312662D01*
X115984530Y-78312663D01*
X115910480Y-78401699D01*
X115909928Y-78402352D01*
X115833097Y-78491518D01*
X115832125Y-78493059D01*
X115832118Y-78493068D01*
X115826380Y-78502162D01*
X115822619Y-78507340D01*
X115814575Y-78517012D01*
X115813635Y-78518561D01*
X115753535Y-78617603D01*
X115753085Y-78618330D01*
X115690295Y-78717846D01*
X115689561Y-78719515D01*
X115685230Y-78729358D01*
X115682269Y-78735045D01*
X115675744Y-78745798D01*
X115675045Y-78747466D01*
X115675044Y-78747467D01*
X115630241Y-78854309D01*
X115629903Y-78855095D01*
X115604601Y-78912598D01*
X115582514Y-78962795D01*
X115582035Y-78964553D01*
X115582033Y-78964558D01*
X115579204Y-78974936D01*
X115577117Y-78980997D01*
X115572255Y-78992591D01*
X115571807Y-78994355D01*
X115571805Y-78994361D01*
X115543307Y-79106576D01*
X115543090Y-79107404D01*
X115512730Y-79218764D01*
X115512124Y-79220985D01*
X115511910Y-79222794D01*
X115510645Y-79233478D01*
X115509478Y-79239774D01*
X115506381Y-79251970D01*
X115502165Y-79293842D01*
X115494591Y-79369057D01*
X115494498Y-79369907D01*
X115480670Y-79486743D01*
X115480725Y-79488553D01*
X115480725Y-79488559D01*
X115483977Y-79594988D01*
X115484000Y-79596484D01*
X115484000Y-82871944D01*
X115484067Y-82872839D01*
X115484067Y-82872852D01*
X115491712Y-82975730D01*
X115498783Y-83070877D01*
X115499183Y-83072644D01*
X115499183Y-83072645D01*
X115543078Y-83266629D01*
X115557845Y-83331891D01*
X115558508Y-83333596D01*
X115620951Y-83494169D01*
X115654838Y-83581309D01*
X115787632Y-83813650D01*
X115953310Y-84023811D01*
X116148231Y-84207175D01*
X116368115Y-84359714D01*
X116369745Y-84360518D01*
X116369747Y-84360519D01*
X116413655Y-84382172D01*
X116608129Y-84478076D01*
X116609866Y-84478632D01*
X116609871Y-84478634D01*
X116841160Y-84552670D01*
X116863003Y-84559662D01*
X116864787Y-84559952D01*
X116864793Y-84559954D01*
X117067298Y-84592933D01*
X117127136Y-84602678D01*
X117128956Y-84602702D01*
X117128958Y-84602702D01*
X117223422Y-84603938D01*
X117394726Y-84606181D01*
X117396526Y-84605936D01*
X117396527Y-84605936D01*
X117658087Y-84570339D01*
X117658086Y-84570339D01*
X117659895Y-84570093D01*
X117916817Y-84495208D01*
X118159848Y-84383169D01*
X118184222Y-84367189D01*
X118233371Y-84334965D01*
X118383649Y-84236438D01*
X118583303Y-84058240D01*
X118585584Y-84055498D01*
X118753263Y-83853885D01*
X118754425Y-83852488D01*
X118893256Y-83623702D01*
X118900912Y-83605446D01*
X118996040Y-83378590D01*
X118996745Y-83376909D01*
X119062619Y-83117530D01*
X119085000Y-82895259D01*
X119085000Y-80331588D01*
X119099352Y-80296940D01*
X120174939Y-79221352D01*
X120209587Y-79207000D01*
X121090412Y-79207000D01*
X121125060Y-79221352D01*
X121756148Y-79852439D01*
X121770500Y-79887087D01*
X121770500Y-81982944D01*
X121770567Y-81983839D01*
X121770567Y-81983852D01*
X121785148Y-82180066D01*
X121785283Y-82181877D01*
X121785683Y-82183644D01*
X121785683Y-82183645D01*
X121840716Y-82426852D01*
X121844345Y-82442891D01*
X121941338Y-82692309D01*
X121942236Y-82693880D01*
X122001048Y-82796780D01*
X122005781Y-82833984D01*
X121993154Y-82855743D01*
X121452435Y-83396462D01*
X121448123Y-83400294D01*
X121417890Y-83424128D01*
X121415807Y-83427142D01*
X121415805Y-83427144D01*
X121383840Y-83473393D01*
X121382945Y-83474646D01*
X121378654Y-83480456D01*
X121347366Y-83522816D01*
X121346153Y-83526271D01*
X121344511Y-83529372D01*
X121342950Y-83532559D01*
X121340869Y-83535569D01*
X121339765Y-83539060D01*
X121339764Y-83539062D01*
X121322811Y-83592667D01*
X121322338Y-83594085D01*
X121302481Y-83650631D01*
X121302337Y-83654291D01*
X121301651Y-83657890D01*
X121301312Y-83657825D01*
X121301062Y-83659260D01*
X121301397Y-83659325D01*
X121300863Y-83662065D01*
X121300020Y-83664730D01*
X121299500Y-83671337D01*
X121299500Y-83725537D01*
X121299462Y-83727461D01*
X121297162Y-83785994D01*
X121298102Y-83789537D01*
X121298503Y-83793174D01*
X121298456Y-83793179D01*
X121299500Y-83801196D01*
X121299500Y-91750500D01*
X121285148Y-91785148D01*
X121250500Y-91799500D01*
X113456899Y-91799500D01*
X113422251Y-91785148D01*
X112669352Y-91032249D01*
X112655000Y-90997601D01*
X112655000Y-84587318D01*
X112669352Y-84552670D01*
X112693185Y-84539526D01*
X112714348Y-84534738D01*
X112730611Y-84531058D01*
X112730614Y-84531057D01*
X112732391Y-84530655D01*
X112781947Y-84511384D01*
X112980117Y-84434320D01*
X112981809Y-84433662D01*
X113214150Y-84300868D01*
X113424311Y-84135190D01*
X113607675Y-83940269D01*
X113760214Y-83720385D01*
X113779470Y-83681339D01*
X113824969Y-83589076D01*
X113878576Y-83480371D01*
X113881668Y-83470714D01*
X113959608Y-83227228D01*
X113959608Y-83227227D01*
X113960162Y-83225497D01*
X113969127Y-83170453D01*
X114002885Y-82963163D01*
X114003178Y-82961364D01*
X114003805Y-82913512D01*
X114004561Y-82855743D01*
X114006681Y-82693774D01*
X114001745Y-82657501D01*
X113970839Y-82430413D01*
X113970593Y-82428605D01*
X113895708Y-82171683D01*
X113783669Y-81928652D01*
X113636938Y-81704851D01*
X113458740Y-81505197D01*
X113252988Y-81334075D01*
X113024202Y-81195244D01*
X113022528Y-81194542D01*
X113022524Y-81194540D01*
X112779090Y-81092460D01*
X112779091Y-81092460D01*
X112777409Y-81091755D01*
X112518030Y-81025881D01*
X112516216Y-81025698D01*
X112516214Y-81025698D01*
X112452715Y-81019304D01*
X112295759Y-81003500D01*
X110879000Y-81003500D01*
X110844352Y-80989148D01*
X110830000Y-80954500D01*
X110830000Y-77402056D01*
X110822809Y-77305280D01*
X110815352Y-77204934D01*
X110815351Y-77204928D01*
X110815217Y-77203123D01*
X110793197Y-77105811D01*
X110756558Y-76943889D01*
X110756557Y-76943886D01*
X110756155Y-76942109D01*
X110659162Y-76692691D01*
X110540522Y-76485114D01*
X110527266Y-76461921D01*
X110527265Y-76461920D01*
X110526368Y-76460350D01*
X110384594Y-76280511D01*
X110361820Y-76251622D01*
X110361818Y-76251620D01*
X110360690Y-76250189D01*
X110165769Y-76066825D01*
X109945885Y-75914286D01*
X109928692Y-75905807D01*
X109793265Y-75839022D01*
X109705871Y-75795924D01*
X109704134Y-75795368D01*
X109704129Y-75795366D01*
X109452728Y-75714892D01*
X109452727Y-75714892D01*
X109450997Y-75714338D01*
X109449213Y-75714048D01*
X109449207Y-75714046D01*
X109348668Y-75697673D01*
X109321896Y-75683958D01*
X107488202Y-73850264D01*
X107487248Y-73849283D01*
X107417421Y-73775443D01*
X107417420Y-73775442D01*
X107416062Y-73774006D01*
X107350214Y-73723662D01*
X107348243Y-73722071D01*
X107295998Y-73677606D01*
X107285128Y-73668355D01*
X107283442Y-73667334D01*
X107283438Y-73667331D01*
X107252512Y-73648602D01*
X107248134Y-73645615D01*
X107219421Y-73623662D01*
X107219418Y-73623660D01*
X107217851Y-73622462D01*
X107144808Y-73583296D01*
X107142585Y-73582028D01*
X107073391Y-73540122D01*
X107073385Y-73540119D01*
X107071709Y-73539104D01*
X107059872Y-73534322D01*
X107036365Y-73524824D01*
X107031566Y-73522576D01*
X107011500Y-73511817D01*
X106997961Y-73504557D01*
X106988270Y-73501220D01*
X106919612Y-73477579D01*
X106917209Y-73476681D01*
X106887491Y-73464674D01*
X106840372Y-73445637D01*
X106803188Y-73437189D01*
X106798099Y-73435739D01*
X106762048Y-73423326D01*
X106680375Y-73409219D01*
X106677886Y-73408722D01*
X106597065Y-73390359D01*
X106595101Y-73390235D01*
X106595098Y-73390235D01*
X106575546Y-73389005D01*
X106559009Y-73387965D01*
X106553753Y-73387347D01*
X106516183Y-73380858D01*
X106514654Y-73380789D01*
X106514649Y-73380788D01*
X106486836Y-73379525D01*
X106486821Y-73379525D01*
X106486278Y-73379500D01*
X106426006Y-73379500D01*
X106422929Y-73379403D01*
X106350025Y-73374816D01*
X106350023Y-73374816D01*
X106348052Y-73374692D01*
X106309006Y-73378521D01*
X106301403Y-73379266D01*
X106296621Y-73379500D01*
X102423134Y-73379500D01*
X102388486Y-73365148D01*
X101742452Y-72719114D01*
X101728100Y-72684466D01*
X101728100Y-69279309D01*
X101727985Y-69277876D01*
X101713292Y-69095257D01*
X101713291Y-69095252D01*
X101713134Y-69093298D01*
X101657143Y-68865343D01*
X101654087Y-68852903D01*
X101654087Y-68852902D01*
X101653618Y-68850994D01*
X101645494Y-68831854D01*
X101556897Y-68623131D01*
X101556894Y-68623125D01*
X101556129Y-68621323D01*
X101423173Y-68410192D01*
X101258172Y-68223035D01*
X101121440Y-68110722D01*
X101109278Y-68095862D01*
X101062128Y-68007187D01*
X101061002Y-68005069D01*
X100930176Y-67844660D01*
X100770684Y-67712717D01*
X100588602Y-67614265D01*
X100390865Y-67553056D01*
X100388490Y-67552806D01*
X100388488Y-67552806D01*
X100187387Y-67531669D01*
X100187382Y-67531669D01*
X100185004Y-67531419D01*
X100182619Y-67531636D01*
X100182614Y-67531636D01*
X100081933Y-67540799D01*
X99978862Y-67550179D01*
X99837157Y-67591885D01*
X99782593Y-67607944D01*
X99782591Y-67607945D01*
X99780290Y-67608622D01*
X99596851Y-67704522D01*
X99435532Y-67834225D01*
X99302479Y-67992792D01*
X99301324Y-67994893D01*
X99247383Y-68093011D01*
X99231986Y-68109932D01*
X99204515Y-68128601D01*
X99204510Y-68128605D01*
X99202890Y-68129706D01*
X99021606Y-68301138D01*
X99020405Y-68302709D01*
X99020404Y-68302710D01*
X98936953Y-68411860D01*
X98870062Y-68499349D01*
X98752157Y-68719239D01*
X98670926Y-68955152D01*
X98628458Y-69201017D01*
X98628389Y-69202546D01*
X98628388Y-69202551D01*
X98627905Y-69213194D01*
X98627100Y-69230922D01*
X98627100Y-73323478D01*
X98627081Y-73324846D01*
X98624188Y-73428411D01*
X97500000Y-73428411D01*
X97500000Y-65549000D01*
X97514352Y-65514352D01*
X97549000Y-65500000D01*
X157951000Y-65500000D01*
X157985648Y-65514352D01*
G37*
%TD.AperFunction*%
%TD*%
%TA.AperFunction,Conductor*%
%TO.N,Net-(D1-Pad1)*%
G36*
X129816352Y-73166352D02*
G01*
X130287648Y-73637648D01*
X130302000Y-73672296D01*
X130302000Y-75692000D01*
X131026096Y-75692000D01*
X131049251Y-75697816D01*
X131266739Y-75814433D01*
X131502652Y-75895664D01*
X131748517Y-75938132D01*
X131750046Y-75938201D01*
X131750051Y-75938202D01*
X131777864Y-75939465D01*
X131777879Y-75939465D01*
X131778422Y-75939490D01*
X132025988Y-75939490D01*
X132027356Y-75939509D01*
X132130921Y-75942402D01*
X132213072Y-75931441D01*
X132215613Y-75931170D01*
X132236102Y-75929521D01*
X132296253Y-75924682D01*
X132296258Y-75924681D01*
X132298212Y-75924524D01*
X132300117Y-75924056D01*
X132300130Y-75924054D01*
X132335239Y-75915430D01*
X132340446Y-75914445D01*
X132358401Y-75912049D01*
X132376287Y-75909663D01*
X132376288Y-75909663D01*
X132378235Y-75909403D01*
X132457564Y-75885452D01*
X132460040Y-75884775D01*
X132538607Y-75865477D01*
X132538608Y-75865477D01*
X132540516Y-75865008D01*
X132542367Y-75864222D01*
X132575606Y-75850114D01*
X132580588Y-75848310D01*
X132586638Y-75846483D01*
X132617092Y-75837289D01*
X132691577Y-75800960D01*
X132693911Y-75799896D01*
X132768379Y-75768287D01*
X132768385Y-75768284D01*
X132770187Y-75767519D01*
X132802456Y-75747198D01*
X132807075Y-75744627D01*
X132839576Y-75728776D01*
X132839578Y-75728775D01*
X132841347Y-75727912D01*
X132879555Y-75700960D01*
X132907799Y-75692000D01*
X133083704Y-75692000D01*
X133118352Y-75706352D01*
X133589648Y-76177648D01*
X133604000Y-76212296D01*
X133604000Y-77965704D01*
X133589648Y-78000352D01*
X133118352Y-78471648D01*
X133083704Y-78486000D01*
X132414041Y-78486000D01*
X132393333Y-78481409D01*
X132372400Y-78471648D01*
X132319688Y-78447068D01*
X132317623Y-78446515D01*
X132317621Y-78446514D01*
X132109984Y-78390878D01*
X132109982Y-78390878D01*
X132107912Y-78390323D01*
X132105785Y-78390137D01*
X132105780Y-78390136D01*
X131891626Y-78371400D01*
X131889500Y-78371214D01*
X131887374Y-78371400D01*
X131673220Y-78390136D01*
X131673215Y-78390137D01*
X131671088Y-78390323D01*
X131669018Y-78390878D01*
X131669016Y-78390878D01*
X131461379Y-78446514D01*
X131461377Y-78446515D01*
X131459312Y-78447068D01*
X131406600Y-78471648D01*
X131385667Y-78481409D01*
X131364959Y-78486000D01*
X130556000Y-78486000D01*
X130556000Y-83299704D01*
X130541648Y-83334352D01*
X130070352Y-83805648D01*
X130035704Y-83820000D01*
X125996296Y-83820000D01*
X125961648Y-83805648D01*
X125490352Y-83334352D01*
X125476000Y-83299704D01*
X125476000Y-73672296D01*
X125490352Y-73637648D01*
X125961648Y-73166352D01*
X125996296Y-73152000D01*
X129781704Y-73152000D01*
X129816352Y-73166352D01*
G37*
%TD.AperFunction*%
%TD*%
M02*
