%TF.GenerationSoftware,KiCad,Pcbnew,(6.0.8)*%
%TF.CreationDate,2022-11-19T23:49:12+04:00*%
%TF.ProjectId,panel,70616e65-6c2e-46b6-9963-61645f706362,rev?*%
%TF.SameCoordinates,Original*%
%TF.FileFunction,Drillmap*%
%TF.FilePolarity,Positive*%
%FSLAX45Y45*%
G04 Gerber Fmt 4.5, Leading zero omitted, Abs format (unit mm)*
G04 Created by KiCad (PCBNEW (6.0.8)) date 2022-11-19 23:49:12*
%MOMM*%
%LPD*%
G01*
G04 APERTURE LIST*
%ADD10C,0.100000*%
%ADD11C,0.050000*%
%ADD12C,0.200000*%
%ADD13C,0.070000*%
%ADD14C,0.076200*%
%ADD15C,0.080000*%
%ADD16C,0.081280*%
%ADD17C,0.100076*%
%ADD18C,0.119888*%
%ADD19C,0.120000*%
%ADD20C,0.140000*%
G04 APERTURE END LIST*
D10*
X6100000Y-6500000D02*
X6000000Y-6500000D01*
D11*
X6000000Y-12800000D02*
X6000000Y-10550000D01*
X11800000Y-12800000D02*
X6000000Y-12800000D01*
D10*
X11500000Y-10250000D02*
X11500000Y-7650000D01*
X11300000Y-10350000D02*
X10950000Y-10350000D01*
X8600000Y-8700000D02*
X6500000Y-8700000D01*
X6500000Y-3400000D02*
X8650000Y-3400000D01*
X10950000Y-10550000D02*
X11800000Y-10550000D01*
X11500000Y-7250000D02*
X11500000Y-6500000D01*
X16000000Y-6300000D02*
X14350000Y-6300000D01*
X11300000Y-7650000D02*
X11300000Y-8700000D01*
X10550000Y-8700000D02*
X9000000Y-8700000D01*
X14400000Y-3400000D02*
X16000000Y-3400000D01*
X11300000Y-8700000D02*
X10950000Y-8700000D01*
X8550000Y-10550000D02*
X6500000Y-10550000D01*
X11300000Y-6500000D02*
X11300000Y-7250000D01*
D11*
X16000000Y-6500000D02*
X16000000Y-10250000D01*
X6000000Y-6300000D02*
X6000000Y-3400000D01*
D10*
X11800000Y-10550000D02*
X11800000Y-11500000D01*
X11800000Y-3200000D02*
X14000000Y-3200000D01*
X6500000Y-10350000D02*
X8550000Y-10350000D01*
X6100000Y-10550000D02*
X6000000Y-10550000D01*
X12000000Y-11500000D02*
X12000000Y-10450000D01*
X11800000Y-11900000D02*
X11800000Y-12800000D01*
X6500000Y-8900000D02*
X8600000Y-8900000D01*
X14400000Y-6500000D02*
X16000000Y-6500000D01*
X14400000Y-3200000D02*
X16000000Y-3200000D01*
D11*
X6000000Y-8700000D02*
X6000000Y-6500000D01*
D10*
X6500000Y-3200000D02*
X8650000Y-3200000D01*
X12150000Y-4900000D02*
X12150000Y-6300000D01*
X12000000Y-10450000D02*
X13600000Y-10450000D01*
X11800000Y-3400000D02*
X12150000Y-3400000D01*
X12350000Y-3400000D02*
X12350000Y-4500000D01*
X6100000Y-8900000D02*
X6000000Y-8900000D01*
X11000000Y-6500000D02*
X11300000Y-6500000D01*
X6000000Y-3200000D02*
X6000000Y-2900000D01*
X12150000Y-6300000D02*
X12000000Y-6300000D01*
X16000000Y-2900000D02*
X16000000Y-3200000D01*
X8600000Y-6300000D02*
X6500000Y-6300000D01*
X14000000Y-6300000D02*
X12350000Y-6300000D01*
X10550000Y-8900000D02*
X9000000Y-8900000D01*
X16000000Y-3400000D02*
X16000000Y-6300000D01*
X11300000Y-8900000D02*
X11300000Y-10350000D01*
X6000000Y-2900000D02*
X16000000Y-2900000D01*
X12000000Y-6500000D02*
X14000000Y-6500000D01*
X16000000Y-10450000D02*
X16000000Y-12800000D01*
X14000000Y-3400000D02*
X12350000Y-3400000D01*
X11500000Y-6500000D02*
X11600000Y-6500000D01*
X12350000Y-6300000D02*
X12350000Y-4900000D01*
X6500000Y-6500000D02*
X8600000Y-6500000D01*
X12150000Y-4500000D02*
X12150000Y-3400000D01*
X6100000Y-6300000D02*
X6000000Y-6300000D01*
X6100000Y-3200000D02*
X6000000Y-3200000D01*
X6000000Y-10350000D02*
X6150000Y-10350000D01*
X9000000Y-6500000D02*
X10600000Y-6500000D01*
X9000000Y-6300000D02*
X10600000Y-6300000D01*
X9050000Y-3200000D02*
X11400000Y-3200000D01*
X13600000Y-10250000D02*
X11500000Y-10250000D01*
X10550000Y-10350000D02*
X8950000Y-10350000D01*
X12000000Y-12800000D02*
X12000000Y-11900000D01*
X6100000Y-8700000D02*
X6000000Y-8700000D01*
X11000000Y-6300000D02*
X11600000Y-6300000D01*
X16000000Y-12800000D02*
X12000000Y-12800000D01*
X6100000Y-3400000D02*
X6000000Y-3400000D01*
X6000000Y-8900000D02*
X6000000Y-10350000D01*
X10550000Y-10550000D02*
X8950000Y-10550000D01*
X14000000Y-10250000D02*
X16000000Y-10250000D01*
X10950000Y-8900000D02*
X11300000Y-8900000D01*
X14000000Y-10450000D02*
X16000000Y-10450000D01*
X9050000Y-3400000D02*
X11400000Y-3400000D01*
D12*
D13*
X9685110Y-8411800D02*
X9755110Y-8481800D01*
X9755110Y-8411800D02*
X9685110Y-8481800D01*
X9686380Y-8082870D02*
X9756380Y-8152870D01*
X9756380Y-8082870D02*
X9686380Y-8152870D01*
X10185110Y-12456300D02*
X10255110Y-12526300D01*
X10255110Y-12456300D02*
X10185110Y-12526300D01*
X10186380Y-12127370D02*
X10256380Y-12197370D01*
X10256380Y-12127370D02*
X10186380Y-12197370D01*
X10235000Y-5424800D02*
X10305000Y-5494800D01*
X10305000Y-5424800D02*
X10235000Y-5494800D01*
X10235000Y-5691500D02*
X10305000Y-5761500D01*
X10305000Y-5691500D02*
X10235000Y-5761500D01*
X10447110Y-8411800D02*
X10517110Y-8481800D01*
X10517110Y-8411800D02*
X10447110Y-8481800D01*
X10448380Y-8082870D02*
X10518380Y-8152870D01*
X10518380Y-8082870D02*
X10448380Y-8152870D01*
X10947110Y-12456300D02*
X11017110Y-12526300D01*
X11017110Y-12456300D02*
X10947110Y-12526300D01*
X10948380Y-12127370D02*
X11018380Y-12197370D01*
X11018380Y-12127370D02*
X10948380Y-12197370D01*
X10997000Y-5424800D02*
X11067000Y-5494800D01*
X11067000Y-5424800D02*
X10997000Y-5494800D01*
X10997000Y-5691500D02*
X11067000Y-5761500D01*
X11067000Y-5691500D02*
X10997000Y-5761500D01*
X15351800Y-8440800D02*
X15421800Y-8510800D01*
X15421800Y-8440800D02*
X15351800Y-8510800D01*
X15351800Y-9202800D02*
X15421800Y-9272800D01*
X15421800Y-9202800D02*
X15351800Y-9272800D01*
X15656600Y-8440800D02*
X15726600Y-8510800D01*
X15726600Y-8440800D02*
X15656600Y-8510800D01*
X15656600Y-9202800D02*
X15726600Y-9272800D01*
X15726600Y-9202800D02*
X15656600Y-9272800D01*
D14*
X8641880Y-7336820D02*
G75*
G03*
X8641880Y-7336820I-38100J0D01*
G01*
X8641880Y-7590820D02*
G75*
G03*
X8641880Y-7590820I-38100J0D01*
G01*
X8641880Y-7844820D02*
G75*
G03*
X8641880Y-7844820I-38100J0D01*
G01*
X8641880Y-8098820D02*
G75*
G03*
X8641880Y-8098820I-38100J0D01*
G01*
X9141880Y-11381320D02*
G75*
G03*
X9141880Y-11381320I-38100J0D01*
G01*
X9141880Y-11635320D02*
G75*
G03*
X9141880Y-11635320I-38100J0D01*
G01*
X9141880Y-11889320D02*
G75*
G03*
X9141880Y-11889320I-38100J0D01*
G01*
X9141880Y-12143320D02*
G75*
G03*
X9141880Y-12143320I-38100J0D01*
G01*
X9403880Y-7336820D02*
G75*
G03*
X9403880Y-7336820I-38100J0D01*
G01*
X9403880Y-7590820D02*
G75*
G03*
X9403880Y-7590820I-38100J0D01*
G01*
X9403880Y-7844820D02*
G75*
G03*
X9403880Y-7844820I-38100J0D01*
G01*
X9403880Y-8098820D02*
G75*
G03*
X9403880Y-8098820I-38100J0D01*
G01*
X9527050Y-4354900D02*
G75*
G03*
X9527050Y-4354900I-38100J0D01*
G01*
X9527050Y-4608900D02*
G75*
G03*
X9527050Y-4608900I-38100J0D01*
G01*
X9527050Y-4862900D02*
G75*
G03*
X9527050Y-4862900I-38100J0D01*
G01*
X9527050Y-5116900D02*
G75*
G03*
X9527050Y-5116900I-38100J0D01*
G01*
X9903880Y-11381320D02*
G75*
G03*
X9903880Y-11381320I-38100J0D01*
G01*
X9903880Y-11635320D02*
G75*
G03*
X9903880Y-11635320I-38100J0D01*
G01*
X9903880Y-11889320D02*
G75*
G03*
X9903880Y-11889320I-38100J0D01*
G01*
X9903880Y-12143320D02*
G75*
G03*
X9903880Y-12143320I-38100J0D01*
G01*
X10289050Y-4354900D02*
G75*
G03*
X10289050Y-4354900I-38100J0D01*
G01*
X10289050Y-4608900D02*
G75*
G03*
X10289050Y-4608900I-38100J0D01*
G01*
X10289050Y-4862900D02*
G75*
G03*
X10289050Y-4862900I-38100J0D01*
G01*
X10289050Y-5116900D02*
G75*
G03*
X10289050Y-5116900I-38100J0D01*
G01*
X14789900Y-7104200D02*
G75*
G03*
X14789900Y-7104200I-38100J0D01*
G01*
X14789900Y-7358200D02*
G75*
G03*
X14789900Y-7358200I-38100J0D01*
G01*
X14789900Y-7612200D02*
G75*
G03*
X14789900Y-7612200I-38100J0D01*
G01*
X14789900Y-7866200D02*
G75*
G03*
X14789900Y-7866200I-38100J0D01*
G01*
X15551900Y-7104200D02*
G75*
G03*
X15551900Y-7104200I-38100J0D01*
G01*
X15551900Y-7358200D02*
G75*
G03*
X15551900Y-7358200I-38100J0D01*
G01*
X15551900Y-7612200D02*
G75*
G03*
X15551900Y-7612200I-38100J0D01*
G01*
X15551900Y-7866200D02*
G75*
G03*
X15551900Y-7866200I-38100J0D01*
G01*
D15*
X9060980Y-8387750D02*
X9060980Y-8467750D01*
X9020980Y-8427750D02*
X9100980Y-8427750D01*
X9310980Y-8387750D02*
X9310980Y-8467750D01*
X9270980Y-8427750D02*
X9350980Y-8427750D01*
X9560980Y-12432250D02*
X9560980Y-12512250D01*
X9520980Y-12472250D02*
X9600980Y-12472250D01*
X9607250Y-5400750D02*
X9607250Y-5480750D01*
X9567250Y-5440750D02*
X9647250Y-5440750D01*
X9810980Y-12432250D02*
X9810980Y-12512250D01*
X9770980Y-12472250D02*
X9850980Y-12472250D01*
X9857250Y-5400750D02*
X9857250Y-5480750D01*
X9817250Y-5440750D02*
X9897250Y-5440750D01*
X10536700Y-5902400D02*
X10536700Y-5982400D01*
X10496700Y-5942400D02*
X10576700Y-5942400D01*
X10631950Y-4826900D02*
X10631950Y-4906900D01*
X10591950Y-4866900D02*
X10671950Y-4866900D01*
X10631950Y-5076900D02*
X10631950Y-5156900D01*
X10591950Y-5116900D02*
X10671950Y-5116900D01*
X10786700Y-5902400D02*
X10786700Y-5982400D01*
X10746700Y-5942400D02*
X10826700Y-5942400D01*
X14882800Y-8156400D02*
X14882800Y-8236400D01*
X14842800Y-8196400D02*
X14922800Y-8196400D01*
X15132800Y-8156400D02*
X15132800Y-8236400D01*
X15092800Y-8196400D02*
X15172800Y-8196400D01*
X15390800Y-8156400D02*
X15390800Y-8236400D01*
X15350800Y-8196400D02*
X15430800Y-8196400D01*
X15640800Y-8156400D02*
X15640800Y-8236400D01*
X15600800Y-8196400D02*
X15680800Y-8196400D01*
D16*
X7549187Y-5209137D02*
X7549187Y-5151663D01*
X7491713Y-5151663D01*
X7491713Y-5209137D01*
X7549187Y-5209137D01*
X8057187Y-5209137D02*
X8057187Y-5151663D01*
X7999713Y-5151663D01*
X7999713Y-5209137D01*
X8057187Y-5209137D01*
X8685837Y-5120237D02*
X8685837Y-5062763D01*
X8628363Y-5062763D01*
X8628363Y-5120237D01*
X8685837Y-5120237D01*
X9193837Y-5120237D02*
X9193837Y-5062763D01*
X9136363Y-5062763D01*
X9136363Y-5120237D01*
X9193837Y-5120237D01*
D10*
X6317760Y-3884200D02*
X6367760Y-3834200D01*
X6317760Y-3784200D01*
X6267760Y-3834200D01*
X6317760Y-3884200D01*
X6571760Y-3884200D02*
X6621760Y-3834200D01*
X6571760Y-3784200D01*
X6521760Y-3834200D01*
X6571760Y-3884200D01*
X7196240Y-11007520D02*
X7246240Y-10957520D01*
X7196240Y-10907520D01*
X7146240Y-10957520D01*
X7196240Y-11007520D01*
X7196240Y-11507520D02*
X7246240Y-11457520D01*
X7196240Y-11407520D01*
X7146240Y-11457520D01*
X7196240Y-11507520D01*
X7202950Y-4197000D02*
X7252950Y-4147000D01*
X7202950Y-4097000D01*
X7152950Y-4147000D01*
X7202950Y-4197000D01*
X7202950Y-4697000D02*
X7252950Y-4647000D01*
X7202950Y-4597000D01*
X7152950Y-4647000D01*
X7202950Y-4697000D01*
X7238276Y-7688444D02*
X7288276Y-7638444D01*
X7238276Y-7588444D01*
X7188276Y-7638444D01*
X7238276Y-7688444D01*
X7238276Y-8188444D02*
X7288276Y-8138444D01*
X7238276Y-8088444D01*
X7188276Y-8138444D01*
X7238276Y-8188444D01*
X7738276Y-11906680D02*
X7788276Y-11856680D01*
X7738276Y-11806680D01*
X7688276Y-11856680D01*
X7738276Y-11906680D01*
X7738276Y-12406680D02*
X7788276Y-12356680D01*
X7738276Y-12306680D01*
X7688276Y-12356680D01*
X7738276Y-12406680D01*
X8314200Y-4190650D02*
X8364200Y-4140650D01*
X8314200Y-4090650D01*
X8264200Y-4140650D01*
X8314200Y-4190650D01*
X8314200Y-4690650D02*
X8364200Y-4640650D01*
X8314200Y-4590650D01*
X8264200Y-4640650D01*
X8314200Y-4690650D01*
X10106444Y-7182730D02*
X10156444Y-7132730D01*
X10106444Y-7082730D01*
X10056444Y-7132730D01*
X10106444Y-7182730D01*
X10106444Y-7682730D02*
X10156444Y-7632730D01*
X10106444Y-7582730D01*
X10056444Y-7632730D01*
X10106444Y-7682730D01*
X10606444Y-11227230D02*
X10656444Y-11177230D01*
X10606444Y-11127230D01*
X10556444Y-11177230D01*
X10606444Y-11227230D01*
X10606444Y-11727230D02*
X10656444Y-11677230D01*
X10606444Y-11627230D01*
X10556444Y-11677230D01*
X10606444Y-11727230D01*
X11349500Y-4412900D02*
X11399500Y-4362900D01*
X11349500Y-4312900D01*
X11299500Y-4362900D01*
X11349500Y-4412900D01*
X11349500Y-4912900D02*
X11399500Y-4862900D01*
X11349500Y-4812900D01*
X11299500Y-4862900D01*
X11349500Y-4912900D01*
X11667000Y-3731800D02*
X11717000Y-3681800D01*
X11667000Y-3631800D01*
X11617000Y-3681800D01*
X11667000Y-3731800D01*
X11667000Y-3985800D02*
X11717000Y-3935800D01*
X11667000Y-3885800D01*
X11617000Y-3935800D01*
X11667000Y-3985800D01*
X12702400Y-8449600D02*
X12752400Y-8399600D01*
X12702400Y-8349600D01*
X12652400Y-8399600D01*
X12702400Y-8449600D01*
X12948400Y-7128800D02*
X12998400Y-7078800D01*
X12948400Y-7028800D01*
X12898400Y-7078800D01*
X12948400Y-7128800D01*
X12948400Y-7628800D02*
X12998400Y-7578800D01*
X12948400Y-7528800D01*
X12898400Y-7578800D01*
X12948400Y-7628800D01*
X13202400Y-8449600D02*
X13252400Y-8399600D01*
X13202400Y-8349600D01*
X13152400Y-8399600D01*
X13202400Y-8449600D01*
X14421600Y-8957600D02*
X14471600Y-8907600D01*
X14421600Y-8857600D01*
X14371600Y-8907600D01*
X14421600Y-8957600D01*
X14921600Y-8957600D02*
X14971600Y-8907600D01*
X14921600Y-8857600D01*
X14871600Y-8907600D01*
X14921600Y-8957600D01*
D17*
X6699162Y-11683072D02*
X6799238Y-11783148D01*
X6799238Y-11683072D02*
X6699162Y-11783148D01*
X6799238Y-11733110D02*
G75*
G03*
X6799238Y-11733110I-50038J0D01*
G01*
X6699162Y-12483172D02*
X6799238Y-12583248D01*
X6799238Y-12483172D02*
X6699162Y-12583248D01*
X6799238Y-12533210D02*
G75*
G03*
X6799238Y-12533210I-50038J0D01*
G01*
X8076222Y-7434356D02*
X8176298Y-7534432D01*
X8176298Y-7434356D02*
X8076222Y-7534432D01*
X8176298Y-7484394D02*
G75*
G03*
X8176298Y-7484394I-50038J0D01*
G01*
X8076222Y-8234456D02*
X8176298Y-8334532D01*
X8176298Y-8234456D02*
X8076222Y-8334532D01*
X8176298Y-8284494D02*
G75*
G03*
X8176298Y-8284494I-50038J0D01*
G01*
X8576222Y-11478856D02*
X8676298Y-11578932D01*
X8676298Y-11478856D02*
X8576222Y-11578932D01*
X8676298Y-11528894D02*
G75*
G03*
X8676298Y-11528894I-50038J0D01*
G01*
X8576222Y-12278956D02*
X8676298Y-12379032D01*
X8676298Y-12278956D02*
X8576222Y-12379032D01*
X8676298Y-12328994D02*
G75*
G03*
X8676298Y-12328994I-50038J0D01*
G01*
X13565112Y-7943162D02*
X13665188Y-8043238D01*
X13665188Y-7943162D02*
X13565112Y-8043238D01*
X13665188Y-7993200D02*
G75*
G03*
X13665188Y-7993200I-50038J0D01*
G01*
X13711162Y-8305112D02*
X13811238Y-8405188D01*
X13811238Y-8305112D02*
X13711162Y-8405188D01*
X13811238Y-8355150D02*
G75*
G03*
X13811238Y-8355150I-50038J0D01*
G01*
X13711162Y-9105212D02*
X13811238Y-9205288D01*
X13811238Y-9105212D02*
X13711162Y-9205288D01*
X13811238Y-9155250D02*
G75*
G03*
X13811238Y-9155250I-50038J0D01*
G01*
X14365212Y-7943162D02*
X14465288Y-8043238D01*
X14465288Y-7943162D02*
X14365212Y-8043238D01*
X14465288Y-7993200D02*
G75*
G03*
X14465288Y-7993200I-50038J0D01*
G01*
D18*
X6263806Y-11440756D02*
X6383694Y-11560644D01*
X6383694Y-11440756D02*
X6263806Y-11560644D01*
X6323750Y-11440756D02*
X6323750Y-11560644D01*
X6263806Y-11500700D02*
X6383694Y-11500700D01*
X6276506Y-10901006D02*
X6396394Y-11020894D01*
X6396394Y-10901006D02*
X6276506Y-11020894D01*
X6336450Y-10901006D02*
X6336450Y-11020894D01*
X6276506Y-10960950D02*
X6396394Y-10960950D01*
X6297714Y-7507000D02*
X6417602Y-7626888D01*
X6417602Y-7507000D02*
X6297714Y-7626888D01*
X6357658Y-7507000D02*
X6357658Y-7626888D01*
X6297714Y-7566944D02*
X6417602Y-7566944D01*
X6297714Y-8085358D02*
X6417602Y-8205246D01*
X6417602Y-8085358D02*
X6297714Y-8205246D01*
X6357658Y-8085358D02*
X6357658Y-8205246D01*
X6297714Y-8145302D02*
X6417602Y-8145302D01*
X10837202Y-6913910D02*
X10957090Y-7033798D01*
X10957090Y-6913910D02*
X10837202Y-7033798D01*
X10897146Y-6913910D02*
X10897146Y-7033798D01*
X10837202Y-6973854D02*
X10957090Y-6973854D01*
X10837202Y-7609362D02*
X10957090Y-7729250D01*
X10957090Y-7609362D02*
X10837202Y-7729250D01*
X10897146Y-7609362D02*
X10897146Y-7729250D01*
X10837202Y-7669306D02*
X10957090Y-7669306D01*
X11337202Y-10958410D02*
X11457090Y-11078298D01*
X11457090Y-10958410D02*
X11337202Y-11078298D01*
X11397146Y-10958410D02*
X11397146Y-11078298D01*
X11337202Y-11018354D02*
X11457090Y-11018354D01*
X11337202Y-11653862D02*
X11457090Y-11773750D01*
X11457090Y-11653862D02*
X11337202Y-11773750D01*
X11397146Y-11653862D02*
X11397146Y-11773750D01*
X11337202Y-11713806D02*
X11457090Y-11713806D01*
X11821656Y-7018856D02*
X11941544Y-7138744D01*
X11941544Y-7018856D02*
X11821656Y-7138744D01*
X11881600Y-7018856D02*
X11881600Y-7138744D01*
X11821656Y-7078800D02*
X11941544Y-7078800D01*
X11821656Y-7679256D02*
X11941544Y-7799144D01*
X11941544Y-7679256D02*
X11821656Y-7799144D01*
X11881600Y-7679256D02*
X11881600Y-7799144D01*
X11821656Y-7739200D02*
X11941544Y-7739200D01*
X14361656Y-9787456D02*
X14481544Y-9907344D01*
X14481544Y-9787456D02*
X14361656Y-9907344D01*
X14421600Y-9787456D02*
X14421600Y-9907344D01*
X14361656Y-9847400D02*
X14481544Y-9847400D01*
X15047456Y-9787456D02*
X15167344Y-9907344D01*
X15167344Y-9787456D02*
X15047456Y-9907344D01*
X15107400Y-9787456D02*
X15107400Y-9907344D01*
X15047456Y-9847400D02*
X15167344Y-9847400D01*
D19*
X8547590Y-6839940D02*
X8667590Y-6959940D01*
X8667590Y-6839940D02*
X8547590Y-6959940D01*
X8650017Y-6942367D02*
X8650017Y-6857513D01*
X8565163Y-6857513D01*
X8565163Y-6942367D01*
X8650017Y-6942367D01*
X9047590Y-10884440D02*
X9167590Y-11004440D01*
X9167590Y-10884440D02*
X9047590Y-11004440D01*
X9150017Y-10986867D02*
X9150017Y-10902013D01*
X9065163Y-10902013D01*
X9065163Y-10986867D01*
X9150017Y-10986867D01*
X9055590Y-6839940D02*
X9175590Y-6959940D01*
X9175590Y-6839940D02*
X9055590Y-6959940D01*
X9158017Y-6942367D02*
X9158017Y-6857513D01*
X9073163Y-6857513D01*
X9073163Y-6942367D01*
X9158017Y-6942367D01*
X9555590Y-10884440D02*
X9675590Y-11004440D01*
X9675590Y-10884440D02*
X9555590Y-11004440D01*
X9658017Y-10986867D02*
X9658017Y-10902013D01*
X9573163Y-10902013D01*
X9573163Y-10986867D01*
X9658017Y-10986867D01*
X10571950Y-3913900D02*
X10691950Y-4033900D01*
X10691950Y-3913900D02*
X10571950Y-4033900D01*
X10674377Y-4016327D02*
X10674377Y-3931473D01*
X10589523Y-3931473D01*
X10589523Y-4016327D01*
X10674377Y-4016327D01*
X10571950Y-4421900D02*
X10691950Y-4541900D01*
X10691950Y-4421900D02*
X10571950Y-4541900D01*
X10674377Y-4524327D02*
X10674377Y-4439473D01*
X10589523Y-4439473D01*
X10589523Y-4524327D01*
X10674377Y-4524327D01*
X13650400Y-6968000D02*
X13770400Y-7088000D01*
X13770400Y-6968000D02*
X13650400Y-7088000D01*
X13752827Y-7070427D02*
X13752827Y-6985573D01*
X13667973Y-6985573D01*
X13667973Y-7070427D01*
X13752827Y-7070427D01*
X14158400Y-6968000D02*
X14278400Y-7088000D01*
X14278400Y-6968000D02*
X14158400Y-7088000D01*
X14260827Y-7070427D02*
X14260827Y-6985573D01*
X14175973Y-6985573D01*
X14175973Y-7070427D01*
X14260827Y-7070427D01*
D20*
X7419736Y-6969640D02*
X7559736Y-7109640D01*
X7559736Y-6969640D02*
X7419736Y-7109640D01*
X7489736Y-7109640D02*
X7559736Y-7039640D01*
X7489736Y-6969640D01*
X7419736Y-7039640D01*
X7489736Y-7109640D01*
X7919736Y-11014140D02*
X8059736Y-11154140D01*
X8059736Y-11014140D02*
X7919736Y-11154140D01*
X7989736Y-11154140D02*
X8059736Y-11084140D01*
X7989736Y-11014140D01*
X7919736Y-11084140D01*
X7989736Y-11154140D01*
X7927736Y-6969640D02*
X8067736Y-7109640D01*
X8067736Y-6969640D02*
X7927736Y-7109640D01*
X7997736Y-7109640D02*
X8067736Y-7039640D01*
X7997736Y-6969640D01*
X7927736Y-7039640D01*
X7997736Y-7109640D01*
X8427736Y-11014140D02*
X8567736Y-11154140D01*
X8567736Y-11014140D02*
X8427736Y-11154140D01*
X8497736Y-11154140D02*
X8567736Y-11084140D01*
X8497736Y-11014140D01*
X8427736Y-11084140D01*
X8497736Y-11154140D01*
X9031600Y-3891200D02*
X9171600Y-4031200D01*
X9171600Y-3891200D02*
X9031600Y-4031200D01*
X9101600Y-4031200D02*
X9171600Y-3961200D01*
X9101600Y-3891200D01*
X9031600Y-3961200D01*
X9101600Y-4031200D01*
X9031600Y-4399200D02*
X9171600Y-4539200D01*
X9171600Y-4399200D02*
X9031600Y-4539200D01*
X9101600Y-4539200D02*
X9171600Y-4469200D01*
X9101600Y-4399200D01*
X9031600Y-4469200D01*
X9101600Y-4539200D01*
X13640400Y-7466000D02*
X13780400Y-7606000D01*
X13780400Y-7466000D02*
X13640400Y-7606000D01*
X13710400Y-7606000D02*
X13780400Y-7536000D01*
X13710400Y-7466000D01*
X13640400Y-7536000D01*
X13710400Y-7606000D01*
X14148400Y-7466000D02*
X14288400Y-7606000D01*
X14288400Y-7466000D02*
X14148400Y-7606000D01*
X14218400Y-7606000D02*
X14288400Y-7536000D01*
X14218400Y-7466000D01*
X14148400Y-7536000D01*
X14218400Y-7606000D01*
D12*
X6252619Y-13115476D02*
X6252619Y-12915476D01*
X6300238Y-12915476D01*
X6328809Y-12925000D01*
X6347857Y-12944048D01*
X6357381Y-12963095D01*
X6366905Y-13001190D01*
X6366905Y-13029762D01*
X6357381Y-13067857D01*
X6347857Y-13086905D01*
X6328809Y-13105952D01*
X6300238Y-13115476D01*
X6252619Y-13115476D01*
X6452619Y-13115476D02*
X6452619Y-12982143D01*
X6452619Y-13020238D02*
X6462143Y-13001190D01*
X6471667Y-12991667D01*
X6490714Y-12982143D01*
X6509762Y-12982143D01*
X6576428Y-13115476D02*
X6576428Y-12982143D01*
X6576428Y-12915476D02*
X6566905Y-12925000D01*
X6576428Y-12934524D01*
X6585952Y-12925000D01*
X6576428Y-12915476D01*
X6576428Y-12934524D01*
X6700238Y-13115476D02*
X6681190Y-13105952D01*
X6671667Y-13086905D01*
X6671667Y-12915476D01*
X6805000Y-13115476D02*
X6785952Y-13105952D01*
X6776428Y-13086905D01*
X6776428Y-12915476D01*
X7033571Y-13115476D02*
X7033571Y-12915476D01*
X7100238Y-13058333D01*
X7166905Y-12915476D01*
X7166905Y-13115476D01*
X7347857Y-13115476D02*
X7347857Y-13010714D01*
X7338333Y-12991667D01*
X7319286Y-12982143D01*
X7281190Y-12982143D01*
X7262143Y-12991667D01*
X7347857Y-13105952D02*
X7328809Y-13115476D01*
X7281190Y-13115476D01*
X7262143Y-13105952D01*
X7252619Y-13086905D01*
X7252619Y-13067857D01*
X7262143Y-13048809D01*
X7281190Y-13039286D01*
X7328809Y-13039286D01*
X7347857Y-13029762D01*
X7443095Y-12982143D02*
X7443095Y-13182143D01*
X7443095Y-12991667D02*
X7462143Y-12982143D01*
X7500238Y-12982143D01*
X7519286Y-12991667D01*
X7528809Y-13001190D01*
X7538333Y-13020238D01*
X7538333Y-13077381D01*
X7528809Y-13096428D01*
X7519286Y-13105952D01*
X7500238Y-13115476D01*
X7462143Y-13115476D01*
X7443095Y-13105952D01*
X7624048Y-13096428D02*
X7633571Y-13105952D01*
X7624048Y-13115476D01*
X7614524Y-13105952D01*
X7624048Y-13096428D01*
X7624048Y-13115476D01*
X7624048Y-12991667D02*
X7633571Y-13001190D01*
X7624048Y-13010714D01*
X7614524Y-13001190D01*
X7624048Y-12991667D01*
X7624048Y-13010714D01*
D13*
X5925000Y-13410000D02*
X5995000Y-13480000D01*
X5995000Y-13410000D02*
X5925000Y-13480000D01*
D12*
X6290714Y-13335476D02*
X6309762Y-13335476D01*
X6328809Y-13345000D01*
X6338333Y-13354524D01*
X6347857Y-13373571D01*
X6357381Y-13411667D01*
X6357381Y-13459286D01*
X6347857Y-13497381D01*
X6338333Y-13516428D01*
X6328809Y-13525952D01*
X6309762Y-13535476D01*
X6290714Y-13535476D01*
X6271667Y-13525952D01*
X6262143Y-13516428D01*
X6252619Y-13497381D01*
X6243095Y-13459286D01*
X6243095Y-13411667D01*
X6252619Y-13373571D01*
X6262143Y-13354524D01*
X6271667Y-13345000D01*
X6290714Y-13335476D01*
X6443095Y-13516428D02*
X6452619Y-13525952D01*
X6443095Y-13535476D01*
X6433571Y-13525952D01*
X6443095Y-13516428D01*
X6443095Y-13535476D01*
X6519286Y-13335476D02*
X6652619Y-13335476D01*
X6566905Y-13535476D01*
X6766905Y-13335476D02*
X6785952Y-13335476D01*
X6805000Y-13345000D01*
X6814524Y-13354524D01*
X6824048Y-13373571D01*
X6833571Y-13411667D01*
X6833571Y-13459286D01*
X6824048Y-13497381D01*
X6814524Y-13516428D01*
X6805000Y-13525952D01*
X6785952Y-13535476D01*
X6766905Y-13535476D01*
X6747857Y-13525952D01*
X6738333Y-13516428D01*
X6728809Y-13497381D01*
X6719286Y-13459286D01*
X6719286Y-13411667D01*
X6728809Y-13373571D01*
X6738333Y-13354524D01*
X6747857Y-13345000D01*
X6766905Y-13335476D01*
X6957381Y-13335476D02*
X6976428Y-13335476D01*
X6995476Y-13345000D01*
X7005000Y-13354524D01*
X7014524Y-13373571D01*
X7024048Y-13411667D01*
X7024048Y-13459286D01*
X7014524Y-13497381D01*
X7005000Y-13516428D01*
X6995476Y-13525952D01*
X6976428Y-13535476D01*
X6957381Y-13535476D01*
X6938333Y-13525952D01*
X6928809Y-13516428D01*
X6919286Y-13497381D01*
X6909762Y-13459286D01*
X6909762Y-13411667D01*
X6919286Y-13373571D01*
X6928809Y-13354524D01*
X6938333Y-13345000D01*
X6957381Y-13335476D01*
X7109762Y-13535476D02*
X7109762Y-13402143D01*
X7109762Y-13421190D02*
X7119286Y-13411667D01*
X7138333Y-13402143D01*
X7166905Y-13402143D01*
X7185952Y-13411667D01*
X7195476Y-13430714D01*
X7195476Y-13535476D01*
X7195476Y-13430714D02*
X7205000Y-13411667D01*
X7224048Y-13402143D01*
X7252619Y-13402143D01*
X7271667Y-13411667D01*
X7281190Y-13430714D01*
X7281190Y-13535476D01*
X7376428Y-13535476D02*
X7376428Y-13402143D01*
X7376428Y-13421190D02*
X7385952Y-13411667D01*
X7405000Y-13402143D01*
X7433571Y-13402143D01*
X7452619Y-13411667D01*
X7462143Y-13430714D01*
X7462143Y-13535476D01*
X7462143Y-13430714D02*
X7471667Y-13411667D01*
X7490714Y-13402143D01*
X7519286Y-13402143D01*
X7538333Y-13411667D01*
X7547857Y-13430714D01*
X7547857Y-13535476D01*
X7938333Y-13325952D02*
X7766905Y-13583095D01*
X8195476Y-13335476D02*
X8214524Y-13335476D01*
X8233571Y-13345000D01*
X8243095Y-13354524D01*
X8252619Y-13373571D01*
X8262143Y-13411667D01*
X8262143Y-13459286D01*
X8252619Y-13497381D01*
X8243095Y-13516428D01*
X8233571Y-13525952D01*
X8214524Y-13535476D01*
X8195476Y-13535476D01*
X8176428Y-13525952D01*
X8166905Y-13516428D01*
X8157381Y-13497381D01*
X8147857Y-13459286D01*
X8147857Y-13411667D01*
X8157381Y-13373571D01*
X8166905Y-13354524D01*
X8176428Y-13345000D01*
X8195476Y-13335476D01*
X8347857Y-13516428D02*
X8357381Y-13525952D01*
X8347857Y-13535476D01*
X8338333Y-13525952D01*
X8347857Y-13516428D01*
X8347857Y-13535476D01*
X8481190Y-13335476D02*
X8500238Y-13335476D01*
X8519286Y-13345000D01*
X8528810Y-13354524D01*
X8538333Y-13373571D01*
X8547857Y-13411667D01*
X8547857Y-13459286D01*
X8538333Y-13497381D01*
X8528810Y-13516428D01*
X8519286Y-13525952D01*
X8500238Y-13535476D01*
X8481190Y-13535476D01*
X8462143Y-13525952D01*
X8452619Y-13516428D01*
X8443095Y-13497381D01*
X8433571Y-13459286D01*
X8433571Y-13411667D01*
X8443095Y-13373571D01*
X8452619Y-13354524D01*
X8462143Y-13345000D01*
X8481190Y-13335476D01*
X8624048Y-13354524D02*
X8633571Y-13345000D01*
X8652619Y-13335476D01*
X8700238Y-13335476D01*
X8719286Y-13345000D01*
X8728810Y-13354524D01*
X8738333Y-13373571D01*
X8738333Y-13392619D01*
X8728810Y-13421190D01*
X8614524Y-13535476D01*
X8738333Y-13535476D01*
X8805000Y-13335476D02*
X8938333Y-13335476D01*
X8852619Y-13535476D01*
X9100238Y-13335476D02*
X9062143Y-13335476D01*
X9043095Y-13345000D01*
X9033571Y-13354524D01*
X9014524Y-13383095D01*
X9005000Y-13421190D01*
X9005000Y-13497381D01*
X9014524Y-13516428D01*
X9024048Y-13525952D01*
X9043095Y-13535476D01*
X9081190Y-13535476D01*
X9100238Y-13525952D01*
X9109762Y-13516428D01*
X9119286Y-13497381D01*
X9119286Y-13449762D01*
X9109762Y-13430714D01*
X9100238Y-13421190D01*
X9081190Y-13411667D01*
X9043095Y-13411667D01*
X9024048Y-13421190D01*
X9014524Y-13430714D01*
X9005000Y-13449762D01*
X9195476Y-13335476D02*
X9195476Y-13373571D01*
X9271667Y-13335476D02*
X9271667Y-13373571D01*
X9566905Y-13611667D02*
X9557381Y-13602143D01*
X9538333Y-13573571D01*
X9528810Y-13554524D01*
X9519286Y-13525952D01*
X9509762Y-13478333D01*
X9509762Y-13440238D01*
X9519286Y-13392619D01*
X9528810Y-13364048D01*
X9538333Y-13345000D01*
X9557381Y-13316428D01*
X9566905Y-13306905D01*
X9747857Y-13535476D02*
X9633571Y-13535476D01*
X9690714Y-13535476D02*
X9690714Y-13335476D01*
X9671667Y-13364048D01*
X9652619Y-13383095D01*
X9633571Y-13392619D01*
X9919286Y-13335476D02*
X9881190Y-13335476D01*
X9862143Y-13345000D01*
X9852619Y-13354524D01*
X9833571Y-13383095D01*
X9824048Y-13421190D01*
X9824048Y-13497381D01*
X9833571Y-13516428D01*
X9843095Y-13525952D01*
X9862143Y-13535476D01*
X9900238Y-13535476D01*
X9919286Y-13525952D01*
X9928810Y-13516428D01*
X9938333Y-13497381D01*
X9938333Y-13449762D01*
X9928810Y-13430714D01*
X9919286Y-13421190D01*
X9900238Y-13411667D01*
X9862143Y-13411667D01*
X9843095Y-13421190D01*
X9833571Y-13430714D01*
X9824048Y-13449762D01*
X10176429Y-13535476D02*
X10176429Y-13335476D01*
X10262143Y-13535476D02*
X10262143Y-13430714D01*
X10252619Y-13411667D01*
X10233571Y-13402143D01*
X10205000Y-13402143D01*
X10185952Y-13411667D01*
X10176429Y-13421190D01*
X10385952Y-13535476D02*
X10366905Y-13525952D01*
X10357381Y-13516428D01*
X10347857Y-13497381D01*
X10347857Y-13440238D01*
X10357381Y-13421190D01*
X10366905Y-13411667D01*
X10385952Y-13402143D01*
X10414524Y-13402143D01*
X10433571Y-13411667D01*
X10443095Y-13421190D01*
X10452619Y-13440238D01*
X10452619Y-13497381D01*
X10443095Y-13516428D01*
X10433571Y-13525952D01*
X10414524Y-13535476D01*
X10385952Y-13535476D01*
X10566905Y-13535476D02*
X10547857Y-13525952D01*
X10538333Y-13506905D01*
X10538333Y-13335476D01*
X10719286Y-13525952D02*
X10700238Y-13535476D01*
X10662143Y-13535476D01*
X10643095Y-13525952D01*
X10633571Y-13506905D01*
X10633571Y-13430714D01*
X10643095Y-13411667D01*
X10662143Y-13402143D01*
X10700238Y-13402143D01*
X10719286Y-13411667D01*
X10728810Y-13430714D01*
X10728810Y-13449762D01*
X10633571Y-13468809D01*
X10805000Y-13525952D02*
X10824048Y-13535476D01*
X10862143Y-13535476D01*
X10881190Y-13525952D01*
X10890714Y-13506905D01*
X10890714Y-13497381D01*
X10881190Y-13478333D01*
X10862143Y-13468809D01*
X10833571Y-13468809D01*
X10814524Y-13459286D01*
X10805000Y-13440238D01*
X10805000Y-13430714D01*
X10814524Y-13411667D01*
X10833571Y-13402143D01*
X10862143Y-13402143D01*
X10881190Y-13411667D01*
X10957381Y-13611667D02*
X10966905Y-13602143D01*
X10985952Y-13573571D01*
X10995476Y-13554524D01*
X11005000Y-13525952D01*
X11014524Y-13478333D01*
X11014524Y-13440238D01*
X11005000Y-13392619D01*
X10995476Y-13364048D01*
X10985952Y-13345000D01*
X10966905Y-13316428D01*
X10957381Y-13306905D01*
D14*
X5995000Y-13709000D02*
G75*
G03*
X5995000Y-13709000I-38100J0D01*
G01*
D12*
X6290714Y-13599476D02*
X6309762Y-13599476D01*
X6328809Y-13609000D01*
X6338333Y-13618524D01*
X6347857Y-13637571D01*
X6357381Y-13675667D01*
X6357381Y-13723286D01*
X6347857Y-13761381D01*
X6338333Y-13780428D01*
X6328809Y-13789952D01*
X6309762Y-13799476D01*
X6290714Y-13799476D01*
X6271667Y-13789952D01*
X6262143Y-13780428D01*
X6252619Y-13761381D01*
X6243095Y-13723286D01*
X6243095Y-13675667D01*
X6252619Y-13637571D01*
X6262143Y-13618524D01*
X6271667Y-13609000D01*
X6290714Y-13599476D01*
X6443095Y-13780428D02*
X6452619Y-13789952D01*
X6443095Y-13799476D01*
X6433571Y-13789952D01*
X6443095Y-13780428D01*
X6443095Y-13799476D01*
X6519286Y-13599476D02*
X6652619Y-13599476D01*
X6566905Y-13799476D01*
X6814524Y-13599476D02*
X6776428Y-13599476D01*
X6757381Y-13609000D01*
X6747857Y-13618524D01*
X6728809Y-13647095D01*
X6719286Y-13685190D01*
X6719286Y-13761381D01*
X6728809Y-13780428D01*
X6738333Y-13789952D01*
X6757381Y-13799476D01*
X6795476Y-13799476D01*
X6814524Y-13789952D01*
X6824048Y-13780428D01*
X6833571Y-13761381D01*
X6833571Y-13713762D01*
X6824048Y-13694714D01*
X6814524Y-13685190D01*
X6795476Y-13675667D01*
X6757381Y-13675667D01*
X6738333Y-13685190D01*
X6728809Y-13694714D01*
X6719286Y-13713762D01*
X6909762Y-13618524D02*
X6919286Y-13609000D01*
X6938333Y-13599476D01*
X6985952Y-13599476D01*
X7005000Y-13609000D01*
X7014524Y-13618524D01*
X7024048Y-13637571D01*
X7024048Y-13656619D01*
X7014524Y-13685190D01*
X6900238Y-13799476D01*
X7024048Y-13799476D01*
X7109762Y-13799476D02*
X7109762Y-13666143D01*
X7109762Y-13685190D02*
X7119286Y-13675667D01*
X7138333Y-13666143D01*
X7166905Y-13666143D01*
X7185952Y-13675667D01*
X7195476Y-13694714D01*
X7195476Y-13799476D01*
X7195476Y-13694714D02*
X7205000Y-13675667D01*
X7224048Y-13666143D01*
X7252619Y-13666143D01*
X7271667Y-13675667D01*
X7281190Y-13694714D01*
X7281190Y-13799476D01*
X7376428Y-13799476D02*
X7376428Y-13666143D01*
X7376428Y-13685190D02*
X7385952Y-13675667D01*
X7405000Y-13666143D01*
X7433571Y-13666143D01*
X7452619Y-13675667D01*
X7462143Y-13694714D01*
X7462143Y-13799476D01*
X7462143Y-13694714D02*
X7471667Y-13675667D01*
X7490714Y-13666143D01*
X7519286Y-13666143D01*
X7538333Y-13675667D01*
X7547857Y-13694714D01*
X7547857Y-13799476D01*
X7938333Y-13589952D02*
X7766905Y-13847095D01*
X8195476Y-13599476D02*
X8214524Y-13599476D01*
X8233571Y-13609000D01*
X8243095Y-13618524D01*
X8252619Y-13637571D01*
X8262143Y-13675667D01*
X8262143Y-13723286D01*
X8252619Y-13761381D01*
X8243095Y-13780428D01*
X8233571Y-13789952D01*
X8214524Y-13799476D01*
X8195476Y-13799476D01*
X8176428Y-13789952D01*
X8166905Y-13780428D01*
X8157381Y-13761381D01*
X8147857Y-13723286D01*
X8147857Y-13675667D01*
X8157381Y-13637571D01*
X8166905Y-13618524D01*
X8176428Y-13609000D01*
X8195476Y-13599476D01*
X8347857Y-13780428D02*
X8357381Y-13789952D01*
X8347857Y-13799476D01*
X8338333Y-13789952D01*
X8347857Y-13780428D01*
X8347857Y-13799476D01*
X8481190Y-13599476D02*
X8500238Y-13599476D01*
X8519286Y-13609000D01*
X8528810Y-13618524D01*
X8538333Y-13637571D01*
X8547857Y-13675667D01*
X8547857Y-13723286D01*
X8538333Y-13761381D01*
X8528810Y-13780428D01*
X8519286Y-13789952D01*
X8500238Y-13799476D01*
X8481190Y-13799476D01*
X8462143Y-13789952D01*
X8452619Y-13780428D01*
X8443095Y-13761381D01*
X8433571Y-13723286D01*
X8433571Y-13675667D01*
X8443095Y-13637571D01*
X8452619Y-13618524D01*
X8462143Y-13609000D01*
X8481190Y-13599476D01*
X8614524Y-13599476D02*
X8738333Y-13599476D01*
X8671667Y-13675667D01*
X8700238Y-13675667D01*
X8719286Y-13685190D01*
X8728810Y-13694714D01*
X8738333Y-13713762D01*
X8738333Y-13761381D01*
X8728810Y-13780428D01*
X8719286Y-13789952D01*
X8700238Y-13799476D01*
X8643095Y-13799476D01*
X8624048Y-13789952D01*
X8614524Y-13780428D01*
X8862143Y-13599476D02*
X8881190Y-13599476D01*
X8900238Y-13609000D01*
X8909762Y-13618524D01*
X8919286Y-13637571D01*
X8928810Y-13675667D01*
X8928810Y-13723286D01*
X8919286Y-13761381D01*
X8909762Y-13780428D01*
X8900238Y-13789952D01*
X8881190Y-13799476D01*
X8862143Y-13799476D01*
X8843095Y-13789952D01*
X8833571Y-13780428D01*
X8824048Y-13761381D01*
X8814524Y-13723286D01*
X8814524Y-13675667D01*
X8824048Y-13637571D01*
X8833571Y-13618524D01*
X8843095Y-13609000D01*
X8862143Y-13599476D01*
X9052619Y-13599476D02*
X9071667Y-13599476D01*
X9090714Y-13609000D01*
X9100238Y-13618524D01*
X9109762Y-13637571D01*
X9119286Y-13675667D01*
X9119286Y-13723286D01*
X9109762Y-13761381D01*
X9100238Y-13780428D01*
X9090714Y-13789952D01*
X9071667Y-13799476D01*
X9052619Y-13799476D01*
X9033571Y-13789952D01*
X9024048Y-13780428D01*
X9014524Y-13761381D01*
X9005000Y-13723286D01*
X9005000Y-13675667D01*
X9014524Y-13637571D01*
X9024048Y-13618524D01*
X9033571Y-13609000D01*
X9052619Y-13599476D01*
X9195476Y-13599476D02*
X9195476Y-13637571D01*
X9271667Y-13599476D02*
X9271667Y-13637571D01*
X9566905Y-13875667D02*
X9557381Y-13866143D01*
X9538333Y-13837571D01*
X9528810Y-13818524D01*
X9519286Y-13789952D01*
X9509762Y-13742333D01*
X9509762Y-13704238D01*
X9519286Y-13656619D01*
X9528810Y-13628048D01*
X9538333Y-13609000D01*
X9557381Y-13580428D01*
X9566905Y-13570905D01*
X9624048Y-13599476D02*
X9747857Y-13599476D01*
X9681190Y-13675667D01*
X9709762Y-13675667D01*
X9728810Y-13685190D01*
X9738333Y-13694714D01*
X9747857Y-13713762D01*
X9747857Y-13761381D01*
X9738333Y-13780428D01*
X9728810Y-13789952D01*
X9709762Y-13799476D01*
X9652619Y-13799476D01*
X9633571Y-13789952D01*
X9624048Y-13780428D01*
X9824048Y-13618524D02*
X9833571Y-13609000D01*
X9852619Y-13599476D01*
X9900238Y-13599476D01*
X9919286Y-13609000D01*
X9928810Y-13618524D01*
X9938333Y-13637571D01*
X9938333Y-13656619D01*
X9928810Y-13685190D01*
X9814524Y-13799476D01*
X9938333Y-13799476D01*
X10176429Y-13799476D02*
X10176429Y-13599476D01*
X10262143Y-13799476D02*
X10262143Y-13694714D01*
X10252619Y-13675667D01*
X10233571Y-13666143D01*
X10205000Y-13666143D01*
X10185952Y-13675667D01*
X10176429Y-13685190D01*
X10385952Y-13799476D02*
X10366905Y-13789952D01*
X10357381Y-13780428D01*
X10347857Y-13761381D01*
X10347857Y-13704238D01*
X10357381Y-13685190D01*
X10366905Y-13675667D01*
X10385952Y-13666143D01*
X10414524Y-13666143D01*
X10433571Y-13675667D01*
X10443095Y-13685190D01*
X10452619Y-13704238D01*
X10452619Y-13761381D01*
X10443095Y-13780428D01*
X10433571Y-13789952D01*
X10414524Y-13799476D01*
X10385952Y-13799476D01*
X10566905Y-13799476D02*
X10547857Y-13789952D01*
X10538333Y-13770905D01*
X10538333Y-13599476D01*
X10719286Y-13789952D02*
X10700238Y-13799476D01*
X10662143Y-13799476D01*
X10643095Y-13789952D01*
X10633571Y-13770905D01*
X10633571Y-13694714D01*
X10643095Y-13675667D01*
X10662143Y-13666143D01*
X10700238Y-13666143D01*
X10719286Y-13675667D01*
X10728810Y-13694714D01*
X10728810Y-13713762D01*
X10633571Y-13732809D01*
X10805000Y-13789952D02*
X10824048Y-13799476D01*
X10862143Y-13799476D01*
X10881190Y-13789952D01*
X10890714Y-13770905D01*
X10890714Y-13761381D01*
X10881190Y-13742333D01*
X10862143Y-13732809D01*
X10833571Y-13732809D01*
X10814524Y-13723286D01*
X10805000Y-13704238D01*
X10805000Y-13694714D01*
X10814524Y-13675667D01*
X10833571Y-13666143D01*
X10862143Y-13666143D01*
X10881190Y-13675667D01*
X10957381Y-13875667D02*
X10966905Y-13866143D01*
X10985952Y-13837571D01*
X10995476Y-13818524D01*
X11005000Y-13789952D01*
X11014524Y-13742333D01*
X11014524Y-13704238D01*
X11005000Y-13656619D01*
X10995476Y-13628048D01*
X10985952Y-13609000D01*
X10966905Y-13580428D01*
X10957381Y-13570905D01*
D15*
X5955000Y-13933000D02*
X5955000Y-14013000D01*
X5915000Y-13973000D02*
X5995000Y-13973000D01*
D12*
X6290714Y-13863476D02*
X6309762Y-13863476D01*
X6328809Y-13873000D01*
X6338333Y-13882524D01*
X6347857Y-13901571D01*
X6357381Y-13939667D01*
X6357381Y-13987286D01*
X6347857Y-14025381D01*
X6338333Y-14044428D01*
X6328809Y-14053952D01*
X6309762Y-14063476D01*
X6290714Y-14063476D01*
X6271667Y-14053952D01*
X6262143Y-14044428D01*
X6252619Y-14025381D01*
X6243095Y-13987286D01*
X6243095Y-13939667D01*
X6252619Y-13901571D01*
X6262143Y-13882524D01*
X6271667Y-13873000D01*
X6290714Y-13863476D01*
X6443095Y-14044428D02*
X6452619Y-14053952D01*
X6443095Y-14063476D01*
X6433571Y-14053952D01*
X6443095Y-14044428D01*
X6443095Y-14063476D01*
X6566905Y-13949190D02*
X6547857Y-13939667D01*
X6538333Y-13930143D01*
X6528809Y-13911095D01*
X6528809Y-13901571D01*
X6538333Y-13882524D01*
X6547857Y-13873000D01*
X6566905Y-13863476D01*
X6605000Y-13863476D01*
X6624048Y-13873000D01*
X6633571Y-13882524D01*
X6643095Y-13901571D01*
X6643095Y-13911095D01*
X6633571Y-13930143D01*
X6624048Y-13939667D01*
X6605000Y-13949190D01*
X6566905Y-13949190D01*
X6547857Y-13958714D01*
X6538333Y-13968238D01*
X6528809Y-13987286D01*
X6528809Y-14025381D01*
X6538333Y-14044428D01*
X6547857Y-14053952D01*
X6566905Y-14063476D01*
X6605000Y-14063476D01*
X6624048Y-14053952D01*
X6633571Y-14044428D01*
X6643095Y-14025381D01*
X6643095Y-13987286D01*
X6633571Y-13968238D01*
X6624048Y-13958714D01*
X6605000Y-13949190D01*
X6766905Y-13863476D02*
X6785952Y-13863476D01*
X6805000Y-13873000D01*
X6814524Y-13882524D01*
X6824048Y-13901571D01*
X6833571Y-13939667D01*
X6833571Y-13987286D01*
X6824048Y-14025381D01*
X6814524Y-14044428D01*
X6805000Y-14053952D01*
X6785952Y-14063476D01*
X6766905Y-14063476D01*
X6747857Y-14053952D01*
X6738333Y-14044428D01*
X6728809Y-14025381D01*
X6719286Y-13987286D01*
X6719286Y-13939667D01*
X6728809Y-13901571D01*
X6738333Y-13882524D01*
X6747857Y-13873000D01*
X6766905Y-13863476D01*
X6957381Y-13863476D02*
X6976428Y-13863476D01*
X6995476Y-13873000D01*
X7005000Y-13882524D01*
X7014524Y-13901571D01*
X7024048Y-13939667D01*
X7024048Y-13987286D01*
X7014524Y-14025381D01*
X7005000Y-14044428D01*
X6995476Y-14053952D01*
X6976428Y-14063476D01*
X6957381Y-14063476D01*
X6938333Y-14053952D01*
X6928809Y-14044428D01*
X6919286Y-14025381D01*
X6909762Y-13987286D01*
X6909762Y-13939667D01*
X6919286Y-13901571D01*
X6928809Y-13882524D01*
X6938333Y-13873000D01*
X6957381Y-13863476D01*
X7109762Y-14063476D02*
X7109762Y-13930143D01*
X7109762Y-13949190D02*
X7119286Y-13939667D01*
X7138333Y-13930143D01*
X7166905Y-13930143D01*
X7185952Y-13939667D01*
X7195476Y-13958714D01*
X7195476Y-14063476D01*
X7195476Y-13958714D02*
X7205000Y-13939667D01*
X7224048Y-13930143D01*
X7252619Y-13930143D01*
X7271667Y-13939667D01*
X7281190Y-13958714D01*
X7281190Y-14063476D01*
X7376428Y-14063476D02*
X7376428Y-13930143D01*
X7376428Y-13949190D02*
X7385952Y-13939667D01*
X7405000Y-13930143D01*
X7433571Y-13930143D01*
X7452619Y-13939667D01*
X7462143Y-13958714D01*
X7462143Y-14063476D01*
X7462143Y-13958714D02*
X7471667Y-13939667D01*
X7490714Y-13930143D01*
X7519286Y-13930143D01*
X7538333Y-13939667D01*
X7547857Y-13958714D01*
X7547857Y-14063476D01*
X7938333Y-13853952D02*
X7766905Y-14111095D01*
X8195476Y-13863476D02*
X8214524Y-13863476D01*
X8233571Y-13873000D01*
X8243095Y-13882524D01*
X8252619Y-13901571D01*
X8262143Y-13939667D01*
X8262143Y-13987286D01*
X8252619Y-14025381D01*
X8243095Y-14044428D01*
X8233571Y-14053952D01*
X8214524Y-14063476D01*
X8195476Y-14063476D01*
X8176428Y-14053952D01*
X8166905Y-14044428D01*
X8157381Y-14025381D01*
X8147857Y-13987286D01*
X8147857Y-13939667D01*
X8157381Y-13901571D01*
X8166905Y-13882524D01*
X8176428Y-13873000D01*
X8195476Y-13863476D01*
X8347857Y-14044428D02*
X8357381Y-14053952D01*
X8347857Y-14063476D01*
X8338333Y-14053952D01*
X8347857Y-14044428D01*
X8347857Y-14063476D01*
X8481190Y-13863476D02*
X8500238Y-13863476D01*
X8519286Y-13873000D01*
X8528810Y-13882524D01*
X8538333Y-13901571D01*
X8547857Y-13939667D01*
X8547857Y-13987286D01*
X8538333Y-14025381D01*
X8528810Y-14044428D01*
X8519286Y-14053952D01*
X8500238Y-14063476D01*
X8481190Y-14063476D01*
X8462143Y-14053952D01*
X8452619Y-14044428D01*
X8443095Y-14025381D01*
X8433571Y-13987286D01*
X8433571Y-13939667D01*
X8443095Y-13901571D01*
X8452619Y-13882524D01*
X8462143Y-13873000D01*
X8481190Y-13863476D01*
X8614524Y-13863476D02*
X8738333Y-13863476D01*
X8671667Y-13939667D01*
X8700238Y-13939667D01*
X8719286Y-13949190D01*
X8728810Y-13958714D01*
X8738333Y-13977762D01*
X8738333Y-14025381D01*
X8728810Y-14044428D01*
X8719286Y-14053952D01*
X8700238Y-14063476D01*
X8643095Y-14063476D01*
X8624048Y-14053952D01*
X8614524Y-14044428D01*
X8928810Y-14063476D02*
X8814524Y-14063476D01*
X8871667Y-14063476D02*
X8871667Y-13863476D01*
X8852619Y-13892048D01*
X8833571Y-13911095D01*
X8814524Y-13920619D01*
X9109762Y-13863476D02*
X9014524Y-13863476D01*
X9005000Y-13958714D01*
X9014524Y-13949190D01*
X9033571Y-13939667D01*
X9081190Y-13939667D01*
X9100238Y-13949190D01*
X9109762Y-13958714D01*
X9119286Y-13977762D01*
X9119286Y-14025381D01*
X9109762Y-14044428D01*
X9100238Y-14053952D01*
X9081190Y-14063476D01*
X9033571Y-14063476D01*
X9014524Y-14053952D01*
X9005000Y-14044428D01*
X9195476Y-13863476D02*
X9195476Y-13901571D01*
X9271667Y-13863476D02*
X9271667Y-13901571D01*
X9566905Y-14139667D02*
X9557381Y-14130143D01*
X9538333Y-14101571D01*
X9528810Y-14082524D01*
X9519286Y-14053952D01*
X9509762Y-14006333D01*
X9509762Y-13968238D01*
X9519286Y-13920619D01*
X9528810Y-13892048D01*
X9538333Y-13873000D01*
X9557381Y-13844428D01*
X9566905Y-13834905D01*
X9747857Y-14063476D02*
X9633571Y-14063476D01*
X9690714Y-14063476D02*
X9690714Y-13863476D01*
X9671667Y-13892048D01*
X9652619Y-13911095D01*
X9633571Y-13920619D01*
X9919286Y-13930143D02*
X9919286Y-14063476D01*
X9871667Y-13853952D02*
X9824048Y-13996809D01*
X9947857Y-13996809D01*
X10176429Y-14063476D02*
X10176429Y-13863476D01*
X10262143Y-14063476D02*
X10262143Y-13958714D01*
X10252619Y-13939667D01*
X10233571Y-13930143D01*
X10205000Y-13930143D01*
X10185952Y-13939667D01*
X10176429Y-13949190D01*
X10385952Y-14063476D02*
X10366905Y-14053952D01*
X10357381Y-14044428D01*
X10347857Y-14025381D01*
X10347857Y-13968238D01*
X10357381Y-13949190D01*
X10366905Y-13939667D01*
X10385952Y-13930143D01*
X10414524Y-13930143D01*
X10433571Y-13939667D01*
X10443095Y-13949190D01*
X10452619Y-13968238D01*
X10452619Y-14025381D01*
X10443095Y-14044428D01*
X10433571Y-14053952D01*
X10414524Y-14063476D01*
X10385952Y-14063476D01*
X10566905Y-14063476D02*
X10547857Y-14053952D01*
X10538333Y-14034905D01*
X10538333Y-13863476D01*
X10719286Y-14053952D02*
X10700238Y-14063476D01*
X10662143Y-14063476D01*
X10643095Y-14053952D01*
X10633571Y-14034905D01*
X10633571Y-13958714D01*
X10643095Y-13939667D01*
X10662143Y-13930143D01*
X10700238Y-13930143D01*
X10719286Y-13939667D01*
X10728810Y-13958714D01*
X10728810Y-13977762D01*
X10633571Y-13996809D01*
X10805000Y-14053952D02*
X10824048Y-14063476D01*
X10862143Y-14063476D01*
X10881190Y-14053952D01*
X10890714Y-14034905D01*
X10890714Y-14025381D01*
X10881190Y-14006333D01*
X10862143Y-13996809D01*
X10833571Y-13996809D01*
X10814524Y-13987286D01*
X10805000Y-13968238D01*
X10805000Y-13958714D01*
X10814524Y-13939667D01*
X10833571Y-13930143D01*
X10862143Y-13930143D01*
X10881190Y-13939667D01*
X10957381Y-14139667D02*
X10966905Y-14130143D01*
X10985952Y-14101571D01*
X10995476Y-14082524D01*
X11005000Y-14053952D01*
X11014524Y-14006333D01*
X11014524Y-13968238D01*
X11005000Y-13920619D01*
X10995476Y-13892048D01*
X10985952Y-13873000D01*
X10966905Y-13844428D01*
X10957381Y-13834905D01*
D16*
X5983097Y-14265737D02*
X5983097Y-14208263D01*
X5925623Y-14208263D01*
X5925623Y-14265737D01*
X5983097Y-14265737D01*
D12*
X6290714Y-14127476D02*
X6309762Y-14127476D01*
X6328809Y-14137000D01*
X6338333Y-14146524D01*
X6347857Y-14165571D01*
X6357381Y-14203667D01*
X6357381Y-14251286D01*
X6347857Y-14289381D01*
X6338333Y-14308428D01*
X6328809Y-14317952D01*
X6309762Y-14327476D01*
X6290714Y-14327476D01*
X6271667Y-14317952D01*
X6262143Y-14308428D01*
X6252619Y-14289381D01*
X6243095Y-14251286D01*
X6243095Y-14203667D01*
X6252619Y-14165571D01*
X6262143Y-14146524D01*
X6271667Y-14137000D01*
X6290714Y-14127476D01*
X6443095Y-14308428D02*
X6452619Y-14317952D01*
X6443095Y-14327476D01*
X6433571Y-14317952D01*
X6443095Y-14308428D01*
X6443095Y-14327476D01*
X6566905Y-14213190D02*
X6547857Y-14203667D01*
X6538333Y-14194143D01*
X6528809Y-14175095D01*
X6528809Y-14165571D01*
X6538333Y-14146524D01*
X6547857Y-14137000D01*
X6566905Y-14127476D01*
X6605000Y-14127476D01*
X6624048Y-14137000D01*
X6633571Y-14146524D01*
X6643095Y-14165571D01*
X6643095Y-14175095D01*
X6633571Y-14194143D01*
X6624048Y-14203667D01*
X6605000Y-14213190D01*
X6566905Y-14213190D01*
X6547857Y-14222714D01*
X6538333Y-14232238D01*
X6528809Y-14251286D01*
X6528809Y-14289381D01*
X6538333Y-14308428D01*
X6547857Y-14317952D01*
X6566905Y-14327476D01*
X6605000Y-14327476D01*
X6624048Y-14317952D01*
X6633571Y-14308428D01*
X6643095Y-14289381D01*
X6643095Y-14251286D01*
X6633571Y-14232238D01*
X6624048Y-14222714D01*
X6605000Y-14213190D01*
X6833571Y-14327476D02*
X6719286Y-14327476D01*
X6776428Y-14327476D02*
X6776428Y-14127476D01*
X6757381Y-14156048D01*
X6738333Y-14175095D01*
X6719286Y-14184619D01*
X6900238Y-14127476D02*
X7024048Y-14127476D01*
X6957381Y-14203667D01*
X6985952Y-14203667D01*
X7005000Y-14213190D01*
X7014524Y-14222714D01*
X7024048Y-14241762D01*
X7024048Y-14289381D01*
X7014524Y-14308428D01*
X7005000Y-14317952D01*
X6985952Y-14327476D01*
X6928809Y-14327476D01*
X6909762Y-14317952D01*
X6900238Y-14308428D01*
X7109762Y-14327476D02*
X7109762Y-14194143D01*
X7109762Y-14213190D02*
X7119286Y-14203667D01*
X7138333Y-14194143D01*
X7166905Y-14194143D01*
X7185952Y-14203667D01*
X7195476Y-14222714D01*
X7195476Y-14327476D01*
X7195476Y-14222714D02*
X7205000Y-14203667D01*
X7224048Y-14194143D01*
X7252619Y-14194143D01*
X7271667Y-14203667D01*
X7281190Y-14222714D01*
X7281190Y-14327476D01*
X7376428Y-14327476D02*
X7376428Y-14194143D01*
X7376428Y-14213190D02*
X7385952Y-14203667D01*
X7405000Y-14194143D01*
X7433571Y-14194143D01*
X7452619Y-14203667D01*
X7462143Y-14222714D01*
X7462143Y-14327476D01*
X7462143Y-14222714D02*
X7471667Y-14203667D01*
X7490714Y-14194143D01*
X7519286Y-14194143D01*
X7538333Y-14203667D01*
X7547857Y-14222714D01*
X7547857Y-14327476D01*
X7938333Y-14117952D02*
X7766905Y-14375095D01*
X8195476Y-14127476D02*
X8214524Y-14127476D01*
X8233571Y-14137000D01*
X8243095Y-14146524D01*
X8252619Y-14165571D01*
X8262143Y-14203667D01*
X8262143Y-14251286D01*
X8252619Y-14289381D01*
X8243095Y-14308428D01*
X8233571Y-14317952D01*
X8214524Y-14327476D01*
X8195476Y-14327476D01*
X8176428Y-14317952D01*
X8166905Y-14308428D01*
X8157381Y-14289381D01*
X8147857Y-14251286D01*
X8147857Y-14203667D01*
X8157381Y-14165571D01*
X8166905Y-14146524D01*
X8176428Y-14137000D01*
X8195476Y-14127476D01*
X8347857Y-14308428D02*
X8357381Y-14317952D01*
X8347857Y-14327476D01*
X8338333Y-14317952D01*
X8347857Y-14308428D01*
X8347857Y-14327476D01*
X8481190Y-14127476D02*
X8500238Y-14127476D01*
X8519286Y-14137000D01*
X8528810Y-14146524D01*
X8538333Y-14165571D01*
X8547857Y-14203667D01*
X8547857Y-14251286D01*
X8538333Y-14289381D01*
X8528810Y-14308428D01*
X8519286Y-14317952D01*
X8500238Y-14327476D01*
X8481190Y-14327476D01*
X8462143Y-14317952D01*
X8452619Y-14308428D01*
X8443095Y-14289381D01*
X8433571Y-14251286D01*
X8433571Y-14203667D01*
X8443095Y-14165571D01*
X8452619Y-14146524D01*
X8462143Y-14137000D01*
X8481190Y-14127476D01*
X8614524Y-14127476D02*
X8738333Y-14127476D01*
X8671667Y-14203667D01*
X8700238Y-14203667D01*
X8719286Y-14213190D01*
X8728810Y-14222714D01*
X8738333Y-14241762D01*
X8738333Y-14289381D01*
X8728810Y-14308428D01*
X8719286Y-14317952D01*
X8700238Y-14327476D01*
X8643095Y-14327476D01*
X8624048Y-14317952D01*
X8614524Y-14308428D01*
X8814524Y-14146524D02*
X8824048Y-14137000D01*
X8843095Y-14127476D01*
X8890714Y-14127476D01*
X8909762Y-14137000D01*
X8919286Y-14146524D01*
X8928810Y-14165571D01*
X8928810Y-14184619D01*
X8919286Y-14213190D01*
X8805000Y-14327476D01*
X8928810Y-14327476D01*
X9052619Y-14127476D02*
X9071667Y-14127476D01*
X9090714Y-14137000D01*
X9100238Y-14146524D01*
X9109762Y-14165571D01*
X9119286Y-14203667D01*
X9119286Y-14251286D01*
X9109762Y-14289381D01*
X9100238Y-14308428D01*
X9090714Y-14317952D01*
X9071667Y-14327476D01*
X9052619Y-14327476D01*
X9033571Y-14317952D01*
X9024048Y-14308428D01*
X9014524Y-14289381D01*
X9005000Y-14251286D01*
X9005000Y-14203667D01*
X9014524Y-14165571D01*
X9024048Y-14146524D01*
X9033571Y-14137000D01*
X9052619Y-14127476D01*
X9195476Y-14127476D02*
X9195476Y-14165571D01*
X9271667Y-14127476D02*
X9271667Y-14165571D01*
X9566905Y-14403667D02*
X9557381Y-14394143D01*
X9538333Y-14365571D01*
X9528810Y-14346524D01*
X9519286Y-14317952D01*
X9509762Y-14270333D01*
X9509762Y-14232238D01*
X9519286Y-14184619D01*
X9528810Y-14156048D01*
X9538333Y-14137000D01*
X9557381Y-14108428D01*
X9566905Y-14098905D01*
X9728810Y-14194143D02*
X9728810Y-14327476D01*
X9681190Y-14117952D02*
X9633571Y-14260809D01*
X9757381Y-14260809D01*
X9985952Y-14327476D02*
X9985952Y-14127476D01*
X10071667Y-14327476D02*
X10071667Y-14222714D01*
X10062143Y-14203667D01*
X10043095Y-14194143D01*
X10014524Y-14194143D01*
X9995476Y-14203667D01*
X9985952Y-14213190D01*
X10195476Y-14327476D02*
X10176429Y-14317952D01*
X10166905Y-14308428D01*
X10157381Y-14289381D01*
X10157381Y-14232238D01*
X10166905Y-14213190D01*
X10176429Y-14203667D01*
X10195476Y-14194143D01*
X10224048Y-14194143D01*
X10243095Y-14203667D01*
X10252619Y-14213190D01*
X10262143Y-14232238D01*
X10262143Y-14289381D01*
X10252619Y-14308428D01*
X10243095Y-14317952D01*
X10224048Y-14327476D01*
X10195476Y-14327476D01*
X10376429Y-14327476D02*
X10357381Y-14317952D01*
X10347857Y-14298905D01*
X10347857Y-14127476D01*
X10528810Y-14317952D02*
X10509762Y-14327476D01*
X10471667Y-14327476D01*
X10452619Y-14317952D01*
X10443095Y-14298905D01*
X10443095Y-14222714D01*
X10452619Y-14203667D01*
X10471667Y-14194143D01*
X10509762Y-14194143D01*
X10528810Y-14203667D01*
X10538333Y-14222714D01*
X10538333Y-14241762D01*
X10443095Y-14260809D01*
X10614524Y-14317952D02*
X10633571Y-14327476D01*
X10671667Y-14327476D01*
X10690714Y-14317952D01*
X10700238Y-14298905D01*
X10700238Y-14289381D01*
X10690714Y-14270333D01*
X10671667Y-14260809D01*
X10643095Y-14260809D01*
X10624048Y-14251286D01*
X10614524Y-14232238D01*
X10614524Y-14222714D01*
X10624048Y-14203667D01*
X10643095Y-14194143D01*
X10671667Y-14194143D01*
X10690714Y-14203667D01*
X10766905Y-14403667D02*
X10776429Y-14394143D01*
X10795476Y-14365571D01*
X10805000Y-14346524D01*
X10814524Y-14317952D01*
X10824048Y-14270333D01*
X10824048Y-14232238D01*
X10814524Y-14184619D01*
X10805000Y-14156048D01*
X10795476Y-14137000D01*
X10776429Y-14108428D01*
X10766905Y-14098905D01*
D10*
X5945000Y-14551000D02*
X5995000Y-14501000D01*
X5945000Y-14451000D01*
X5895000Y-14501000D01*
X5945000Y-14551000D01*
D12*
X6357381Y-14591476D02*
X6243095Y-14591476D01*
X6300238Y-14591476D02*
X6300238Y-14391476D01*
X6281190Y-14420048D01*
X6262143Y-14439095D01*
X6243095Y-14448619D01*
X6443095Y-14572428D02*
X6452619Y-14581952D01*
X6443095Y-14591476D01*
X6433571Y-14581952D01*
X6443095Y-14572428D01*
X6443095Y-14591476D01*
X6576428Y-14391476D02*
X6595476Y-14391476D01*
X6614524Y-14401000D01*
X6624048Y-14410524D01*
X6633571Y-14429571D01*
X6643095Y-14467667D01*
X6643095Y-14515286D01*
X6633571Y-14553381D01*
X6624048Y-14572428D01*
X6614524Y-14581952D01*
X6595476Y-14591476D01*
X6576428Y-14591476D01*
X6557381Y-14581952D01*
X6547857Y-14572428D01*
X6538333Y-14553381D01*
X6528809Y-14515286D01*
X6528809Y-14467667D01*
X6538333Y-14429571D01*
X6547857Y-14410524D01*
X6557381Y-14401000D01*
X6576428Y-14391476D01*
X6766905Y-14391476D02*
X6785952Y-14391476D01*
X6805000Y-14401000D01*
X6814524Y-14410524D01*
X6824048Y-14429571D01*
X6833571Y-14467667D01*
X6833571Y-14515286D01*
X6824048Y-14553381D01*
X6814524Y-14572428D01*
X6805000Y-14581952D01*
X6785952Y-14591476D01*
X6766905Y-14591476D01*
X6747857Y-14581952D01*
X6738333Y-14572428D01*
X6728809Y-14553381D01*
X6719286Y-14515286D01*
X6719286Y-14467667D01*
X6728809Y-14429571D01*
X6738333Y-14410524D01*
X6747857Y-14401000D01*
X6766905Y-14391476D01*
X6957381Y-14391476D02*
X6976428Y-14391476D01*
X6995476Y-14401000D01*
X7005000Y-14410524D01*
X7014524Y-14429571D01*
X7024048Y-14467667D01*
X7024048Y-14515286D01*
X7014524Y-14553381D01*
X7005000Y-14572428D01*
X6995476Y-14581952D01*
X6976428Y-14591476D01*
X6957381Y-14591476D01*
X6938333Y-14581952D01*
X6928809Y-14572428D01*
X6919286Y-14553381D01*
X6909762Y-14515286D01*
X6909762Y-14467667D01*
X6919286Y-14429571D01*
X6928809Y-14410524D01*
X6938333Y-14401000D01*
X6957381Y-14391476D01*
X7109762Y-14591476D02*
X7109762Y-14458143D01*
X7109762Y-14477190D02*
X7119286Y-14467667D01*
X7138333Y-14458143D01*
X7166905Y-14458143D01*
X7185952Y-14467667D01*
X7195476Y-14486714D01*
X7195476Y-14591476D01*
X7195476Y-14486714D02*
X7205000Y-14467667D01*
X7224048Y-14458143D01*
X7252619Y-14458143D01*
X7271667Y-14467667D01*
X7281190Y-14486714D01*
X7281190Y-14591476D01*
X7376428Y-14591476D02*
X7376428Y-14458143D01*
X7376428Y-14477190D02*
X7385952Y-14467667D01*
X7405000Y-14458143D01*
X7433571Y-14458143D01*
X7452619Y-14467667D01*
X7462143Y-14486714D01*
X7462143Y-14591476D01*
X7462143Y-14486714D02*
X7471667Y-14467667D01*
X7490714Y-14458143D01*
X7519286Y-14458143D01*
X7538333Y-14467667D01*
X7547857Y-14486714D01*
X7547857Y-14591476D01*
X7938333Y-14381952D02*
X7766905Y-14639095D01*
X8195476Y-14391476D02*
X8214524Y-14391476D01*
X8233571Y-14401000D01*
X8243095Y-14410524D01*
X8252619Y-14429571D01*
X8262143Y-14467667D01*
X8262143Y-14515286D01*
X8252619Y-14553381D01*
X8243095Y-14572428D01*
X8233571Y-14581952D01*
X8214524Y-14591476D01*
X8195476Y-14591476D01*
X8176428Y-14581952D01*
X8166905Y-14572428D01*
X8157381Y-14553381D01*
X8147857Y-14515286D01*
X8147857Y-14467667D01*
X8157381Y-14429571D01*
X8166905Y-14410524D01*
X8176428Y-14401000D01*
X8195476Y-14391476D01*
X8347857Y-14572428D02*
X8357381Y-14581952D01*
X8347857Y-14591476D01*
X8338333Y-14581952D01*
X8347857Y-14572428D01*
X8347857Y-14591476D01*
X8481190Y-14391476D02*
X8500238Y-14391476D01*
X8519286Y-14401000D01*
X8528810Y-14410524D01*
X8538333Y-14429571D01*
X8547857Y-14467667D01*
X8547857Y-14515286D01*
X8538333Y-14553381D01*
X8528810Y-14572428D01*
X8519286Y-14581952D01*
X8500238Y-14591476D01*
X8481190Y-14591476D01*
X8462143Y-14581952D01*
X8452619Y-14572428D01*
X8443095Y-14553381D01*
X8433571Y-14515286D01*
X8433571Y-14467667D01*
X8443095Y-14429571D01*
X8452619Y-14410524D01*
X8462143Y-14401000D01*
X8481190Y-14391476D01*
X8614524Y-14391476D02*
X8738333Y-14391476D01*
X8671667Y-14467667D01*
X8700238Y-14467667D01*
X8719286Y-14477190D01*
X8728810Y-14486714D01*
X8738333Y-14505762D01*
X8738333Y-14553381D01*
X8728810Y-14572428D01*
X8719286Y-14581952D01*
X8700238Y-14591476D01*
X8643095Y-14591476D01*
X8624048Y-14581952D01*
X8614524Y-14572428D01*
X8833571Y-14591476D02*
X8871667Y-14591476D01*
X8890714Y-14581952D01*
X8900238Y-14572428D01*
X8919286Y-14543857D01*
X8928810Y-14505762D01*
X8928810Y-14429571D01*
X8919286Y-14410524D01*
X8909762Y-14401000D01*
X8890714Y-14391476D01*
X8852619Y-14391476D01*
X8833571Y-14401000D01*
X8824048Y-14410524D01*
X8814524Y-14429571D01*
X8814524Y-14477190D01*
X8824048Y-14496238D01*
X8833571Y-14505762D01*
X8852619Y-14515286D01*
X8890714Y-14515286D01*
X8909762Y-14505762D01*
X8919286Y-14496238D01*
X8928810Y-14477190D01*
X9100238Y-14458143D02*
X9100238Y-14591476D01*
X9052619Y-14381952D02*
X9005000Y-14524809D01*
X9128810Y-14524809D01*
X9195476Y-14391476D02*
X9195476Y-14429571D01*
X9271667Y-14391476D02*
X9271667Y-14429571D01*
X9566905Y-14667667D02*
X9557381Y-14658143D01*
X9538333Y-14629571D01*
X9528810Y-14610524D01*
X9519286Y-14581952D01*
X9509762Y-14534333D01*
X9509762Y-14496238D01*
X9519286Y-14448619D01*
X9528810Y-14420048D01*
X9538333Y-14401000D01*
X9557381Y-14372428D01*
X9566905Y-14362905D01*
X9633571Y-14410524D02*
X9643095Y-14401000D01*
X9662143Y-14391476D01*
X9709762Y-14391476D01*
X9728810Y-14401000D01*
X9738333Y-14410524D01*
X9747857Y-14429571D01*
X9747857Y-14448619D01*
X9738333Y-14477190D01*
X9624048Y-14591476D01*
X9747857Y-14591476D01*
X9919286Y-14391476D02*
X9881190Y-14391476D01*
X9862143Y-14401000D01*
X9852619Y-14410524D01*
X9833571Y-14439095D01*
X9824048Y-14477190D01*
X9824048Y-14553381D01*
X9833571Y-14572428D01*
X9843095Y-14581952D01*
X9862143Y-14591476D01*
X9900238Y-14591476D01*
X9919286Y-14581952D01*
X9928810Y-14572428D01*
X9938333Y-14553381D01*
X9938333Y-14505762D01*
X9928810Y-14486714D01*
X9919286Y-14477190D01*
X9900238Y-14467667D01*
X9862143Y-14467667D01*
X9843095Y-14477190D01*
X9833571Y-14486714D01*
X9824048Y-14505762D01*
X10176429Y-14591476D02*
X10176429Y-14391476D01*
X10262143Y-14591476D02*
X10262143Y-14486714D01*
X10252619Y-14467667D01*
X10233571Y-14458143D01*
X10205000Y-14458143D01*
X10185952Y-14467667D01*
X10176429Y-14477190D01*
X10385952Y-14591476D02*
X10366905Y-14581952D01*
X10357381Y-14572428D01*
X10347857Y-14553381D01*
X10347857Y-14496238D01*
X10357381Y-14477190D01*
X10366905Y-14467667D01*
X10385952Y-14458143D01*
X10414524Y-14458143D01*
X10433571Y-14467667D01*
X10443095Y-14477190D01*
X10452619Y-14496238D01*
X10452619Y-14553381D01*
X10443095Y-14572428D01*
X10433571Y-14581952D01*
X10414524Y-14591476D01*
X10385952Y-14591476D01*
X10566905Y-14591476D02*
X10547857Y-14581952D01*
X10538333Y-14562905D01*
X10538333Y-14391476D01*
X10719286Y-14581952D02*
X10700238Y-14591476D01*
X10662143Y-14591476D01*
X10643095Y-14581952D01*
X10633571Y-14562905D01*
X10633571Y-14486714D01*
X10643095Y-14467667D01*
X10662143Y-14458143D01*
X10700238Y-14458143D01*
X10719286Y-14467667D01*
X10728810Y-14486714D01*
X10728810Y-14505762D01*
X10633571Y-14524809D01*
X10805000Y-14581952D02*
X10824048Y-14591476D01*
X10862143Y-14591476D01*
X10881190Y-14581952D01*
X10890714Y-14562905D01*
X10890714Y-14553381D01*
X10881190Y-14534333D01*
X10862143Y-14524809D01*
X10833571Y-14524809D01*
X10814524Y-14515286D01*
X10805000Y-14496238D01*
X10805000Y-14486714D01*
X10814524Y-14467667D01*
X10833571Y-14458143D01*
X10862143Y-14458143D01*
X10881190Y-14467667D01*
X10957381Y-14667667D02*
X10966905Y-14658143D01*
X10985952Y-14629571D01*
X10995476Y-14610524D01*
X11005000Y-14581952D01*
X11014524Y-14534333D01*
X11014524Y-14496238D01*
X11005000Y-14448619D01*
X10995476Y-14420048D01*
X10985952Y-14401000D01*
X10966905Y-14372428D01*
X10957381Y-14362905D01*
D17*
X5894924Y-14714962D02*
X5995000Y-14815038D01*
X5995000Y-14714962D02*
X5894924Y-14815038D01*
X5995000Y-14765000D02*
G75*
G03*
X5995000Y-14765000I-50038J0D01*
G01*
D12*
X6357381Y-14855476D02*
X6243095Y-14855476D01*
X6300238Y-14855476D02*
X6300238Y-14655476D01*
X6281190Y-14684048D01*
X6262143Y-14703095D01*
X6243095Y-14712619D01*
X6443095Y-14836428D02*
X6452619Y-14845952D01*
X6443095Y-14855476D01*
X6433571Y-14845952D01*
X6443095Y-14836428D01*
X6443095Y-14855476D01*
X6576428Y-14655476D02*
X6595476Y-14655476D01*
X6614524Y-14665000D01*
X6624048Y-14674524D01*
X6633571Y-14693571D01*
X6643095Y-14731667D01*
X6643095Y-14779286D01*
X6633571Y-14817381D01*
X6624048Y-14836428D01*
X6614524Y-14845952D01*
X6595476Y-14855476D01*
X6576428Y-14855476D01*
X6557381Y-14845952D01*
X6547857Y-14836428D01*
X6538333Y-14817381D01*
X6528809Y-14779286D01*
X6528809Y-14731667D01*
X6538333Y-14693571D01*
X6547857Y-14674524D01*
X6557381Y-14665000D01*
X6576428Y-14655476D01*
X6766905Y-14655476D02*
X6785952Y-14655476D01*
X6805000Y-14665000D01*
X6814524Y-14674524D01*
X6824048Y-14693571D01*
X6833571Y-14731667D01*
X6833571Y-14779286D01*
X6824048Y-14817381D01*
X6814524Y-14836428D01*
X6805000Y-14845952D01*
X6785952Y-14855476D01*
X6766905Y-14855476D01*
X6747857Y-14845952D01*
X6738333Y-14836428D01*
X6728809Y-14817381D01*
X6719286Y-14779286D01*
X6719286Y-14731667D01*
X6728809Y-14693571D01*
X6738333Y-14674524D01*
X6747857Y-14665000D01*
X6766905Y-14655476D01*
X7024048Y-14855476D02*
X6909762Y-14855476D01*
X6966905Y-14855476D02*
X6966905Y-14655476D01*
X6947857Y-14684048D01*
X6928809Y-14703095D01*
X6909762Y-14712619D01*
X7109762Y-14855476D02*
X7109762Y-14722143D01*
X7109762Y-14741190D02*
X7119286Y-14731667D01*
X7138333Y-14722143D01*
X7166905Y-14722143D01*
X7185952Y-14731667D01*
X7195476Y-14750714D01*
X7195476Y-14855476D01*
X7195476Y-14750714D02*
X7205000Y-14731667D01*
X7224048Y-14722143D01*
X7252619Y-14722143D01*
X7271667Y-14731667D01*
X7281190Y-14750714D01*
X7281190Y-14855476D01*
X7376428Y-14855476D02*
X7376428Y-14722143D01*
X7376428Y-14741190D02*
X7385952Y-14731667D01*
X7405000Y-14722143D01*
X7433571Y-14722143D01*
X7452619Y-14731667D01*
X7462143Y-14750714D01*
X7462143Y-14855476D01*
X7462143Y-14750714D02*
X7471667Y-14731667D01*
X7490714Y-14722143D01*
X7519286Y-14722143D01*
X7538333Y-14731667D01*
X7547857Y-14750714D01*
X7547857Y-14855476D01*
X7938333Y-14645952D02*
X7766905Y-14903095D01*
X8195476Y-14655476D02*
X8214524Y-14655476D01*
X8233571Y-14665000D01*
X8243095Y-14674524D01*
X8252619Y-14693571D01*
X8262143Y-14731667D01*
X8262143Y-14779286D01*
X8252619Y-14817381D01*
X8243095Y-14836428D01*
X8233571Y-14845952D01*
X8214524Y-14855476D01*
X8195476Y-14855476D01*
X8176428Y-14845952D01*
X8166905Y-14836428D01*
X8157381Y-14817381D01*
X8147857Y-14779286D01*
X8147857Y-14731667D01*
X8157381Y-14693571D01*
X8166905Y-14674524D01*
X8176428Y-14665000D01*
X8195476Y-14655476D01*
X8347857Y-14836428D02*
X8357381Y-14845952D01*
X8347857Y-14855476D01*
X8338333Y-14845952D01*
X8347857Y-14836428D01*
X8347857Y-14855476D01*
X8481190Y-14655476D02*
X8500238Y-14655476D01*
X8519286Y-14665000D01*
X8528810Y-14674524D01*
X8538333Y-14693571D01*
X8547857Y-14731667D01*
X8547857Y-14779286D01*
X8538333Y-14817381D01*
X8528810Y-14836428D01*
X8519286Y-14845952D01*
X8500238Y-14855476D01*
X8481190Y-14855476D01*
X8462143Y-14845952D01*
X8452619Y-14836428D01*
X8443095Y-14817381D01*
X8433571Y-14779286D01*
X8433571Y-14731667D01*
X8443095Y-14693571D01*
X8452619Y-14674524D01*
X8462143Y-14665000D01*
X8481190Y-14655476D01*
X8614524Y-14655476D02*
X8738333Y-14655476D01*
X8671667Y-14731667D01*
X8700238Y-14731667D01*
X8719286Y-14741190D01*
X8728810Y-14750714D01*
X8738333Y-14769762D01*
X8738333Y-14817381D01*
X8728810Y-14836428D01*
X8719286Y-14845952D01*
X8700238Y-14855476D01*
X8643095Y-14855476D01*
X8624048Y-14845952D01*
X8614524Y-14836428D01*
X8833571Y-14855476D02*
X8871667Y-14855476D01*
X8890714Y-14845952D01*
X8900238Y-14836428D01*
X8919286Y-14807857D01*
X8928810Y-14769762D01*
X8928810Y-14693571D01*
X8919286Y-14674524D01*
X8909762Y-14665000D01*
X8890714Y-14655476D01*
X8852619Y-14655476D01*
X8833571Y-14665000D01*
X8824048Y-14674524D01*
X8814524Y-14693571D01*
X8814524Y-14741190D01*
X8824048Y-14760238D01*
X8833571Y-14769762D01*
X8852619Y-14779286D01*
X8890714Y-14779286D01*
X8909762Y-14769762D01*
X8919286Y-14760238D01*
X8928810Y-14741190D01*
X9100238Y-14722143D02*
X9100238Y-14855476D01*
X9052619Y-14645952D02*
X9005000Y-14788809D01*
X9128810Y-14788809D01*
X9195476Y-14655476D02*
X9195476Y-14693571D01*
X9271667Y-14655476D02*
X9271667Y-14693571D01*
X9566905Y-14931667D02*
X9557381Y-14922143D01*
X9538333Y-14893571D01*
X9528810Y-14874524D01*
X9519286Y-14845952D01*
X9509762Y-14798333D01*
X9509762Y-14760238D01*
X9519286Y-14712619D01*
X9528810Y-14684048D01*
X9538333Y-14665000D01*
X9557381Y-14636428D01*
X9566905Y-14626905D01*
X9747857Y-14855476D02*
X9633571Y-14855476D01*
X9690714Y-14855476D02*
X9690714Y-14655476D01*
X9671667Y-14684048D01*
X9652619Y-14703095D01*
X9633571Y-14712619D01*
X9871667Y-14655476D02*
X9890714Y-14655476D01*
X9909762Y-14665000D01*
X9919286Y-14674524D01*
X9928810Y-14693571D01*
X9938333Y-14731667D01*
X9938333Y-14779286D01*
X9928810Y-14817381D01*
X9919286Y-14836428D01*
X9909762Y-14845952D01*
X9890714Y-14855476D01*
X9871667Y-14855476D01*
X9852619Y-14845952D01*
X9843095Y-14836428D01*
X9833571Y-14817381D01*
X9824048Y-14779286D01*
X9824048Y-14731667D01*
X9833571Y-14693571D01*
X9843095Y-14674524D01*
X9852619Y-14665000D01*
X9871667Y-14655476D01*
X10176429Y-14855476D02*
X10176429Y-14655476D01*
X10262143Y-14855476D02*
X10262143Y-14750714D01*
X10252619Y-14731667D01*
X10233571Y-14722143D01*
X10205000Y-14722143D01*
X10185952Y-14731667D01*
X10176429Y-14741190D01*
X10385952Y-14855476D02*
X10366905Y-14845952D01*
X10357381Y-14836428D01*
X10347857Y-14817381D01*
X10347857Y-14760238D01*
X10357381Y-14741190D01*
X10366905Y-14731667D01*
X10385952Y-14722143D01*
X10414524Y-14722143D01*
X10433571Y-14731667D01*
X10443095Y-14741190D01*
X10452619Y-14760238D01*
X10452619Y-14817381D01*
X10443095Y-14836428D01*
X10433571Y-14845952D01*
X10414524Y-14855476D01*
X10385952Y-14855476D01*
X10566905Y-14855476D02*
X10547857Y-14845952D01*
X10538333Y-14826905D01*
X10538333Y-14655476D01*
X10719286Y-14845952D02*
X10700238Y-14855476D01*
X10662143Y-14855476D01*
X10643095Y-14845952D01*
X10633571Y-14826905D01*
X10633571Y-14750714D01*
X10643095Y-14731667D01*
X10662143Y-14722143D01*
X10700238Y-14722143D01*
X10719286Y-14731667D01*
X10728810Y-14750714D01*
X10728810Y-14769762D01*
X10633571Y-14788809D01*
X10805000Y-14845952D02*
X10824048Y-14855476D01*
X10862143Y-14855476D01*
X10881190Y-14845952D01*
X10890714Y-14826905D01*
X10890714Y-14817381D01*
X10881190Y-14798333D01*
X10862143Y-14788809D01*
X10833571Y-14788809D01*
X10814524Y-14779286D01*
X10805000Y-14760238D01*
X10805000Y-14750714D01*
X10814524Y-14731667D01*
X10833571Y-14722143D01*
X10862143Y-14722143D01*
X10881190Y-14731667D01*
X10957381Y-14931667D02*
X10966905Y-14922143D01*
X10985952Y-14893571D01*
X10995476Y-14874524D01*
X11005000Y-14845952D01*
X11014524Y-14798333D01*
X11014524Y-14760238D01*
X11005000Y-14712619D01*
X10995476Y-14684048D01*
X10985952Y-14665000D01*
X10966905Y-14636428D01*
X10957381Y-14626905D01*
D18*
X5875112Y-14969056D02*
X5995000Y-15088944D01*
X5995000Y-14969056D02*
X5875112Y-15088944D01*
X5935056Y-14969056D02*
X5935056Y-15088944D01*
X5875112Y-15029000D02*
X5995000Y-15029000D01*
D12*
X6357381Y-15119476D02*
X6243095Y-15119476D01*
X6300238Y-15119476D02*
X6300238Y-14919476D01*
X6281190Y-14948048D01*
X6262143Y-14967095D01*
X6243095Y-14976619D01*
X6443095Y-15100428D02*
X6452619Y-15109952D01*
X6443095Y-15119476D01*
X6433571Y-15109952D01*
X6443095Y-15100428D01*
X6443095Y-15119476D01*
X6643095Y-15119476D02*
X6528809Y-15119476D01*
X6585952Y-15119476D02*
X6585952Y-14919476D01*
X6566905Y-14948048D01*
X6547857Y-14967095D01*
X6528809Y-14976619D01*
X6738333Y-15119476D02*
X6776428Y-15119476D01*
X6795476Y-15109952D01*
X6805000Y-15100428D01*
X6824048Y-15071857D01*
X6833571Y-15033762D01*
X6833571Y-14957571D01*
X6824048Y-14938524D01*
X6814524Y-14929000D01*
X6795476Y-14919476D01*
X6757381Y-14919476D01*
X6738333Y-14929000D01*
X6728809Y-14938524D01*
X6719286Y-14957571D01*
X6719286Y-15005190D01*
X6728809Y-15024238D01*
X6738333Y-15033762D01*
X6757381Y-15043286D01*
X6795476Y-15043286D01*
X6814524Y-15033762D01*
X6824048Y-15024238D01*
X6833571Y-15005190D01*
X6928809Y-15119476D02*
X6966905Y-15119476D01*
X6985952Y-15109952D01*
X6995476Y-15100428D01*
X7014524Y-15071857D01*
X7024048Y-15033762D01*
X7024048Y-14957571D01*
X7014524Y-14938524D01*
X7005000Y-14929000D01*
X6985952Y-14919476D01*
X6947857Y-14919476D01*
X6928809Y-14929000D01*
X6919286Y-14938524D01*
X6909762Y-14957571D01*
X6909762Y-15005190D01*
X6919286Y-15024238D01*
X6928809Y-15033762D01*
X6947857Y-15043286D01*
X6985952Y-15043286D01*
X7005000Y-15033762D01*
X7014524Y-15024238D01*
X7024048Y-15005190D01*
X7109762Y-15119476D02*
X7109762Y-14986143D01*
X7109762Y-15005190D02*
X7119286Y-14995667D01*
X7138333Y-14986143D01*
X7166905Y-14986143D01*
X7185952Y-14995667D01*
X7195476Y-15014714D01*
X7195476Y-15119476D01*
X7195476Y-15014714D02*
X7205000Y-14995667D01*
X7224048Y-14986143D01*
X7252619Y-14986143D01*
X7271667Y-14995667D01*
X7281190Y-15014714D01*
X7281190Y-15119476D01*
X7376428Y-15119476D02*
X7376428Y-14986143D01*
X7376428Y-15005190D02*
X7385952Y-14995667D01*
X7405000Y-14986143D01*
X7433571Y-14986143D01*
X7452619Y-14995667D01*
X7462143Y-15014714D01*
X7462143Y-15119476D01*
X7462143Y-15014714D02*
X7471667Y-14995667D01*
X7490714Y-14986143D01*
X7519286Y-14986143D01*
X7538333Y-14995667D01*
X7547857Y-15014714D01*
X7547857Y-15119476D01*
X7938333Y-14909952D02*
X7766905Y-15167095D01*
X8195476Y-14919476D02*
X8214524Y-14919476D01*
X8233571Y-14929000D01*
X8243095Y-14938524D01*
X8252619Y-14957571D01*
X8262143Y-14995667D01*
X8262143Y-15043286D01*
X8252619Y-15081381D01*
X8243095Y-15100428D01*
X8233571Y-15109952D01*
X8214524Y-15119476D01*
X8195476Y-15119476D01*
X8176428Y-15109952D01*
X8166905Y-15100428D01*
X8157381Y-15081381D01*
X8147857Y-15043286D01*
X8147857Y-14995667D01*
X8157381Y-14957571D01*
X8166905Y-14938524D01*
X8176428Y-14929000D01*
X8195476Y-14919476D01*
X8347857Y-15100428D02*
X8357381Y-15109952D01*
X8347857Y-15119476D01*
X8338333Y-15109952D01*
X8347857Y-15100428D01*
X8347857Y-15119476D01*
X8481190Y-14919476D02*
X8500238Y-14919476D01*
X8519286Y-14929000D01*
X8528810Y-14938524D01*
X8538333Y-14957571D01*
X8547857Y-14995667D01*
X8547857Y-15043286D01*
X8538333Y-15081381D01*
X8528810Y-15100428D01*
X8519286Y-15109952D01*
X8500238Y-15119476D01*
X8481190Y-15119476D01*
X8462143Y-15109952D01*
X8452619Y-15100428D01*
X8443095Y-15081381D01*
X8433571Y-15043286D01*
X8433571Y-14995667D01*
X8443095Y-14957571D01*
X8452619Y-14938524D01*
X8462143Y-14929000D01*
X8481190Y-14919476D01*
X8719286Y-14986143D02*
X8719286Y-15119476D01*
X8671667Y-14909952D02*
X8624048Y-15052809D01*
X8747857Y-15052809D01*
X8805000Y-14919476D02*
X8938333Y-14919476D01*
X8852619Y-15119476D01*
X9005000Y-14938524D02*
X9014524Y-14929000D01*
X9033571Y-14919476D01*
X9081190Y-14919476D01*
X9100238Y-14929000D01*
X9109762Y-14938524D01*
X9119286Y-14957571D01*
X9119286Y-14976619D01*
X9109762Y-15005190D01*
X8995476Y-15119476D01*
X9119286Y-15119476D01*
X9195476Y-14919476D02*
X9195476Y-14957571D01*
X9271667Y-14919476D02*
X9271667Y-14957571D01*
X9566905Y-15195667D02*
X9557381Y-15186143D01*
X9538333Y-15157571D01*
X9528810Y-15138524D01*
X9519286Y-15109952D01*
X9509762Y-15062333D01*
X9509762Y-15024238D01*
X9519286Y-14976619D01*
X9528810Y-14948048D01*
X9538333Y-14929000D01*
X9557381Y-14900428D01*
X9566905Y-14890905D01*
X9747857Y-15119476D02*
X9633571Y-15119476D01*
X9690714Y-15119476D02*
X9690714Y-14919476D01*
X9671667Y-14948048D01*
X9652619Y-14967095D01*
X9633571Y-14976619D01*
X9824048Y-14938524D02*
X9833571Y-14929000D01*
X9852619Y-14919476D01*
X9900238Y-14919476D01*
X9919286Y-14929000D01*
X9928810Y-14938524D01*
X9938333Y-14957571D01*
X9938333Y-14976619D01*
X9928810Y-15005190D01*
X9814524Y-15119476D01*
X9938333Y-15119476D01*
X10176429Y-15119476D02*
X10176429Y-14919476D01*
X10262143Y-15119476D02*
X10262143Y-15014714D01*
X10252619Y-14995667D01*
X10233571Y-14986143D01*
X10205000Y-14986143D01*
X10185952Y-14995667D01*
X10176429Y-15005190D01*
X10385952Y-15119476D02*
X10366905Y-15109952D01*
X10357381Y-15100428D01*
X10347857Y-15081381D01*
X10347857Y-15024238D01*
X10357381Y-15005190D01*
X10366905Y-14995667D01*
X10385952Y-14986143D01*
X10414524Y-14986143D01*
X10433571Y-14995667D01*
X10443095Y-15005190D01*
X10452619Y-15024238D01*
X10452619Y-15081381D01*
X10443095Y-15100428D01*
X10433571Y-15109952D01*
X10414524Y-15119476D01*
X10385952Y-15119476D01*
X10566905Y-15119476D02*
X10547857Y-15109952D01*
X10538333Y-15090905D01*
X10538333Y-14919476D01*
X10719286Y-15109952D02*
X10700238Y-15119476D01*
X10662143Y-15119476D01*
X10643095Y-15109952D01*
X10633571Y-15090905D01*
X10633571Y-15014714D01*
X10643095Y-14995667D01*
X10662143Y-14986143D01*
X10700238Y-14986143D01*
X10719286Y-14995667D01*
X10728810Y-15014714D01*
X10728810Y-15033762D01*
X10633571Y-15052809D01*
X10805000Y-15109952D02*
X10824048Y-15119476D01*
X10862143Y-15119476D01*
X10881190Y-15109952D01*
X10890714Y-15090905D01*
X10890714Y-15081381D01*
X10881190Y-15062333D01*
X10862143Y-15052809D01*
X10833571Y-15052809D01*
X10814524Y-15043286D01*
X10805000Y-15024238D01*
X10805000Y-15014714D01*
X10814524Y-14995667D01*
X10833571Y-14986143D01*
X10862143Y-14986143D01*
X10881190Y-14995667D01*
X10957381Y-15195667D02*
X10966905Y-15186143D01*
X10985952Y-15157571D01*
X10995476Y-15138524D01*
X11005000Y-15109952D01*
X11014524Y-15062333D01*
X11014524Y-15024238D01*
X11005000Y-14976619D01*
X10995476Y-14948048D01*
X10985952Y-14929000D01*
X10966905Y-14900428D01*
X10957381Y-14890905D01*
D19*
X5875000Y-15233000D02*
X5995000Y-15353000D01*
X5995000Y-15233000D02*
X5875000Y-15353000D01*
X5977427Y-15335427D02*
X5977427Y-15250573D01*
X5892573Y-15250573D01*
X5892573Y-15335427D01*
X5977427Y-15335427D01*
D12*
X6357381Y-15383476D02*
X6243095Y-15383476D01*
X6300238Y-15383476D02*
X6300238Y-15183476D01*
X6281190Y-15212048D01*
X6262143Y-15231095D01*
X6243095Y-15240619D01*
X6443095Y-15364428D02*
X6452619Y-15373952D01*
X6443095Y-15383476D01*
X6433571Y-15373952D01*
X6443095Y-15364428D01*
X6443095Y-15383476D01*
X6528809Y-15202524D02*
X6538333Y-15193000D01*
X6557381Y-15183476D01*
X6605000Y-15183476D01*
X6624048Y-15193000D01*
X6633571Y-15202524D01*
X6643095Y-15221571D01*
X6643095Y-15240619D01*
X6633571Y-15269190D01*
X6519286Y-15383476D01*
X6643095Y-15383476D01*
X6766905Y-15183476D02*
X6785952Y-15183476D01*
X6805000Y-15193000D01*
X6814524Y-15202524D01*
X6824048Y-15221571D01*
X6833571Y-15259667D01*
X6833571Y-15307286D01*
X6824048Y-15345381D01*
X6814524Y-15364428D01*
X6805000Y-15373952D01*
X6785952Y-15383476D01*
X6766905Y-15383476D01*
X6747857Y-15373952D01*
X6738333Y-15364428D01*
X6728809Y-15345381D01*
X6719286Y-15307286D01*
X6719286Y-15259667D01*
X6728809Y-15221571D01*
X6738333Y-15202524D01*
X6747857Y-15193000D01*
X6766905Y-15183476D01*
X6957381Y-15183476D02*
X6976428Y-15183476D01*
X6995476Y-15193000D01*
X7005000Y-15202524D01*
X7014524Y-15221571D01*
X7024048Y-15259667D01*
X7024048Y-15307286D01*
X7014524Y-15345381D01*
X7005000Y-15364428D01*
X6995476Y-15373952D01*
X6976428Y-15383476D01*
X6957381Y-15383476D01*
X6938333Y-15373952D01*
X6928809Y-15364428D01*
X6919286Y-15345381D01*
X6909762Y-15307286D01*
X6909762Y-15259667D01*
X6919286Y-15221571D01*
X6928809Y-15202524D01*
X6938333Y-15193000D01*
X6957381Y-15183476D01*
X7109762Y-15383476D02*
X7109762Y-15250143D01*
X7109762Y-15269190D02*
X7119286Y-15259667D01*
X7138333Y-15250143D01*
X7166905Y-15250143D01*
X7185952Y-15259667D01*
X7195476Y-15278714D01*
X7195476Y-15383476D01*
X7195476Y-15278714D02*
X7205000Y-15259667D01*
X7224048Y-15250143D01*
X7252619Y-15250143D01*
X7271667Y-15259667D01*
X7281190Y-15278714D01*
X7281190Y-15383476D01*
X7376428Y-15383476D02*
X7376428Y-15250143D01*
X7376428Y-15269190D02*
X7385952Y-15259667D01*
X7405000Y-15250143D01*
X7433571Y-15250143D01*
X7452619Y-15259667D01*
X7462143Y-15278714D01*
X7462143Y-15383476D01*
X7462143Y-15278714D02*
X7471667Y-15259667D01*
X7490714Y-15250143D01*
X7519286Y-15250143D01*
X7538333Y-15259667D01*
X7547857Y-15278714D01*
X7547857Y-15383476D01*
X7938333Y-15173952D02*
X7766905Y-15431095D01*
X8195476Y-15183476D02*
X8214524Y-15183476D01*
X8233571Y-15193000D01*
X8243095Y-15202524D01*
X8252619Y-15221571D01*
X8262143Y-15259667D01*
X8262143Y-15307286D01*
X8252619Y-15345381D01*
X8243095Y-15364428D01*
X8233571Y-15373952D01*
X8214524Y-15383476D01*
X8195476Y-15383476D01*
X8176428Y-15373952D01*
X8166905Y-15364428D01*
X8157381Y-15345381D01*
X8147857Y-15307286D01*
X8147857Y-15259667D01*
X8157381Y-15221571D01*
X8166905Y-15202524D01*
X8176428Y-15193000D01*
X8195476Y-15183476D01*
X8347857Y-15364428D02*
X8357381Y-15373952D01*
X8347857Y-15383476D01*
X8338333Y-15373952D01*
X8347857Y-15364428D01*
X8347857Y-15383476D01*
X8481190Y-15183476D02*
X8500238Y-15183476D01*
X8519286Y-15193000D01*
X8528810Y-15202524D01*
X8538333Y-15221571D01*
X8547857Y-15259667D01*
X8547857Y-15307286D01*
X8538333Y-15345381D01*
X8528810Y-15364428D01*
X8519286Y-15373952D01*
X8500238Y-15383476D01*
X8481190Y-15383476D01*
X8462143Y-15373952D01*
X8452619Y-15364428D01*
X8443095Y-15345381D01*
X8433571Y-15307286D01*
X8433571Y-15259667D01*
X8443095Y-15221571D01*
X8452619Y-15202524D01*
X8462143Y-15193000D01*
X8481190Y-15183476D01*
X8719286Y-15250143D02*
X8719286Y-15383476D01*
X8671667Y-15173952D02*
X8624048Y-15316809D01*
X8747857Y-15316809D01*
X8805000Y-15183476D02*
X8938333Y-15183476D01*
X8852619Y-15383476D01*
X9005000Y-15202524D02*
X9014524Y-15193000D01*
X9033571Y-15183476D01*
X9081190Y-15183476D01*
X9100238Y-15193000D01*
X9109762Y-15202524D01*
X9119286Y-15221571D01*
X9119286Y-15240619D01*
X9109762Y-15269190D01*
X8995476Y-15383476D01*
X9119286Y-15383476D01*
X9195476Y-15183476D02*
X9195476Y-15221571D01*
X9271667Y-15183476D02*
X9271667Y-15221571D01*
X9566905Y-15459667D02*
X9557381Y-15450143D01*
X9538333Y-15421571D01*
X9528810Y-15402524D01*
X9519286Y-15373952D01*
X9509762Y-15326333D01*
X9509762Y-15288238D01*
X9519286Y-15240619D01*
X9528810Y-15212048D01*
X9538333Y-15193000D01*
X9557381Y-15164428D01*
X9566905Y-15154905D01*
X9671667Y-15269190D02*
X9652619Y-15259667D01*
X9643095Y-15250143D01*
X9633571Y-15231095D01*
X9633571Y-15221571D01*
X9643095Y-15202524D01*
X9652619Y-15193000D01*
X9671667Y-15183476D01*
X9709762Y-15183476D01*
X9728810Y-15193000D01*
X9738333Y-15202524D01*
X9747857Y-15221571D01*
X9747857Y-15231095D01*
X9738333Y-15250143D01*
X9728810Y-15259667D01*
X9709762Y-15269190D01*
X9671667Y-15269190D01*
X9652619Y-15278714D01*
X9643095Y-15288238D01*
X9633571Y-15307286D01*
X9633571Y-15345381D01*
X9643095Y-15364428D01*
X9652619Y-15373952D01*
X9671667Y-15383476D01*
X9709762Y-15383476D01*
X9728810Y-15373952D01*
X9738333Y-15364428D01*
X9747857Y-15345381D01*
X9747857Y-15307286D01*
X9738333Y-15288238D01*
X9728810Y-15278714D01*
X9709762Y-15269190D01*
X9985952Y-15383476D02*
X9985952Y-15183476D01*
X10071667Y-15383476D02*
X10071667Y-15278714D01*
X10062143Y-15259667D01*
X10043095Y-15250143D01*
X10014524Y-15250143D01*
X9995476Y-15259667D01*
X9985952Y-15269190D01*
X10195476Y-15383476D02*
X10176429Y-15373952D01*
X10166905Y-15364428D01*
X10157381Y-15345381D01*
X10157381Y-15288238D01*
X10166905Y-15269190D01*
X10176429Y-15259667D01*
X10195476Y-15250143D01*
X10224048Y-15250143D01*
X10243095Y-15259667D01*
X10252619Y-15269190D01*
X10262143Y-15288238D01*
X10262143Y-15345381D01*
X10252619Y-15364428D01*
X10243095Y-15373952D01*
X10224048Y-15383476D01*
X10195476Y-15383476D01*
X10376429Y-15383476D02*
X10357381Y-15373952D01*
X10347857Y-15354905D01*
X10347857Y-15183476D01*
X10528810Y-15373952D02*
X10509762Y-15383476D01*
X10471667Y-15383476D01*
X10452619Y-15373952D01*
X10443095Y-15354905D01*
X10443095Y-15278714D01*
X10452619Y-15259667D01*
X10471667Y-15250143D01*
X10509762Y-15250143D01*
X10528810Y-15259667D01*
X10538333Y-15278714D01*
X10538333Y-15297762D01*
X10443095Y-15316809D01*
X10614524Y-15373952D02*
X10633571Y-15383476D01*
X10671667Y-15383476D01*
X10690714Y-15373952D01*
X10700238Y-15354905D01*
X10700238Y-15345381D01*
X10690714Y-15326333D01*
X10671667Y-15316809D01*
X10643095Y-15316809D01*
X10624048Y-15307286D01*
X10614524Y-15288238D01*
X10614524Y-15278714D01*
X10624048Y-15259667D01*
X10643095Y-15250143D01*
X10671667Y-15250143D01*
X10690714Y-15259667D01*
X10766905Y-15459667D02*
X10776429Y-15450143D01*
X10795476Y-15421571D01*
X10805000Y-15402524D01*
X10814524Y-15373952D01*
X10824048Y-15326333D01*
X10824048Y-15288238D01*
X10814524Y-15240619D01*
X10805000Y-15212048D01*
X10795476Y-15193000D01*
X10776429Y-15164428D01*
X10766905Y-15154905D01*
D20*
X5855000Y-15487000D02*
X5995000Y-15627000D01*
X5995000Y-15487000D02*
X5855000Y-15627000D01*
X5925000Y-15627000D02*
X5995000Y-15557000D01*
X5925000Y-15487000D01*
X5855000Y-15557000D01*
X5925000Y-15627000D01*
D12*
X6357381Y-15647476D02*
X6243095Y-15647476D01*
X6300238Y-15647476D02*
X6300238Y-15447476D01*
X6281190Y-15476048D01*
X6262143Y-15495095D01*
X6243095Y-15504619D01*
X6443095Y-15628428D02*
X6452619Y-15637952D01*
X6443095Y-15647476D01*
X6433571Y-15637952D01*
X6443095Y-15628428D01*
X6443095Y-15647476D01*
X6624048Y-15514143D02*
X6624048Y-15647476D01*
X6576428Y-15437952D02*
X6528809Y-15580809D01*
X6652619Y-15580809D01*
X6766905Y-15447476D02*
X6785952Y-15447476D01*
X6805000Y-15457000D01*
X6814524Y-15466524D01*
X6824048Y-15485571D01*
X6833571Y-15523667D01*
X6833571Y-15571286D01*
X6824048Y-15609381D01*
X6814524Y-15628428D01*
X6805000Y-15637952D01*
X6785952Y-15647476D01*
X6766905Y-15647476D01*
X6747857Y-15637952D01*
X6738333Y-15628428D01*
X6728809Y-15609381D01*
X6719286Y-15571286D01*
X6719286Y-15523667D01*
X6728809Y-15485571D01*
X6738333Y-15466524D01*
X6747857Y-15457000D01*
X6766905Y-15447476D01*
X6957381Y-15447476D02*
X6976428Y-15447476D01*
X6995476Y-15457000D01*
X7005000Y-15466524D01*
X7014524Y-15485571D01*
X7024048Y-15523667D01*
X7024048Y-15571286D01*
X7014524Y-15609381D01*
X7005000Y-15628428D01*
X6995476Y-15637952D01*
X6976428Y-15647476D01*
X6957381Y-15647476D01*
X6938333Y-15637952D01*
X6928809Y-15628428D01*
X6919286Y-15609381D01*
X6909762Y-15571286D01*
X6909762Y-15523667D01*
X6919286Y-15485571D01*
X6928809Y-15466524D01*
X6938333Y-15457000D01*
X6957381Y-15447476D01*
X7109762Y-15647476D02*
X7109762Y-15514143D01*
X7109762Y-15533190D02*
X7119286Y-15523667D01*
X7138333Y-15514143D01*
X7166905Y-15514143D01*
X7185952Y-15523667D01*
X7195476Y-15542714D01*
X7195476Y-15647476D01*
X7195476Y-15542714D02*
X7205000Y-15523667D01*
X7224048Y-15514143D01*
X7252619Y-15514143D01*
X7271667Y-15523667D01*
X7281190Y-15542714D01*
X7281190Y-15647476D01*
X7376428Y-15647476D02*
X7376428Y-15514143D01*
X7376428Y-15533190D02*
X7385952Y-15523667D01*
X7405000Y-15514143D01*
X7433571Y-15514143D01*
X7452619Y-15523667D01*
X7462143Y-15542714D01*
X7462143Y-15647476D01*
X7462143Y-15542714D02*
X7471667Y-15523667D01*
X7490714Y-15514143D01*
X7519286Y-15514143D01*
X7538333Y-15523667D01*
X7547857Y-15542714D01*
X7547857Y-15647476D01*
X7938333Y-15437952D02*
X7766905Y-15695095D01*
X8195476Y-15447476D02*
X8214524Y-15447476D01*
X8233571Y-15457000D01*
X8243095Y-15466524D01*
X8252619Y-15485571D01*
X8262143Y-15523667D01*
X8262143Y-15571286D01*
X8252619Y-15609381D01*
X8243095Y-15628428D01*
X8233571Y-15637952D01*
X8214524Y-15647476D01*
X8195476Y-15647476D01*
X8176428Y-15637952D01*
X8166905Y-15628428D01*
X8157381Y-15609381D01*
X8147857Y-15571286D01*
X8147857Y-15523667D01*
X8157381Y-15485571D01*
X8166905Y-15466524D01*
X8176428Y-15457000D01*
X8195476Y-15447476D01*
X8347857Y-15628428D02*
X8357381Y-15637952D01*
X8347857Y-15647476D01*
X8338333Y-15637952D01*
X8347857Y-15628428D01*
X8347857Y-15647476D01*
X8481190Y-15447476D02*
X8500238Y-15447476D01*
X8519286Y-15457000D01*
X8528810Y-15466524D01*
X8538333Y-15485571D01*
X8547857Y-15523667D01*
X8547857Y-15571286D01*
X8538333Y-15609381D01*
X8528810Y-15628428D01*
X8519286Y-15637952D01*
X8500238Y-15647476D01*
X8481190Y-15647476D01*
X8462143Y-15637952D01*
X8452619Y-15628428D01*
X8443095Y-15609381D01*
X8433571Y-15571286D01*
X8433571Y-15523667D01*
X8443095Y-15485571D01*
X8452619Y-15466524D01*
X8462143Y-15457000D01*
X8481190Y-15447476D01*
X8728810Y-15447476D02*
X8633571Y-15447476D01*
X8624048Y-15542714D01*
X8633571Y-15533190D01*
X8652619Y-15523667D01*
X8700238Y-15523667D01*
X8719286Y-15533190D01*
X8728810Y-15542714D01*
X8738333Y-15561762D01*
X8738333Y-15609381D01*
X8728810Y-15628428D01*
X8719286Y-15637952D01*
X8700238Y-15647476D01*
X8652619Y-15647476D01*
X8633571Y-15637952D01*
X8624048Y-15628428D01*
X8919286Y-15447476D02*
X8824048Y-15447476D01*
X8814524Y-15542714D01*
X8824048Y-15533190D01*
X8843095Y-15523667D01*
X8890714Y-15523667D01*
X8909762Y-15533190D01*
X8919286Y-15542714D01*
X8928810Y-15561762D01*
X8928810Y-15609381D01*
X8919286Y-15628428D01*
X8909762Y-15637952D01*
X8890714Y-15647476D01*
X8843095Y-15647476D01*
X8824048Y-15637952D01*
X8814524Y-15628428D01*
X9119286Y-15647476D02*
X9005000Y-15647476D01*
X9062143Y-15647476D02*
X9062143Y-15447476D01*
X9043095Y-15476048D01*
X9024048Y-15495095D01*
X9005000Y-15504619D01*
X9195476Y-15447476D02*
X9195476Y-15485571D01*
X9271667Y-15447476D02*
X9271667Y-15485571D01*
X9566905Y-15723667D02*
X9557381Y-15714143D01*
X9538333Y-15685571D01*
X9528810Y-15666524D01*
X9519286Y-15637952D01*
X9509762Y-15590333D01*
X9509762Y-15552238D01*
X9519286Y-15504619D01*
X9528810Y-15476048D01*
X9538333Y-15457000D01*
X9557381Y-15428428D01*
X9566905Y-15418905D01*
X9671667Y-15533190D02*
X9652619Y-15523667D01*
X9643095Y-15514143D01*
X9633571Y-15495095D01*
X9633571Y-15485571D01*
X9643095Y-15466524D01*
X9652619Y-15457000D01*
X9671667Y-15447476D01*
X9709762Y-15447476D01*
X9728810Y-15457000D01*
X9738333Y-15466524D01*
X9747857Y-15485571D01*
X9747857Y-15495095D01*
X9738333Y-15514143D01*
X9728810Y-15523667D01*
X9709762Y-15533190D01*
X9671667Y-15533190D01*
X9652619Y-15542714D01*
X9643095Y-15552238D01*
X9633571Y-15571286D01*
X9633571Y-15609381D01*
X9643095Y-15628428D01*
X9652619Y-15637952D01*
X9671667Y-15647476D01*
X9709762Y-15647476D01*
X9728810Y-15637952D01*
X9738333Y-15628428D01*
X9747857Y-15609381D01*
X9747857Y-15571286D01*
X9738333Y-15552238D01*
X9728810Y-15542714D01*
X9709762Y-15533190D01*
X9985952Y-15647476D02*
X9985952Y-15447476D01*
X10071667Y-15647476D02*
X10071667Y-15542714D01*
X10062143Y-15523667D01*
X10043095Y-15514143D01*
X10014524Y-15514143D01*
X9995476Y-15523667D01*
X9985952Y-15533190D01*
X10195476Y-15647476D02*
X10176429Y-15637952D01*
X10166905Y-15628428D01*
X10157381Y-15609381D01*
X10157381Y-15552238D01*
X10166905Y-15533190D01*
X10176429Y-15523667D01*
X10195476Y-15514143D01*
X10224048Y-15514143D01*
X10243095Y-15523667D01*
X10252619Y-15533190D01*
X10262143Y-15552238D01*
X10262143Y-15609381D01*
X10252619Y-15628428D01*
X10243095Y-15637952D01*
X10224048Y-15647476D01*
X10195476Y-15647476D01*
X10376429Y-15647476D02*
X10357381Y-15637952D01*
X10347857Y-15618905D01*
X10347857Y-15447476D01*
X10528810Y-15637952D02*
X10509762Y-15647476D01*
X10471667Y-15647476D01*
X10452619Y-15637952D01*
X10443095Y-15618905D01*
X10443095Y-15542714D01*
X10452619Y-15523667D01*
X10471667Y-15514143D01*
X10509762Y-15514143D01*
X10528810Y-15523667D01*
X10538333Y-15542714D01*
X10538333Y-15561762D01*
X10443095Y-15580809D01*
X10614524Y-15637952D02*
X10633571Y-15647476D01*
X10671667Y-15647476D01*
X10690714Y-15637952D01*
X10700238Y-15618905D01*
X10700238Y-15609381D01*
X10690714Y-15590333D01*
X10671667Y-15580809D01*
X10643095Y-15580809D01*
X10624048Y-15571286D01*
X10614524Y-15552238D01*
X10614524Y-15542714D01*
X10624048Y-15523667D01*
X10643095Y-15514143D01*
X10671667Y-15514143D01*
X10690714Y-15523667D01*
X10766905Y-15723667D02*
X10776429Y-15714143D01*
X10795476Y-15685571D01*
X10805000Y-15666524D01*
X10814524Y-15637952D01*
X10824048Y-15590333D01*
X10824048Y-15552238D01*
X10814524Y-15504619D01*
X10805000Y-15476048D01*
X10795476Y-15457000D01*
X10776429Y-15428428D01*
X10766905Y-15418905D01*
M02*
