M48
; DRILL file {KiCad (6.0.8)} date Sat Nov 19 23:49:10 2022
; FORMAT={-:-/ absolute / metric / decimal}
; #@! TF.CreationDate,2022-11-19T23:49:10+04:00
; #@! TF.GenerationSoftware,Kicad,Pcbnew,(6.0.8)
; #@! TF.FileFunction,NonPlated,1,2,NPTH
FMAT,2
METRIC
; #@! TA.AperFunction,NonPlated,NPTH,ComponentDrill
T1C0.500
%
G90
G05
T1
X62.25Y-32.25
X62.25Y-33.75
X62.25Y-63.25
X62.25Y-64.75
X62.25Y-87.25
X62.25Y-88.75
X62.25Y-103.75
X62.25Y-105.25
X63.0Y-32.25
X63.0Y-33.75
X63.0Y-63.25
X63.0Y-64.75
X63.0Y-87.25
X63.0Y-88.75
X63.0Y-103.75
X63.0Y-105.25
X63.75Y-32.25
X63.75Y-33.75
X63.75Y-63.25
X63.75Y-64.75
X63.75Y-87.25
X63.75Y-88.75
X63.75Y-103.75
X63.75Y-105.25
X86.75Y-103.75
X86.75Y-105.25
X87.25Y-63.25
X87.25Y-64.75
X87.25Y-87.25
X87.25Y-88.75
X87.5Y-103.75
X87.5Y-105.25
X87.75Y-32.25
X87.75Y-33.75
X88.0Y-63.25
X88.0Y-64.75
X88.0Y-87.25
X88.0Y-88.75
X88.25Y-103.75
X88.25Y-105.25
X88.5Y-32.25
X88.5Y-33.75
X88.75Y-63.25
X88.75Y-64.75
X88.75Y-87.25
X88.75Y-88.75
X89.25Y-32.25
X89.25Y-33.75
X106.75Y-87.25
X106.75Y-88.75
X106.75Y-103.75
X106.75Y-105.25
X107.25Y-63.25
X107.25Y-64.75
X107.5Y-87.25
X107.5Y-88.75
X107.5Y-103.75
X107.5Y-105.25
X108.0Y-63.25
X108.0Y-64.75
X108.25Y-87.25
X108.25Y-88.75
X108.25Y-103.75
X108.25Y-105.25
X108.75Y-63.25
X108.75Y-64.75
X113.25Y-73.75
X113.25Y-74.5
X113.25Y-75.25
X114.75Y-73.75
X114.75Y-74.5
X114.75Y-75.25
X115.25Y-32.25
X115.25Y-33.75
X116.0Y-32.25
X116.0Y-33.75
X116.75Y-32.25
X116.75Y-33.75
X117.25Y-63.25
X117.25Y-64.75
X118.0Y-63.25
X118.0Y-64.75
X118.25Y-116.25
X118.25Y-117.0
X118.25Y-117.75
X118.75Y-63.25
X118.75Y-64.75
X119.75Y-116.25
X119.75Y-117.0
X119.75Y-117.75
X121.75Y-46.25
X121.75Y-47.0
X121.75Y-47.75
X123.25Y-46.25
X123.25Y-47.0
X123.25Y-47.75
X137.25Y-102.75
X137.25Y-104.25
X138.0Y-102.75
X138.0Y-104.25
X138.75Y-102.75
X138.75Y-104.25
X141.25Y-32.25
X141.25Y-33.75
X141.25Y-63.25
X141.25Y-64.75
X142.0Y-32.25
X142.0Y-33.75
X142.0Y-63.25
X142.0Y-64.75
X142.75Y-32.25
X142.75Y-33.75
X142.75Y-63.25
X142.75Y-64.75
T0
M30
