M48
; DRILL file {KiCad (6.0.8)} date Sat Nov 19 23:49:10 2022
; FORMAT={-:-/ absolute / metric / decimal}
; #@! TF.CreationDate,2022-11-19T23:49:10+04:00
; #@! TF.GenerationSoftware,Kicad,Pcbnew,(6.0.8)
; #@! TF.FileFunction,Plated,1,2,PTH
FMAT,2
METRIC
; #@! TA.AperFunction,Plated,PTH,ComponentDrill
T1C0.700
; #@! TA.AperFunction,Plated,PTH,ComponentDrill
T2C0.762
; #@! TA.AperFunction,Plated,PTH,ComponentDrill
T3C0.800
; #@! TA.AperFunction,Plated,PTH,ComponentDrill
T4C0.813
; #@! TA.AperFunction,Plated,PTH,ComponentDrill
T5C1.000
; #@! TA.AperFunction,Plated,PTH,ComponentDrill
T6C1.001
; #@! TA.AperFunction,Plated,PTH,ComponentDrill
T7C1.199
; #@! TA.AperFunction,Plated,PTH,ComponentDrill
T8C1.200
; #@! TA.AperFunction,Plated,PTH,ComponentDrill
T9C1.400
%
G90
G05
T1
X97.201Y-84.468
X97.214Y-81.179
X102.201Y-124.913
X102.214Y-121.624
X102.7Y-54.598
X102.7Y-57.265
X104.821Y-84.468
X104.834Y-81.179
X109.821Y-124.913
X109.834Y-121.624
X110.32Y-54.598
X110.32Y-57.265
X153.868Y-84.758
X153.868Y-92.378
X156.916Y-84.758
X156.916Y-92.378
T2
X86.038Y-73.368
X86.038Y-75.908
X86.038Y-78.448
X86.038Y-80.988
X91.038Y-113.813
X91.038Y-116.353
X91.038Y-118.893
X91.038Y-121.433
X93.658Y-73.368
X93.658Y-75.908
X93.658Y-78.448
X93.658Y-80.988
X94.889Y-43.549
X94.889Y-46.089
X94.889Y-48.629
X94.889Y-51.169
X98.658Y-113.813
X98.658Y-116.353
X98.658Y-118.893
X98.658Y-121.433
X102.509Y-43.549
X102.509Y-46.089
X102.509Y-48.629
X102.509Y-51.169
X147.518Y-71.042
X147.518Y-73.582
X147.518Y-76.122
X147.518Y-78.662
X155.138Y-71.042
X155.138Y-73.582
X155.138Y-76.122
X155.138Y-78.662
T3
X90.61Y-84.277
X93.11Y-84.277
X95.61Y-124.722
X96.072Y-54.407
X98.11Y-124.722
X98.572Y-54.407
X105.367Y-59.424
X106.319Y-48.669
X106.319Y-51.169
X107.867Y-59.424
X148.828Y-81.964
X151.328Y-81.964
X153.908Y-81.964
X156.408Y-81.964
T4
X75.204Y-51.804
X80.284Y-51.804
X86.571Y-50.915
X91.651Y-50.915
T5
X63.178Y-38.342
X65.718Y-38.342
X71.962Y-109.575
X71.962Y-114.575
X72.029Y-41.47
X72.029Y-46.47
X72.383Y-76.384
X72.383Y-81.384
X77.383Y-118.567
X77.383Y-123.567
X83.142Y-41.407
X83.142Y-46.407
X101.064Y-71.327
X101.064Y-76.327
X106.064Y-111.772
X106.064Y-116.772
X113.495Y-43.629
X113.495Y-48.629
X116.67Y-36.818
X116.67Y-39.358
X127.024Y-83.996
X129.484Y-70.788
X129.484Y-75.788
X132.024Y-83.996
X144.216Y-89.076
X149.216Y-89.076
T6
X67.492Y-117.331
X67.492Y-125.332
X81.263Y-74.844
X81.263Y-82.845
X86.263Y-115.289
X86.263Y-123.29
X136.151Y-79.932
X137.612Y-83.551
X137.612Y-91.552
X144.153Y-79.932
T7
X63.237Y-115.007
X63.364Y-109.609
X63.577Y-75.669
X63.577Y-81.453
X108.971Y-69.739
X108.971Y-76.693
X113.971Y-110.184
X113.971Y-117.138
X118.816Y-70.788
X118.816Y-77.392
X144.216Y-98.474
X151.074Y-98.474
T8
X86.076Y-68.999
X91.076Y-109.444
X91.156Y-68.999
X96.156Y-109.444
X106.319Y-39.739
X106.319Y-44.819
X137.104Y-70.28
X142.184Y-70.28
T9
X74.897Y-70.396
X79.897Y-110.841
X79.977Y-70.396
X84.977Y-110.841
X91.016Y-39.612
X91.016Y-44.692
X137.104Y-75.36
X142.184Y-75.36
T0
M30
