%TF.GenerationSoftware,KiCad,Pcbnew,(6.0.8)*%
%TF.CreationDate,2022-11-19T23:49:02+04:00*%
%TF.ProjectId,panel,70616e65-6c2e-46b6-9963-61645f706362,rev?*%
%TF.SameCoordinates,Original*%
%TF.FileFunction,Copper,L1,Top*%
%TF.FilePolarity,Positive*%
%FSLAX46Y46*%
G04 Gerber Fmt 4.6, Leading zero omitted, Abs format (unit mm)*
G04 Created by KiCad (PCBNEW (6.0.8)) date 2022-11-19 23:49:02*
%MOMM*%
%LPD*%
G01*
G04 APERTURE LIST*
%TA.AperFunction,ComponentPad*%
%ADD10C,1.400000*%
%TD*%
%TA.AperFunction,ComponentPad*%
%ADD11O,1.400000X1.400000*%
%TD*%
%TA.AperFunction,ComponentPad*%
%ADD12R,2.000000X2.000000*%
%TD*%
%TA.AperFunction,ComponentPad*%
%ADD13C,2.000000*%
%TD*%
%TA.AperFunction,ComponentPad*%
%ADD14R,2.800000X2.800000*%
%TD*%
%TA.AperFunction,ComponentPad*%
%ADD15O,2.800000X2.800000*%
%TD*%
%TA.AperFunction,ComponentPad*%
%ADD16C,2.400000*%
%TD*%
%TA.AperFunction,ComponentPad*%
%ADD17O,2.400000X2.400000*%
%TD*%
%TA.AperFunction,ComponentPad*%
%ADD18R,3.500120X3.500120*%
%TD*%
%TA.AperFunction,ComponentPad*%
%ADD19C,1.600000*%
%TD*%
%TA.AperFunction,ComponentPad*%
%ADD20C,2.499360*%
%TD*%
%TA.AperFunction,ComponentPad*%
%ADD21O,3.010000X1.510000*%
%TD*%
%TA.AperFunction,ComponentPad*%
%ADD22C,1.905000*%
%TD*%
%TA.AperFunction,ComponentPad*%
%ADD23R,1.905000X1.905000*%
%TD*%
%TA.AperFunction,ComponentPad*%
%ADD24O,1.510000X3.010000*%
%TD*%
%TA.AperFunction,ComponentPad*%
%ADD25C,3.500120*%
%TD*%
%TA.AperFunction,Conductor*%
%ADD26C,0.250000*%
%TD*%
G04 APERTURE END LIST*
D10*
%TO.P,R1,1*%
%TO.N,N/C*%
X102213800Y-121623700D03*
D11*
%TO.P,R1,2*%
X109833800Y-121623700D03*
%TD*%
D12*
%TO.P,C3,1*%
%TO.N,N/C*%
X132024000Y-83996000D03*
D13*
%TO.P,C3,2*%
X127024000Y-83996000D03*
%TD*%
D10*
%TO.P,R3,1*%
%TO.N,N/C*%
X109821100Y-124913000D03*
D11*
%TO.P,R3,2*%
X102201100Y-124913000D03*
%TD*%
D14*
%TO.P,D1,1*%
%TO.N,N/C*%
X79977360Y-70396400D03*
D15*
%TO.P,D1,2*%
X74897360Y-70396400D03*
%TD*%
D16*
%TO.P,R2,1*%
%TO.N,N/C*%
X137104000Y-70280000D03*
D17*
%TO.P,R2,2*%
X142184000Y-70280000D03*
%TD*%
D18*
%TO.P,Vout,3*%
%TO.N,N/C*%
X144216000Y-98474000D03*
%TD*%
%TO.P,Vout,1*%
%TO.N,N/C*%
X63237500Y-115007000D03*
%TD*%
D19*
%TO.P,C2,1*%
%TO.N,N/C*%
X151328000Y-81964000D03*
%TO.P,C2,2*%
X148828000Y-81964000D03*
%TD*%
D20*
%TO.P,L1,1*%
%TO.N,N/C*%
X144152500Y-79932000D03*
%TO.P,L1,2*%
X136151500Y-79932000D03*
%TD*%
%TO.P,L2,1*%
%TO.N,N/C*%
X137612000Y-83551500D03*
%TO.P,L2,2*%
X137612000Y-91552500D03*
%TD*%
D10*
%TO.P,R1,1*%
%TO.N,N/C*%
X102700000Y-54598000D03*
D11*
%TO.P,R1,2*%
X110320000Y-54598000D03*
%TD*%
D12*
%TO.P,C3,1*%
%TO.N,N/C*%
X83142000Y-46406500D03*
D13*
%TO.P,C3,2*%
X83142000Y-41406500D03*
%TD*%
D10*
%TO.P,R3,1*%
%TO.N,N/C*%
X102700000Y-57265000D03*
D11*
%TO.P,R3,2*%
X110320000Y-57265000D03*
%TD*%
D19*
%TO.P,C2,1*%
%TO.N,N/C*%
X90609800Y-84277500D03*
%TO.P,C2,2*%
X93109800Y-84277500D03*
%TD*%
D16*
%TO.P,R2,1*%
%TO.N,N/C*%
X96155900Y-109444400D03*
D17*
%TO.P,R2,2*%
X91075900Y-109444400D03*
%TD*%
D19*
%TO.P,C6,1*%
%TO.N,N/C*%
X106319500Y-48669000D03*
%TO.P,C6,2*%
X106319500Y-51169000D03*
%TD*%
D12*
%TO.P,C1,1*%
%TO.N,N/C*%
X113495000Y-48629000D03*
D13*
%TO.P,C1,2*%
X113495000Y-43629000D03*
%TD*%
D21*
%TO.P,Vin,1*%
%TO.N,N/C*%
X116670000Y-36818000D03*
%TO.P,Vin,2*%
X116670000Y-39358000D03*
%TD*%
D20*
%TO.P,L1,1*%
%TO.N,N/C*%
X67492000Y-117331100D03*
%TO.P,L1,2*%
X67492000Y-125332100D03*
%TD*%
D12*
%TO.P,C3,1*%
%TO.N,N/C*%
X71962400Y-114575200D03*
D13*
%TO.P,C3,2*%
X71962400Y-109575200D03*
%TD*%
D18*
%TO.P,Vin,1*%
%TO.N,N/C*%
X113971460Y-117138060D03*
%TD*%
D16*
%TO.P,R2,1*%
%TO.N,N/C*%
X91155900Y-68999400D03*
D17*
%TO.P,R2,2*%
X86075900Y-68999400D03*
%TD*%
D22*
%TO.P,U1,1*%
%TO.N,N/C*%
X147518000Y-71042000D03*
%TO.P,U1,2*%
X147518000Y-73582000D03*
%TO.P,U1,3*%
X147518000Y-76122000D03*
%TO.P,U1,4*%
X147518000Y-78662000D03*
%TO.P,U1,5*%
X155138000Y-78662000D03*
%TO.P,U1,6*%
X155138000Y-76122000D03*
%TO.P,U1,7*%
X155138000Y-73582000D03*
%TO.P,U1,8*%
X155138000Y-71042000D03*
%TD*%
D23*
%TO.P,L1,1*%
%TO.N,N/C*%
X91651000Y-50915000D03*
D22*
%TO.P,L1,2*%
X86571000Y-50915000D03*
%TD*%
D12*
%TO.P,C4,1*%
%TO.N,N/C*%
X72029500Y-46470000D03*
D13*
%TO.P,C4,2*%
X72029500Y-41470000D03*
%TD*%
D18*
%TO.P,Vin,1*%
%TO.N,N/C*%
X108971460Y-76693060D03*
%TD*%
D19*
%TO.P,C2,1*%
%TO.N,N/C*%
X95609800Y-124722500D03*
%TO.P,C2,2*%
X98109800Y-124722500D03*
%TD*%
D12*
%TO.P,C4,1*%
%TO.N,N/C*%
X144216000Y-89076000D03*
D13*
%TO.P,C4,2*%
X149216000Y-89076000D03*
%TD*%
D24*
%TO.P,Vout,1*%
%TO.N,N/C*%
X63177600Y-38342000D03*
%TO.P,Vout,2*%
X65717600Y-38342000D03*
%TD*%
D12*
%TO.P,C1,1*%
%TO.N,N/C*%
X129484000Y-70788000D03*
D13*
%TO.P,C1,2*%
X129484000Y-75788000D03*
%TD*%
D22*
%TO.P,U1,1*%
%TO.N,N/C*%
X94889500Y-43549000D03*
%TO.P,U1,2*%
X94889500Y-46089000D03*
%TO.P,U1,3*%
X94889500Y-48629000D03*
%TO.P,U1,4*%
X94889500Y-51169000D03*
%TO.P,U1,5*%
X102509500Y-51169000D03*
%TO.P,U1,6*%
X102509500Y-48629000D03*
%TO.P,U1,7*%
X102509500Y-46089000D03*
%TO.P,U1,8*%
X102509500Y-43549000D03*
%TD*%
D19*
%TO.P,C5,1*%
%TO.N,N/C*%
X156408000Y-81964000D03*
%TO.P,C5,2*%
X153908000Y-81964000D03*
%TD*%
D23*
%TO.P,L2,1*%
%TO.N,N/C*%
X80284500Y-51804000D03*
D22*
%TO.P,L2,2*%
X75204500Y-51804000D03*
%TD*%
%TO.P,U1,1*%
%TO.N,N/C*%
X91037800Y-113813200D03*
%TO.P,U1,2*%
X91037800Y-116353200D03*
%TO.P,U1,3*%
X91037800Y-118893200D03*
%TO.P,U1,4*%
X91037800Y-121433200D03*
%TO.P,U1,5*%
X98657800Y-121433200D03*
%TO.P,U1,6*%
X98657800Y-118893200D03*
%TO.P,U1,7*%
X98657800Y-116353200D03*
%TO.P,U1,8*%
X98657800Y-113813200D03*
%TD*%
D12*
%TO.P,C3,1*%
%TO.N,N/C*%
X72382760Y-81384440D03*
D13*
%TO.P,C3,2*%
X72382760Y-76384440D03*
%TD*%
D25*
%TO.P,GND,4*%
%TO.N,N/C*%
X151074000Y-98474000D03*
%TD*%
D22*
%TO.P,U1,1*%
%TO.N,N/C*%
X86037800Y-73368200D03*
%TO.P,U1,2*%
X86037800Y-75908200D03*
%TO.P,U1,3*%
X86037800Y-78448200D03*
%TO.P,U1,4*%
X86037800Y-80988200D03*
%TO.P,U1,5*%
X93657800Y-80988200D03*
%TO.P,U1,6*%
X93657800Y-78448200D03*
%TO.P,U1,7*%
X93657800Y-75908200D03*
%TO.P,U1,8*%
X93657800Y-73368200D03*
%TD*%
D25*
%TO.P,GND,1*%
%TO.N,N/C*%
X63364500Y-109609500D03*
%TD*%
D19*
%TO.P,C5,1*%
%TO.N,N/C*%
X105367000Y-59424000D03*
%TO.P,C5,2*%
X107867000Y-59424000D03*
%TD*%
D18*
%TO.P,Vin,1*%
%TO.N,N/C*%
X118816000Y-70788000D03*
%TD*%
D14*
%TO.P,D1,1*%
%TO.N,N/C*%
X91016000Y-44692000D03*
D15*
%TO.P,D1,2*%
X91016000Y-39612000D03*
%TD*%
D19*
%TO.P,C2,1*%
%TO.N,N/C*%
X98572500Y-54407500D03*
%TO.P,C2,2*%
X96072500Y-54407500D03*
%TD*%
D25*
%TO.P,GND,1*%
%TO.N,N/C*%
X113971460Y-110183540D03*
%TD*%
D14*
%TO.P,D1,1*%
%TO.N,N/C*%
X84977360Y-110841400D03*
D15*
%TO.P,D1,2*%
X79897360Y-110841400D03*
%TD*%
D20*
%TO.P,L1,1*%
%TO.N,N/C*%
X81262600Y-74843940D03*
%TO.P,L1,2*%
X81262600Y-82844940D03*
%TD*%
D12*
%TO.P,C1,1*%
%TO.N,N/C*%
X101064440Y-76327300D03*
D13*
%TO.P,C1,2*%
X101064440Y-71327300D03*
%TD*%
D10*
%TO.P,R1,1*%
%TO.N,N/C*%
X156916000Y-84758000D03*
D11*
%TO.P,R1,2*%
X156916000Y-92378000D03*
%TD*%
D18*
%TO.P,Vout,1*%
%TO.N,N/C*%
X63576580Y-81453020D03*
%TD*%
D12*
%TO.P,C3,1*%
%TO.N,N/C*%
X77382760Y-123566800D03*
D13*
%TO.P,C3,2*%
X77382760Y-118566800D03*
%TD*%
D10*
%TO.P,R1,1*%
%TO.N,N/C*%
X97213800Y-81178700D03*
D11*
%TO.P,R1,2*%
X104833800Y-81178700D03*
%TD*%
D20*
%TO.P,L1,1*%
%TO.N,N/C*%
X86262600Y-115288940D03*
%TO.P,L1,2*%
X86262600Y-123289940D03*
%TD*%
D25*
%TO.P,GND,1*%
%TO.N,N/C*%
X63576580Y-75669440D03*
%TD*%
D10*
%TO.P,R3,1*%
%TO.N,N/C*%
X104821100Y-84468000D03*
D11*
%TO.P,R3,2*%
X97201100Y-84468000D03*
%TD*%
D12*
%TO.P,C1,1*%
%TO.N,N/C*%
X106064440Y-116772300D03*
D13*
%TO.P,C1,2*%
X106064440Y-111772300D03*
%TD*%
D25*
%TO.P,GND,1*%
%TO.N,N/C*%
X108971460Y-69738540D03*
%TD*%
D10*
%TO.P,R3,1*%
%TO.N,N/C*%
X153868000Y-92378000D03*
D11*
%TO.P,R3,2*%
X153868000Y-84758000D03*
%TD*%
D16*
%TO.P,R2,1*%
%TO.N,N/C*%
X106319500Y-44819000D03*
D17*
%TO.P,R2,2*%
X106319500Y-39739000D03*
%TD*%
D25*
%TO.P,GND,2*%
%TO.N,N/C*%
X118816000Y-77392000D03*
%TD*%
D14*
%TO.P,D1,1*%
%TO.N,N/C*%
X142184000Y-75360000D03*
D15*
%TO.P,D1,2*%
X137104000Y-75360000D03*
%TD*%
D26*
%TO.N,*%
X102509500Y-51169000D02*
X103017500Y-51169000D01*
%TD*%
M02*
