%TF.GenerationSoftware,KiCad,Pcbnew,(6.0.8)*%
%TF.CreationDate,2022-11-19T23:49:12+04:00*%
%TF.ProjectId,panel,70616e65-6c2e-46b6-9963-61645f706362,rev?*%
%TF.SameCoordinates,Original*%
%TF.FileFunction,Drillmap*%
%TF.FilePolarity,Positive*%
%FSLAX45Y45*%
G04 Gerber Fmt 4.5, Leading zero omitted, Abs format (unit mm)*
G04 Created by KiCad (PCBNEW (6.0.8)) date 2022-11-19 23:49:12*
%MOMM*%
%LPD*%
G01*
G04 APERTURE LIST*
%ADD10C,0.100000*%
%ADD11C,0.050000*%
%ADD12C,0.200000*%
G04 APERTURE END LIST*
D10*
X6100000Y-6500000D02*
X6000000Y-6500000D01*
D11*
X6000000Y-12800000D02*
X6000000Y-10550000D01*
X11800000Y-12800000D02*
X6000000Y-12800000D01*
D10*
X11500000Y-10250000D02*
X11500000Y-7650000D01*
X11300000Y-10350000D02*
X10950000Y-10350000D01*
X8600000Y-8700000D02*
X6500000Y-8700000D01*
X6500000Y-3400000D02*
X8650000Y-3400000D01*
X10950000Y-10550000D02*
X11800000Y-10550000D01*
X11500000Y-7250000D02*
X11500000Y-6500000D01*
X16000000Y-6300000D02*
X14350000Y-6300000D01*
X11300000Y-7650000D02*
X11300000Y-8700000D01*
X10550000Y-8700000D02*
X9000000Y-8700000D01*
X14400000Y-3400000D02*
X16000000Y-3400000D01*
X11300000Y-8700000D02*
X10950000Y-8700000D01*
X8550000Y-10550000D02*
X6500000Y-10550000D01*
X11300000Y-6500000D02*
X11300000Y-7250000D01*
D11*
X16000000Y-6500000D02*
X16000000Y-10250000D01*
X6000000Y-6300000D02*
X6000000Y-3400000D01*
D10*
X11800000Y-10550000D02*
X11800000Y-11500000D01*
X11800000Y-3200000D02*
X14000000Y-3200000D01*
X6500000Y-10350000D02*
X8550000Y-10350000D01*
X6100000Y-10550000D02*
X6000000Y-10550000D01*
X12000000Y-11500000D02*
X12000000Y-10450000D01*
X11800000Y-11900000D02*
X11800000Y-12800000D01*
X6500000Y-8900000D02*
X8600000Y-8900000D01*
X14400000Y-6500000D02*
X16000000Y-6500000D01*
X14400000Y-3200000D02*
X16000000Y-3200000D01*
D11*
X6000000Y-8700000D02*
X6000000Y-6500000D01*
D10*
X6500000Y-3200000D02*
X8650000Y-3200000D01*
X12150000Y-4900000D02*
X12150000Y-6300000D01*
X12000000Y-10450000D02*
X13600000Y-10450000D01*
X11800000Y-3400000D02*
X12150000Y-3400000D01*
X12350000Y-3400000D02*
X12350000Y-4500000D01*
X6100000Y-8900000D02*
X6000000Y-8900000D01*
X11000000Y-6500000D02*
X11300000Y-6500000D01*
X6000000Y-3200000D02*
X6000000Y-2900000D01*
X12150000Y-6300000D02*
X12000000Y-6300000D01*
X16000000Y-2900000D02*
X16000000Y-3200000D01*
X8600000Y-6300000D02*
X6500000Y-6300000D01*
X14000000Y-6300000D02*
X12350000Y-6300000D01*
X10550000Y-8900000D02*
X9000000Y-8900000D01*
X16000000Y-3400000D02*
X16000000Y-6300000D01*
X11300000Y-8900000D02*
X11300000Y-10350000D01*
X6000000Y-2900000D02*
X16000000Y-2900000D01*
X12000000Y-6500000D02*
X14000000Y-6500000D01*
X16000000Y-10450000D02*
X16000000Y-12800000D01*
X14000000Y-3400000D02*
X12350000Y-3400000D01*
X11500000Y-6500000D02*
X11600000Y-6500000D01*
X12350000Y-6300000D02*
X12350000Y-4900000D01*
X6500000Y-6500000D02*
X8600000Y-6500000D01*
X12150000Y-4500000D02*
X12150000Y-3400000D01*
X6100000Y-6300000D02*
X6000000Y-6300000D01*
X6100000Y-3200000D02*
X6000000Y-3200000D01*
X6000000Y-10350000D02*
X6150000Y-10350000D01*
X9000000Y-6500000D02*
X10600000Y-6500000D01*
X9000000Y-6300000D02*
X10600000Y-6300000D01*
X9050000Y-3200000D02*
X11400000Y-3200000D01*
X13600000Y-10250000D02*
X11500000Y-10250000D01*
X10550000Y-10350000D02*
X8950000Y-10350000D01*
X12000000Y-12800000D02*
X12000000Y-11900000D01*
X6100000Y-8700000D02*
X6000000Y-8700000D01*
X11000000Y-6300000D02*
X11600000Y-6300000D01*
X16000000Y-12800000D02*
X12000000Y-12800000D01*
X6100000Y-3400000D02*
X6000000Y-3400000D01*
X6000000Y-8900000D02*
X6000000Y-10350000D01*
X10550000Y-10550000D02*
X8950000Y-10550000D01*
X14000000Y-10250000D02*
X16000000Y-10250000D01*
X10950000Y-8900000D02*
X11300000Y-8900000D01*
X14000000Y-10450000D02*
X16000000Y-10450000D01*
X9050000Y-3400000D02*
X11400000Y-3400000D01*
D12*
D11*
X6200000Y-3200000D02*
X6250000Y-3250000D01*
X6250000Y-3200000D02*
X6200000Y-3250000D01*
X6200000Y-3350000D02*
X6250000Y-3400000D01*
X6250000Y-3350000D02*
X6200000Y-3400000D01*
X6200000Y-6300000D02*
X6250000Y-6350000D01*
X6250000Y-6300000D02*
X6200000Y-6350000D01*
X6200000Y-6450000D02*
X6250000Y-6500000D01*
X6250000Y-6450000D02*
X6200000Y-6500000D01*
X6200000Y-8700000D02*
X6250000Y-8750000D01*
X6250000Y-8700000D02*
X6200000Y-8750000D01*
X6200000Y-8850000D02*
X6250000Y-8900000D01*
X6250000Y-8850000D02*
X6200000Y-8900000D01*
X6200000Y-10350000D02*
X6250000Y-10400000D01*
X6250000Y-10350000D02*
X6200000Y-10400000D01*
X6200000Y-10500000D02*
X6250000Y-10550000D01*
X6250000Y-10500000D02*
X6200000Y-10550000D01*
X6275000Y-3200000D02*
X6325000Y-3250000D01*
X6325000Y-3200000D02*
X6275000Y-3250000D01*
X6275000Y-3350000D02*
X6325000Y-3400000D01*
X6325000Y-3350000D02*
X6275000Y-3400000D01*
X6275000Y-6300000D02*
X6325000Y-6350000D01*
X6325000Y-6300000D02*
X6275000Y-6350000D01*
X6275000Y-6450000D02*
X6325000Y-6500000D01*
X6325000Y-6450000D02*
X6275000Y-6500000D01*
X6275000Y-8700000D02*
X6325000Y-8750000D01*
X6325000Y-8700000D02*
X6275000Y-8750000D01*
X6275000Y-8850000D02*
X6325000Y-8900000D01*
X6325000Y-8850000D02*
X6275000Y-8900000D01*
X6275000Y-10350000D02*
X6325000Y-10400000D01*
X6325000Y-10350000D02*
X6275000Y-10400000D01*
X6275000Y-10500000D02*
X6325000Y-10550000D01*
X6325000Y-10500000D02*
X6275000Y-10550000D01*
X6350000Y-3200000D02*
X6400000Y-3250000D01*
X6400000Y-3200000D02*
X6350000Y-3250000D01*
X6350000Y-3350000D02*
X6400000Y-3400000D01*
X6400000Y-3350000D02*
X6350000Y-3400000D01*
X6350000Y-6300000D02*
X6400000Y-6350000D01*
X6400000Y-6300000D02*
X6350000Y-6350000D01*
X6350000Y-6450000D02*
X6400000Y-6500000D01*
X6400000Y-6450000D02*
X6350000Y-6500000D01*
X6350000Y-8700000D02*
X6400000Y-8750000D01*
X6400000Y-8700000D02*
X6350000Y-8750000D01*
X6350000Y-8850000D02*
X6400000Y-8900000D01*
X6400000Y-8850000D02*
X6350000Y-8900000D01*
X6350000Y-10350000D02*
X6400000Y-10400000D01*
X6400000Y-10350000D02*
X6350000Y-10400000D01*
X6350000Y-10500000D02*
X6400000Y-10550000D01*
X6400000Y-10500000D02*
X6350000Y-10550000D01*
X8650000Y-10350000D02*
X8700000Y-10400000D01*
X8700000Y-10350000D02*
X8650000Y-10400000D01*
X8650000Y-10500000D02*
X8700000Y-10550000D01*
X8700000Y-10500000D02*
X8650000Y-10550000D01*
X8700000Y-6300000D02*
X8750000Y-6350000D01*
X8750000Y-6300000D02*
X8700000Y-6350000D01*
X8700000Y-6450000D02*
X8750000Y-6500000D01*
X8750000Y-6450000D02*
X8700000Y-6500000D01*
X8700000Y-8700000D02*
X8750000Y-8750000D01*
X8750000Y-8700000D02*
X8700000Y-8750000D01*
X8700000Y-8850000D02*
X8750000Y-8900000D01*
X8750000Y-8850000D02*
X8700000Y-8900000D01*
X8725000Y-10350000D02*
X8775000Y-10400000D01*
X8775000Y-10350000D02*
X8725000Y-10400000D01*
X8725000Y-10500000D02*
X8775000Y-10550000D01*
X8775000Y-10500000D02*
X8725000Y-10550000D01*
X8750000Y-3200000D02*
X8800000Y-3250000D01*
X8800000Y-3200000D02*
X8750000Y-3250000D01*
X8750000Y-3350000D02*
X8800000Y-3400000D01*
X8800000Y-3350000D02*
X8750000Y-3400000D01*
X8775000Y-6300000D02*
X8825000Y-6350000D01*
X8825000Y-6300000D02*
X8775000Y-6350000D01*
X8775000Y-6450000D02*
X8825000Y-6500000D01*
X8825000Y-6450000D02*
X8775000Y-6500000D01*
X8775000Y-8700000D02*
X8825000Y-8750000D01*
X8825000Y-8700000D02*
X8775000Y-8750000D01*
X8775000Y-8850000D02*
X8825000Y-8900000D01*
X8825000Y-8850000D02*
X8775000Y-8900000D01*
X8800000Y-10350000D02*
X8850000Y-10400000D01*
X8850000Y-10350000D02*
X8800000Y-10400000D01*
X8800000Y-10500000D02*
X8850000Y-10550000D01*
X8850000Y-10500000D02*
X8800000Y-10550000D01*
X8825000Y-3200000D02*
X8875000Y-3250000D01*
X8875000Y-3200000D02*
X8825000Y-3250000D01*
X8825000Y-3350000D02*
X8875000Y-3400000D01*
X8875000Y-3350000D02*
X8825000Y-3400000D01*
X8850000Y-6300000D02*
X8900000Y-6350000D01*
X8900000Y-6300000D02*
X8850000Y-6350000D01*
X8850000Y-6450000D02*
X8900000Y-6500000D01*
X8900000Y-6450000D02*
X8850000Y-6500000D01*
X8850000Y-8700000D02*
X8900000Y-8750000D01*
X8900000Y-8700000D02*
X8850000Y-8750000D01*
X8850000Y-8850000D02*
X8900000Y-8900000D01*
X8900000Y-8850000D02*
X8850000Y-8900000D01*
X8900000Y-3200000D02*
X8950000Y-3250000D01*
X8950000Y-3200000D02*
X8900000Y-3250000D01*
X8900000Y-3350000D02*
X8950000Y-3400000D01*
X8950000Y-3350000D02*
X8900000Y-3400000D01*
X10650000Y-8700000D02*
X10700000Y-8750000D01*
X10700000Y-8700000D02*
X10650000Y-8750000D01*
X10650000Y-8850000D02*
X10700000Y-8900000D01*
X10700000Y-8850000D02*
X10650000Y-8900000D01*
X10650000Y-10350000D02*
X10700000Y-10400000D01*
X10700000Y-10350000D02*
X10650000Y-10400000D01*
X10650000Y-10500000D02*
X10700000Y-10550000D01*
X10700000Y-10500000D02*
X10650000Y-10550000D01*
X10700000Y-6300000D02*
X10750000Y-6350000D01*
X10750000Y-6300000D02*
X10700000Y-6350000D01*
X10700000Y-6450000D02*
X10750000Y-6500000D01*
X10750000Y-6450000D02*
X10700000Y-6500000D01*
X10725000Y-8700000D02*
X10775000Y-8750000D01*
X10775000Y-8700000D02*
X10725000Y-8750000D01*
X10725000Y-8850000D02*
X10775000Y-8900000D01*
X10775000Y-8850000D02*
X10725000Y-8900000D01*
X10725000Y-10350000D02*
X10775000Y-10400000D01*
X10775000Y-10350000D02*
X10725000Y-10400000D01*
X10725000Y-10500000D02*
X10775000Y-10550000D01*
X10775000Y-10500000D02*
X10725000Y-10550000D01*
X10775000Y-6300000D02*
X10825000Y-6350000D01*
X10825000Y-6300000D02*
X10775000Y-6350000D01*
X10775000Y-6450000D02*
X10825000Y-6500000D01*
X10825000Y-6450000D02*
X10775000Y-6500000D01*
X10800000Y-8700000D02*
X10850000Y-8750000D01*
X10850000Y-8700000D02*
X10800000Y-8750000D01*
X10800000Y-8850000D02*
X10850000Y-8900000D01*
X10850000Y-8850000D02*
X10800000Y-8900000D01*
X10800000Y-10350000D02*
X10850000Y-10400000D01*
X10850000Y-10350000D02*
X10800000Y-10400000D01*
X10800000Y-10500000D02*
X10850000Y-10550000D01*
X10850000Y-10500000D02*
X10800000Y-10550000D01*
X10850000Y-6300000D02*
X10900000Y-6350000D01*
X10900000Y-6300000D02*
X10850000Y-6350000D01*
X10850000Y-6450000D02*
X10900000Y-6500000D01*
X10900000Y-6450000D02*
X10850000Y-6500000D01*
X11300000Y-7350000D02*
X11350000Y-7400000D01*
X11350000Y-7350000D02*
X11300000Y-7400000D01*
X11300000Y-7425000D02*
X11350000Y-7475000D01*
X11350000Y-7425000D02*
X11300000Y-7475000D01*
X11300000Y-7500000D02*
X11350000Y-7550000D01*
X11350000Y-7500000D02*
X11300000Y-7550000D01*
X11450000Y-7350000D02*
X11500000Y-7400000D01*
X11500000Y-7350000D02*
X11450000Y-7400000D01*
X11450000Y-7425000D02*
X11500000Y-7475000D01*
X11500000Y-7425000D02*
X11450000Y-7475000D01*
X11450000Y-7500000D02*
X11500000Y-7550000D01*
X11500000Y-7500000D02*
X11450000Y-7550000D01*
X11500000Y-3200000D02*
X11550000Y-3250000D01*
X11550000Y-3200000D02*
X11500000Y-3250000D01*
X11500000Y-3350000D02*
X11550000Y-3400000D01*
X11550000Y-3350000D02*
X11500000Y-3400000D01*
X11575000Y-3200000D02*
X11625000Y-3250000D01*
X11625000Y-3200000D02*
X11575000Y-3250000D01*
X11575000Y-3350000D02*
X11625000Y-3400000D01*
X11625000Y-3350000D02*
X11575000Y-3400000D01*
X11650000Y-3200000D02*
X11700000Y-3250000D01*
X11700000Y-3200000D02*
X11650000Y-3250000D01*
X11650000Y-3350000D02*
X11700000Y-3400000D01*
X11700000Y-3350000D02*
X11650000Y-3400000D01*
X11700000Y-6300000D02*
X11750000Y-6350000D01*
X11750000Y-6300000D02*
X11700000Y-6350000D01*
X11700000Y-6450000D02*
X11750000Y-6500000D01*
X11750000Y-6450000D02*
X11700000Y-6500000D01*
X11775000Y-6300000D02*
X11825000Y-6350000D01*
X11825000Y-6300000D02*
X11775000Y-6350000D01*
X11775000Y-6450000D02*
X11825000Y-6500000D01*
X11825000Y-6450000D02*
X11775000Y-6500000D01*
X11800000Y-11600000D02*
X11850000Y-11650000D01*
X11850000Y-11600000D02*
X11800000Y-11650000D01*
X11800000Y-11675000D02*
X11850000Y-11725000D01*
X11850000Y-11675000D02*
X11800000Y-11725000D01*
X11800000Y-11750000D02*
X11850000Y-11800000D01*
X11850000Y-11750000D02*
X11800000Y-11800000D01*
X11850000Y-6300000D02*
X11900000Y-6350000D01*
X11900000Y-6300000D02*
X11850000Y-6350000D01*
X11850000Y-6450000D02*
X11900000Y-6500000D01*
X11900000Y-6450000D02*
X11850000Y-6500000D01*
X11950000Y-11600000D02*
X12000000Y-11650000D01*
X12000000Y-11600000D02*
X11950000Y-11650000D01*
X11950000Y-11675000D02*
X12000000Y-11725000D01*
X12000000Y-11675000D02*
X11950000Y-11725000D01*
X11950000Y-11750000D02*
X12000000Y-11800000D01*
X12000000Y-11750000D02*
X11950000Y-11800000D01*
X12150000Y-4600000D02*
X12200000Y-4650000D01*
X12200000Y-4600000D02*
X12150000Y-4650000D01*
X12150000Y-4675000D02*
X12200000Y-4725000D01*
X12200000Y-4675000D02*
X12150000Y-4725000D01*
X12150000Y-4750000D02*
X12200000Y-4800000D01*
X12200000Y-4750000D02*
X12150000Y-4800000D01*
X12300000Y-4600000D02*
X12350000Y-4650000D01*
X12350000Y-4600000D02*
X12300000Y-4650000D01*
X12300000Y-4675000D02*
X12350000Y-4725000D01*
X12350000Y-4675000D02*
X12300000Y-4725000D01*
X12300000Y-4750000D02*
X12350000Y-4800000D01*
X12350000Y-4750000D02*
X12300000Y-4800000D01*
X13700000Y-10250000D02*
X13750000Y-10300000D01*
X13750000Y-10250000D02*
X13700000Y-10300000D01*
X13700000Y-10400000D02*
X13750000Y-10450000D01*
X13750000Y-10400000D02*
X13700000Y-10450000D01*
X13775000Y-10250000D02*
X13825000Y-10300000D01*
X13825000Y-10250000D02*
X13775000Y-10300000D01*
X13775000Y-10400000D02*
X13825000Y-10450000D01*
X13825000Y-10400000D02*
X13775000Y-10450000D01*
X13850000Y-10250000D02*
X13900000Y-10300000D01*
X13900000Y-10250000D02*
X13850000Y-10300000D01*
X13850000Y-10400000D02*
X13900000Y-10450000D01*
X13900000Y-10400000D02*
X13850000Y-10450000D01*
X14100000Y-3200000D02*
X14150000Y-3250000D01*
X14150000Y-3200000D02*
X14100000Y-3250000D01*
X14100000Y-3350000D02*
X14150000Y-3400000D01*
X14150000Y-3350000D02*
X14100000Y-3400000D01*
X14100000Y-6300000D02*
X14150000Y-6350000D01*
X14150000Y-6300000D02*
X14100000Y-6350000D01*
X14100000Y-6450000D02*
X14150000Y-6500000D01*
X14150000Y-6450000D02*
X14100000Y-6500000D01*
X14175000Y-3200000D02*
X14225000Y-3250000D01*
X14225000Y-3200000D02*
X14175000Y-3250000D01*
X14175000Y-3350000D02*
X14225000Y-3400000D01*
X14225000Y-3350000D02*
X14175000Y-3400000D01*
X14175000Y-6300000D02*
X14225000Y-6350000D01*
X14225000Y-6300000D02*
X14175000Y-6350000D01*
X14175000Y-6450000D02*
X14225000Y-6500000D01*
X14225000Y-6450000D02*
X14175000Y-6500000D01*
X14250000Y-3200000D02*
X14300000Y-3250000D01*
X14300000Y-3200000D02*
X14250000Y-3250000D01*
X14250000Y-3350000D02*
X14300000Y-3400000D01*
X14300000Y-3350000D02*
X14250000Y-3400000D01*
X14250000Y-6300000D02*
X14300000Y-6350000D01*
X14300000Y-6300000D02*
X14250000Y-6350000D01*
X14250000Y-6450000D02*
X14300000Y-6500000D01*
X14300000Y-6450000D02*
X14250000Y-6500000D01*
D12*
X6252619Y-13115476D02*
X6252619Y-12915476D01*
X6300238Y-12915476D01*
X6328809Y-12925000D01*
X6347857Y-12944048D01*
X6357381Y-12963095D01*
X6366905Y-13001190D01*
X6366905Y-13029762D01*
X6357381Y-13067857D01*
X6347857Y-13086905D01*
X6328809Y-13105952D01*
X6300238Y-13115476D01*
X6252619Y-13115476D01*
X6452619Y-13115476D02*
X6452619Y-12982143D01*
X6452619Y-13020238D02*
X6462143Y-13001190D01*
X6471667Y-12991667D01*
X6490714Y-12982143D01*
X6509762Y-12982143D01*
X6576428Y-13115476D02*
X6576428Y-12982143D01*
X6576428Y-12915476D02*
X6566905Y-12925000D01*
X6576428Y-12934524D01*
X6585952Y-12925000D01*
X6576428Y-12915476D01*
X6576428Y-12934524D01*
X6700238Y-13115476D02*
X6681190Y-13105952D01*
X6671667Y-13086905D01*
X6671667Y-12915476D01*
X6805000Y-13115476D02*
X6785952Y-13105952D01*
X6776428Y-13086905D01*
X6776428Y-12915476D01*
X7033571Y-13115476D02*
X7033571Y-12915476D01*
X7100238Y-13058333D01*
X7166905Y-12915476D01*
X7166905Y-13115476D01*
X7347857Y-13115476D02*
X7347857Y-13010714D01*
X7338333Y-12991667D01*
X7319286Y-12982143D01*
X7281190Y-12982143D01*
X7262143Y-12991667D01*
X7347857Y-13105952D02*
X7328809Y-13115476D01*
X7281190Y-13115476D01*
X7262143Y-13105952D01*
X7252619Y-13086905D01*
X7252619Y-13067857D01*
X7262143Y-13048809D01*
X7281190Y-13039286D01*
X7328809Y-13039286D01*
X7347857Y-13029762D01*
X7443095Y-12982143D02*
X7443095Y-13182143D01*
X7443095Y-12991667D02*
X7462143Y-12982143D01*
X7500238Y-12982143D01*
X7519286Y-12991667D01*
X7528809Y-13001190D01*
X7538333Y-13020238D01*
X7538333Y-13077381D01*
X7528809Y-13096428D01*
X7519286Y-13105952D01*
X7500238Y-13115476D01*
X7462143Y-13115476D01*
X7443095Y-13105952D01*
X7624048Y-13096428D02*
X7633571Y-13105952D01*
X7624048Y-13115476D01*
X7614524Y-13105952D01*
X7624048Y-13096428D01*
X7624048Y-13115476D01*
X7624048Y-12991667D02*
X7633571Y-13001190D01*
X7624048Y-13010714D01*
X7614524Y-13001190D01*
X7624048Y-12991667D01*
X7624048Y-13010714D01*
D11*
X5945000Y-13420000D02*
X5995000Y-13470000D01*
X5995000Y-13420000D02*
X5945000Y-13470000D01*
D12*
X6290714Y-13335476D02*
X6309762Y-13335476D01*
X6328809Y-13345000D01*
X6338333Y-13354524D01*
X6347857Y-13373571D01*
X6357381Y-13411667D01*
X6357381Y-13459286D01*
X6347857Y-13497381D01*
X6338333Y-13516428D01*
X6328809Y-13525952D01*
X6309762Y-13535476D01*
X6290714Y-13535476D01*
X6271667Y-13525952D01*
X6262143Y-13516428D01*
X6252619Y-13497381D01*
X6243095Y-13459286D01*
X6243095Y-13411667D01*
X6252619Y-13373571D01*
X6262143Y-13354524D01*
X6271667Y-13345000D01*
X6290714Y-13335476D01*
X6443095Y-13516428D02*
X6452619Y-13525952D01*
X6443095Y-13535476D01*
X6433571Y-13525952D01*
X6443095Y-13516428D01*
X6443095Y-13535476D01*
X6633571Y-13335476D02*
X6538333Y-13335476D01*
X6528809Y-13430714D01*
X6538333Y-13421190D01*
X6557381Y-13411667D01*
X6605000Y-13411667D01*
X6624048Y-13421190D01*
X6633571Y-13430714D01*
X6643095Y-13449762D01*
X6643095Y-13497381D01*
X6633571Y-13516428D01*
X6624048Y-13525952D01*
X6605000Y-13535476D01*
X6557381Y-13535476D01*
X6538333Y-13525952D01*
X6528809Y-13516428D01*
X6766905Y-13335476D02*
X6785952Y-13335476D01*
X6805000Y-13345000D01*
X6814524Y-13354524D01*
X6824048Y-13373571D01*
X6833571Y-13411667D01*
X6833571Y-13459286D01*
X6824048Y-13497381D01*
X6814524Y-13516428D01*
X6805000Y-13525952D01*
X6785952Y-13535476D01*
X6766905Y-13535476D01*
X6747857Y-13525952D01*
X6738333Y-13516428D01*
X6728809Y-13497381D01*
X6719286Y-13459286D01*
X6719286Y-13411667D01*
X6728809Y-13373571D01*
X6738333Y-13354524D01*
X6747857Y-13345000D01*
X6766905Y-13335476D01*
X6957381Y-13335476D02*
X6976428Y-13335476D01*
X6995476Y-13345000D01*
X7005000Y-13354524D01*
X7014524Y-13373571D01*
X7024048Y-13411667D01*
X7024048Y-13459286D01*
X7014524Y-13497381D01*
X7005000Y-13516428D01*
X6995476Y-13525952D01*
X6976428Y-13535476D01*
X6957381Y-13535476D01*
X6938333Y-13525952D01*
X6928809Y-13516428D01*
X6919286Y-13497381D01*
X6909762Y-13459286D01*
X6909762Y-13411667D01*
X6919286Y-13373571D01*
X6928809Y-13354524D01*
X6938333Y-13345000D01*
X6957381Y-13335476D01*
X7109762Y-13535476D02*
X7109762Y-13402143D01*
X7109762Y-13421190D02*
X7119286Y-13411667D01*
X7138333Y-13402143D01*
X7166905Y-13402143D01*
X7185952Y-13411667D01*
X7195476Y-13430714D01*
X7195476Y-13535476D01*
X7195476Y-13430714D02*
X7205000Y-13411667D01*
X7224048Y-13402143D01*
X7252619Y-13402143D01*
X7271667Y-13411667D01*
X7281190Y-13430714D01*
X7281190Y-13535476D01*
X7376428Y-13535476D02*
X7376428Y-13402143D01*
X7376428Y-13421190D02*
X7385952Y-13411667D01*
X7405000Y-13402143D01*
X7433571Y-13402143D01*
X7452619Y-13411667D01*
X7462143Y-13430714D01*
X7462143Y-13535476D01*
X7462143Y-13430714D02*
X7471667Y-13411667D01*
X7490714Y-13402143D01*
X7519286Y-13402143D01*
X7538333Y-13411667D01*
X7547857Y-13430714D01*
X7547857Y-13535476D01*
X7938333Y-13325952D02*
X7766905Y-13583095D01*
X8195476Y-13335476D02*
X8214524Y-13335476D01*
X8233571Y-13345000D01*
X8243095Y-13354524D01*
X8252619Y-13373571D01*
X8262143Y-13411667D01*
X8262143Y-13459286D01*
X8252619Y-13497381D01*
X8243095Y-13516428D01*
X8233571Y-13525952D01*
X8214524Y-13535476D01*
X8195476Y-13535476D01*
X8176428Y-13525952D01*
X8166905Y-13516428D01*
X8157381Y-13497381D01*
X8147857Y-13459286D01*
X8147857Y-13411667D01*
X8157381Y-13373571D01*
X8166905Y-13354524D01*
X8176428Y-13345000D01*
X8195476Y-13335476D01*
X8347857Y-13516428D02*
X8357381Y-13525952D01*
X8347857Y-13535476D01*
X8338333Y-13525952D01*
X8347857Y-13516428D01*
X8347857Y-13535476D01*
X8481190Y-13335476D02*
X8500238Y-13335476D01*
X8519286Y-13345000D01*
X8528810Y-13354524D01*
X8538333Y-13373571D01*
X8547857Y-13411667D01*
X8547857Y-13459286D01*
X8538333Y-13497381D01*
X8528810Y-13516428D01*
X8519286Y-13525952D01*
X8500238Y-13535476D01*
X8481190Y-13535476D01*
X8462143Y-13525952D01*
X8452619Y-13516428D01*
X8443095Y-13497381D01*
X8433571Y-13459286D01*
X8433571Y-13411667D01*
X8443095Y-13373571D01*
X8452619Y-13354524D01*
X8462143Y-13345000D01*
X8481190Y-13335476D01*
X8738333Y-13535476D02*
X8624048Y-13535476D01*
X8681190Y-13535476D02*
X8681190Y-13335476D01*
X8662143Y-13364048D01*
X8643095Y-13383095D01*
X8624048Y-13392619D01*
X8833571Y-13535476D02*
X8871667Y-13535476D01*
X8890714Y-13525952D01*
X8900238Y-13516428D01*
X8919286Y-13487857D01*
X8928810Y-13449762D01*
X8928810Y-13373571D01*
X8919286Y-13354524D01*
X8909762Y-13345000D01*
X8890714Y-13335476D01*
X8852619Y-13335476D01*
X8833571Y-13345000D01*
X8824048Y-13354524D01*
X8814524Y-13373571D01*
X8814524Y-13421190D01*
X8824048Y-13440238D01*
X8833571Y-13449762D01*
X8852619Y-13459286D01*
X8890714Y-13459286D01*
X8909762Y-13449762D01*
X8919286Y-13440238D01*
X8928810Y-13421190D01*
X8995476Y-13335476D02*
X9128810Y-13335476D01*
X9043095Y-13535476D01*
X9195476Y-13335476D02*
X9195476Y-13373571D01*
X9271667Y-13335476D02*
X9271667Y-13373571D01*
X9566905Y-13611667D02*
X9557381Y-13602143D01*
X9538333Y-13573571D01*
X9528810Y-13554524D01*
X9519286Y-13525952D01*
X9509762Y-13478333D01*
X9509762Y-13440238D01*
X9519286Y-13392619D01*
X9528810Y-13364048D01*
X9538333Y-13345000D01*
X9557381Y-13316428D01*
X9566905Y-13306905D01*
X9747857Y-13535476D02*
X9633571Y-13535476D01*
X9690714Y-13535476D02*
X9690714Y-13335476D01*
X9671667Y-13364048D01*
X9652619Y-13383095D01*
X9633571Y-13392619D01*
X9938333Y-13535476D02*
X9824048Y-13535476D01*
X9881190Y-13535476D02*
X9881190Y-13335476D01*
X9862143Y-13364048D01*
X9843095Y-13383095D01*
X9824048Y-13392619D01*
X10109762Y-13402143D02*
X10109762Y-13535476D01*
X10062143Y-13325952D02*
X10014524Y-13468809D01*
X10138333Y-13468809D01*
X10366905Y-13535476D02*
X10366905Y-13335476D01*
X10452619Y-13535476D02*
X10452619Y-13430714D01*
X10443095Y-13411667D01*
X10424048Y-13402143D01*
X10395476Y-13402143D01*
X10376429Y-13411667D01*
X10366905Y-13421190D01*
X10576429Y-13535476D02*
X10557381Y-13525952D01*
X10547857Y-13516428D01*
X10538333Y-13497381D01*
X10538333Y-13440238D01*
X10547857Y-13421190D01*
X10557381Y-13411667D01*
X10576429Y-13402143D01*
X10605000Y-13402143D01*
X10624048Y-13411667D01*
X10633571Y-13421190D01*
X10643095Y-13440238D01*
X10643095Y-13497381D01*
X10633571Y-13516428D01*
X10624048Y-13525952D01*
X10605000Y-13535476D01*
X10576429Y-13535476D01*
X10757381Y-13535476D02*
X10738333Y-13525952D01*
X10728810Y-13506905D01*
X10728810Y-13335476D01*
X10909762Y-13525952D02*
X10890714Y-13535476D01*
X10852619Y-13535476D01*
X10833571Y-13525952D01*
X10824048Y-13506905D01*
X10824048Y-13430714D01*
X10833571Y-13411667D01*
X10852619Y-13402143D01*
X10890714Y-13402143D01*
X10909762Y-13411667D01*
X10919286Y-13430714D01*
X10919286Y-13449762D01*
X10824048Y-13468809D01*
X10995476Y-13525952D02*
X11014524Y-13535476D01*
X11052619Y-13535476D01*
X11071667Y-13525952D01*
X11081190Y-13506905D01*
X11081190Y-13497381D01*
X11071667Y-13478333D01*
X11052619Y-13468809D01*
X11024048Y-13468809D01*
X11005000Y-13459286D01*
X10995476Y-13440238D01*
X10995476Y-13430714D01*
X11005000Y-13411667D01*
X11024048Y-13402143D01*
X11052619Y-13402143D01*
X11071667Y-13411667D01*
X11147857Y-13611667D02*
X11157381Y-13602143D01*
X11176429Y-13573571D01*
X11185952Y-13554524D01*
X11195476Y-13525952D01*
X11205000Y-13478333D01*
X11205000Y-13440238D01*
X11195476Y-13392619D01*
X11185952Y-13364048D01*
X11176429Y-13345000D01*
X11157381Y-13316428D01*
X11147857Y-13306905D01*
X11509762Y-13611667D02*
X11500238Y-13602143D01*
X11481190Y-13573571D01*
X11471667Y-13554524D01*
X11462143Y-13525952D01*
X11452619Y-13478333D01*
X11452619Y-13440238D01*
X11462143Y-13392619D01*
X11471667Y-13364048D01*
X11481190Y-13345000D01*
X11500238Y-13316428D01*
X11509762Y-13306905D01*
X11585952Y-13402143D02*
X11585952Y-13535476D01*
X11585952Y-13421190D02*
X11595476Y-13411667D01*
X11614524Y-13402143D01*
X11643095Y-13402143D01*
X11662143Y-13411667D01*
X11671667Y-13430714D01*
X11671667Y-13535476D01*
X11795476Y-13535476D02*
X11776428Y-13525952D01*
X11766905Y-13516428D01*
X11757381Y-13497381D01*
X11757381Y-13440238D01*
X11766905Y-13421190D01*
X11776428Y-13411667D01*
X11795476Y-13402143D01*
X11824048Y-13402143D01*
X11843095Y-13411667D01*
X11852619Y-13421190D01*
X11862143Y-13440238D01*
X11862143Y-13497381D01*
X11852619Y-13516428D01*
X11843095Y-13525952D01*
X11824048Y-13535476D01*
X11795476Y-13535476D01*
X11919286Y-13402143D02*
X11995476Y-13402143D01*
X11947857Y-13335476D02*
X11947857Y-13506905D01*
X11957381Y-13525952D01*
X11976428Y-13535476D01*
X11995476Y-13535476D01*
X12214524Y-13402143D02*
X12214524Y-13602143D01*
X12214524Y-13411667D02*
X12233571Y-13402143D01*
X12271667Y-13402143D01*
X12290714Y-13411667D01*
X12300238Y-13421190D01*
X12309762Y-13440238D01*
X12309762Y-13497381D01*
X12300238Y-13516428D01*
X12290714Y-13525952D01*
X12271667Y-13535476D01*
X12233571Y-13535476D01*
X12214524Y-13525952D01*
X12424048Y-13535476D02*
X12405000Y-13525952D01*
X12395476Y-13506905D01*
X12395476Y-13335476D01*
X12585952Y-13535476D02*
X12585952Y-13430714D01*
X12576428Y-13411667D01*
X12557381Y-13402143D01*
X12519286Y-13402143D01*
X12500238Y-13411667D01*
X12585952Y-13525952D02*
X12566905Y-13535476D01*
X12519286Y-13535476D01*
X12500238Y-13525952D01*
X12490714Y-13506905D01*
X12490714Y-13487857D01*
X12500238Y-13468809D01*
X12519286Y-13459286D01*
X12566905Y-13459286D01*
X12585952Y-13449762D01*
X12652619Y-13402143D02*
X12728809Y-13402143D01*
X12681190Y-13335476D02*
X12681190Y-13506905D01*
X12690714Y-13525952D01*
X12709762Y-13535476D01*
X12728809Y-13535476D01*
X12871667Y-13525952D02*
X12852619Y-13535476D01*
X12814524Y-13535476D01*
X12795476Y-13525952D01*
X12785952Y-13506905D01*
X12785952Y-13430714D01*
X12795476Y-13411667D01*
X12814524Y-13402143D01*
X12852619Y-13402143D01*
X12871667Y-13411667D01*
X12881190Y-13430714D01*
X12881190Y-13449762D01*
X12785952Y-13468809D01*
X13052619Y-13535476D02*
X13052619Y-13335476D01*
X13052619Y-13525952D02*
X13033571Y-13535476D01*
X12995476Y-13535476D01*
X12976428Y-13525952D01*
X12966905Y-13516428D01*
X12957381Y-13497381D01*
X12957381Y-13440238D01*
X12966905Y-13421190D01*
X12976428Y-13411667D01*
X12995476Y-13402143D01*
X13033571Y-13402143D01*
X13052619Y-13411667D01*
X13128809Y-13611667D02*
X13138333Y-13602143D01*
X13157381Y-13573571D01*
X13166905Y-13554524D01*
X13176428Y-13525952D01*
X13185952Y-13478333D01*
X13185952Y-13440238D01*
X13176428Y-13392619D01*
X13166905Y-13364048D01*
X13157381Y-13345000D01*
X13138333Y-13316428D01*
X13128809Y-13306905D01*
M02*
