%TF.GenerationSoftware,KiCad,Pcbnew,(6.0.8)*%
%TF.CreationDate,2022-11-19T23:49:02+04:00*%
%TF.ProjectId,panel,70616e65-6c2e-46b6-9963-61645f706362,rev?*%
%TF.SameCoordinates,Original*%
%TF.FileFunction,Legend,Top*%
%TF.FilePolarity,Positive*%
%FSLAX46Y46*%
G04 Gerber Fmt 4.6, Leading zero omitted, Abs format (unit mm)*
G04 Created by KiCad (PCBNEW (6.0.8)) date 2022-11-19 23:49:02*
%MOMM*%
%LPD*%
G01*
G04 APERTURE LIST*
%ADD10C,0.150000*%
%ADD11C,0.120000*%
G04 APERTURE END LIST*
D10*
%TO.C,R1*%
X105750453Y-122058300D02*
X105417120Y-121582110D01*
X105179024Y-122058300D02*
X105179024Y-121058300D01*
X105559977Y-121058300D01*
X105655215Y-121105920D01*
X105702834Y-121153539D01*
X105750453Y-121248777D01*
X105750453Y-121391634D01*
X105702834Y-121486872D01*
X105655215Y-121534491D01*
X105559977Y-121582110D01*
X105179024Y-121582110D01*
X106702834Y-122058300D02*
X106131405Y-122058300D01*
X106417120Y-122058300D02*
X106417120Y-121058300D01*
X106321881Y-121201158D01*
X106226643Y-121296396D01*
X106131405Y-121344015D01*
%TO.C,C3*%
X129357333Y-90663142D02*
X129309714Y-90710761D01*
X129166857Y-90758380D01*
X129071619Y-90758380D01*
X128928761Y-90710761D01*
X128833523Y-90615523D01*
X128785904Y-90520285D01*
X128738285Y-90329809D01*
X128738285Y-90186952D01*
X128785904Y-89996476D01*
X128833523Y-89901238D01*
X128928761Y-89806000D01*
X129071619Y-89758380D01*
X129166857Y-89758380D01*
X129309714Y-89806000D01*
X129357333Y-89853619D01*
X129690666Y-89758380D02*
X130309714Y-89758380D01*
X129976380Y-90139333D01*
X130119238Y-90139333D01*
X130214476Y-90186952D01*
X130262095Y-90234571D01*
X130309714Y-90329809D01*
X130309714Y-90567904D01*
X130262095Y-90663142D01*
X130214476Y-90710761D01*
X130119238Y-90758380D01*
X129833523Y-90758380D01*
X129738285Y-90710761D01*
X129690666Y-90663142D01*
%TO.C,R3*%
X105750453Y-125352680D02*
X105417120Y-124876490D01*
X105179024Y-125352680D02*
X105179024Y-124352680D01*
X105559977Y-124352680D01*
X105655215Y-124400300D01*
X105702834Y-124447919D01*
X105750453Y-124543157D01*
X105750453Y-124686014D01*
X105702834Y-124781252D01*
X105655215Y-124828871D01*
X105559977Y-124876490D01*
X105179024Y-124876490D01*
X106083786Y-124352680D02*
X106702834Y-124352680D01*
X106369500Y-124733633D01*
X106512358Y-124733633D01*
X106607596Y-124781252D01*
X106655215Y-124828871D01*
X106702834Y-124924109D01*
X106702834Y-125162204D01*
X106655215Y-125257442D01*
X106607596Y-125305061D01*
X106512358Y-125352680D01*
X106226643Y-125352680D01*
X106131405Y-125305061D01*
X106083786Y-125257442D01*
%TO.C,D1*%
X80687064Y-67648380D02*
X80687064Y-66648380D01*
X80925160Y-66648380D01*
X81068017Y-66696000D01*
X81163255Y-66791238D01*
X81210874Y-66886476D01*
X81258493Y-67076952D01*
X81258493Y-67219809D01*
X81210874Y-67410285D01*
X81163255Y-67505523D01*
X81068017Y-67600761D01*
X80925160Y-67648380D01*
X80687064Y-67648380D01*
X82210874Y-67648380D02*
X81639445Y-67648380D01*
X81925160Y-67648380D02*
X81925160Y-66648380D01*
X81829921Y-66791238D01*
X81734683Y-66886476D01*
X81639445Y-66934095D01*
%TO.C,R2*%
X139477333Y-67872380D02*
X139144000Y-67396190D01*
X138905904Y-67872380D02*
X138905904Y-66872380D01*
X139286857Y-66872380D01*
X139382095Y-66920000D01*
X139429714Y-66967619D01*
X139477333Y-67062857D01*
X139477333Y-67205714D01*
X139429714Y-67300952D01*
X139382095Y-67348571D01*
X139286857Y-67396190D01*
X138905904Y-67396190D01*
X139858285Y-66967619D02*
X139905904Y-66920000D01*
X140001142Y-66872380D01*
X140239238Y-66872380D01*
X140334476Y-66920000D01*
X140382095Y-66967619D01*
X140429714Y-67062857D01*
X140429714Y-67158095D01*
X140382095Y-67300952D01*
X139810666Y-67872380D01*
X140429714Y-67872380D01*
%TO.C,Vout*%
X142692190Y-95386380D02*
X143025523Y-96386380D01*
X143358857Y-95386380D01*
X143835047Y-96386380D02*
X143739809Y-96338761D01*
X143692190Y-96291142D01*
X143644571Y-96195904D01*
X143644571Y-95910190D01*
X143692190Y-95814952D01*
X143739809Y-95767333D01*
X143835047Y-95719714D01*
X143977904Y-95719714D01*
X144073142Y-95767333D01*
X144120761Y-95814952D01*
X144168380Y-95910190D01*
X144168380Y-96195904D01*
X144120761Y-96291142D01*
X144073142Y-96338761D01*
X143977904Y-96386380D01*
X143835047Y-96386380D01*
X145025523Y-95719714D02*
X145025523Y-96386380D01*
X144596952Y-95719714D02*
X144596952Y-96243523D01*
X144644571Y-96338761D01*
X144739809Y-96386380D01*
X144882666Y-96386380D01*
X144977904Y-96338761D01*
X145025523Y-96291142D01*
X145358857Y-95719714D02*
X145739809Y-95719714D01*
X145501714Y-95386380D02*
X145501714Y-96243523D01*
X145549333Y-96338761D01*
X145644571Y-96386380D01*
X145739809Y-96386380D01*
X61825450Y-117360060D02*
X62158783Y-118360060D01*
X62492117Y-117360060D01*
X62968307Y-118360060D02*
X62873069Y-118312441D01*
X62825450Y-118264822D01*
X62777831Y-118169584D01*
X62777831Y-117883870D01*
X62825450Y-117788632D01*
X62873069Y-117741013D01*
X62968307Y-117693394D01*
X63111164Y-117693394D01*
X63206402Y-117741013D01*
X63254021Y-117788632D01*
X63301640Y-117883870D01*
X63301640Y-118169584D01*
X63254021Y-118264822D01*
X63206402Y-118312441D01*
X63111164Y-118360060D01*
X62968307Y-118360060D01*
X64158783Y-117693394D02*
X64158783Y-118360060D01*
X63730212Y-117693394D02*
X63730212Y-118217203D01*
X63777831Y-118312441D01*
X63873069Y-118360060D01*
X64015926Y-118360060D01*
X64111164Y-118312441D01*
X64158783Y-118264822D01*
X64492117Y-117693394D02*
X64873069Y-117693394D01*
X64634974Y-117360060D02*
X64634974Y-118217203D01*
X64682593Y-118312441D01*
X64777831Y-118360060D01*
X64873069Y-118360060D01*
%TO.C,C2*%
X146081333Y-82829142D02*
X146033714Y-82876761D01*
X145890857Y-82924380D01*
X145795619Y-82924380D01*
X145652761Y-82876761D01*
X145557523Y-82781523D01*
X145509904Y-82686285D01*
X145462285Y-82495809D01*
X145462285Y-82352952D01*
X145509904Y-82162476D01*
X145557523Y-82067238D01*
X145652761Y-81972000D01*
X145795619Y-81924380D01*
X145890857Y-81924380D01*
X146033714Y-81972000D01*
X146081333Y-82019619D01*
X146462285Y-82019619D02*
X146509904Y-81972000D01*
X146605142Y-81924380D01*
X146843238Y-81924380D01*
X146938476Y-81972000D01*
X146986095Y-82019619D01*
X147033714Y-82114857D01*
X147033714Y-82210095D01*
X146986095Y-82352952D01*
X146414666Y-82924380D01*
X147033714Y-82924380D01*
%TO.C,L1*%
X140604380Y-80098666D02*
X140604380Y-80574857D01*
X139604380Y-80574857D01*
X140604380Y-79241523D02*
X140604380Y-79812952D01*
X140604380Y-79527238D02*
X139604380Y-79527238D01*
X139747238Y-79622476D01*
X139842476Y-79717714D01*
X139890095Y-79812952D01*
%TO.C,L2*%
X138064380Y-87718666D02*
X138064380Y-88194857D01*
X137064380Y-88194857D01*
X137159619Y-87432952D02*
X137112000Y-87385333D01*
X137064380Y-87290095D01*
X137064380Y-87052000D01*
X137112000Y-86956761D01*
X137159619Y-86909142D01*
X137254857Y-86861523D01*
X137350095Y-86861523D01*
X137492952Y-86909142D01*
X138064380Y-87480571D01*
X138064380Y-86861523D01*
%TO.C,R1*%
X106343333Y-55050380D02*
X106010000Y-54574190D01*
X105771904Y-55050380D02*
X105771904Y-54050380D01*
X106152857Y-54050380D01*
X106248095Y-54098000D01*
X106295714Y-54145619D01*
X106343333Y-54240857D01*
X106343333Y-54383714D01*
X106295714Y-54478952D01*
X106248095Y-54526571D01*
X106152857Y-54574190D01*
X105771904Y-54574190D01*
X107295714Y-55050380D02*
X106724285Y-55050380D01*
X107010000Y-55050380D02*
X107010000Y-54050380D01*
X106914761Y-54193238D01*
X106819523Y-54288476D01*
X106724285Y-54336095D01*
%TO.C,C3*%
X77641333Y-40985142D02*
X77593714Y-41032761D01*
X77450857Y-41080380D01*
X77355619Y-41080380D01*
X77212761Y-41032761D01*
X77117523Y-40937523D01*
X77069904Y-40842285D01*
X77022285Y-40651809D01*
X77022285Y-40508952D01*
X77069904Y-40318476D01*
X77117523Y-40223238D01*
X77212761Y-40128000D01*
X77355619Y-40080380D01*
X77450857Y-40080380D01*
X77593714Y-40128000D01*
X77641333Y-40175619D01*
X77974666Y-40080380D02*
X78593714Y-40080380D01*
X78260380Y-40461333D01*
X78403238Y-40461333D01*
X78498476Y-40508952D01*
X78546095Y-40556571D01*
X78593714Y-40651809D01*
X78593714Y-40889904D01*
X78546095Y-40985142D01*
X78498476Y-41032761D01*
X78403238Y-41080380D01*
X78117523Y-41080380D01*
X78022285Y-41032761D01*
X77974666Y-40985142D01*
%TO.C,R3*%
X106343333Y-57844380D02*
X106010000Y-57368190D01*
X105771904Y-57844380D02*
X105771904Y-56844380D01*
X106152857Y-56844380D01*
X106248095Y-56892000D01*
X106295714Y-56939619D01*
X106343333Y-57034857D01*
X106343333Y-57177714D01*
X106295714Y-57272952D01*
X106248095Y-57320571D01*
X106152857Y-57368190D01*
X105771904Y-57368190D01*
X106676666Y-56844380D02*
X107295714Y-56844380D01*
X106962380Y-57225333D01*
X107105238Y-57225333D01*
X107200476Y-57272952D01*
X107248095Y-57320571D01*
X107295714Y-57415809D01*
X107295714Y-57653904D01*
X107248095Y-57749142D01*
X107200476Y-57796761D01*
X107105238Y-57844380D01*
X106819523Y-57844380D01*
X106724285Y-57796761D01*
X106676666Y-57749142D01*
%TO.C,C2*%
X88228253Y-85025802D02*
X88180634Y-85073421D01*
X88037777Y-85121040D01*
X87942539Y-85121040D01*
X87799681Y-85073421D01*
X87704443Y-84978183D01*
X87656824Y-84882945D01*
X87609205Y-84692469D01*
X87609205Y-84549612D01*
X87656824Y-84359136D01*
X87704443Y-84263898D01*
X87799681Y-84168660D01*
X87942539Y-84121040D01*
X88037777Y-84121040D01*
X88180634Y-84168660D01*
X88228253Y-84216279D01*
X88609205Y-84216279D02*
X88656824Y-84168660D01*
X88752062Y-84121040D01*
X88990158Y-84121040D01*
X89085396Y-84168660D01*
X89133015Y-84216279D01*
X89180634Y-84311517D01*
X89180634Y-84406755D01*
X89133015Y-84549612D01*
X88561586Y-85121040D01*
X89180634Y-85121040D01*
%TO.C,R2*%
X99562300Y-108153106D02*
X99086110Y-108486440D01*
X99562300Y-108724535D02*
X98562300Y-108724535D01*
X98562300Y-108343582D01*
X98609920Y-108248344D01*
X98657539Y-108200725D01*
X98752777Y-108153106D01*
X98895634Y-108153106D01*
X98990872Y-108200725D01*
X99038491Y-108248344D01*
X99086110Y-108343582D01*
X99086110Y-108724535D01*
X98657539Y-107772154D02*
X98609920Y-107724535D01*
X98562300Y-107629297D01*
X98562300Y-107391201D01*
X98609920Y-107295963D01*
X98657539Y-107248344D01*
X98752777Y-107200725D01*
X98848015Y-107200725D01*
X98990872Y-107248344D01*
X99562300Y-107819773D01*
X99562300Y-107200725D01*
%TO.C,C6*%
X106089333Y-53431142D02*
X106041714Y-53478761D01*
X105898857Y-53526380D01*
X105803619Y-53526380D01*
X105660761Y-53478761D01*
X105565523Y-53383523D01*
X105517904Y-53288285D01*
X105470285Y-53097809D01*
X105470285Y-52954952D01*
X105517904Y-52764476D01*
X105565523Y-52669238D01*
X105660761Y-52574000D01*
X105803619Y-52526380D01*
X105898857Y-52526380D01*
X106041714Y-52574000D01*
X106089333Y-52621619D01*
X106946476Y-52526380D02*
X106756000Y-52526380D01*
X106660761Y-52574000D01*
X106613142Y-52621619D01*
X106517904Y-52764476D01*
X106470285Y-52954952D01*
X106470285Y-53335904D01*
X106517904Y-53431142D01*
X106565523Y-53478761D01*
X106660761Y-53526380D01*
X106851238Y-53526380D01*
X106946476Y-53478761D01*
X106994095Y-53431142D01*
X107041714Y-53335904D01*
X107041714Y-53097809D01*
X106994095Y-53002571D01*
X106946476Y-52954952D01*
X106851238Y-52907333D01*
X106660761Y-52907333D01*
X106565523Y-52954952D01*
X106517904Y-53002571D01*
X106470285Y-53097809D01*
%TO.C,C1*%
X117011333Y-41493142D02*
X116963714Y-41540761D01*
X116820857Y-41588380D01*
X116725619Y-41588380D01*
X116582761Y-41540761D01*
X116487523Y-41445523D01*
X116439904Y-41350285D01*
X116392285Y-41159809D01*
X116392285Y-41016952D01*
X116439904Y-40826476D01*
X116487523Y-40731238D01*
X116582761Y-40636000D01*
X116725619Y-40588380D01*
X116820857Y-40588380D01*
X116963714Y-40636000D01*
X117011333Y-40683619D01*
X117963714Y-41588380D02*
X117392285Y-41588380D01*
X117678000Y-41588380D02*
X117678000Y-40588380D01*
X117582761Y-40731238D01*
X117487523Y-40826476D01*
X117392285Y-40874095D01*
%TO.C,Vin*%
X120022380Y-39111809D02*
X121022380Y-38778476D01*
X120022380Y-38445142D01*
X121022380Y-38111809D02*
X120355714Y-38111809D01*
X120022380Y-38111809D02*
X120070000Y-38159428D01*
X120117619Y-38111809D01*
X120070000Y-38064190D01*
X120022380Y-38111809D01*
X120117619Y-38111809D01*
X120355714Y-37635619D02*
X121022380Y-37635619D01*
X120450952Y-37635619D02*
X120403333Y-37588000D01*
X120355714Y-37492761D01*
X120355714Y-37349904D01*
X120403333Y-37254666D01*
X120498571Y-37207047D01*
X121022380Y-37207047D01*
%TO.C,L1*%
X65467880Y-124317666D02*
X65467880Y-124793857D01*
X64467880Y-124793857D01*
X65467880Y-123460523D02*
X65467880Y-124031952D01*
X65467880Y-123746238D02*
X64467880Y-123746238D01*
X64610738Y-123841476D01*
X64705976Y-123936714D01*
X64753595Y-124031952D01*
%TO.C,C3*%
X76739142Y-108061666D02*
X76786761Y-108109285D01*
X76834380Y-108252142D01*
X76834380Y-108347380D01*
X76786761Y-108490238D01*
X76691523Y-108585476D01*
X76596285Y-108633095D01*
X76405809Y-108680714D01*
X76262952Y-108680714D01*
X76072476Y-108633095D01*
X75977238Y-108585476D01*
X75882000Y-108490238D01*
X75834380Y-108347380D01*
X75834380Y-108252142D01*
X75882000Y-108109285D01*
X75929619Y-108061666D01*
X75834380Y-107728333D02*
X75834380Y-107109285D01*
X76215333Y-107442619D01*
X76215333Y-107299761D01*
X76262952Y-107204523D01*
X76310571Y-107156904D01*
X76405809Y-107109285D01*
X76643904Y-107109285D01*
X76739142Y-107156904D01*
X76786761Y-107204523D01*
X76834380Y-107299761D01*
X76834380Y-107585476D01*
X76786761Y-107680714D01*
X76739142Y-107728333D01*
%TO.C,Vin*%
X113783310Y-113773580D02*
X114116643Y-114773580D01*
X114449977Y-113773580D01*
X114783310Y-114773580D02*
X114783310Y-114106914D01*
X114783310Y-113773580D02*
X114735691Y-113821200D01*
X114783310Y-113868819D01*
X114830929Y-113821200D01*
X114783310Y-113773580D01*
X114783310Y-113868819D01*
X115259500Y-114106914D02*
X115259500Y-114773580D01*
X115259500Y-114202152D02*
X115307120Y-114154533D01*
X115402358Y-114106914D01*
X115545215Y-114106914D01*
X115640453Y-114154533D01*
X115688072Y-114249771D01*
X115688072Y-114773580D01*
%TO.C,R2*%
X94562300Y-67708106D02*
X94086110Y-68041440D01*
X94562300Y-68279535D02*
X93562300Y-68279535D01*
X93562300Y-67898582D01*
X93609920Y-67803344D01*
X93657539Y-67755725D01*
X93752777Y-67708106D01*
X93895634Y-67708106D01*
X93990872Y-67755725D01*
X94038491Y-67803344D01*
X94086110Y-67898582D01*
X94086110Y-68279535D01*
X93657539Y-67327154D02*
X93609920Y-67279535D01*
X93562300Y-67184297D01*
X93562300Y-66946201D01*
X93609920Y-66850963D01*
X93657539Y-66803344D01*
X93752777Y-66755725D01*
X93848015Y-66755725D01*
X93990872Y-66803344D01*
X94562300Y-67374773D01*
X94562300Y-66755725D01*
%TO.C,U1*%
X150780380Y-75613904D02*
X151589904Y-75613904D01*
X151685142Y-75566285D01*
X151732761Y-75518666D01*
X151780380Y-75423428D01*
X151780380Y-75232952D01*
X151732761Y-75137714D01*
X151685142Y-75090095D01*
X151589904Y-75042476D01*
X150780380Y-75042476D01*
X151780380Y-74042476D02*
X151780380Y-74613904D01*
X151780380Y-74328190D02*
X150780380Y-74328190D01*
X150923238Y-74423428D01*
X151018476Y-74518666D01*
X151066095Y-74613904D01*
%TO.C,L1*%
X88817333Y-54288380D02*
X88341142Y-54288380D01*
X88341142Y-53288380D01*
X89674476Y-54288380D02*
X89103047Y-54288380D01*
X89388761Y-54288380D02*
X89388761Y-53288380D01*
X89293523Y-53431238D01*
X89198285Y-53526476D01*
X89103047Y-53574095D01*
%TO.C,C4*%
X67125733Y-48300342D02*
X67078114Y-48347961D01*
X66935257Y-48395580D01*
X66840019Y-48395580D01*
X66697161Y-48347961D01*
X66601923Y-48252723D01*
X66554304Y-48157485D01*
X66506685Y-47967009D01*
X66506685Y-47824152D01*
X66554304Y-47633676D01*
X66601923Y-47538438D01*
X66697161Y-47443200D01*
X66840019Y-47395580D01*
X66935257Y-47395580D01*
X67078114Y-47443200D01*
X67125733Y-47490819D01*
X67982876Y-47728914D02*
X67982876Y-48395580D01*
X67744780Y-47347961D02*
X67506685Y-48062247D01*
X68125733Y-48062247D01*
%TO.C,Vin*%
X108783310Y-73328580D02*
X109116643Y-74328580D01*
X109449977Y-73328580D01*
X109783310Y-74328580D02*
X109783310Y-73661914D01*
X109783310Y-73328580D02*
X109735691Y-73376200D01*
X109783310Y-73423819D01*
X109830929Y-73376200D01*
X109783310Y-73328580D01*
X109783310Y-73423819D01*
X110259500Y-73661914D02*
X110259500Y-74328580D01*
X110259500Y-73757152D02*
X110307120Y-73709533D01*
X110402358Y-73661914D01*
X110545215Y-73661914D01*
X110640453Y-73709533D01*
X110688072Y-73804771D01*
X110688072Y-74328580D01*
%TO.C,C2*%
X93228253Y-125470802D02*
X93180634Y-125518421D01*
X93037777Y-125566040D01*
X92942539Y-125566040D01*
X92799681Y-125518421D01*
X92704443Y-125423183D01*
X92656824Y-125327945D01*
X92609205Y-125137469D01*
X92609205Y-124994612D01*
X92656824Y-124804136D01*
X92704443Y-124708898D01*
X92799681Y-124613660D01*
X92942539Y-124566040D01*
X93037777Y-124566040D01*
X93180634Y-124613660D01*
X93228253Y-124661279D01*
X93609205Y-124661279D02*
X93656824Y-124613660D01*
X93752062Y-124566040D01*
X93990158Y-124566040D01*
X94085396Y-124613660D01*
X94133015Y-124661279D01*
X94180634Y-124756517D01*
X94180634Y-124851755D01*
X94133015Y-124994612D01*
X93561586Y-125566040D01*
X94180634Y-125566040D01*
%TO.C,C4*%
X141509333Y-83337142D02*
X141461714Y-83384761D01*
X141318857Y-83432380D01*
X141223619Y-83432380D01*
X141080761Y-83384761D01*
X140985523Y-83289523D01*
X140937904Y-83194285D01*
X140890285Y-83003809D01*
X140890285Y-82860952D01*
X140937904Y-82670476D01*
X140985523Y-82575238D01*
X141080761Y-82480000D01*
X141223619Y-82432380D01*
X141318857Y-82432380D01*
X141461714Y-82480000D01*
X141509333Y-82527619D01*
X142366476Y-82765714D02*
X142366476Y-83432380D01*
X142128380Y-82384761D02*
X141890285Y-83099047D01*
X142509333Y-83099047D01*
%TO.C,Vout*%
X62771390Y-42315580D02*
X63104723Y-43315580D01*
X63438057Y-42315580D01*
X63914247Y-43315580D02*
X63819009Y-43267961D01*
X63771390Y-43220342D01*
X63723771Y-43125104D01*
X63723771Y-42839390D01*
X63771390Y-42744152D01*
X63819009Y-42696533D01*
X63914247Y-42648914D01*
X64057104Y-42648914D01*
X64152342Y-42696533D01*
X64199961Y-42744152D01*
X64247580Y-42839390D01*
X64247580Y-43125104D01*
X64199961Y-43220342D01*
X64152342Y-43267961D01*
X64057104Y-43315580D01*
X63914247Y-43315580D01*
X65104723Y-42648914D02*
X65104723Y-43315580D01*
X64676152Y-42648914D02*
X64676152Y-43172723D01*
X64723771Y-43267961D01*
X64819009Y-43315580D01*
X64961866Y-43315580D01*
X65057104Y-43267961D01*
X65104723Y-43220342D01*
X65438057Y-42648914D02*
X65819009Y-42648914D01*
X65580914Y-42315580D02*
X65580914Y-43172723D01*
X65628533Y-43267961D01*
X65723771Y-43315580D01*
X65819009Y-43315580D01*
%TO.C,C1*%
X133889333Y-67589142D02*
X133841714Y-67636761D01*
X133698857Y-67684380D01*
X133603619Y-67684380D01*
X133460761Y-67636761D01*
X133365523Y-67541523D01*
X133317904Y-67446285D01*
X133270285Y-67255809D01*
X133270285Y-67112952D01*
X133317904Y-66922476D01*
X133365523Y-66827238D01*
X133460761Y-66732000D01*
X133603619Y-66684380D01*
X133698857Y-66684380D01*
X133841714Y-66732000D01*
X133889333Y-66779619D01*
X134841714Y-67684380D02*
X134270285Y-67684380D01*
X134556000Y-67684380D02*
X134556000Y-66684380D01*
X134460761Y-66827238D01*
X134365523Y-66922476D01*
X134270285Y-66970095D01*
%TO.C,U1*%
X98151880Y-48120904D02*
X98961404Y-48120904D01*
X99056642Y-48073285D01*
X99104261Y-48025666D01*
X99151880Y-47930428D01*
X99151880Y-47739952D01*
X99104261Y-47644714D01*
X99056642Y-47597095D01*
X98961404Y-47549476D01*
X98151880Y-47549476D01*
X99151880Y-46549476D02*
X99151880Y-47120904D01*
X99151880Y-46835190D02*
X98151880Y-46835190D01*
X98294738Y-46930428D01*
X98389976Y-47025666D01*
X98437595Y-47120904D01*
%TO.C,C5*%
X158797142Y-82384666D02*
X158844761Y-82432285D01*
X158892380Y-82575142D01*
X158892380Y-82670380D01*
X158844761Y-82813238D01*
X158749523Y-82908476D01*
X158654285Y-82956095D01*
X158463809Y-83003714D01*
X158320952Y-83003714D01*
X158130476Y-82956095D01*
X158035238Y-82908476D01*
X157940000Y-82813238D01*
X157892380Y-82670380D01*
X157892380Y-82575142D01*
X157940000Y-82432285D01*
X157987619Y-82384666D01*
X157892380Y-81479904D02*
X157892380Y-81956095D01*
X158368571Y-82003714D01*
X158320952Y-81956095D01*
X158273333Y-81860857D01*
X158273333Y-81622761D01*
X158320952Y-81527523D01*
X158368571Y-81479904D01*
X158463809Y-81432285D01*
X158701904Y-81432285D01*
X158797142Y-81479904D01*
X158844761Y-81527523D01*
X158892380Y-81622761D01*
X158892380Y-81860857D01*
X158844761Y-81956095D01*
X158797142Y-82003714D01*
%TO.C,L2*%
X77577833Y-55050380D02*
X77101642Y-55050380D01*
X77101642Y-54050380D01*
X77863547Y-54145619D02*
X77911166Y-54098000D01*
X78006404Y-54050380D01*
X78244500Y-54050380D01*
X78339738Y-54098000D01*
X78387357Y-54145619D01*
X78434976Y-54240857D01*
X78434976Y-54336095D01*
X78387357Y-54478952D01*
X77815928Y-55050380D01*
X78434976Y-55050380D01*
%TO.C,U1*%
X94300180Y-118385104D02*
X95109704Y-118385104D01*
X95204942Y-118337485D01*
X95252561Y-118289866D01*
X95300180Y-118194628D01*
X95300180Y-118004152D01*
X95252561Y-117908914D01*
X95204942Y-117861295D01*
X95109704Y-117813676D01*
X94300180Y-117813676D01*
X95300180Y-116813676D02*
X95300180Y-117385104D01*
X95300180Y-117099390D02*
X94300180Y-117099390D01*
X94443038Y-117194628D01*
X94538276Y-117289866D01*
X94585895Y-117385104D01*
%TO.C,C3*%
X67593293Y-73143682D02*
X67545674Y-73191301D01*
X67402817Y-73238920D01*
X67307579Y-73238920D01*
X67164721Y-73191301D01*
X67069483Y-73096063D01*
X67021864Y-73000825D01*
X66974245Y-72810349D01*
X66974245Y-72667492D01*
X67021864Y-72477016D01*
X67069483Y-72381778D01*
X67164721Y-72286540D01*
X67307579Y-72238920D01*
X67402817Y-72238920D01*
X67545674Y-72286540D01*
X67593293Y-72334159D01*
X67926626Y-72238920D02*
X68545674Y-72238920D01*
X68212340Y-72619873D01*
X68355198Y-72619873D01*
X68450436Y-72667492D01*
X68498055Y-72715111D01*
X68545674Y-72810349D01*
X68545674Y-73048444D01*
X68498055Y-73143682D01*
X68450436Y-73191301D01*
X68355198Y-73238920D01*
X68069483Y-73238920D01*
X67974245Y-73191301D01*
X67926626Y-73143682D01*
%TO.C,GND*%
X149804095Y-95434000D02*
X149708857Y-95386380D01*
X149566000Y-95386380D01*
X149423142Y-95434000D01*
X149327904Y-95529238D01*
X149280285Y-95624476D01*
X149232666Y-95814952D01*
X149232666Y-95957809D01*
X149280285Y-96148285D01*
X149327904Y-96243523D01*
X149423142Y-96338761D01*
X149566000Y-96386380D01*
X149661238Y-96386380D01*
X149804095Y-96338761D01*
X149851714Y-96291142D01*
X149851714Y-95957809D01*
X149661238Y-95957809D01*
X150280285Y-96386380D02*
X150280285Y-95386380D01*
X150851714Y-96386380D01*
X150851714Y-95386380D01*
X151327904Y-96386380D02*
X151327904Y-95386380D01*
X151566000Y-95386380D01*
X151708857Y-95434000D01*
X151804095Y-95529238D01*
X151851714Y-95624476D01*
X151899333Y-95814952D01*
X151899333Y-95957809D01*
X151851714Y-96148285D01*
X151804095Y-96243523D01*
X151708857Y-96338761D01*
X151566000Y-96386380D01*
X151327904Y-96386380D01*
%TO.C,U1*%
X89300180Y-77940104D02*
X90109704Y-77940104D01*
X90204942Y-77892485D01*
X90252561Y-77844866D01*
X90300180Y-77749628D01*
X90300180Y-77559152D01*
X90252561Y-77463914D01*
X90204942Y-77416295D01*
X90109704Y-77368676D01*
X89300180Y-77368676D01*
X90300180Y-76368676D02*
X90300180Y-76940104D01*
X90300180Y-76654390D02*
X89300180Y-76654390D01*
X89443038Y-76749628D01*
X89538276Y-76844866D01*
X89585895Y-76940104D01*
%TO.C,GND*%
X65531500Y-108974404D02*
X65483880Y-109069642D01*
X65483880Y-109212500D01*
X65531500Y-109355357D01*
X65626738Y-109450595D01*
X65721976Y-109498214D01*
X65912452Y-109545833D01*
X66055309Y-109545833D01*
X66245785Y-109498214D01*
X66341023Y-109450595D01*
X66436261Y-109355357D01*
X66483880Y-109212500D01*
X66483880Y-109117261D01*
X66436261Y-108974404D01*
X66388642Y-108926785D01*
X66055309Y-108926785D01*
X66055309Y-109117261D01*
X66483880Y-108498214D02*
X65483880Y-108498214D01*
X66483880Y-107926785D01*
X65483880Y-107926785D01*
X66483880Y-107450595D02*
X65483880Y-107450595D01*
X65483880Y-107212500D01*
X65531500Y-107069642D01*
X65626738Y-106974404D01*
X65721976Y-106926785D01*
X65912452Y-106879166D01*
X66055309Y-106879166D01*
X66245785Y-106926785D01*
X66341023Y-106974404D01*
X66436261Y-107069642D01*
X66483880Y-107212500D01*
X66483880Y-107450595D01*
%TO.C,C5*%
X102533333Y-59781142D02*
X102485714Y-59828761D01*
X102342857Y-59876380D01*
X102247619Y-59876380D01*
X102104761Y-59828761D01*
X102009523Y-59733523D01*
X101961904Y-59638285D01*
X101914285Y-59447809D01*
X101914285Y-59304952D01*
X101961904Y-59114476D01*
X102009523Y-59019238D01*
X102104761Y-58924000D01*
X102247619Y-58876380D01*
X102342857Y-58876380D01*
X102485714Y-58924000D01*
X102533333Y-58971619D01*
X103438095Y-58876380D02*
X102961904Y-58876380D01*
X102914285Y-59352571D01*
X102961904Y-59304952D01*
X103057142Y-59257333D01*
X103295238Y-59257333D01*
X103390476Y-59304952D01*
X103438095Y-59352571D01*
X103485714Y-59447809D01*
X103485714Y-59685904D01*
X103438095Y-59781142D01*
X103390476Y-59828761D01*
X103295238Y-59876380D01*
X103057142Y-59876380D01*
X102961904Y-59828761D01*
X102914285Y-59781142D01*
%TO.C,Vin*%
X116776190Y-67700380D02*
X117109523Y-68700380D01*
X117442857Y-67700380D01*
X117776190Y-68700380D02*
X117776190Y-68033714D01*
X117776190Y-67700380D02*
X117728571Y-67748000D01*
X117776190Y-67795619D01*
X117823809Y-67748000D01*
X117776190Y-67700380D01*
X117776190Y-67795619D01*
X118252380Y-68033714D02*
X118252380Y-68700380D01*
X118252380Y-68128952D02*
X118300000Y-68081333D01*
X118395238Y-68033714D01*
X118538095Y-68033714D01*
X118633333Y-68081333D01*
X118680952Y-68176571D01*
X118680952Y-68700380D01*
%TO.C,D1*%
X92817904Y-41334380D02*
X92817904Y-40334380D01*
X93056000Y-40334380D01*
X93198857Y-40382000D01*
X93294095Y-40477238D01*
X93341714Y-40572476D01*
X93389333Y-40762952D01*
X93389333Y-40905809D01*
X93341714Y-41096285D01*
X93294095Y-41191523D01*
X93198857Y-41286761D01*
X93056000Y-41334380D01*
X92817904Y-41334380D01*
X94341714Y-41334380D02*
X93770285Y-41334380D01*
X94056000Y-41334380D02*
X94056000Y-40334380D01*
X93960761Y-40477238D01*
X93865523Y-40572476D01*
X93770285Y-40620095D01*
%TO.C,C2*%
X97199333Y-56479142D02*
X97151714Y-56526761D01*
X97008857Y-56574380D01*
X96913619Y-56574380D01*
X96770761Y-56526761D01*
X96675523Y-56431523D01*
X96627904Y-56336285D01*
X96580285Y-56145809D01*
X96580285Y-56002952D01*
X96627904Y-55812476D01*
X96675523Y-55717238D01*
X96770761Y-55622000D01*
X96913619Y-55574380D01*
X97008857Y-55574380D01*
X97151714Y-55622000D01*
X97199333Y-55669619D01*
X97580285Y-55669619D02*
X97627904Y-55622000D01*
X97723142Y-55574380D01*
X97961238Y-55574380D01*
X98056476Y-55622000D01*
X98104095Y-55669619D01*
X98151714Y-55764857D01*
X98151714Y-55860095D01*
X98104095Y-56002952D01*
X97532666Y-56574380D01*
X98151714Y-56574380D01*
%TO.C,GND*%
X111817635Y-107120680D02*
X111722397Y-107073060D01*
X111579540Y-107073060D01*
X111436682Y-107120680D01*
X111341444Y-107215918D01*
X111293825Y-107311156D01*
X111246206Y-107501632D01*
X111246206Y-107644489D01*
X111293825Y-107834965D01*
X111341444Y-107930203D01*
X111436682Y-108025441D01*
X111579540Y-108073060D01*
X111674778Y-108073060D01*
X111817635Y-108025441D01*
X111865254Y-107977822D01*
X111865254Y-107644489D01*
X111674778Y-107644489D01*
X112293825Y-108073060D02*
X112293825Y-107073060D01*
X112865254Y-108073060D01*
X112865254Y-107073060D01*
X113341444Y-108073060D02*
X113341444Y-107073060D01*
X113579540Y-107073060D01*
X113722397Y-107120680D01*
X113817635Y-107215918D01*
X113865254Y-107311156D01*
X113912873Y-107501632D01*
X113912873Y-107644489D01*
X113865254Y-107834965D01*
X113817635Y-107930203D01*
X113722397Y-108025441D01*
X113579540Y-108073060D01*
X113341444Y-108073060D01*
%TO.C,D1*%
X85687064Y-108093380D02*
X85687064Y-107093380D01*
X85925160Y-107093380D01*
X86068017Y-107141000D01*
X86163255Y-107236238D01*
X86210874Y-107331476D01*
X86258493Y-107521952D01*
X86258493Y-107664809D01*
X86210874Y-107855285D01*
X86163255Y-107950523D01*
X86068017Y-108045761D01*
X85925160Y-108093380D01*
X85687064Y-108093380D01*
X87210874Y-108093380D02*
X86639445Y-108093380D01*
X86925160Y-108093380D02*
X86925160Y-107093380D01*
X86829921Y-107236238D01*
X86734683Y-107331476D01*
X86639445Y-107379095D01*
%TO.C,L1*%
X79058140Y-76681926D02*
X79058140Y-77158117D01*
X78058140Y-77158117D01*
X79058140Y-75824783D02*
X79058140Y-76396212D01*
X79058140Y-76110498D02*
X78058140Y-76110498D01*
X78200998Y-76205736D01*
X78296236Y-76300974D01*
X78343855Y-76396212D01*
%TO.C,C1*%
X96429913Y-67898582D02*
X96382294Y-67946201D01*
X96239437Y-67993820D01*
X96144199Y-67993820D01*
X96001341Y-67946201D01*
X95906103Y-67850963D01*
X95858484Y-67755725D01*
X95810865Y-67565249D01*
X95810865Y-67422392D01*
X95858484Y-67231916D01*
X95906103Y-67136678D01*
X96001341Y-67041440D01*
X96144199Y-66993820D01*
X96239437Y-66993820D01*
X96382294Y-67041440D01*
X96429913Y-67089059D01*
X97382294Y-67993820D02*
X96810865Y-67993820D01*
X97096580Y-67993820D02*
X97096580Y-66993820D01*
X97001341Y-67136678D01*
X96906103Y-67231916D01*
X96810865Y-67279535D01*
%TO.C,R1*%
X157368380Y-88480666D02*
X156892190Y-88814000D01*
X157368380Y-89052095D02*
X156368380Y-89052095D01*
X156368380Y-88671142D01*
X156416000Y-88575904D01*
X156463619Y-88528285D01*
X156558857Y-88480666D01*
X156701714Y-88480666D01*
X156796952Y-88528285D01*
X156844571Y-88575904D01*
X156892190Y-88671142D01*
X156892190Y-89052095D01*
X157368380Y-87528285D02*
X157368380Y-88099714D01*
X157368380Y-87814000D02*
X156368380Y-87814000D01*
X156511238Y-87909238D01*
X156606476Y-88004476D01*
X156654095Y-88099714D01*
%TO.C,Vout*%
X62164530Y-83806080D02*
X62497863Y-84806080D01*
X62831197Y-83806080D01*
X63307387Y-84806080D02*
X63212149Y-84758461D01*
X63164530Y-84710842D01*
X63116911Y-84615604D01*
X63116911Y-84329890D01*
X63164530Y-84234652D01*
X63212149Y-84187033D01*
X63307387Y-84139414D01*
X63450244Y-84139414D01*
X63545482Y-84187033D01*
X63593101Y-84234652D01*
X63640720Y-84329890D01*
X63640720Y-84615604D01*
X63593101Y-84710842D01*
X63545482Y-84758461D01*
X63450244Y-84806080D01*
X63307387Y-84806080D01*
X64497863Y-84139414D02*
X64497863Y-84806080D01*
X64069292Y-84139414D02*
X64069292Y-84663223D01*
X64116911Y-84758461D01*
X64212149Y-84806080D01*
X64355006Y-84806080D01*
X64450244Y-84758461D01*
X64497863Y-84710842D01*
X64831197Y-84139414D02*
X65212149Y-84139414D01*
X64974054Y-83806080D02*
X64974054Y-84663223D01*
X65021673Y-84758461D01*
X65116911Y-84806080D01*
X65212149Y-84806080D01*
%TO.C,C3*%
X72593293Y-115326042D02*
X72545674Y-115373661D01*
X72402817Y-115421280D01*
X72307579Y-115421280D01*
X72164721Y-115373661D01*
X72069483Y-115278423D01*
X72021864Y-115183185D01*
X71974245Y-114992709D01*
X71974245Y-114849852D01*
X72021864Y-114659376D01*
X72069483Y-114564138D01*
X72164721Y-114468900D01*
X72307579Y-114421280D01*
X72402817Y-114421280D01*
X72545674Y-114468900D01*
X72593293Y-114516519D01*
X72926626Y-114421280D02*
X73545674Y-114421280D01*
X73212340Y-114802233D01*
X73355198Y-114802233D01*
X73450436Y-114849852D01*
X73498055Y-114897471D01*
X73545674Y-114992709D01*
X73545674Y-115230804D01*
X73498055Y-115326042D01*
X73450436Y-115373661D01*
X73355198Y-115421280D01*
X73069483Y-115421280D01*
X72974245Y-115373661D01*
X72926626Y-115326042D01*
%TO.C,R1*%
X100750453Y-81613300D02*
X100417120Y-81137110D01*
X100179024Y-81613300D02*
X100179024Y-80613300D01*
X100559977Y-80613300D01*
X100655215Y-80660920D01*
X100702834Y-80708539D01*
X100750453Y-80803777D01*
X100750453Y-80946634D01*
X100702834Y-81041872D01*
X100655215Y-81089491D01*
X100559977Y-81137110D01*
X100179024Y-81137110D01*
X101702834Y-81613300D02*
X101131405Y-81613300D01*
X101417120Y-81613300D02*
X101417120Y-80613300D01*
X101321881Y-80756158D01*
X101226643Y-80851396D01*
X101131405Y-80899015D01*
%TO.C,L1*%
X84058140Y-117126926D02*
X84058140Y-117603117D01*
X83058140Y-117603117D01*
X84058140Y-116269783D02*
X84058140Y-116841212D01*
X84058140Y-116555498D02*
X83058140Y-116555498D01*
X83200998Y-116650736D01*
X83296236Y-116745974D01*
X83343855Y-116841212D01*
%TO.C,GND*%
X63048355Y-72116360D02*
X62953117Y-72068740D01*
X62810260Y-72068740D01*
X62667402Y-72116360D01*
X62572164Y-72211598D01*
X62524545Y-72306836D01*
X62476926Y-72497312D01*
X62476926Y-72640169D01*
X62524545Y-72830645D01*
X62572164Y-72925883D01*
X62667402Y-73021121D01*
X62810260Y-73068740D01*
X62905498Y-73068740D01*
X63048355Y-73021121D01*
X63095974Y-72973502D01*
X63095974Y-72640169D01*
X62905498Y-72640169D01*
X63524545Y-73068740D02*
X63524545Y-72068740D01*
X64095974Y-73068740D01*
X64095974Y-72068740D01*
X64572164Y-73068740D02*
X64572164Y-72068740D01*
X64810260Y-72068740D01*
X64953117Y-72116360D01*
X65048355Y-72211598D01*
X65095974Y-72306836D01*
X65143593Y-72497312D01*
X65143593Y-72640169D01*
X65095974Y-72830645D01*
X65048355Y-72925883D01*
X64953117Y-73021121D01*
X64810260Y-73068740D01*
X64572164Y-73068740D01*
%TO.C,R3*%
X100750453Y-84907680D02*
X100417120Y-84431490D01*
X100179024Y-84907680D02*
X100179024Y-83907680D01*
X100559977Y-83907680D01*
X100655215Y-83955300D01*
X100702834Y-84002919D01*
X100750453Y-84098157D01*
X100750453Y-84241014D01*
X100702834Y-84336252D01*
X100655215Y-84383871D01*
X100559977Y-84431490D01*
X100179024Y-84431490D01*
X101083786Y-83907680D02*
X101702834Y-83907680D01*
X101369500Y-84288633D01*
X101512358Y-84288633D01*
X101607596Y-84336252D01*
X101655215Y-84383871D01*
X101702834Y-84479109D01*
X101702834Y-84717204D01*
X101655215Y-84812442D01*
X101607596Y-84860061D01*
X101512358Y-84907680D01*
X101226643Y-84907680D01*
X101131405Y-84860061D01*
X101083786Y-84812442D01*
%TO.C,C1*%
X101429913Y-108343582D02*
X101382294Y-108391201D01*
X101239437Y-108438820D01*
X101144199Y-108438820D01*
X101001341Y-108391201D01*
X100906103Y-108295963D01*
X100858484Y-108200725D01*
X100810865Y-108010249D01*
X100810865Y-107867392D01*
X100858484Y-107676916D01*
X100906103Y-107581678D01*
X101001341Y-107486440D01*
X101144199Y-107438820D01*
X101239437Y-107438820D01*
X101382294Y-107486440D01*
X101429913Y-107534059D01*
X102382294Y-108438820D02*
X101810865Y-108438820D01*
X102096580Y-108438820D02*
X102096580Y-107438820D01*
X102001341Y-107581678D01*
X101906103Y-107676916D01*
X101810865Y-107724535D01*
%TO.C,GND*%
X106817635Y-66675680D02*
X106722397Y-66628060D01*
X106579540Y-66628060D01*
X106436682Y-66675680D01*
X106341444Y-66770918D01*
X106293825Y-66866156D01*
X106246206Y-67056632D01*
X106246206Y-67199489D01*
X106293825Y-67389965D01*
X106341444Y-67485203D01*
X106436682Y-67580441D01*
X106579540Y-67628060D01*
X106674778Y-67628060D01*
X106817635Y-67580441D01*
X106865254Y-67532822D01*
X106865254Y-67199489D01*
X106674778Y-67199489D01*
X107293825Y-67628060D02*
X107293825Y-66628060D01*
X107865254Y-67628060D01*
X107865254Y-66628060D01*
X108341444Y-67628060D02*
X108341444Y-66628060D01*
X108579540Y-66628060D01*
X108722397Y-66675680D01*
X108817635Y-66770918D01*
X108865254Y-66866156D01*
X108912873Y-67056632D01*
X108912873Y-67199489D01*
X108865254Y-67389965D01*
X108817635Y-67485203D01*
X108722397Y-67580441D01*
X108579540Y-67628060D01*
X108341444Y-67628060D01*
%TO.C,R3*%
X154320380Y-89242666D02*
X153844190Y-89576000D01*
X154320380Y-89814095D02*
X153320380Y-89814095D01*
X153320380Y-89433142D01*
X153368000Y-89337904D01*
X153415619Y-89290285D01*
X153510857Y-89242666D01*
X153653714Y-89242666D01*
X153748952Y-89290285D01*
X153796571Y-89337904D01*
X153844190Y-89433142D01*
X153844190Y-89814095D01*
X153320380Y-88909333D02*
X153320380Y-88290285D01*
X153701333Y-88623619D01*
X153701333Y-88480761D01*
X153748952Y-88385523D01*
X153796571Y-88337904D01*
X153891809Y-88290285D01*
X154129904Y-88290285D01*
X154225142Y-88337904D01*
X154272761Y-88385523D01*
X154320380Y-88480761D01*
X154320380Y-88766476D01*
X154272761Y-88861714D01*
X154225142Y-88909333D01*
%TO.C,R2*%
X107613333Y-42604380D02*
X107280000Y-42128190D01*
X107041904Y-42604380D02*
X107041904Y-41604380D01*
X107422857Y-41604380D01*
X107518095Y-41652000D01*
X107565714Y-41699619D01*
X107613333Y-41794857D01*
X107613333Y-41937714D01*
X107565714Y-42032952D01*
X107518095Y-42080571D01*
X107422857Y-42128190D01*
X107041904Y-42128190D01*
X107994285Y-41699619D02*
X108041904Y-41652000D01*
X108137142Y-41604380D01*
X108375238Y-41604380D01*
X108470476Y-41652000D01*
X108518095Y-41699619D01*
X108565714Y-41794857D01*
X108565714Y-41890095D01*
X108518095Y-42032952D01*
X107946666Y-42604380D01*
X108565714Y-42604380D01*
%TO.C,GND*%
X118054095Y-74352000D02*
X117958857Y-74304380D01*
X117816000Y-74304380D01*
X117673142Y-74352000D01*
X117577904Y-74447238D01*
X117530285Y-74542476D01*
X117482666Y-74732952D01*
X117482666Y-74875809D01*
X117530285Y-75066285D01*
X117577904Y-75161523D01*
X117673142Y-75256761D01*
X117816000Y-75304380D01*
X117911238Y-75304380D01*
X118054095Y-75256761D01*
X118101714Y-75209142D01*
X118101714Y-74875809D01*
X117911238Y-74875809D01*
X118530285Y-75304380D02*
X118530285Y-74304380D01*
X119101714Y-75304380D01*
X119101714Y-74304380D01*
X119577904Y-75304380D02*
X119577904Y-74304380D01*
X119816000Y-74304380D01*
X119958857Y-74352000D01*
X120054095Y-74447238D01*
X120101714Y-74542476D01*
X120149333Y-74732952D01*
X120149333Y-74875809D01*
X120101714Y-75066285D01*
X120054095Y-75161523D01*
X119958857Y-75256761D01*
X119816000Y-75304380D01*
X119577904Y-75304380D01*
%TO.C,D1*%
X145684380Y-77622095D02*
X144684380Y-77622095D01*
X144684380Y-77384000D01*
X144732000Y-77241142D01*
X144827238Y-77145904D01*
X144922476Y-77098285D01*
X145112952Y-77050666D01*
X145255809Y-77050666D01*
X145446285Y-77098285D01*
X145541523Y-77145904D01*
X145636761Y-77241142D01*
X145684380Y-77384000D01*
X145684380Y-77622095D01*
X145684380Y-76098285D02*
X145684380Y-76669714D01*
X145684380Y-76384000D02*
X144684380Y-76384000D01*
X144827238Y-76479238D01*
X144922476Y-76574476D01*
X144970095Y-76669714D01*
D11*
%TO.C,R1*%
X108953800Y-121623700D02*
X107883800Y-121623700D01*
X104163800Y-122483700D02*
X107883800Y-122483700D01*
X107883800Y-122483700D02*
X107883800Y-120763700D01*
X107883800Y-120763700D02*
X104163800Y-120763700D01*
X103093800Y-121623700D02*
X104163800Y-121623700D01*
X104163800Y-120763700D02*
X104163800Y-122483700D01*
%TO.C,C3*%
X127883000Y-88775000D02*
X127883000Y-85177000D01*
X128083000Y-88839000D02*
X128083000Y-85177000D01*
X127923000Y-88788000D02*
X127923000Y-85177000D01*
X125323000Y-86832000D02*
X125323000Y-81160000D01*
X127643000Y-82815000D02*
X127643000Y-79305000D01*
X128323000Y-88903000D02*
X128323000Y-79089000D01*
X125363000Y-86890000D02*
X125363000Y-81102000D01*
X127443000Y-82815000D02*
X127443000Y-79390000D01*
X127723000Y-82815000D02*
X127723000Y-79274000D01*
X127283000Y-88527000D02*
X127283000Y-85177000D01*
X125883000Y-87514000D02*
X125883000Y-85177000D01*
X125403000Y-86945000D02*
X125403000Y-81047000D01*
X129124000Y-89031000D02*
X129124000Y-78961000D01*
X127523000Y-82815000D02*
X127523000Y-79355000D01*
X127883000Y-82815000D02*
X127883000Y-79217000D01*
X126283000Y-82815000D02*
X126283000Y-80110000D01*
X125483000Y-87053000D02*
X125483000Y-80939000D01*
X129004000Y-89020000D02*
X129004000Y-78972000D01*
X127003000Y-82815000D02*
X127003000Y-79613000D01*
X128283000Y-88893000D02*
X128283000Y-79099000D01*
X125163000Y-86583000D02*
X125163000Y-81409000D01*
X124963000Y-86218000D02*
X124963000Y-81774000D01*
X124523000Y-84909000D02*
X124523000Y-83083000D01*
X124763000Y-85759000D02*
X124763000Y-82233000D01*
X128523000Y-88947000D02*
X128523000Y-79045000D01*
X126923000Y-82815000D02*
X126923000Y-79660000D01*
X126723000Y-82815000D02*
X126723000Y-79785000D01*
X126643000Y-88153000D02*
X126643000Y-85177000D01*
X128003000Y-88814000D02*
X128003000Y-85177000D01*
X128403000Y-88922000D02*
X128403000Y-79070000D01*
X126643000Y-82815000D02*
X126643000Y-79839000D01*
X126403000Y-82815000D02*
X126403000Y-80014000D01*
X129364000Y-89044000D02*
X129364000Y-78948000D01*
X127243000Y-82815000D02*
X127243000Y-79485000D01*
X124723000Y-85650000D02*
X124723000Y-82342000D01*
X127683000Y-82815000D02*
X127683000Y-79290000D01*
X124643000Y-85403000D02*
X124643000Y-82589000D01*
X128363000Y-88913000D02*
X128363000Y-79079000D01*
X125563000Y-87154000D02*
X125563000Y-80838000D01*
X128443000Y-88931000D02*
X128443000Y-79061000D01*
X125763000Y-87387000D02*
X125763000Y-80605000D01*
X126323000Y-82815000D02*
X126323000Y-80077000D01*
X126123000Y-87744000D02*
X126123000Y-85177000D01*
X126283000Y-87882000D02*
X126283000Y-85177000D01*
X127483000Y-88620000D02*
X127483000Y-85177000D01*
X127523000Y-88637000D02*
X127523000Y-85177000D01*
X128803000Y-88995000D02*
X128803000Y-78997000D01*
X127643000Y-88687000D02*
X127643000Y-85177000D01*
X126803000Y-82815000D02*
X126803000Y-79733000D01*
X127043000Y-82815000D02*
X127043000Y-79591000D01*
X129444000Y-89046000D02*
X129444000Y-78946000D01*
X127963000Y-82815000D02*
X127963000Y-79190000D01*
X129524000Y-89046000D02*
X129524000Y-78946000D01*
X128043000Y-88827000D02*
X128043000Y-85177000D01*
X134724000Y-83996000D02*
X133224000Y-83996000D01*
X127323000Y-88546000D02*
X127323000Y-85177000D01*
X128123000Y-88850000D02*
X128123000Y-85177000D01*
X127763000Y-88733000D02*
X127763000Y-85177000D01*
X126483000Y-88039000D02*
X126483000Y-85177000D01*
X125043000Y-86373000D02*
X125043000Y-81619000D01*
X124883000Y-86049000D02*
X124883000Y-81943000D01*
X127403000Y-88584000D02*
X127403000Y-85177000D01*
X129204000Y-89036000D02*
X129204000Y-78956000D01*
X127483000Y-82815000D02*
X127483000Y-79372000D01*
X127923000Y-82815000D02*
X127923000Y-79204000D01*
X125723000Y-87343000D02*
X125723000Y-80649000D01*
X126203000Y-87815000D02*
X126203000Y-85177000D01*
X128163000Y-88861000D02*
X128163000Y-85177000D01*
X127803000Y-88747000D02*
X127803000Y-85177000D01*
X126163000Y-87780000D02*
X126163000Y-85177000D01*
X125083000Y-86445000D02*
X125083000Y-81547000D01*
X128043000Y-82815000D02*
X128043000Y-79165000D01*
X127763000Y-82815000D02*
X127763000Y-79259000D01*
X127563000Y-88654000D02*
X127563000Y-85177000D01*
X125683000Y-87298000D02*
X125683000Y-80694000D01*
X127003000Y-88379000D02*
X127003000Y-85177000D01*
X125523000Y-87104000D02*
X125523000Y-80888000D01*
X128884000Y-89006000D02*
X128884000Y-78986000D01*
X127683000Y-88702000D02*
X127683000Y-85177000D01*
X125003000Y-86297000D02*
X125003000Y-81695000D01*
X124483000Y-84668000D02*
X124483000Y-83324000D01*
X126403000Y-87978000D02*
X126403000Y-85177000D01*
X129244000Y-89039000D02*
X129244000Y-78953000D01*
X128723000Y-88983000D02*
X128723000Y-79009000D01*
X128844000Y-89001000D02*
X128844000Y-78991000D01*
X126443000Y-82815000D02*
X126443000Y-79983000D01*
X128163000Y-82815000D02*
X128163000Y-79131000D01*
X128123000Y-82815000D02*
X128123000Y-79142000D01*
X133974000Y-84746000D02*
X133974000Y-83246000D01*
X128083000Y-82815000D02*
X128083000Y-79153000D01*
X126443000Y-88009000D02*
X126443000Y-85177000D01*
X125963000Y-82815000D02*
X125963000Y-80398000D01*
X127843000Y-88761000D02*
X127843000Y-85177000D01*
X126763000Y-88233000D02*
X126763000Y-85177000D01*
X125643000Y-87251000D02*
X125643000Y-80741000D01*
X128563000Y-88955000D02*
X128563000Y-79037000D01*
X127363000Y-88565000D02*
X127363000Y-85177000D01*
X124443000Y-84275000D02*
X124443000Y-83717000D01*
X126243000Y-87849000D02*
X126243000Y-85177000D01*
X126083000Y-87708000D02*
X126083000Y-85177000D01*
X126683000Y-88181000D02*
X126683000Y-85177000D01*
X126883000Y-82815000D02*
X126883000Y-79684000D01*
X128643000Y-88970000D02*
X128643000Y-79022000D01*
X126763000Y-82815000D02*
X126763000Y-79759000D01*
X126843000Y-82815000D02*
X126843000Y-79708000D01*
X127323000Y-82815000D02*
X127323000Y-79446000D01*
X124683000Y-85532000D02*
X124683000Y-82460000D01*
X126963000Y-82815000D02*
X126963000Y-79636000D01*
X127803000Y-82815000D02*
X127803000Y-79245000D01*
X125843000Y-87473000D02*
X125843000Y-80519000D01*
X127083000Y-82815000D02*
X127083000Y-79568000D01*
X129484000Y-89046000D02*
X129484000Y-78946000D01*
X125123000Y-86515000D02*
X125123000Y-81477000D01*
X126923000Y-88332000D02*
X126923000Y-85177000D01*
X126683000Y-82815000D02*
X126683000Y-79811000D01*
X128243000Y-88883000D02*
X128243000Y-79109000D01*
X128483000Y-88939000D02*
X128483000Y-79053000D01*
X125883000Y-82815000D02*
X125883000Y-80478000D01*
X126603000Y-82815000D02*
X126603000Y-79866000D01*
X126083000Y-82815000D02*
X126083000Y-80284000D01*
X129044000Y-89024000D02*
X129044000Y-78968000D01*
X127043000Y-88401000D02*
X127043000Y-85177000D01*
X129164000Y-89034000D02*
X129164000Y-78958000D01*
X126043000Y-87671000D02*
X126043000Y-85177000D01*
X127403000Y-82815000D02*
X127403000Y-79408000D01*
X127363000Y-82815000D02*
X127363000Y-79427000D01*
X129324000Y-89043000D02*
X129324000Y-78949000D01*
X126363000Y-82815000D02*
X126363000Y-80045000D01*
X129084000Y-89027000D02*
X129084000Y-78965000D01*
X129404000Y-89045000D02*
X129404000Y-78947000D01*
X126163000Y-82815000D02*
X126163000Y-80212000D01*
X124803000Y-85862000D02*
X124803000Y-82130000D01*
X127443000Y-88602000D02*
X127443000Y-85177000D01*
X127123000Y-82815000D02*
X127123000Y-79547000D01*
X126203000Y-82815000D02*
X126203000Y-80177000D01*
X125603000Y-87203000D02*
X125603000Y-80789000D01*
X127723000Y-88718000D02*
X127723000Y-85177000D01*
X128964000Y-89016000D02*
X128964000Y-78976000D01*
X129284000Y-89041000D02*
X129284000Y-78951000D01*
X128003000Y-82815000D02*
X128003000Y-79178000D01*
X124563000Y-85100000D02*
X124563000Y-82892000D01*
X126843000Y-88284000D02*
X126843000Y-85177000D01*
X127283000Y-82815000D02*
X127283000Y-79465000D01*
X127123000Y-88445000D02*
X127123000Y-85177000D01*
X124603000Y-85261000D02*
X124603000Y-82731000D01*
X127563000Y-82815000D02*
X127563000Y-79338000D01*
X125203000Y-86648000D02*
X125203000Y-81344000D01*
X125923000Y-87555000D02*
X125923000Y-85177000D01*
X127603000Y-82815000D02*
X127603000Y-79322000D01*
X124843000Y-85958000D02*
X124843000Y-82034000D01*
X125923000Y-82815000D02*
X125923000Y-80437000D01*
X126323000Y-87915000D02*
X126323000Y-85177000D01*
X126523000Y-88068000D02*
X126523000Y-85177000D01*
X128924000Y-89011000D02*
X128924000Y-78981000D01*
X128683000Y-88977000D02*
X128683000Y-79015000D01*
X128203000Y-82815000D02*
X128203000Y-79120000D01*
X126043000Y-82815000D02*
X126043000Y-80321000D01*
X127203000Y-88487000D02*
X127203000Y-85177000D01*
X125283000Y-86773000D02*
X125283000Y-81219000D01*
X126243000Y-82815000D02*
X126243000Y-80143000D01*
X126523000Y-82815000D02*
X126523000Y-79924000D01*
X124923000Y-86136000D02*
X124923000Y-81856000D01*
X126563000Y-88097000D02*
X126563000Y-85177000D01*
X126963000Y-88356000D02*
X126963000Y-85177000D01*
X127163000Y-88466000D02*
X127163000Y-85177000D01*
X126003000Y-87633000D02*
X126003000Y-85177000D01*
X127083000Y-88424000D02*
X127083000Y-85177000D01*
X126123000Y-82815000D02*
X126123000Y-80248000D01*
X128203000Y-88872000D02*
X128203000Y-85177000D01*
X127843000Y-82815000D02*
X127843000Y-79231000D01*
X125443000Y-87000000D02*
X125443000Y-80992000D01*
X125243000Y-86711000D02*
X125243000Y-81281000D01*
X127603000Y-88670000D02*
X127603000Y-85177000D01*
X126803000Y-88259000D02*
X126803000Y-85177000D01*
X125963000Y-87594000D02*
X125963000Y-85177000D01*
X126563000Y-82815000D02*
X126563000Y-79895000D01*
X126723000Y-88207000D02*
X126723000Y-85177000D01*
X128603000Y-88963000D02*
X128603000Y-79029000D01*
X126483000Y-82815000D02*
X126483000Y-79953000D01*
X127203000Y-82815000D02*
X127203000Y-79505000D01*
X126363000Y-87947000D02*
X126363000Y-85177000D01*
X126003000Y-82815000D02*
X126003000Y-80359000D01*
X126603000Y-88126000D02*
X126603000Y-85177000D01*
X127963000Y-88802000D02*
X127963000Y-85177000D01*
X127243000Y-88507000D02*
X127243000Y-85177000D01*
X125803000Y-87431000D02*
X125803000Y-80561000D01*
X126883000Y-88308000D02*
X126883000Y-85177000D01*
X127163000Y-82815000D02*
X127163000Y-79526000D01*
X128763000Y-88989000D02*
X128763000Y-79003000D01*
X124625563Y-85379264D02*
G75*
G03*
X134423357Y-85376000I4898437J1383264D01*
G01*
X124625563Y-82612736D02*
G75*
G03*
X124624643Y-85376000I4898437J-1383264D01*
G01*
X134423357Y-82616000D02*
G75*
G03*
X124625563Y-82612736I-4899357J-1380000D01*
G01*
%TO.C,R3*%
X107871100Y-124053000D02*
X104151100Y-124053000D01*
X103081100Y-124913000D02*
X104151100Y-124913000D01*
X107871100Y-125773000D02*
X107871100Y-124053000D01*
X104151100Y-125773000D02*
X107871100Y-125773000D01*
X104151100Y-124053000D02*
X104151100Y-125773000D01*
X108941100Y-124913000D02*
X107871100Y-124913000D01*
%TO.C,D1*%
X78030027Y-70396400D02*
X76844693Y-71285400D01*
X76844693Y-71285400D02*
X76844693Y-69507400D01*
X77862461Y-70396400D02*
X76597360Y-70396400D01*
X76844693Y-69507400D02*
X78030027Y-70396400D01*
X78030027Y-71285400D02*
X78030027Y-69507400D01*
X82092259Y-70396400D02*
G75*
G03*
X82092259Y-70396400I-2114899J0D01*
G01*
%TO.C,R2*%
X138964000Y-70280000D02*
X140684000Y-70280000D01*
X138964000Y-70280000D02*
G75*
G03*
X138964000Y-70280000I-1860000J0D01*
G01*
%TO.C,C2*%
X150665000Y-82825000D02*
X149491000Y-82825000D01*
X150665000Y-81103000D02*
X149491000Y-81103000D01*
D10*
%TO.C,L1*%
X141051160Y-79533220D02*
X141952860Y-78631520D01*
X139151240Y-79932000D02*
X137952360Y-79932000D01*
X140853040Y-79230960D02*
X141452480Y-78131140D01*
X140652380Y-79131900D02*
X140751440Y-77831420D01*
X139852280Y-79032840D02*
X138953120Y-78131140D01*
X139450960Y-79230960D02*
X138351140Y-78733120D01*
X141251820Y-79932000D02*
X142252580Y-79131900D01*
X140251060Y-79032840D02*
X139951340Y-77732360D01*
X142453240Y-79932000D02*
X141251820Y-79932000D01*
X139151240Y-79632280D02*
X138051420Y-79332560D01*
X141152760Y-79932000D02*
G75*
G03*
X141152760Y-79932000I-1000760J0D01*
G01*
X142453240Y-79932000D02*
G75*
G03*
X142453240Y-79932000I-2301240J0D01*
G01*
%TO.C,L2*%
X136910960Y-88253040D02*
X136413120Y-89352860D01*
X136811900Y-87051620D02*
X135511420Y-86952560D01*
X137612000Y-88552760D02*
X137612000Y-89751640D01*
X137612000Y-86452180D02*
X136811900Y-85451420D01*
X137312280Y-88552760D02*
X137012560Y-89652580D01*
X136910960Y-86850960D02*
X135811140Y-86251520D01*
X137213220Y-86652840D02*
X136311520Y-85751140D01*
X137612000Y-85250760D02*
X137612000Y-86452180D01*
X136712840Y-87452940D02*
X135412360Y-87752660D01*
X136712840Y-87851720D02*
X135811140Y-88750880D01*
X139913240Y-87552000D02*
G75*
G03*
X139913240Y-87552000I-2301240J0D01*
G01*
X138612760Y-87552000D02*
G75*
G03*
X138612760Y-87552000I-1000760J0D01*
G01*
D11*
%TO.C,R1*%
X108370000Y-53738000D02*
X104650000Y-53738000D01*
X108370000Y-55458000D02*
X108370000Y-53738000D01*
X109440000Y-54598000D02*
X108370000Y-54598000D01*
X104650000Y-55458000D02*
X108370000Y-55458000D01*
X104650000Y-53738000D02*
X104650000Y-55458000D01*
X103580000Y-54598000D02*
X104650000Y-54598000D01*
%TO.C,C3*%
X80427000Y-39625500D02*
X85857000Y-39625500D01*
X84323000Y-40745500D02*
X87093000Y-40745500D01*
X84323000Y-41425500D02*
X87547000Y-41425500D01*
X78132000Y-43266500D02*
X88152000Y-43266500D01*
X81180000Y-39225500D02*
X85104000Y-39225500D01*
X84323000Y-41505500D02*
X87591000Y-41505500D01*
X84323000Y-42065500D02*
X87848000Y-42065500D01*
X84323000Y-42385500D02*
X87960000Y-42385500D01*
X79583000Y-40305500D02*
X81961000Y-40305500D01*
X84323000Y-42185500D02*
X87893000Y-42185500D01*
X78714000Y-41465500D02*
X81961000Y-41465500D01*
X84323000Y-40825500D02*
X87155000Y-40825500D01*
X84323000Y-41705500D02*
X87692000Y-41705500D01*
X84323000Y-40705500D02*
X87061000Y-40705500D01*
X84323000Y-41345500D02*
X87502000Y-41345500D01*
X84323000Y-40265500D02*
X86660000Y-40265500D01*
X78114000Y-43426500D02*
X88170000Y-43426500D01*
X78830000Y-41265500D02*
X81961000Y-41265500D01*
X78127000Y-43306500D02*
X88157000Y-43306500D01*
X84323000Y-41065500D02*
X87327000Y-41065500D01*
X78277000Y-42545500D02*
X81961000Y-42545500D01*
X84323000Y-41105500D02*
X87353000Y-41105500D01*
X84323000Y-41465500D02*
X87570000Y-41465500D01*
X79012000Y-40985500D02*
X81961000Y-40985500D01*
X78573000Y-41745500D02*
X81961000Y-41745500D01*
X78631000Y-41625500D02*
X81961000Y-41625500D01*
X84323000Y-42105500D02*
X87864000Y-42105500D01*
X80306000Y-39705500D02*
X85978000Y-39705500D01*
X78672000Y-41545500D02*
X81961000Y-41545500D01*
X79624000Y-40265500D02*
X81961000Y-40265500D01*
X78518000Y-41865500D02*
X81961000Y-41865500D01*
X78168000Y-43025500D02*
X88116000Y-43025500D01*
X78104000Y-43546500D02*
X88180000Y-43546500D01*
X80085000Y-39865500D02*
X86199000Y-39865500D01*
X84323000Y-41625500D02*
X87653000Y-41625500D01*
X84323000Y-41025500D02*
X87299000Y-41025500D01*
X84323000Y-40305500D02*
X86701000Y-40305500D01*
X78391000Y-42185500D02*
X81961000Y-42185500D01*
X78092000Y-43906500D02*
X88192000Y-43906500D01*
X84323000Y-41585500D02*
X87633000Y-41585500D01*
X78183000Y-42945500D02*
X88101000Y-42945500D01*
X79665000Y-40225500D02*
X86619000Y-40225500D01*
X78099000Y-43626500D02*
X88185000Y-43626500D01*
X84323000Y-41545500D02*
X87612000Y-41545500D01*
X84323000Y-42545500D02*
X88007000Y-42545500D01*
X84323000Y-42265500D02*
X87921000Y-42265500D01*
X79467000Y-40425500D02*
X81961000Y-40425500D01*
X78288000Y-42505500D02*
X81961000Y-42505500D01*
X79935000Y-39985500D02*
X86349000Y-39985500D01*
X82229000Y-38905500D02*
X84055000Y-38905500D01*
X81379000Y-39145500D02*
X84905000Y-39145500D01*
X78501000Y-41905500D02*
X81961000Y-41905500D01*
X79394000Y-40505500D02*
X81961000Y-40505500D01*
X84323000Y-40905500D02*
X87214000Y-40905500D01*
X78092000Y-43826500D02*
X88192000Y-43826500D01*
X84323000Y-40625500D02*
X86995000Y-40625500D01*
X83142000Y-49106500D02*
X83142000Y-47606500D01*
X78806000Y-41305500D02*
X81961000Y-41305500D01*
X84323000Y-41905500D02*
X87783000Y-41905500D01*
X78782000Y-41345500D02*
X81961000Y-41345500D01*
X78905000Y-41145500D02*
X81961000Y-41145500D01*
X78311000Y-42425500D02*
X81961000Y-42425500D01*
X80248000Y-39745500D02*
X86036000Y-39745500D01*
X81488000Y-39105500D02*
X84796000Y-39105500D01*
X79070000Y-40905500D02*
X81961000Y-40905500D01*
X84323000Y-40385500D02*
X86779000Y-40385500D01*
X81877000Y-38985500D02*
X84407000Y-38985500D01*
X78324000Y-42385500D02*
X81961000Y-42385500D01*
X84323000Y-42145500D02*
X87879000Y-42145500D01*
X84323000Y-40345500D02*
X86740000Y-40345500D01*
X79887000Y-40025500D02*
X86397000Y-40025500D01*
X81606000Y-39065500D02*
X84678000Y-39065500D01*
X78554000Y-41785500D02*
X81961000Y-41785500D01*
X84323000Y-42305500D02*
X87934000Y-42305500D01*
X81276000Y-39185500D02*
X85008000Y-39185500D01*
X84323000Y-41385500D02*
X87525000Y-41385500D01*
X79323000Y-40585500D02*
X81961000Y-40585500D01*
X78111000Y-43466500D02*
X88173000Y-43466500D01*
X80623000Y-39505500D02*
X85661000Y-39505500D01*
X84323000Y-42025500D02*
X87833000Y-42025500D01*
X84323000Y-42225500D02*
X87907000Y-42225500D01*
X78336000Y-42345500D02*
X81961000Y-42345500D01*
X84323000Y-40545500D02*
X86926000Y-40545500D01*
X81002000Y-39305500D02*
X85282000Y-39305500D01*
X78161000Y-43065500D02*
X88123000Y-43065500D01*
X78137000Y-43226500D02*
X88147000Y-43226500D01*
X79256000Y-40665500D02*
X81961000Y-40665500D01*
X78759000Y-41385500D02*
X81961000Y-41385500D01*
X78095000Y-43706500D02*
X88189000Y-43706500D01*
X79840000Y-40065500D02*
X86444000Y-40065500D01*
X80555000Y-39545500D02*
X85729000Y-39545500D01*
X84323000Y-41825500D02*
X87748000Y-41825500D01*
X78235000Y-42705500D02*
X88049000Y-42705500D01*
X84323000Y-40465500D02*
X86854000Y-40465500D01*
X79041000Y-40945500D02*
X81961000Y-40945500D01*
X78536000Y-41825500D02*
X81961000Y-41825500D01*
X79289000Y-40625500D02*
X81961000Y-40625500D01*
X84323000Y-40505500D02*
X86890000Y-40505500D01*
X78093000Y-43786500D02*
X88191000Y-43786500D01*
X78191000Y-42905500D02*
X88093000Y-42905500D01*
X79099000Y-40865500D02*
X81961000Y-40865500D01*
X78651000Y-41585500D02*
X81961000Y-41585500D01*
X84323000Y-41185500D02*
X87405000Y-41185500D01*
X84323000Y-41745500D02*
X87711000Y-41745500D01*
X78436000Y-42065500D02*
X81961000Y-42065500D01*
X78879000Y-41185500D02*
X81961000Y-41185500D01*
X80034000Y-39905500D02*
X86250000Y-39905500D01*
X79984000Y-39945500D02*
X86300000Y-39945500D01*
X79160000Y-40785500D02*
X81961000Y-40785500D01*
X84323000Y-42345500D02*
X87948000Y-42345500D01*
X78255000Y-42625500D02*
X88029000Y-42625500D01*
X78854000Y-41225500D02*
X81961000Y-41225500D01*
X78468000Y-41985500D02*
X81961000Y-41985500D01*
X82392000Y-48356500D02*
X83892000Y-48356500D01*
X78377000Y-42225500D02*
X81961000Y-42225500D01*
X78350000Y-42305500D02*
X81961000Y-42305500D01*
X78737000Y-41425500D02*
X81961000Y-41425500D01*
X79223000Y-40705500D02*
X81961000Y-40705500D01*
X84323000Y-42465500D02*
X87985000Y-42465500D01*
X79795000Y-40105500D02*
X86489000Y-40105500D01*
X78107000Y-43506500D02*
X88177000Y-43506500D01*
X78592000Y-41705500D02*
X81961000Y-41705500D01*
X78149000Y-43145500D02*
X88135000Y-43145500D01*
X84323000Y-41265500D02*
X87454000Y-41265500D01*
X78092000Y-43866500D02*
X88192000Y-43866500D01*
X84323000Y-41985500D02*
X87816000Y-41985500D01*
X78118000Y-43386500D02*
X88166000Y-43386500D01*
X78931000Y-41105500D02*
X81961000Y-41105500D01*
X79430000Y-40465500D02*
X81961000Y-40465500D01*
X79129000Y-40825500D02*
X81961000Y-40825500D01*
X78094000Y-43746500D02*
X88190000Y-43746500D01*
X80490000Y-39585500D02*
X85794000Y-39585500D01*
X84323000Y-40985500D02*
X87272000Y-40985500D01*
X78122000Y-43346500D02*
X88162000Y-43346500D01*
X80693000Y-39465500D02*
X85591000Y-39465500D01*
X84323000Y-40585500D02*
X86961000Y-40585500D01*
X80138000Y-39825500D02*
X86146000Y-39825500D01*
X79544000Y-40345500D02*
X81961000Y-40345500D01*
X78484000Y-41945500D02*
X81961000Y-41945500D01*
X80920000Y-39345500D02*
X85364000Y-39345500D01*
X78155000Y-43105500D02*
X88129000Y-43105500D01*
X78207000Y-42825500D02*
X88077000Y-42825500D01*
X78363000Y-42265500D02*
X81961000Y-42265500D01*
X84323000Y-41225500D02*
X87430000Y-41225500D01*
X82038000Y-38945500D02*
X84246000Y-38945500D01*
X78225000Y-42745500D02*
X88059000Y-42745500D01*
X79191000Y-40745500D02*
X81961000Y-40745500D01*
X79751000Y-40145500D02*
X86533000Y-40145500D01*
X84323000Y-41785500D02*
X87730000Y-41785500D01*
X79358000Y-40545500D02*
X81961000Y-40545500D01*
X80193000Y-39785500D02*
X86091000Y-39785500D01*
X81089000Y-39265500D02*
X85195000Y-39265500D01*
X84323000Y-40865500D02*
X87185000Y-40865500D01*
X79505000Y-40385500D02*
X81961000Y-40385500D01*
X84323000Y-40665500D02*
X87028000Y-40665500D01*
X78102000Y-43586500D02*
X88182000Y-43586500D01*
X84323000Y-41865500D02*
X87766000Y-41865500D01*
X78143000Y-43185500D02*
X88141000Y-43185500D01*
X84323000Y-40785500D02*
X87124000Y-40785500D01*
X78199000Y-42865500D02*
X88085000Y-42865500D01*
X78985000Y-41025500D02*
X81961000Y-41025500D01*
X78216000Y-42785500D02*
X88068000Y-42785500D01*
X79707000Y-40185500D02*
X86577000Y-40185500D01*
X84323000Y-42585500D02*
X88018000Y-42585500D01*
X81735000Y-39025500D02*
X84549000Y-39025500D01*
X84323000Y-40425500D02*
X86817000Y-40425500D01*
X80841000Y-39385500D02*
X85443000Y-39385500D01*
X78299000Y-42465500D02*
X81961000Y-42465500D01*
X78611000Y-41665500D02*
X81961000Y-41665500D01*
X78420000Y-42105500D02*
X81961000Y-42105500D01*
X84323000Y-41145500D02*
X87379000Y-41145500D01*
X80365000Y-39665500D02*
X85919000Y-39665500D01*
X78957000Y-41065500D02*
X81961000Y-41065500D01*
X78097000Y-43666500D02*
X88187000Y-43666500D01*
X84323000Y-42425500D02*
X87973000Y-42425500D01*
X78175000Y-42985500D02*
X88109000Y-42985500D01*
X80765000Y-39425500D02*
X85519000Y-39425500D01*
X82863000Y-38825500D02*
X83421000Y-38825500D01*
X84323000Y-41305500D02*
X87478000Y-41305500D01*
X78405000Y-42145500D02*
X81961000Y-42145500D01*
X84323000Y-41945500D02*
X87800000Y-41945500D01*
X78245000Y-42665500D02*
X88039000Y-42665500D01*
X78693000Y-41505500D02*
X81961000Y-41505500D01*
X84323000Y-40945500D02*
X87243000Y-40945500D01*
X78266000Y-42585500D02*
X81961000Y-42585500D01*
X84323000Y-42505500D02*
X87996000Y-42505500D01*
X82470000Y-38865500D02*
X83814000Y-38865500D01*
X84323000Y-41665500D02*
X87673000Y-41665500D01*
X78451000Y-42025500D02*
X81961000Y-42025500D01*
X84522000Y-48805857D02*
G75*
G03*
X84525264Y-39008063I-1380000J4899357D01*
G01*
X81758736Y-39008063D02*
G75*
G03*
X81762000Y-48805857I1383264J-4898437D01*
G01*
X84525264Y-39008063D02*
G75*
G03*
X81762000Y-39007143I-1383264J-4898437D01*
G01*
%TO.C,R3*%
X104650000Y-56405000D02*
X104650000Y-58125000D01*
X109440000Y-57265000D02*
X108370000Y-57265000D01*
X103580000Y-57265000D02*
X104650000Y-57265000D01*
X104650000Y-58125000D02*
X108370000Y-58125000D01*
X108370000Y-56405000D02*
X104650000Y-56405000D01*
X108370000Y-58125000D02*
X108370000Y-56405000D01*
%TO.C,C2*%
X91272800Y-83416500D02*
X92446800Y-83416500D01*
X91272800Y-85138500D02*
X92446800Y-85138500D01*
%TO.C,R2*%
X94295900Y-109444400D02*
X92575900Y-109444400D01*
X98015900Y-109444400D02*
G75*
G03*
X98015900Y-109444400I-1860000J0D01*
G01*
%TO.C,C6*%
X105458500Y-49332000D02*
X105458500Y-50506000D01*
X107180500Y-49332000D02*
X107180500Y-50506000D01*
%TO.C,C1*%
X108514000Y-45288000D02*
X118476000Y-45288000D01*
X108907000Y-44008000D02*
X112314000Y-44008000D01*
X114676000Y-42568000D02*
X117093000Y-42568000D01*
X108716000Y-44488000D02*
X112314000Y-44488000D01*
X114676000Y-43448000D02*
X117783000Y-43448000D01*
X114676000Y-42728000D02*
X117243000Y-42728000D01*
X109025000Y-43768000D02*
X112314000Y-43768000D01*
X109936000Y-42528000D02*
X112314000Y-42528000D01*
X108837000Y-44168000D02*
X112314000Y-44168000D01*
X109897000Y-42568000D02*
X112314000Y-42568000D01*
X114676000Y-43208000D02*
X117625000Y-43208000D01*
X108560000Y-45048000D02*
X118430000Y-45048000D01*
X114676000Y-43168000D02*
X117596000Y-43168000D01*
X114676000Y-43728000D02*
X117944000Y-43728000D01*
X114676000Y-43328000D02*
X117706000Y-43328000D01*
X114676000Y-43608000D02*
X117878000Y-43608000D01*
X109544000Y-42968000D02*
X112314000Y-42968000D01*
X109258000Y-43368000D02*
X112314000Y-43368000D01*
X108447000Y-45969000D02*
X118543000Y-45969000D01*
X108445000Y-46089000D02*
X118545000Y-46089000D01*
X108502000Y-45368000D02*
X118488000Y-45368000D01*
X108569000Y-45008000D02*
X118421000Y-45008000D01*
X114676000Y-43408000D02*
X117758000Y-43408000D01*
X109747000Y-42728000D02*
X112314000Y-42728000D01*
X108496000Y-45408000D02*
X118494000Y-45408000D01*
X109284000Y-43328000D02*
X112314000Y-43328000D01*
X112088000Y-41248000D02*
X114902000Y-41248000D01*
X114676000Y-44088000D02*
X118119000Y-44088000D01*
X109112000Y-43608000D02*
X112314000Y-43608000D01*
X111841000Y-41328000D02*
X115149000Y-41328000D01*
X109576000Y-42928000D02*
X112314000Y-42928000D01*
X110018000Y-42448000D02*
X116972000Y-42448000D01*
X109977000Y-42488000D02*
X112314000Y-42488000D01*
X114676000Y-42968000D02*
X117446000Y-42968000D01*
X114676000Y-43688000D02*
X117923000Y-43688000D01*
X108528000Y-45208000D02*
X118462000Y-45208000D01*
X109452000Y-43088000D02*
X112314000Y-43088000D01*
X108480000Y-45529000D02*
X118510000Y-45529000D01*
X114676000Y-44288000D02*
X118201000Y-44288000D01*
X110337000Y-42168000D02*
X116653000Y-42168000D01*
X114676000Y-43888000D02*
X118026000Y-43888000D01*
X114676000Y-42648000D02*
X117170000Y-42648000D01*
X108773000Y-44328000D02*
X112314000Y-44328000D01*
X108521000Y-45248000D02*
X118469000Y-45248000D01*
X114676000Y-42888000D02*
X117381000Y-42888000D01*
X114676000Y-44808000D02*
X118371000Y-44808000D01*
X108467000Y-45649000D02*
X118523000Y-45649000D01*
X108445000Y-46049000D02*
X118545000Y-46049000D01*
X108578000Y-44968000D02*
X118412000Y-44968000D01*
X110718000Y-41888000D02*
X116272000Y-41888000D01*
X109783000Y-42688000D02*
X112314000Y-42688000D01*
X108926000Y-43968000D02*
X112314000Y-43968000D01*
X114676000Y-43048000D02*
X117508000Y-43048000D01*
X108588000Y-44928000D02*
X118402000Y-44928000D01*
X109482000Y-43048000D02*
X112314000Y-43048000D01*
X108452000Y-45849000D02*
X118538000Y-45849000D01*
X108664000Y-44648000D02*
X112314000Y-44648000D01*
X108552000Y-45088000D02*
X118438000Y-45088000D01*
X108689000Y-44568000D02*
X112314000Y-44568000D01*
X108854000Y-44128000D02*
X112314000Y-44128000D01*
X110601000Y-41968000D02*
X116389000Y-41968000D01*
X114676000Y-43848000D02*
X118006000Y-43848000D01*
X109423000Y-43128000D02*
X112314000Y-43128000D01*
X114676000Y-43528000D02*
X117831000Y-43528000D01*
X109711000Y-42768000D02*
X112314000Y-42768000D01*
X114676000Y-44408000D02*
X118246000Y-44408000D01*
X114676000Y-42608000D02*
X117132000Y-42608000D01*
X111046000Y-41688000D02*
X115944000Y-41688000D01*
X109513000Y-43008000D02*
X112314000Y-43008000D01*
X110438000Y-42088000D02*
X116552000Y-42088000D01*
X108490000Y-45449000D02*
X118500000Y-45449000D01*
X108471000Y-45609000D02*
X118519000Y-45609000D01*
X114676000Y-44208000D02*
X118169000Y-44208000D01*
X108630000Y-44768000D02*
X112314000Y-44768000D01*
X111629000Y-41408000D02*
X115361000Y-41408000D01*
X108641000Y-44728000D02*
X112314000Y-44728000D01*
X109159000Y-43528000D02*
X112314000Y-43528000D01*
X110491000Y-42048000D02*
X116499000Y-42048000D01*
X114676000Y-44568000D02*
X118301000Y-44568000D01*
X110546000Y-42008000D02*
X116444000Y-42008000D01*
X108608000Y-44848000D02*
X118382000Y-44848000D01*
X108703000Y-44528000D02*
X112314000Y-44528000D01*
X114676000Y-42768000D02*
X117279000Y-42768000D01*
X114676000Y-43928000D02*
X118045000Y-43928000D01*
X108448000Y-45929000D02*
X118542000Y-45929000D01*
X108984000Y-43848000D02*
X112314000Y-43848000D01*
X114676000Y-44368000D02*
X118232000Y-44368000D01*
X114676000Y-42688000D02*
X117207000Y-42688000D01*
X110976000Y-41728000D02*
X116014000Y-41728000D01*
X110288000Y-42208000D02*
X116702000Y-42208000D01*
X108889000Y-44048000D02*
X112314000Y-44048000D01*
X114676000Y-44768000D02*
X118360000Y-44768000D01*
X114676000Y-44128000D02*
X118136000Y-44128000D01*
X110387000Y-42128000D02*
X116603000Y-42128000D01*
X109183000Y-43488000D02*
X112314000Y-43488000D01*
X110104000Y-42368000D02*
X116886000Y-42368000D01*
X108652000Y-44688000D02*
X112314000Y-44688000D01*
X114676000Y-43368000D02*
X117732000Y-43368000D01*
X108871000Y-44088000D02*
X112314000Y-44088000D01*
X110148000Y-42328000D02*
X116842000Y-42328000D01*
X112582000Y-41128000D02*
X114408000Y-41128000D01*
X108730000Y-44448000D02*
X112314000Y-44448000D01*
X110193000Y-42288000D02*
X116797000Y-42288000D01*
X111533000Y-41448000D02*
X115457000Y-41448000D01*
X114676000Y-43088000D02*
X117538000Y-43088000D01*
X112823000Y-41088000D02*
X114167000Y-41088000D01*
X109858000Y-42608000D02*
X112314000Y-42608000D01*
X114676000Y-43128000D02*
X117567000Y-43128000D01*
X111732000Y-41368000D02*
X115258000Y-41368000D01*
X114676000Y-44008000D02*
X118083000Y-44008000D01*
X108544000Y-45128000D02*
X118446000Y-45128000D01*
X109609000Y-42888000D02*
X112314000Y-42888000D01*
X108758000Y-44368000D02*
X112314000Y-44368000D01*
X112745000Y-50579000D02*
X114245000Y-50579000D01*
X114676000Y-44528000D02*
X118287000Y-44528000D01*
X114676000Y-44048000D02*
X118101000Y-44048000D01*
X108450000Y-45889000D02*
X118540000Y-45889000D01*
X114676000Y-43768000D02*
X117965000Y-43768000D01*
X114676000Y-43568000D02*
X117855000Y-43568000D01*
X108475000Y-45569000D02*
X118515000Y-45569000D01*
X114676000Y-42848000D02*
X117348000Y-42848000D01*
X108485000Y-45489000D02*
X118505000Y-45489000D01*
X111355000Y-41528000D02*
X115635000Y-41528000D01*
X114676000Y-43248000D02*
X117652000Y-43248000D01*
X109232000Y-43408000D02*
X112314000Y-43408000D01*
X110843000Y-41808000D02*
X116147000Y-41808000D01*
X108619000Y-44808000D02*
X112314000Y-44808000D01*
X114676000Y-43808000D02*
X117986000Y-43808000D01*
X108536000Y-45168000D02*
X118454000Y-45168000D01*
X114676000Y-43288000D02*
X117680000Y-43288000D01*
X108964000Y-43888000D02*
X112314000Y-43888000D01*
X114676000Y-43648000D02*
X117900000Y-43648000D01*
X109310000Y-43288000D02*
X112314000Y-43288000D01*
X108460000Y-45729000D02*
X118530000Y-45729000D01*
X110060000Y-42408000D02*
X116930000Y-42408000D01*
X109004000Y-43808000D02*
X112314000Y-43808000D01*
X112230000Y-41208000D02*
X114760000Y-41208000D01*
X111118000Y-41648000D02*
X115872000Y-41648000D01*
X114676000Y-44168000D02*
X118153000Y-44168000D01*
X108457000Y-45769000D02*
X118533000Y-45769000D01*
X109135000Y-43568000D02*
X112314000Y-43568000D01*
X109642000Y-42848000D02*
X112314000Y-42848000D01*
X114676000Y-43008000D02*
X117477000Y-43008000D01*
X108598000Y-44888000D02*
X118392000Y-44888000D01*
X109338000Y-43248000D02*
X112314000Y-43248000D01*
X110659000Y-41928000D02*
X116331000Y-41928000D01*
X108821000Y-44208000D02*
X112314000Y-44208000D01*
X109090000Y-43648000D02*
X112314000Y-43648000D01*
X109820000Y-42648000D02*
X112314000Y-42648000D01*
X112391000Y-41168000D02*
X114599000Y-41168000D01*
X114676000Y-42928000D02*
X117414000Y-42928000D01*
X108446000Y-46009000D02*
X118544000Y-46009000D01*
X114676000Y-44448000D02*
X118260000Y-44448000D01*
X110908000Y-41768000D02*
X116082000Y-41768000D01*
X114676000Y-44248000D02*
X118186000Y-44248000D01*
X114676000Y-44728000D02*
X118349000Y-44728000D01*
X114676000Y-44648000D02*
X118326000Y-44648000D01*
X108789000Y-44288000D02*
X112314000Y-44288000D01*
X114676000Y-44688000D02*
X118338000Y-44688000D01*
X109365000Y-43208000D02*
X112314000Y-43208000D01*
X109067000Y-43688000D02*
X112314000Y-43688000D01*
X108804000Y-44248000D02*
X112314000Y-44248000D01*
X110780000Y-41848000D02*
X116210000Y-41848000D01*
X108455000Y-45809000D02*
X118535000Y-45809000D01*
X114676000Y-42808000D02*
X117314000Y-42808000D01*
X109046000Y-43728000D02*
X112314000Y-43728000D01*
X108508000Y-45328000D02*
X118482000Y-45328000D01*
X113495000Y-51329000D02*
X113495000Y-49829000D01*
X114676000Y-44488000D02*
X118274000Y-44488000D01*
X108677000Y-44608000D02*
X112314000Y-44608000D01*
X114676000Y-43968000D02*
X118064000Y-43968000D01*
X113216000Y-41048000D02*
X113774000Y-41048000D01*
X114676000Y-42528000D02*
X117054000Y-42528000D01*
X108464000Y-45689000D02*
X118526000Y-45689000D01*
X108744000Y-44408000D02*
X112314000Y-44408000D01*
X111959000Y-41288000D02*
X115031000Y-41288000D01*
X114676000Y-44608000D02*
X118313000Y-44608000D01*
X111273000Y-41568000D02*
X115717000Y-41568000D01*
X111442000Y-41488000D02*
X115548000Y-41488000D01*
X108445000Y-46129000D02*
X118545000Y-46129000D01*
X109394000Y-43168000D02*
X112314000Y-43168000D01*
X109207000Y-43448000D02*
X112314000Y-43448000D01*
X109676000Y-42808000D02*
X112314000Y-42808000D01*
X114676000Y-42488000D02*
X117013000Y-42488000D01*
X108945000Y-43928000D02*
X112314000Y-43928000D01*
X114676000Y-44328000D02*
X118217000Y-44328000D01*
X110240000Y-42248000D02*
X116750000Y-42248000D01*
X114676000Y-43488000D02*
X117807000Y-43488000D01*
X111194000Y-41608000D02*
X115796000Y-41608000D01*
X112111736Y-41230563D02*
G75*
G03*
X112115000Y-51028357I1383264J-4898437D01*
G01*
X114875000Y-51028357D02*
G75*
G03*
X114878264Y-41230563I-1380000J4899357D01*
G01*
X114878264Y-41230563D02*
G75*
G03*
X112115000Y-41229643I-1383264J-4898437D01*
G01*
%TO.C,Vin*%
X113500000Y-40628000D02*
X113500000Y-35548000D01*
X119840000Y-35548000D02*
X113500000Y-35548000D01*
X119840000Y-40628000D02*
X113500000Y-40628000D01*
X117940000Y-40628000D02*
X117940000Y-35548000D01*
X119840000Y-35548000D02*
X119840000Y-40628000D01*
D10*
%TO.C,L1*%
X67492000Y-120231780D02*
X66691900Y-119231020D01*
X67192280Y-122332360D02*
X66892560Y-123432180D01*
X67492000Y-122332360D02*
X67492000Y-123531240D01*
X67492000Y-119030360D02*
X67492000Y-120231780D01*
X67093220Y-120432440D02*
X66191520Y-119530740D01*
X66592840Y-121232540D02*
X65292360Y-121532260D01*
X66790960Y-120630560D02*
X65691140Y-120031120D01*
X66691900Y-120831220D02*
X65391420Y-120732160D01*
X66592840Y-121631320D02*
X65691140Y-122530480D01*
X66790960Y-122032640D02*
X66293120Y-123132460D01*
X68492760Y-121331600D02*
G75*
G03*
X68492760Y-121331600I-1000760J0D01*
G01*
X69793240Y-121331600D02*
G75*
G03*
X69793240Y-121331600I-2301240J0D01*
G01*
D11*
%TO.C,C3*%
X66917400Y-111835200D02*
X77007400Y-111835200D01*
X73143400Y-109754200D02*
X76453400Y-109754200D01*
X67626400Y-109474200D02*
X70781400Y-109474200D01*
X66927400Y-111675200D02*
X76997400Y-111675200D01*
X73143400Y-109714200D02*
X76432400Y-109714200D01*
X73143400Y-108474200D02*
X75521400Y-108474200D01*
X73143400Y-110074200D02*
X76603400Y-110074200D01*
X67513400Y-109674200D02*
X70781400Y-109674200D01*
X67211400Y-110354200D02*
X70781400Y-110354200D01*
X73143400Y-109194200D02*
X76119400Y-109194200D01*
X70858400Y-107114200D02*
X73066400Y-107114200D01*
X67674400Y-109394200D02*
X70781400Y-109394200D01*
X69443400Y-107674200D02*
X74481400Y-107674200D01*
X73143400Y-109994200D02*
X76568400Y-109994200D01*
X68615400Y-108274200D02*
X75309400Y-108274200D01*
X73143400Y-108514200D02*
X75560400Y-108514200D01*
X73143400Y-108434200D02*
X75480400Y-108434200D01*
X73143400Y-110194200D02*
X76653400Y-110194200D01*
X73143400Y-110714200D02*
X76827400Y-110714200D01*
X73143400Y-109954200D02*
X76550400Y-109954200D01*
X67534400Y-109634200D02*
X70781400Y-109634200D01*
X67304400Y-110114200D02*
X70781400Y-110114200D01*
X70096400Y-107354200D02*
X73828400Y-107354200D01*
X73143400Y-109314200D02*
X76199400Y-109314200D01*
X67170400Y-110474200D02*
X70781400Y-110474200D01*
X68178400Y-108714200D02*
X70781400Y-108714200D01*
X73143400Y-109594200D02*
X76367400Y-109594200D01*
X67019400Y-111034200D02*
X76905400Y-111034200D01*
X73143400Y-110634200D02*
X76805400Y-110634200D01*
X68143400Y-108754200D02*
X70781400Y-108754200D01*
X67183400Y-110434200D02*
X70781400Y-110434200D01*
X70555400Y-107194200D02*
X73369400Y-107194200D01*
X69661400Y-107554200D02*
X74263400Y-107554200D01*
X68444400Y-108434200D02*
X70781400Y-108434200D01*
X67412400Y-109874200D02*
X70781400Y-109874200D01*
X73143400Y-109434200D02*
X76274400Y-109434200D01*
X73143400Y-109354200D02*
X76225400Y-109354200D01*
X67256400Y-110234200D02*
X70781400Y-110234200D01*
X67832400Y-109154200D02*
X70781400Y-109154200D01*
X68043400Y-108874200D02*
X70781400Y-108874200D01*
X67777400Y-109234200D02*
X70781400Y-109234200D01*
X67055400Y-110874200D02*
X76869400Y-110874200D01*
X68364400Y-108514200D02*
X70781400Y-108514200D01*
X66913400Y-111955200D02*
X77011400Y-111955200D01*
X67431400Y-109834200D02*
X70781400Y-109834200D01*
X67075400Y-110794200D02*
X76849400Y-110794200D01*
X67197400Y-110394200D02*
X70781400Y-110394200D01*
X66915400Y-111875200D02*
X77009400Y-111875200D01*
X67086400Y-110754200D02*
X70781400Y-110754200D01*
X70000400Y-107394200D02*
X73924400Y-107394200D01*
X67725400Y-109314200D02*
X70781400Y-109314200D01*
X71049400Y-107074200D02*
X72875400Y-107074200D01*
X67602400Y-109514200D02*
X70781400Y-109514200D01*
X67471400Y-109754200D02*
X70781400Y-109754200D01*
X67805400Y-109194200D02*
X70781400Y-109194200D01*
X68804400Y-108114200D02*
X75120400Y-108114200D01*
X67036400Y-110954200D02*
X76888400Y-110954200D01*
X68287400Y-108594200D02*
X70781400Y-108594200D01*
X66963400Y-111354200D02*
X76961400Y-111354200D01*
X66995400Y-111154200D02*
X76929400Y-111154200D01*
X73143400Y-108834200D02*
X75848400Y-108834200D01*
X68660400Y-108234200D02*
X75264400Y-108234200D01*
X66981400Y-111234200D02*
X76943400Y-111234200D01*
X67699400Y-109354200D02*
X70781400Y-109354200D01*
X73143400Y-108594200D02*
X75637400Y-108594200D01*
X73143400Y-110514200D02*
X76768400Y-110514200D01*
X66988400Y-111194200D02*
X76936400Y-111194200D01*
X66922400Y-111755200D02*
X77002400Y-111755200D01*
X68755400Y-108154200D02*
X75169400Y-108154200D01*
X69375400Y-107714200D02*
X74549400Y-107714200D01*
X71962400Y-117275200D02*
X71962400Y-115775200D01*
X68958400Y-107994200D02*
X74966400Y-107994200D01*
X73143400Y-109274200D02*
X76173400Y-109274200D01*
X66919400Y-111795200D02*
X77005400Y-111795200D01*
X67393400Y-109914200D02*
X70781400Y-109914200D01*
X70426400Y-107234200D02*
X73498400Y-107234200D01*
X73143400Y-109074200D02*
X76034400Y-109074200D01*
X68325400Y-108554200D02*
X70781400Y-108554200D01*
X67240400Y-110274200D02*
X70781400Y-110274200D01*
X69068400Y-107914200D02*
X74856400Y-107914200D01*
X73143400Y-109474200D02*
X76298400Y-109474200D01*
X67119400Y-110634200D02*
X70781400Y-110634200D01*
X66934400Y-111595200D02*
X76990400Y-111595200D01*
X73143400Y-109834200D02*
X76493400Y-109834200D01*
X73143400Y-109554200D02*
X76345400Y-109554200D01*
X73143400Y-110554200D02*
X76780400Y-110554200D01*
X73143400Y-110434200D02*
X76741400Y-110434200D01*
X73143400Y-109034200D02*
X76005400Y-109034200D01*
X73143400Y-109154200D02*
X76092400Y-109154200D01*
X68571400Y-108314200D02*
X75353400Y-108314200D01*
X68250400Y-108634200D02*
X70781400Y-108634200D01*
X73143400Y-108794200D02*
X75815400Y-108794200D01*
X66914400Y-111915200D02*
X77010400Y-111915200D01*
X73143400Y-110594200D02*
X76793400Y-110594200D01*
X69185400Y-107834200D02*
X74739400Y-107834200D01*
X69740400Y-107514200D02*
X74184400Y-107514200D01*
X67356400Y-109994200D02*
X70781400Y-109994200D01*
X69247400Y-107794200D02*
X74677400Y-107794200D01*
X70697400Y-107154200D02*
X73227400Y-107154200D01*
X73143400Y-109674200D02*
X76411400Y-109674200D01*
X73143400Y-108874200D02*
X75881400Y-108874200D01*
X73143400Y-109514200D02*
X76322400Y-109514200D01*
X67890400Y-109074200D02*
X70781400Y-109074200D01*
X66957400Y-111395200D02*
X76967400Y-111395200D01*
X68527400Y-108354200D02*
X75397400Y-108354200D01*
X67579400Y-109554200D02*
X70781400Y-109554200D01*
X67980400Y-108954200D02*
X70781400Y-108954200D01*
X66912400Y-112075200D02*
X77012400Y-112075200D01*
X73143400Y-108674200D02*
X75710400Y-108674200D01*
X66942400Y-111515200D02*
X76982400Y-111515200D01*
X67097400Y-110714200D02*
X70781400Y-110714200D01*
X73143400Y-110274200D02*
X76684400Y-110274200D01*
X69513400Y-107634200D02*
X74411400Y-107634200D01*
X68011400Y-108914200D02*
X70781400Y-108914200D01*
X67919400Y-109034200D02*
X70781400Y-109034200D01*
X69585400Y-107594200D02*
X74339400Y-107594200D01*
X67144400Y-110554200D02*
X70781400Y-110554200D01*
X70308400Y-107274200D02*
X73616400Y-107274200D01*
X67003400Y-111114200D02*
X76921400Y-111114200D01*
X73143400Y-108754200D02*
X75781400Y-108754200D01*
X73143400Y-110354200D02*
X76713400Y-110354200D01*
X68905400Y-108034200D02*
X75019400Y-108034200D01*
X71683400Y-106994200D02*
X72241400Y-106994200D01*
X69013400Y-107954200D02*
X74911400Y-107954200D01*
X67321400Y-110074200D02*
X70781400Y-110074200D01*
X67045400Y-110914200D02*
X76879400Y-110914200D01*
X73143400Y-108994200D02*
X75975400Y-108994200D01*
X73143400Y-109794200D02*
X76473400Y-109794200D01*
X68485400Y-108394200D02*
X75439400Y-108394200D01*
X66912400Y-112035200D02*
X77012400Y-112035200D01*
X67065400Y-110834200D02*
X76859400Y-110834200D01*
X67225400Y-110314200D02*
X70781400Y-110314200D01*
X67949400Y-108994200D02*
X70781400Y-108994200D01*
X73143400Y-110394200D02*
X76727400Y-110394200D01*
X66912400Y-111995200D02*
X77012400Y-111995200D01*
X73143400Y-109234200D02*
X76147400Y-109234200D01*
X73143400Y-110154200D02*
X76636400Y-110154200D01*
X67156400Y-110514200D02*
X70781400Y-110514200D01*
X73143400Y-108914200D02*
X75913400Y-108914200D01*
X73143400Y-110754200D02*
X76838400Y-110754200D01*
X67557400Y-109594200D02*
X70781400Y-109594200D01*
X67271400Y-110194200D02*
X70781400Y-110194200D01*
X68109400Y-108794200D02*
X70781400Y-108794200D01*
X68214400Y-108674200D02*
X70781400Y-108674200D01*
X69822400Y-107474200D02*
X74102400Y-107474200D01*
X73143400Y-110114200D02*
X76620400Y-110114200D01*
X73143400Y-110034200D02*
X76586400Y-110034200D01*
X66947400Y-111475200D02*
X76977400Y-111475200D01*
X73143400Y-109874200D02*
X76512400Y-109874200D01*
X71290400Y-107034200D02*
X72634400Y-107034200D01*
X73143400Y-109634200D02*
X76390400Y-109634200D01*
X67131400Y-110594200D02*
X70781400Y-110594200D01*
X67861400Y-109114200D02*
X70781400Y-109114200D01*
X68076400Y-108834200D02*
X70781400Y-108834200D01*
X66924400Y-111715200D02*
X77000400Y-111715200D01*
X67492400Y-109714200D02*
X70781400Y-109714200D01*
X73143400Y-108954200D02*
X75944400Y-108954200D01*
X68854400Y-108074200D02*
X75070400Y-108074200D01*
X66952400Y-111435200D02*
X76972400Y-111435200D01*
X67451400Y-109794200D02*
X70781400Y-109794200D01*
X66931400Y-111635200D02*
X76993400Y-111635200D01*
X73143400Y-110314200D02*
X76699400Y-110314200D01*
X69126400Y-107874200D02*
X74798400Y-107874200D01*
X70199400Y-107314200D02*
X73725400Y-107314200D01*
X69310400Y-107754200D02*
X74614400Y-107754200D01*
X67011400Y-111074200D02*
X76913400Y-111074200D01*
X73143400Y-110674200D02*
X76816400Y-110674200D01*
X73143400Y-109914200D02*
X76531400Y-109914200D01*
X71212400Y-116525200D02*
X72712400Y-116525200D01*
X73143400Y-110234200D02*
X76668400Y-110234200D01*
X73143400Y-108634200D02*
X75674400Y-108634200D01*
X68707400Y-108194200D02*
X75217400Y-108194200D01*
X67027400Y-110994200D02*
X76897400Y-110994200D01*
X67108400Y-110674200D02*
X70781400Y-110674200D01*
X66975400Y-111274200D02*
X76949400Y-111274200D01*
X66938400Y-111555200D02*
X76986400Y-111555200D01*
X68403400Y-108474200D02*
X70781400Y-108474200D01*
X73143400Y-109394200D02*
X76250400Y-109394200D01*
X73143400Y-108714200D02*
X75746400Y-108714200D01*
X73143400Y-109114200D02*
X76063400Y-109114200D01*
X67751400Y-109274200D02*
X70781400Y-109274200D01*
X67374400Y-109954200D02*
X70781400Y-109954200D01*
X67288400Y-110154200D02*
X70781400Y-110154200D01*
X73143400Y-108554200D02*
X75599400Y-108554200D01*
X73143400Y-110474200D02*
X76754400Y-110474200D01*
X66969400Y-111314200D02*
X76955400Y-111314200D01*
X67650400Y-109434200D02*
X70781400Y-109434200D01*
X69909400Y-107434200D02*
X74015400Y-107434200D01*
X67338400Y-110034200D02*
X70781400Y-110034200D01*
X73342400Y-116974557D02*
G75*
G03*
X73345664Y-107176763I-1380000J4899357D01*
G01*
X70579136Y-107176763D02*
G75*
G03*
X70582400Y-116974557I1383264J-4898437D01*
G01*
X73345664Y-107176763D02*
G75*
G03*
X70582400Y-107175843I-1383264J-4898437D01*
G01*
%TO.C,R2*%
X89295900Y-68999400D02*
X87575900Y-68999400D01*
X93015900Y-68999400D02*
G75*
G03*
X93015900Y-68999400I-1860000J0D01*
G01*
D10*
%TO.C,U1*%
X148026000Y-79932000D02*
X154630000Y-79932000D01*
X148026000Y-77265000D02*
X148026000Y-77519000D01*
X154630000Y-69772000D02*
X154630000Y-69899000D01*
X154630000Y-72185000D02*
X154630000Y-72439000D01*
X154630000Y-79932000D02*
X154630000Y-79805000D01*
X152217000Y-69772000D02*
X154630000Y-69772000D01*
X148026000Y-74725000D02*
X148026000Y-74979000D01*
X150439000Y-69772000D02*
X148026000Y-69772000D01*
X148026000Y-69772000D02*
X148026000Y-69899000D01*
X154630000Y-74725000D02*
X154630000Y-74979000D01*
X148026000Y-79932000D02*
X148026000Y-79805000D01*
X148026000Y-72185000D02*
X148026000Y-72439000D01*
X154630000Y-77265000D02*
X154630000Y-77519000D01*
X150439000Y-69772000D02*
G75*
G03*
X151328000Y-70661000I889000J0D01*
G01*
X151328000Y-70661000D02*
G75*
G03*
X152217000Y-69772000I0J889000D01*
G01*
X149423000Y-70661000D02*
G75*
G03*
X149423000Y-70661000I-254000J0D01*
G01*
%TO.C,L1*%
X92921000Y-50915000D02*
G75*
G03*
X92921000Y-50915000I-3810000J0D01*
G01*
D11*
%TO.C,C4*%
X67062500Y-43049000D02*
X76996500Y-43049000D01*
X73210500Y-42409000D02*
X76835500Y-42409000D01*
X68317500Y-40529000D02*
X70848500Y-40529000D01*
X66979500Y-43970000D02*
X77079500Y-43970000D01*
X68594500Y-40249000D02*
X75464500Y-40249000D01*
X69025500Y-39889000D02*
X75033500Y-39889000D01*
X69807500Y-39409000D02*
X74251500Y-39409000D01*
X73210500Y-41449000D02*
X76412500Y-41449000D01*
X73210500Y-42169000D02*
X76751500Y-42169000D01*
X73210500Y-40849000D02*
X76011500Y-40849000D01*
X67164500Y-42609000D02*
X70848500Y-42609000D01*
X68110500Y-40769000D02*
X70848500Y-40769000D01*
X67036500Y-43209000D02*
X77022500Y-43209000D01*
X67001500Y-43490000D02*
X77057500Y-43490000D01*
X67559500Y-41609000D02*
X70848500Y-41609000D01*
X66979500Y-43930000D02*
X77079500Y-43930000D01*
X66994500Y-43570000D02*
X77064500Y-43570000D01*
X73210500Y-41569000D02*
X76478500Y-41569000D01*
X68078500Y-40809000D02*
X70848500Y-40809000D01*
X73210500Y-40329000D02*
X75547500Y-40329000D01*
X71750500Y-38889000D02*
X72308500Y-38889000D01*
X73210500Y-42049000D02*
X76703500Y-42049000D01*
X67601500Y-41529000D02*
X70848500Y-41529000D01*
X73210500Y-40369000D02*
X75588500Y-40369000D01*
X67818500Y-41169000D02*
X70848500Y-41169000D01*
X68682500Y-40169000D02*
X75376500Y-40169000D01*
X67338500Y-42089000D02*
X70848500Y-42089000D01*
X73210500Y-40409000D02*
X75627500Y-40409000D01*
X67086500Y-42929000D02*
X76972500Y-42929000D01*
X68921500Y-39969000D02*
X75137500Y-39969000D01*
X67355500Y-42049000D02*
X70848500Y-42049000D01*
X66998500Y-43530000D02*
X77060500Y-43530000D01*
X69080500Y-39849000D02*
X74978500Y-39849000D01*
X70163500Y-39249000D02*
X73895500Y-39249000D01*
X67405500Y-41929000D02*
X70848500Y-41929000D01*
X67292500Y-42209000D02*
X70848500Y-42209000D01*
X67078500Y-42969000D02*
X76980500Y-42969000D01*
X67142500Y-42689000D02*
X76916500Y-42689000D01*
X67250500Y-42329000D02*
X70848500Y-42329000D01*
X70925500Y-39009000D02*
X73133500Y-39009000D01*
X66981500Y-43810000D02*
X77077500Y-43810000D01*
X73210500Y-40889000D02*
X76042500Y-40889000D01*
X67766500Y-41249000D02*
X70848500Y-41249000D01*
X73210500Y-41729000D02*
X76560500Y-41729000D01*
X73210500Y-41089000D02*
X76186500Y-41089000D01*
X67717500Y-41329000D02*
X70848500Y-41329000D01*
X67872500Y-41089000D02*
X70848500Y-41089000D01*
X67030500Y-43249000D02*
X77028500Y-43249000D01*
X73210500Y-42649000D02*
X76905500Y-42649000D01*
X67423500Y-41889000D02*
X70848500Y-41889000D01*
X68638500Y-40209000D02*
X75420500Y-40209000D01*
X67103500Y-42849000D02*
X76955500Y-42849000D01*
X73210500Y-40729000D02*
X75915500Y-40729000D01*
X67624500Y-41489000D02*
X70848500Y-41489000D01*
X69135500Y-39809000D02*
X74923500Y-39809000D01*
X67669500Y-41409000D02*
X70848500Y-41409000D01*
X67479500Y-41769000D02*
X70848500Y-41769000D01*
X73210500Y-41249000D02*
X76292500Y-41249000D01*
X66989500Y-43650000D02*
X77069500Y-43650000D01*
X73210500Y-40769000D02*
X75948500Y-40769000D01*
X67264500Y-42289000D02*
X70848500Y-42289000D01*
X70622500Y-39089000D02*
X73436500Y-39089000D01*
X73210500Y-41329000D02*
X76341500Y-41329000D01*
X67957500Y-40969000D02*
X70848500Y-40969000D01*
X73210500Y-41049000D02*
X76159500Y-41049000D01*
X68871500Y-40009000D02*
X75187500Y-40009000D01*
X71116500Y-38969000D02*
X72942500Y-38969000D01*
X73210500Y-40929000D02*
X76072500Y-40929000D01*
X73210500Y-41409000D02*
X76389500Y-41409000D01*
X71279500Y-48420000D02*
X72779500Y-48420000D01*
X67019500Y-43330000D02*
X77039500Y-43330000D01*
X73210500Y-41169000D02*
X76240500Y-41169000D01*
X73210500Y-40489000D02*
X75704500Y-40489000D01*
X67928500Y-41009000D02*
X70848500Y-41009000D01*
X67175500Y-42569000D02*
X70848500Y-42569000D01*
X71357500Y-38929000D02*
X72701500Y-38929000D01*
X73210500Y-40969000D02*
X76101500Y-40969000D01*
X68392500Y-40449000D02*
X70848500Y-40449000D01*
X68245500Y-40609000D02*
X70848500Y-40609000D01*
X67441500Y-41849000D02*
X70848500Y-41849000D01*
X68281500Y-40569000D02*
X70848500Y-40569000D01*
X73210500Y-41489000D02*
X76434500Y-41489000D01*
X67211500Y-42449000D02*
X70848500Y-42449000D01*
X72029500Y-49170000D02*
X72029500Y-47670000D01*
X73210500Y-42449000D02*
X76847500Y-42449000D01*
X73210500Y-42009000D02*
X76687500Y-42009000D01*
X70375500Y-39169000D02*
X73683500Y-39169000D01*
X69193500Y-39769000D02*
X74865500Y-39769000D01*
X73210500Y-42089000D02*
X76720500Y-42089000D01*
X73210500Y-40609000D02*
X75813500Y-40609000D01*
X67986500Y-40929000D02*
X70848500Y-40929000D01*
X73210500Y-41929000D02*
X76653500Y-41929000D01*
X70266500Y-39209000D02*
X73792500Y-39209000D01*
X68354500Y-40489000D02*
X70848500Y-40489000D01*
X73210500Y-41969000D02*
X76670500Y-41969000D01*
X73210500Y-41129000D02*
X76214500Y-41129000D01*
X69510500Y-39569000D02*
X74548500Y-39569000D01*
X68470500Y-40369000D02*
X70848500Y-40369000D01*
X67153500Y-42649000D02*
X70848500Y-42649000D01*
X68972500Y-39929000D02*
X75086500Y-39929000D01*
X68431500Y-40409000D02*
X70848500Y-40409000D01*
X73210500Y-41769000D02*
X76579500Y-41769000D01*
X73210500Y-41849000D02*
X76617500Y-41849000D01*
X73210500Y-41649000D02*
X76520500Y-41649000D01*
X68774500Y-40089000D02*
X75284500Y-40089000D01*
X67741500Y-41289000D02*
X70848500Y-41289000D01*
X68047500Y-40849000D02*
X70848500Y-40849000D01*
X73210500Y-41369000D02*
X76365500Y-41369000D01*
X68552500Y-40289000D02*
X75506500Y-40289000D01*
X67186500Y-42529000D02*
X70848500Y-42529000D01*
X73210500Y-41289000D02*
X76317500Y-41289000D01*
X66979500Y-43890000D02*
X77079500Y-43890000D01*
X67024500Y-43290000D02*
X77034500Y-43290000D01*
X67122500Y-42769000D02*
X76936500Y-42769000D01*
X67005500Y-43450000D02*
X77053500Y-43450000D01*
X67042500Y-43169000D02*
X77016500Y-43169000D01*
X67198500Y-42489000D02*
X70848500Y-42489000D01*
X73210500Y-41809000D02*
X76598500Y-41809000D01*
X73210500Y-42529000D02*
X76872500Y-42529000D01*
X73210500Y-40529000D02*
X75741500Y-40529000D01*
X70764500Y-39049000D02*
X73294500Y-39049000D01*
X70067500Y-39289000D02*
X73991500Y-39289000D01*
X70493500Y-39129000D02*
X73565500Y-39129000D01*
X67323500Y-42129000D02*
X70848500Y-42129000D01*
X73210500Y-42329000D02*
X76808500Y-42329000D01*
X66982500Y-43770000D02*
X77076500Y-43770000D01*
X73210500Y-41609000D02*
X76499500Y-41609000D01*
X68727500Y-40129000D02*
X75331500Y-40129000D01*
X68143500Y-40729000D02*
X70848500Y-40729000D01*
X73210500Y-41009000D02*
X76130500Y-41009000D01*
X73210500Y-42569000D02*
X76883500Y-42569000D01*
X67237500Y-42369000D02*
X70848500Y-42369000D01*
X67899500Y-41049000D02*
X70848500Y-41049000D01*
X69442500Y-39609000D02*
X74616500Y-39609000D01*
X67009500Y-43410000D02*
X77049500Y-43410000D01*
X67693500Y-41369000D02*
X70848500Y-41369000D01*
X73210500Y-40649000D02*
X75848500Y-40649000D01*
X68016500Y-40889000D02*
X70848500Y-40889000D01*
X73210500Y-40449000D02*
X75666500Y-40449000D01*
X73210500Y-42489000D02*
X76860500Y-42489000D01*
X73210500Y-42249000D02*
X76780500Y-42249000D01*
X67371500Y-42009000D02*
X70848500Y-42009000D01*
X67844500Y-41129000D02*
X70848500Y-41129000D01*
X67132500Y-42729000D02*
X76926500Y-42729000D01*
X68822500Y-40049000D02*
X75236500Y-40049000D01*
X67498500Y-41729000D02*
X70848500Y-41729000D01*
X73210500Y-41209000D02*
X76266500Y-41209000D01*
X67460500Y-41809000D02*
X70848500Y-41809000D01*
X73210500Y-40809000D02*
X75980500Y-40809000D01*
X67112500Y-42809000D02*
X76946500Y-42809000D01*
X73210500Y-42289000D02*
X76794500Y-42289000D01*
X69252500Y-39729000D02*
X74806500Y-39729000D01*
X67307500Y-42169000D02*
X70848500Y-42169000D01*
X73210500Y-41889000D02*
X76635500Y-41889000D01*
X66984500Y-43730000D02*
X77074500Y-43730000D01*
X69889500Y-39369000D02*
X74169500Y-39369000D01*
X73210500Y-42369000D02*
X76821500Y-42369000D01*
X67646500Y-41449000D02*
X70848500Y-41449000D01*
X67014500Y-43370000D02*
X77044500Y-43370000D01*
X66986500Y-43690000D02*
X77072500Y-43690000D01*
X68176500Y-40689000D02*
X70848500Y-40689000D01*
X67792500Y-41209000D02*
X70848500Y-41209000D01*
X69652500Y-39489000D02*
X74406500Y-39489000D01*
X67070500Y-43009000D02*
X76988500Y-43009000D01*
X73210500Y-42129000D02*
X76735500Y-42129000D01*
X73210500Y-41689000D02*
X76540500Y-41689000D01*
X66991500Y-43610000D02*
X77067500Y-43610000D01*
X67055500Y-43089000D02*
X77003500Y-43089000D01*
X67094500Y-42889000D02*
X76964500Y-42889000D01*
X73210500Y-40689000D02*
X75882500Y-40689000D01*
X73210500Y-42609000D02*
X76894500Y-42609000D01*
X69580500Y-39529000D02*
X74478500Y-39529000D01*
X73210500Y-42209000D02*
X76766500Y-42209000D01*
X73210500Y-41529000D02*
X76457500Y-41529000D01*
X68210500Y-40649000D02*
X70848500Y-40649000D01*
X69314500Y-39689000D02*
X74744500Y-39689000D01*
X67048500Y-43129000D02*
X77010500Y-43129000D01*
X67518500Y-41689000D02*
X70848500Y-41689000D01*
X67388500Y-41969000D02*
X70848500Y-41969000D01*
X66980500Y-43850000D02*
X77078500Y-43850000D01*
X69377500Y-39649000D02*
X74681500Y-39649000D01*
X68511500Y-40329000D02*
X70848500Y-40329000D01*
X67278500Y-42249000D02*
X70848500Y-42249000D01*
X69976500Y-39329000D02*
X74082500Y-39329000D01*
X73210500Y-40569000D02*
X75777500Y-40569000D01*
X69728500Y-39449000D02*
X74330500Y-39449000D01*
X67580500Y-41569000D02*
X70848500Y-41569000D01*
X67223500Y-42409000D02*
X70848500Y-42409000D01*
X67538500Y-41649000D02*
X70848500Y-41649000D01*
X73409500Y-48869357D02*
G75*
G03*
X73412764Y-39071563I-1380000J4899357D01*
G01*
X70646236Y-39071563D02*
G75*
G03*
X70649500Y-48869357I1383264J-4898437D01*
G01*
X73412764Y-39071563D02*
G75*
G03*
X70649500Y-39070643I-1383264J-4898437D01*
G01*
%TO.C,C2*%
X96272800Y-125583500D02*
X97446800Y-125583500D01*
X96272800Y-123861500D02*
X97446800Y-123861500D01*
%TO.C,C4*%
X149157000Y-84648000D02*
X149157000Y-87895000D01*
X148717000Y-90257000D02*
X148717000Y-93717000D01*
X149437000Y-84813000D02*
X149437000Y-87895000D01*
X148637000Y-84402000D02*
X148637000Y-87895000D01*
X151637000Y-87811000D02*
X151637000Y-90341000D01*
X151317000Y-86936000D02*
X151317000Y-91216000D01*
X147517000Y-84089000D02*
X147517000Y-94063000D01*
X150917000Y-86240000D02*
X150917000Y-91912000D01*
X148677000Y-84418000D02*
X148677000Y-87895000D01*
X146796000Y-84026000D02*
X146796000Y-94126000D01*
X149277000Y-84716000D02*
X149277000Y-87895000D01*
X151517000Y-87422000D02*
X151517000Y-90730000D01*
X148157000Y-84233000D02*
X148157000Y-87895000D01*
X147877000Y-84159000D02*
X147877000Y-93993000D01*
X148237000Y-84258000D02*
X148237000Y-87895000D01*
X150077000Y-90257000D02*
X150077000Y-92860000D01*
X148917000Y-84526000D02*
X148917000Y-87895000D01*
X150437000Y-85641000D02*
X150437000Y-92511000D01*
X146836000Y-84027000D02*
X146836000Y-94125000D01*
X147557000Y-84095000D02*
X147557000Y-94057000D01*
X148997000Y-90257000D02*
X148997000Y-93587000D01*
X148117000Y-84222000D02*
X148117000Y-87895000D01*
X148197000Y-90257000D02*
X148197000Y-93907000D01*
X148597000Y-90257000D02*
X148597000Y-93767000D01*
X149037000Y-90257000D02*
X149037000Y-93567000D01*
X149477000Y-90257000D02*
X149477000Y-93313000D01*
X147356000Y-84066000D02*
X147356000Y-94086000D01*
X150397000Y-85599000D02*
X150397000Y-92553000D01*
X150797000Y-86072000D02*
X150797000Y-92080000D01*
X150237000Y-90257000D02*
X150237000Y-92713000D01*
X149117000Y-90257000D02*
X149117000Y-93525000D01*
X149317000Y-84740000D02*
X149317000Y-87895000D01*
X151477000Y-87313000D02*
X151477000Y-90839000D01*
X147316000Y-84061000D02*
X147316000Y-94091000D01*
X151077000Y-86489000D02*
X151077000Y-91663000D01*
X149917000Y-90257000D02*
X149917000Y-92995000D01*
X149517000Y-84865000D02*
X149517000Y-87895000D01*
X148837000Y-84488000D02*
X148837000Y-87895000D01*
X151797000Y-88797000D02*
X151797000Y-89355000D01*
X146996000Y-84033000D02*
X146996000Y-94119000D01*
X150477000Y-85685000D02*
X150477000Y-92467000D01*
X150517000Y-85729000D02*
X150517000Y-92423000D01*
X150277000Y-90257000D02*
X150277000Y-92674000D01*
X149877000Y-90257000D02*
X149877000Y-93027000D01*
X149477000Y-84839000D02*
X149477000Y-87895000D01*
X148317000Y-84284000D02*
X148317000Y-87895000D01*
X148597000Y-84385000D02*
X148597000Y-87895000D01*
X151237000Y-86775000D02*
X151237000Y-91377000D01*
X149837000Y-85094000D02*
X149837000Y-87895000D01*
X150597000Y-85821000D02*
X150597000Y-92331000D01*
X148397000Y-84311000D02*
X148397000Y-87895000D01*
X149957000Y-90257000D02*
X149957000Y-92962000D01*
X146916000Y-84029000D02*
X146916000Y-94123000D01*
X149797000Y-90257000D02*
X149797000Y-93089000D01*
X150157000Y-85364000D02*
X150157000Y-87895000D01*
X150197000Y-85401000D02*
X150197000Y-87895000D01*
X150277000Y-85478000D02*
X150277000Y-87895000D01*
X147997000Y-84189000D02*
X147997000Y-93963000D01*
X151677000Y-87972000D02*
X151677000Y-90180000D01*
X149157000Y-90257000D02*
X149157000Y-93504000D01*
X147797000Y-84141000D02*
X147797000Y-94011000D01*
X150957000Y-86299000D02*
X150957000Y-91853000D01*
X148197000Y-84245000D02*
X148197000Y-87895000D01*
X148037000Y-84200000D02*
X148037000Y-87895000D01*
X142266000Y-88326000D02*
X142266000Y-89826000D01*
X149077000Y-84606000D02*
X149077000Y-87895000D01*
X147236000Y-84052000D02*
X147236000Y-94100000D01*
X149237000Y-84693000D02*
X149237000Y-87895000D01*
X149437000Y-90257000D02*
X149437000Y-93339000D01*
X150997000Y-86361000D02*
X150997000Y-91791000D01*
X148757000Y-90257000D02*
X148757000Y-93700000D01*
X150237000Y-85439000D02*
X150237000Y-87895000D01*
X147156000Y-84045000D02*
X147156000Y-94107000D01*
X149717000Y-85004000D02*
X149717000Y-87895000D01*
X148757000Y-84452000D02*
X148757000Y-87895000D01*
X148077000Y-90257000D02*
X148077000Y-93941000D01*
X147437000Y-84077000D02*
X147437000Y-94075000D01*
X149517000Y-90257000D02*
X149517000Y-93287000D01*
X146876000Y-84028000D02*
X146876000Y-94124000D01*
X150557000Y-85774000D02*
X150557000Y-92378000D01*
X148037000Y-90257000D02*
X148037000Y-93952000D01*
X148997000Y-84565000D02*
X148997000Y-87895000D01*
X148397000Y-90257000D02*
X148397000Y-93841000D01*
X149757000Y-85033000D02*
X149757000Y-87895000D01*
X149277000Y-90257000D02*
X149277000Y-93436000D01*
X149117000Y-84627000D02*
X149117000Y-87895000D01*
X150037000Y-90257000D02*
X150037000Y-92895000D01*
X151437000Y-87210000D02*
X151437000Y-90942000D01*
X148277000Y-84270000D02*
X148277000Y-87895000D01*
X149877000Y-85125000D02*
X149877000Y-87895000D01*
X150117000Y-85328000D02*
X150117000Y-87895000D01*
X149757000Y-90257000D02*
X149757000Y-93119000D01*
X149197000Y-90257000D02*
X149197000Y-93481000D01*
X149357000Y-90257000D02*
X149357000Y-93388000D01*
X151357000Y-87023000D02*
X151357000Y-91129000D01*
X147116000Y-84041000D02*
X147116000Y-94111000D01*
X147396000Y-84071000D02*
X147396000Y-94081000D01*
X150717000Y-85968000D02*
X150717000Y-92184000D01*
X150077000Y-85292000D02*
X150077000Y-87895000D01*
X148477000Y-84339000D02*
X148477000Y-87895000D01*
X147957000Y-84179000D02*
X147957000Y-93973000D01*
X150197000Y-90257000D02*
X150197000Y-92751000D01*
X147477000Y-84083000D02*
X147477000Y-94069000D01*
X149317000Y-90257000D02*
X149317000Y-93412000D01*
X148237000Y-90257000D02*
X148237000Y-93894000D01*
X148797000Y-90257000D02*
X148797000Y-93682000D01*
X149557000Y-90257000D02*
X149557000Y-93261000D01*
X148357000Y-90257000D02*
X148357000Y-93855000D01*
X148477000Y-90257000D02*
X148477000Y-93813000D01*
X148837000Y-90257000D02*
X148837000Y-93664000D01*
X149037000Y-84585000D02*
X149037000Y-87895000D01*
X141516000Y-89076000D02*
X143016000Y-89076000D01*
X150157000Y-90257000D02*
X150157000Y-92788000D01*
X150837000Y-86127000D02*
X150837000Y-92025000D01*
X148117000Y-90257000D02*
X148117000Y-93930000D01*
X149197000Y-84671000D02*
X149197000Y-87895000D01*
X146956000Y-84031000D02*
X146956000Y-94121000D01*
X147597000Y-84102000D02*
X147597000Y-94050000D01*
X150317000Y-85517000D02*
X150317000Y-87895000D01*
X147717000Y-84125000D02*
X147717000Y-94027000D01*
X148357000Y-84297000D02*
X148357000Y-87895000D01*
X147036000Y-84036000D02*
X147036000Y-94116000D01*
X148677000Y-90257000D02*
X148677000Y-93734000D01*
X150357000Y-85558000D02*
X150357000Y-87895000D01*
X147757000Y-84133000D02*
X147757000Y-94019000D01*
X149637000Y-84946000D02*
X149637000Y-87895000D01*
X148957000Y-84545000D02*
X148957000Y-87895000D01*
X148877000Y-90257000D02*
X148877000Y-93645000D01*
X150637000Y-85869000D02*
X150637000Y-92283000D01*
X148157000Y-90257000D02*
X148157000Y-93919000D01*
X147917000Y-84169000D02*
X147917000Y-93983000D01*
X149797000Y-85063000D02*
X149797000Y-87895000D01*
X148877000Y-84507000D02*
X148877000Y-87895000D01*
X146756000Y-84026000D02*
X146756000Y-94126000D01*
X151757000Y-88404000D02*
X151757000Y-89748000D01*
X149557000Y-84891000D02*
X149557000Y-87895000D01*
X150117000Y-90257000D02*
X150117000Y-92824000D01*
X149717000Y-90257000D02*
X149717000Y-93148000D01*
X147837000Y-84150000D02*
X147837000Y-94002000D01*
X150317000Y-90257000D02*
X150317000Y-92635000D01*
X149677000Y-90257000D02*
X149677000Y-93177000D01*
X148277000Y-90257000D02*
X148277000Y-93882000D01*
X149077000Y-90257000D02*
X149077000Y-93546000D01*
X148637000Y-90257000D02*
X148637000Y-93750000D01*
X151557000Y-87540000D02*
X151557000Y-90612000D01*
X151397000Y-87114000D02*
X151397000Y-91038000D01*
X148317000Y-90257000D02*
X148317000Y-93868000D01*
X149397000Y-90257000D02*
X149397000Y-93364000D01*
X149597000Y-84919000D02*
X149597000Y-87895000D01*
X147276000Y-84056000D02*
X147276000Y-94096000D01*
X150877000Y-86182000D02*
X150877000Y-91970000D01*
X147677000Y-84117000D02*
X147677000Y-94035000D01*
X148517000Y-84354000D02*
X148517000Y-87895000D01*
X148917000Y-90257000D02*
X148917000Y-93626000D01*
X149837000Y-90257000D02*
X149837000Y-93058000D01*
X150757000Y-86019000D02*
X150757000Y-92133000D01*
X150357000Y-90257000D02*
X150357000Y-92594000D01*
X148517000Y-90257000D02*
X148517000Y-93798000D01*
X149997000Y-90257000D02*
X149997000Y-92929000D01*
X149357000Y-84764000D02*
X149357000Y-87895000D01*
X149397000Y-84788000D02*
X149397000Y-87895000D01*
X148557000Y-90257000D02*
X148557000Y-93782000D01*
X149997000Y-85223000D02*
X149997000Y-87895000D01*
X151157000Y-86627000D02*
X151157000Y-91525000D01*
X149917000Y-85157000D02*
X149917000Y-87895000D01*
X147196000Y-84048000D02*
X147196000Y-94104000D01*
X149637000Y-90257000D02*
X149637000Y-93206000D01*
X151037000Y-86424000D02*
X151037000Y-91728000D01*
X151277000Y-86854000D02*
X151277000Y-91298000D01*
X147637000Y-84109000D02*
X147637000Y-94043000D01*
X150037000Y-85257000D02*
X150037000Y-87895000D01*
X151197000Y-86699000D02*
X151197000Y-91453000D01*
X148557000Y-84370000D02*
X148557000Y-87895000D01*
X149597000Y-90257000D02*
X149597000Y-93233000D01*
X150677000Y-85918000D02*
X150677000Y-92234000D01*
X148797000Y-84470000D02*
X148797000Y-87895000D01*
X151117000Y-86557000D02*
X151117000Y-91595000D01*
X151717000Y-88163000D02*
X151717000Y-89989000D01*
X151597000Y-87669000D02*
X151597000Y-90483000D01*
X148957000Y-90257000D02*
X148957000Y-93607000D01*
X148717000Y-84435000D02*
X148717000Y-87895000D01*
X149957000Y-85190000D02*
X149957000Y-87895000D01*
X148437000Y-84325000D02*
X148437000Y-87895000D01*
X147076000Y-84038000D02*
X147076000Y-94114000D01*
X149677000Y-84975000D02*
X149677000Y-87895000D01*
X148077000Y-84211000D02*
X148077000Y-87895000D01*
X149237000Y-90257000D02*
X149237000Y-93459000D01*
X148437000Y-90257000D02*
X148437000Y-93827000D01*
X146716000Y-84026000D02*
X146716000Y-94126000D01*
X141816643Y-90456000D02*
G75*
G03*
X151614437Y-90459264I4899357J1380000D01*
G01*
X151614437Y-87692736D02*
G75*
G03*
X141816643Y-87696000I-4898437J-1383264D01*
G01*
X151614437Y-90459264D02*
G75*
G03*
X151615357Y-87696000I-4898437J1383264D01*
G01*
%TO.C,Vout*%
X66987600Y-41512000D02*
X61907600Y-41512000D01*
X66987600Y-35172000D02*
X66987600Y-41512000D01*
X61907600Y-35172000D02*
X61907600Y-41512000D01*
X61907600Y-35172000D02*
X66987600Y-35172000D01*
X66987600Y-37072000D02*
X61907600Y-37072000D01*
%TO.C,C1*%
X133889000Y-75769000D02*
X130665000Y-75769000D01*
X133954000Y-75649000D02*
X130665000Y-75649000D01*
X131537000Y-77929000D02*
X127431000Y-77929000D01*
X134175000Y-75169000D02*
X130665000Y-75169000D01*
X130234000Y-68838000D02*
X128734000Y-68838000D01*
X133796000Y-75929000D02*
X130665000Y-75929000D01*
X134531000Y-73488000D02*
X124437000Y-73488000D01*
X130397000Y-78289000D02*
X128571000Y-78289000D01*
X133497000Y-76369000D02*
X130665000Y-76369000D01*
X128303000Y-75569000D02*
X124973000Y-75569000D01*
X133121000Y-76809000D02*
X130665000Y-76809000D01*
X133403000Y-76489000D02*
X130665000Y-76489000D01*
X134349000Y-74649000D02*
X130665000Y-74649000D01*
X128303000Y-74689000D02*
X124630000Y-74689000D01*
X128303000Y-76329000D02*
X125441000Y-76329000D01*
X134534000Y-73288000D02*
X124434000Y-73288000D01*
X128303000Y-75409000D02*
X124896000Y-75409000D01*
X128303000Y-76209000D02*
X125354000Y-76209000D01*
X130156000Y-78329000D02*
X128812000Y-78329000D01*
X134524000Y-73608000D02*
X124444000Y-73608000D01*
X134381000Y-74529000D02*
X124587000Y-74529000D01*
X134190000Y-75129000D02*
X130665000Y-75129000D01*
X133912000Y-75729000D02*
X130665000Y-75729000D01*
X133466000Y-76409000D02*
X130665000Y-76409000D01*
X134090000Y-75369000D02*
X130665000Y-75369000D01*
X132378000Y-77449000D02*
X126590000Y-77449000D01*
X128303000Y-74609000D02*
X124608000Y-74609000D01*
X133933000Y-75689000D02*
X130665000Y-75689000D01*
X131138000Y-78089000D02*
X127830000Y-78089000D01*
X134072000Y-75409000D02*
X130665000Y-75409000D01*
X134249000Y-74969000D02*
X130665000Y-74969000D01*
X132261000Y-77529000D02*
X126707000Y-77529000D01*
X128303000Y-76049000D02*
X125247000Y-76049000D01*
X134489000Y-73968000D02*
X124479000Y-73968000D01*
X132320000Y-77489000D02*
X126648000Y-77489000D01*
X128303000Y-74849000D02*
X124678000Y-74849000D01*
X131020000Y-78129000D02*
X127948000Y-78129000D01*
X128303000Y-76129000D02*
X125299000Y-76129000D01*
X132433000Y-77409000D02*
X126535000Y-77409000D01*
X133995000Y-75569000D02*
X130665000Y-75569000D01*
X128303000Y-75129000D02*
X124778000Y-75129000D01*
X128303000Y-76089000D02*
X125273000Y-76089000D01*
X128303000Y-74649000D02*
X124619000Y-74649000D01*
X128303000Y-76249000D02*
X125383000Y-76249000D01*
X134206000Y-75089000D02*
X130665000Y-75089000D01*
X128303000Y-74809000D02*
X124666000Y-74809000D01*
X128303000Y-75529000D02*
X124953000Y-75529000D01*
X133772000Y-75969000D02*
X130665000Y-75969000D01*
X133975000Y-75609000D02*
X130665000Y-75609000D01*
X134125000Y-75289000D02*
X130665000Y-75289000D01*
X128303000Y-75289000D02*
X124843000Y-75289000D01*
X133556000Y-76289000D02*
X130665000Y-76289000D01*
X133527000Y-76329000D02*
X130665000Y-76329000D01*
X128303000Y-75969000D02*
X125196000Y-75969000D01*
X128303000Y-75009000D02*
X124733000Y-75009000D01*
X128303000Y-76529000D02*
X125598000Y-76529000D01*
X128303000Y-76449000D02*
X125533000Y-76449000D01*
X133867000Y-75809000D02*
X130665000Y-75809000D01*
X128303000Y-76169000D02*
X125327000Y-76169000D01*
X128303000Y-75929000D02*
X125172000Y-75929000D01*
X134315000Y-74769000D02*
X130665000Y-74769000D01*
X128303000Y-75729000D02*
X125056000Y-75729000D01*
X134512000Y-73768000D02*
X124456000Y-73768000D01*
X134504000Y-73848000D02*
X124464000Y-73848000D01*
X128303000Y-75089000D02*
X124762000Y-75089000D01*
X128303000Y-74969000D02*
X124719000Y-74969000D01*
X134435000Y-74289000D02*
X124533000Y-74289000D01*
X134508000Y-73808000D02*
X124460000Y-73808000D01*
X134533000Y-73408000D02*
X124435000Y-73408000D01*
X128303000Y-76609000D02*
X125665000Y-76609000D01*
X133585000Y-76249000D02*
X130665000Y-76249000D01*
X133669000Y-76129000D02*
X130665000Y-76129000D01*
X128303000Y-74729000D02*
X124641000Y-74729000D01*
X133159000Y-76769000D02*
X130665000Y-76769000D01*
X132071000Y-77649000D02*
X126897000Y-77649000D01*
X130749000Y-78209000D02*
X128219000Y-78209000D01*
X128303000Y-76929000D02*
X125966000Y-76929000D01*
X128303000Y-76889000D02*
X125925000Y-76889000D01*
X128303000Y-75849000D02*
X125124000Y-75849000D01*
X134471000Y-74089000D02*
X124497000Y-74089000D01*
X134477000Y-74049000D02*
X124491000Y-74049000D01*
X134142000Y-75249000D02*
X130665000Y-75249000D01*
X131624000Y-77889000D02*
X127344000Y-77889000D01*
X134053000Y-75449000D02*
X130665000Y-75449000D01*
X132199000Y-77569000D02*
X126769000Y-77569000D01*
X133614000Y-76209000D02*
X130665000Y-76209000D01*
X134483000Y-74009000D02*
X124485000Y-74009000D01*
X133268000Y-76649000D02*
X130665000Y-76649000D01*
X132831000Y-77089000D02*
X126137000Y-77089000D01*
X133695000Y-76089000D02*
X130665000Y-76089000D01*
X134401000Y-74449000D02*
X124567000Y-74449000D01*
X134499000Y-73888000D02*
X124469000Y-73888000D01*
X132961000Y-76969000D02*
X126007000Y-76969000D01*
X132919000Y-77009000D02*
X126049000Y-77009000D01*
X134034000Y-75489000D02*
X130665000Y-75489000D01*
X132003000Y-77689000D02*
X126965000Y-77689000D01*
X134391000Y-74489000D02*
X124577000Y-74489000D01*
X134532000Y-73448000D02*
X124436000Y-73448000D01*
X128303000Y-75609000D02*
X124993000Y-75609000D01*
X128303000Y-75169000D02*
X124793000Y-75169000D01*
X133196000Y-76729000D02*
X130665000Y-76729000D01*
X134527000Y-73568000D02*
X124441000Y-73568000D01*
X131785000Y-77809000D02*
X127183000Y-77809000D01*
X128303000Y-74929000D02*
X124705000Y-74929000D01*
X131350000Y-78009000D02*
X127618000Y-78009000D01*
X134465000Y-74129000D02*
X124503000Y-74129000D01*
X132739000Y-77169000D02*
X126229000Y-77169000D01*
X129763000Y-78369000D02*
X129205000Y-78369000D01*
X133303000Y-76609000D02*
X130665000Y-76609000D01*
X128303000Y-76729000D02*
X125772000Y-76729000D01*
X134302000Y-74809000D02*
X130665000Y-74809000D01*
X132488000Y-77369000D02*
X126480000Y-77369000D01*
X134529000Y-73528000D02*
X124439000Y-73528000D01*
X134519000Y-73688000D02*
X124449000Y-73688000D01*
X128303000Y-76489000D02*
X125565000Y-76489000D01*
X133435000Y-76449000D02*
X130665000Y-76449000D01*
X134494000Y-73928000D02*
X124474000Y-73928000D01*
X128303000Y-76849000D02*
X125886000Y-76849000D01*
X132136000Y-77609000D02*
X126832000Y-77609000D01*
X134410000Y-74409000D02*
X124558000Y-74409000D01*
X134338000Y-74689000D02*
X130665000Y-74689000D01*
X134534000Y-73368000D02*
X124434000Y-73368000D01*
X128303000Y-75329000D02*
X124860000Y-75329000D01*
X134515000Y-73728000D02*
X124453000Y-73728000D01*
X133641000Y-76169000D02*
X130665000Y-76169000D01*
X128303000Y-75889000D02*
X125148000Y-75889000D01*
X134427000Y-74329000D02*
X124541000Y-74329000D01*
X132691000Y-77209000D02*
X126277000Y-77209000D01*
X134276000Y-74889000D02*
X130665000Y-74889000D01*
X131446000Y-77969000D02*
X127522000Y-77969000D01*
X128303000Y-75769000D02*
X125079000Y-75769000D01*
X128303000Y-76769000D02*
X125809000Y-76769000D01*
X128303000Y-74769000D02*
X124653000Y-74769000D01*
X131247000Y-78049000D02*
X127721000Y-78049000D01*
X133232000Y-76689000D02*
X130665000Y-76689000D01*
X133747000Y-76009000D02*
X130665000Y-76009000D01*
X128303000Y-75809000D02*
X125101000Y-75809000D01*
X132592000Y-77289000D02*
X126376000Y-77289000D01*
X134371000Y-74569000D02*
X124597000Y-74569000D01*
X134419000Y-74369000D02*
X124549000Y-74369000D01*
X132541000Y-77329000D02*
X126427000Y-77329000D01*
X133820000Y-75889000D02*
X130665000Y-75889000D01*
X134443000Y-74249000D02*
X124525000Y-74249000D01*
X128303000Y-76369000D02*
X125471000Y-76369000D01*
X128303000Y-75249000D02*
X124826000Y-75249000D01*
X134327000Y-74729000D02*
X130665000Y-74729000D01*
X133721000Y-76049000D02*
X130665000Y-76049000D01*
X128303000Y-75369000D02*
X124878000Y-75369000D01*
X128303000Y-76409000D02*
X125502000Y-76409000D01*
X128303000Y-76009000D02*
X125221000Y-76009000D01*
X134235000Y-75009000D02*
X130665000Y-75009000D01*
X134221000Y-75049000D02*
X130665000Y-75049000D01*
X134522000Y-73648000D02*
X124446000Y-73648000D01*
X133002000Y-76929000D02*
X130665000Y-76929000D01*
X128303000Y-75049000D02*
X124747000Y-75049000D01*
X133370000Y-76529000D02*
X130665000Y-76529000D01*
X133337000Y-76569000D02*
X130665000Y-76569000D01*
X128303000Y-76649000D02*
X125700000Y-76649000D01*
X128303000Y-74889000D02*
X124692000Y-74889000D01*
X128303000Y-75689000D02*
X125035000Y-75689000D01*
X128303000Y-75649000D02*
X125014000Y-75649000D01*
X130588000Y-78249000D02*
X128380000Y-78249000D01*
X134290000Y-74849000D02*
X130665000Y-74849000D01*
X131933000Y-77729000D02*
X127035000Y-77729000D01*
X128303000Y-76569000D02*
X125631000Y-76569000D01*
X131861000Y-77769000D02*
X127107000Y-77769000D01*
X133844000Y-75849000D02*
X130665000Y-75849000D01*
X128303000Y-75449000D02*
X124915000Y-75449000D01*
X134263000Y-74929000D02*
X130665000Y-74929000D01*
X134108000Y-75329000D02*
X130665000Y-75329000D01*
X133043000Y-76889000D02*
X130665000Y-76889000D01*
X128303000Y-75489000D02*
X124934000Y-75489000D01*
X131706000Y-77849000D02*
X127262000Y-77849000D01*
X134158000Y-75209000D02*
X130665000Y-75209000D01*
X128303000Y-76689000D02*
X125736000Y-76689000D01*
X134458000Y-74169000D02*
X124510000Y-74169000D01*
X132642000Y-77249000D02*
X126326000Y-77249000D01*
X134534000Y-73328000D02*
X124434000Y-73328000D01*
X134015000Y-75529000D02*
X130665000Y-75529000D01*
X132786000Y-77129000D02*
X126182000Y-77129000D01*
X134451000Y-74209000D02*
X124517000Y-74209000D01*
X128303000Y-76289000D02*
X125412000Y-76289000D01*
X132875000Y-77049000D02*
X126093000Y-77049000D01*
X134360000Y-74609000D02*
X130665000Y-74609000D01*
X129484000Y-68088000D02*
X129484000Y-69588000D01*
X133082000Y-76849000D02*
X130665000Y-76849000D01*
X130891000Y-78169000D02*
X128077000Y-78169000D01*
X128303000Y-75209000D02*
X124810000Y-75209000D01*
X128303000Y-76809000D02*
X125847000Y-76809000D01*
X130867264Y-78186437D02*
G75*
G03*
X130864000Y-68388643I-1383264J4898437D01*
G01*
X128104000Y-68388643D02*
G75*
G03*
X128100736Y-78186437I1380000J-4899357D01*
G01*
X128100736Y-78186437D02*
G75*
G03*
X130864000Y-78187357I1383264J4898437D01*
G01*
D10*
%TO.C,U1*%
X95397500Y-47232000D02*
X95397500Y-47486000D01*
X99588500Y-42279000D02*
X102001500Y-42279000D01*
X102001500Y-49772000D02*
X102001500Y-50026000D01*
X95397500Y-44692000D02*
X95397500Y-44946000D01*
X102001500Y-42279000D02*
X102001500Y-42406000D01*
X95397500Y-49772000D02*
X95397500Y-50026000D01*
X102001500Y-52439000D02*
X102001500Y-52312000D01*
X102001500Y-47232000D02*
X102001500Y-47486000D01*
X95397500Y-52439000D02*
X102001500Y-52439000D01*
X95397500Y-52439000D02*
X95397500Y-52312000D01*
X97810500Y-42279000D02*
X95397500Y-42279000D01*
X102001500Y-44692000D02*
X102001500Y-44946000D01*
X95397500Y-42279000D02*
X95397500Y-42406000D01*
X98699500Y-43168000D02*
G75*
G03*
X99588500Y-42279000I0J889000D01*
G01*
X97810500Y-42279000D02*
G75*
G03*
X98699500Y-43168000I889000J0D01*
G01*
X96794500Y-43168000D02*
G75*
G03*
X96794500Y-43168000I-254000J0D01*
G01*
D11*
%TO.C,C5*%
X155745000Y-82825000D02*
X154571000Y-82825000D01*
X155745000Y-81103000D02*
X154571000Y-81103000D01*
D10*
%TO.C,L2*%
X81554500Y-51804000D02*
G75*
G03*
X81554500Y-51804000I-3810000J0D01*
G01*
%TO.C,U1*%
X91545800Y-112543200D02*
X91545800Y-112670200D01*
X98149800Y-120036200D02*
X98149800Y-120290200D01*
X98149800Y-122703200D02*
X98149800Y-122576200D01*
X91545800Y-120036200D02*
X91545800Y-120290200D01*
X98149800Y-114956200D02*
X98149800Y-115210200D01*
X91545800Y-122703200D02*
X91545800Y-122576200D01*
X91545800Y-122703200D02*
X98149800Y-122703200D01*
X91545800Y-117496200D02*
X91545800Y-117750200D01*
X91545800Y-114956200D02*
X91545800Y-115210200D01*
X93958800Y-112543200D02*
X91545800Y-112543200D01*
X98149800Y-112543200D02*
X98149800Y-112670200D01*
X98149800Y-117496200D02*
X98149800Y-117750200D01*
X95736800Y-112543200D02*
X98149800Y-112543200D01*
X94847800Y-113432200D02*
G75*
G03*
X95736800Y-112543200I0J889000D01*
G01*
X93958800Y-112543200D02*
G75*
G03*
X94847800Y-113432200I889000J0D01*
G01*
X92942800Y-113432200D02*
G75*
G03*
X92942800Y-113432200I-254000J0D01*
G01*
D11*
%TO.C,C3*%
X68281760Y-75923440D02*
X71201760Y-75923440D01*
X67517760Y-77523440D02*
X71201760Y-77523440D01*
X67741760Y-76883440D02*
X71201760Y-76883440D01*
X69863760Y-74483440D02*
X74901760Y-74483440D01*
X67933760Y-76483440D02*
X71201760Y-76483440D01*
X73563760Y-75483440D02*
X76130760Y-75483440D01*
X68784760Y-75323440D02*
X71201760Y-75323440D01*
X67912760Y-76523440D02*
X71201760Y-76523440D01*
X73563760Y-76723440D02*
X76951760Y-76723440D01*
X73563760Y-76563440D02*
X76873760Y-76563440D01*
X67377760Y-78204440D02*
X77387760Y-78204440D01*
X67999760Y-76363440D02*
X71201760Y-76363440D01*
X67423760Y-77923440D02*
X77341760Y-77923440D01*
X72103760Y-73803440D02*
X72661760Y-73803440D01*
X73563760Y-77363440D02*
X77200760Y-77363440D01*
X67395760Y-78083440D02*
X77369760Y-78083440D01*
X69274760Y-74883440D02*
X75490760Y-74883440D01*
X68225760Y-76003440D02*
X71201760Y-76003440D01*
X71710760Y-73843440D02*
X73054760Y-73843440D01*
X68947760Y-75163440D02*
X75817760Y-75163440D01*
X73563760Y-75923440D02*
X76483760Y-75923440D01*
X67871760Y-76603440D02*
X71201760Y-76603440D01*
X69546760Y-74683440D02*
X75218760Y-74683440D01*
X67337760Y-78644440D02*
X77427760Y-78644440D01*
X73563760Y-77163440D02*
X77133760Y-77163440D01*
X67332760Y-78844440D02*
X77432760Y-78844440D01*
X67603760Y-77243440D02*
X71201760Y-77243440D01*
X69127760Y-75003440D02*
X75637760Y-75003440D01*
X68369760Y-75803440D02*
X71201760Y-75803440D01*
X67676760Y-77043440D02*
X71201760Y-77043440D01*
X68991760Y-75123440D02*
X75773760Y-75123440D01*
X69080760Y-75043440D02*
X75684760Y-75043440D01*
X73563760Y-75883440D02*
X76454760Y-75883440D01*
X67724760Y-76923440D02*
X71201760Y-76923440D01*
X67401760Y-78043440D02*
X77363760Y-78043440D01*
X73563760Y-77243440D02*
X77161760Y-77243440D01*
X68496760Y-75643440D02*
X71201760Y-75643440D01*
X73563760Y-77563440D02*
X77258760Y-77563440D01*
X67645760Y-77123440D02*
X71201760Y-77123440D01*
X68145760Y-76123440D02*
X71201760Y-76123440D01*
X73563760Y-76803440D02*
X76988760Y-76803440D01*
X67347760Y-78484440D02*
X77417760Y-78484440D01*
X67691760Y-77003440D02*
X71201760Y-77003440D01*
X68431760Y-75723440D02*
X71201760Y-75723440D01*
X73563760Y-76243440D02*
X76694760Y-76243440D01*
X68707760Y-75403440D02*
X71201760Y-75403440D01*
X67813760Y-76723440D02*
X71201760Y-76723440D01*
X73563760Y-76003440D02*
X76539760Y-76003440D01*
X73563760Y-77003440D02*
X77073760Y-77003440D01*
X69224760Y-74923440D02*
X75540760Y-74923440D01*
X68670760Y-75443440D02*
X71201760Y-75443440D01*
X73563760Y-76443440D02*
X76810760Y-76443440D01*
X73563760Y-76683440D02*
X76932760Y-76683440D01*
X73563760Y-76883440D02*
X77023760Y-76883440D01*
X73563760Y-77283440D02*
X77174760Y-77283440D01*
X68563760Y-75563440D02*
X71201760Y-75563440D01*
X69605760Y-74643440D02*
X75159760Y-74643440D01*
X73563760Y-75443440D02*
X76094760Y-75443440D01*
X73563760Y-76403440D02*
X76787760Y-76403440D01*
X73563760Y-76523440D02*
X76852760Y-76523440D01*
X68400760Y-75763440D02*
X71201760Y-75763440D01*
X68864760Y-75243440D02*
X71201760Y-75243440D01*
X69325760Y-74843440D02*
X75439760Y-74843440D01*
X69488760Y-74723440D02*
X75276760Y-74723440D01*
X69667760Y-74603440D02*
X75097760Y-74603440D01*
X70619760Y-74123440D02*
X74145760Y-74123440D01*
X67776760Y-76803440D02*
X71201760Y-76803440D01*
X70728760Y-74083440D02*
X74036760Y-74083440D01*
X73563760Y-76323440D02*
X76742760Y-76323440D01*
X73563760Y-77403440D02*
X77213760Y-77403440D01*
X67576760Y-77323440D02*
X71201760Y-77323440D01*
X68197760Y-76043440D02*
X71201760Y-76043440D01*
X73563760Y-76203440D02*
X76670760Y-76203440D01*
X67389760Y-78123440D02*
X77375760Y-78123440D01*
X73563760Y-75283440D02*
X75941760Y-75283440D01*
X67590760Y-77283440D02*
X71201760Y-77283440D01*
X71469760Y-73883440D02*
X73295760Y-73883440D01*
X68905760Y-75203440D02*
X75859760Y-75203440D01*
X69795760Y-74523440D02*
X74969760Y-74523440D01*
X69433760Y-74763440D02*
X75331760Y-74763440D01*
X67439760Y-77843440D02*
X77325760Y-77843440D01*
X73563760Y-77043440D02*
X77088760Y-77043440D01*
X70420760Y-74203440D02*
X74344760Y-74203440D01*
X73563760Y-76923440D02*
X77040760Y-76923440D01*
X68252760Y-75963440D02*
X71201760Y-75963440D01*
X67758760Y-76843440D02*
X71201760Y-76843440D01*
X67660760Y-77083440D02*
X71201760Y-77083440D01*
X73563760Y-76483440D02*
X76831760Y-76483440D01*
X69035760Y-75083440D02*
X75729760Y-75083440D01*
X73563760Y-75603440D02*
X76235760Y-75603440D01*
X67372760Y-78244440D02*
X77392760Y-78244440D01*
X73563760Y-76643440D02*
X76913760Y-76643440D01*
X67362760Y-78324440D02*
X77402760Y-78324440D01*
X69730760Y-74563440D02*
X75034760Y-74563440D01*
X69933760Y-74443440D02*
X74831760Y-74443440D01*
X67539760Y-77443440D02*
X71201760Y-77443440D01*
X67708760Y-76963440D02*
X71201760Y-76963440D01*
X68022760Y-76323440D02*
X71201760Y-76323440D01*
X68171760Y-76083440D02*
X71201760Y-76083440D01*
X73563760Y-77443440D02*
X77225760Y-77443440D01*
X70005760Y-74403440D02*
X74759760Y-74403440D01*
X67832760Y-76683440D02*
X71201760Y-76683440D01*
X67335760Y-78684440D02*
X77429760Y-78684440D01*
X70081760Y-74363440D02*
X74683760Y-74363440D01*
X67344760Y-78524440D02*
X77420760Y-78524440D01*
X71632760Y-83334440D02*
X73132760Y-83334440D01*
X73563760Y-75363440D02*
X76019760Y-75363440D01*
X73563760Y-75563440D02*
X76201760Y-75563440D01*
X70975760Y-74003440D02*
X73789760Y-74003440D01*
X71117760Y-73963440D02*
X73647760Y-73963440D01*
X67977760Y-76403440D02*
X71201760Y-76403440D01*
X67431760Y-77883440D02*
X77333760Y-77883440D01*
X72382760Y-84084440D02*
X72382760Y-82584440D01*
X68339760Y-75843440D02*
X71201760Y-75843440D01*
X73563760Y-75403440D02*
X76057760Y-75403440D01*
X70242760Y-74283440D02*
X74522760Y-74283440D01*
X68529760Y-75603440D02*
X71201760Y-75603440D01*
X67465760Y-77723440D02*
X77299760Y-77723440D01*
X73563760Y-75683440D02*
X76301760Y-75683440D01*
X73563760Y-76363440D02*
X76765760Y-76363440D01*
X73563760Y-76043440D02*
X76567760Y-76043440D01*
X71278760Y-73923440D02*
X73486760Y-73923440D01*
X73563760Y-76083440D02*
X76593760Y-76083440D01*
X67415760Y-77963440D02*
X77349760Y-77963440D01*
X73563760Y-76843440D02*
X77006760Y-76843440D01*
X67334760Y-78724440D02*
X77430760Y-78724440D01*
X67367760Y-78284440D02*
X77397760Y-78284440D01*
X68634760Y-75483440D02*
X71201760Y-75483440D01*
X70846760Y-74043440D02*
X73918760Y-74043440D01*
X67617760Y-77203440D02*
X71201760Y-77203440D01*
X67475760Y-77683440D02*
X77289760Y-77683440D01*
X68310760Y-75883440D02*
X71201760Y-75883440D01*
X73563760Y-75763440D02*
X76364760Y-75763440D01*
X67506760Y-77563440D02*
X71201760Y-77563440D01*
X67339760Y-78604440D02*
X77425760Y-78604440D01*
X68046760Y-76283440D02*
X71201760Y-76283440D01*
X67528760Y-77483440D02*
X71201760Y-77483440D01*
X73563760Y-76123440D02*
X76619760Y-76123440D01*
X68094760Y-76203440D02*
X71201760Y-76203440D01*
X73563760Y-75843440D02*
X76425760Y-75843440D01*
X73563760Y-77203440D02*
X77147760Y-77203440D01*
X73563760Y-75963440D02*
X76512760Y-75963440D01*
X73563760Y-76283440D02*
X76718760Y-76283440D01*
X68070760Y-76243440D02*
X71201760Y-76243440D01*
X73563760Y-77323440D02*
X77188760Y-77323440D01*
X73563760Y-75323440D02*
X75980760Y-75323440D01*
X67332760Y-78804440D02*
X77432760Y-78804440D01*
X67485760Y-77643440D02*
X77279760Y-77643440D01*
X67408760Y-78003440D02*
X77356760Y-78003440D01*
X67332760Y-78884440D02*
X77432760Y-78884440D01*
X73563760Y-75243440D02*
X75900760Y-75243440D01*
X68119760Y-76163440D02*
X71201760Y-76163440D01*
X70160760Y-74323440D02*
X74604760Y-74323440D01*
X67354760Y-78404440D02*
X77410760Y-78404440D01*
X67891760Y-76563440D02*
X71201760Y-76563440D01*
X73563760Y-75803440D02*
X76395760Y-75803440D01*
X67342760Y-78564440D02*
X77422760Y-78564440D01*
X68598760Y-75523440D02*
X71201760Y-75523440D01*
X67851760Y-76643440D02*
X71201760Y-76643440D01*
X67333760Y-78764440D02*
X77431760Y-78764440D01*
X70329760Y-74243440D02*
X74435760Y-74243440D01*
X67447760Y-77803440D02*
X77317760Y-77803440D01*
X73563760Y-77083440D02*
X77104760Y-77083440D01*
X70516760Y-74163440D02*
X74248760Y-74163440D01*
X73563760Y-75723440D02*
X76333760Y-75723440D01*
X67794760Y-76763440D02*
X71201760Y-76763440D01*
X73563760Y-76163440D02*
X76645760Y-76163440D01*
X73563760Y-77123440D02*
X77119760Y-77123440D01*
X67631760Y-77163440D02*
X71201760Y-77163440D01*
X73563760Y-77523440D02*
X77247760Y-77523440D01*
X67351760Y-78444440D02*
X77413760Y-78444440D01*
X67456760Y-77763440D02*
X77308760Y-77763440D01*
X73563760Y-77483440D02*
X77236760Y-77483440D01*
X67551760Y-77403440D02*
X71201760Y-77403440D01*
X68463760Y-75683440D02*
X71201760Y-75683440D01*
X67954760Y-76443440D02*
X71201760Y-76443440D01*
X69378760Y-74803440D02*
X75386760Y-74803440D01*
X67358760Y-78364440D02*
X77406760Y-78364440D01*
X67564760Y-77363440D02*
X71201760Y-77363440D01*
X67495760Y-77603440D02*
X77269760Y-77603440D01*
X73563760Y-76603440D02*
X76893760Y-76603440D01*
X68823760Y-75283440D02*
X71201760Y-75283440D01*
X73563760Y-76963440D02*
X77056760Y-76963440D01*
X69175760Y-74963440D02*
X75589760Y-74963440D01*
X73563760Y-75523440D02*
X76166760Y-75523440D01*
X73563760Y-76763440D02*
X76970760Y-76763440D01*
X73563760Y-75643440D02*
X76268760Y-75643440D01*
X67383760Y-78163440D02*
X77381760Y-78163440D01*
X68745760Y-75363440D02*
X71201760Y-75363440D01*
X73766024Y-73986003D02*
G75*
G03*
X71002760Y-73985083I-1383264J-4898437D01*
G01*
X70999496Y-73986003D02*
G75*
G03*
X71002760Y-83783797I1383264J-4898437D01*
G01*
X73762760Y-83783797D02*
G75*
G03*
X73766024Y-73986003I-1380000J4899357D01*
G01*
D10*
%TO.C,U1*%
X86545800Y-74511200D02*
X86545800Y-74765200D01*
X86545800Y-72098200D02*
X86545800Y-72225200D01*
X93149800Y-77051200D02*
X93149800Y-77305200D01*
X90736800Y-72098200D02*
X93149800Y-72098200D01*
X86545800Y-79591200D02*
X86545800Y-79845200D01*
X86545800Y-82258200D02*
X86545800Y-82131200D01*
X86545800Y-82258200D02*
X93149800Y-82258200D01*
X86545800Y-77051200D02*
X86545800Y-77305200D01*
X93149800Y-79591200D02*
X93149800Y-79845200D01*
X93149800Y-72098200D02*
X93149800Y-72225200D01*
X88958800Y-72098200D02*
X86545800Y-72098200D01*
X93149800Y-82258200D02*
X93149800Y-82131200D01*
X93149800Y-74511200D02*
X93149800Y-74765200D01*
X88958800Y-72098200D02*
G75*
G03*
X89847800Y-72987200I889000J0D01*
G01*
X89847800Y-72987200D02*
G75*
G03*
X90736800Y-72098200I0J889000D01*
G01*
X87942800Y-72987200D02*
G75*
G03*
X87942800Y-72987200I-254000J0D01*
G01*
D11*
%TO.C,C5*%
X106030000Y-60285000D02*
X107204000Y-60285000D01*
X106030000Y-58563000D02*
X107204000Y-58563000D01*
%TO.C,D1*%
X91016000Y-42744667D02*
X90127000Y-41559333D01*
X91905000Y-41559333D02*
X91016000Y-42744667D01*
X91016000Y-42577101D02*
X91016000Y-41312000D01*
X90127000Y-41559333D02*
X91905000Y-41559333D01*
X90127000Y-42744667D02*
X91905000Y-42744667D01*
X93130899Y-44692000D02*
G75*
G03*
X93130899Y-44692000I-2114899J0D01*
G01*
%TO.C,C2*%
X97909500Y-55268500D02*
X96735500Y-55268500D01*
X97909500Y-53546500D02*
X96735500Y-53546500D01*
%TO.C,D1*%
X82862461Y-110841400D02*
X81597360Y-110841400D01*
X83030027Y-111730400D02*
X83030027Y-109952400D01*
X81844693Y-109952400D02*
X83030027Y-110841400D01*
X83030027Y-110841400D02*
X81844693Y-111730400D01*
X81844693Y-111730400D02*
X81844693Y-109952400D01*
X87092259Y-110841400D02*
G75*
G03*
X87092259Y-110841400I-2114899J0D01*
G01*
D10*
%TO.C,L1*%
X80561560Y-79545480D02*
X80063720Y-80645300D01*
X81262600Y-77744620D02*
X80462500Y-76743860D01*
X80863820Y-77945280D02*
X79962120Y-77043580D01*
X80962880Y-79845200D02*
X80663160Y-80945020D01*
X81262600Y-76543200D02*
X81262600Y-77744620D01*
X80561560Y-78143400D02*
X79461740Y-77543960D01*
X81262600Y-79845200D02*
X81262600Y-81044080D01*
X80363440Y-79144160D02*
X79461740Y-80043320D01*
X80462500Y-78344060D02*
X79162020Y-78245000D01*
X80363440Y-78745380D02*
X79062960Y-79045100D01*
X83563840Y-78844440D02*
G75*
G03*
X83563840Y-78844440I-2301240J0D01*
G01*
X82263360Y-78844440D02*
G75*
G03*
X82263360Y-78844440I-1000760J0D01*
G01*
D11*
%TO.C,C1*%
X102245440Y-71346300D02*
X105469440Y-71346300D01*
X102245440Y-71226300D02*
X105400440Y-71226300D01*
X98228440Y-69626300D02*
X103900440Y-69626300D01*
X102245440Y-70946300D02*
X105221440Y-70946300D01*
X97629440Y-70106300D02*
X104499440Y-70106300D01*
X96024440Y-73507300D02*
X106104440Y-73507300D01*
X98924440Y-69226300D02*
X103204440Y-69226300D01*
X96177440Y-72546300D02*
X105951440Y-72546300D01*
X96188440Y-72506300D02*
X99883440Y-72506300D01*
X102245440Y-71986300D02*
X105770440Y-71986300D01*
X96594440Y-71466300D02*
X99883440Y-71466300D01*
X96157440Y-72626300D02*
X105971440Y-72626300D01*
X102245440Y-71426300D02*
X105513440Y-71426300D01*
X98170440Y-69666300D02*
X103958440Y-69666300D01*
X102245440Y-72506300D02*
X105940440Y-72506300D01*
X102245440Y-72266300D02*
X105870440Y-72266300D01*
X102245440Y-72306300D02*
X105882440Y-72306300D01*
X98687440Y-69346300D02*
X103441440Y-69346300D01*
X99799440Y-68906300D02*
X102329440Y-68906300D01*
X96358440Y-71986300D02*
X99883440Y-71986300D01*
X102245440Y-71626300D02*
X105614440Y-71626300D01*
X98412440Y-69506300D02*
X103716440Y-69506300D01*
X102245440Y-70386300D02*
X104776440Y-70386300D01*
X98349440Y-69546300D02*
X103779440Y-69546300D01*
X102245440Y-72426300D02*
X105918440Y-72426300D01*
X102245440Y-70266300D02*
X104662440Y-70266300D01*
X96083440Y-72986300D02*
X106045440Y-72986300D01*
X96514440Y-71626300D02*
X99883440Y-71626300D01*
X96992440Y-70826300D02*
X99883440Y-70826300D01*
X96029440Y-73427300D02*
X106099440Y-73427300D01*
X96406440Y-71866300D02*
X99883440Y-71866300D01*
X96476440Y-71706300D02*
X99883440Y-71706300D01*
X96342440Y-72026300D02*
X99883440Y-72026300D01*
X97316440Y-70426300D02*
X99883440Y-70426300D01*
X96636440Y-71386300D02*
X99883440Y-71386300D01*
X102245440Y-71026300D02*
X105275440Y-71026300D01*
X96246440Y-72306300D02*
X99883440Y-72306300D01*
X96327440Y-72066300D02*
X99883440Y-72066300D01*
X99657440Y-68946300D02*
X102471440Y-68946300D01*
X96015440Y-73707300D02*
X106113440Y-73707300D01*
X96313440Y-72106300D02*
X99883440Y-72106300D01*
X97956440Y-69826300D02*
X104172440Y-69826300D01*
X102245440Y-70466300D02*
X104848440Y-70466300D01*
X102245440Y-72106300D02*
X105815440Y-72106300D01*
X97505440Y-70226300D02*
X99883440Y-70226300D01*
X102245440Y-71106300D02*
X105327440Y-71106300D01*
X96065440Y-73106300D02*
X106063440Y-73106300D01*
X96071440Y-73066300D02*
X106057440Y-73066300D01*
X102245440Y-71586300D02*
X105595440Y-71586300D01*
X96147440Y-72666300D02*
X105981440Y-72666300D01*
X102245440Y-71786300D02*
X105688440Y-71786300D01*
X102245440Y-72186300D02*
X105843440Y-72186300D01*
X102245440Y-70626300D02*
X104983440Y-70626300D01*
X102245440Y-72066300D02*
X105801440Y-72066300D01*
X97145440Y-70626300D02*
X99883440Y-70626300D01*
X98287440Y-69586300D02*
X103841440Y-69586300D01*
X96752440Y-71186300D02*
X99883440Y-71186300D01*
X97245440Y-70506300D02*
X99883440Y-70506300D01*
X96129440Y-72746300D02*
X105999440Y-72746300D01*
X97082440Y-70706300D02*
X99883440Y-70706300D01*
X96105440Y-72866300D02*
X106023440Y-72866300D01*
X99528440Y-68986300D02*
X102600440Y-68986300D01*
X96681440Y-71306300D02*
X99883440Y-71306300D01*
X98545440Y-69426300D02*
X103583440Y-69426300D01*
X99102440Y-69146300D02*
X103026440Y-69146300D01*
X102245440Y-70746300D02*
X105077440Y-70746300D01*
X96044440Y-73267300D02*
X106084440Y-73267300D01*
X102245440Y-71266300D02*
X105424440Y-71266300D01*
X97809440Y-69946300D02*
X104319440Y-69946300D01*
X102245440Y-72226300D02*
X105856440Y-72226300D01*
X97546440Y-70186300D02*
X99883440Y-70186300D01*
X98115440Y-69706300D02*
X104013440Y-69706300D01*
X96827440Y-71066300D02*
X99883440Y-71066300D01*
X98615440Y-69386300D02*
X103513440Y-69386300D01*
X96033440Y-73387300D02*
X106095440Y-73387300D01*
X97352440Y-70386300D02*
X99883440Y-70386300D01*
X96021440Y-73547300D02*
X106107440Y-73547300D01*
X96121440Y-72786300D02*
X106007440Y-72786300D01*
X96440440Y-71786300D02*
X99883440Y-71786300D01*
X102245440Y-70866300D02*
X105165440Y-70866300D01*
X102245440Y-70226300D02*
X104623440Y-70226300D01*
X96014440Y-73787300D02*
X106114440Y-73787300D01*
X96017440Y-73627300D02*
X106111440Y-73627300D01*
X97021440Y-70786300D02*
X99883440Y-70786300D01*
X96272440Y-72226300D02*
X99883440Y-72226300D01*
X102245440Y-72026300D02*
X105786440Y-72026300D01*
X96704440Y-71266300D02*
X99883440Y-71266300D01*
X96090440Y-72946300D02*
X106038440Y-72946300D01*
X96167440Y-72586300D02*
X105961440Y-72586300D01*
X96016440Y-73667300D02*
X106112440Y-73667300D01*
X96233440Y-72346300D02*
X99883440Y-72346300D01*
X96019440Y-73587300D02*
X106109440Y-73587300D01*
X102245440Y-72386300D02*
X105907440Y-72386300D01*
X96054440Y-73187300D02*
X106074440Y-73187300D01*
X96879440Y-70986300D02*
X99883440Y-70986300D01*
X96285440Y-72186300D02*
X99883440Y-72186300D01*
X102245440Y-72346300D02*
X105895440Y-72346300D01*
X101064440Y-79027300D02*
X101064440Y-77527300D01*
X99410440Y-69026300D02*
X102718440Y-69026300D01*
X96728440Y-71226300D02*
X99883440Y-71226300D01*
X97113440Y-70666300D02*
X99883440Y-70666300D01*
X97178440Y-70586300D02*
X99883440Y-70586300D01*
X102245440Y-71546300D02*
X105575440Y-71546300D01*
X102245440Y-71826300D02*
X105705440Y-71826300D01*
X102245440Y-70186300D02*
X104582440Y-70186300D01*
X96963440Y-70866300D02*
X99883440Y-70866300D01*
X102245440Y-71746300D02*
X105670440Y-71746300D01*
X102245440Y-71506300D02*
X105555440Y-71506300D01*
X98007440Y-69786300D02*
X104121440Y-69786300D01*
X98060440Y-69746300D02*
X104068440Y-69746300D01*
X97587440Y-70146300D02*
X104541440Y-70146300D01*
X97427440Y-70306300D02*
X99883440Y-70306300D01*
X96495440Y-71666300D02*
X99883440Y-71666300D01*
X102245440Y-70786300D02*
X105107440Y-70786300D01*
X96801440Y-71106300D02*
X99883440Y-71106300D01*
X98842440Y-69266300D02*
X103286440Y-69266300D01*
X96373440Y-71946300D02*
X99883440Y-71946300D01*
X96659440Y-71346300D02*
X99883440Y-71346300D01*
X102245440Y-70826300D02*
X105136440Y-70826300D01*
X96907440Y-70946300D02*
X99883440Y-70946300D01*
X96014440Y-73827300D02*
X106114440Y-73827300D01*
X96097440Y-72906300D02*
X106031440Y-72906300D01*
X100151440Y-68826300D02*
X101977440Y-68826300D01*
X102245440Y-71946300D02*
X105755440Y-71946300D01*
X97280440Y-70466300D02*
X99883440Y-70466300D01*
X100314440Y-78277300D02*
X101814440Y-78277300D01*
X102245440Y-71066300D02*
X105301440Y-71066300D01*
X102245440Y-70346300D02*
X104739440Y-70346300D01*
X102245440Y-70506300D02*
X104883440Y-70506300D01*
X97051440Y-70746300D02*
X99883440Y-70746300D01*
X102245440Y-70546300D02*
X104917440Y-70546300D01*
X102245440Y-71866300D02*
X105722440Y-71866300D01*
X96049440Y-73227300D02*
X106079440Y-73227300D01*
X99198440Y-69106300D02*
X102930440Y-69106300D01*
X97857440Y-69906300D02*
X104271440Y-69906300D01*
X99011440Y-69186300D02*
X103117440Y-69186300D01*
X96615440Y-71426300D02*
X99883440Y-71426300D01*
X99301440Y-69066300D02*
X102827440Y-69066300D01*
X102245440Y-70986300D02*
X105249440Y-70986300D01*
X96458440Y-71746300D02*
X99883440Y-71746300D01*
X96221440Y-72386300D02*
X99883440Y-72386300D01*
X102245440Y-70426300D02*
X104812440Y-70426300D01*
X102245440Y-71706300D02*
X105652440Y-71706300D01*
X96573440Y-71506300D02*
X99883440Y-71506300D01*
X96934440Y-70906300D02*
X99883440Y-70906300D01*
X99960440Y-68866300D02*
X102168440Y-68866300D01*
X97673440Y-70066300D02*
X104455440Y-70066300D01*
X96026440Y-73467300D02*
X106102440Y-73467300D01*
X96390440Y-71906300D02*
X99883440Y-71906300D01*
X102245440Y-70706300D02*
X105046440Y-70706300D01*
X102245440Y-72146300D02*
X105829440Y-72146300D01*
X96113440Y-72826300D02*
X106015440Y-72826300D01*
X102245440Y-71386300D02*
X105492440Y-71386300D01*
X102245440Y-71186300D02*
X105376440Y-71186300D01*
X100785440Y-68746300D02*
X101343440Y-68746300D01*
X97211440Y-70546300D02*
X99883440Y-70546300D01*
X100392440Y-68786300D02*
X101736440Y-68786300D01*
X102245440Y-70586300D02*
X104950440Y-70586300D01*
X97466440Y-70266300D02*
X99883440Y-70266300D01*
X97906440Y-69866300D02*
X104222440Y-69866300D01*
X97389440Y-70346300D02*
X99883440Y-70346300D01*
X96077440Y-73026300D02*
X106051440Y-73026300D01*
X96533440Y-71586300D02*
X99883440Y-71586300D01*
X102245440Y-71466300D02*
X105534440Y-71466300D01*
X96423440Y-71826300D02*
X99883440Y-71826300D01*
X98477440Y-69466300D02*
X103651440Y-69466300D01*
X96138440Y-72706300D02*
X105990440Y-72706300D01*
X96210440Y-72426300D02*
X99883440Y-72426300D01*
X96199440Y-72466300D02*
X99883440Y-72466300D01*
X102245440Y-70666300D02*
X105015440Y-70666300D01*
X102245440Y-71146300D02*
X105352440Y-71146300D01*
X102245440Y-72466300D02*
X105929440Y-72466300D01*
X102245440Y-70906300D02*
X105194440Y-70906300D01*
X96040440Y-73307300D02*
X106088440Y-73307300D01*
X96036440Y-73347300D02*
X106092440Y-73347300D01*
X102245440Y-71666300D02*
X105633440Y-71666300D01*
X102245440Y-71906300D02*
X105738440Y-71906300D01*
X96299440Y-72146300D02*
X99883440Y-72146300D01*
X97762440Y-69986300D02*
X104366440Y-69986300D01*
X96258440Y-72266300D02*
X99883440Y-72266300D01*
X98763440Y-69306300D02*
X103365440Y-69306300D01*
X96553440Y-71546300D02*
X99883440Y-71546300D01*
X96059440Y-73147300D02*
X106069440Y-73147300D01*
X96014440Y-73747300D02*
X106114440Y-73747300D01*
X96776440Y-71146300D02*
X99883440Y-71146300D01*
X102245440Y-70306300D02*
X104701440Y-70306300D01*
X102245440Y-71306300D02*
X105447440Y-71306300D01*
X97717440Y-70026300D02*
X104411440Y-70026300D01*
X96853440Y-71026300D02*
X99883440Y-71026300D01*
X102447704Y-68928863D02*
G75*
G03*
X99684440Y-68927943I-1383264J-4898437D01*
G01*
X99681176Y-68928863D02*
G75*
G03*
X99684440Y-78726657I1383264J-4898437D01*
G01*
X102444440Y-78726657D02*
G75*
G03*
X102447704Y-68928863I-1380000J4899357D01*
G01*
%TO.C,R1*%
X156916000Y-85638000D02*
X156916000Y-86708000D01*
X156916000Y-91498000D02*
X156916000Y-90428000D01*
X157776000Y-86708000D02*
X156056000Y-86708000D01*
X156056000Y-86708000D02*
X156056000Y-90428000D01*
X156056000Y-90428000D02*
X157776000Y-90428000D01*
X157776000Y-90428000D02*
X157776000Y-86708000D01*
%TO.C,C3*%
X72447760Y-119985800D02*
X82317760Y-119985800D01*
X78563760Y-118825800D02*
X81913760Y-118825800D01*
X74274760Y-117065800D02*
X80490760Y-117065800D01*
X72423760Y-120105800D02*
X82341760Y-120105800D01*
X72456760Y-119945800D02*
X82308760Y-119945800D01*
X75728760Y-116265800D02*
X79036760Y-116265800D01*
X78563760Y-118185800D02*
X81539760Y-118185800D01*
X78563760Y-119705800D02*
X82247760Y-119705800D01*
X72912760Y-118705800D02*
X76201760Y-118705800D01*
X72660760Y-119265800D02*
X76201760Y-119265800D01*
X73339760Y-118025800D02*
X76201760Y-118025800D01*
X73119760Y-118345800D02*
X76201760Y-118345800D01*
X74933760Y-116625800D02*
X79831760Y-116625800D01*
X72776760Y-118985800D02*
X76201760Y-118985800D01*
X78563760Y-117905800D02*
X81333760Y-117905800D01*
X73598760Y-117705800D02*
X76201760Y-117705800D01*
X73670760Y-117625800D02*
X76201760Y-117625800D01*
X78563760Y-118905800D02*
X81951760Y-118905800D01*
X74863760Y-116665800D02*
X79901760Y-116665800D01*
X78563760Y-118465800D02*
X81718760Y-118465800D01*
X78563760Y-119025800D02*
X82006760Y-119025800D01*
X74175760Y-117145800D02*
X80589760Y-117145800D01*
X75846760Y-116225800D02*
X78918760Y-116225800D01*
X76632760Y-125516800D02*
X78132760Y-125516800D01*
X74433760Y-116945800D02*
X80331760Y-116945800D01*
X72954760Y-118625800D02*
X76201760Y-118625800D01*
X74378760Y-116985800D02*
X80386760Y-116985800D01*
X78563760Y-119585800D02*
X82213760Y-119585800D01*
X72758760Y-119025800D02*
X76201760Y-119025800D01*
X78563760Y-117505800D02*
X80980760Y-117505800D01*
X78563760Y-119105800D02*
X82040760Y-119105800D01*
X78563760Y-118625800D02*
X81810760Y-118625800D01*
X72794760Y-118945800D02*
X76201760Y-118945800D01*
X78563760Y-118585800D02*
X81787760Y-118585800D01*
X72851760Y-118825800D02*
X76201760Y-118825800D01*
X78563760Y-118345800D02*
X81645760Y-118345800D01*
X72354760Y-120586800D02*
X82410760Y-120586800D01*
X72617760Y-119385800D02*
X76201760Y-119385800D01*
X73431760Y-117905800D02*
X76201760Y-117905800D01*
X78563760Y-117945800D02*
X81364760Y-117945800D01*
X72551760Y-119585800D02*
X76201760Y-119585800D01*
X74795760Y-116705800D02*
X79969760Y-116705800D01*
X73070760Y-118425800D02*
X76201760Y-118425800D01*
X72871760Y-118785800D02*
X76201760Y-118785800D01*
X73784760Y-117505800D02*
X76201760Y-117505800D01*
X72506760Y-119745800D02*
X76201760Y-119745800D01*
X72603760Y-119425800D02*
X76201760Y-119425800D01*
X76117760Y-116145800D02*
X78647760Y-116145800D01*
X75619760Y-116305800D02*
X79145760Y-116305800D01*
X72344760Y-120706800D02*
X82420760Y-120706800D01*
X73707760Y-117585800D02*
X76201760Y-117585800D01*
X78563760Y-119185800D02*
X82073760Y-119185800D01*
X74325760Y-117025800D02*
X80439760Y-117025800D01*
X76710760Y-116025800D02*
X78054760Y-116025800D01*
X78563760Y-117705800D02*
X81166760Y-117705800D01*
X73022760Y-118505800D02*
X76201760Y-118505800D01*
X75242760Y-116465800D02*
X79522760Y-116465800D01*
X72367760Y-120466800D02*
X82397760Y-120466800D01*
X72539760Y-119625800D02*
X76201760Y-119625800D01*
X72691760Y-119185800D02*
X76201760Y-119185800D01*
X75005760Y-116585800D02*
X79759760Y-116585800D01*
X74546760Y-116865800D02*
X80218760Y-116865800D01*
X72590760Y-119465800D02*
X76201760Y-119465800D01*
X72339760Y-120786800D02*
X82425760Y-120786800D01*
X76469760Y-116065800D02*
X78295760Y-116065800D01*
X78563760Y-118025800D02*
X81425760Y-118025800D01*
X78563760Y-118665800D02*
X81831760Y-118665800D01*
X72372760Y-120426800D02*
X82392760Y-120426800D01*
X72741760Y-119065800D02*
X76201760Y-119065800D01*
X72335760Y-120866800D02*
X82429760Y-120866800D01*
X78563760Y-119505800D02*
X82188760Y-119505800D01*
X72465760Y-119905800D02*
X82299760Y-119905800D01*
X73905760Y-117385800D02*
X80859760Y-117385800D01*
X75420760Y-116385800D02*
X79344760Y-116385800D01*
X78563760Y-117745800D02*
X81201760Y-117745800D01*
X72933760Y-118665800D02*
X76201760Y-118665800D01*
X77103760Y-115985800D02*
X77661760Y-115985800D01*
X78563760Y-117545800D02*
X81019760Y-117545800D01*
X73225760Y-118185800D02*
X76201760Y-118185800D01*
X72564760Y-119545800D02*
X76201760Y-119545800D01*
X78563760Y-119745800D02*
X82258760Y-119745800D01*
X77382760Y-126266800D02*
X77382760Y-124766800D01*
X78563760Y-118145800D02*
X81512760Y-118145800D01*
X72431760Y-120065800D02*
X82333760Y-120065800D01*
X74080760Y-117225800D02*
X80684760Y-117225800D01*
X78563760Y-118945800D02*
X81970760Y-118945800D01*
X73563760Y-117745800D02*
X76201760Y-117745800D01*
X75329760Y-116425800D02*
X79435760Y-116425800D01*
X73947760Y-117345800D02*
X80817760Y-117345800D01*
X72333760Y-120946800D02*
X82431760Y-120946800D01*
X72999760Y-118545800D02*
X76201760Y-118545800D01*
X72439760Y-120025800D02*
X82325760Y-120025800D01*
X78563760Y-119145800D02*
X82056760Y-119145800D01*
X72358760Y-120546800D02*
X82406760Y-120546800D01*
X73496760Y-117825800D02*
X76201760Y-117825800D01*
X74605760Y-116825800D02*
X80159760Y-116825800D01*
X74667760Y-116785800D02*
X80097760Y-116785800D01*
X78563760Y-119465800D02*
X82174760Y-119465800D01*
X72813760Y-118905800D02*
X76201760Y-118905800D01*
X72401760Y-120225800D02*
X82363760Y-120225800D01*
X74127760Y-117185800D02*
X80637760Y-117185800D01*
X78563760Y-117825800D02*
X81268760Y-117825800D01*
X72645760Y-119305800D02*
X76201760Y-119305800D01*
X78563760Y-118265800D02*
X81593760Y-118265800D01*
X78563760Y-118985800D02*
X81988760Y-118985800D01*
X73864760Y-117425800D02*
X76201760Y-117425800D01*
X78563760Y-119425800D02*
X82161760Y-119425800D01*
X78563760Y-117665800D02*
X81130760Y-117665800D01*
X73823760Y-117465800D02*
X76201760Y-117465800D01*
X72351760Y-120626800D02*
X82413760Y-120626800D01*
X72408760Y-120185800D02*
X82356760Y-120185800D01*
X78563760Y-119305800D02*
X82119760Y-119305800D01*
X73991760Y-117305800D02*
X80773760Y-117305800D01*
X78563760Y-119625800D02*
X82225760Y-119625800D01*
X73310760Y-118065800D02*
X76201760Y-118065800D01*
X72631760Y-119345800D02*
X76201760Y-119345800D01*
X72485760Y-119825800D02*
X82279760Y-119825800D01*
X73171760Y-118265800D02*
X76201760Y-118265800D01*
X73252760Y-118145800D02*
X76201760Y-118145800D01*
X76278760Y-116105800D02*
X78486760Y-116105800D01*
X74730760Y-116745800D02*
X80034760Y-116745800D01*
X72334760Y-120906800D02*
X82430760Y-120906800D01*
X75160760Y-116505800D02*
X79604760Y-116505800D01*
X72495760Y-119785800D02*
X82269760Y-119785800D01*
X73745760Y-117545800D02*
X76201760Y-117545800D01*
X78563760Y-117625800D02*
X81094760Y-117625800D01*
X73634760Y-117665800D02*
X76201760Y-117665800D01*
X75975760Y-116185800D02*
X78789760Y-116185800D01*
X72362760Y-120506800D02*
X82402760Y-120506800D01*
X73046760Y-118465800D02*
X76201760Y-118465800D01*
X72415760Y-120145800D02*
X82349760Y-120145800D01*
X72576760Y-119505800D02*
X76201760Y-119505800D01*
X78563760Y-117985800D02*
X81395760Y-117985800D01*
X73463760Y-117865800D02*
X76201760Y-117865800D01*
X72342760Y-120746800D02*
X82422760Y-120746800D01*
X78563760Y-119225800D02*
X82088760Y-119225800D01*
X78563760Y-118425800D02*
X81694760Y-118425800D01*
X78563760Y-119665800D02*
X82236760Y-119665800D01*
X78563760Y-117585800D02*
X81057760Y-117585800D01*
X78563760Y-118385800D02*
X81670760Y-118385800D01*
X72708760Y-119145800D02*
X76201760Y-119145800D01*
X73145760Y-118305800D02*
X76201760Y-118305800D01*
X73197760Y-118225800D02*
X76201760Y-118225800D01*
X72977760Y-118585800D02*
X76201760Y-118585800D01*
X73529760Y-117785800D02*
X76201760Y-117785800D01*
X78563760Y-117425800D02*
X80900760Y-117425800D01*
X72347760Y-120666800D02*
X82417760Y-120666800D01*
X72377760Y-120386800D02*
X82387760Y-120386800D01*
X73281760Y-118105800D02*
X76201760Y-118105800D01*
X72332760Y-121026800D02*
X82432760Y-121026800D01*
X78563760Y-118785800D02*
X81893760Y-118785800D01*
X74488760Y-116905800D02*
X80276760Y-116905800D01*
X78563760Y-118745800D02*
X81873760Y-118745800D01*
X73369760Y-117985800D02*
X76201760Y-117985800D01*
X72517760Y-119705800D02*
X76201760Y-119705800D01*
X78563760Y-117865800D02*
X81301760Y-117865800D01*
X72891760Y-118745800D02*
X76201760Y-118745800D01*
X74035760Y-117265800D02*
X80729760Y-117265800D01*
X73094760Y-118385800D02*
X76201760Y-118385800D01*
X72676760Y-119225800D02*
X76201760Y-119225800D01*
X78563760Y-118065800D02*
X81454760Y-118065800D01*
X78563760Y-118705800D02*
X81852760Y-118705800D01*
X78563760Y-118505800D02*
X81742760Y-118505800D01*
X72832760Y-118865800D02*
X76201760Y-118865800D01*
X75081760Y-116545800D02*
X79683760Y-116545800D01*
X78563760Y-118105800D02*
X81483760Y-118105800D01*
X72724760Y-119105800D02*
X76201760Y-119105800D01*
X78563760Y-119065800D02*
X82023760Y-119065800D01*
X72475760Y-119865800D02*
X82289760Y-119865800D01*
X72332760Y-120986800D02*
X82432760Y-120986800D01*
X74224760Y-117105800D02*
X80540760Y-117105800D01*
X78563760Y-119545800D02*
X82200760Y-119545800D01*
X72389760Y-120305800D02*
X82375760Y-120305800D01*
X72337760Y-120826800D02*
X82427760Y-120826800D01*
X72528760Y-119665800D02*
X76201760Y-119665800D01*
X78563760Y-118865800D02*
X81932760Y-118865800D01*
X78563760Y-117465800D02*
X80941760Y-117465800D01*
X72332760Y-121066800D02*
X82432760Y-121066800D01*
X72383760Y-120345800D02*
X82381760Y-120345800D01*
X75516760Y-116345800D02*
X79248760Y-116345800D01*
X78563760Y-119385800D02*
X82147760Y-119385800D01*
X78563760Y-119265800D02*
X82104760Y-119265800D01*
X78563760Y-119345800D02*
X82133760Y-119345800D01*
X78563760Y-118225800D02*
X81567760Y-118225800D01*
X73400760Y-117945800D02*
X76201760Y-117945800D01*
X72395760Y-120265800D02*
X82369760Y-120265800D01*
X78563760Y-118545800D02*
X81765760Y-118545800D01*
X78563760Y-118305800D02*
X81619760Y-118305800D01*
X78563760Y-117785800D02*
X81235760Y-117785800D01*
X78762760Y-125966157D02*
G75*
G03*
X78766024Y-116168363I-1380000J4899357D01*
G01*
X75999496Y-116168363D02*
G75*
G03*
X76002760Y-125966157I1383264J-4898437D01*
G01*
X78766024Y-116168363D02*
G75*
G03*
X76002760Y-116167443I-1383264J-4898437D01*
G01*
%TO.C,R1*%
X102883800Y-80318700D02*
X99163800Y-80318700D01*
X99163800Y-80318700D02*
X99163800Y-82038700D01*
X103953800Y-81178700D02*
X102883800Y-81178700D01*
X102883800Y-82038700D02*
X102883800Y-80318700D01*
X98093800Y-81178700D02*
X99163800Y-81178700D01*
X99163800Y-82038700D02*
X102883800Y-82038700D01*
D10*
%TO.C,L1*%
X85962880Y-120290200D02*
X85663160Y-121390020D01*
X85363440Y-119589160D02*
X84461740Y-120488320D01*
X85863820Y-118390280D02*
X84962120Y-117488580D01*
X85561560Y-119990480D02*
X85063720Y-121090300D01*
X86262600Y-120290200D02*
X86262600Y-121489080D01*
X86262600Y-116988200D02*
X86262600Y-118189620D01*
X85561560Y-118588400D02*
X84461740Y-117988960D01*
X85363440Y-119190380D02*
X84062960Y-119490100D01*
X85462500Y-118789060D02*
X84162020Y-118690000D01*
X86262600Y-118189620D02*
X85462500Y-117188860D01*
X87263360Y-119289440D02*
G75*
G03*
X87263360Y-119289440I-1000760J0D01*
G01*
X88563840Y-119289440D02*
G75*
G03*
X88563840Y-119289440I-2301240J0D01*
G01*
D11*
%TO.C,R3*%
X102871100Y-85328000D02*
X102871100Y-83608000D01*
X99151100Y-83608000D02*
X99151100Y-85328000D01*
X98081100Y-84468000D02*
X99151100Y-84468000D01*
X99151100Y-85328000D02*
X102871100Y-85328000D01*
X102871100Y-83608000D02*
X99151100Y-83608000D01*
X103941100Y-84468000D02*
X102871100Y-84468000D01*
%TO.C,C1*%
X107245440Y-111111300D02*
X110015440Y-111111300D01*
X102021440Y-111231300D02*
X104883440Y-111231300D01*
X101065440Y-113551300D02*
X111063440Y-113551300D01*
X104410440Y-109471300D02*
X107718440Y-109471300D01*
X107245440Y-111071300D02*
X109983440Y-111071300D01*
X107245440Y-112231300D02*
X110688440Y-112231300D01*
X101801440Y-111551300D02*
X104883440Y-111551300D01*
X107245440Y-112191300D02*
X110670440Y-112191300D01*
X103115440Y-110151300D02*
X109013440Y-110151300D01*
X103687440Y-109791300D02*
X108441440Y-109791300D01*
X102427440Y-110751300D02*
X104883440Y-110751300D01*
X101113440Y-113271300D02*
X111015440Y-113271300D01*
X101021440Y-113992300D02*
X111107440Y-113992300D01*
X102389440Y-110791300D02*
X104883440Y-110791300D01*
X102280440Y-110911300D02*
X104883440Y-110911300D01*
X105151440Y-109271300D02*
X106977440Y-109271300D01*
X101014440Y-114232300D02*
X111114440Y-114232300D01*
X107245440Y-112711300D02*
X110870440Y-112711300D01*
X101934440Y-111351300D02*
X104883440Y-111351300D01*
X102809440Y-110391300D02*
X109319440Y-110391300D01*
X107245440Y-111511300D02*
X110301440Y-111511300D01*
X101059440Y-113592300D02*
X111069440Y-113592300D01*
X107245440Y-111631300D02*
X110376440Y-111631300D01*
X107245440Y-111911300D02*
X110534440Y-111911300D01*
X101077440Y-113471300D02*
X111051440Y-113471300D01*
X101728440Y-111671300D02*
X104883440Y-111671300D01*
X102466440Y-110711300D02*
X104883440Y-110711300D01*
X107245440Y-111391300D02*
X110221440Y-111391300D01*
X101992440Y-111271300D02*
X104883440Y-111271300D01*
X104960440Y-109311300D02*
X107168440Y-109311300D01*
X103007440Y-110231300D02*
X109121440Y-110231300D01*
X107245440Y-110751300D02*
X109701440Y-110751300D01*
X101681440Y-111751300D02*
X104883440Y-111751300D01*
X105314440Y-118722300D02*
X106814440Y-118722300D01*
X101147440Y-113111300D02*
X110981440Y-113111300D01*
X101024440Y-113952300D02*
X111104440Y-113952300D01*
X107245440Y-112031300D02*
X110595440Y-112031300D01*
X107245440Y-112631300D02*
X110843440Y-112631300D01*
X101129440Y-113191300D02*
X110999440Y-113191300D01*
X104528440Y-109431300D02*
X107600440Y-109431300D01*
X101044440Y-113712300D02*
X111084440Y-113712300D01*
X101752440Y-111631300D02*
X104883440Y-111631300D01*
X101704440Y-111711300D02*
X104883440Y-111711300D01*
X101594440Y-111911300D02*
X104883440Y-111911300D01*
X107245440Y-110831300D02*
X109776440Y-110831300D01*
X103924440Y-109671300D02*
X108204440Y-109671300D01*
X102316440Y-110871300D02*
X104883440Y-110871300D01*
X103412440Y-109951300D02*
X108716440Y-109951300D01*
X101573440Y-111951300D02*
X104883440Y-111951300D01*
X102629440Y-110551300D02*
X109499440Y-110551300D01*
X101157440Y-113071300D02*
X110971440Y-113071300D01*
X102673440Y-110511300D02*
X109455440Y-110511300D01*
X107245440Y-110871300D02*
X109812440Y-110871300D01*
X104011440Y-109631300D02*
X108117440Y-109631300D01*
X102082440Y-111151300D02*
X104883440Y-111151300D01*
X107245440Y-110671300D02*
X109623440Y-110671300D01*
X101514440Y-112071300D02*
X104883440Y-112071300D01*
X104301440Y-109511300D02*
X107827440Y-109511300D01*
X101033440Y-113832300D02*
X111095440Y-113832300D01*
X101659440Y-111791300D02*
X104883440Y-111791300D01*
X107245440Y-111991300D02*
X110575440Y-111991300D01*
X107245440Y-111151300D02*
X110046440Y-111151300D01*
X101188440Y-112951300D02*
X104883440Y-112951300D01*
X102587440Y-110591300D02*
X109541440Y-110591300D01*
X107245440Y-111031300D02*
X109950440Y-111031300D01*
X101533440Y-112031300D02*
X104883440Y-112031300D01*
X103060440Y-110191300D02*
X109068440Y-110191300D01*
X107245440Y-110791300D02*
X109739440Y-110791300D01*
X101406440Y-112311300D02*
X104883440Y-112311300D01*
X104657440Y-109391300D02*
X107471440Y-109391300D01*
X101313440Y-112551300D02*
X104883440Y-112551300D01*
X101040440Y-113752300D02*
X111088440Y-113752300D01*
X107245440Y-110951300D02*
X109883440Y-110951300D01*
X101138440Y-113151300D02*
X110990440Y-113151300D01*
X101017440Y-114072300D02*
X111111440Y-114072300D01*
X107245440Y-112591300D02*
X110829440Y-112591300D01*
X107245440Y-112311300D02*
X110722440Y-112311300D01*
X101026440Y-113912300D02*
X111102440Y-113912300D01*
X101210440Y-112871300D02*
X104883440Y-112871300D01*
X107245440Y-111191300D02*
X110077440Y-111191300D01*
X107245440Y-111431300D02*
X110249440Y-111431300D01*
X107245440Y-112551300D02*
X110815440Y-112551300D01*
X101963440Y-111311300D02*
X104883440Y-111311300D01*
X101553440Y-111991300D02*
X104883440Y-111991300D01*
X103842440Y-109711300D02*
X108286440Y-109711300D01*
X101636440Y-111831300D02*
X104883440Y-111831300D01*
X107245440Y-112071300D02*
X110614440Y-112071300D01*
X107245440Y-111871300D02*
X110513440Y-111871300D01*
X102505440Y-110671300D02*
X104883440Y-110671300D01*
X102211440Y-110991300D02*
X104883440Y-110991300D01*
X102906440Y-110311300D02*
X109222440Y-110311300D01*
X107245440Y-111551300D02*
X110327440Y-111551300D01*
X101907440Y-111391300D02*
X104883440Y-111391300D01*
X101016440Y-114112300D02*
X111112440Y-114112300D01*
X101879440Y-111431300D02*
X104883440Y-111431300D01*
X101036440Y-113792300D02*
X111092440Y-113792300D01*
X101097440Y-113351300D02*
X111031440Y-113351300D01*
X101015440Y-114152300D02*
X111113440Y-114152300D01*
X101105440Y-113311300D02*
X111023440Y-113311300D01*
X101090440Y-113391300D02*
X111038440Y-113391300D01*
X107245440Y-111351300D02*
X110194440Y-111351300D01*
X107245440Y-111471300D02*
X110275440Y-111471300D01*
X102717440Y-110471300D02*
X109411440Y-110471300D01*
X107245440Y-112471300D02*
X110786440Y-112471300D01*
X103615440Y-109831300D02*
X108513440Y-109831300D01*
X101615440Y-111871300D02*
X104883440Y-111871300D01*
X101423440Y-112271300D02*
X104883440Y-112271300D01*
X101246440Y-112751300D02*
X104883440Y-112751300D01*
X107245440Y-112271300D02*
X110705440Y-112271300D01*
X107245440Y-111751300D02*
X110447440Y-111751300D01*
X101083440Y-113431300D02*
X111045440Y-113431300D01*
X107245440Y-112831300D02*
X110907440Y-112831300D01*
X103228440Y-110071300D02*
X108900440Y-110071300D01*
X107245440Y-112431300D02*
X110770440Y-112431300D01*
X107245440Y-111951300D02*
X110555440Y-111951300D01*
X102857440Y-110351300D02*
X109271440Y-110351300D01*
X107245440Y-112791300D02*
X110895440Y-112791300D01*
X101827440Y-111511300D02*
X104883440Y-111511300D01*
X101440440Y-112231300D02*
X104883440Y-112231300D01*
X103349440Y-109991300D02*
X108779440Y-109991300D01*
X103287440Y-110031300D02*
X108841440Y-110031300D01*
X101272440Y-112671300D02*
X104883440Y-112671300D01*
X101177440Y-112991300D02*
X110951440Y-112991300D01*
X107245440Y-110711300D02*
X109662440Y-110711300D01*
X101014440Y-114192300D02*
X111114440Y-114192300D01*
X101199440Y-112911300D02*
X104883440Y-112911300D01*
X107245440Y-111591300D02*
X110352440Y-111591300D01*
X101299440Y-112591300D02*
X104883440Y-112591300D01*
X101121440Y-113231300D02*
X111007440Y-113231300D01*
X102352440Y-110831300D02*
X104883440Y-110831300D01*
X107245440Y-112671300D02*
X110856440Y-112671300D01*
X103545440Y-109871300D02*
X108583440Y-109871300D01*
X101776440Y-111591300D02*
X104883440Y-111591300D01*
X107245440Y-112751300D02*
X110882440Y-112751300D01*
X104799440Y-109351300D02*
X107329440Y-109351300D01*
X107245440Y-112871300D02*
X110918440Y-112871300D01*
X107245440Y-112151300D02*
X110652440Y-112151300D01*
X101054440Y-113632300D02*
X111074440Y-113632300D01*
X107245440Y-112351300D02*
X110738440Y-112351300D01*
X105785440Y-109191300D02*
X106343440Y-109191300D01*
X101327440Y-112511300D02*
X104883440Y-112511300D01*
X101853440Y-111471300D02*
X104883440Y-111471300D01*
X107245440Y-112511300D02*
X110801440Y-112511300D01*
X107245440Y-110991300D02*
X109917440Y-110991300D01*
X107245440Y-111231300D02*
X110107440Y-111231300D01*
X102245440Y-110951300D02*
X104883440Y-110951300D01*
X101014440Y-114272300D02*
X111114440Y-114272300D01*
X102178440Y-111031300D02*
X104883440Y-111031300D01*
X107245440Y-111791300D02*
X110469440Y-111791300D01*
X102546440Y-110631300D02*
X104883440Y-110631300D01*
X101458440Y-112191300D02*
X104883440Y-112191300D01*
X101221440Y-112831300D02*
X104883440Y-112831300D01*
X101071440Y-113511300D02*
X111057440Y-113511300D01*
X107245440Y-111271300D02*
X110136440Y-111271300D01*
X103170440Y-110111300D02*
X108958440Y-110111300D01*
X103763440Y-109751300D02*
X108365440Y-109751300D01*
X107245440Y-110631300D02*
X109582440Y-110631300D01*
X101029440Y-113872300D02*
X111099440Y-113872300D01*
X101390440Y-112351300D02*
X104883440Y-112351300D01*
X102113440Y-111111300D02*
X104883440Y-111111300D01*
X101495440Y-112111300D02*
X104883440Y-112111300D01*
X101358440Y-112431300D02*
X104883440Y-112431300D01*
X107245440Y-112951300D02*
X110940440Y-112951300D01*
X107245440Y-111831300D02*
X110492440Y-111831300D01*
X104198440Y-109551300D02*
X107930440Y-109551300D01*
X107245440Y-110911300D02*
X109848440Y-110911300D01*
X107245440Y-111311300D02*
X110165440Y-111311300D01*
X101373440Y-112391300D02*
X104883440Y-112391300D01*
X107245440Y-112111300D02*
X110633440Y-112111300D01*
X101258440Y-112711300D02*
X104883440Y-112711300D01*
X107245440Y-111711300D02*
X110424440Y-111711300D01*
X101285440Y-112631300D02*
X104883440Y-112631300D01*
X107245440Y-112911300D02*
X110929440Y-112911300D01*
X101342440Y-112471300D02*
X104883440Y-112471300D01*
X102762440Y-110431300D02*
X109366440Y-110431300D01*
X102145440Y-111071300D02*
X104883440Y-111071300D01*
X101476440Y-112151300D02*
X104883440Y-112151300D01*
X101049440Y-113672300D02*
X111079440Y-113672300D01*
X101167440Y-113031300D02*
X110961440Y-113031300D01*
X104102440Y-109591300D02*
X108026440Y-109591300D01*
X103477440Y-109911300D02*
X108651440Y-109911300D01*
X107245440Y-111671300D02*
X110400440Y-111671300D01*
X107245440Y-112391300D02*
X110755440Y-112391300D01*
X101233440Y-112791300D02*
X104883440Y-112791300D01*
X102956440Y-110271300D02*
X109172440Y-110271300D01*
X105392440Y-109231300D02*
X106736440Y-109231300D01*
X102051440Y-111191300D02*
X104883440Y-111191300D01*
X101019440Y-114032300D02*
X111109440Y-114032300D01*
X106064440Y-119472300D02*
X106064440Y-117972300D01*
X107447704Y-109373863D02*
G75*
G03*
X104684440Y-109372943I-1383264J-4898437D01*
G01*
X104681176Y-109373863D02*
G75*
G03*
X104684440Y-119171657I1383264J-4898437D01*
G01*
X107444440Y-119171657D02*
G75*
G03*
X107447704Y-109373863I-1380000J4899357D01*
G01*
%TO.C,R3*%
X154728000Y-90428000D02*
X154728000Y-86708000D01*
X154728000Y-86708000D02*
X153008000Y-86708000D01*
X153868000Y-85638000D02*
X153868000Y-86708000D01*
X153008000Y-86708000D02*
X153008000Y-90428000D01*
X153868000Y-91498000D02*
X153868000Y-90428000D01*
X153008000Y-90428000D02*
X154728000Y-90428000D01*
%TO.C,R2*%
X106319500Y-42959000D02*
X106319500Y-41239000D01*
X108179500Y-44819000D02*
G75*
G03*
X108179500Y-44819000I-1860000J0D01*
G01*
%TO.C,D1*%
X139051333Y-74471000D02*
X140236667Y-75360000D01*
X140069101Y-75360000D02*
X138804000Y-75360000D01*
X140236667Y-75360000D02*
X139051333Y-76249000D01*
X140236667Y-76249000D02*
X140236667Y-74471000D01*
X139051333Y-76249000D02*
X139051333Y-74471000D01*
X144298899Y-75360000D02*
G75*
G03*
X144298899Y-75360000I-2114899J0D01*
G01*
%TD*%
M02*
