%TF.GenerationSoftware,KiCad,Pcbnew,(6.0.8)*%
%TF.CreationDate,2022-11-19T23:47:43+04:00*%
%TF.ProjectId,MC34063_Buck_Rev4,4d433334-3036-4335-9f42-75636b5f5265,rev?*%
%TF.SameCoordinates,Original*%
%TF.FileFunction,Drillmap*%
%TF.FilePolarity,Positive*%
%FSLAX45Y45*%
G04 Gerber Fmt 4.5, Leading zero omitted, Abs format (unit mm)*
G04 Created by KiCad (PCBNEW (6.0.8)) date 2022-11-19 23:47:43*
%MOMM*%
%LPD*%
G01*
G04 APERTURE LIST*
%ADD10C,0.050000*%
%ADD11C,0.200000*%
%ADD12C,0.070000*%
%ADD13C,0.076200*%
%ADD14C,0.080000*%
%ADD15C,0.100000*%
%ADD16C,0.100076*%
%ADD17C,0.119888*%
%ADD18C,0.120000*%
%ADD19C,0.140000*%
G04 APERTURE END LIST*
D10*
X15650000Y-7600000D02*
X15650000Y-11350000D01*
X11150000Y-11350000D02*
X11150000Y-7600000D01*
X11150000Y-7600000D02*
X15650000Y-7600000D01*
X15650000Y-11350000D02*
X11150000Y-11350000D01*
D11*
D12*
X15001800Y-9540800D02*
X15071800Y-9610800D01*
X15071800Y-9540800D02*
X15001800Y-9610800D01*
X15001800Y-10302800D02*
X15071800Y-10372800D01*
X15071800Y-10302800D02*
X15001800Y-10372800D01*
X15306600Y-9540800D02*
X15376600Y-9610800D01*
X15376600Y-9540800D02*
X15306600Y-9610800D01*
X15306600Y-10302800D02*
X15376600Y-10372800D01*
X15376600Y-10302800D02*
X15306600Y-10372800D01*
D13*
X14439900Y-8204200D02*
G75*
G03*
X14439900Y-8204200I-38100J0D01*
G01*
X14439900Y-8458200D02*
G75*
G03*
X14439900Y-8458200I-38100J0D01*
G01*
X14439900Y-8712200D02*
G75*
G03*
X14439900Y-8712200I-38100J0D01*
G01*
X14439900Y-8966200D02*
G75*
G03*
X14439900Y-8966200I-38100J0D01*
G01*
X15201900Y-8204200D02*
G75*
G03*
X15201900Y-8204200I-38100J0D01*
G01*
X15201900Y-8458200D02*
G75*
G03*
X15201900Y-8458200I-38100J0D01*
G01*
X15201900Y-8712200D02*
G75*
G03*
X15201900Y-8712200I-38100J0D01*
G01*
X15201900Y-8966200D02*
G75*
G03*
X15201900Y-8966200I-38100J0D01*
G01*
D14*
X14532800Y-9256400D02*
X14532800Y-9336400D01*
X14492800Y-9296400D02*
X14572800Y-9296400D01*
X14782800Y-9256400D02*
X14782800Y-9336400D01*
X14742800Y-9296400D02*
X14822800Y-9296400D01*
X15040800Y-9256400D02*
X15040800Y-9336400D01*
X15000800Y-9296400D02*
X15080800Y-9296400D01*
X15290800Y-9256400D02*
X15290800Y-9336400D01*
X15250800Y-9296400D02*
X15330800Y-9296400D01*
D15*
X12387756Y-9534956D02*
X12387756Y-9464244D01*
X12317044Y-9464244D01*
X12317044Y-9534956D01*
X12387756Y-9534956D01*
X12633756Y-8214156D02*
X12633756Y-8143444D01*
X12563044Y-8143444D01*
X12563044Y-8214156D01*
X12633756Y-8214156D01*
X12633756Y-8714156D02*
X12633756Y-8643444D01*
X12563044Y-8643444D01*
X12563044Y-8714156D01*
X12633756Y-8714156D01*
X12887756Y-9534956D02*
X12887756Y-9464244D01*
X12817044Y-9464244D01*
X12817044Y-9534956D01*
X12887756Y-9534956D01*
X14106956Y-10042956D02*
X14106956Y-9972244D01*
X14036244Y-9972244D01*
X14036244Y-10042956D01*
X14106956Y-10042956D01*
X14606956Y-10042956D02*
X14606956Y-9972244D01*
X14536244Y-9972244D01*
X14536244Y-10042956D01*
X14606956Y-10042956D01*
D16*
X13265150Y-9143238D02*
X13315188Y-9093200D01*
X13265150Y-9043162D01*
X13215112Y-9093200D01*
X13265150Y-9143238D01*
X13411200Y-9505188D02*
X13461238Y-9455150D01*
X13411200Y-9405112D01*
X13361162Y-9455150D01*
X13411200Y-9505188D01*
X13411200Y-10305288D02*
X13461238Y-10255250D01*
X13411200Y-10205212D01*
X13361162Y-10255250D01*
X13411200Y-10305288D01*
X14065250Y-9143238D02*
X14115288Y-9093200D01*
X14065250Y-9043162D01*
X14015212Y-9093200D01*
X14065250Y-9143238D01*
D17*
X11471656Y-8118856D02*
X11591544Y-8238744D01*
X11591544Y-8118856D02*
X11471656Y-8238744D01*
X11591544Y-8178800D02*
G75*
G03*
X11591544Y-8178800I-59944J0D01*
G01*
X11471656Y-8779256D02*
X11591544Y-8899144D01*
X11591544Y-8779256D02*
X11471656Y-8899144D01*
X11591544Y-8839200D02*
G75*
G03*
X11591544Y-8839200I-59944J0D01*
G01*
X14011656Y-10887456D02*
X14131544Y-11007344D01*
X14131544Y-10887456D02*
X14011656Y-11007344D01*
X14131544Y-10947400D02*
G75*
G03*
X14131544Y-10947400I-59944J0D01*
G01*
X14697456Y-10887456D02*
X14817344Y-11007344D01*
X14817344Y-10887456D02*
X14697456Y-11007344D01*
X14817344Y-10947400D02*
G75*
G03*
X14817344Y-10947400I-59944J0D01*
G01*
D18*
X13300400Y-8068000D02*
X13420400Y-8188000D01*
X13420400Y-8068000D02*
X13300400Y-8188000D01*
X13360400Y-8068000D02*
X13360400Y-8188000D01*
X13300400Y-8128000D02*
X13420400Y-8128000D01*
X13808400Y-8068000D02*
X13928400Y-8188000D01*
X13928400Y-8068000D02*
X13808400Y-8188000D01*
X13868400Y-8068000D02*
X13868400Y-8188000D01*
X13808400Y-8128000D02*
X13928400Y-8128000D01*
D19*
X13290400Y-8566000D02*
X13430400Y-8706000D01*
X13430400Y-8566000D02*
X13290400Y-8706000D01*
X13409898Y-8685498D02*
X13409898Y-8586502D01*
X13310902Y-8586502D01*
X13310902Y-8685498D01*
X13409898Y-8685498D01*
X13798400Y-8566000D02*
X13938400Y-8706000D01*
X13938400Y-8566000D02*
X13798400Y-8706000D01*
X13917898Y-8685498D02*
X13917898Y-8586502D01*
X13818902Y-8586502D01*
X13818902Y-8685498D01*
X13917898Y-8685498D01*
D11*
X11405119Y-11662976D02*
X11405119Y-11462976D01*
X11452738Y-11462976D01*
X11481309Y-11472500D01*
X11500357Y-11491548D01*
X11509881Y-11510595D01*
X11519405Y-11548690D01*
X11519405Y-11577262D01*
X11509881Y-11615357D01*
X11500357Y-11634405D01*
X11481309Y-11653452D01*
X11452738Y-11662976D01*
X11405119Y-11662976D01*
X11605119Y-11662976D02*
X11605119Y-11529643D01*
X11605119Y-11567738D02*
X11614643Y-11548690D01*
X11624167Y-11539167D01*
X11643214Y-11529643D01*
X11662262Y-11529643D01*
X11728928Y-11662976D02*
X11728928Y-11529643D01*
X11728928Y-11462976D02*
X11719405Y-11472500D01*
X11728928Y-11482024D01*
X11738452Y-11472500D01*
X11728928Y-11462976D01*
X11728928Y-11482024D01*
X11852738Y-11662976D02*
X11833690Y-11653452D01*
X11824167Y-11634405D01*
X11824167Y-11462976D01*
X11957500Y-11662976D02*
X11938452Y-11653452D01*
X11928928Y-11634405D01*
X11928928Y-11462976D01*
X12186071Y-11662976D02*
X12186071Y-11462976D01*
X12252738Y-11605833D01*
X12319405Y-11462976D01*
X12319405Y-11662976D01*
X12500357Y-11662976D02*
X12500357Y-11558214D01*
X12490833Y-11539167D01*
X12471786Y-11529643D01*
X12433690Y-11529643D01*
X12414643Y-11539167D01*
X12500357Y-11653452D02*
X12481309Y-11662976D01*
X12433690Y-11662976D01*
X12414643Y-11653452D01*
X12405119Y-11634405D01*
X12405119Y-11615357D01*
X12414643Y-11596309D01*
X12433690Y-11586786D01*
X12481309Y-11586786D01*
X12500357Y-11577262D01*
X12595595Y-11529643D02*
X12595595Y-11729643D01*
X12595595Y-11539167D02*
X12614643Y-11529643D01*
X12652738Y-11529643D01*
X12671786Y-11539167D01*
X12681309Y-11548690D01*
X12690833Y-11567738D01*
X12690833Y-11624881D01*
X12681309Y-11643928D01*
X12671786Y-11653452D01*
X12652738Y-11662976D01*
X12614643Y-11662976D01*
X12595595Y-11653452D01*
X12776548Y-11643928D02*
X12786071Y-11653452D01*
X12776548Y-11662976D01*
X12767024Y-11653452D01*
X12776548Y-11643928D01*
X12776548Y-11662976D01*
X12776548Y-11539167D02*
X12786071Y-11548690D01*
X12776548Y-11558214D01*
X12767024Y-11548690D01*
X12776548Y-11539167D01*
X12776548Y-11558214D01*
D12*
X11077500Y-11957500D02*
X11147500Y-12027500D01*
X11147500Y-11957500D02*
X11077500Y-12027500D01*
D11*
X11443214Y-11882976D02*
X11462262Y-11882976D01*
X11481309Y-11892500D01*
X11490833Y-11902024D01*
X11500357Y-11921071D01*
X11509881Y-11959167D01*
X11509881Y-12006786D01*
X11500357Y-12044881D01*
X11490833Y-12063928D01*
X11481309Y-12073452D01*
X11462262Y-12082976D01*
X11443214Y-12082976D01*
X11424167Y-12073452D01*
X11414643Y-12063928D01*
X11405119Y-12044881D01*
X11395595Y-12006786D01*
X11395595Y-11959167D01*
X11405119Y-11921071D01*
X11414643Y-11902024D01*
X11424167Y-11892500D01*
X11443214Y-11882976D01*
X11595595Y-12063928D02*
X11605119Y-12073452D01*
X11595595Y-12082976D01*
X11586071Y-12073452D01*
X11595595Y-12063928D01*
X11595595Y-12082976D01*
X11671786Y-11882976D02*
X11805119Y-11882976D01*
X11719405Y-12082976D01*
X11919405Y-11882976D02*
X11938452Y-11882976D01*
X11957500Y-11892500D01*
X11967024Y-11902024D01*
X11976548Y-11921071D01*
X11986071Y-11959167D01*
X11986071Y-12006786D01*
X11976548Y-12044881D01*
X11967024Y-12063928D01*
X11957500Y-12073452D01*
X11938452Y-12082976D01*
X11919405Y-12082976D01*
X11900357Y-12073452D01*
X11890833Y-12063928D01*
X11881309Y-12044881D01*
X11871786Y-12006786D01*
X11871786Y-11959167D01*
X11881309Y-11921071D01*
X11890833Y-11902024D01*
X11900357Y-11892500D01*
X11919405Y-11882976D01*
X12109881Y-11882976D02*
X12128928Y-11882976D01*
X12147976Y-11892500D01*
X12157500Y-11902024D01*
X12167024Y-11921071D01*
X12176548Y-11959167D01*
X12176548Y-12006786D01*
X12167024Y-12044881D01*
X12157500Y-12063928D01*
X12147976Y-12073452D01*
X12128928Y-12082976D01*
X12109881Y-12082976D01*
X12090833Y-12073452D01*
X12081309Y-12063928D01*
X12071786Y-12044881D01*
X12062262Y-12006786D01*
X12062262Y-11959167D01*
X12071786Y-11921071D01*
X12081309Y-11902024D01*
X12090833Y-11892500D01*
X12109881Y-11882976D01*
X12262262Y-12082976D02*
X12262262Y-11949643D01*
X12262262Y-11968690D02*
X12271786Y-11959167D01*
X12290833Y-11949643D01*
X12319405Y-11949643D01*
X12338452Y-11959167D01*
X12347976Y-11978214D01*
X12347976Y-12082976D01*
X12347976Y-11978214D02*
X12357500Y-11959167D01*
X12376548Y-11949643D01*
X12405119Y-11949643D01*
X12424167Y-11959167D01*
X12433690Y-11978214D01*
X12433690Y-12082976D01*
X12528928Y-12082976D02*
X12528928Y-11949643D01*
X12528928Y-11968690D02*
X12538452Y-11959167D01*
X12557500Y-11949643D01*
X12586071Y-11949643D01*
X12605119Y-11959167D01*
X12614643Y-11978214D01*
X12614643Y-12082976D01*
X12614643Y-11978214D02*
X12624167Y-11959167D01*
X12643214Y-11949643D01*
X12671786Y-11949643D01*
X12690833Y-11959167D01*
X12700357Y-11978214D01*
X12700357Y-12082976D01*
X13090833Y-11873452D02*
X12919405Y-12130595D01*
X13347976Y-11882976D02*
X13367024Y-11882976D01*
X13386071Y-11892500D01*
X13395595Y-11902024D01*
X13405119Y-11921071D01*
X13414643Y-11959167D01*
X13414643Y-12006786D01*
X13405119Y-12044881D01*
X13395595Y-12063928D01*
X13386071Y-12073452D01*
X13367024Y-12082976D01*
X13347976Y-12082976D01*
X13328928Y-12073452D01*
X13319405Y-12063928D01*
X13309881Y-12044881D01*
X13300357Y-12006786D01*
X13300357Y-11959167D01*
X13309881Y-11921071D01*
X13319405Y-11902024D01*
X13328928Y-11892500D01*
X13347976Y-11882976D01*
X13500357Y-12063928D02*
X13509881Y-12073452D01*
X13500357Y-12082976D01*
X13490833Y-12073452D01*
X13500357Y-12063928D01*
X13500357Y-12082976D01*
X13633690Y-11882976D02*
X13652738Y-11882976D01*
X13671786Y-11892500D01*
X13681309Y-11902024D01*
X13690833Y-11921071D01*
X13700357Y-11959167D01*
X13700357Y-12006786D01*
X13690833Y-12044881D01*
X13681309Y-12063928D01*
X13671786Y-12073452D01*
X13652738Y-12082976D01*
X13633690Y-12082976D01*
X13614643Y-12073452D01*
X13605119Y-12063928D01*
X13595595Y-12044881D01*
X13586071Y-12006786D01*
X13586071Y-11959167D01*
X13595595Y-11921071D01*
X13605119Y-11902024D01*
X13614643Y-11892500D01*
X13633690Y-11882976D01*
X13776548Y-11902024D02*
X13786071Y-11892500D01*
X13805119Y-11882976D01*
X13852738Y-11882976D01*
X13871786Y-11892500D01*
X13881309Y-11902024D01*
X13890833Y-11921071D01*
X13890833Y-11940119D01*
X13881309Y-11968690D01*
X13767024Y-12082976D01*
X13890833Y-12082976D01*
X13957500Y-11882976D02*
X14090833Y-11882976D01*
X14005119Y-12082976D01*
X14252738Y-11882976D02*
X14214643Y-11882976D01*
X14195595Y-11892500D01*
X14186071Y-11902024D01*
X14167024Y-11930595D01*
X14157500Y-11968690D01*
X14157500Y-12044881D01*
X14167024Y-12063928D01*
X14176548Y-12073452D01*
X14195595Y-12082976D01*
X14233690Y-12082976D01*
X14252738Y-12073452D01*
X14262262Y-12063928D01*
X14271786Y-12044881D01*
X14271786Y-11997262D01*
X14262262Y-11978214D01*
X14252738Y-11968690D01*
X14233690Y-11959167D01*
X14195595Y-11959167D01*
X14176548Y-11968690D01*
X14167024Y-11978214D01*
X14157500Y-11997262D01*
X14347976Y-11882976D02*
X14347976Y-11921071D01*
X14424167Y-11882976D02*
X14424167Y-11921071D01*
X14719405Y-12159167D02*
X14709881Y-12149643D01*
X14690833Y-12121071D01*
X14681309Y-12102024D01*
X14671786Y-12073452D01*
X14662262Y-12025833D01*
X14662262Y-11987738D01*
X14671786Y-11940119D01*
X14681309Y-11911548D01*
X14690833Y-11892500D01*
X14709881Y-11863928D01*
X14719405Y-11854405D01*
X14881309Y-11949643D02*
X14881309Y-12082976D01*
X14833690Y-11873452D02*
X14786071Y-12016309D01*
X14909881Y-12016309D01*
X15138452Y-12082976D02*
X15138452Y-11882976D01*
X15224167Y-12082976D02*
X15224167Y-11978214D01*
X15214643Y-11959167D01*
X15195595Y-11949643D01*
X15167024Y-11949643D01*
X15147976Y-11959167D01*
X15138452Y-11968690D01*
X15347976Y-12082976D02*
X15328928Y-12073452D01*
X15319405Y-12063928D01*
X15309881Y-12044881D01*
X15309881Y-11987738D01*
X15319405Y-11968690D01*
X15328928Y-11959167D01*
X15347976Y-11949643D01*
X15376548Y-11949643D01*
X15395595Y-11959167D01*
X15405119Y-11968690D01*
X15414643Y-11987738D01*
X15414643Y-12044881D01*
X15405119Y-12063928D01*
X15395595Y-12073452D01*
X15376548Y-12082976D01*
X15347976Y-12082976D01*
X15528928Y-12082976D02*
X15509881Y-12073452D01*
X15500357Y-12054405D01*
X15500357Y-11882976D01*
X15681309Y-12073452D02*
X15662262Y-12082976D01*
X15624167Y-12082976D01*
X15605119Y-12073452D01*
X15595595Y-12054405D01*
X15595595Y-11978214D01*
X15605119Y-11959167D01*
X15624167Y-11949643D01*
X15662262Y-11949643D01*
X15681309Y-11959167D01*
X15690833Y-11978214D01*
X15690833Y-11997262D01*
X15595595Y-12016309D01*
X15767024Y-12073452D02*
X15786071Y-12082976D01*
X15824167Y-12082976D01*
X15843214Y-12073452D01*
X15852738Y-12054405D01*
X15852738Y-12044881D01*
X15843214Y-12025833D01*
X15824167Y-12016309D01*
X15795595Y-12016309D01*
X15776548Y-12006786D01*
X15767024Y-11987738D01*
X15767024Y-11978214D01*
X15776548Y-11959167D01*
X15795595Y-11949643D01*
X15824167Y-11949643D01*
X15843214Y-11959167D01*
X15919405Y-12159167D02*
X15928928Y-12149643D01*
X15947976Y-12121071D01*
X15957500Y-12102024D01*
X15967024Y-12073452D01*
X15976548Y-12025833D01*
X15976548Y-11987738D01*
X15967024Y-11940119D01*
X15957500Y-11911548D01*
X15947976Y-11892500D01*
X15928928Y-11863928D01*
X15919405Y-11854405D01*
D13*
X11147500Y-12256500D02*
G75*
G03*
X11147500Y-12256500I-38100J0D01*
G01*
D11*
X11443214Y-12146976D02*
X11462262Y-12146976D01*
X11481309Y-12156500D01*
X11490833Y-12166024D01*
X11500357Y-12185071D01*
X11509881Y-12223167D01*
X11509881Y-12270786D01*
X11500357Y-12308881D01*
X11490833Y-12327928D01*
X11481309Y-12337452D01*
X11462262Y-12346976D01*
X11443214Y-12346976D01*
X11424167Y-12337452D01*
X11414643Y-12327928D01*
X11405119Y-12308881D01*
X11395595Y-12270786D01*
X11395595Y-12223167D01*
X11405119Y-12185071D01*
X11414643Y-12166024D01*
X11424167Y-12156500D01*
X11443214Y-12146976D01*
X11595595Y-12327928D02*
X11605119Y-12337452D01*
X11595595Y-12346976D01*
X11586071Y-12337452D01*
X11595595Y-12327928D01*
X11595595Y-12346976D01*
X11671786Y-12146976D02*
X11805119Y-12146976D01*
X11719405Y-12346976D01*
X11967024Y-12146976D02*
X11928928Y-12146976D01*
X11909881Y-12156500D01*
X11900357Y-12166024D01*
X11881309Y-12194595D01*
X11871786Y-12232690D01*
X11871786Y-12308881D01*
X11881309Y-12327928D01*
X11890833Y-12337452D01*
X11909881Y-12346976D01*
X11947976Y-12346976D01*
X11967024Y-12337452D01*
X11976548Y-12327928D01*
X11986071Y-12308881D01*
X11986071Y-12261262D01*
X11976548Y-12242214D01*
X11967024Y-12232690D01*
X11947976Y-12223167D01*
X11909881Y-12223167D01*
X11890833Y-12232690D01*
X11881309Y-12242214D01*
X11871786Y-12261262D01*
X12062262Y-12166024D02*
X12071786Y-12156500D01*
X12090833Y-12146976D01*
X12138452Y-12146976D01*
X12157500Y-12156500D01*
X12167024Y-12166024D01*
X12176548Y-12185071D01*
X12176548Y-12204119D01*
X12167024Y-12232690D01*
X12052738Y-12346976D01*
X12176548Y-12346976D01*
X12262262Y-12346976D02*
X12262262Y-12213643D01*
X12262262Y-12232690D02*
X12271786Y-12223167D01*
X12290833Y-12213643D01*
X12319405Y-12213643D01*
X12338452Y-12223167D01*
X12347976Y-12242214D01*
X12347976Y-12346976D01*
X12347976Y-12242214D02*
X12357500Y-12223167D01*
X12376548Y-12213643D01*
X12405119Y-12213643D01*
X12424167Y-12223167D01*
X12433690Y-12242214D01*
X12433690Y-12346976D01*
X12528928Y-12346976D02*
X12528928Y-12213643D01*
X12528928Y-12232690D02*
X12538452Y-12223167D01*
X12557500Y-12213643D01*
X12586071Y-12213643D01*
X12605119Y-12223167D01*
X12614643Y-12242214D01*
X12614643Y-12346976D01*
X12614643Y-12242214D02*
X12624167Y-12223167D01*
X12643214Y-12213643D01*
X12671786Y-12213643D01*
X12690833Y-12223167D01*
X12700357Y-12242214D01*
X12700357Y-12346976D01*
X13090833Y-12137452D02*
X12919405Y-12394595D01*
X13347976Y-12146976D02*
X13367024Y-12146976D01*
X13386071Y-12156500D01*
X13395595Y-12166024D01*
X13405119Y-12185071D01*
X13414643Y-12223167D01*
X13414643Y-12270786D01*
X13405119Y-12308881D01*
X13395595Y-12327928D01*
X13386071Y-12337452D01*
X13367024Y-12346976D01*
X13347976Y-12346976D01*
X13328928Y-12337452D01*
X13319405Y-12327928D01*
X13309881Y-12308881D01*
X13300357Y-12270786D01*
X13300357Y-12223167D01*
X13309881Y-12185071D01*
X13319405Y-12166024D01*
X13328928Y-12156500D01*
X13347976Y-12146976D01*
X13500357Y-12327928D02*
X13509881Y-12337452D01*
X13500357Y-12346976D01*
X13490833Y-12337452D01*
X13500357Y-12327928D01*
X13500357Y-12346976D01*
X13633690Y-12146976D02*
X13652738Y-12146976D01*
X13671786Y-12156500D01*
X13681309Y-12166024D01*
X13690833Y-12185071D01*
X13700357Y-12223167D01*
X13700357Y-12270786D01*
X13690833Y-12308881D01*
X13681309Y-12327928D01*
X13671786Y-12337452D01*
X13652738Y-12346976D01*
X13633690Y-12346976D01*
X13614643Y-12337452D01*
X13605119Y-12327928D01*
X13595595Y-12308881D01*
X13586071Y-12270786D01*
X13586071Y-12223167D01*
X13595595Y-12185071D01*
X13605119Y-12166024D01*
X13614643Y-12156500D01*
X13633690Y-12146976D01*
X13767024Y-12146976D02*
X13890833Y-12146976D01*
X13824167Y-12223167D01*
X13852738Y-12223167D01*
X13871786Y-12232690D01*
X13881309Y-12242214D01*
X13890833Y-12261262D01*
X13890833Y-12308881D01*
X13881309Y-12327928D01*
X13871786Y-12337452D01*
X13852738Y-12346976D01*
X13795595Y-12346976D01*
X13776548Y-12337452D01*
X13767024Y-12327928D01*
X14014643Y-12146976D02*
X14033690Y-12146976D01*
X14052738Y-12156500D01*
X14062262Y-12166024D01*
X14071786Y-12185071D01*
X14081309Y-12223167D01*
X14081309Y-12270786D01*
X14071786Y-12308881D01*
X14062262Y-12327928D01*
X14052738Y-12337452D01*
X14033690Y-12346976D01*
X14014643Y-12346976D01*
X13995595Y-12337452D01*
X13986071Y-12327928D01*
X13976548Y-12308881D01*
X13967024Y-12270786D01*
X13967024Y-12223167D01*
X13976548Y-12185071D01*
X13986071Y-12166024D01*
X13995595Y-12156500D01*
X14014643Y-12146976D01*
X14205119Y-12146976D02*
X14224167Y-12146976D01*
X14243214Y-12156500D01*
X14252738Y-12166024D01*
X14262262Y-12185071D01*
X14271786Y-12223167D01*
X14271786Y-12270786D01*
X14262262Y-12308881D01*
X14252738Y-12327928D01*
X14243214Y-12337452D01*
X14224167Y-12346976D01*
X14205119Y-12346976D01*
X14186071Y-12337452D01*
X14176548Y-12327928D01*
X14167024Y-12308881D01*
X14157500Y-12270786D01*
X14157500Y-12223167D01*
X14167024Y-12185071D01*
X14176548Y-12166024D01*
X14186071Y-12156500D01*
X14205119Y-12146976D01*
X14347976Y-12146976D02*
X14347976Y-12185071D01*
X14424167Y-12146976D02*
X14424167Y-12185071D01*
X14719405Y-12423167D02*
X14709881Y-12413643D01*
X14690833Y-12385071D01*
X14681309Y-12366024D01*
X14671786Y-12337452D01*
X14662262Y-12289833D01*
X14662262Y-12251738D01*
X14671786Y-12204119D01*
X14681309Y-12175548D01*
X14690833Y-12156500D01*
X14709881Y-12127928D01*
X14719405Y-12118405D01*
X14824167Y-12232690D02*
X14805119Y-12223167D01*
X14795595Y-12213643D01*
X14786071Y-12194595D01*
X14786071Y-12185071D01*
X14795595Y-12166024D01*
X14805119Y-12156500D01*
X14824167Y-12146976D01*
X14862262Y-12146976D01*
X14881309Y-12156500D01*
X14890833Y-12166024D01*
X14900357Y-12185071D01*
X14900357Y-12194595D01*
X14890833Y-12213643D01*
X14881309Y-12223167D01*
X14862262Y-12232690D01*
X14824167Y-12232690D01*
X14805119Y-12242214D01*
X14795595Y-12251738D01*
X14786071Y-12270786D01*
X14786071Y-12308881D01*
X14795595Y-12327928D01*
X14805119Y-12337452D01*
X14824167Y-12346976D01*
X14862262Y-12346976D01*
X14881309Y-12337452D01*
X14890833Y-12327928D01*
X14900357Y-12308881D01*
X14900357Y-12270786D01*
X14890833Y-12251738D01*
X14881309Y-12242214D01*
X14862262Y-12232690D01*
X15138452Y-12346976D02*
X15138452Y-12146976D01*
X15224167Y-12346976D02*
X15224167Y-12242214D01*
X15214643Y-12223167D01*
X15195595Y-12213643D01*
X15167024Y-12213643D01*
X15147976Y-12223167D01*
X15138452Y-12232690D01*
X15347976Y-12346976D02*
X15328928Y-12337452D01*
X15319405Y-12327928D01*
X15309881Y-12308881D01*
X15309881Y-12251738D01*
X15319405Y-12232690D01*
X15328928Y-12223167D01*
X15347976Y-12213643D01*
X15376548Y-12213643D01*
X15395595Y-12223167D01*
X15405119Y-12232690D01*
X15414643Y-12251738D01*
X15414643Y-12308881D01*
X15405119Y-12327928D01*
X15395595Y-12337452D01*
X15376548Y-12346976D01*
X15347976Y-12346976D01*
X15528928Y-12346976D02*
X15509881Y-12337452D01*
X15500357Y-12318405D01*
X15500357Y-12146976D01*
X15681309Y-12337452D02*
X15662262Y-12346976D01*
X15624167Y-12346976D01*
X15605119Y-12337452D01*
X15595595Y-12318405D01*
X15595595Y-12242214D01*
X15605119Y-12223167D01*
X15624167Y-12213643D01*
X15662262Y-12213643D01*
X15681309Y-12223167D01*
X15690833Y-12242214D01*
X15690833Y-12261262D01*
X15595595Y-12280309D01*
X15767024Y-12337452D02*
X15786071Y-12346976D01*
X15824167Y-12346976D01*
X15843214Y-12337452D01*
X15852738Y-12318405D01*
X15852738Y-12308881D01*
X15843214Y-12289833D01*
X15824167Y-12280309D01*
X15795595Y-12280309D01*
X15776548Y-12270786D01*
X15767024Y-12251738D01*
X15767024Y-12242214D01*
X15776548Y-12223167D01*
X15795595Y-12213643D01*
X15824167Y-12213643D01*
X15843214Y-12223167D01*
X15919405Y-12423167D02*
X15928928Y-12413643D01*
X15947976Y-12385071D01*
X15957500Y-12366024D01*
X15967024Y-12337452D01*
X15976548Y-12289833D01*
X15976548Y-12251738D01*
X15967024Y-12204119D01*
X15957500Y-12175548D01*
X15947976Y-12156500D01*
X15928928Y-12127928D01*
X15919405Y-12118405D01*
D14*
X11107500Y-12480500D02*
X11107500Y-12560500D01*
X11067500Y-12520500D02*
X11147500Y-12520500D01*
D11*
X11443214Y-12410976D02*
X11462262Y-12410976D01*
X11481309Y-12420500D01*
X11490833Y-12430024D01*
X11500357Y-12449071D01*
X11509881Y-12487167D01*
X11509881Y-12534786D01*
X11500357Y-12572881D01*
X11490833Y-12591928D01*
X11481309Y-12601452D01*
X11462262Y-12610976D01*
X11443214Y-12610976D01*
X11424167Y-12601452D01*
X11414643Y-12591928D01*
X11405119Y-12572881D01*
X11395595Y-12534786D01*
X11395595Y-12487167D01*
X11405119Y-12449071D01*
X11414643Y-12430024D01*
X11424167Y-12420500D01*
X11443214Y-12410976D01*
X11595595Y-12591928D02*
X11605119Y-12601452D01*
X11595595Y-12610976D01*
X11586071Y-12601452D01*
X11595595Y-12591928D01*
X11595595Y-12610976D01*
X11719405Y-12496690D02*
X11700357Y-12487167D01*
X11690833Y-12477643D01*
X11681309Y-12458595D01*
X11681309Y-12449071D01*
X11690833Y-12430024D01*
X11700357Y-12420500D01*
X11719405Y-12410976D01*
X11757500Y-12410976D01*
X11776548Y-12420500D01*
X11786071Y-12430024D01*
X11795595Y-12449071D01*
X11795595Y-12458595D01*
X11786071Y-12477643D01*
X11776548Y-12487167D01*
X11757500Y-12496690D01*
X11719405Y-12496690D01*
X11700357Y-12506214D01*
X11690833Y-12515738D01*
X11681309Y-12534786D01*
X11681309Y-12572881D01*
X11690833Y-12591928D01*
X11700357Y-12601452D01*
X11719405Y-12610976D01*
X11757500Y-12610976D01*
X11776548Y-12601452D01*
X11786071Y-12591928D01*
X11795595Y-12572881D01*
X11795595Y-12534786D01*
X11786071Y-12515738D01*
X11776548Y-12506214D01*
X11757500Y-12496690D01*
X11919405Y-12410976D02*
X11938452Y-12410976D01*
X11957500Y-12420500D01*
X11967024Y-12430024D01*
X11976548Y-12449071D01*
X11986071Y-12487167D01*
X11986071Y-12534786D01*
X11976548Y-12572881D01*
X11967024Y-12591928D01*
X11957500Y-12601452D01*
X11938452Y-12610976D01*
X11919405Y-12610976D01*
X11900357Y-12601452D01*
X11890833Y-12591928D01*
X11881309Y-12572881D01*
X11871786Y-12534786D01*
X11871786Y-12487167D01*
X11881309Y-12449071D01*
X11890833Y-12430024D01*
X11900357Y-12420500D01*
X11919405Y-12410976D01*
X12109881Y-12410976D02*
X12128928Y-12410976D01*
X12147976Y-12420500D01*
X12157500Y-12430024D01*
X12167024Y-12449071D01*
X12176548Y-12487167D01*
X12176548Y-12534786D01*
X12167024Y-12572881D01*
X12157500Y-12591928D01*
X12147976Y-12601452D01*
X12128928Y-12610976D01*
X12109881Y-12610976D01*
X12090833Y-12601452D01*
X12081309Y-12591928D01*
X12071786Y-12572881D01*
X12062262Y-12534786D01*
X12062262Y-12487167D01*
X12071786Y-12449071D01*
X12081309Y-12430024D01*
X12090833Y-12420500D01*
X12109881Y-12410976D01*
X12262262Y-12610976D02*
X12262262Y-12477643D01*
X12262262Y-12496690D02*
X12271786Y-12487167D01*
X12290833Y-12477643D01*
X12319405Y-12477643D01*
X12338452Y-12487167D01*
X12347976Y-12506214D01*
X12347976Y-12610976D01*
X12347976Y-12506214D02*
X12357500Y-12487167D01*
X12376548Y-12477643D01*
X12405119Y-12477643D01*
X12424167Y-12487167D01*
X12433690Y-12506214D01*
X12433690Y-12610976D01*
X12528928Y-12610976D02*
X12528928Y-12477643D01*
X12528928Y-12496690D02*
X12538452Y-12487167D01*
X12557500Y-12477643D01*
X12586071Y-12477643D01*
X12605119Y-12487167D01*
X12614643Y-12506214D01*
X12614643Y-12610976D01*
X12614643Y-12506214D02*
X12624167Y-12487167D01*
X12643214Y-12477643D01*
X12671786Y-12477643D01*
X12690833Y-12487167D01*
X12700357Y-12506214D01*
X12700357Y-12610976D01*
X13090833Y-12401452D02*
X12919405Y-12658595D01*
X13347976Y-12410976D02*
X13367024Y-12410976D01*
X13386071Y-12420500D01*
X13395595Y-12430024D01*
X13405119Y-12449071D01*
X13414643Y-12487167D01*
X13414643Y-12534786D01*
X13405119Y-12572881D01*
X13395595Y-12591928D01*
X13386071Y-12601452D01*
X13367024Y-12610976D01*
X13347976Y-12610976D01*
X13328928Y-12601452D01*
X13319405Y-12591928D01*
X13309881Y-12572881D01*
X13300357Y-12534786D01*
X13300357Y-12487167D01*
X13309881Y-12449071D01*
X13319405Y-12430024D01*
X13328928Y-12420500D01*
X13347976Y-12410976D01*
X13500357Y-12591928D02*
X13509881Y-12601452D01*
X13500357Y-12610976D01*
X13490833Y-12601452D01*
X13500357Y-12591928D01*
X13500357Y-12610976D01*
X13633690Y-12410976D02*
X13652738Y-12410976D01*
X13671786Y-12420500D01*
X13681309Y-12430024D01*
X13690833Y-12449071D01*
X13700357Y-12487167D01*
X13700357Y-12534786D01*
X13690833Y-12572881D01*
X13681309Y-12591928D01*
X13671786Y-12601452D01*
X13652738Y-12610976D01*
X13633690Y-12610976D01*
X13614643Y-12601452D01*
X13605119Y-12591928D01*
X13595595Y-12572881D01*
X13586071Y-12534786D01*
X13586071Y-12487167D01*
X13595595Y-12449071D01*
X13605119Y-12430024D01*
X13614643Y-12420500D01*
X13633690Y-12410976D01*
X13767024Y-12410976D02*
X13890833Y-12410976D01*
X13824167Y-12487167D01*
X13852738Y-12487167D01*
X13871786Y-12496690D01*
X13881309Y-12506214D01*
X13890833Y-12525262D01*
X13890833Y-12572881D01*
X13881309Y-12591928D01*
X13871786Y-12601452D01*
X13852738Y-12610976D01*
X13795595Y-12610976D01*
X13776548Y-12601452D01*
X13767024Y-12591928D01*
X14081309Y-12610976D02*
X13967024Y-12610976D01*
X14024167Y-12610976D02*
X14024167Y-12410976D01*
X14005119Y-12439548D01*
X13986071Y-12458595D01*
X13967024Y-12468119D01*
X14262262Y-12410976D02*
X14167024Y-12410976D01*
X14157500Y-12506214D01*
X14167024Y-12496690D01*
X14186071Y-12487167D01*
X14233690Y-12487167D01*
X14252738Y-12496690D01*
X14262262Y-12506214D01*
X14271786Y-12525262D01*
X14271786Y-12572881D01*
X14262262Y-12591928D01*
X14252738Y-12601452D01*
X14233690Y-12610976D01*
X14186071Y-12610976D01*
X14167024Y-12601452D01*
X14157500Y-12591928D01*
X14347976Y-12410976D02*
X14347976Y-12449071D01*
X14424167Y-12410976D02*
X14424167Y-12449071D01*
X14719405Y-12687167D02*
X14709881Y-12677643D01*
X14690833Y-12649071D01*
X14681309Y-12630024D01*
X14671786Y-12601452D01*
X14662262Y-12553833D01*
X14662262Y-12515738D01*
X14671786Y-12468119D01*
X14681309Y-12439548D01*
X14690833Y-12420500D01*
X14709881Y-12391928D01*
X14719405Y-12382405D01*
X14881309Y-12477643D02*
X14881309Y-12610976D01*
X14833690Y-12401452D02*
X14786071Y-12544309D01*
X14909881Y-12544309D01*
X15138452Y-12610976D02*
X15138452Y-12410976D01*
X15224167Y-12610976D02*
X15224167Y-12506214D01*
X15214643Y-12487167D01*
X15195595Y-12477643D01*
X15167024Y-12477643D01*
X15147976Y-12487167D01*
X15138452Y-12496690D01*
X15347976Y-12610976D02*
X15328928Y-12601452D01*
X15319405Y-12591928D01*
X15309881Y-12572881D01*
X15309881Y-12515738D01*
X15319405Y-12496690D01*
X15328928Y-12487167D01*
X15347976Y-12477643D01*
X15376548Y-12477643D01*
X15395595Y-12487167D01*
X15405119Y-12496690D01*
X15414643Y-12515738D01*
X15414643Y-12572881D01*
X15405119Y-12591928D01*
X15395595Y-12601452D01*
X15376548Y-12610976D01*
X15347976Y-12610976D01*
X15528928Y-12610976D02*
X15509881Y-12601452D01*
X15500357Y-12582405D01*
X15500357Y-12410976D01*
X15681309Y-12601452D02*
X15662262Y-12610976D01*
X15624167Y-12610976D01*
X15605119Y-12601452D01*
X15595595Y-12582405D01*
X15595595Y-12506214D01*
X15605119Y-12487167D01*
X15624167Y-12477643D01*
X15662262Y-12477643D01*
X15681309Y-12487167D01*
X15690833Y-12506214D01*
X15690833Y-12525262D01*
X15595595Y-12544309D01*
X15767024Y-12601452D02*
X15786071Y-12610976D01*
X15824167Y-12610976D01*
X15843214Y-12601452D01*
X15852738Y-12582405D01*
X15852738Y-12572881D01*
X15843214Y-12553833D01*
X15824167Y-12544309D01*
X15795595Y-12544309D01*
X15776548Y-12534786D01*
X15767024Y-12515738D01*
X15767024Y-12506214D01*
X15776548Y-12487167D01*
X15795595Y-12477643D01*
X15824167Y-12477643D01*
X15843214Y-12487167D01*
X15919405Y-12687167D02*
X15928928Y-12677643D01*
X15947976Y-12649071D01*
X15957500Y-12630024D01*
X15967024Y-12601452D01*
X15976548Y-12553833D01*
X15976548Y-12515738D01*
X15967024Y-12468119D01*
X15957500Y-12439548D01*
X15947976Y-12420500D01*
X15928928Y-12391928D01*
X15919405Y-12382405D01*
D15*
X11132856Y-12819856D02*
X11132856Y-12749144D01*
X11062144Y-12749144D01*
X11062144Y-12819856D01*
X11132856Y-12819856D01*
D11*
X11509881Y-12874976D02*
X11395595Y-12874976D01*
X11452738Y-12874976D02*
X11452738Y-12674976D01*
X11433690Y-12703548D01*
X11414643Y-12722595D01*
X11395595Y-12732119D01*
X11595595Y-12855928D02*
X11605119Y-12865452D01*
X11595595Y-12874976D01*
X11586071Y-12865452D01*
X11595595Y-12855928D01*
X11595595Y-12874976D01*
X11728928Y-12674976D02*
X11747976Y-12674976D01*
X11767024Y-12684500D01*
X11776548Y-12694024D01*
X11786071Y-12713071D01*
X11795595Y-12751167D01*
X11795595Y-12798786D01*
X11786071Y-12836881D01*
X11776548Y-12855928D01*
X11767024Y-12865452D01*
X11747976Y-12874976D01*
X11728928Y-12874976D01*
X11709881Y-12865452D01*
X11700357Y-12855928D01*
X11690833Y-12836881D01*
X11681309Y-12798786D01*
X11681309Y-12751167D01*
X11690833Y-12713071D01*
X11700357Y-12694024D01*
X11709881Y-12684500D01*
X11728928Y-12674976D01*
X11919405Y-12674976D02*
X11938452Y-12674976D01*
X11957500Y-12684500D01*
X11967024Y-12694024D01*
X11976548Y-12713071D01*
X11986071Y-12751167D01*
X11986071Y-12798786D01*
X11976548Y-12836881D01*
X11967024Y-12855928D01*
X11957500Y-12865452D01*
X11938452Y-12874976D01*
X11919405Y-12874976D01*
X11900357Y-12865452D01*
X11890833Y-12855928D01*
X11881309Y-12836881D01*
X11871786Y-12798786D01*
X11871786Y-12751167D01*
X11881309Y-12713071D01*
X11890833Y-12694024D01*
X11900357Y-12684500D01*
X11919405Y-12674976D01*
X12109881Y-12674976D02*
X12128928Y-12674976D01*
X12147976Y-12684500D01*
X12157500Y-12694024D01*
X12167024Y-12713071D01*
X12176548Y-12751167D01*
X12176548Y-12798786D01*
X12167024Y-12836881D01*
X12157500Y-12855928D01*
X12147976Y-12865452D01*
X12128928Y-12874976D01*
X12109881Y-12874976D01*
X12090833Y-12865452D01*
X12081309Y-12855928D01*
X12071786Y-12836881D01*
X12062262Y-12798786D01*
X12062262Y-12751167D01*
X12071786Y-12713071D01*
X12081309Y-12694024D01*
X12090833Y-12684500D01*
X12109881Y-12674976D01*
X12262262Y-12874976D02*
X12262262Y-12741643D01*
X12262262Y-12760690D02*
X12271786Y-12751167D01*
X12290833Y-12741643D01*
X12319405Y-12741643D01*
X12338452Y-12751167D01*
X12347976Y-12770214D01*
X12347976Y-12874976D01*
X12347976Y-12770214D02*
X12357500Y-12751167D01*
X12376548Y-12741643D01*
X12405119Y-12741643D01*
X12424167Y-12751167D01*
X12433690Y-12770214D01*
X12433690Y-12874976D01*
X12528928Y-12874976D02*
X12528928Y-12741643D01*
X12528928Y-12760690D02*
X12538452Y-12751167D01*
X12557500Y-12741643D01*
X12586071Y-12741643D01*
X12605119Y-12751167D01*
X12614643Y-12770214D01*
X12614643Y-12874976D01*
X12614643Y-12770214D02*
X12624167Y-12751167D01*
X12643214Y-12741643D01*
X12671786Y-12741643D01*
X12690833Y-12751167D01*
X12700357Y-12770214D01*
X12700357Y-12874976D01*
X13090833Y-12665452D02*
X12919405Y-12922595D01*
X13347976Y-12674976D02*
X13367024Y-12674976D01*
X13386071Y-12684500D01*
X13395595Y-12694024D01*
X13405119Y-12713071D01*
X13414643Y-12751167D01*
X13414643Y-12798786D01*
X13405119Y-12836881D01*
X13395595Y-12855928D01*
X13386071Y-12865452D01*
X13367024Y-12874976D01*
X13347976Y-12874976D01*
X13328928Y-12865452D01*
X13319405Y-12855928D01*
X13309881Y-12836881D01*
X13300357Y-12798786D01*
X13300357Y-12751167D01*
X13309881Y-12713071D01*
X13319405Y-12694024D01*
X13328928Y-12684500D01*
X13347976Y-12674976D01*
X13500357Y-12855928D02*
X13509881Y-12865452D01*
X13500357Y-12874976D01*
X13490833Y-12865452D01*
X13500357Y-12855928D01*
X13500357Y-12874976D01*
X13633690Y-12674976D02*
X13652738Y-12674976D01*
X13671786Y-12684500D01*
X13681309Y-12694024D01*
X13690833Y-12713071D01*
X13700357Y-12751167D01*
X13700357Y-12798786D01*
X13690833Y-12836881D01*
X13681309Y-12855928D01*
X13671786Y-12865452D01*
X13652738Y-12874976D01*
X13633690Y-12874976D01*
X13614643Y-12865452D01*
X13605119Y-12855928D01*
X13595595Y-12836881D01*
X13586071Y-12798786D01*
X13586071Y-12751167D01*
X13595595Y-12713071D01*
X13605119Y-12694024D01*
X13614643Y-12684500D01*
X13633690Y-12674976D01*
X13767024Y-12674976D02*
X13890833Y-12674976D01*
X13824167Y-12751167D01*
X13852738Y-12751167D01*
X13871786Y-12760690D01*
X13881309Y-12770214D01*
X13890833Y-12789262D01*
X13890833Y-12836881D01*
X13881309Y-12855928D01*
X13871786Y-12865452D01*
X13852738Y-12874976D01*
X13795595Y-12874976D01*
X13776548Y-12865452D01*
X13767024Y-12855928D01*
X13986071Y-12874976D02*
X14024167Y-12874976D01*
X14043214Y-12865452D01*
X14052738Y-12855928D01*
X14071786Y-12827357D01*
X14081309Y-12789262D01*
X14081309Y-12713071D01*
X14071786Y-12694024D01*
X14062262Y-12684500D01*
X14043214Y-12674976D01*
X14005119Y-12674976D01*
X13986071Y-12684500D01*
X13976548Y-12694024D01*
X13967024Y-12713071D01*
X13967024Y-12760690D01*
X13976548Y-12779738D01*
X13986071Y-12789262D01*
X14005119Y-12798786D01*
X14043214Y-12798786D01*
X14062262Y-12789262D01*
X14071786Y-12779738D01*
X14081309Y-12760690D01*
X14252738Y-12741643D02*
X14252738Y-12874976D01*
X14205119Y-12665452D02*
X14157500Y-12808309D01*
X14281309Y-12808309D01*
X14347976Y-12674976D02*
X14347976Y-12713071D01*
X14424167Y-12674976D02*
X14424167Y-12713071D01*
X14719405Y-12951167D02*
X14709881Y-12941643D01*
X14690833Y-12913071D01*
X14681309Y-12894024D01*
X14671786Y-12865452D01*
X14662262Y-12817833D01*
X14662262Y-12779738D01*
X14671786Y-12732119D01*
X14681309Y-12703548D01*
X14690833Y-12684500D01*
X14709881Y-12655928D01*
X14719405Y-12646405D01*
X14881309Y-12674976D02*
X14843214Y-12674976D01*
X14824167Y-12684500D01*
X14814643Y-12694024D01*
X14795595Y-12722595D01*
X14786071Y-12760690D01*
X14786071Y-12836881D01*
X14795595Y-12855928D01*
X14805119Y-12865452D01*
X14824167Y-12874976D01*
X14862262Y-12874976D01*
X14881309Y-12865452D01*
X14890833Y-12855928D01*
X14900357Y-12836881D01*
X14900357Y-12789262D01*
X14890833Y-12770214D01*
X14881309Y-12760690D01*
X14862262Y-12751167D01*
X14824167Y-12751167D01*
X14805119Y-12760690D01*
X14795595Y-12770214D01*
X14786071Y-12789262D01*
X15138452Y-12874976D02*
X15138452Y-12674976D01*
X15224167Y-12874976D02*
X15224167Y-12770214D01*
X15214643Y-12751167D01*
X15195595Y-12741643D01*
X15167024Y-12741643D01*
X15147976Y-12751167D01*
X15138452Y-12760690D01*
X15347976Y-12874976D02*
X15328928Y-12865452D01*
X15319405Y-12855928D01*
X15309881Y-12836881D01*
X15309881Y-12779738D01*
X15319405Y-12760690D01*
X15328928Y-12751167D01*
X15347976Y-12741643D01*
X15376548Y-12741643D01*
X15395595Y-12751167D01*
X15405119Y-12760690D01*
X15414643Y-12779738D01*
X15414643Y-12836881D01*
X15405119Y-12855928D01*
X15395595Y-12865452D01*
X15376548Y-12874976D01*
X15347976Y-12874976D01*
X15528928Y-12874976D02*
X15509881Y-12865452D01*
X15500357Y-12846405D01*
X15500357Y-12674976D01*
X15681309Y-12865452D02*
X15662262Y-12874976D01*
X15624167Y-12874976D01*
X15605119Y-12865452D01*
X15595595Y-12846405D01*
X15595595Y-12770214D01*
X15605119Y-12751167D01*
X15624167Y-12741643D01*
X15662262Y-12741643D01*
X15681309Y-12751167D01*
X15690833Y-12770214D01*
X15690833Y-12789262D01*
X15595595Y-12808309D01*
X15767024Y-12865452D02*
X15786071Y-12874976D01*
X15824167Y-12874976D01*
X15843214Y-12865452D01*
X15852738Y-12846405D01*
X15852738Y-12836881D01*
X15843214Y-12817833D01*
X15824167Y-12808309D01*
X15795595Y-12808309D01*
X15776548Y-12798786D01*
X15767024Y-12779738D01*
X15767024Y-12770214D01*
X15776548Y-12751167D01*
X15795595Y-12741643D01*
X15824167Y-12741643D01*
X15843214Y-12751167D01*
X15919405Y-12951167D02*
X15928928Y-12941643D01*
X15947976Y-12913071D01*
X15957500Y-12894024D01*
X15967024Y-12865452D01*
X15976548Y-12817833D01*
X15976548Y-12779738D01*
X15967024Y-12732119D01*
X15957500Y-12703548D01*
X15947976Y-12684500D01*
X15928928Y-12655928D01*
X15919405Y-12646405D01*
D16*
X11097462Y-13098538D02*
X11147500Y-13048500D01*
X11097462Y-12998462D01*
X11047424Y-13048500D01*
X11097462Y-13098538D01*
D11*
X11509881Y-13138976D02*
X11395595Y-13138976D01*
X11452738Y-13138976D02*
X11452738Y-12938976D01*
X11433690Y-12967548D01*
X11414643Y-12986595D01*
X11395595Y-12996119D01*
X11595595Y-13119928D02*
X11605119Y-13129452D01*
X11595595Y-13138976D01*
X11586071Y-13129452D01*
X11595595Y-13119928D01*
X11595595Y-13138976D01*
X11728928Y-12938976D02*
X11747976Y-12938976D01*
X11767024Y-12948500D01*
X11776548Y-12958024D01*
X11786071Y-12977071D01*
X11795595Y-13015167D01*
X11795595Y-13062786D01*
X11786071Y-13100881D01*
X11776548Y-13119928D01*
X11767024Y-13129452D01*
X11747976Y-13138976D01*
X11728928Y-13138976D01*
X11709881Y-13129452D01*
X11700357Y-13119928D01*
X11690833Y-13100881D01*
X11681309Y-13062786D01*
X11681309Y-13015167D01*
X11690833Y-12977071D01*
X11700357Y-12958024D01*
X11709881Y-12948500D01*
X11728928Y-12938976D01*
X11919405Y-12938976D02*
X11938452Y-12938976D01*
X11957500Y-12948500D01*
X11967024Y-12958024D01*
X11976548Y-12977071D01*
X11986071Y-13015167D01*
X11986071Y-13062786D01*
X11976548Y-13100881D01*
X11967024Y-13119928D01*
X11957500Y-13129452D01*
X11938452Y-13138976D01*
X11919405Y-13138976D01*
X11900357Y-13129452D01*
X11890833Y-13119928D01*
X11881309Y-13100881D01*
X11871786Y-13062786D01*
X11871786Y-13015167D01*
X11881309Y-12977071D01*
X11890833Y-12958024D01*
X11900357Y-12948500D01*
X11919405Y-12938976D01*
X12176548Y-13138976D02*
X12062262Y-13138976D01*
X12119405Y-13138976D02*
X12119405Y-12938976D01*
X12100357Y-12967548D01*
X12081309Y-12986595D01*
X12062262Y-12996119D01*
X12262262Y-13138976D02*
X12262262Y-13005643D01*
X12262262Y-13024690D02*
X12271786Y-13015167D01*
X12290833Y-13005643D01*
X12319405Y-13005643D01*
X12338452Y-13015167D01*
X12347976Y-13034214D01*
X12347976Y-13138976D01*
X12347976Y-13034214D02*
X12357500Y-13015167D01*
X12376548Y-13005643D01*
X12405119Y-13005643D01*
X12424167Y-13015167D01*
X12433690Y-13034214D01*
X12433690Y-13138976D01*
X12528928Y-13138976D02*
X12528928Y-13005643D01*
X12528928Y-13024690D02*
X12538452Y-13015167D01*
X12557500Y-13005643D01*
X12586071Y-13005643D01*
X12605119Y-13015167D01*
X12614643Y-13034214D01*
X12614643Y-13138976D01*
X12614643Y-13034214D02*
X12624167Y-13015167D01*
X12643214Y-13005643D01*
X12671786Y-13005643D01*
X12690833Y-13015167D01*
X12700357Y-13034214D01*
X12700357Y-13138976D01*
X13090833Y-12929452D02*
X12919405Y-13186595D01*
X13347976Y-12938976D02*
X13367024Y-12938976D01*
X13386071Y-12948500D01*
X13395595Y-12958024D01*
X13405119Y-12977071D01*
X13414643Y-13015167D01*
X13414643Y-13062786D01*
X13405119Y-13100881D01*
X13395595Y-13119928D01*
X13386071Y-13129452D01*
X13367024Y-13138976D01*
X13347976Y-13138976D01*
X13328928Y-13129452D01*
X13319405Y-13119928D01*
X13309881Y-13100881D01*
X13300357Y-13062786D01*
X13300357Y-13015167D01*
X13309881Y-12977071D01*
X13319405Y-12958024D01*
X13328928Y-12948500D01*
X13347976Y-12938976D01*
X13500357Y-13119928D02*
X13509881Y-13129452D01*
X13500357Y-13138976D01*
X13490833Y-13129452D01*
X13500357Y-13119928D01*
X13500357Y-13138976D01*
X13633690Y-12938976D02*
X13652738Y-12938976D01*
X13671786Y-12948500D01*
X13681309Y-12958024D01*
X13690833Y-12977071D01*
X13700357Y-13015167D01*
X13700357Y-13062786D01*
X13690833Y-13100881D01*
X13681309Y-13119928D01*
X13671786Y-13129452D01*
X13652738Y-13138976D01*
X13633690Y-13138976D01*
X13614643Y-13129452D01*
X13605119Y-13119928D01*
X13595595Y-13100881D01*
X13586071Y-13062786D01*
X13586071Y-13015167D01*
X13595595Y-12977071D01*
X13605119Y-12958024D01*
X13614643Y-12948500D01*
X13633690Y-12938976D01*
X13767024Y-12938976D02*
X13890833Y-12938976D01*
X13824167Y-13015167D01*
X13852738Y-13015167D01*
X13871786Y-13024690D01*
X13881309Y-13034214D01*
X13890833Y-13053262D01*
X13890833Y-13100881D01*
X13881309Y-13119928D01*
X13871786Y-13129452D01*
X13852738Y-13138976D01*
X13795595Y-13138976D01*
X13776548Y-13129452D01*
X13767024Y-13119928D01*
X13986071Y-13138976D02*
X14024167Y-13138976D01*
X14043214Y-13129452D01*
X14052738Y-13119928D01*
X14071786Y-13091357D01*
X14081309Y-13053262D01*
X14081309Y-12977071D01*
X14071786Y-12958024D01*
X14062262Y-12948500D01*
X14043214Y-12938976D01*
X14005119Y-12938976D01*
X13986071Y-12948500D01*
X13976548Y-12958024D01*
X13967024Y-12977071D01*
X13967024Y-13024690D01*
X13976548Y-13043738D01*
X13986071Y-13053262D01*
X14005119Y-13062786D01*
X14043214Y-13062786D01*
X14062262Y-13053262D01*
X14071786Y-13043738D01*
X14081309Y-13024690D01*
X14252738Y-13005643D02*
X14252738Y-13138976D01*
X14205119Y-12929452D02*
X14157500Y-13072309D01*
X14281309Y-13072309D01*
X14347976Y-12938976D02*
X14347976Y-12977071D01*
X14424167Y-12938976D02*
X14424167Y-12977071D01*
X14719405Y-13215167D02*
X14709881Y-13205643D01*
X14690833Y-13177071D01*
X14681309Y-13158024D01*
X14671786Y-13129452D01*
X14662262Y-13081833D01*
X14662262Y-13043738D01*
X14671786Y-12996119D01*
X14681309Y-12967548D01*
X14690833Y-12948500D01*
X14709881Y-12919928D01*
X14719405Y-12910405D01*
X14881309Y-13005643D02*
X14881309Y-13138976D01*
X14833690Y-12929452D02*
X14786071Y-13072309D01*
X14909881Y-13072309D01*
X15138452Y-13138976D02*
X15138452Y-12938976D01*
X15224167Y-13138976D02*
X15224167Y-13034214D01*
X15214643Y-13015167D01*
X15195595Y-13005643D01*
X15167024Y-13005643D01*
X15147976Y-13015167D01*
X15138452Y-13024690D01*
X15347976Y-13138976D02*
X15328928Y-13129452D01*
X15319405Y-13119928D01*
X15309881Y-13100881D01*
X15309881Y-13043738D01*
X15319405Y-13024690D01*
X15328928Y-13015167D01*
X15347976Y-13005643D01*
X15376548Y-13005643D01*
X15395595Y-13015167D01*
X15405119Y-13024690D01*
X15414643Y-13043738D01*
X15414643Y-13100881D01*
X15405119Y-13119928D01*
X15395595Y-13129452D01*
X15376548Y-13138976D01*
X15347976Y-13138976D01*
X15528928Y-13138976D02*
X15509881Y-13129452D01*
X15500357Y-13110405D01*
X15500357Y-12938976D01*
X15681309Y-13129452D02*
X15662262Y-13138976D01*
X15624167Y-13138976D01*
X15605119Y-13129452D01*
X15595595Y-13110405D01*
X15595595Y-13034214D01*
X15605119Y-13015167D01*
X15624167Y-13005643D01*
X15662262Y-13005643D01*
X15681309Y-13015167D01*
X15690833Y-13034214D01*
X15690833Y-13053262D01*
X15595595Y-13072309D01*
X15767024Y-13129452D02*
X15786071Y-13138976D01*
X15824167Y-13138976D01*
X15843214Y-13129452D01*
X15852738Y-13110405D01*
X15852738Y-13100881D01*
X15843214Y-13081833D01*
X15824167Y-13072309D01*
X15795595Y-13072309D01*
X15776548Y-13062786D01*
X15767024Y-13043738D01*
X15767024Y-13034214D01*
X15776548Y-13015167D01*
X15795595Y-13005643D01*
X15824167Y-13005643D01*
X15843214Y-13015167D01*
X15919405Y-13215167D02*
X15928928Y-13205643D01*
X15947976Y-13177071D01*
X15957500Y-13158024D01*
X15967024Y-13129452D01*
X15976548Y-13081833D01*
X15976548Y-13043738D01*
X15967024Y-12996119D01*
X15957500Y-12967548D01*
X15947976Y-12948500D01*
X15928928Y-12919928D01*
X15919405Y-12910405D01*
D17*
X11027612Y-13252556D02*
X11147500Y-13372444D01*
X11147500Y-13252556D02*
X11027612Y-13372444D01*
X11147500Y-13312500D02*
G75*
G03*
X11147500Y-13312500I-59944J0D01*
G01*
D11*
X11509881Y-13402976D02*
X11395595Y-13402976D01*
X11452738Y-13402976D02*
X11452738Y-13202976D01*
X11433690Y-13231548D01*
X11414643Y-13250595D01*
X11395595Y-13260119D01*
X11595595Y-13383928D02*
X11605119Y-13393452D01*
X11595595Y-13402976D01*
X11586071Y-13393452D01*
X11595595Y-13383928D01*
X11595595Y-13402976D01*
X11795595Y-13402976D02*
X11681309Y-13402976D01*
X11738452Y-13402976D02*
X11738452Y-13202976D01*
X11719405Y-13231548D01*
X11700357Y-13250595D01*
X11681309Y-13260119D01*
X11890833Y-13402976D02*
X11928928Y-13402976D01*
X11947976Y-13393452D01*
X11957500Y-13383928D01*
X11976548Y-13355357D01*
X11986071Y-13317262D01*
X11986071Y-13241071D01*
X11976548Y-13222024D01*
X11967024Y-13212500D01*
X11947976Y-13202976D01*
X11909881Y-13202976D01*
X11890833Y-13212500D01*
X11881309Y-13222024D01*
X11871786Y-13241071D01*
X11871786Y-13288690D01*
X11881309Y-13307738D01*
X11890833Y-13317262D01*
X11909881Y-13326786D01*
X11947976Y-13326786D01*
X11967024Y-13317262D01*
X11976548Y-13307738D01*
X11986071Y-13288690D01*
X12081309Y-13402976D02*
X12119405Y-13402976D01*
X12138452Y-13393452D01*
X12147976Y-13383928D01*
X12167024Y-13355357D01*
X12176548Y-13317262D01*
X12176548Y-13241071D01*
X12167024Y-13222024D01*
X12157500Y-13212500D01*
X12138452Y-13202976D01*
X12100357Y-13202976D01*
X12081309Y-13212500D01*
X12071786Y-13222024D01*
X12062262Y-13241071D01*
X12062262Y-13288690D01*
X12071786Y-13307738D01*
X12081309Y-13317262D01*
X12100357Y-13326786D01*
X12138452Y-13326786D01*
X12157500Y-13317262D01*
X12167024Y-13307738D01*
X12176548Y-13288690D01*
X12262262Y-13402976D02*
X12262262Y-13269643D01*
X12262262Y-13288690D02*
X12271786Y-13279167D01*
X12290833Y-13269643D01*
X12319405Y-13269643D01*
X12338452Y-13279167D01*
X12347976Y-13298214D01*
X12347976Y-13402976D01*
X12347976Y-13298214D02*
X12357500Y-13279167D01*
X12376548Y-13269643D01*
X12405119Y-13269643D01*
X12424167Y-13279167D01*
X12433690Y-13298214D01*
X12433690Y-13402976D01*
X12528928Y-13402976D02*
X12528928Y-13269643D01*
X12528928Y-13288690D02*
X12538452Y-13279167D01*
X12557500Y-13269643D01*
X12586071Y-13269643D01*
X12605119Y-13279167D01*
X12614643Y-13298214D01*
X12614643Y-13402976D01*
X12614643Y-13298214D02*
X12624167Y-13279167D01*
X12643214Y-13269643D01*
X12671786Y-13269643D01*
X12690833Y-13279167D01*
X12700357Y-13298214D01*
X12700357Y-13402976D01*
X13090833Y-13193452D02*
X12919405Y-13450595D01*
X13347976Y-13202976D02*
X13367024Y-13202976D01*
X13386071Y-13212500D01*
X13395595Y-13222024D01*
X13405119Y-13241071D01*
X13414643Y-13279167D01*
X13414643Y-13326786D01*
X13405119Y-13364881D01*
X13395595Y-13383928D01*
X13386071Y-13393452D01*
X13367024Y-13402976D01*
X13347976Y-13402976D01*
X13328928Y-13393452D01*
X13319405Y-13383928D01*
X13309881Y-13364881D01*
X13300357Y-13326786D01*
X13300357Y-13279167D01*
X13309881Y-13241071D01*
X13319405Y-13222024D01*
X13328928Y-13212500D01*
X13347976Y-13202976D01*
X13500357Y-13383928D02*
X13509881Y-13393452D01*
X13500357Y-13402976D01*
X13490833Y-13393452D01*
X13500357Y-13383928D01*
X13500357Y-13402976D01*
X13633690Y-13202976D02*
X13652738Y-13202976D01*
X13671786Y-13212500D01*
X13681309Y-13222024D01*
X13690833Y-13241071D01*
X13700357Y-13279167D01*
X13700357Y-13326786D01*
X13690833Y-13364881D01*
X13681309Y-13383928D01*
X13671786Y-13393452D01*
X13652738Y-13402976D01*
X13633690Y-13402976D01*
X13614643Y-13393452D01*
X13605119Y-13383928D01*
X13595595Y-13364881D01*
X13586071Y-13326786D01*
X13586071Y-13279167D01*
X13595595Y-13241071D01*
X13605119Y-13222024D01*
X13614643Y-13212500D01*
X13633690Y-13202976D01*
X13871786Y-13269643D02*
X13871786Y-13402976D01*
X13824167Y-13193452D02*
X13776548Y-13336309D01*
X13900357Y-13336309D01*
X13957500Y-13202976D02*
X14090833Y-13202976D01*
X14005119Y-13402976D01*
X14157500Y-13222024D02*
X14167024Y-13212500D01*
X14186071Y-13202976D01*
X14233690Y-13202976D01*
X14252738Y-13212500D01*
X14262262Y-13222024D01*
X14271786Y-13241071D01*
X14271786Y-13260119D01*
X14262262Y-13288690D01*
X14147976Y-13402976D01*
X14271786Y-13402976D01*
X14347976Y-13202976D02*
X14347976Y-13241071D01*
X14424167Y-13202976D02*
X14424167Y-13241071D01*
X14719405Y-13479167D02*
X14709881Y-13469643D01*
X14690833Y-13441071D01*
X14681309Y-13422024D01*
X14671786Y-13393452D01*
X14662262Y-13345833D01*
X14662262Y-13307738D01*
X14671786Y-13260119D01*
X14681309Y-13231548D01*
X14690833Y-13212500D01*
X14709881Y-13183928D01*
X14719405Y-13174405D01*
X14881309Y-13269643D02*
X14881309Y-13402976D01*
X14833690Y-13193452D02*
X14786071Y-13336309D01*
X14909881Y-13336309D01*
X15138452Y-13402976D02*
X15138452Y-13202976D01*
X15224167Y-13402976D02*
X15224167Y-13298214D01*
X15214643Y-13279167D01*
X15195595Y-13269643D01*
X15167024Y-13269643D01*
X15147976Y-13279167D01*
X15138452Y-13288690D01*
X15347976Y-13402976D02*
X15328928Y-13393452D01*
X15319405Y-13383928D01*
X15309881Y-13364881D01*
X15309881Y-13307738D01*
X15319405Y-13288690D01*
X15328928Y-13279167D01*
X15347976Y-13269643D01*
X15376548Y-13269643D01*
X15395595Y-13279167D01*
X15405119Y-13288690D01*
X15414643Y-13307738D01*
X15414643Y-13364881D01*
X15405119Y-13383928D01*
X15395595Y-13393452D01*
X15376548Y-13402976D01*
X15347976Y-13402976D01*
X15528928Y-13402976D02*
X15509881Y-13393452D01*
X15500357Y-13374405D01*
X15500357Y-13202976D01*
X15681309Y-13393452D02*
X15662262Y-13402976D01*
X15624167Y-13402976D01*
X15605119Y-13393452D01*
X15595595Y-13374405D01*
X15595595Y-13298214D01*
X15605119Y-13279167D01*
X15624167Y-13269643D01*
X15662262Y-13269643D01*
X15681309Y-13279167D01*
X15690833Y-13298214D01*
X15690833Y-13317262D01*
X15595595Y-13336309D01*
X15767024Y-13393452D02*
X15786071Y-13402976D01*
X15824167Y-13402976D01*
X15843214Y-13393452D01*
X15852738Y-13374405D01*
X15852738Y-13364881D01*
X15843214Y-13345833D01*
X15824167Y-13336309D01*
X15795595Y-13336309D01*
X15776548Y-13326786D01*
X15767024Y-13307738D01*
X15767024Y-13298214D01*
X15776548Y-13279167D01*
X15795595Y-13269643D01*
X15824167Y-13269643D01*
X15843214Y-13279167D01*
X15919405Y-13479167D02*
X15928928Y-13469643D01*
X15947976Y-13441071D01*
X15957500Y-13422024D01*
X15967024Y-13393452D01*
X15976548Y-13345833D01*
X15976548Y-13307738D01*
X15967024Y-13260119D01*
X15957500Y-13231548D01*
X15947976Y-13212500D01*
X15928928Y-13183928D01*
X15919405Y-13174405D01*
D18*
X11027500Y-13516500D02*
X11147500Y-13636500D01*
X11147500Y-13516500D02*
X11027500Y-13636500D01*
X11087500Y-13516500D02*
X11087500Y-13636500D01*
X11027500Y-13576500D02*
X11147500Y-13576500D01*
D11*
X11509881Y-13666976D02*
X11395595Y-13666976D01*
X11452738Y-13666976D02*
X11452738Y-13466976D01*
X11433690Y-13495548D01*
X11414643Y-13514595D01*
X11395595Y-13524119D01*
X11595595Y-13647928D02*
X11605119Y-13657452D01*
X11595595Y-13666976D01*
X11586071Y-13657452D01*
X11595595Y-13647928D01*
X11595595Y-13666976D01*
X11681309Y-13486024D02*
X11690833Y-13476500D01*
X11709881Y-13466976D01*
X11757500Y-13466976D01*
X11776548Y-13476500D01*
X11786071Y-13486024D01*
X11795595Y-13505071D01*
X11795595Y-13524119D01*
X11786071Y-13552690D01*
X11671786Y-13666976D01*
X11795595Y-13666976D01*
X11919405Y-13466976D02*
X11938452Y-13466976D01*
X11957500Y-13476500D01*
X11967024Y-13486024D01*
X11976548Y-13505071D01*
X11986071Y-13543167D01*
X11986071Y-13590786D01*
X11976548Y-13628881D01*
X11967024Y-13647928D01*
X11957500Y-13657452D01*
X11938452Y-13666976D01*
X11919405Y-13666976D01*
X11900357Y-13657452D01*
X11890833Y-13647928D01*
X11881309Y-13628881D01*
X11871786Y-13590786D01*
X11871786Y-13543167D01*
X11881309Y-13505071D01*
X11890833Y-13486024D01*
X11900357Y-13476500D01*
X11919405Y-13466976D01*
X12109881Y-13466976D02*
X12128928Y-13466976D01*
X12147976Y-13476500D01*
X12157500Y-13486024D01*
X12167024Y-13505071D01*
X12176548Y-13543167D01*
X12176548Y-13590786D01*
X12167024Y-13628881D01*
X12157500Y-13647928D01*
X12147976Y-13657452D01*
X12128928Y-13666976D01*
X12109881Y-13666976D01*
X12090833Y-13657452D01*
X12081309Y-13647928D01*
X12071786Y-13628881D01*
X12062262Y-13590786D01*
X12062262Y-13543167D01*
X12071786Y-13505071D01*
X12081309Y-13486024D01*
X12090833Y-13476500D01*
X12109881Y-13466976D01*
X12262262Y-13666976D02*
X12262262Y-13533643D01*
X12262262Y-13552690D02*
X12271786Y-13543167D01*
X12290833Y-13533643D01*
X12319405Y-13533643D01*
X12338452Y-13543167D01*
X12347976Y-13562214D01*
X12347976Y-13666976D01*
X12347976Y-13562214D02*
X12357500Y-13543167D01*
X12376548Y-13533643D01*
X12405119Y-13533643D01*
X12424167Y-13543167D01*
X12433690Y-13562214D01*
X12433690Y-13666976D01*
X12528928Y-13666976D02*
X12528928Y-13533643D01*
X12528928Y-13552690D02*
X12538452Y-13543167D01*
X12557500Y-13533643D01*
X12586071Y-13533643D01*
X12605119Y-13543167D01*
X12614643Y-13562214D01*
X12614643Y-13666976D01*
X12614643Y-13562214D02*
X12624167Y-13543167D01*
X12643214Y-13533643D01*
X12671786Y-13533643D01*
X12690833Y-13543167D01*
X12700357Y-13562214D01*
X12700357Y-13666976D01*
X13090833Y-13457452D02*
X12919405Y-13714595D01*
X13347976Y-13466976D02*
X13367024Y-13466976D01*
X13386071Y-13476500D01*
X13395595Y-13486024D01*
X13405119Y-13505071D01*
X13414643Y-13543167D01*
X13414643Y-13590786D01*
X13405119Y-13628881D01*
X13395595Y-13647928D01*
X13386071Y-13657452D01*
X13367024Y-13666976D01*
X13347976Y-13666976D01*
X13328928Y-13657452D01*
X13319405Y-13647928D01*
X13309881Y-13628881D01*
X13300357Y-13590786D01*
X13300357Y-13543167D01*
X13309881Y-13505071D01*
X13319405Y-13486024D01*
X13328928Y-13476500D01*
X13347976Y-13466976D01*
X13500357Y-13647928D02*
X13509881Y-13657452D01*
X13500357Y-13666976D01*
X13490833Y-13657452D01*
X13500357Y-13647928D01*
X13500357Y-13666976D01*
X13633690Y-13466976D02*
X13652738Y-13466976D01*
X13671786Y-13476500D01*
X13681309Y-13486024D01*
X13690833Y-13505071D01*
X13700357Y-13543167D01*
X13700357Y-13590786D01*
X13690833Y-13628881D01*
X13681309Y-13647928D01*
X13671786Y-13657452D01*
X13652738Y-13666976D01*
X13633690Y-13666976D01*
X13614643Y-13657452D01*
X13605119Y-13647928D01*
X13595595Y-13628881D01*
X13586071Y-13590786D01*
X13586071Y-13543167D01*
X13595595Y-13505071D01*
X13605119Y-13486024D01*
X13614643Y-13476500D01*
X13633690Y-13466976D01*
X13871786Y-13533643D02*
X13871786Y-13666976D01*
X13824167Y-13457452D02*
X13776548Y-13600309D01*
X13900357Y-13600309D01*
X13957500Y-13466976D02*
X14090833Y-13466976D01*
X14005119Y-13666976D01*
X14157500Y-13486024D02*
X14167024Y-13476500D01*
X14186071Y-13466976D01*
X14233690Y-13466976D01*
X14252738Y-13476500D01*
X14262262Y-13486024D01*
X14271786Y-13505071D01*
X14271786Y-13524119D01*
X14262262Y-13552690D01*
X14147976Y-13666976D01*
X14271786Y-13666976D01*
X14347976Y-13466976D02*
X14347976Y-13505071D01*
X14424167Y-13466976D02*
X14424167Y-13505071D01*
X14719405Y-13743167D02*
X14709881Y-13733643D01*
X14690833Y-13705071D01*
X14681309Y-13686024D01*
X14671786Y-13657452D01*
X14662262Y-13609833D01*
X14662262Y-13571738D01*
X14671786Y-13524119D01*
X14681309Y-13495548D01*
X14690833Y-13476500D01*
X14709881Y-13447928D01*
X14719405Y-13438405D01*
X14786071Y-13486024D02*
X14795595Y-13476500D01*
X14814643Y-13466976D01*
X14862262Y-13466976D01*
X14881309Y-13476500D01*
X14890833Y-13486024D01*
X14900357Y-13505071D01*
X14900357Y-13524119D01*
X14890833Y-13552690D01*
X14776548Y-13666976D01*
X14900357Y-13666976D01*
X15138452Y-13666976D02*
X15138452Y-13466976D01*
X15224167Y-13666976D02*
X15224167Y-13562214D01*
X15214643Y-13543167D01*
X15195595Y-13533643D01*
X15167024Y-13533643D01*
X15147976Y-13543167D01*
X15138452Y-13552690D01*
X15347976Y-13666976D02*
X15328928Y-13657452D01*
X15319405Y-13647928D01*
X15309881Y-13628881D01*
X15309881Y-13571738D01*
X15319405Y-13552690D01*
X15328928Y-13543167D01*
X15347976Y-13533643D01*
X15376548Y-13533643D01*
X15395595Y-13543167D01*
X15405119Y-13552690D01*
X15414643Y-13571738D01*
X15414643Y-13628881D01*
X15405119Y-13647928D01*
X15395595Y-13657452D01*
X15376548Y-13666976D01*
X15347976Y-13666976D01*
X15528928Y-13666976D02*
X15509881Y-13657452D01*
X15500357Y-13638405D01*
X15500357Y-13466976D01*
X15681309Y-13657452D02*
X15662262Y-13666976D01*
X15624167Y-13666976D01*
X15605119Y-13657452D01*
X15595595Y-13638405D01*
X15595595Y-13562214D01*
X15605119Y-13543167D01*
X15624167Y-13533643D01*
X15662262Y-13533643D01*
X15681309Y-13543167D01*
X15690833Y-13562214D01*
X15690833Y-13581262D01*
X15595595Y-13600309D01*
X15767024Y-13657452D02*
X15786071Y-13666976D01*
X15824167Y-13666976D01*
X15843214Y-13657452D01*
X15852738Y-13638405D01*
X15852738Y-13628881D01*
X15843214Y-13609833D01*
X15824167Y-13600309D01*
X15795595Y-13600309D01*
X15776548Y-13590786D01*
X15767024Y-13571738D01*
X15767024Y-13562214D01*
X15776548Y-13543167D01*
X15795595Y-13533643D01*
X15824167Y-13533643D01*
X15843214Y-13543167D01*
X15919405Y-13743167D02*
X15928928Y-13733643D01*
X15947976Y-13705071D01*
X15957500Y-13686024D01*
X15967024Y-13657452D01*
X15976548Y-13609833D01*
X15976548Y-13571738D01*
X15967024Y-13524119D01*
X15957500Y-13495548D01*
X15947976Y-13476500D01*
X15928928Y-13447928D01*
X15919405Y-13438405D01*
D19*
X11007500Y-13770500D02*
X11147500Y-13910500D01*
X11147500Y-13770500D02*
X11007500Y-13910500D01*
X11126998Y-13889998D02*
X11126998Y-13791002D01*
X11028002Y-13791002D01*
X11028002Y-13889998D01*
X11126998Y-13889998D01*
D11*
X11509881Y-13930976D02*
X11395595Y-13930976D01*
X11452738Y-13930976D02*
X11452738Y-13730976D01*
X11433690Y-13759548D01*
X11414643Y-13778595D01*
X11395595Y-13788119D01*
X11595595Y-13911928D02*
X11605119Y-13921452D01*
X11595595Y-13930976D01*
X11586071Y-13921452D01*
X11595595Y-13911928D01*
X11595595Y-13930976D01*
X11776548Y-13797643D02*
X11776548Y-13930976D01*
X11728928Y-13721452D02*
X11681309Y-13864309D01*
X11805119Y-13864309D01*
X11919405Y-13730976D02*
X11938452Y-13730976D01*
X11957500Y-13740500D01*
X11967024Y-13750024D01*
X11976548Y-13769071D01*
X11986071Y-13807167D01*
X11986071Y-13854786D01*
X11976548Y-13892881D01*
X11967024Y-13911928D01*
X11957500Y-13921452D01*
X11938452Y-13930976D01*
X11919405Y-13930976D01*
X11900357Y-13921452D01*
X11890833Y-13911928D01*
X11881309Y-13892881D01*
X11871786Y-13854786D01*
X11871786Y-13807167D01*
X11881309Y-13769071D01*
X11890833Y-13750024D01*
X11900357Y-13740500D01*
X11919405Y-13730976D01*
X12109881Y-13730976D02*
X12128928Y-13730976D01*
X12147976Y-13740500D01*
X12157500Y-13750024D01*
X12167024Y-13769071D01*
X12176548Y-13807167D01*
X12176548Y-13854786D01*
X12167024Y-13892881D01*
X12157500Y-13911928D01*
X12147976Y-13921452D01*
X12128928Y-13930976D01*
X12109881Y-13930976D01*
X12090833Y-13921452D01*
X12081309Y-13911928D01*
X12071786Y-13892881D01*
X12062262Y-13854786D01*
X12062262Y-13807167D01*
X12071786Y-13769071D01*
X12081309Y-13750024D01*
X12090833Y-13740500D01*
X12109881Y-13730976D01*
X12262262Y-13930976D02*
X12262262Y-13797643D01*
X12262262Y-13816690D02*
X12271786Y-13807167D01*
X12290833Y-13797643D01*
X12319405Y-13797643D01*
X12338452Y-13807167D01*
X12347976Y-13826214D01*
X12347976Y-13930976D01*
X12347976Y-13826214D02*
X12357500Y-13807167D01*
X12376548Y-13797643D01*
X12405119Y-13797643D01*
X12424167Y-13807167D01*
X12433690Y-13826214D01*
X12433690Y-13930976D01*
X12528928Y-13930976D02*
X12528928Y-13797643D01*
X12528928Y-13816690D02*
X12538452Y-13807167D01*
X12557500Y-13797643D01*
X12586071Y-13797643D01*
X12605119Y-13807167D01*
X12614643Y-13826214D01*
X12614643Y-13930976D01*
X12614643Y-13826214D02*
X12624167Y-13807167D01*
X12643214Y-13797643D01*
X12671786Y-13797643D01*
X12690833Y-13807167D01*
X12700357Y-13826214D01*
X12700357Y-13930976D01*
X13090833Y-13721452D02*
X12919405Y-13978595D01*
X13347976Y-13730976D02*
X13367024Y-13730976D01*
X13386071Y-13740500D01*
X13395595Y-13750024D01*
X13405119Y-13769071D01*
X13414643Y-13807167D01*
X13414643Y-13854786D01*
X13405119Y-13892881D01*
X13395595Y-13911928D01*
X13386071Y-13921452D01*
X13367024Y-13930976D01*
X13347976Y-13930976D01*
X13328928Y-13921452D01*
X13319405Y-13911928D01*
X13309881Y-13892881D01*
X13300357Y-13854786D01*
X13300357Y-13807167D01*
X13309881Y-13769071D01*
X13319405Y-13750024D01*
X13328928Y-13740500D01*
X13347976Y-13730976D01*
X13500357Y-13911928D02*
X13509881Y-13921452D01*
X13500357Y-13930976D01*
X13490833Y-13921452D01*
X13500357Y-13911928D01*
X13500357Y-13930976D01*
X13633690Y-13730976D02*
X13652738Y-13730976D01*
X13671786Y-13740500D01*
X13681309Y-13750024D01*
X13690833Y-13769071D01*
X13700357Y-13807167D01*
X13700357Y-13854786D01*
X13690833Y-13892881D01*
X13681309Y-13911928D01*
X13671786Y-13921452D01*
X13652738Y-13930976D01*
X13633690Y-13930976D01*
X13614643Y-13921452D01*
X13605119Y-13911928D01*
X13595595Y-13892881D01*
X13586071Y-13854786D01*
X13586071Y-13807167D01*
X13595595Y-13769071D01*
X13605119Y-13750024D01*
X13614643Y-13740500D01*
X13633690Y-13730976D01*
X13881309Y-13730976D02*
X13786071Y-13730976D01*
X13776548Y-13826214D01*
X13786071Y-13816690D01*
X13805119Y-13807167D01*
X13852738Y-13807167D01*
X13871786Y-13816690D01*
X13881309Y-13826214D01*
X13890833Y-13845262D01*
X13890833Y-13892881D01*
X13881309Y-13911928D01*
X13871786Y-13921452D01*
X13852738Y-13930976D01*
X13805119Y-13930976D01*
X13786071Y-13921452D01*
X13776548Y-13911928D01*
X14071786Y-13730976D02*
X13976548Y-13730976D01*
X13967024Y-13826214D01*
X13976548Y-13816690D01*
X13995595Y-13807167D01*
X14043214Y-13807167D01*
X14062262Y-13816690D01*
X14071786Y-13826214D01*
X14081309Y-13845262D01*
X14081309Y-13892881D01*
X14071786Y-13911928D01*
X14062262Y-13921452D01*
X14043214Y-13930976D01*
X13995595Y-13930976D01*
X13976548Y-13921452D01*
X13967024Y-13911928D01*
X14271786Y-13930976D02*
X14157500Y-13930976D01*
X14214643Y-13930976D02*
X14214643Y-13730976D01*
X14195595Y-13759548D01*
X14176548Y-13778595D01*
X14157500Y-13788119D01*
X14347976Y-13730976D02*
X14347976Y-13769071D01*
X14424167Y-13730976D02*
X14424167Y-13769071D01*
X14719405Y-14007167D02*
X14709881Y-13997643D01*
X14690833Y-13969071D01*
X14681309Y-13950024D01*
X14671786Y-13921452D01*
X14662262Y-13873833D01*
X14662262Y-13835738D01*
X14671786Y-13788119D01*
X14681309Y-13759548D01*
X14690833Y-13740500D01*
X14709881Y-13711928D01*
X14719405Y-13702405D01*
X14786071Y-13750024D02*
X14795595Y-13740500D01*
X14814643Y-13730976D01*
X14862262Y-13730976D01*
X14881309Y-13740500D01*
X14890833Y-13750024D01*
X14900357Y-13769071D01*
X14900357Y-13788119D01*
X14890833Y-13816690D01*
X14776548Y-13930976D01*
X14900357Y-13930976D01*
X15138452Y-13930976D02*
X15138452Y-13730976D01*
X15224167Y-13930976D02*
X15224167Y-13826214D01*
X15214643Y-13807167D01*
X15195595Y-13797643D01*
X15167024Y-13797643D01*
X15147976Y-13807167D01*
X15138452Y-13816690D01*
X15347976Y-13930976D02*
X15328928Y-13921452D01*
X15319405Y-13911928D01*
X15309881Y-13892881D01*
X15309881Y-13835738D01*
X15319405Y-13816690D01*
X15328928Y-13807167D01*
X15347976Y-13797643D01*
X15376548Y-13797643D01*
X15395595Y-13807167D01*
X15405119Y-13816690D01*
X15414643Y-13835738D01*
X15414643Y-13892881D01*
X15405119Y-13911928D01*
X15395595Y-13921452D01*
X15376548Y-13930976D01*
X15347976Y-13930976D01*
X15528928Y-13930976D02*
X15509881Y-13921452D01*
X15500357Y-13902405D01*
X15500357Y-13730976D01*
X15681309Y-13921452D02*
X15662262Y-13930976D01*
X15624167Y-13930976D01*
X15605119Y-13921452D01*
X15595595Y-13902405D01*
X15595595Y-13826214D01*
X15605119Y-13807167D01*
X15624167Y-13797643D01*
X15662262Y-13797643D01*
X15681309Y-13807167D01*
X15690833Y-13826214D01*
X15690833Y-13845262D01*
X15595595Y-13864309D01*
X15767024Y-13921452D02*
X15786071Y-13930976D01*
X15824167Y-13930976D01*
X15843214Y-13921452D01*
X15852738Y-13902405D01*
X15852738Y-13892881D01*
X15843214Y-13873833D01*
X15824167Y-13864309D01*
X15795595Y-13864309D01*
X15776548Y-13854786D01*
X15767024Y-13835738D01*
X15767024Y-13826214D01*
X15776548Y-13807167D01*
X15795595Y-13797643D01*
X15824167Y-13797643D01*
X15843214Y-13807167D01*
X15919405Y-14007167D02*
X15928928Y-13997643D01*
X15947976Y-13969071D01*
X15957500Y-13950024D01*
X15967024Y-13921452D01*
X15976548Y-13873833D01*
X15976548Y-13835738D01*
X15967024Y-13788119D01*
X15957500Y-13759548D01*
X15947976Y-13740500D01*
X15928928Y-13711928D01*
X15919405Y-13702405D01*
M02*
