%TF.GenerationSoftware,KiCad,Pcbnew,(6.0.8)*%
%TF.CreationDate,2022-11-19T23:47:43+04:00*%
%TF.ProjectId,MC34063_Buck_Rev4,4d433334-3036-4335-9f42-75636b5f5265,rev?*%
%TF.SameCoordinates,Original*%
%TF.FileFunction,Drillmap*%
%TF.FilePolarity,Positive*%
%FSLAX45Y45*%
G04 Gerber Fmt 4.5, Leading zero omitted, Abs format (unit mm)*
G04 Created by KiCad (PCBNEW (6.0.8)) date 2022-11-19 23:47:43*
%MOMM*%
%LPD*%
G01*
G04 APERTURE LIST*
%ADD10C,0.050000*%
%ADD11C,0.200000*%
G04 APERTURE END LIST*
D10*
X15650000Y-7600000D02*
X15650000Y-11350000D01*
X11150000Y-11350000D02*
X11150000Y-7600000D01*
X11150000Y-7600000D02*
X15650000Y-7600000D01*
X15650000Y-11350000D02*
X11150000Y-11350000D01*
D11*
X11405119Y-11662976D02*
X11405119Y-11462976D01*
X11452738Y-11462976D01*
X11481309Y-11472500D01*
X11500357Y-11491548D01*
X11509881Y-11510595D01*
X11519405Y-11548690D01*
X11519405Y-11577262D01*
X11509881Y-11615357D01*
X11500357Y-11634405D01*
X11481309Y-11653452D01*
X11452738Y-11662976D01*
X11405119Y-11662976D01*
X11605119Y-11662976D02*
X11605119Y-11529643D01*
X11605119Y-11567738D02*
X11614643Y-11548690D01*
X11624167Y-11539167D01*
X11643214Y-11529643D01*
X11662262Y-11529643D01*
X11728928Y-11662976D02*
X11728928Y-11529643D01*
X11728928Y-11462976D02*
X11719405Y-11472500D01*
X11728928Y-11482024D01*
X11738452Y-11472500D01*
X11728928Y-11462976D01*
X11728928Y-11482024D01*
X11852738Y-11662976D02*
X11833690Y-11653452D01*
X11824167Y-11634405D01*
X11824167Y-11462976D01*
X11957500Y-11662976D02*
X11938452Y-11653452D01*
X11928928Y-11634405D01*
X11928928Y-11462976D01*
X12186071Y-11662976D02*
X12186071Y-11462976D01*
X12252738Y-11605833D01*
X12319405Y-11462976D01*
X12319405Y-11662976D01*
X12500357Y-11662976D02*
X12500357Y-11558214D01*
X12490833Y-11539167D01*
X12471786Y-11529643D01*
X12433690Y-11529643D01*
X12414643Y-11539167D01*
X12500357Y-11653452D02*
X12481309Y-11662976D01*
X12433690Y-11662976D01*
X12414643Y-11653452D01*
X12405119Y-11634405D01*
X12405119Y-11615357D01*
X12414643Y-11596309D01*
X12433690Y-11586786D01*
X12481309Y-11586786D01*
X12500357Y-11577262D01*
X12595595Y-11529643D02*
X12595595Y-11729643D01*
X12595595Y-11539167D02*
X12614643Y-11529643D01*
X12652738Y-11529643D01*
X12671786Y-11539167D01*
X12681309Y-11548690D01*
X12690833Y-11567738D01*
X12690833Y-11624881D01*
X12681309Y-11643928D01*
X12671786Y-11653452D01*
X12652738Y-11662976D01*
X12614643Y-11662976D01*
X12595595Y-11653452D01*
X12776548Y-11643928D02*
X12786071Y-11653452D01*
X12776548Y-11662976D01*
X12767024Y-11653452D01*
X12776548Y-11643928D01*
X12776548Y-11662976D01*
X12776548Y-11539167D02*
X12786071Y-11548690D01*
X12776548Y-11558214D01*
X12767024Y-11548690D01*
X12776548Y-11539167D01*
X12776548Y-11558214D01*
M02*
