%TF.GenerationSoftware,KiCad,Pcbnew,(6.0.8)*%
%TF.CreationDate,2022-11-19T23:47:37+04:00*%
%TF.ProjectId,MC34063_Buck_Rev4,4d433334-3036-4335-9f42-75636b5f5265,rev?*%
%TF.SameCoordinates,Original*%
%TF.FileFunction,Copper,L2,Bot*%
%TF.FilePolarity,Positive*%
%FSLAX46Y46*%
G04 Gerber Fmt 4.6, Leading zero omitted, Abs format (unit mm)*
G04 Created by KiCad (PCBNEW (6.0.8)) date 2022-11-19 23:47:37*
%MOMM*%
%LPD*%
G01*
G04 APERTURE LIST*
%TA.AperFunction,ComponentPad*%
%ADD10R,2.000000X2.000000*%
%TD*%
%TA.AperFunction,ComponentPad*%
%ADD11C,2.000000*%
%TD*%
%TA.AperFunction,ComponentPad*%
%ADD12C,1.600000*%
%TD*%
%TA.AperFunction,ComponentPad*%
%ADD13R,2.800000X2.800000*%
%TD*%
%TA.AperFunction,ComponentPad*%
%ADD14O,2.800000X2.800000*%
%TD*%
%TA.AperFunction,ComponentPad*%
%ADD15C,2.499360*%
%TD*%
%TA.AperFunction,ComponentPad*%
%ADD16C,1.400000*%
%TD*%
%TA.AperFunction,ComponentPad*%
%ADD17O,1.400000X1.400000*%
%TD*%
%TA.AperFunction,ComponentPad*%
%ADD18C,2.400000*%
%TD*%
%TA.AperFunction,ComponentPad*%
%ADD19O,2.400000X2.400000*%
%TD*%
%TA.AperFunction,ComponentPad*%
%ADD20C,1.905000*%
%TD*%
%TA.AperFunction,ComponentPad*%
%ADD21C,3.500120*%
%TD*%
%TA.AperFunction,ComponentPad*%
%ADD22R,3.500120X3.500120*%
%TD*%
%TA.AperFunction,Conductor*%
%ADD23C,0.300000*%
%TD*%
%TA.AperFunction,Conductor*%
%ADD24C,0.250000*%
%TD*%
%TA.AperFunction,Conductor*%
%ADD25C,3.000000*%
%TD*%
G04 APERTURE END LIST*
D10*
%TO.P,C1,1*%
%TO.N,VCC*%
X125984000Y-81788000D03*
D11*
%TO.P,C1,2*%
%TO.N,GNDREF*%
X125984000Y-86788000D03*
%TD*%
D12*
%TO.P,C2,1*%
%TO.N,Net-(C2-Pad1)*%
X147828000Y-92964000D03*
%TO.P,C2,2*%
%TO.N,GNDREF*%
X145328000Y-92964000D03*
%TD*%
D10*
%TO.P,C3,1*%
%TO.N,Vout1*%
X128524000Y-94996000D03*
D11*
%TO.P,C3,2*%
%TO.N,GNDREF*%
X123524000Y-94996000D03*
%TD*%
D10*
%TO.P,C4,1*%
%TO.N,Vout2*%
X140716000Y-100076000D03*
D11*
%TO.P,C4,2*%
%TO.N,GNDREF*%
X145716000Y-100076000D03*
%TD*%
D13*
%TO.P,D1,1*%
%TO.N,Net-(D1-Pad1)*%
X138684000Y-86360000D03*
D14*
%TO.P,D1,2*%
%TO.N,GNDREF*%
X133604000Y-86360000D03*
%TD*%
D15*
%TO.P,L1,1*%
%TO.N,Net-(D1-Pad1)*%
X140652500Y-90932000D03*
%TO.P,L1,2*%
%TO.N,Vout1*%
X132651500Y-90932000D03*
%TD*%
%TO.P,L2,1*%
%TO.N,Vout1*%
X134112000Y-94551500D03*
%TO.P,L2,2*%
%TO.N,Vout2*%
X134112000Y-102552500D03*
%TD*%
D16*
%TO.P,R1,1*%
%TO.N,Net-(C5-Pad1)*%
X153416000Y-95758000D03*
D17*
%TO.P,R1,2*%
%TO.N,GNDREF*%
X153416000Y-103378000D03*
%TD*%
D18*
%TO.P,R2,1*%
%TO.N,VCC*%
X133604000Y-81280000D03*
D19*
%TO.P,R2,2*%
%TO.N,Net-(R2-Pad2)*%
X138684000Y-81280000D03*
%TD*%
D16*
%TO.P,R3,1*%
%TO.N,Net-(C5-Pad1)*%
X150368000Y-103378000D03*
D17*
%TO.P,R3,2*%
%TO.N,Vout1*%
X150368000Y-95758000D03*
%TD*%
D20*
%TO.P,U1,1*%
%TO.N,Net-(R2-Pad2)*%
X144018000Y-82042000D03*
%TO.P,U1,2*%
%TO.N,Net-(D1-Pad1)*%
X144018000Y-84582000D03*
%TO.P,U1,3*%
%TO.N,Net-(C2-Pad1)*%
X144018000Y-87122000D03*
%TO.P,U1,4*%
%TO.N,GNDREF*%
X144018000Y-89662000D03*
%TO.P,U1,5*%
%TO.N,Net-(C5-Pad1)*%
X151638000Y-89662000D03*
%TO.P,U1,6*%
%TO.N,VCC*%
X151638000Y-87122000D03*
%TO.P,U1,7*%
%TO.N,Net-(R2-Pad2)*%
X151638000Y-84582000D03*
%TO.P,U1,8*%
X151638000Y-82042000D03*
%TD*%
D21*
%TO.P,GND,2*%
%TO.N,GNDREF*%
X115316000Y-88392000D03*
%TD*%
D22*
%TO.P,Vout,3*%
%TO.N,Vout2*%
X140716000Y-109474000D03*
%TD*%
D21*
%TO.P,GND,4*%
%TO.N,GNDREF*%
X147574000Y-109474000D03*
%TD*%
D12*
%TO.P,C5,1*%
%TO.N,Net-(C5-Pad1)*%
X152908000Y-92964000D03*
%TO.P,C5,2*%
%TO.N,Vout1*%
X150408000Y-92964000D03*
%TD*%
D22*
%TO.P,Vin,1*%
%TO.N,VCC*%
X115316000Y-81788000D03*
%TD*%
D23*
%TO.N,VCC*%
X153000000Y-78500000D02*
X134500000Y-78500000D01*
X133604000Y-79396000D02*
X133604000Y-81280000D01*
X151638000Y-87122000D02*
X153378000Y-87122000D01*
X154000000Y-79500000D02*
X153000000Y-78500000D01*
D24*
X133604000Y-79692500D02*
X133604000Y-81280000D01*
D23*
X153378000Y-87122000D02*
X154000000Y-86500000D01*
X154000000Y-86500000D02*
X154000000Y-79500000D01*
X134500000Y-78500000D02*
X133604000Y-79396000D01*
%TO.N,Net-(C2-Pad1)*%
X147828000Y-87503000D02*
X147447000Y-87122000D01*
X147828000Y-92964000D02*
X147828000Y-87503000D01*
X144018000Y-87122000D02*
X147447000Y-87122000D01*
%TO.N,Vout1*%
X135318500Y-95758000D02*
X150368000Y-95758000D01*
X134112000Y-94551500D02*
X135318500Y-95758000D01*
X150408000Y-95718000D02*
X150368000Y-95758000D01*
X150408000Y-92964000D02*
X150408000Y-95718000D01*
D25*
%TO.N,Vout2*%
X140716000Y-100076000D02*
X140716000Y-109474000D01*
X134112000Y-102552500D02*
X136652000Y-100012500D01*
X140652500Y-100012500D02*
X140716000Y-100076000D01*
X136652000Y-100012500D02*
X140652500Y-100012500D01*
D23*
%TO.N,Net-(C5-Pad1)*%
X152944000Y-93000000D02*
X152908000Y-92964000D01*
X155000000Y-92500000D02*
X154500000Y-93000000D01*
X154500000Y-93000000D02*
X152944000Y-93000000D01*
X152000000Y-101746000D02*
X150368000Y-103378000D01*
X153334000Y-96916000D02*
X152000000Y-98250000D01*
X151638000Y-89662000D02*
X154412000Y-89662000D01*
X152000000Y-98250000D02*
X152000000Y-101746000D01*
X155000000Y-90250000D02*
X155000000Y-92500000D01*
X154412000Y-89662000D02*
X155000000Y-90250000D01*
X153416000Y-95758000D02*
X153416000Y-96916000D01*
X152908000Y-92964000D02*
X152908000Y-95250000D01*
X153416000Y-96916000D02*
X153334000Y-96916000D01*
X152908000Y-95250000D02*
X153416000Y-95758000D01*
%TD*%
%TA.AperFunction,Conductor*%
%TO.N,Vout1*%
G36*
X133742182Y-88963919D02*
G01*
X133862018Y-88979695D01*
X133874370Y-88983006D01*
X133983041Y-89028019D01*
X133994115Y-89034412D01*
X134087438Y-89106022D01*
X134096478Y-89115062D01*
X134168087Y-89208383D01*
X134174483Y-89219462D01*
X134219494Y-89328129D01*
X134222805Y-89340484D01*
X134238581Y-89460317D01*
X134239000Y-89466713D01*
X134239000Y-92392500D01*
X134539636Y-92523211D01*
X134539637Y-92523212D01*
X134725091Y-92603844D01*
X135395603Y-92895371D01*
X135401880Y-92898660D01*
X135515637Y-92969223D01*
X135526471Y-92978354D01*
X135612889Y-93075814D01*
X135620657Y-93087663D01*
X135675579Y-93205777D01*
X135679633Y-93219353D01*
X135698985Y-93351798D01*
X135699500Y-93358882D01*
X135699500Y-95635787D01*
X135699081Y-95642183D01*
X135683305Y-95762016D01*
X135679994Y-95774370D01*
X135647880Y-95851902D01*
X135634983Y-95883038D01*
X135628588Y-95894115D01*
X135556978Y-95987438D01*
X135547938Y-95996478D01*
X135454615Y-96068088D01*
X135443541Y-96074481D01*
X135335706Y-96119148D01*
X135334871Y-96119494D01*
X135322518Y-96122805D01*
X135202683Y-96138581D01*
X135196287Y-96139000D01*
X133035771Y-96139000D01*
X133028867Y-96138511D01*
X133018517Y-96137038D01*
X132899713Y-96120130D01*
X132886457Y-96116280D01*
X132770749Y-96064036D01*
X132759091Y-96056638D01*
X132662554Y-95974189D01*
X132653423Y-95963832D01*
X132636661Y-95938316D01*
X132581795Y-95854794D01*
X132578421Y-95848770D01*
X132461000Y-95599250D01*
X132342107Y-95346601D01*
X132342105Y-95346598D01*
X132207000Y-95059500D01*
X130937000Y-95059500D01*
X130786923Y-95256476D01*
X130786921Y-95256478D01*
X130718256Y-95346601D01*
X130111477Y-96143000D01*
X130073360Y-96193028D01*
X130068369Y-96198631D01*
X129966539Y-96296670D01*
X129954301Y-96305281D01*
X129831042Y-96366328D01*
X129816777Y-96370843D01*
X129677085Y-96392425D01*
X129669603Y-96393000D01*
X127630213Y-96393000D01*
X127623817Y-96392581D01*
X127622632Y-96392425D01*
X127503982Y-96376805D01*
X127491629Y-96373494D01*
X127474329Y-96366328D01*
X127382959Y-96328481D01*
X127371885Y-96322088D01*
X127278562Y-96250478D01*
X127269522Y-96241438D01*
X127197912Y-96148115D01*
X127191517Y-96137038D01*
X127182919Y-96116279D01*
X127146506Y-96028370D01*
X127143195Y-96016016D01*
X127139433Y-95987436D01*
X127127419Y-95896182D01*
X127127000Y-95889787D01*
X127127000Y-94218036D01*
X127127585Y-94210486D01*
X127149565Y-94069543D01*
X127154163Y-94055160D01*
X127216291Y-93931041D01*
X127225046Y-93918745D01*
X127322022Y-93819433D01*
X127334108Y-93810386D01*
X127456717Y-93745318D01*
X127470987Y-93740380D01*
X127611360Y-93715054D01*
X127618894Y-93714289D01*
X129389071Y-93672141D01*
X129794000Y-93662500D01*
X129934846Y-93528696D01*
X129934851Y-93528692D01*
X130598039Y-92898663D01*
X130908375Y-92603844D01*
X130908376Y-92603843D01*
X131064000Y-92456000D01*
X131064000Y-89466713D01*
X131064419Y-89460317D01*
X131080195Y-89340484D01*
X131083506Y-89328129D01*
X131128517Y-89219462D01*
X131134913Y-89208383D01*
X131206522Y-89115062D01*
X131215562Y-89106022D01*
X131308885Y-89034412D01*
X131319959Y-89028019D01*
X131428630Y-88983006D01*
X131440982Y-88979695D01*
X131560818Y-88963919D01*
X131567213Y-88963500D01*
X133735787Y-88963500D01*
X133742182Y-88963919D01*
G37*
%TD.AperFunction*%
%TD*%
%TA.AperFunction,Conductor*%
%TO.N,VCC*%
G36*
X134888434Y-79566347D02*
G01*
X134998487Y-79580836D01*
X135023451Y-79587525D01*
X135119957Y-79627499D01*
X135142339Y-79640421D01*
X135225213Y-79704013D01*
X135243487Y-79722287D01*
X135307079Y-79805161D01*
X135320001Y-79827543D01*
X135359975Y-79924049D01*
X135366664Y-79949013D01*
X135381153Y-80059066D01*
X135382000Y-80071988D01*
X135382000Y-82742012D01*
X135381153Y-82754934D01*
X135366664Y-82864987D01*
X135359975Y-82889951D01*
X135320001Y-82986457D01*
X135307079Y-83008839D01*
X135243487Y-83091713D01*
X135225213Y-83109987D01*
X135142339Y-83173579D01*
X135119957Y-83186501D01*
X135023451Y-83226475D01*
X134998487Y-83233164D01*
X134888434Y-83247653D01*
X134875512Y-83248500D01*
X124523500Y-83248500D01*
X124430100Y-83288015D01*
X124430098Y-83288016D01*
X124054318Y-83447000D01*
X122970459Y-83905556D01*
X122961166Y-83908950D01*
X122879970Y-83934082D01*
X122860591Y-83938013D01*
X122805053Y-83943589D01*
X122776011Y-83946505D01*
X122766122Y-83947000D01*
X113790488Y-83947000D01*
X113777566Y-83946153D01*
X113667513Y-83931664D01*
X113642549Y-83924975D01*
X113546043Y-83885001D01*
X113523661Y-83872079D01*
X113440787Y-83808487D01*
X113422513Y-83790213D01*
X113358921Y-83707339D01*
X113345999Y-83684957D01*
X113306025Y-83588451D01*
X113299336Y-83563487D01*
X113284847Y-83453434D01*
X113284000Y-83440512D01*
X113284000Y-80262488D01*
X113284847Y-80249566D01*
X113299336Y-80139513D01*
X113306025Y-80114549D01*
X113345999Y-80018043D01*
X113358921Y-79995661D01*
X113422513Y-79912787D01*
X113440787Y-79894513D01*
X113523661Y-79830921D01*
X113546043Y-79817999D01*
X113642549Y-79778025D01*
X113667513Y-79771336D01*
X113777566Y-79756847D01*
X113790488Y-79756000D01*
X122617421Y-79756000D01*
X122623480Y-79756186D01*
X122675472Y-79759374D01*
X122687502Y-79760855D01*
X122738743Y-79770378D01*
X122744665Y-79771667D01*
X123945952Y-80071988D01*
X124714000Y-80264000D01*
X130746500Y-80264000D01*
X130991056Y-80114549D01*
X131763658Y-79642404D01*
X131775691Y-79636140D01*
X131837987Y-79608959D01*
X131882236Y-79589652D01*
X131908288Y-79582322D01*
X132023451Y-79566429D01*
X132036985Y-79565500D01*
X134875512Y-79565500D01*
X134888434Y-79566347D01*
G37*
%TD.AperFunction*%
%TD*%
%TA.AperFunction,Conductor*%
%TO.N,Net-(R2-Pad2)*%
G36*
X140292148Y-79502598D02*
G01*
X140384947Y-79512844D01*
X140406143Y-79517582D01*
X140494481Y-79547828D01*
X140504560Y-79551911D01*
X141447328Y-79995566D01*
X141461000Y-80002000D01*
X142557500Y-80518000D01*
X151629992Y-80518000D01*
X151636693Y-80518227D01*
X151694177Y-80522127D01*
X151707448Y-80523935D01*
X151763892Y-80535566D01*
X151770404Y-80537140D01*
X152472114Y-80732060D01*
X152484253Y-80736299D01*
X152585744Y-80779319D01*
X152607874Y-80792311D01*
X152689774Y-80855992D01*
X152707822Y-80874240D01*
X152770593Y-80956825D01*
X152783344Y-80979098D01*
X152822779Y-81075047D01*
X152829376Y-81099848D01*
X152843665Y-81209154D01*
X152844500Y-81221987D01*
X152844500Y-85370776D01*
X152843363Y-85385734D01*
X152823956Y-85512701D01*
X152815019Y-85541253D01*
X152761913Y-85649791D01*
X152744855Y-85674369D01*
X152661750Y-85762088D01*
X152638128Y-85780448D01*
X152532615Y-85839334D01*
X152504588Y-85849799D01*
X152416328Y-85868213D01*
X152378854Y-85876031D01*
X152363984Y-85877974D01*
X151028685Y-85950152D01*
X151015295Y-85949968D01*
X150900891Y-85940636D01*
X150874791Y-85934887D01*
X150844945Y-85923918D01*
X150773404Y-85897624D01*
X150749795Y-85885104D01*
X150662073Y-85822082D01*
X150642674Y-85803703D01*
X150575005Y-85719508D01*
X150561227Y-85696605D01*
X150518551Y-85597385D01*
X150511401Y-85571632D01*
X150495906Y-85457894D01*
X150495000Y-85444530D01*
X150495000Y-82938938D01*
X149993418Y-82937277D01*
X149993416Y-82937277D01*
X145712264Y-82923101D01*
X145712244Y-82923101D01*
X145700750Y-82923063D01*
X145689642Y-82923521D01*
X145689620Y-82923522D01*
X144053957Y-82991013D01*
X142968797Y-83035789D01*
X142441285Y-83057555D01*
X142440321Y-83057589D01*
X142431517Y-83057862D01*
X142429495Y-83057904D01*
X142421857Y-83057983D01*
X142420670Y-83057995D01*
X142419657Y-83058000D01*
X137475988Y-83058000D01*
X137463066Y-83057153D01*
X137353013Y-83042664D01*
X137328049Y-83035975D01*
X137231543Y-82996001D01*
X137209161Y-82983079D01*
X137126287Y-82919487D01*
X137108013Y-82901213D01*
X137044421Y-82818339D01*
X137031499Y-82795957D01*
X136991525Y-82699451D01*
X136984836Y-82674487D01*
X136970347Y-82564434D01*
X136969500Y-82551512D01*
X136969500Y-80008488D01*
X136970347Y-79995566D01*
X136984836Y-79885513D01*
X136991525Y-79860549D01*
X137031499Y-79764043D01*
X137044421Y-79741661D01*
X137108013Y-79658787D01*
X137126287Y-79640513D01*
X137209161Y-79576921D01*
X137231543Y-79563999D01*
X137328049Y-79524025D01*
X137353013Y-79517336D01*
X137463066Y-79502847D01*
X137475988Y-79502000D01*
X140281284Y-79502000D01*
X140292148Y-79502598D01*
G37*
%TD.AperFunction*%
%TD*%
%TA.AperFunction,Conductor*%
%TO.N,GNDREF*%
G36*
X155002396Y-76500236D02*
G01*
X155190287Y-76518742D01*
X155199708Y-76520616D01*
X155378066Y-76574720D01*
X155386940Y-76578396D01*
X155551311Y-76666254D01*
X155559298Y-76671590D01*
X155703376Y-76789831D01*
X155710169Y-76796624D01*
X155828410Y-76940702D01*
X155833746Y-76948689D01*
X155921604Y-77113060D01*
X155925280Y-77121934D01*
X155979384Y-77300292D01*
X155981258Y-77309713D01*
X155999764Y-77497604D01*
X156000000Y-77502407D01*
X156000000Y-111997593D01*
X155999764Y-112002396D01*
X155981258Y-112190287D01*
X155979384Y-112199708D01*
X155925280Y-112378066D01*
X155921604Y-112386940D01*
X155833746Y-112551311D01*
X155828410Y-112559298D01*
X155710169Y-112703376D01*
X155703376Y-112710169D01*
X155559298Y-112828410D01*
X155551311Y-112833746D01*
X155386940Y-112921604D01*
X155378066Y-112925280D01*
X155199708Y-112979384D01*
X155190287Y-112981258D01*
X155002396Y-112999764D01*
X154997593Y-113000000D01*
X113002407Y-113000000D01*
X112997604Y-112999764D01*
X112809713Y-112981258D01*
X112800292Y-112979384D01*
X112621934Y-112925280D01*
X112613060Y-112921604D01*
X112448689Y-112833746D01*
X112440702Y-112828410D01*
X112296624Y-112710169D01*
X112289831Y-112703376D01*
X112171590Y-112559298D01*
X112166254Y-112551311D01*
X112078396Y-112386940D01*
X112074720Y-112378066D01*
X112020616Y-112199708D01*
X112018742Y-112190287D01*
X112000236Y-112002396D01*
X112000000Y-111997593D01*
X112000000Y-102473743D01*
X132308170Y-102473743D01*
X132308225Y-102475553D01*
X132308225Y-102475559D01*
X132316286Y-102739407D01*
X132316342Y-102741231D01*
X132316665Y-102743020D01*
X132316666Y-102743025D01*
X132359493Y-102979858D01*
X132363962Y-103004574D01*
X132449983Y-103257984D01*
X132572516Y-103495897D01*
X132728869Y-103713084D01*
X132915607Y-103904776D01*
X133128628Y-104066761D01*
X133363251Y-104195480D01*
X133364952Y-104196108D01*
X133364953Y-104196108D01*
X133612612Y-104287475D01*
X133612615Y-104287476D01*
X133614323Y-104288106D01*
X133876329Y-104342602D01*
X134143511Y-104357774D01*
X134145327Y-104357607D01*
X134145333Y-104357607D01*
X134408184Y-104333454D01*
X134408185Y-104333454D01*
X134410001Y-104333287D01*
X134593124Y-104288477D01*
X134668189Y-104270109D01*
X134668193Y-104270108D01*
X134669945Y-104269679D01*
X134917632Y-104168348D01*
X135147621Y-104031519D01*
X135320616Y-103890176D01*
X137383439Y-101827352D01*
X137418087Y-101813000D01*
X138866500Y-101813000D01*
X138901148Y-101827352D01*
X138915500Y-101862000D01*
X138915500Y-107385643D01*
X138901148Y-107420291D01*
X138886392Y-107430423D01*
X138886116Y-107430546D01*
X138796922Y-107470164D01*
X138796921Y-107470165D01*
X138792787Y-107472001D01*
X138789592Y-107475202D01*
X138789590Y-107475203D01*
X138753353Y-107511503D01*
X138713699Y-107551227D01*
X138668434Y-107653613D01*
X138665440Y-107679294D01*
X138665440Y-111268706D01*
X138668558Y-111294906D01*
X138670048Y-111298261D01*
X138670049Y-111298264D01*
X138711967Y-111392634D01*
X138714001Y-111397213D01*
X138717202Y-111400408D01*
X138717203Y-111400410D01*
X138753503Y-111436647D01*
X138793227Y-111476301D01*
X138895613Y-111521566D01*
X138899269Y-111521992D01*
X138899272Y-111521993D01*
X138908664Y-111523088D01*
X138921294Y-111524560D01*
X142510706Y-111524560D01*
X142512131Y-111524390D01*
X142512138Y-111524390D01*
X142533260Y-111521876D01*
X142533261Y-111521876D01*
X142536906Y-111521442D01*
X142540261Y-111519952D01*
X142540264Y-111519951D01*
X142635078Y-111477836D01*
X142635079Y-111477835D01*
X142639213Y-111475999D01*
X142642408Y-111472798D01*
X142642410Y-111472797D01*
X142714670Y-111400410D01*
X142718301Y-111396773D01*
X142763566Y-111294387D01*
X142766560Y-111268706D01*
X142766560Y-107679294D01*
X142763442Y-107653094D01*
X142761952Y-107649739D01*
X142761951Y-107649736D01*
X142719836Y-107554922D01*
X142719835Y-107554921D01*
X142717999Y-107550787D01*
X142714798Y-107547592D01*
X142714797Y-107547590D01*
X142642283Y-107475203D01*
X142638773Y-107471699D01*
X142545686Y-107430545D01*
X142519801Y-107403410D01*
X142516500Y-107385730D01*
X142516500Y-100129953D01*
X142516579Y-100127175D01*
X142521170Y-100046315D01*
X142521274Y-100044490D01*
X142510508Y-99927318D01*
X142510439Y-99926493D01*
X142501852Y-99810939D01*
X142501852Y-99810938D01*
X142501717Y-99809123D01*
X142498939Y-99796845D01*
X142497938Y-99790522D01*
X142496953Y-99779807D01*
X142496787Y-99777999D01*
X142468824Y-99663721D01*
X142468628Y-99662890D01*
X142443053Y-99549869D01*
X142442655Y-99548109D01*
X142442003Y-99546432D01*
X142441998Y-99546416D01*
X142438096Y-99536382D01*
X142436170Y-99530274D01*
X142433611Y-99519819D01*
X142433610Y-99519815D01*
X142433179Y-99518055D01*
X142388592Y-99409070D01*
X142388286Y-99408299D01*
X142346322Y-99300389D01*
X142345662Y-99298691D01*
X142339414Y-99287759D01*
X142336617Y-99282024D01*
X142331848Y-99270368D01*
X142271687Y-99169245D01*
X142271256Y-99168507D01*
X142213768Y-99067925D01*
X142212868Y-99066350D01*
X142205080Y-99056470D01*
X142201458Y-99051200D01*
X142195950Y-99041942D01*
X142195020Y-99040379D01*
X142120557Y-98949242D01*
X142120024Y-98948578D01*
X142048313Y-98857612D01*
X142048304Y-98857603D01*
X142047190Y-98856189D01*
X141968315Y-98781990D01*
X141967246Y-98780953D01*
X141963795Y-98777503D01*
X141961881Y-98775478D01*
X141907953Y-98715056D01*
X141906740Y-98713697D01*
X141869384Y-98682628D01*
X141816301Y-98638480D01*
X141815648Y-98637928D01*
X141727862Y-98562286D01*
X141727861Y-98562285D01*
X141726482Y-98561097D01*
X141724941Y-98560125D01*
X141724932Y-98560118D01*
X141715838Y-98554380D01*
X141710660Y-98550619D01*
X141700988Y-98542575D01*
X141669417Y-98523417D01*
X141600397Y-98481535D01*
X141599670Y-98481085D01*
X141529170Y-98436603D01*
X141500154Y-98418295D01*
X141488642Y-98413230D01*
X141482954Y-98410269D01*
X141473750Y-98404683D01*
X141473746Y-98404681D01*
X141472202Y-98403744D01*
X141470533Y-98403044D01*
X141363691Y-98358241D01*
X141362905Y-98357903D01*
X141292423Y-98326890D01*
X141255205Y-98310514D01*
X141253447Y-98310035D01*
X141253442Y-98310033D01*
X141243064Y-98307204D01*
X141237003Y-98305117D01*
X141225409Y-98300255D01*
X141223645Y-98299807D01*
X141223639Y-98299805D01*
X141137287Y-98277875D01*
X141111406Y-98271302D01*
X141110610Y-98271094D01*
X141068749Y-98259681D01*
X140998770Y-98240602D01*
X140998764Y-98240601D01*
X140997015Y-98240124D01*
X140989906Y-98239282D01*
X140984522Y-98238645D01*
X140978225Y-98237478D01*
X140966030Y-98234381D01*
X140918151Y-98229560D01*
X140848943Y-98222591D01*
X140848093Y-98222498D01*
X140786094Y-98215160D01*
X140731257Y-98208670D01*
X140729447Y-98208725D01*
X140729441Y-98208725D01*
X140623012Y-98211977D01*
X140621516Y-98212000D01*
X136705947Y-98212000D01*
X136703169Y-98211921D01*
X136700691Y-98211780D01*
X136620489Y-98207226D01*
X136618673Y-98207393D01*
X136618667Y-98207393D01*
X136534608Y-98215117D01*
X136503324Y-98217991D01*
X136502508Y-98218060D01*
X136450133Y-98221952D01*
X136386937Y-98226648D01*
X136386934Y-98226648D01*
X136385123Y-98226783D01*
X136383350Y-98227184D01*
X136383351Y-98227184D01*
X136372849Y-98229560D01*
X136366520Y-98230562D01*
X136353999Y-98231713D01*
X136352231Y-98232146D01*
X136352229Y-98232146D01*
X136239703Y-98259681D01*
X136238870Y-98259877D01*
X136125872Y-98285446D01*
X136124109Y-98285845D01*
X136122427Y-98286499D01*
X136122414Y-98286503D01*
X136112388Y-98290402D01*
X136106276Y-98292330D01*
X136095818Y-98294889D01*
X136095814Y-98294890D01*
X136094054Y-98295321D01*
X135985092Y-98339898D01*
X135984304Y-98340211D01*
X135874691Y-98382838D01*
X135863762Y-98389085D01*
X135858014Y-98391887D01*
X135848060Y-98395959D01*
X135848055Y-98395961D01*
X135846367Y-98396652D01*
X135844804Y-98397582D01*
X135745201Y-98456840D01*
X135744483Y-98457259D01*
X135642350Y-98515632D01*
X135640926Y-98516755D01*
X135640924Y-98516756D01*
X135632475Y-98523417D01*
X135627192Y-98527048D01*
X135616379Y-98533481D01*
X135592893Y-98552670D01*
X135525281Y-98607912D01*
X135524617Y-98608446D01*
X135432189Y-98681310D01*
X135430950Y-98682627D01*
X135430949Y-98682628D01*
X135357968Y-98760209D01*
X135356926Y-98761283D01*
X132790811Y-101327398D01*
X132660597Y-101478518D01*
X132659627Y-101480055D01*
X132659625Y-101480058D01*
X132521063Y-101699667D01*
X132517795Y-101704846D01*
X132410014Y-101949795D01*
X132339624Y-102207985D01*
X132308170Y-102473743D01*
X112000000Y-102473743D01*
X112000000Y-95889787D01*
X126821500Y-95889787D01*
X126822154Y-95909761D01*
X126822573Y-95916156D01*
X126824532Y-95936057D01*
X126840308Y-96055891D01*
X126848109Y-96095102D01*
X126851420Y-96107456D01*
X126864260Y-96145278D01*
X126909271Y-96253946D01*
X126926943Y-96289782D01*
X126933338Y-96300859D01*
X126933771Y-96301506D01*
X126933779Y-96301520D01*
X126947141Y-96321518D01*
X126955543Y-96334093D01*
X126958166Y-96337511D01*
X127025911Y-96425797D01*
X127027153Y-96427416D01*
X127027669Y-96428005D01*
X127027672Y-96428008D01*
X127042136Y-96444500D01*
X127053501Y-96457459D01*
X127062541Y-96466499D01*
X127092584Y-96492847D01*
X127093207Y-96493325D01*
X127093213Y-96493330D01*
X127123733Y-96516749D01*
X127185907Y-96564457D01*
X127219145Y-96586665D01*
X127219826Y-96587058D01*
X127219837Y-96587065D01*
X127228230Y-96591910D01*
X127230219Y-96593058D01*
X127230958Y-96593423D01*
X127230961Y-96593424D01*
X127265321Y-96610368D01*
X127265333Y-96610374D01*
X127266048Y-96610726D01*
X127266785Y-96611031D01*
X127266791Y-96611034D01*
X127286054Y-96619013D01*
X127374718Y-96655739D01*
X127388808Y-96660522D01*
X127411784Y-96668323D01*
X127411801Y-96668328D01*
X127412537Y-96668578D01*
X127413298Y-96668782D01*
X127413308Y-96668785D01*
X127424109Y-96671680D01*
X127424119Y-96671682D01*
X127424890Y-96671889D01*
X127425665Y-96672043D01*
X127425677Y-96672046D01*
X127456041Y-96678087D01*
X127464108Y-96679692D01*
X127464893Y-96679795D01*
X127464903Y-96679797D01*
X127521830Y-96687291D01*
X127583943Y-96695468D01*
X127603847Y-96697428D01*
X127606781Y-96697620D01*
X127609808Y-96697819D01*
X127609838Y-96697820D01*
X127610243Y-96697847D01*
X127610659Y-96697861D01*
X127610667Y-96697861D01*
X127617689Y-96698090D01*
X127630213Y-96698500D01*
X129669603Y-96698500D01*
X129671198Y-96698439D01*
X129692547Y-96697620D01*
X129692556Y-96697620D01*
X129693012Y-96697602D01*
X129693448Y-96697568D01*
X129693474Y-96697567D01*
X129700030Y-96697063D01*
X129700047Y-96697061D01*
X129700494Y-96697027D01*
X129723730Y-96694343D01*
X129724180Y-96694274D01*
X129724191Y-96694272D01*
X129862497Y-96672904D01*
X129862499Y-96672904D01*
X129863422Y-96672761D01*
X129908963Y-96662102D01*
X129909851Y-96661821D01*
X129909858Y-96661819D01*
X129916723Y-96659646D01*
X129923228Y-96657587D01*
X129924099Y-96657236D01*
X129924107Y-96657233D01*
X129965757Y-96640443D01*
X129965759Y-96640442D01*
X129966630Y-96640091D01*
X130089889Y-96579044D01*
X130090693Y-96578566D01*
X130129301Y-96555607D01*
X130129313Y-96555599D01*
X130130102Y-96555130D01*
X130130856Y-96554600D01*
X130130866Y-96554593D01*
X130141572Y-96547060D01*
X130141582Y-96547052D01*
X130142340Y-96546519D01*
X130178425Y-96516749D01*
X130203251Y-96492847D01*
X130279926Y-96419027D01*
X130279932Y-96419021D01*
X130280255Y-96418710D01*
X130296489Y-96401834D01*
X130301480Y-96396231D01*
X130302479Y-96395019D01*
X130316084Y-96378514D01*
X130316090Y-96378506D01*
X130316364Y-96378174D01*
X131073598Y-95384304D01*
X131106012Y-95365441D01*
X131112574Y-95365000D01*
X131982032Y-95365000D01*
X132016680Y-95379352D01*
X132026368Y-95393136D01*
X132098632Y-95546697D01*
X132301999Y-95978851D01*
X132311881Y-95998057D01*
X132315255Y-96004081D01*
X132326460Y-96022526D01*
X132398088Y-96131564D01*
X132424265Y-96165864D01*
X132424839Y-96166516D01*
X132424848Y-96166526D01*
X132425186Y-96166909D01*
X132433396Y-96176221D01*
X132434004Y-96176819D01*
X132434012Y-96176828D01*
X132448773Y-96191358D01*
X132464150Y-96206495D01*
X132560687Y-96288944D01*
X132561383Y-96289458D01*
X132590424Y-96310907D01*
X132595402Y-96314584D01*
X132607060Y-96321982D01*
X132607835Y-96322400D01*
X132644266Y-96342057D01*
X132644273Y-96342060D01*
X132645032Y-96342470D01*
X132760740Y-96394714D01*
X132761558Y-96395016D01*
X132761566Y-96395019D01*
X132777975Y-96401072D01*
X132801250Y-96409657D01*
X132814506Y-96413507D01*
X132815334Y-96413685D01*
X132815341Y-96413687D01*
X132843397Y-96419725D01*
X132856668Y-96422582D01*
X132985822Y-96440963D01*
X133007283Y-96443248D01*
X133007688Y-96443277D01*
X133007714Y-96443279D01*
X133013513Y-96443689D01*
X133014187Y-96443737D01*
X133014595Y-96443751D01*
X133014606Y-96443752D01*
X133021530Y-96443997D01*
X133035771Y-96444500D01*
X135196287Y-96444500D01*
X135208811Y-96444090D01*
X135215833Y-96443861D01*
X135215841Y-96443861D01*
X135216257Y-96443847D01*
X135216662Y-96443820D01*
X135216692Y-96443819D01*
X135219719Y-96443620D01*
X135222653Y-96443428D01*
X135242557Y-96441468D01*
X135304670Y-96433291D01*
X135361597Y-96425797D01*
X135361607Y-96425795D01*
X135362392Y-96425692D01*
X135377410Y-96422704D01*
X135400823Y-96418046D01*
X135400835Y-96418043D01*
X135401610Y-96417889D01*
X135402381Y-96417682D01*
X135402391Y-96417680D01*
X135413192Y-96414785D01*
X135413202Y-96414782D01*
X135413963Y-96414578D01*
X135414699Y-96414328D01*
X135414716Y-96414323D01*
X135437692Y-96406522D01*
X135451782Y-96401739D01*
X135509554Y-96377809D01*
X135559709Y-96357034D01*
X135559715Y-96357031D01*
X135560452Y-96356726D01*
X135561167Y-96356374D01*
X135561179Y-96356368D01*
X135595539Y-96339424D01*
X135595542Y-96339423D01*
X135596281Y-96339058D01*
X135602585Y-96335419D01*
X135606663Y-96333065D01*
X135606674Y-96333058D01*
X135607355Y-96332665D01*
X135640593Y-96310457D01*
X135714239Y-96253946D01*
X135733287Y-96239330D01*
X135733293Y-96239325D01*
X135733916Y-96238847D01*
X135734523Y-96238315D01*
X135754655Y-96220660D01*
X135786963Y-96208500D01*
X149444673Y-96208500D01*
X149479321Y-96222852D01*
X149488254Y-96235102D01*
X149516189Y-96289458D01*
X149522944Y-96302601D01*
X149524430Y-96304476D01*
X149524432Y-96304479D01*
X149630472Y-96438269D01*
X149644818Y-96456369D01*
X149646644Y-96457923D01*
X149646645Y-96457924D01*
X149789449Y-96579459D01*
X149794238Y-96583535D01*
X149965513Y-96679257D01*
X149985315Y-96685691D01*
X150149836Y-96739148D01*
X150149840Y-96739149D01*
X150152118Y-96739889D01*
X150346946Y-96763121D01*
X150542576Y-96748068D01*
X150731556Y-96695303D01*
X150733685Y-96694228D01*
X150733689Y-96694226D01*
X150845408Y-96637792D01*
X150906689Y-96606837D01*
X151051972Y-96493330D01*
X151059414Y-96487516D01*
X151059415Y-96487515D01*
X151061303Y-96486040D01*
X151062871Y-96484224D01*
X151187938Y-96339332D01*
X151187942Y-96339327D01*
X151189509Y-96337511D01*
X151286425Y-96166909D01*
X151306203Y-96107456D01*
X151340718Y-96003698D01*
X151348358Y-95980732D01*
X151372949Y-95786071D01*
X151373341Y-95758000D01*
X151354194Y-95562728D01*
X151305660Y-95401974D01*
X151298178Y-95377191D01*
X151298176Y-95377186D01*
X151297484Y-95374894D01*
X151205370Y-95201653D01*
X151081361Y-95049602D01*
X150930180Y-94924535D01*
X150884193Y-94899670D01*
X150860542Y-94870567D01*
X150858500Y-94856568D01*
X150858500Y-94001840D01*
X150872852Y-93967192D01*
X150883558Y-93959088D01*
X151032039Y-93875936D01*
X151032041Y-93875935D01*
X151034001Y-93874837D01*
X151096433Y-93822913D01*
X151187782Y-93746938D01*
X151189505Y-93745505D01*
X151242505Y-93681780D01*
X151317401Y-93591728D01*
X151317403Y-93591726D01*
X151318837Y-93590001D01*
X151332063Y-93566385D01*
X151416568Y-93415488D01*
X151417664Y-93413531D01*
X151470116Y-93259014D01*
X151481957Y-93224132D01*
X151481958Y-93224129D01*
X151482678Y-93222007D01*
X151501218Y-93094135D01*
X151511493Y-93023272D01*
X151511493Y-93023266D01*
X151511700Y-93021842D01*
X151513215Y-92964000D01*
X151512817Y-92959662D01*
X151504318Y-92867178D01*
X151494708Y-92762591D01*
X151439807Y-92567926D01*
X151427617Y-92543206D01*
X151383461Y-92453668D01*
X151350351Y-92386527D01*
X151229335Y-92224467D01*
X151227681Y-92222938D01*
X151082463Y-92088700D01*
X151082462Y-92088699D01*
X151080812Y-92087174D01*
X151055722Y-92071343D01*
X151036979Y-92059517D01*
X150909757Y-91979246D01*
X150888895Y-91970923D01*
X150723984Y-91905130D01*
X150723982Y-91905129D01*
X150721898Y-91904298D01*
X150719697Y-91903860D01*
X150719693Y-91903859D01*
X150525730Y-91865277D01*
X150525726Y-91865277D01*
X150523526Y-91864839D01*
X150430704Y-91863624D01*
X150323534Y-91862221D01*
X150323529Y-91862221D01*
X150321286Y-91862192D01*
X150319069Y-91862573D01*
X150319068Y-91862573D01*
X150305881Y-91864839D01*
X150121949Y-91896444D01*
X150119845Y-91897220D01*
X150119842Y-91897221D01*
X149934301Y-91965671D01*
X149934298Y-91965672D01*
X149932193Y-91966449D01*
X149930265Y-91967596D01*
X149930263Y-91967597D01*
X149760301Y-92068713D01*
X149760295Y-92068717D01*
X149758371Y-92069862D01*
X149756683Y-92071342D01*
X149756682Y-92071343D01*
X149655504Y-92160074D01*
X149606305Y-92203220D01*
X149604920Y-92204977D01*
X149604917Y-92204980D01*
X149508135Y-92327749D01*
X149481089Y-92362057D01*
X149480043Y-92364045D01*
X149402943Y-92510588D01*
X149386914Y-92541053D01*
X149386247Y-92543201D01*
X149386245Y-92543206D01*
X149334431Y-92710077D01*
X149326937Y-92734213D01*
X149326672Y-92736452D01*
X149304928Y-92920168D01*
X149303164Y-92935069D01*
X149303311Y-92937311D01*
X149316125Y-93132814D01*
X149316392Y-93136894D01*
X149366178Y-93332928D01*
X149450856Y-93516607D01*
X149567588Y-93681780D01*
X149569192Y-93683343D01*
X149569195Y-93683346D01*
X149591047Y-93704633D01*
X149712466Y-93822913D01*
X149880637Y-93935282D01*
X149927844Y-93955564D01*
X149954012Y-93982427D01*
X149957500Y-94000584D01*
X149957500Y-94813907D01*
X149943148Y-94848555D01*
X149931202Y-94857331D01*
X149819629Y-94915660D01*
X149817512Y-94916767D01*
X149664600Y-95039711D01*
X149663057Y-95041550D01*
X149540020Y-95188180D01*
X149540017Y-95188184D01*
X149538480Y-95190016D01*
X149495656Y-95267912D01*
X149487853Y-95282106D01*
X149458585Y-95305554D01*
X149444914Y-95307500D01*
X136054000Y-95307500D01*
X136019352Y-95293148D01*
X136005000Y-95258500D01*
X136005000Y-93358882D01*
X136004196Y-93336731D01*
X136003681Y-93329647D01*
X136001275Y-93307629D01*
X135997948Y-93284854D01*
X135983677Y-93187190D01*
X135981923Y-93175184D01*
X135972360Y-93131940D01*
X135968306Y-93118364D01*
X135952596Y-93076967D01*
X135897674Y-92958853D01*
X135876148Y-92920168D01*
X135875672Y-92919442D01*
X135875666Y-92919432D01*
X135868864Y-92909057D01*
X135868862Y-92909054D01*
X135868380Y-92908319D01*
X135841471Y-92873130D01*
X135836193Y-92867178D01*
X135755641Y-92776333D01*
X135755639Y-92776331D01*
X135755053Y-92775670D01*
X135754428Y-92775061D01*
X135754418Y-92775050D01*
X135723985Y-92745373D01*
X135723981Y-92745370D01*
X135723351Y-92744755D01*
X135712517Y-92735624D01*
X135676673Y-92709612D01*
X135665067Y-92702413D01*
X135563300Y-92639287D01*
X135563292Y-92639282D01*
X135562916Y-92639049D01*
X135543670Y-92628057D01*
X135537393Y-92624768D01*
X135523461Y-92618100D01*
X135517774Y-92615378D01*
X135517761Y-92615372D01*
X135517414Y-92615206D01*
X135517049Y-92615047D01*
X135517033Y-92615040D01*
X134987305Y-92384724D01*
X134573961Y-92205009D01*
X134547910Y-92178034D01*
X134544500Y-92160074D01*
X134544500Y-89466713D01*
X134543847Y-89446743D01*
X134543428Y-89440347D01*
X134541468Y-89420442D01*
X134525692Y-89300609D01*
X134517892Y-89261404D01*
X134514581Y-89249049D01*
X134501740Y-89211220D01*
X134456729Y-89102553D01*
X134439059Y-89066720D01*
X134432663Y-89055641D01*
X134410455Y-89022404D01*
X134338846Y-88929083D01*
X134312499Y-88899041D01*
X134303459Y-88890001D01*
X134273416Y-88863653D01*
X134262492Y-88855270D01*
X134180738Y-88792538D01*
X134180093Y-88792043D01*
X134146855Y-88769835D01*
X134146174Y-88769442D01*
X134146163Y-88769435D01*
X134136498Y-88763856D01*
X134135781Y-88763442D01*
X134135039Y-88763076D01*
X134100688Y-88746137D01*
X134100678Y-88746132D01*
X134099951Y-88745774D01*
X133991280Y-88700761D01*
X133980933Y-88697248D01*
X133954211Y-88688175D01*
X133954204Y-88688173D01*
X133953468Y-88687923D01*
X133944352Y-88685480D01*
X133941900Y-88684822D01*
X133941896Y-88684821D01*
X133941116Y-88684612D01*
X133901892Y-88676808D01*
X133901107Y-88676705D01*
X133901097Y-88676703D01*
X133846094Y-88669462D01*
X133782056Y-88661032D01*
X133762156Y-88659073D01*
X133761755Y-88659047D01*
X133761734Y-88659045D01*
X133758714Y-88658847D01*
X133755761Y-88658654D01*
X133735787Y-88658000D01*
X131567213Y-88658000D01*
X131547239Y-88658654D01*
X131544286Y-88658847D01*
X131541266Y-88659045D01*
X131541245Y-88659047D01*
X131540844Y-88659073D01*
X131520944Y-88661032D01*
X131456906Y-88669462D01*
X131401903Y-88676703D01*
X131401893Y-88676705D01*
X131401108Y-88676808D01*
X131361884Y-88684612D01*
X131361104Y-88684821D01*
X131361100Y-88684822D01*
X131358648Y-88685480D01*
X131349532Y-88687923D01*
X131348796Y-88688173D01*
X131348789Y-88688175D01*
X131322067Y-88697248D01*
X131311720Y-88700761D01*
X131203049Y-88745774D01*
X131202322Y-88746132D01*
X131202312Y-88746137D01*
X131167961Y-88763076D01*
X131167219Y-88763442D01*
X131166502Y-88763856D01*
X131156837Y-88769435D01*
X131156826Y-88769442D01*
X131156145Y-88769835D01*
X131122907Y-88792043D01*
X131122262Y-88792538D01*
X131040509Y-88855270D01*
X131029584Y-88863653D01*
X130999541Y-88890001D01*
X130990501Y-88899041D01*
X130964154Y-88929083D01*
X130892545Y-89022404D01*
X130870337Y-89055641D01*
X130863941Y-89066720D01*
X130846271Y-89102553D01*
X130801260Y-89211220D01*
X130788419Y-89249049D01*
X130785108Y-89261404D01*
X130777308Y-89300609D01*
X130761532Y-89420442D01*
X130759572Y-89440347D01*
X130759153Y-89446743D01*
X130758500Y-89466713D01*
X130758500Y-92303809D01*
X130743249Y-92339334D01*
X130091932Y-92958086D01*
X129692906Y-93337161D01*
X129682675Y-93346880D01*
X129650093Y-93360341D01*
X127611622Y-93408876D01*
X127611144Y-93408906D01*
X127611142Y-93408906D01*
X127588521Y-93410321D01*
X127588500Y-93410323D01*
X127588032Y-93410352D01*
X127587564Y-93410400D01*
X127587546Y-93410401D01*
X127580996Y-93411066D01*
X127580974Y-93411069D01*
X127580498Y-93411117D01*
X127580034Y-93411182D01*
X127580020Y-93411184D01*
X127563348Y-93413531D01*
X127557118Y-93414408D01*
X127551132Y-93415488D01*
X127417702Y-93439561D01*
X127417694Y-93439563D01*
X127416745Y-93439734D01*
X127415815Y-93439977D01*
X127415807Y-93439979D01*
X127375584Y-93450500D01*
X127371084Y-93451677D01*
X127356814Y-93456615D01*
X127335160Y-93466040D01*
X127314363Y-93475091D01*
X127314354Y-93475095D01*
X127313507Y-93475464D01*
X127190898Y-93540532D01*
X127151035Y-93565816D01*
X127150275Y-93566385D01*
X127139703Y-93574298D01*
X127139693Y-93574306D01*
X127138949Y-93574863D01*
X127138249Y-93575477D01*
X127138239Y-93575485D01*
X127121687Y-93590001D01*
X127103446Y-93605998D01*
X127006470Y-93705310D01*
X126976184Y-93741550D01*
X126967429Y-93753846D01*
X126966948Y-93754646D01*
X126966942Y-93754655D01*
X126947408Y-93787140D01*
X126943104Y-93794297D01*
X126942682Y-93795140D01*
X126942676Y-93795151D01*
X126928780Y-93822913D01*
X126880976Y-93918416D01*
X126863171Y-93962135D01*
X126862885Y-93963028D01*
X126862883Y-93963035D01*
X126858861Y-93975617D01*
X126858573Y-93976518D01*
X126858360Y-93977421D01*
X126858356Y-93977434D01*
X126852886Y-94000584D01*
X126847714Y-94022469D01*
X126847571Y-94023386D01*
X126847570Y-94023391D01*
X126841898Y-94059760D01*
X126825734Y-94163412D01*
X126822998Y-94186886D01*
X126822413Y-94194436D01*
X126821500Y-94218036D01*
X126821500Y-95889787D01*
X112000000Y-95889787D01*
X112000000Y-83440512D01*
X112978500Y-83440512D01*
X112979154Y-83460494D01*
X112980001Y-83473416D01*
X112981961Y-83493310D01*
X112984661Y-83513817D01*
X112996346Y-83602577D01*
X112996349Y-83602592D01*
X112996450Y-83603363D01*
X113004245Y-83642555D01*
X113010934Y-83667519D01*
X113011195Y-83668287D01*
X113011195Y-83668288D01*
X113023517Y-83704588D01*
X113023523Y-83704604D01*
X113023780Y-83705361D01*
X113063754Y-83801867D01*
X113081427Y-83837705D01*
X113094349Y-83860087D01*
X113094789Y-83860745D01*
X113094793Y-83860752D01*
X113109239Y-83882372D01*
X113116552Y-83893317D01*
X113180144Y-83976191D01*
X113180667Y-83976787D01*
X113180670Y-83976791D01*
X113191678Y-83989343D01*
X113206492Y-84006234D01*
X113224766Y-84024508D01*
X113254809Y-84050856D01*
X113337683Y-84114448D01*
X113370913Y-84136651D01*
X113393295Y-84149573D01*
X113429133Y-84167246D01*
X113525639Y-84207220D01*
X113526396Y-84207477D01*
X113526412Y-84207483D01*
X113562712Y-84219805D01*
X113563481Y-84220066D01*
X113564265Y-84220276D01*
X113587668Y-84226547D01*
X113587674Y-84226548D01*
X113588445Y-84226755D01*
X113619029Y-84232838D01*
X113626862Y-84234396D01*
X113626866Y-84234397D01*
X113627637Y-84234550D01*
X113628408Y-84234651D01*
X113628423Y-84234654D01*
X113694166Y-84243309D01*
X113737690Y-84249039D01*
X113757584Y-84250999D01*
X113757954Y-84251023D01*
X113757963Y-84251024D01*
X113770078Y-84251818D01*
X113770081Y-84251818D01*
X113770506Y-84251846D01*
X113770908Y-84251859D01*
X113770925Y-84251860D01*
X113779980Y-84252156D01*
X113790488Y-84252500D01*
X122766122Y-84252500D01*
X122781395Y-84252118D01*
X122781623Y-84252107D01*
X122781639Y-84252106D01*
X122791005Y-84251637D01*
X122791008Y-84251637D01*
X122791284Y-84251623D01*
X122791565Y-84251602D01*
X122791579Y-84251601D01*
X122806238Y-84250499D01*
X122806242Y-84250499D01*
X122806530Y-84250477D01*
X122806788Y-84250451D01*
X122806812Y-84250449D01*
X122864050Y-84244702D01*
X122891110Y-84241985D01*
X122921324Y-84237415D01*
X122921890Y-84237300D01*
X122921908Y-84237297D01*
X122940097Y-84233607D01*
X122940100Y-84233606D01*
X122940703Y-84233484D01*
X122941284Y-84233336D01*
X122941304Y-84233331D01*
X122969695Y-84226077D01*
X122969701Y-84226075D01*
X122970301Y-84225922D01*
X122989221Y-84220066D01*
X123031731Y-84206908D01*
X123051497Y-84200790D01*
X123051698Y-84200722D01*
X123051733Y-84200711D01*
X123065730Y-84195992D01*
X123065736Y-84195990D01*
X123065970Y-84195911D01*
X123075263Y-84192517D01*
X123089494Y-84186911D01*
X123089796Y-84186783D01*
X123089826Y-84186771D01*
X124576311Y-83557873D01*
X124595403Y-83554000D01*
X134875512Y-83554000D01*
X134886020Y-83553656D01*
X134895075Y-83553360D01*
X134895092Y-83553359D01*
X134895494Y-83553346D01*
X134895919Y-83553318D01*
X134895922Y-83553318D01*
X134908037Y-83552524D01*
X134908046Y-83552523D01*
X134908416Y-83552499D01*
X134928310Y-83550539D01*
X134971834Y-83544809D01*
X135037577Y-83536154D01*
X135037592Y-83536151D01*
X135038363Y-83536050D01*
X135039134Y-83535897D01*
X135039138Y-83535896D01*
X135046971Y-83534338D01*
X135077555Y-83528255D01*
X135078326Y-83528048D01*
X135078332Y-83528047D01*
X135101735Y-83521776D01*
X135102519Y-83521566D01*
X135103288Y-83521305D01*
X135139588Y-83508983D01*
X135139604Y-83508977D01*
X135140361Y-83508720D01*
X135236867Y-83468746D01*
X135237701Y-83468335D01*
X135244269Y-83465096D01*
X135272705Y-83451073D01*
X135295087Y-83438151D01*
X135299684Y-83435080D01*
X135327627Y-83416409D01*
X135327626Y-83416409D01*
X135328317Y-83415948D01*
X135332811Y-83412500D01*
X135377964Y-83377852D01*
X135411191Y-83352356D01*
X135418952Y-83345550D01*
X135440624Y-83326543D01*
X135441234Y-83326008D01*
X135459508Y-83307734D01*
X135485856Y-83277691D01*
X135549448Y-83194817D01*
X135571651Y-83161587D01*
X135584573Y-83139205D01*
X135602246Y-83103367D01*
X135642220Y-83006861D01*
X135642477Y-83006104D01*
X135642483Y-83006088D01*
X135654805Y-82969788D01*
X135654805Y-82969787D01*
X135655066Y-82969019D01*
X135661755Y-82944055D01*
X135669550Y-82904863D01*
X135669651Y-82904092D01*
X135669654Y-82904077D01*
X135678309Y-82838334D01*
X135684039Y-82794810D01*
X135685999Y-82774916D01*
X135686846Y-82761994D01*
X135687500Y-82742012D01*
X135687500Y-80071988D01*
X135686846Y-80052006D01*
X135685999Y-80039084D01*
X135684039Y-80019190D01*
X135675856Y-79957037D01*
X135669654Y-79909923D01*
X135669651Y-79909908D01*
X135669550Y-79909137D01*
X135661755Y-79869945D01*
X135655066Y-79844981D01*
X135642861Y-79809026D01*
X135642483Y-79807912D01*
X135642477Y-79807896D01*
X135642220Y-79807139D01*
X135602246Y-79710633D01*
X135584573Y-79674795D01*
X135571651Y-79652413D01*
X135549448Y-79619183D01*
X135485856Y-79536309D01*
X135474986Y-79523914D01*
X135460043Y-79506876D01*
X135459508Y-79506266D01*
X135441234Y-79487992D01*
X135426788Y-79475323D01*
X135411791Y-79462170D01*
X135411787Y-79462167D01*
X135411191Y-79461644D01*
X135342459Y-79408904D01*
X135328974Y-79398556D01*
X135328971Y-79398554D01*
X135328317Y-79398052D01*
X135303883Y-79381726D01*
X135295752Y-79376293D01*
X135295745Y-79376289D01*
X135295087Y-79375849D01*
X135272705Y-79362927D01*
X135236867Y-79345254D01*
X135140361Y-79305280D01*
X135139604Y-79305023D01*
X135139588Y-79305017D01*
X135103288Y-79292695D01*
X135103287Y-79292695D01*
X135102519Y-79292434D01*
X135087699Y-79288463D01*
X135078332Y-79285953D01*
X135078326Y-79285952D01*
X135077555Y-79285745D01*
X135046533Y-79279575D01*
X135039138Y-79278104D01*
X135039134Y-79278103D01*
X135038363Y-79277950D01*
X135037592Y-79277849D01*
X135037577Y-79277846D01*
X134968574Y-79268762D01*
X134928310Y-79263461D01*
X134908416Y-79261501D01*
X134908046Y-79261477D01*
X134908037Y-79261476D01*
X134895922Y-79260682D01*
X134895919Y-79260682D01*
X134895494Y-79260654D01*
X134895092Y-79260641D01*
X134895075Y-79260640D01*
X134886020Y-79260344D01*
X134875512Y-79260000D01*
X134495399Y-79260000D01*
X134460751Y-79245648D01*
X134446399Y-79211000D01*
X134460751Y-79176352D01*
X134672251Y-78964852D01*
X134706899Y-78950500D01*
X152793101Y-78950500D01*
X152827749Y-78964852D01*
X153535148Y-79672251D01*
X153549500Y-79706899D01*
X153549500Y-86293101D01*
X153535148Y-86327749D01*
X153205749Y-86657148D01*
X153171101Y-86671500D01*
X152841676Y-86671500D01*
X152807028Y-86657148D01*
X152797267Y-86643208D01*
X152763723Y-86571270D01*
X152727275Y-86493107D01*
X152726049Y-86491356D01*
X152602752Y-86315270D01*
X152602750Y-86315268D01*
X152601520Y-86313511D01*
X152523430Y-86235421D01*
X152509078Y-86200773D01*
X152523430Y-86166125D01*
X152548069Y-86152806D01*
X152566081Y-86149048D01*
X152566087Y-86149047D01*
X152566981Y-86148860D01*
X152611452Y-86135999D01*
X152612326Y-86135672D01*
X152612337Y-86135669D01*
X152638602Y-86125862D01*
X152638614Y-86125857D01*
X152639479Y-86125534D01*
X152640312Y-86125149D01*
X152640321Y-86125145D01*
X152680661Y-86106487D01*
X152681496Y-86106101D01*
X152688576Y-86102150D01*
X152711418Y-86089402D01*
X152787009Y-86047215D01*
X152802682Y-86036837D01*
X152824829Y-86022173D01*
X152824838Y-86022167D01*
X152825606Y-86021658D01*
X152833275Y-86015698D01*
X152848489Y-86003873D01*
X152848499Y-86003865D01*
X152849228Y-86003298D01*
X152883525Y-85972198D01*
X152966630Y-85884479D01*
X152995832Y-85848556D01*
X152996350Y-85847810D01*
X152996358Y-85847799D01*
X153012367Y-85824732D01*
X153012371Y-85824727D01*
X153012890Y-85823978D01*
X153036327Y-85784057D01*
X153043702Y-85768983D01*
X153089025Y-85676354D01*
X153089030Y-85676342D01*
X153089433Y-85675519D01*
X153106570Y-85632511D01*
X153112465Y-85613677D01*
X153115231Y-85604841D01*
X153115231Y-85604839D01*
X153115507Y-85603959D01*
X153125949Y-85558861D01*
X153145356Y-85431894D01*
X153147984Y-85408889D01*
X153149121Y-85393931D01*
X153150000Y-85370776D01*
X153150000Y-81221987D01*
X153149355Y-81202151D01*
X153148520Y-81189318D01*
X153146588Y-81169555D01*
X153132299Y-81060249D01*
X153124610Y-81021317D01*
X153118013Y-80996516D01*
X153105344Y-80958913D01*
X153065909Y-80862964D01*
X153048471Y-80827316D01*
X153035720Y-80805043D01*
X153013811Y-80771960D01*
X152951040Y-80689375D01*
X152925030Y-80659412D01*
X152924487Y-80658863D01*
X152924475Y-80658850D01*
X152907529Y-80641717D01*
X152907528Y-80641716D01*
X152906982Y-80641164D01*
X152877298Y-80614818D01*
X152876686Y-80614342D01*
X152876675Y-80614333D01*
X152832281Y-80579815D01*
X152795398Y-80551137D01*
X152762542Y-80528857D01*
X152740412Y-80515865D01*
X152739708Y-80515511D01*
X152705684Y-80498403D01*
X152705672Y-80498397D01*
X152704971Y-80498045D01*
X152603480Y-80455025D01*
X152595438Y-80451920D01*
X152585358Y-80448028D01*
X152585336Y-80448020D01*
X152584971Y-80447879D01*
X152580803Y-80446423D01*
X152573188Y-80443764D01*
X152573171Y-80443758D01*
X152572832Y-80443640D01*
X152572465Y-80443525D01*
X152554276Y-80437829D01*
X152554259Y-80437824D01*
X152553879Y-80437705D01*
X151852169Y-80242785D01*
X151842179Y-80240191D01*
X151842045Y-80240159D01*
X151841991Y-80240145D01*
X151835871Y-80238666D01*
X151835840Y-80238659D01*
X151835667Y-80238617D01*
X151825549Y-80236353D01*
X151825391Y-80236321D01*
X151825352Y-80236312D01*
X151794539Y-80229963D01*
X151769105Y-80224722D01*
X151768742Y-80224660D01*
X151768716Y-80224655D01*
X151749079Y-80221298D01*
X151749078Y-80221298D01*
X151748687Y-80221231D01*
X151745841Y-80220843D01*
X151735793Y-80219474D01*
X151735773Y-80219472D01*
X151735416Y-80219423D01*
X151733773Y-80219256D01*
X151715272Y-80217370D01*
X151715250Y-80217368D01*
X151714856Y-80217328D01*
X151686140Y-80215380D01*
X151657509Y-80213437D01*
X151657480Y-80213435D01*
X151657372Y-80213428D01*
X151655071Y-80213311D01*
X151647261Y-80212913D01*
X151647216Y-80212911D01*
X151647036Y-80212902D01*
X151645622Y-80212854D01*
X151640495Y-80212680D01*
X151640449Y-80212679D01*
X151640335Y-80212675D01*
X151640200Y-80212673D01*
X151640171Y-80212672D01*
X151631063Y-80212518D01*
X151629992Y-80212500D01*
X142636743Y-80212500D01*
X142615879Y-80207836D01*
X140634954Y-79275636D01*
X140634938Y-79275629D01*
X140634641Y-79275489D01*
X140624798Y-79271183D01*
X140619571Y-79268896D01*
X140619553Y-79268889D01*
X140619264Y-79268762D01*
X140609185Y-79264679D01*
X140608909Y-79264576D01*
X140608881Y-79264565D01*
X140593749Y-79258915D01*
X140593748Y-79258915D01*
X140593441Y-79258800D01*
X140505103Y-79228554D01*
X140504444Y-79228368D01*
X140473445Y-79219625D01*
X140473435Y-79219622D01*
X140472788Y-79219440D01*
X140472135Y-79219294D01*
X140472127Y-79219292D01*
X140452233Y-79214845D01*
X140452223Y-79214843D01*
X140451592Y-79214702D01*
X140450955Y-79214596D01*
X140450945Y-79214594D01*
X140435068Y-79211951D01*
X140418474Y-79209189D01*
X140401230Y-79207285D01*
X140326032Y-79198982D01*
X140326003Y-79198979D01*
X140325675Y-79198943D01*
X140318475Y-79198348D01*
X140309231Y-79197584D01*
X140309222Y-79197583D01*
X140308939Y-79197560D01*
X140308654Y-79197544D01*
X140308635Y-79197543D01*
X140298410Y-79196980D01*
X140298380Y-79196979D01*
X140298075Y-79196962D01*
X140297738Y-79196953D01*
X140297720Y-79196952D01*
X140290530Y-79196754D01*
X140281284Y-79196500D01*
X137475988Y-79196500D01*
X137465480Y-79196844D01*
X137456425Y-79197140D01*
X137456408Y-79197141D01*
X137456006Y-79197154D01*
X137455581Y-79197182D01*
X137455578Y-79197182D01*
X137443463Y-79197976D01*
X137443454Y-79197977D01*
X137443084Y-79198001D01*
X137423190Y-79199961D01*
X137379666Y-79205691D01*
X137313923Y-79214346D01*
X137313908Y-79214349D01*
X137313137Y-79214450D01*
X137312366Y-79214603D01*
X137312362Y-79214604D01*
X137304529Y-79216162D01*
X137273945Y-79222245D01*
X137273174Y-79222452D01*
X137273168Y-79222453D01*
X137258091Y-79226493D01*
X137248981Y-79228934D01*
X137248213Y-79229195D01*
X137248212Y-79229195D01*
X137211912Y-79241517D01*
X137211896Y-79241523D01*
X137211139Y-79241780D01*
X137114633Y-79281754D01*
X137078795Y-79299427D01*
X137056413Y-79312349D01*
X137023183Y-79334552D01*
X136940309Y-79398144D01*
X136910266Y-79424492D01*
X136891992Y-79442766D01*
X136891457Y-79443376D01*
X136868129Y-79469976D01*
X136865644Y-79472809D01*
X136802052Y-79555683D01*
X136779849Y-79588913D01*
X136766927Y-79611295D01*
X136749254Y-79647133D01*
X136709280Y-79743639D01*
X136709023Y-79744396D01*
X136709017Y-79744412D01*
X136696695Y-79780712D01*
X136696434Y-79781481D01*
X136689745Y-79806445D01*
X136681950Y-79845637D01*
X136681849Y-79846408D01*
X136681846Y-79846423D01*
X136678647Y-79870722D01*
X136667461Y-79955690D01*
X136665501Y-79975584D01*
X136664654Y-79988506D01*
X136664000Y-80008488D01*
X136664000Y-82551512D01*
X136664654Y-82571494D01*
X136665501Y-82584416D01*
X136667461Y-82604310D01*
X136667509Y-82604672D01*
X136681846Y-82713577D01*
X136681849Y-82713592D01*
X136681950Y-82714363D01*
X136689745Y-82753555D01*
X136696434Y-82778519D01*
X136696695Y-82779287D01*
X136696695Y-82779288D01*
X136709017Y-82815588D01*
X136709023Y-82815604D01*
X136709280Y-82816361D01*
X136749254Y-82912867D01*
X136766927Y-82948705D01*
X136779849Y-82971087D01*
X136802052Y-83004317D01*
X136865644Y-83087191D01*
X136866167Y-83087787D01*
X136866170Y-83087791D01*
X136880453Y-83104077D01*
X136891992Y-83117234D01*
X136910266Y-83135508D01*
X136940309Y-83161856D01*
X137023183Y-83225448D01*
X137023874Y-83225909D01*
X137023873Y-83225909D01*
X137050093Y-83243428D01*
X137056413Y-83247651D01*
X137078795Y-83260573D01*
X137107231Y-83274596D01*
X137113508Y-83277691D01*
X137114633Y-83278246D01*
X137211139Y-83318220D01*
X137211896Y-83318477D01*
X137211912Y-83318483D01*
X137248212Y-83330805D01*
X137248981Y-83331066D01*
X137249765Y-83331276D01*
X137273168Y-83337547D01*
X137273174Y-83337548D01*
X137273945Y-83337755D01*
X137304529Y-83343838D01*
X137312362Y-83345396D01*
X137312366Y-83345397D01*
X137313137Y-83345550D01*
X137313908Y-83345651D01*
X137313923Y-83345654D01*
X137379666Y-83354309D01*
X137423190Y-83360039D01*
X137443084Y-83361999D01*
X137443454Y-83362023D01*
X137443463Y-83362024D01*
X137455578Y-83362818D01*
X137455581Y-83362818D01*
X137456006Y-83362846D01*
X137456408Y-83362859D01*
X137456425Y-83362860D01*
X137465480Y-83363156D01*
X137475988Y-83363500D01*
X142185271Y-83363500D01*
X142219919Y-83377852D01*
X142234271Y-83412500D01*
X142218507Y-83448505D01*
X141980409Y-83668288D01*
X141836498Y-83801130D01*
X141817133Y-83819005D01*
X141783897Y-83832000D01*
X137517761Y-83832000D01*
X137496039Y-83832773D01*
X137495619Y-83832803D01*
X137495618Y-83832803D01*
X137489553Y-83833235D01*
X137489534Y-83833237D01*
X137489095Y-83833268D01*
X137467521Y-83835579D01*
X137467101Y-83835639D01*
X137467086Y-83835641D01*
X137338495Y-83854051D01*
X137338491Y-83854052D01*
X137337623Y-83854176D01*
X137336775Y-83854360D01*
X137336773Y-83854360D01*
X137296044Y-83863181D01*
X137296040Y-83863182D01*
X137295209Y-83863362D01*
X137294394Y-83863600D01*
X137294383Y-83863603D01*
X137286812Y-83865816D01*
X137281880Y-83867258D01*
X137241170Y-83882372D01*
X137240392Y-83882726D01*
X137240379Y-83882731D01*
X137164371Y-83917282D01*
X137124912Y-83935218D01*
X137086770Y-83955944D01*
X137086061Y-83956397D01*
X137086053Y-83956402D01*
X137075785Y-83962967D01*
X137075069Y-83963425D01*
X137074381Y-83963937D01*
X137074374Y-83963942D01*
X137057921Y-83976191D01*
X137040254Y-83989343D01*
X136940822Y-84074988D01*
X136940549Y-84075241D01*
X136940534Y-84075254D01*
X136925174Y-84089467D01*
X136925153Y-84089487D01*
X136924883Y-84089737D01*
X136919954Y-84094634D01*
X136905099Y-84110480D01*
X136904823Y-84110797D01*
X136904816Y-84110804D01*
X136781160Y-84252493D01*
X136427948Y-84657216D01*
X136427718Y-84657497D01*
X136427696Y-84657523D01*
X136415978Y-84671839D01*
X136415958Y-84671864D01*
X136415729Y-84672144D01*
X136415513Y-84672425D01*
X136415496Y-84672447D01*
X136413051Y-84675635D01*
X136411960Y-84677057D01*
X136400681Y-84692764D01*
X136400474Y-84693072D01*
X136400459Y-84693094D01*
X136355832Y-84759592D01*
X136335596Y-84789744D01*
X136316146Y-84823105D01*
X136310608Y-84834155D01*
X136295530Y-84869682D01*
X136257821Y-84976907D01*
X136247338Y-85014071D01*
X136244741Y-85026155D01*
X136239030Y-85064334D01*
X136229086Y-85180701D01*
X136228051Y-85200003D01*
X136227915Y-85206194D01*
X136228100Y-85225490D01*
X136228116Y-85225883D01*
X136228117Y-85225914D01*
X136297300Y-86903588D01*
X136334666Y-87809713D01*
X136336151Y-87829722D01*
X136336838Y-87836124D01*
X136339639Y-87856028D01*
X136360504Y-87975637D01*
X136369987Y-88014649D01*
X136373834Y-88026902D01*
X136374126Y-88027655D01*
X136374132Y-88027672D01*
X136388054Y-88063567D01*
X136388348Y-88064325D01*
X136438218Y-88171448D01*
X136457513Y-88206647D01*
X136464415Y-88217482D01*
X136464877Y-88218111D01*
X136464884Y-88218122D01*
X136480157Y-88238939D01*
X136488162Y-88249851D01*
X136564169Y-88340329D01*
X136591968Y-88369317D01*
X136592549Y-88369848D01*
X136592552Y-88369851D01*
X136600845Y-88377432D01*
X136600857Y-88377442D01*
X136601442Y-88377977D01*
X136632770Y-88403044D01*
X136732356Y-88472515D01*
X136732707Y-88472743D01*
X136748857Y-88483238D01*
X136748877Y-88483251D01*
X136749184Y-88483450D01*
X136754680Y-88486770D01*
X136772215Y-88496590D01*
X136772551Y-88496764D01*
X136772566Y-88496772D01*
X136919313Y-88572725D01*
X137297572Y-88768504D01*
X137310956Y-88778679D01*
X137950167Y-89467140D01*
X138533114Y-90095002D01*
X138546101Y-90125152D01*
X138698274Y-92458474D01*
X138700591Y-92481055D01*
X138701602Y-92488258D01*
X138705587Y-92510588D01*
X138734655Y-92644527D01*
X138734908Y-92645380D01*
X138734911Y-92645393D01*
X138739040Y-92659329D01*
X138747535Y-92688005D01*
X138747858Y-92688858D01*
X138747861Y-92688866D01*
X138752346Y-92700700D01*
X138752351Y-92700712D01*
X138752677Y-92701572D01*
X138766903Y-92732061D01*
X138768566Y-92735624D01*
X138771856Y-92742676D01*
X138772300Y-92743468D01*
X138772303Y-92743474D01*
X138834598Y-92854611D01*
X138837068Y-92859017D01*
X138862116Y-92896820D01*
X138871005Y-92908286D01*
X138871605Y-92908951D01*
X138871608Y-92908955D01*
X138893143Y-92932837D01*
X138901378Y-92941970D01*
X138902035Y-92942598D01*
X138902039Y-92942602D01*
X138919044Y-92958853D01*
X138997800Y-93034117D01*
X138998499Y-93034692D01*
X138998508Y-93034700D01*
X139028601Y-93059456D01*
X139032829Y-93062934D01*
X139044686Y-93071294D01*
X139083579Y-93094600D01*
X139202755Y-93154474D01*
X139244680Y-93171770D01*
X139252310Y-93174273D01*
X139257595Y-93176007D01*
X139257604Y-93176010D01*
X139258465Y-93176292D01*
X139302490Y-93187190D01*
X139303403Y-93187345D01*
X139303402Y-93187345D01*
X139437147Y-93210081D01*
X139437158Y-93210083D01*
X139437613Y-93210160D01*
X139444238Y-93211034D01*
X139459677Y-93213072D01*
X139459690Y-93213074D01*
X139460126Y-93213131D01*
X139460563Y-93213172D01*
X139460570Y-93213173D01*
X139462882Y-93213391D01*
X139467368Y-93213814D01*
X139487746Y-93214975D01*
X139489548Y-93215078D01*
X139489550Y-93215078D01*
X139490005Y-93215104D01*
X141720805Y-93259279D01*
X141741055Y-93259009D01*
X141741447Y-93258991D01*
X141741473Y-93258990D01*
X141747140Y-93258726D01*
X141747150Y-93258725D01*
X141747523Y-93258708D01*
X141767693Y-93257098D01*
X141768084Y-93257054D01*
X141768102Y-93257052D01*
X141888510Y-93243418D01*
X141888516Y-93243417D01*
X141889303Y-93243328D01*
X141890082Y-93243187D01*
X141890089Y-93243186D01*
X141915483Y-93238591D01*
X141929114Y-93236124D01*
X141935386Y-93234554D01*
X141940877Y-93233180D01*
X141940891Y-93233176D01*
X141941678Y-93232979D01*
X141942449Y-93232731D01*
X141942455Y-93232729D01*
X141979424Y-93220823D01*
X141979426Y-93220822D01*
X141980200Y-93220573D01*
X142090898Y-93176635D01*
X142127451Y-93159241D01*
X142138752Y-93152913D01*
X142160034Y-93139070D01*
X142171974Y-93131304D01*
X142171983Y-93131298D01*
X142172659Y-93130858D01*
X142173310Y-93130370D01*
X142173319Y-93130364D01*
X142267304Y-93059956D01*
X142267310Y-93059951D01*
X142267971Y-93059456D01*
X142268593Y-93058922D01*
X142268602Y-93058915D01*
X142298048Y-93033646D01*
X142298052Y-93033642D01*
X142298670Y-93033112D01*
X142299245Y-93032549D01*
X142299253Y-93032541D01*
X142307332Y-93024621D01*
X142307340Y-93024613D01*
X142307919Y-93024045D01*
X142334883Y-92993856D01*
X142408161Y-92899971D01*
X142430884Y-92866506D01*
X142437434Y-92855333D01*
X142455546Y-92819137D01*
X142501669Y-92709328D01*
X142514840Y-92671042D01*
X142518231Y-92658548D01*
X142526217Y-92618902D01*
X142542390Y-92497601D01*
X142543370Y-92487781D01*
X142544359Y-92477871D01*
X142544361Y-92477847D01*
X142544399Y-92477466D01*
X142544829Y-92470990D01*
X142545500Y-92450750D01*
X142545500Y-86262691D01*
X142559852Y-86228043D01*
X142593478Y-86213702D01*
X143044378Y-86204308D01*
X143079317Y-86217935D01*
X143094387Y-86252276D01*
X143080046Y-86287945D01*
X143054480Y-86313511D01*
X143053250Y-86315268D01*
X143053248Y-86315270D01*
X142929951Y-86491356D01*
X142928725Y-86493107D01*
X142836068Y-86691812D01*
X142835515Y-86693877D01*
X142835514Y-86693879D01*
X142801080Y-86822391D01*
X142779323Y-86903588D01*
X142760214Y-87122000D01*
X142760400Y-87124126D01*
X142775870Y-87300942D01*
X142779323Y-87340412D01*
X142779878Y-87342482D01*
X142779878Y-87342484D01*
X142830065Y-87529786D01*
X142836068Y-87552188D01*
X142928725Y-87750893D01*
X142929951Y-87752643D01*
X142929951Y-87752644D01*
X143002342Y-87856028D01*
X143054480Y-87930489D01*
X143209511Y-88085520D01*
X143211268Y-88086750D01*
X143211270Y-88086752D01*
X143383466Y-88207325D01*
X143389107Y-88211275D01*
X143391041Y-88212177D01*
X143391043Y-88212178D01*
X143470459Y-88249210D01*
X143587812Y-88303932D01*
X143589877Y-88304485D01*
X143589879Y-88304486D01*
X143797516Y-88360122D01*
X143797518Y-88360122D01*
X143799588Y-88360677D01*
X143801715Y-88360863D01*
X143801720Y-88360864D01*
X144015874Y-88379600D01*
X144018000Y-88379786D01*
X144020126Y-88379600D01*
X144234280Y-88360864D01*
X144234285Y-88360863D01*
X144236412Y-88360677D01*
X144238482Y-88360122D01*
X144238484Y-88360122D01*
X144446121Y-88304486D01*
X144446123Y-88304485D01*
X144448188Y-88303932D01*
X144565541Y-88249210D01*
X144644957Y-88212178D01*
X144644959Y-88212177D01*
X144646893Y-88211275D01*
X144652534Y-88207325D01*
X144824730Y-88086752D01*
X144824732Y-88086750D01*
X144826489Y-88085520D01*
X144981520Y-87930489D01*
X145033659Y-87856028D01*
X145106049Y-87752644D01*
X145106049Y-87752643D01*
X145107275Y-87750893D01*
X145177268Y-87600791D01*
X145204917Y-87575455D01*
X145221676Y-87572500D01*
X147240101Y-87572500D01*
X147274749Y-87586852D01*
X147363148Y-87675251D01*
X147377500Y-87709899D01*
X147377500Y-91923689D01*
X147363148Y-91958337D01*
X147352039Y-91966190D01*
X147352193Y-91966449D01*
X147180301Y-92068713D01*
X147180295Y-92068717D01*
X147178371Y-92069862D01*
X147176683Y-92071342D01*
X147176682Y-92071343D01*
X147075504Y-92160074D01*
X147026305Y-92203220D01*
X147024920Y-92204977D01*
X147024917Y-92204980D01*
X146928135Y-92327749D01*
X146901089Y-92362057D01*
X146900043Y-92364045D01*
X146822943Y-92510588D01*
X146806914Y-92541053D01*
X146806247Y-92543201D01*
X146806245Y-92543206D01*
X146754431Y-92710077D01*
X146746937Y-92734213D01*
X146746672Y-92736452D01*
X146724928Y-92920168D01*
X146723164Y-92935069D01*
X146723311Y-92937311D01*
X146736125Y-93132814D01*
X146736392Y-93136894D01*
X146786178Y-93332928D01*
X146870856Y-93516607D01*
X146987588Y-93681780D01*
X146989192Y-93683343D01*
X146989195Y-93683346D01*
X147011047Y-93704633D01*
X147132466Y-93822913D01*
X147300637Y-93935282D01*
X147486470Y-94015122D01*
X147545374Y-94028451D01*
X147681550Y-94059265D01*
X147681556Y-94059266D01*
X147683740Y-94059760D01*
X147768535Y-94063091D01*
X147883595Y-94067612D01*
X147883598Y-94067612D01*
X147885842Y-94067700D01*
X147888061Y-94067378D01*
X147888066Y-94067378D01*
X148004298Y-94050525D01*
X148086007Y-94038678D01*
X148088129Y-94037958D01*
X148088132Y-94037957D01*
X148251716Y-93982427D01*
X148277531Y-93973664D01*
X148374597Y-93919305D01*
X148452039Y-93875936D01*
X148452041Y-93875935D01*
X148454001Y-93874837D01*
X148516433Y-93822913D01*
X148607782Y-93746938D01*
X148609505Y-93745505D01*
X148662505Y-93681780D01*
X148737401Y-93591728D01*
X148737403Y-93591726D01*
X148738837Y-93590001D01*
X148752063Y-93566385D01*
X148836568Y-93415488D01*
X148837664Y-93413531D01*
X148890116Y-93259014D01*
X148901957Y-93224132D01*
X148901958Y-93224129D01*
X148902678Y-93222007D01*
X148921218Y-93094135D01*
X148931493Y-93023272D01*
X148931493Y-93023266D01*
X148931700Y-93021842D01*
X148933215Y-92964000D01*
X148932817Y-92959662D01*
X148924318Y-92867178D01*
X148914708Y-92762591D01*
X148859807Y-92567926D01*
X148847617Y-92543206D01*
X148803461Y-92453668D01*
X148770351Y-92386527D01*
X148649335Y-92224467D01*
X148647681Y-92222938D01*
X148502463Y-92088700D01*
X148502462Y-92088699D01*
X148500812Y-92087174D01*
X148475722Y-92071343D01*
X148456979Y-92059517D01*
X148329757Y-91979246D01*
X148309343Y-91971102D01*
X148282480Y-91944933D01*
X148278500Y-91925590D01*
X148278500Y-87532672D01*
X148278840Y-87526913D01*
X148279057Y-87525080D01*
X148283364Y-87488689D01*
X148282706Y-87485086D01*
X148272604Y-87429775D01*
X148272352Y-87428256D01*
X148263994Y-87372664D01*
X148263449Y-87369038D01*
X148261863Y-87365735D01*
X148260839Y-87362407D01*
X148259683Y-87359031D01*
X148259025Y-87355427D01*
X148231425Y-87302293D01*
X148230750Y-87300942D01*
X148206395Y-87250223D01*
X148206394Y-87250221D01*
X148204809Y-87246921D01*
X148202323Y-87244232D01*
X148200264Y-87241202D01*
X148200546Y-87241010D01*
X148199709Y-87239819D01*
X148199429Y-87240008D01*
X148197866Y-87237688D01*
X148196579Y-87235211D01*
X148192275Y-87230172D01*
X148153967Y-87191864D01*
X148152633Y-87190477D01*
X148115342Y-87150135D01*
X148115340Y-87150134D01*
X148112854Y-87147444D01*
X148109687Y-87145605D01*
X148106827Y-87143313D01*
X148106857Y-87143276D01*
X148100446Y-87138343D01*
X147786538Y-86824435D01*
X147782706Y-86820123D01*
X147758872Y-86789890D01*
X147755858Y-86787807D01*
X147755856Y-86787805D01*
X147709607Y-86755840D01*
X147708354Y-86754945D01*
X147663131Y-86721543D01*
X147660184Y-86719366D01*
X147656729Y-86718153D01*
X147653628Y-86716511D01*
X147650441Y-86714950D01*
X147647431Y-86712869D01*
X147643940Y-86711765D01*
X147643938Y-86711764D01*
X147590333Y-86694811D01*
X147588915Y-86694338D01*
X147532369Y-86674481D01*
X147528709Y-86674337D01*
X147525110Y-86673651D01*
X147525175Y-86673312D01*
X147523740Y-86673062D01*
X147523675Y-86673397D01*
X147520935Y-86672863D01*
X147518270Y-86672020D01*
X147511663Y-86671500D01*
X147457463Y-86671500D01*
X147455539Y-86671462D01*
X147454218Y-86671410D01*
X147397006Y-86669162D01*
X147393463Y-86670102D01*
X147389826Y-86670503D01*
X147389821Y-86670456D01*
X147381804Y-86671500D01*
X145221676Y-86671500D01*
X145187028Y-86657148D01*
X145177267Y-86643208D01*
X145143723Y-86571270D01*
X145107275Y-86493107D01*
X145106049Y-86491356D01*
X144982752Y-86315270D01*
X144982750Y-86315268D01*
X144981520Y-86313511D01*
X144900599Y-86232590D01*
X144886247Y-86197942D01*
X144900599Y-86163294D01*
X144926676Y-86149698D01*
X144995350Y-86137497D01*
X144995377Y-86137491D01*
X144996312Y-86137325D01*
X144997230Y-86137087D01*
X144997236Y-86137086D01*
X145041204Y-86125702D01*
X145041206Y-86125701D01*
X145042119Y-86125465D01*
X145056428Y-86120550D01*
X145099832Y-86101771D01*
X145158734Y-86070669D01*
X145221949Y-86037289D01*
X145222805Y-86036837D01*
X145241766Y-86024862D01*
X145261984Y-86012093D01*
X145261987Y-86012091D01*
X145262796Y-86011580D01*
X145274920Y-86002538D01*
X145310540Y-85971403D01*
X145407849Y-85872045D01*
X145438227Y-85835795D01*
X145447014Y-85823487D01*
X145471440Y-85782968D01*
X145533800Y-85658665D01*
X145534151Y-85657805D01*
X145534156Y-85657794D01*
X145551317Y-85615745D01*
X145551672Y-85614876D01*
X145556286Y-85600473D01*
X145566140Y-85558861D01*
X145566971Y-85555350D01*
X145566972Y-85555347D01*
X145567188Y-85554433D01*
X145589251Y-85413226D01*
X145591997Y-85389702D01*
X145592584Y-85382138D01*
X145592604Y-85381630D01*
X145593481Y-85359002D01*
X145593481Y-85358981D01*
X145593500Y-85358501D01*
X145593500Y-83878713D01*
X145592891Y-83860087D01*
X145592861Y-83859167D01*
X145592861Y-83859159D01*
X145592847Y-83858743D01*
X145592428Y-83852347D01*
X145590468Y-83832442D01*
X145574692Y-83712609D01*
X145566892Y-83673404D01*
X145563581Y-83661049D01*
X145550740Y-83623220D01*
X145542190Y-83602577D01*
X145506043Y-83515311D01*
X145506043Y-83515310D01*
X145505729Y-83514553D01*
X145488059Y-83478720D01*
X145481663Y-83467641D01*
X145459455Y-83434404D01*
X145444907Y-83415444D01*
X145388329Y-83341712D01*
X145388324Y-83341706D01*
X145387846Y-83341083D01*
X145387314Y-83340476D01*
X145371326Y-83322245D01*
X145359271Y-83286733D01*
X145375858Y-83253097D01*
X145406146Y-83240979D01*
X145443929Y-83239420D01*
X145705442Y-83228630D01*
X145707624Y-83228588D01*
X148366934Y-83237393D01*
X150140663Y-83243266D01*
X150175263Y-83257733D01*
X150189500Y-83292266D01*
X150189500Y-85444530D01*
X150190200Y-85465194D01*
X150191106Y-85478558D01*
X150193202Y-85499133D01*
X150208697Y-85612871D01*
X150208863Y-85613677D01*
X150216867Y-85652541D01*
X150216871Y-85652555D01*
X150217036Y-85653359D01*
X150224186Y-85679112D01*
X150237909Y-85718093D01*
X150280585Y-85817313D01*
X150280958Y-85818041D01*
X150280964Y-85818053D01*
X150283751Y-85823487D01*
X150299446Y-85854088D01*
X150313224Y-85876991D01*
X150336882Y-85910892D01*
X150404551Y-85995087D01*
X150405099Y-85995681D01*
X150405108Y-85995692D01*
X150411543Y-86002673D01*
X150432562Y-86025476D01*
X150451961Y-86043855D01*
X150483825Y-86070190D01*
X150484492Y-86070669D01*
X150561094Y-86125702D01*
X150571547Y-86133212D01*
X150572239Y-86133641D01*
X150572246Y-86133646D01*
X150592195Y-86146023D01*
X150606667Y-86155001D01*
X150630276Y-86167521D01*
X150668015Y-86184370D01*
X150668799Y-86184658D01*
X150695233Y-86194374D01*
X150722803Y-86219798D01*
X150724321Y-86257270D01*
X150712977Y-86275014D01*
X150674480Y-86313511D01*
X150673250Y-86315268D01*
X150673248Y-86315270D01*
X150549951Y-86491356D01*
X150548725Y-86493107D01*
X150456068Y-86691812D01*
X150455515Y-86693877D01*
X150455514Y-86693879D01*
X150421080Y-86822391D01*
X150399323Y-86903588D01*
X150380214Y-87122000D01*
X150380400Y-87124126D01*
X150395870Y-87300942D01*
X150399323Y-87340412D01*
X150399878Y-87342482D01*
X150399878Y-87342484D01*
X150450065Y-87529786D01*
X150456068Y-87552188D01*
X150548725Y-87750893D01*
X150549951Y-87752643D01*
X150549951Y-87752644D01*
X150622342Y-87856028D01*
X150674480Y-87930489D01*
X150829511Y-88085520D01*
X150831268Y-88086750D01*
X150831270Y-88086752D01*
X151003466Y-88207325D01*
X151009107Y-88211275D01*
X151011041Y-88212177D01*
X151011043Y-88212178D01*
X151090459Y-88249210D01*
X151207812Y-88303932D01*
X151209877Y-88304485D01*
X151209879Y-88304486D01*
X151359849Y-88344670D01*
X151389602Y-88367500D01*
X151394497Y-88404682D01*
X151371667Y-88434435D01*
X151359849Y-88439330D01*
X151209879Y-88479514D01*
X151209877Y-88479515D01*
X151207812Y-88480068D01*
X151171990Y-88496772D01*
X151011043Y-88571822D01*
X151011041Y-88571823D01*
X151009107Y-88572725D01*
X151007357Y-88573951D01*
X151007356Y-88573951D01*
X150844588Y-88687923D01*
X150829511Y-88698480D01*
X150674480Y-88853511D01*
X150673250Y-88855268D01*
X150673248Y-88855270D01*
X150621123Y-88929712D01*
X150548725Y-89033107D01*
X150456068Y-89231812D01*
X150455515Y-89233877D01*
X150455514Y-89233879D01*
X150421688Y-89360122D01*
X150399323Y-89443588D01*
X150399137Y-89445715D01*
X150399136Y-89445720D01*
X150397262Y-89467140D01*
X150380214Y-89662000D01*
X150399323Y-89880412D01*
X150399878Y-89882482D01*
X150399878Y-89882484D01*
X150430623Y-89997226D01*
X150456068Y-90092188D01*
X150468880Y-90119663D01*
X150540808Y-90273914D01*
X150548725Y-90290893D01*
X150549951Y-90292643D01*
X150549951Y-90292644D01*
X150650753Y-90436603D01*
X150674480Y-90470489D01*
X150829511Y-90625520D01*
X151009107Y-90751275D01*
X151011041Y-90752177D01*
X151011043Y-90752178D01*
X151096235Y-90791903D01*
X151207812Y-90843932D01*
X151209877Y-90844485D01*
X151209879Y-90844486D01*
X151417516Y-90900122D01*
X151417518Y-90900122D01*
X151419588Y-90900677D01*
X151421715Y-90900863D01*
X151421720Y-90900864D01*
X151635874Y-90919600D01*
X151638000Y-90919786D01*
X151640126Y-90919600D01*
X151854280Y-90900864D01*
X151854285Y-90900863D01*
X151856412Y-90900677D01*
X151858482Y-90900122D01*
X151858484Y-90900122D01*
X152066121Y-90844486D01*
X152066123Y-90844485D01*
X152068188Y-90843932D01*
X152179765Y-90791903D01*
X152264957Y-90752178D01*
X152264959Y-90752177D01*
X152266893Y-90751275D01*
X152446489Y-90625520D01*
X152601520Y-90470489D01*
X152625248Y-90436603D01*
X152726049Y-90292644D01*
X152726049Y-90292643D01*
X152727275Y-90290893D01*
X152735193Y-90273914D01*
X152754697Y-90232086D01*
X152797268Y-90140791D01*
X152824917Y-90115455D01*
X152841676Y-90112500D01*
X154205101Y-90112500D01*
X154239749Y-90126852D01*
X154535148Y-90422251D01*
X154549500Y-90456899D01*
X154549500Y-92293101D01*
X154535148Y-92327749D01*
X154327749Y-92535148D01*
X154293101Y-92549500D01*
X153961190Y-92549500D01*
X153926542Y-92535148D01*
X153917243Y-92522172D01*
X153911753Y-92511038D01*
X153850351Y-92386527D01*
X153729335Y-92224467D01*
X153727681Y-92222938D01*
X153582463Y-92088700D01*
X153582462Y-92088699D01*
X153580812Y-92087174D01*
X153555722Y-92071343D01*
X153536979Y-92059517D01*
X153409757Y-91979246D01*
X153388895Y-91970923D01*
X153223984Y-91905130D01*
X153223982Y-91905129D01*
X153221898Y-91904298D01*
X153219697Y-91903860D01*
X153219693Y-91903859D01*
X153025730Y-91865277D01*
X153025726Y-91865277D01*
X153023526Y-91864839D01*
X152930704Y-91863624D01*
X152823534Y-91862221D01*
X152823529Y-91862221D01*
X152821286Y-91862192D01*
X152819069Y-91862573D01*
X152819068Y-91862573D01*
X152805881Y-91864839D01*
X152621949Y-91896444D01*
X152619845Y-91897220D01*
X152619842Y-91897221D01*
X152434301Y-91965671D01*
X152434298Y-91965672D01*
X152432193Y-91966449D01*
X152430265Y-91967596D01*
X152430263Y-91967597D01*
X152260301Y-92068713D01*
X152260295Y-92068717D01*
X152258371Y-92069862D01*
X152256683Y-92071342D01*
X152256682Y-92071343D01*
X152155504Y-92160074D01*
X152106305Y-92203220D01*
X152104920Y-92204977D01*
X152104917Y-92204980D01*
X152008135Y-92327749D01*
X151981089Y-92362057D01*
X151980043Y-92364045D01*
X151902943Y-92510588D01*
X151886914Y-92541053D01*
X151886247Y-92543201D01*
X151886245Y-92543206D01*
X151834431Y-92710077D01*
X151826937Y-92734213D01*
X151826672Y-92736452D01*
X151804928Y-92920168D01*
X151803164Y-92935069D01*
X151803311Y-92937311D01*
X151816125Y-93132814D01*
X151816392Y-93136894D01*
X151866178Y-93332928D01*
X151950856Y-93516607D01*
X152067588Y-93681780D01*
X152069192Y-93683343D01*
X152069195Y-93683346D01*
X152091047Y-93704633D01*
X152212466Y-93822913D01*
X152380637Y-93935282D01*
X152427844Y-93955564D01*
X152454012Y-93982427D01*
X152457500Y-94000584D01*
X152457500Y-95220327D01*
X152457160Y-95226085D01*
X152452636Y-95264310D01*
X152463401Y-95323253D01*
X152463647Y-95324736D01*
X152471188Y-95374894D01*
X152472551Y-95383962D01*
X152474136Y-95387263D01*
X152474456Y-95388302D01*
X152474328Y-95417525D01*
X152432628Y-95548978D01*
X152410757Y-95743963D01*
X152410957Y-95746345D01*
X152410957Y-95746349D01*
X152418966Y-95841723D01*
X152427175Y-95939483D01*
X152481258Y-96128091D01*
X152482352Y-96130220D01*
X152482353Y-96130222D01*
X152563981Y-96289052D01*
X152570944Y-96302601D01*
X152572430Y-96304476D01*
X152572432Y-96304479D01*
X152678472Y-96438269D01*
X152692818Y-96456369D01*
X152694644Y-96457923D01*
X152694645Y-96457924D01*
X152837449Y-96579459D01*
X152842238Y-96583535D01*
X152905721Y-96619014D01*
X152928964Y-96648444D01*
X152924588Y-96685691D01*
X152916463Y-96696434D01*
X151702435Y-97910462D01*
X151698123Y-97914294D01*
X151667890Y-97938128D01*
X151665807Y-97941142D01*
X151665805Y-97941144D01*
X151633840Y-97987393D01*
X151632945Y-97988646D01*
X151597366Y-98036816D01*
X151596153Y-98040271D01*
X151594511Y-98043372D01*
X151592950Y-98046559D01*
X151590869Y-98049569D01*
X151589765Y-98053060D01*
X151589764Y-98053062D01*
X151572811Y-98106667D01*
X151572338Y-98108085D01*
X151552481Y-98164631D01*
X151552337Y-98168291D01*
X151551651Y-98171890D01*
X151551312Y-98171825D01*
X151551062Y-98173260D01*
X151551397Y-98173325D01*
X151550863Y-98176065D01*
X151550020Y-98178730D01*
X151549500Y-98185337D01*
X151549500Y-98239537D01*
X151549462Y-98241461D01*
X151547162Y-98299994D01*
X151548102Y-98303537D01*
X151548503Y-98307174D01*
X151548456Y-98307179D01*
X151549500Y-98315196D01*
X151549500Y-101539100D01*
X151535148Y-101573748D01*
X150702200Y-102406696D01*
X150667552Y-102421048D01*
X150653063Y-102418857D01*
X150572439Y-102393901D01*
X150572440Y-102393901D01*
X150570152Y-102393193D01*
X150567775Y-102392943D01*
X150567774Y-102392943D01*
X150377402Y-102372933D01*
X150377397Y-102372933D01*
X150375019Y-102372683D01*
X150372634Y-102372900D01*
X150372629Y-102372900D01*
X150277318Y-102381575D01*
X150179618Y-102390466D01*
X150075710Y-102421048D01*
X149993696Y-102445186D01*
X149993694Y-102445187D01*
X149991393Y-102445864D01*
X149989267Y-102446975D01*
X149989268Y-102446975D01*
X149938066Y-102473743D01*
X149817512Y-102536767D01*
X149664600Y-102659711D01*
X149663057Y-102661550D01*
X149540020Y-102808180D01*
X149540017Y-102808184D01*
X149538480Y-102810016D01*
X149443956Y-102981954D01*
X149384628Y-103168978D01*
X149362757Y-103363963D01*
X149362957Y-103366345D01*
X149362957Y-103366349D01*
X149370966Y-103461723D01*
X149379175Y-103559483D01*
X149433258Y-103748091D01*
X149434352Y-103750220D01*
X149434353Y-103750222D01*
X149506682Y-103890958D01*
X149522944Y-103922601D01*
X149644818Y-104076369D01*
X149646644Y-104077923D01*
X149646645Y-104077924D01*
X149753702Y-104169036D01*
X149794238Y-104203535D01*
X149965513Y-104299257D01*
X150011583Y-104314226D01*
X150149836Y-104359148D01*
X150149840Y-104359149D01*
X150152118Y-104359889D01*
X150346946Y-104383121D01*
X150542576Y-104368068D01*
X150731556Y-104315303D01*
X150733685Y-104314228D01*
X150733689Y-104314226D01*
X150823230Y-104268995D01*
X150906689Y-104226837D01*
X151061303Y-104106040D01*
X151085572Y-104077924D01*
X151187938Y-103959332D01*
X151187942Y-103959327D01*
X151189509Y-103957511D01*
X151286425Y-103786909D01*
X151348358Y-103600732D01*
X151372949Y-103406071D01*
X151373341Y-103378000D01*
X151366282Y-103306013D01*
X151354428Y-103185110D01*
X151354427Y-103185106D01*
X151354194Y-103182728D01*
X151326999Y-103092654D01*
X151330724Y-103055336D01*
X151339260Y-103043843D01*
X152297565Y-102085538D01*
X152301877Y-102081706D01*
X152329234Y-102060139D01*
X152332110Y-102057872D01*
X152366154Y-102008615D01*
X152367030Y-102007389D01*
X152402635Y-101959183D01*
X152403848Y-101955728D01*
X152405477Y-101952652D01*
X152407049Y-101949444D01*
X152409131Y-101946431D01*
X152427178Y-101889368D01*
X152427665Y-101887909D01*
X152446306Y-101834828D01*
X152446307Y-101834824D01*
X152447520Y-101831369D01*
X152447664Y-101827709D01*
X152448350Y-101824113D01*
X152448692Y-101824178D01*
X152448943Y-101822737D01*
X152448604Y-101822671D01*
X152449136Y-101819938D01*
X152449980Y-101817270D01*
X152450500Y-101810663D01*
X152450500Y-101756488D01*
X152450538Y-101754564D01*
X152452695Y-101699667D01*
X152452839Y-101696006D01*
X152451900Y-101692464D01*
X152451498Y-101688824D01*
X152451545Y-101688819D01*
X152450500Y-101680800D01*
X152450500Y-98456899D01*
X152464852Y-98422251D01*
X153521714Y-97365389D01*
X153543283Y-97354509D01*
X153542840Y-97353070D01*
X153546337Y-97351994D01*
X153549962Y-97351449D01*
X153593333Y-97330623D01*
X153596861Y-97329096D01*
X153638307Y-97313062D01*
X153638308Y-97313061D01*
X153641726Y-97311739D01*
X153651609Y-97303948D01*
X153660733Y-97298258D01*
X153668775Y-97294396D01*
X153668777Y-97294394D01*
X153672079Y-97292809D01*
X153674767Y-97290325D01*
X153674769Y-97290323D01*
X153707410Y-97260150D01*
X153710335Y-97257652D01*
X153745229Y-97230143D01*
X153748110Y-97227872D01*
X153755264Y-97217520D01*
X153762309Y-97209401D01*
X153771556Y-97200854D01*
X153773396Y-97197686D01*
X153773400Y-97197681D01*
X153795727Y-97159240D01*
X153797775Y-97156013D01*
X153825131Y-97116431D01*
X153826235Y-97112942D01*
X153826236Y-97112939D01*
X153828926Y-97104433D01*
X153833273Y-97094601D01*
X153837758Y-97086879D01*
X153837760Y-97086875D01*
X153839596Y-97083713D01*
X153840421Y-97080153D01*
X153840424Y-97080146D01*
X153850462Y-97036839D01*
X153851477Y-97033129D01*
X153865138Y-96989933D01*
X153865138Y-96989931D01*
X153865980Y-96987270D01*
X153866500Y-96980663D01*
X153866500Y-96973245D01*
X153867766Y-96962180D01*
X153870185Y-96951745D01*
X153866622Y-96901425D01*
X153866500Y-96897964D01*
X153866500Y-96681529D01*
X153880852Y-96646881D01*
X153893405Y-96637793D01*
X153954689Y-96606837D01*
X154099972Y-96493330D01*
X154107414Y-96487516D01*
X154107415Y-96487515D01*
X154109303Y-96486040D01*
X154110871Y-96484224D01*
X154235938Y-96339332D01*
X154235942Y-96339327D01*
X154237509Y-96337511D01*
X154334425Y-96166909D01*
X154354203Y-96107456D01*
X154388718Y-96003698D01*
X154396358Y-95980732D01*
X154420949Y-95786071D01*
X154421341Y-95758000D01*
X154402194Y-95562728D01*
X154353660Y-95401974D01*
X154346178Y-95377191D01*
X154346176Y-95377186D01*
X154345484Y-95374894D01*
X154253370Y-95201653D01*
X154129361Y-95049602D01*
X153978180Y-94924535D01*
X153805585Y-94831213D01*
X153618152Y-94773193D01*
X153615775Y-94772943D01*
X153615774Y-94772943D01*
X153425402Y-94752933D01*
X153425397Y-94752933D01*
X153423019Y-94752683D01*
X153420634Y-94752900D01*
X153420628Y-94752900D01*
X153411940Y-94753691D01*
X153376134Y-94742538D01*
X153358702Y-94709333D01*
X153358500Y-94704893D01*
X153358500Y-94001840D01*
X153372852Y-93967192D01*
X153383558Y-93959088D01*
X153532039Y-93875936D01*
X153532041Y-93875935D01*
X153534001Y-93874837D01*
X153596433Y-93822913D01*
X153687782Y-93746938D01*
X153689505Y-93745505D01*
X153742505Y-93681780D01*
X153817401Y-93591728D01*
X153817403Y-93591726D01*
X153818837Y-93590001D01*
X153826967Y-93575485D01*
X153882928Y-93475558D01*
X153912379Y-93452340D01*
X153925680Y-93450500D01*
X154470327Y-93450500D01*
X154476085Y-93450840D01*
X154514310Y-93455364D01*
X154573253Y-93444599D01*
X154574708Y-93444358D01*
X154633962Y-93435449D01*
X154637264Y-93433863D01*
X154640574Y-93432845D01*
X154643966Y-93431684D01*
X154647573Y-93431025D01*
X154700701Y-93403427D01*
X154702051Y-93402753D01*
X154722383Y-93392990D01*
X154752777Y-93378395D01*
X154752779Y-93378394D01*
X154756079Y-93376809D01*
X154758768Y-93374323D01*
X154761798Y-93372264D01*
X154761994Y-93372553D01*
X154763187Y-93371714D01*
X154762994Y-93371427D01*
X154765312Y-93369865D01*
X154767788Y-93368579D01*
X154769910Y-93366767D01*
X154772105Y-93364893D01*
X154772113Y-93364885D01*
X154772828Y-93364275D01*
X154811136Y-93325967D01*
X154812523Y-93324633D01*
X154852865Y-93287342D01*
X154852866Y-93287340D01*
X154855556Y-93284854D01*
X154857395Y-93281687D01*
X154859687Y-93278827D01*
X154859724Y-93278857D01*
X154864657Y-93272446D01*
X155297565Y-92839538D01*
X155301877Y-92835706D01*
X155329234Y-92814139D01*
X155332110Y-92811872D01*
X155357131Y-92775670D01*
X155366154Y-92762615D01*
X155367030Y-92761389D01*
X155402635Y-92713183D01*
X155403848Y-92709728D01*
X155405477Y-92706652D01*
X155407049Y-92703444D01*
X155409131Y-92700431D01*
X155426538Y-92645393D01*
X155427178Y-92643368D01*
X155427665Y-92641909D01*
X155446306Y-92588828D01*
X155446307Y-92588824D01*
X155447520Y-92585369D01*
X155447664Y-92581709D01*
X155448350Y-92578113D01*
X155448692Y-92578178D01*
X155448943Y-92576737D01*
X155448604Y-92576671D01*
X155449136Y-92573938D01*
X155449980Y-92571270D01*
X155450500Y-92564663D01*
X155450500Y-92510474D01*
X155450538Y-92508550D01*
X155452694Y-92453668D01*
X155452838Y-92450006D01*
X155451898Y-92446463D01*
X155451497Y-92442826D01*
X155451544Y-92442821D01*
X155450500Y-92434804D01*
X155450500Y-90279673D01*
X155450840Y-90273914D01*
X155454933Y-90239329D01*
X155455364Y-90235690D01*
X155454706Y-90232086D01*
X155444604Y-90176768D01*
X155444352Y-90175251D01*
X155435994Y-90119663D01*
X155435449Y-90116038D01*
X155433862Y-90112734D01*
X155432819Y-90109342D01*
X155431683Y-90106026D01*
X155431026Y-90102427D01*
X155425708Y-90092188D01*
X155403416Y-90049274D01*
X155402728Y-90047897D01*
X155378396Y-89997226D01*
X155376809Y-89993921D01*
X155374320Y-89991229D01*
X155372262Y-89988201D01*
X155372549Y-89988006D01*
X155371711Y-89986815D01*
X155371427Y-89987006D01*
X155369868Y-89984692D01*
X155368580Y-89982212D01*
X155366689Y-89979997D01*
X155364894Y-89977895D01*
X155364886Y-89977887D01*
X155364276Y-89977172D01*
X155325956Y-89938852D01*
X155324622Y-89937465D01*
X155287339Y-89897132D01*
X155287338Y-89897131D01*
X155284854Y-89894444D01*
X155281687Y-89892605D01*
X155278829Y-89890315D01*
X155278859Y-89890278D01*
X155272452Y-89885348D01*
X154751537Y-89364434D01*
X154747713Y-89360132D01*
X154723872Y-89329890D01*
X154720858Y-89327807D01*
X154720856Y-89327805D01*
X154674607Y-89295840D01*
X154673354Y-89294945D01*
X154655416Y-89281696D01*
X154625184Y-89259366D01*
X154621729Y-89258153D01*
X154618628Y-89256511D01*
X154615441Y-89254950D01*
X154612431Y-89252869D01*
X154608940Y-89251765D01*
X154608938Y-89251764D01*
X154555333Y-89234811D01*
X154553915Y-89234338D01*
X154497369Y-89214481D01*
X154493709Y-89214337D01*
X154490110Y-89213651D01*
X154490175Y-89213312D01*
X154488740Y-89213062D01*
X154488675Y-89213397D01*
X154485935Y-89212863D01*
X154483270Y-89212020D01*
X154476663Y-89211500D01*
X154422463Y-89211500D01*
X154420539Y-89211462D01*
X154414380Y-89211220D01*
X154362006Y-89209162D01*
X154358463Y-89210102D01*
X154354826Y-89210503D01*
X154354821Y-89210456D01*
X154346804Y-89211500D01*
X152841676Y-89211500D01*
X152807028Y-89197148D01*
X152797267Y-89183208D01*
X152728178Y-89035043D01*
X152728177Y-89035041D01*
X152727275Y-89033107D01*
X152654877Y-88929712D01*
X152602752Y-88855270D01*
X152602750Y-88855268D01*
X152601520Y-88853511D01*
X152446489Y-88698480D01*
X152431413Y-88687923D01*
X152268644Y-88573951D01*
X152268643Y-88573951D01*
X152266893Y-88572725D01*
X152264959Y-88571823D01*
X152264957Y-88571822D01*
X152104010Y-88496772D01*
X152068188Y-88480068D01*
X152066123Y-88479515D01*
X152066121Y-88479514D01*
X151916151Y-88439330D01*
X151886398Y-88416500D01*
X151881503Y-88379318D01*
X151904333Y-88349565D01*
X151916151Y-88344670D01*
X152066121Y-88304486D01*
X152066123Y-88304485D01*
X152068188Y-88303932D01*
X152185541Y-88249210D01*
X152264957Y-88212178D01*
X152264959Y-88212177D01*
X152266893Y-88211275D01*
X152272534Y-88207325D01*
X152444730Y-88086752D01*
X152444732Y-88086750D01*
X152446489Y-88085520D01*
X152601520Y-87930489D01*
X152653659Y-87856028D01*
X152726049Y-87752644D01*
X152726049Y-87752643D01*
X152727275Y-87750893D01*
X152797268Y-87600791D01*
X152824917Y-87575455D01*
X152841676Y-87572500D01*
X153348327Y-87572500D01*
X153354085Y-87572840D01*
X153392310Y-87577364D01*
X153451253Y-87566599D01*
X153452708Y-87566358D01*
X153511962Y-87557449D01*
X153515264Y-87555863D01*
X153518574Y-87554845D01*
X153521966Y-87553684D01*
X153525573Y-87553025D01*
X153578701Y-87525427D01*
X153580051Y-87524753D01*
X153600383Y-87514990D01*
X153630777Y-87500395D01*
X153630779Y-87500394D01*
X153634079Y-87498809D01*
X153636768Y-87496323D01*
X153639798Y-87494264D01*
X153639994Y-87494553D01*
X153641187Y-87493714D01*
X153640994Y-87493427D01*
X153643312Y-87491865D01*
X153645788Y-87490579D01*
X153648001Y-87488689D01*
X153650105Y-87486893D01*
X153650113Y-87486885D01*
X153650828Y-87486275D01*
X153689136Y-87447967D01*
X153690523Y-87446633D01*
X153730865Y-87409342D01*
X153730866Y-87409340D01*
X153733556Y-87406854D01*
X153735395Y-87403687D01*
X153737687Y-87400827D01*
X153737724Y-87400857D01*
X153742657Y-87394446D01*
X154297565Y-86839538D01*
X154301877Y-86835706D01*
X154329234Y-86814139D01*
X154332110Y-86811872D01*
X154366162Y-86762604D01*
X154367050Y-86761361D01*
X154400459Y-86716128D01*
X154400459Y-86716127D01*
X154402634Y-86713183D01*
X154403847Y-86709729D01*
X154405482Y-86706641D01*
X154407047Y-86703446D01*
X154409131Y-86700431D01*
X154427180Y-86643360D01*
X154427666Y-86641904D01*
X154446306Y-86588825D01*
X154447520Y-86585369D01*
X154447664Y-86581708D01*
X154448350Y-86578113D01*
X154448692Y-86578178D01*
X154448943Y-86576737D01*
X154448604Y-86576671D01*
X154449136Y-86573938D01*
X154449980Y-86571270D01*
X154450500Y-86564663D01*
X154450500Y-86510474D01*
X154450538Y-86508550D01*
X154452694Y-86453668D01*
X154452838Y-86450006D01*
X154451898Y-86446463D01*
X154451497Y-86442826D01*
X154451544Y-86442821D01*
X154450500Y-86434804D01*
X154450500Y-79529673D01*
X154450840Y-79523914D01*
X154455364Y-79485690D01*
X154453471Y-79475323D01*
X154444604Y-79426768D01*
X154444352Y-79425251D01*
X154435994Y-79369663D01*
X154435449Y-79366038D01*
X154433862Y-79362734D01*
X154432819Y-79359342D01*
X154431683Y-79356026D01*
X154431026Y-79352427D01*
X154421502Y-79334091D01*
X154403707Y-79299834D01*
X154403415Y-79299273D01*
X154402728Y-79297897D01*
X154401749Y-79295857D01*
X154376809Y-79243921D01*
X154374320Y-79241229D01*
X154372262Y-79238201D01*
X154372549Y-79238006D01*
X154371711Y-79236815D01*
X154371427Y-79237006D01*
X154369868Y-79234692D01*
X154368580Y-79232212D01*
X154365646Y-79228776D01*
X154364894Y-79227895D01*
X154364886Y-79227887D01*
X154364276Y-79227172D01*
X154325956Y-79188852D01*
X154324622Y-79187465D01*
X154287339Y-79147132D01*
X154287338Y-79147131D01*
X154284854Y-79144444D01*
X154281687Y-79142605D01*
X154278829Y-79140315D01*
X154278859Y-79140278D01*
X154272452Y-79135348D01*
X153339537Y-78202434D01*
X153335713Y-78198132D01*
X153311872Y-78167890D01*
X153308858Y-78165807D01*
X153308856Y-78165805D01*
X153262607Y-78133840D01*
X153261354Y-78132945D01*
X153216131Y-78099543D01*
X153213184Y-78097366D01*
X153209729Y-78096153D01*
X153206628Y-78094511D01*
X153203441Y-78092950D01*
X153200431Y-78090869D01*
X153196940Y-78089765D01*
X153196938Y-78089764D01*
X153143333Y-78072811D01*
X153141915Y-78072338D01*
X153085369Y-78052481D01*
X153081709Y-78052337D01*
X153078110Y-78051651D01*
X153078175Y-78051312D01*
X153076740Y-78051062D01*
X153076675Y-78051397D01*
X153073935Y-78050863D01*
X153071270Y-78050020D01*
X153064663Y-78049500D01*
X153010463Y-78049500D01*
X153008539Y-78049462D01*
X153000853Y-78049160D01*
X152950006Y-78047162D01*
X152946463Y-78048102D01*
X152942826Y-78048503D01*
X152942821Y-78048456D01*
X152934804Y-78049500D01*
X134529672Y-78049500D01*
X134523913Y-78049160D01*
X134485689Y-78044636D01*
X134482086Y-78045294D01*
X134426775Y-78055396D01*
X134425256Y-78055648D01*
X134385316Y-78061653D01*
X134366038Y-78064551D01*
X134362735Y-78066137D01*
X134359407Y-78067161D01*
X134356031Y-78068317D01*
X134352427Y-78068975D01*
X134299293Y-78096575D01*
X134297942Y-78097250D01*
X134247223Y-78121605D01*
X134247221Y-78121606D01*
X134243921Y-78123191D01*
X134241232Y-78125677D01*
X134238202Y-78127736D01*
X134238010Y-78127454D01*
X134236819Y-78128291D01*
X134237008Y-78128571D01*
X134234688Y-78130134D01*
X134232211Y-78131421D01*
X134227172Y-78135725D01*
X134188864Y-78174033D01*
X134187477Y-78175367D01*
X134147135Y-78212658D01*
X134147134Y-78212660D01*
X134144444Y-78215146D01*
X134142605Y-78218313D01*
X134140313Y-78221173D01*
X134140276Y-78221143D01*
X134135343Y-78227554D01*
X133306435Y-79056462D01*
X133302123Y-79060294D01*
X133271890Y-79084128D01*
X133269807Y-79087142D01*
X133269805Y-79087144D01*
X133237840Y-79133393D01*
X133236945Y-79134646D01*
X133233092Y-79139863D01*
X133201366Y-79182816D01*
X133200153Y-79186271D01*
X133198511Y-79189372D01*
X133196950Y-79192559D01*
X133194869Y-79195569D01*
X133193765Y-79199060D01*
X133193764Y-79199062D01*
X133185316Y-79225775D01*
X133161185Y-79254483D01*
X133138597Y-79260000D01*
X132036985Y-79260000D01*
X132036559Y-79260015D01*
X132036535Y-79260015D01*
X132023299Y-79260469D01*
X132016064Y-79260717D01*
X132002530Y-79261646D01*
X131981686Y-79263797D01*
X131908731Y-79273865D01*
X131867355Y-79279575D01*
X131867350Y-79279576D01*
X131866523Y-79279690D01*
X131865711Y-79279859D01*
X131865702Y-79279861D01*
X131841016Y-79285013D01*
X131825545Y-79288241D01*
X131799493Y-79295571D01*
X131760063Y-79309645D01*
X131704036Y-79334091D01*
X131662012Y-79352427D01*
X131653518Y-79356133D01*
X131653152Y-79356308D01*
X131634944Y-79365006D01*
X131634919Y-79365018D01*
X131634627Y-79365158D01*
X131622594Y-79371422D01*
X131604355Y-79381726D01*
X130742586Y-79908362D01*
X130672306Y-79951311D01*
X130646755Y-79958500D01*
X124757643Y-79958500D01*
X124745759Y-79957037D01*
X124040458Y-79780712D01*
X122818760Y-79475288D01*
X122817561Y-79475008D01*
X122809817Y-79473197D01*
X122809776Y-79473188D01*
X122809640Y-79473156D01*
X122809457Y-79473116D01*
X122809434Y-79473111D01*
X122803945Y-79471916D01*
X122803904Y-79471907D01*
X122803718Y-79471867D01*
X122799189Y-79470954D01*
X122794804Y-79470069D01*
X122794758Y-79470060D01*
X122794564Y-79470021D01*
X122743323Y-79460498D01*
X122742969Y-79460443D01*
X122742961Y-79460442D01*
X122734645Y-79459159D01*
X122724830Y-79457644D01*
X122724515Y-79457605D01*
X122724499Y-79457603D01*
X122719577Y-79456997D01*
X122712800Y-79456163D01*
X122694169Y-79454447D01*
X122685656Y-79453925D01*
X122642397Y-79451272D01*
X122642347Y-79451269D01*
X122642177Y-79451259D01*
X122634797Y-79450919D01*
X122633030Y-79450838D01*
X122633016Y-79450837D01*
X122632854Y-79450830D01*
X122632714Y-79450826D01*
X122632696Y-79450825D01*
X122626926Y-79450648D01*
X122626924Y-79450648D01*
X122626795Y-79450644D01*
X122622620Y-79450580D01*
X122617571Y-79450502D01*
X122617535Y-79450502D01*
X122617421Y-79450500D01*
X113790488Y-79450500D01*
X113780161Y-79450838D01*
X113770925Y-79451140D01*
X113770908Y-79451141D01*
X113770506Y-79451154D01*
X113770081Y-79451182D01*
X113770078Y-79451182D01*
X113757963Y-79451976D01*
X113757954Y-79451977D01*
X113757584Y-79452001D01*
X113737690Y-79453961D01*
X113709336Y-79457694D01*
X113628423Y-79468346D01*
X113628408Y-79468349D01*
X113627637Y-79468450D01*
X113626866Y-79468603D01*
X113626862Y-79468604D01*
X113619738Y-79470021D01*
X113588445Y-79476245D01*
X113587674Y-79476452D01*
X113587668Y-79476453D01*
X113570442Y-79481069D01*
X113563481Y-79482934D01*
X113562713Y-79483195D01*
X113562712Y-79483195D01*
X113526412Y-79495517D01*
X113526396Y-79495523D01*
X113525639Y-79495780D01*
X113429133Y-79535754D01*
X113428426Y-79536103D01*
X113428423Y-79536104D01*
X113421731Y-79539404D01*
X113393295Y-79553427D01*
X113370913Y-79566349D01*
X113337683Y-79588552D01*
X113254809Y-79652144D01*
X113224766Y-79678492D01*
X113206492Y-79696766D01*
X113205957Y-79697376D01*
X113194331Y-79710633D01*
X113180144Y-79726809D01*
X113116552Y-79809683D01*
X113094349Y-79842913D01*
X113081427Y-79865295D01*
X113063754Y-79901133D01*
X113023780Y-79997639D01*
X113023523Y-79998396D01*
X113023517Y-79998412D01*
X113016587Y-80018828D01*
X113010934Y-80035481D01*
X113004245Y-80060445D01*
X112996450Y-80099637D01*
X112996349Y-80100408D01*
X112996346Y-80100423D01*
X112987691Y-80166166D01*
X112981961Y-80209690D01*
X112980001Y-80229584D01*
X112979154Y-80242506D01*
X112978500Y-80262488D01*
X112978500Y-83440512D01*
X112000000Y-83440512D01*
X112000000Y-77502407D01*
X112000236Y-77497604D01*
X112018742Y-77309713D01*
X112020616Y-77300292D01*
X112074720Y-77121934D01*
X112078396Y-77113060D01*
X112166254Y-76948689D01*
X112171590Y-76940702D01*
X112289831Y-76796624D01*
X112296624Y-76789831D01*
X112440702Y-76671590D01*
X112448689Y-76666254D01*
X112613060Y-76578396D01*
X112621934Y-76574720D01*
X112800292Y-76520616D01*
X112809713Y-76518742D01*
X112997604Y-76500236D01*
X113002407Y-76500000D01*
X154997593Y-76500000D01*
X155002396Y-76500236D01*
G37*
%TD.AperFunction*%
%TD*%
%TA.AperFunction,Conductor*%
%TO.N,Net-(D1-Pad1)*%
G36*
X144791182Y-83375919D02*
G01*
X144911018Y-83391695D01*
X144923370Y-83395006D01*
X145032041Y-83440019D01*
X145043115Y-83446412D01*
X145136438Y-83518022D01*
X145145478Y-83527062D01*
X145217087Y-83620383D01*
X145223483Y-83631462D01*
X145268494Y-83740129D01*
X145271805Y-83752484D01*
X145287581Y-83872317D01*
X145288000Y-83878713D01*
X145288000Y-85358501D01*
X145287413Y-85366065D01*
X145265350Y-85507272D01*
X145260736Y-85521675D01*
X145198376Y-85645978D01*
X145189589Y-85658286D01*
X145092280Y-85757644D01*
X145080156Y-85766686D01*
X144957183Y-85831620D01*
X144942874Y-85836535D01*
X144802155Y-85861535D01*
X144794605Y-85862279D01*
X144511200Y-85868184D01*
X144152149Y-85875664D01*
X144146874Y-85875489D01*
X144018000Y-85864214D01*
X144015874Y-85864400D01*
X143805915Y-85882769D01*
X143802665Y-85882944D01*
X142731489Y-85905260D01*
X142731484Y-85905260D01*
X142729586Y-85905300D01*
X142729584Y-85905300D01*
X142240000Y-85915500D01*
X142240000Y-92450750D01*
X142239570Y-92457226D01*
X142223397Y-92578527D01*
X142220006Y-92591021D01*
X142173883Y-92700830D01*
X142167333Y-92712003D01*
X142094055Y-92805888D01*
X142084806Y-92814955D01*
X141989494Y-92886357D01*
X141978193Y-92892685D01*
X141867495Y-92936623D01*
X141854931Y-92939768D01*
X141818813Y-92943858D01*
X141733321Y-92953538D01*
X141726853Y-92953839D01*
X140301889Y-92925621D01*
X139496053Y-92909664D01*
X139488811Y-92908981D01*
X139353688Y-92886011D01*
X139339903Y-92881489D01*
X139220727Y-92821615D01*
X139208870Y-92813255D01*
X139112448Y-92721108D01*
X139103559Y-92709642D01*
X139038347Y-92593301D01*
X139033205Y-92579734D01*
X139004137Y-92445795D01*
X139003126Y-92438592D01*
X138854455Y-90158976D01*
X138854319Y-90156891D01*
X138842750Y-89979500D01*
X137492828Y-88525569D01*
X137415497Y-88485544D01*
X137415492Y-88485541D01*
X137175915Y-88361542D01*
X136912641Y-88225277D01*
X136907145Y-88221957D01*
X136807559Y-88152486D01*
X136798085Y-88143826D01*
X136722078Y-88053348D01*
X136715176Y-88042513D01*
X136712458Y-88036675D01*
X136665306Y-87935390D01*
X136661459Y-87923137D01*
X136640594Y-87803528D01*
X136639907Y-87797126D01*
X136533341Y-85212903D01*
X136533477Y-85206712D01*
X136543421Y-85090345D01*
X136546018Y-85078261D01*
X136583727Y-84971036D01*
X136589265Y-84959986D01*
X136654350Y-84863006D01*
X136658119Y-84858093D01*
X137135270Y-84311357D01*
X137140199Y-84306460D01*
X137239631Y-84220815D01*
X137251332Y-84213334D01*
X137309460Y-84186911D01*
X137367590Y-84160488D01*
X137380919Y-84156592D01*
X137452375Y-84146362D01*
X137510817Y-84137995D01*
X137517761Y-84137500D01*
X141922500Y-84137500D01*
X142067267Y-84003869D01*
X142067273Y-84003864D01*
X142602113Y-83510165D01*
X142606831Y-83506324D01*
X142700143Y-83439541D01*
X142710818Y-83433751D01*
X142814833Y-83393083D01*
X142826604Y-83390097D01*
X142940465Y-83375878D01*
X142946537Y-83375500D01*
X144784787Y-83375500D01*
X144791182Y-83375919D01*
G37*
%TD.AperFunction*%
%TD*%
M02*
