%TF.GenerationSoftware,KiCad,Pcbnew,(6.0.8)*%
%TF.CreationDate,2022-11-19T23:45:32+04:00*%
%TF.ProjectId,MC34063_Buck_Rev3,4d433334-3036-4335-9f42-75636b5f5265,rev?*%
%TF.SameCoordinates,Original*%
%TF.FileFunction,Copper,L2,Bot*%
%TF.FilePolarity,Positive*%
%FSLAX46Y46*%
G04 Gerber Fmt 4.6, Leading zero omitted, Abs format (unit mm)*
G04 Created by KiCad (PCBNEW (6.0.8)) date 2022-11-19 23:45:32*
%MOMM*%
%LPD*%
G01*
G04 APERTURE LIST*
%TA.AperFunction,ComponentPad*%
%ADD10R,2.000000X2.000000*%
%TD*%
%TA.AperFunction,ComponentPad*%
%ADD11C,2.000000*%
%TD*%
%TA.AperFunction,ComponentPad*%
%ADD12C,1.600000*%
%TD*%
%TA.AperFunction,ComponentPad*%
%ADD13C,1.400000*%
%TD*%
%TA.AperFunction,ComponentPad*%
%ADD14O,1.400000X1.400000*%
%TD*%
%TA.AperFunction,ComponentPad*%
%ADD15C,1.905000*%
%TD*%
%TA.AperFunction,ComponentPad*%
%ADD16C,2.499360*%
%TD*%
%TA.AperFunction,ComponentPad*%
%ADD17R,2.800000X2.800000*%
%TD*%
%TA.AperFunction,ComponentPad*%
%ADD18O,2.800000X2.800000*%
%TD*%
%TA.AperFunction,ComponentPad*%
%ADD19C,2.400000*%
%TD*%
%TA.AperFunction,ComponentPad*%
%ADD20O,2.400000X2.400000*%
%TD*%
%TA.AperFunction,ComponentPad*%
%ADD21C,3.500120*%
%TD*%
%TA.AperFunction,ComponentPad*%
%ADD22R,3.500120X3.500120*%
%TD*%
%TA.AperFunction,Conductor*%
%ADD23C,3.000000*%
%TD*%
%TA.AperFunction,Conductor*%
%ADD24C,0.750000*%
%TD*%
%TA.AperFunction,Conductor*%
%ADD25C,1.000000*%
%TD*%
%TA.AperFunction,Conductor*%
%ADD26C,0.300000*%
%TD*%
%TA.AperFunction,Conductor*%
%ADD27C,0.250000*%
%TD*%
G04 APERTURE END LIST*
D10*
%TO.P,C1,1*%
%TO.N,VCC*%
X165064440Y-57772300D03*
D11*
%TO.P,C1,2*%
%TO.N,GNDREF*%
X165064440Y-52772300D03*
%TD*%
D12*
%TO.P,C2,1*%
%TO.N,Net-(C2-Pad1)*%
X154609800Y-65722500D03*
%TO.P,C2,2*%
%TO.N,GNDREF*%
X157109800Y-65722500D03*
%TD*%
D10*
%TO.P,C3,1*%
%TO.N,Vout1*%
X136382760Y-64566800D03*
D11*
%TO.P,C3,2*%
%TO.N,GNDREF*%
X136382760Y-59566800D03*
%TD*%
D13*
%TO.P,R1,1*%
%TO.N,Net-(R1-Pad1)*%
X161213800Y-62623700D03*
D14*
%TO.P,R1,2*%
%TO.N,GNDREF*%
X168833800Y-62623700D03*
%TD*%
D13*
%TO.P,R3,1*%
%TO.N,Net-(R1-Pad1)*%
X168821100Y-65913000D03*
D14*
%TO.P,R3,2*%
%TO.N,Vout1*%
X161201100Y-65913000D03*
%TD*%
D15*
%TO.P,U1,1*%
%TO.N,Net-(R2-Pad2)*%
X150037800Y-54813200D03*
%TO.P,U1,2*%
%TO.N,Net-(D1-Pad1)*%
X150037800Y-57353200D03*
%TO.P,U1,3*%
%TO.N,Net-(C2-Pad1)*%
X150037800Y-59893200D03*
%TO.P,U1,4*%
%TO.N,GNDREF*%
X150037800Y-62433200D03*
%TO.P,U1,5*%
%TO.N,Net-(R1-Pad1)*%
X157657800Y-62433200D03*
%TO.P,U1,6*%
%TO.N,VCC*%
X157657800Y-59893200D03*
%TO.P,U1,7*%
%TO.N,Net-(R2-Pad2)*%
X157657800Y-57353200D03*
%TO.P,U1,8*%
X157657800Y-54813200D03*
%TD*%
D16*
%TO.P,L1,1*%
%TO.N,Net-(D1-Pad1)*%
X145262600Y-56288940D03*
%TO.P,L1,2*%
%TO.N,Vout1*%
X145262600Y-64289940D03*
%TD*%
D17*
%TO.P,D1,1*%
%TO.N,Net-(D1-Pad1)*%
X143977360Y-51841400D03*
D18*
%TO.P,D1,2*%
%TO.N,GNDREF*%
X138897360Y-51841400D03*
%TD*%
D19*
%TO.P,R2,1*%
%TO.N,VCC*%
X155155900Y-50444400D03*
D20*
%TO.P,R2,2*%
%TO.N,Net-(R2-Pad2)*%
X150075900Y-50444400D03*
%TD*%
D21*
%TO.P,GND,1*%
%TO.N,GNDREF*%
X122364500Y-50609500D03*
%TD*%
D22*
%TO.P,Vout,1*%
%TO.N,N/C*%
X122237500Y-56007000D03*
%TD*%
%TO.P,Vin,1*%
%TO.N,VCC*%
X172971460Y-58138060D03*
%TD*%
D21*
%TO.P,GND,1*%
%TO.N,GNDREF*%
X172971460Y-51183540D03*
%TD*%
D16*
%TO.P,L1,1*%
%TO.N,N/C*%
X126492000Y-58331100D03*
%TO.P,L1,2*%
%TO.N,Vout1*%
X126492000Y-66332100D03*
%TD*%
D10*
%TO.P,C3,1*%
%TO.N,N/C*%
X130962400Y-55575200D03*
D11*
%TO.P,C3,2*%
%TO.N,GNDREF*%
X130962400Y-50575200D03*
%TD*%
D23*
%TO.N,*%
X126492000Y-58331100D02*
X128206500Y-58331100D01*
X128206500Y-58331100D02*
X130962400Y-55575200D01*
X122237500Y-56007000D02*
X130530600Y-56007000D01*
X130530600Y-56007000D02*
X130962400Y-55575200D01*
D24*
%TO.N,VCC*%
X160782000Y-59842400D02*
X160832800Y-59893200D01*
X161874200Y-59893200D02*
X160832800Y-59893200D01*
D25*
X165430200Y-58138060D02*
X165064440Y-57772300D01*
D24*
X160782000Y-58928000D02*
X160909000Y-58928000D01*
X159816800Y-59893200D02*
X157657800Y-59893200D01*
X160832800Y-59893200D02*
X159816800Y-59893200D01*
X159537400Y-50444400D02*
X160782000Y-51689000D01*
D25*
X172971460Y-58138060D02*
X165430200Y-58138060D01*
D24*
X159816800Y-59893200D02*
X160782000Y-58928000D01*
X163626800Y-59893200D02*
X161874200Y-59893200D01*
X160782000Y-51689000D02*
X160782000Y-58928000D01*
X155155900Y-50444400D02*
X159537400Y-50444400D01*
X165064440Y-58455560D02*
X163626800Y-59893200D01*
X160909000Y-58928000D02*
X161874200Y-59893200D01*
X165064440Y-57772300D02*
X165064440Y-58455560D01*
X160782000Y-58928000D02*
X160782000Y-59842400D01*
D26*
%TO.N,Net-(C2-Pad1)*%
X154609800Y-60859800D02*
X154609800Y-65722500D01*
X150037800Y-59893200D02*
X153643200Y-59893200D01*
X153643200Y-59893200D02*
X154609800Y-60859800D01*
%TO.N,Vout1*%
X159864100Y-67250000D02*
X137750000Y-67250000D01*
D27*
X137500000Y-67000000D02*
X136382760Y-65882760D01*
D26*
X136382760Y-65882760D02*
X137750000Y-67250000D01*
D23*
X136659620Y-64289940D02*
X136382760Y-64566800D01*
X145262600Y-64289940D02*
X136659620Y-64289940D01*
X136382760Y-64566800D02*
X128257300Y-64566800D01*
D26*
X136382760Y-64566800D02*
X136382760Y-65882760D01*
X161201100Y-65913000D02*
X159864100Y-67250000D01*
D23*
X128257300Y-64566800D02*
X126492000Y-66332100D01*
D26*
X137750000Y-67250000D02*
X137500000Y-67000000D01*
%TO.N,Net-(R1-Pad1)*%
X167250000Y-64341900D02*
X162932000Y-64341900D01*
X168821100Y-65913000D02*
X167250000Y-64341900D01*
D27*
X157848300Y-62623700D02*
X157657800Y-62433200D01*
D26*
X161023300Y-62433200D02*
X161213800Y-62623700D01*
X157657800Y-62433200D02*
X161023300Y-62433200D01*
X162932000Y-64341900D02*
X161213800Y-62623700D01*
D24*
%TO.N,Net-(R2-Pad2)*%
X150037800Y-54813200D02*
X157657800Y-54813200D01*
X157657800Y-57353200D02*
X157657800Y-54813200D01*
X148590000Y-53365400D02*
X150037800Y-54813200D01*
X148590000Y-51930300D02*
X148590000Y-53365400D01*
X150075900Y-50444400D02*
X148590000Y-51930300D01*
%TD*%
%TA.AperFunction,Conductor*%
%TO.N,GNDREF*%
G36*
X176425500Y-47019962D02*
G01*
X176480038Y-47074500D01*
X176500000Y-47149000D01*
X176500000Y-68351000D01*
X176480038Y-68425500D01*
X176425500Y-68480038D01*
X176351000Y-68500000D01*
X119649000Y-68500000D01*
X119574500Y-68480038D01*
X119519962Y-68425500D01*
X119500000Y-68351000D01*
X119500000Y-66253343D01*
X124688170Y-66253343D01*
X124690265Y-66321909D01*
X124695477Y-66492511D01*
X124696342Y-66520831D01*
X124743962Y-66784174D01*
X124829983Y-67037584D01*
X124952516Y-67275497D01*
X125108869Y-67492684D01*
X125112728Y-67496645D01*
X125112731Y-67496649D01*
X125187390Y-67573288D01*
X125295607Y-67684376D01*
X125300010Y-67687724D01*
X125300011Y-67687725D01*
X125402118Y-67765369D01*
X125508628Y-67846361D01*
X125743251Y-67975080D01*
X125994323Y-68067706D01*
X125999729Y-68068830D01*
X125999731Y-68068831D01*
X126089710Y-68087546D01*
X126256329Y-68122202D01*
X126261854Y-68122516D01*
X126261856Y-68122516D01*
X126517993Y-68137061D01*
X126517998Y-68137061D01*
X126523511Y-68137374D01*
X126529006Y-68136869D01*
X126529012Y-68136869D01*
X126688627Y-68122202D01*
X126790001Y-68112887D01*
X127049945Y-68049279D01*
X127297632Y-67947948D01*
X127527621Y-67811119D01*
X127661748Y-67701533D01*
X127697707Y-67672153D01*
X127697710Y-67672150D01*
X127700616Y-67669776D01*
X128959450Y-66410941D01*
X129026245Y-66372377D01*
X129064809Y-66367300D01*
X136168479Y-66367300D01*
X136242979Y-66387262D01*
X136273838Y-66410941D01*
X137406291Y-67543394D01*
X137417944Y-67556507D01*
X137438128Y-67582110D01*
X137447290Y-67588442D01*
X137447292Y-67588444D01*
X137486090Y-67615259D01*
X137489898Y-67617980D01*
X137504993Y-67629129D01*
X137536816Y-67652634D01*
X137543632Y-67655027D01*
X137549569Y-67659131D01*
X137602566Y-67675892D01*
X137605165Y-67676714D01*
X137609580Y-67678187D01*
X137664631Y-67697519D01*
X137671845Y-67697802D01*
X137678730Y-67699980D01*
X137685337Y-67700500D01*
X137737571Y-67700500D01*
X137743421Y-67700615D01*
X137788866Y-67702401D01*
X137788868Y-67702401D01*
X137799994Y-67702838D01*
X137807378Y-67700880D01*
X137814280Y-67700500D01*
X159828528Y-67700500D01*
X159846041Y-67701533D01*
X159878410Y-67705364D01*
X159889366Y-67703363D01*
X159889369Y-67703363D01*
X159935768Y-67694889D01*
X159940384Y-67694121D01*
X159987043Y-67687106D01*
X159987045Y-67687105D01*
X159998062Y-67685449D01*
X160004575Y-67682321D01*
X160011673Y-67681025D01*
X160063413Y-67654148D01*
X160067565Y-67652074D01*
X160120179Y-67626809D01*
X160125483Y-67621906D01*
X160131888Y-67618579D01*
X160136928Y-67614275D01*
X160173860Y-67577343D01*
X160178078Y-67573288D01*
X160211477Y-67542415D01*
X160211478Y-67542413D01*
X160219656Y-67534854D01*
X160223494Y-67528246D01*
X160228105Y-67523098D01*
X160823363Y-66927840D01*
X160890158Y-66889276D01*
X160967286Y-66889276D01*
X160974730Y-66891481D01*
X160985218Y-66894889D01*
X161111696Y-66909971D01*
X161172815Y-66917259D01*
X161172818Y-66917259D01*
X161180046Y-66918121D01*
X161291543Y-66909542D01*
X161368414Y-66903627D01*
X161368416Y-66903627D01*
X161375676Y-66903068D01*
X161564656Y-66850303D01*
X161571162Y-66847016D01*
X161571166Y-66847015D01*
X161733284Y-66765123D01*
X161733285Y-66765123D01*
X161739789Y-66761837D01*
X161894403Y-66641040D01*
X162022609Y-66492511D01*
X162106522Y-66344799D01*
X162115927Y-66328243D01*
X162115928Y-66328241D01*
X162119525Y-66321909D01*
X162181458Y-66135732D01*
X162187206Y-66090236D01*
X162196508Y-66016595D01*
X162206049Y-65941071D01*
X162206441Y-65913000D01*
X162187294Y-65717728D01*
X162182059Y-65700387D01*
X162132691Y-65536873D01*
X162130584Y-65529894D01*
X162127161Y-65523456D01*
X162041892Y-65363088D01*
X162041890Y-65363085D01*
X162038470Y-65356653D01*
X162033867Y-65351010D01*
X162033865Y-65351006D01*
X161919064Y-65210246D01*
X161914461Y-65204602D01*
X161763280Y-65079535D01*
X161590685Y-64986213D01*
X161432785Y-64937335D01*
X161410211Y-64930347D01*
X161410209Y-64930347D01*
X161403252Y-64928193D01*
X161396010Y-64927432D01*
X161396006Y-64927431D01*
X161215360Y-64908444D01*
X161215359Y-64908444D01*
X161208119Y-64907683D01*
X161012718Y-64925466D01*
X160824493Y-64980864D01*
X160650612Y-65071767D01*
X160497700Y-65194711D01*
X160371580Y-65345016D01*
X160277056Y-65516954D01*
X160217728Y-65703978D01*
X160216915Y-65711222D01*
X160216915Y-65711224D01*
X160197022Y-65888579D01*
X160195857Y-65898963D01*
X160212275Y-66094483D01*
X160226020Y-66142417D01*
X160227366Y-66219531D01*
X160188151Y-66288845D01*
X159721138Y-66755859D01*
X159654343Y-66794423D01*
X159615779Y-66799500D01*
X155448181Y-66799500D01*
X155373681Y-66779538D01*
X155319143Y-66725000D01*
X155299181Y-66650500D01*
X155319143Y-66576000D01*
X155352904Y-66535943D01*
X155386053Y-66508373D01*
X155391305Y-66504005D01*
X155520637Y-66348501D01*
X155619464Y-66172031D01*
X155684478Y-65980507D01*
X155712165Y-65789550D01*
X155712870Y-65784690D01*
X155712871Y-65784683D01*
X155713500Y-65780342D01*
X155715015Y-65722500D01*
X155712675Y-65697028D01*
X155697133Y-65527893D01*
X155696508Y-65521091D01*
X155641607Y-65326426D01*
X155631576Y-65306084D01*
X155555170Y-65151149D01*
X155552151Y-65145027D01*
X155548070Y-65139562D01*
X155548067Y-65139557D01*
X155435223Y-64988441D01*
X155435221Y-64988439D01*
X155431135Y-64982967D01*
X155282612Y-64845674D01*
X155129791Y-64749251D01*
X155077437Y-64692614D01*
X155060300Y-64623238D01*
X155060300Y-60895372D01*
X155061333Y-60877859D01*
X155061357Y-60877656D01*
X155065164Y-60845490D01*
X155063163Y-60834534D01*
X155063163Y-60834529D01*
X155054689Y-60788128D01*
X155053921Y-60783515D01*
X155046905Y-60736854D01*
X155045249Y-60725838D01*
X155042123Y-60719328D01*
X155040826Y-60712227D01*
X155013937Y-60660462D01*
X155011854Y-60656293D01*
X154991431Y-60613763D01*
X154986609Y-60603721D01*
X154981708Y-60598420D01*
X154978380Y-60592012D01*
X154974075Y-60586972D01*
X154937143Y-60550040D01*
X154933088Y-60545822D01*
X154902215Y-60512423D01*
X154902213Y-60512422D01*
X154894654Y-60504244D01*
X154888046Y-60500406D01*
X154882898Y-60495795D01*
X153986909Y-59599806D01*
X153975256Y-59586693D01*
X153961967Y-59569836D01*
X153961966Y-59569836D01*
X153955072Y-59561090D01*
X153945910Y-59554758D01*
X153945908Y-59554756D01*
X153907110Y-59527941D01*
X153903302Y-59525220D01*
X153865343Y-59497183D01*
X153865342Y-59497182D01*
X153856384Y-59490566D01*
X153849568Y-59488173D01*
X153843631Y-59484069D01*
X153788032Y-59466485D01*
X153783620Y-59465013D01*
X153728569Y-59445681D01*
X153721355Y-59445398D01*
X153714470Y-59443220D01*
X153707863Y-59442700D01*
X153655629Y-59442700D01*
X153649779Y-59442585D01*
X153604333Y-59440799D01*
X153604331Y-59440799D01*
X153593206Y-59440362D01*
X153585821Y-59442320D01*
X153578918Y-59442700D01*
X151305184Y-59442700D01*
X151230684Y-59422738D01*
X151176146Y-59368200D01*
X151170144Y-59356670D01*
X151129825Y-59270205D01*
X151129824Y-59270203D01*
X151127075Y-59264307D01*
X151001320Y-59084711D01*
X150863081Y-58946472D01*
X150824517Y-58879677D01*
X150824517Y-58802549D01*
X150863081Y-58735754D01*
X150885790Y-58717138D01*
X151408659Y-58368559D01*
X151408668Y-58368553D01*
X151410208Y-58367526D01*
X151434462Y-58349565D01*
X151435876Y-58348405D01*
X151435892Y-58348393D01*
X151438273Y-58346440D01*
X151438275Y-58346438D01*
X151440024Y-58345004D01*
X151467258Y-58319752D01*
X151528552Y-58225689D01*
X151539243Y-58199880D01*
X151545925Y-58166292D01*
X151550790Y-58141834D01*
X151562500Y-58082965D01*
X151562500Y-56720618D01*
X151547359Y-56644502D01*
X151540671Y-56610880D01*
X151540670Y-56610877D01*
X151539243Y-56603703D01*
X151533506Y-56589852D01*
X151531353Y-56584656D01*
X151528552Y-56577894D01*
X151524489Y-56571813D01*
X151524486Y-56571808D01*
X151466397Y-56484875D01*
X151462330Y-56478788D01*
X150975712Y-55992170D01*
X150919933Y-55954899D01*
X150869081Y-55896912D01*
X150854034Y-55821266D01*
X150878826Y-55748232D01*
X150897356Y-55725653D01*
X151001320Y-55621689D01*
X151049951Y-55552237D01*
X151109035Y-55502660D01*
X151172005Y-55488700D01*
X156523595Y-55488700D01*
X156598095Y-55508662D01*
X156645649Y-55552237D01*
X156694280Y-55621689D01*
X156849311Y-55776720D01*
X156854637Y-55780449D01*
X156918763Y-55825351D01*
X156968340Y-55884435D01*
X156982300Y-55947405D01*
X156982300Y-56218995D01*
X156962338Y-56293495D01*
X156918763Y-56341049D01*
X156849311Y-56389680D01*
X156694280Y-56544711D01*
X156647045Y-56612169D01*
X156572258Y-56718975D01*
X156572256Y-56718979D01*
X156568525Y-56724307D01*
X156475868Y-56923012D01*
X156419123Y-57134788D01*
X156418557Y-57141259D01*
X156418556Y-57141264D01*
X156407900Y-57263060D01*
X156400014Y-57353200D01*
X156419123Y-57571612D01*
X156420804Y-57577886D01*
X156420805Y-57577891D01*
X156474185Y-57777107D01*
X156475868Y-57783388D01*
X156568525Y-57982093D01*
X156572256Y-57987421D01*
X156572258Y-57987425D01*
X156621002Y-58057038D01*
X156694280Y-58161689D01*
X156849311Y-58316720D01*
X156946533Y-58384796D01*
X157023575Y-58438742D01*
X157023579Y-58438744D01*
X157028907Y-58442475D01*
X157065377Y-58459481D01*
X157126879Y-58488160D01*
X157185963Y-58537737D01*
X157212342Y-58610214D01*
X157198949Y-58686170D01*
X157149372Y-58745254D01*
X157126879Y-58758240D01*
X157028907Y-58803925D01*
X157023579Y-58807656D01*
X157023575Y-58807658D01*
X156971103Y-58844400D01*
X156849311Y-58929680D01*
X156694280Y-59084711D01*
X156645649Y-59154163D01*
X156572258Y-59258975D01*
X156572256Y-59258979D01*
X156568525Y-59264307D01*
X156475868Y-59463012D01*
X156474185Y-59469293D01*
X156421555Y-59665713D01*
X156419123Y-59674788D01*
X156418557Y-59681259D01*
X156418556Y-59681264D01*
X156400650Y-59885932D01*
X156400014Y-59893200D01*
X156400581Y-59899681D01*
X156416719Y-60084133D01*
X156419123Y-60111612D01*
X156420804Y-60117886D01*
X156420805Y-60117891D01*
X156439302Y-60186923D01*
X156475868Y-60323388D01*
X156568525Y-60522093D01*
X156572256Y-60527421D01*
X156572258Y-60527425D01*
X156612502Y-60584899D01*
X156694280Y-60701689D01*
X156849311Y-60856720D01*
X156904512Y-60895372D01*
X157023575Y-60978742D01*
X157023579Y-60978744D01*
X157028907Y-60982475D01*
X157072413Y-61002762D01*
X157126879Y-61028160D01*
X157185963Y-61077737D01*
X157212342Y-61150214D01*
X157198949Y-61226170D01*
X157149372Y-61285254D01*
X157126879Y-61298240D01*
X157028907Y-61343925D01*
X157023579Y-61347656D01*
X157023575Y-61347658D01*
X156946533Y-61401604D01*
X156849311Y-61469680D01*
X156694280Y-61624711D01*
X156641296Y-61700380D01*
X156572258Y-61798975D01*
X156572256Y-61798979D01*
X156568525Y-61804307D01*
X156475868Y-62003012D01*
X156419123Y-62214788D01*
X156418557Y-62221259D01*
X156418556Y-62221264D01*
X156401041Y-62421459D01*
X156400014Y-62433200D01*
X156400581Y-62439681D01*
X156416318Y-62619549D01*
X156419123Y-62651612D01*
X156420804Y-62657886D01*
X156420805Y-62657891D01*
X156462573Y-62813772D01*
X156475868Y-62863388D01*
X156568525Y-63062093D01*
X156572256Y-63067421D01*
X156572258Y-63067425D01*
X156584537Y-63084961D01*
X156694280Y-63241689D01*
X156849311Y-63396720D01*
X156946533Y-63464796D01*
X157023575Y-63518742D01*
X157023579Y-63518744D01*
X157028907Y-63522475D01*
X157227612Y-63615132D01*
X157233893Y-63616815D01*
X157433109Y-63670195D01*
X157433114Y-63670196D01*
X157439388Y-63671877D01*
X157445859Y-63672443D01*
X157445864Y-63672444D01*
X157651319Y-63690419D01*
X157657800Y-63690986D01*
X157664281Y-63690419D01*
X157869736Y-63672444D01*
X157869741Y-63672443D01*
X157876212Y-63671877D01*
X157882486Y-63670196D01*
X157882491Y-63670195D01*
X158081707Y-63616815D01*
X158087988Y-63615132D01*
X158286693Y-63522475D01*
X158292021Y-63518744D01*
X158292025Y-63518742D01*
X158369067Y-63464796D01*
X158466289Y-63396720D01*
X158621320Y-63241689D01*
X158747075Y-63062093D01*
X158790144Y-62969730D01*
X158839721Y-62910646D01*
X158912198Y-62884267D01*
X158925184Y-62883700D01*
X160135210Y-62883700D01*
X160209710Y-62903662D01*
X160264248Y-62958200D01*
X160273632Y-62980302D01*
X160274367Y-62980011D01*
X160277049Y-62986785D01*
X160279058Y-62993791D01*
X160368744Y-63168301D01*
X160490618Y-63322069D01*
X160640038Y-63449235D01*
X160646401Y-63452791D01*
X160804949Y-63541401D01*
X160804955Y-63541404D01*
X160811313Y-63544957D01*
X160997918Y-63605589D01*
X161106821Y-63618575D01*
X161185515Y-63627959D01*
X161185518Y-63627959D01*
X161192746Y-63628821D01*
X161388376Y-63613768D01*
X161443970Y-63598246D01*
X161521093Y-63597439D01*
X161589396Y-63636399D01*
X162588291Y-64635294D01*
X162599944Y-64648407D01*
X162620128Y-64674010D01*
X162629291Y-64680343D01*
X162668082Y-64707153D01*
X162671885Y-64709871D01*
X162718817Y-64744535D01*
X162725634Y-64746929D01*
X162731569Y-64751031D01*
X162742187Y-64754389D01*
X162742189Y-64754390D01*
X162787139Y-64768606D01*
X162791536Y-64770072D01*
X162846631Y-64789420D01*
X162853848Y-64789704D01*
X162860730Y-64791880D01*
X162867337Y-64792400D01*
X162919561Y-64792400D01*
X162925410Y-64792515D01*
X162970867Y-64794301D01*
X162970868Y-64794301D01*
X162981994Y-64794738D01*
X162989378Y-64792780D01*
X162996283Y-64792400D01*
X167001679Y-64792400D01*
X167076179Y-64812362D01*
X167107038Y-64836041D01*
X167806721Y-65535724D01*
X167845285Y-65602519D01*
X167843389Y-65686133D01*
X167837728Y-65703978D01*
X167836916Y-65711217D01*
X167836915Y-65711222D01*
X167817022Y-65888579D01*
X167815857Y-65898963D01*
X167832275Y-66094483D01*
X167886358Y-66283091D01*
X167976044Y-66457601D01*
X168097918Y-66611369D01*
X168247338Y-66738535D01*
X168253701Y-66742091D01*
X168412249Y-66830701D01*
X168412255Y-66830704D01*
X168418613Y-66834257D01*
X168605218Y-66894889D01*
X168678497Y-66903627D01*
X168792815Y-66917259D01*
X168792818Y-66917259D01*
X168800046Y-66918121D01*
X168911543Y-66909542D01*
X168988414Y-66903627D01*
X168988416Y-66903627D01*
X168995676Y-66903068D01*
X169184656Y-66850303D01*
X169191162Y-66847016D01*
X169191166Y-66847015D01*
X169353284Y-66765123D01*
X169353285Y-66765123D01*
X169359789Y-66761837D01*
X169514403Y-66641040D01*
X169642609Y-66492511D01*
X169726522Y-66344799D01*
X169735927Y-66328243D01*
X169735928Y-66328241D01*
X169739525Y-66321909D01*
X169801458Y-66135732D01*
X169807206Y-66090236D01*
X169816508Y-66016595D01*
X169826049Y-65941071D01*
X169826441Y-65913000D01*
X169807294Y-65717728D01*
X169802059Y-65700387D01*
X169752691Y-65536873D01*
X169750584Y-65529894D01*
X169747161Y-65523456D01*
X169661892Y-65363088D01*
X169661890Y-65363085D01*
X169658470Y-65356653D01*
X169653867Y-65351010D01*
X169653865Y-65351006D01*
X169539064Y-65210246D01*
X169534461Y-65204602D01*
X169383280Y-65079535D01*
X169210685Y-64986213D01*
X169052785Y-64937335D01*
X169030211Y-64930347D01*
X169030209Y-64930347D01*
X169023252Y-64928193D01*
X169016010Y-64927432D01*
X169016006Y-64927431D01*
X168835360Y-64908444D01*
X168835359Y-64908444D01*
X168828119Y-64907683D01*
X168632718Y-64925466D01*
X168625729Y-64927523D01*
X168625724Y-64927524D01*
X168592390Y-64937335D01*
X168515285Y-64939221D01*
X168444960Y-64899757D01*
X167593709Y-64048506D01*
X167582056Y-64035393D01*
X167568767Y-64018536D01*
X167568766Y-64018536D01*
X167561872Y-64009790D01*
X167552710Y-64003458D01*
X167552708Y-64003456D01*
X167513910Y-63976641D01*
X167510102Y-63973920D01*
X167472143Y-63945883D01*
X167472142Y-63945882D01*
X167463184Y-63939266D01*
X167456368Y-63936873D01*
X167450431Y-63932769D01*
X167394832Y-63915185D01*
X167390420Y-63913713D01*
X167335369Y-63894381D01*
X167328155Y-63894098D01*
X167321270Y-63891920D01*
X167314663Y-63891400D01*
X167262429Y-63891400D01*
X167256579Y-63891285D01*
X167211133Y-63889499D01*
X167211131Y-63889499D01*
X167200006Y-63889062D01*
X167192621Y-63891020D01*
X167185718Y-63891400D01*
X163180321Y-63891400D01*
X163105821Y-63871438D01*
X163074962Y-63847759D01*
X162229144Y-63001941D01*
X162190580Y-62935146D01*
X162190580Y-62860529D01*
X162190243Y-62860452D01*
X162190580Y-62858969D01*
X162190580Y-62858018D01*
X162191471Y-62855047D01*
X162191856Y-62853351D01*
X162194158Y-62846432D01*
X162195107Y-62838925D01*
X162218228Y-62655896D01*
X162218228Y-62655894D01*
X162218749Y-62651771D01*
X162219141Y-62623700D01*
X162199994Y-62428428D01*
X162143284Y-62240594D01*
X162051170Y-62067353D01*
X162046567Y-62061710D01*
X162046565Y-62061706D01*
X161931764Y-61920946D01*
X161927161Y-61915302D01*
X161775980Y-61790235D01*
X161603385Y-61696913D01*
X161473002Y-61656553D01*
X161422911Y-61641047D01*
X161422909Y-61641047D01*
X161415952Y-61638893D01*
X161408710Y-61638132D01*
X161408706Y-61638131D01*
X161228060Y-61619144D01*
X161228059Y-61619144D01*
X161220819Y-61618383D01*
X161025418Y-61636166D01*
X160837193Y-61691564D01*
X160663312Y-61782467D01*
X160657638Y-61787029D01*
X160521272Y-61896670D01*
X160510400Y-61905411D01*
X160497365Y-61920946D01*
X160490208Y-61929475D01*
X160427028Y-61973714D01*
X160376067Y-61982700D01*
X158925184Y-61982700D01*
X158850684Y-61962738D01*
X158796146Y-61908200D01*
X158790144Y-61896670D01*
X158749825Y-61810205D01*
X158749824Y-61810203D01*
X158747075Y-61804307D01*
X158621320Y-61624711D01*
X158466289Y-61469680D01*
X158369067Y-61401604D01*
X158292025Y-61347658D01*
X158292021Y-61347656D01*
X158286693Y-61343925D01*
X158188721Y-61298240D01*
X158129637Y-61248663D01*
X158103258Y-61176186D01*
X158116651Y-61100230D01*
X158166228Y-61041146D01*
X158188721Y-61028160D01*
X158243187Y-61002762D01*
X158286693Y-60982475D01*
X158292021Y-60978744D01*
X158292025Y-60978742D01*
X158411088Y-60895372D01*
X158466289Y-60856720D01*
X158621320Y-60701689D01*
X158669951Y-60632237D01*
X158729035Y-60582660D01*
X158792005Y-60568700D01*
X159788254Y-60568700D01*
X159798388Y-60569045D01*
X159843448Y-60572117D01*
X159843449Y-60572117D01*
X159852413Y-60572728D01*
X159862780Y-60570919D01*
X159888395Y-60568700D01*
X160756862Y-60568700D01*
X160772298Y-60570118D01*
X160781240Y-60570681D01*
X160790074Y-60572318D01*
X160799041Y-60571801D01*
X160799042Y-60571801D01*
X160848534Y-60568947D01*
X160857112Y-60568700D01*
X161798262Y-60568700D01*
X161813698Y-60570118D01*
X161822640Y-60570681D01*
X161831474Y-60572318D01*
X161840441Y-60571801D01*
X161840442Y-60571801D01*
X161889941Y-60568947D01*
X161898518Y-60568700D01*
X163598254Y-60568700D01*
X163608388Y-60569045D01*
X163653448Y-60572117D01*
X163653449Y-60572117D01*
X163662413Y-60572728D01*
X163721679Y-60562385D01*
X163729376Y-60561248D01*
X163789113Y-60554019D01*
X163797518Y-60550843D01*
X163806139Y-60548725D01*
X163814624Y-60546164D01*
X163823475Y-60544619D01*
X163878586Y-60520427D01*
X163885779Y-60517492D01*
X163942055Y-60496227D01*
X163949465Y-60491134D01*
X163957315Y-60487030D01*
X163964949Y-60482515D01*
X163973183Y-60478901D01*
X163980315Y-60473428D01*
X163980319Y-60473426D01*
X164020905Y-60442284D01*
X164027214Y-60437700D01*
X164069392Y-60408711D01*
X164069395Y-60408708D01*
X164076797Y-60403621D01*
X164115751Y-60359900D01*
X164121641Y-60353660D01*
X165358860Y-59116441D01*
X165425655Y-59077877D01*
X165464219Y-59072800D01*
X166109086Y-59072800D01*
X166135286Y-59069682D01*
X166237593Y-59024239D01*
X166279466Y-58982293D01*
X166346228Y-58943671D01*
X166384917Y-58938560D01*
X170771900Y-58938560D01*
X170846400Y-58958522D01*
X170900938Y-59013060D01*
X170920900Y-59087560D01*
X170920900Y-59932766D01*
X170924018Y-59958966D01*
X170969461Y-60061273D01*
X171048687Y-60140361D01*
X171061267Y-60145923D01*
X171061269Y-60145924D01*
X171140826Y-60181096D01*
X171151073Y-60185626D01*
X171165718Y-60187333D01*
X171172470Y-60188121D01*
X171172478Y-60188121D01*
X171176754Y-60188620D01*
X174766166Y-60188620D01*
X174792366Y-60185502D01*
X174894673Y-60140059D01*
X174973761Y-60060833D01*
X174980891Y-60044707D01*
X175014496Y-59968694D01*
X175014496Y-59968693D01*
X175019026Y-59958447D01*
X175020944Y-59941995D01*
X175021521Y-59937050D01*
X175021521Y-59937042D01*
X175022020Y-59932766D01*
X175022020Y-56343354D01*
X175018902Y-56317154D01*
X174973459Y-56214847D01*
X174894233Y-56135759D01*
X174881653Y-56130197D01*
X174881651Y-56130196D01*
X174802094Y-56095024D01*
X174802093Y-56095024D01*
X174791847Y-56090494D01*
X174777202Y-56088787D01*
X174770450Y-56087999D01*
X174770442Y-56087999D01*
X174766166Y-56087500D01*
X171176754Y-56087500D01*
X171150554Y-56090618D01*
X171048247Y-56136061D01*
X170969159Y-56215287D01*
X170963597Y-56227867D01*
X170963596Y-56227869D01*
X170923894Y-56317673D01*
X170920900Y-56343354D01*
X170920900Y-57188560D01*
X170900938Y-57263060D01*
X170846400Y-57317598D01*
X170771900Y-57337560D01*
X166513940Y-57337560D01*
X166439440Y-57317598D01*
X166384902Y-57263060D01*
X166364940Y-57188560D01*
X166364940Y-56727654D01*
X166361822Y-56701454D01*
X166316379Y-56599147D01*
X166237153Y-56520059D01*
X166224573Y-56514497D01*
X166224571Y-56514496D01*
X166145014Y-56479324D01*
X166145013Y-56479324D01*
X166134767Y-56474794D01*
X166120122Y-56473087D01*
X166113370Y-56472299D01*
X166113362Y-56472299D01*
X166109086Y-56471800D01*
X164019794Y-56471800D01*
X163993594Y-56474918D01*
X163891287Y-56520361D01*
X163812199Y-56599587D01*
X163806637Y-56612167D01*
X163806636Y-56612169D01*
X163771681Y-56691236D01*
X163766934Y-56701973D01*
X163763940Y-56727654D01*
X163763940Y-58739041D01*
X163743978Y-58813541D01*
X163720299Y-58844400D01*
X163390640Y-59174059D01*
X163323845Y-59212623D01*
X163285281Y-59217700D01*
X162215719Y-59217700D01*
X162141219Y-59197738D01*
X162110360Y-59174059D01*
X161501141Y-58564840D01*
X161462577Y-58498045D01*
X161457500Y-58459481D01*
X161457500Y-51717546D01*
X161457845Y-51707412D01*
X161460917Y-51662352D01*
X161460917Y-51662351D01*
X161461528Y-51653387D01*
X161451183Y-51594109D01*
X161450049Y-51586429D01*
X161443897Y-51535598D01*
X161442819Y-51526687D01*
X161439646Y-51518289D01*
X161437534Y-51509691D01*
X161434963Y-51501174D01*
X161433418Y-51492324D01*
X161409239Y-51437242D01*
X161406291Y-51430018D01*
X161388206Y-51382156D01*
X161388203Y-51382151D01*
X161385027Y-51373745D01*
X161379935Y-51366336D01*
X161375830Y-51358485D01*
X161371315Y-51350851D01*
X161367701Y-51342617D01*
X161362228Y-51335485D01*
X161362226Y-51335481D01*
X161331084Y-51294895D01*
X161326500Y-51288586D01*
X161297511Y-51246408D01*
X161297508Y-51246405D01*
X161292421Y-51239003D01*
X161248700Y-51200049D01*
X161242460Y-51194159D01*
X160035240Y-49986939D01*
X160028318Y-49979529D01*
X159998620Y-49945486D01*
X159992717Y-49938719D01*
X159943497Y-49904126D01*
X159937246Y-49899484D01*
X159909108Y-49877421D01*
X159896962Y-49867897D01*
X159896959Y-49867895D01*
X159889897Y-49862358D01*
X159881714Y-49858663D01*
X159874130Y-49854071D01*
X159866306Y-49849876D01*
X159858952Y-49844707D01*
X159802885Y-49822847D01*
X159795706Y-49819829D01*
X159749075Y-49798774D01*
X159749072Y-49798773D01*
X159740886Y-49795077D01*
X159732051Y-49793440D01*
X159723579Y-49790785D01*
X159714996Y-49788581D01*
X159706624Y-49785317D01*
X159658591Y-49778993D01*
X159646971Y-49777463D01*
X159639269Y-49776243D01*
X159588959Y-49766919D01*
X159580126Y-49765282D01*
X159571159Y-49765799D01*
X159571158Y-49765799D01*
X159521666Y-49768653D01*
X159513088Y-49768900D01*
X156587181Y-49768900D01*
X156512681Y-49748938D01*
X156462078Y-49700833D01*
X156458727Y-49695653D01*
X156348805Y-49525739D01*
X156182746Y-49343242D01*
X155989110Y-49190318D01*
X155983757Y-49187363D01*
X155983754Y-49187361D01*
X155881104Y-49130696D01*
X155773098Y-49071073D01*
X155540510Y-48988709D01*
X155534495Y-48987638D01*
X155534493Y-48987637D01*
X155443147Y-48971366D01*
X155297594Y-48945439D01*
X155291481Y-48945364D01*
X155291478Y-48945364D01*
X155187554Y-48944095D01*
X155050872Y-48942425D01*
X155024163Y-48946512D01*
X154813007Y-48978823D01*
X154813004Y-48978824D01*
X154806970Y-48979747D01*
X154572440Y-49056403D01*
X154353579Y-49170335D01*
X154156264Y-49318483D01*
X154152040Y-49322903D01*
X154152039Y-49322904D01*
X153990023Y-49492444D01*
X153990019Y-49492448D01*
X153985796Y-49496868D01*
X153982349Y-49501920D01*
X153982349Y-49501921D01*
X153962600Y-49530872D01*
X153846751Y-49700700D01*
X153742865Y-49924504D01*
X153676926Y-50162271D01*
X153650706Y-50407614D01*
X153664910Y-50653945D01*
X153719155Y-50894649D01*
X153811984Y-51123261D01*
X153815178Y-51128473D01*
X153915263Y-51291795D01*
X153940906Y-51333641D01*
X153944909Y-51338262D01*
X153944911Y-51338265D01*
X153975645Y-51373745D01*
X154102457Y-51520141D01*
X154107168Y-51524053D01*
X154107172Y-51524056D01*
X154209185Y-51608748D01*
X154292299Y-51677751D01*
X154505333Y-51802238D01*
X154511033Y-51804415D01*
X154511036Y-51804416D01*
X154730134Y-51888081D01*
X154730140Y-51888083D01*
X154735839Y-51890259D01*
X154741820Y-51891476D01*
X154741824Y-51891477D01*
X154830598Y-51909538D01*
X154977626Y-51939452D01*
X154983735Y-51939676D01*
X155218083Y-51948269D01*
X155218087Y-51948269D01*
X155224200Y-51948493D01*
X155468941Y-51917141D01*
X155623478Y-51870778D01*
X155699422Y-51847994D01*
X155699426Y-51847993D01*
X155705274Y-51846238D01*
X155926854Y-51737687D01*
X156127729Y-51594404D01*
X156302505Y-51420237D01*
X156364731Y-51333641D01*
X156442921Y-51224827D01*
X156446488Y-51219863D01*
X156454882Y-51202879D01*
X156505788Y-51144937D01*
X156578845Y-51120210D01*
X156588457Y-51119900D01*
X159195881Y-51119900D01*
X159270381Y-51139862D01*
X159301240Y-51163541D01*
X160062859Y-51925160D01*
X160101423Y-51991955D01*
X160106500Y-52030519D01*
X160106500Y-58586481D01*
X160086538Y-58660981D01*
X160062859Y-58691840D01*
X159580640Y-59174059D01*
X159513845Y-59212623D01*
X159475281Y-59217700D01*
X158792005Y-59217700D01*
X158717505Y-59197738D01*
X158669951Y-59154163D01*
X158656380Y-59134782D01*
X158621320Y-59084711D01*
X158466289Y-58929680D01*
X158344497Y-58844400D01*
X158292025Y-58807658D01*
X158292021Y-58807656D01*
X158286693Y-58803925D01*
X158188721Y-58758240D01*
X158129637Y-58708663D01*
X158103258Y-58636186D01*
X158116651Y-58560230D01*
X158166228Y-58501146D01*
X158188721Y-58488160D01*
X158250223Y-58459481D01*
X158286693Y-58442475D01*
X158292021Y-58438744D01*
X158292025Y-58438742D01*
X158369067Y-58384796D01*
X158466289Y-58316720D01*
X158621320Y-58161689D01*
X158694598Y-58057038D01*
X158743342Y-57987425D01*
X158743344Y-57987421D01*
X158747075Y-57982093D01*
X158839732Y-57783388D01*
X158841415Y-57777107D01*
X158894795Y-57577891D01*
X158894796Y-57577886D01*
X158896477Y-57571612D01*
X158915586Y-57353200D01*
X158907700Y-57263060D01*
X158897044Y-57141264D01*
X158897043Y-57141259D01*
X158896477Y-57134788D01*
X158839732Y-56923012D01*
X158747075Y-56724307D01*
X158743344Y-56718979D01*
X158743342Y-56718975D01*
X158668555Y-56612169D01*
X158621320Y-56544711D01*
X158466289Y-56389680D01*
X158396837Y-56341049D01*
X158347260Y-56281965D01*
X158333300Y-56218995D01*
X158333300Y-55947405D01*
X158353262Y-55872905D01*
X158396837Y-55825351D01*
X158460963Y-55780449D01*
X158466289Y-55776720D01*
X158621320Y-55621689D01*
X158700463Y-55508662D01*
X158743342Y-55447425D01*
X158743344Y-55447421D01*
X158747075Y-55442093D01*
X158839732Y-55243388D01*
X158871956Y-55123126D01*
X158894795Y-55037891D01*
X158894796Y-55037886D01*
X158896477Y-55031612D01*
X158910642Y-54869716D01*
X158915019Y-54819681D01*
X158915586Y-54813200D01*
X158900145Y-54636712D01*
X158897044Y-54601264D01*
X158897043Y-54601259D01*
X158896477Y-54594788D01*
X158892215Y-54578880D01*
X158841415Y-54389293D01*
X158839732Y-54383012D01*
X158747075Y-54184307D01*
X158743344Y-54178979D01*
X158743342Y-54178975D01*
X158658829Y-54058279D01*
X158621320Y-54004711D01*
X158466289Y-53849680D01*
X158352389Y-53769926D01*
X158292025Y-53727658D01*
X158292021Y-53727656D01*
X158286693Y-53723925D01*
X158087988Y-53631268D01*
X158035351Y-53617164D01*
X157882491Y-53576205D01*
X157882486Y-53576204D01*
X157876212Y-53574523D01*
X157869741Y-53573957D01*
X157869736Y-53573956D01*
X157664281Y-53555981D01*
X157657800Y-53555414D01*
X157651319Y-53555981D01*
X157445864Y-53573956D01*
X157445859Y-53573957D01*
X157439388Y-53574523D01*
X157433114Y-53576204D01*
X157433109Y-53576205D01*
X157280249Y-53617164D01*
X157227612Y-53631268D01*
X157028907Y-53723925D01*
X157023579Y-53727656D01*
X157023575Y-53727658D01*
X156963211Y-53769926D01*
X156849311Y-53849680D01*
X156694280Y-54004711D01*
X156659220Y-54054782D01*
X156645649Y-54074163D01*
X156586565Y-54123740D01*
X156523595Y-54137700D01*
X151172005Y-54137700D01*
X151097505Y-54117738D01*
X151049951Y-54074163D01*
X151036380Y-54054782D01*
X151001320Y-54004711D01*
X150846289Y-53849680D01*
X150732389Y-53769926D01*
X150672025Y-53727658D01*
X150672021Y-53727656D01*
X150666693Y-53723925D01*
X150467988Y-53631268D01*
X150415351Y-53617164D01*
X150262491Y-53576205D01*
X150262486Y-53576204D01*
X150256212Y-53574523D01*
X150249741Y-53573957D01*
X150249736Y-53573956D01*
X150044281Y-53555981D01*
X150037800Y-53555414D01*
X149828866Y-53573694D01*
X149752911Y-53560301D01*
X149710522Y-53530620D01*
X149309141Y-53129240D01*
X149270577Y-53062445D01*
X149265500Y-53023881D01*
X149265500Y-52271819D01*
X149285462Y-52197319D01*
X149309141Y-52166460D01*
X149540648Y-51934953D01*
X149607443Y-51896389D01*
X149675713Y-51894303D01*
X149779330Y-51915384D01*
X149897626Y-51939452D01*
X149903735Y-51939676D01*
X150138083Y-51948269D01*
X150138087Y-51948269D01*
X150144200Y-51948493D01*
X150388941Y-51917141D01*
X150543478Y-51870778D01*
X150619422Y-51847994D01*
X150619426Y-51847993D01*
X150625274Y-51846238D01*
X150846854Y-51737687D01*
X151047729Y-51594404D01*
X151222505Y-51420237D01*
X151284731Y-51333641D01*
X151362921Y-51224827D01*
X151366488Y-51219863D01*
X151475811Y-50998664D01*
X151547539Y-50762580D01*
X151579745Y-50517950D01*
X151581543Y-50444400D01*
X151561325Y-50198489D01*
X151550749Y-50156381D01*
X151502705Y-49965111D01*
X151501216Y-49959183D01*
X151495261Y-49945486D01*
X151427994Y-49790785D01*
X151402828Y-49732907D01*
X151268805Y-49525739D01*
X151102746Y-49343242D01*
X150909110Y-49190318D01*
X150903757Y-49187363D01*
X150903754Y-49187361D01*
X150801104Y-49130696D01*
X150693098Y-49071073D01*
X150460510Y-48988709D01*
X150454495Y-48987638D01*
X150454493Y-48987637D01*
X150363147Y-48971366D01*
X150217594Y-48945439D01*
X150211481Y-48945364D01*
X150211478Y-48945364D01*
X150107554Y-48944095D01*
X149970872Y-48942425D01*
X149944163Y-48946512D01*
X149733007Y-48978823D01*
X149733004Y-48978824D01*
X149726970Y-48979747D01*
X149492440Y-49056403D01*
X149273579Y-49170335D01*
X149076264Y-49318483D01*
X149072040Y-49322903D01*
X149072039Y-49322904D01*
X148910023Y-49492444D01*
X148910019Y-49492448D01*
X148905796Y-49496868D01*
X148902349Y-49501920D01*
X148902349Y-49501921D01*
X148882600Y-49530872D01*
X148766751Y-49700700D01*
X148662865Y-49924504D01*
X148596926Y-50162271D01*
X148570706Y-50407614D01*
X148584910Y-50653945D01*
X148610711Y-50768430D01*
X148626847Y-50840032D01*
X148623751Y-50917098D01*
X148586851Y-50978148D01*
X148132539Y-51432460D01*
X148125129Y-51439382D01*
X148084319Y-51474983D01*
X148072131Y-51492324D01*
X148049726Y-51524203D01*
X148045084Y-51530454D01*
X148041051Y-51535598D01*
X148013497Y-51570738D01*
X148013495Y-51570741D01*
X148007958Y-51577803D01*
X148004263Y-51585986D01*
X147999671Y-51593570D01*
X147995476Y-51601394D01*
X147990307Y-51608748D01*
X147972903Y-51653387D01*
X147968452Y-51664804D01*
X147965429Y-51671994D01*
X147944862Y-51717546D01*
X147940677Y-51726814D01*
X147939040Y-51735649D01*
X147936385Y-51744121D01*
X147934181Y-51752704D01*
X147930917Y-51761076D01*
X147929745Y-51769981D01*
X147923063Y-51820729D01*
X147921843Y-51828431D01*
X147913995Y-51870778D01*
X147910882Y-51887574D01*
X147911399Y-51896541D01*
X147911399Y-51896542D01*
X147914253Y-51946034D01*
X147914500Y-51954612D01*
X147914500Y-53336854D01*
X147914155Y-53346987D01*
X147910472Y-53401013D01*
X147912017Y-53409865D01*
X147920813Y-53460263D01*
X147921952Y-53467976D01*
X147929181Y-53527713D01*
X147932357Y-53536118D01*
X147934475Y-53544739D01*
X147937036Y-53553224D01*
X147938581Y-53562075D01*
X147962773Y-53617186D01*
X147965708Y-53624379D01*
X147986973Y-53680655D01*
X147992066Y-53688065D01*
X147996170Y-53695915D01*
X148000685Y-53703549D01*
X148004299Y-53711783D01*
X148009772Y-53718915D01*
X148009774Y-53718919D01*
X148040916Y-53759505D01*
X148045500Y-53765814D01*
X148074489Y-53807992D01*
X148074492Y-53807995D01*
X148079579Y-53815397D01*
X148086284Y-53821371D01*
X148086285Y-53821372D01*
X148123300Y-53854351D01*
X148129540Y-53860241D01*
X148755220Y-54485921D01*
X148793784Y-54552716D01*
X148798294Y-54604265D01*
X148780014Y-54813200D01*
X148780581Y-54819681D01*
X148784959Y-54869716D01*
X148799123Y-55031612D01*
X148800804Y-55037886D01*
X148800805Y-55037891D01*
X148823644Y-55123126D01*
X148855868Y-55243388D01*
X148948525Y-55442093D01*
X148952256Y-55447421D01*
X148952258Y-55447425D01*
X148995137Y-55508662D01*
X149074280Y-55621689D01*
X149090232Y-55637641D01*
X149128796Y-55704436D01*
X149128796Y-55781564D01*
X149090232Y-55848359D01*
X149023437Y-55886923D01*
X148984873Y-55892000D01*
X148206760Y-55892000D01*
X148132260Y-55872038D01*
X148101401Y-55848359D01*
X147732641Y-55479599D01*
X147694077Y-55412804D01*
X147689000Y-55374240D01*
X147689000Y-54688618D01*
X147672221Y-54604267D01*
X147667171Y-54578880D01*
X147667170Y-54578877D01*
X147665743Y-54571703D01*
X147655052Y-54545894D01*
X147650989Y-54539813D01*
X147650986Y-54539808D01*
X147592897Y-54452875D01*
X147588830Y-54446788D01*
X146399141Y-53257099D01*
X146360577Y-53190304D01*
X146355500Y-53151740D01*
X146355500Y-50115506D01*
X146335220Y-50006053D01*
X146325850Y-49981636D01*
X146267706Y-49886720D01*
X145716451Y-49274214D01*
X145706087Y-49263255D01*
X145613667Y-49199510D01*
X145586537Y-49187427D01*
X145572604Y-49181630D01*
X145462245Y-49161000D01*
X142886696Y-49161000D01*
X142880991Y-49161892D01*
X142880989Y-49161892D01*
X142803480Y-49174009D01*
X142793456Y-49175576D01*
X142772242Y-49182375D01*
X142767075Y-49184969D01*
X142767074Y-49184969D01*
X142748867Y-49194108D01*
X142687914Y-49224703D01*
X141823717Y-49841986D01*
X141822545Y-49842899D01*
X141822531Y-49842909D01*
X141820222Y-49844707D01*
X141803809Y-49857487D01*
X141799215Y-49861379D01*
X141775742Y-49883496D01*
X141714448Y-49977559D01*
X141703757Y-50003368D01*
X141680500Y-50120283D01*
X141680500Y-53957904D01*
X141680814Y-53971755D01*
X141680964Y-53975060D01*
X141682625Y-53995887D01*
X141685026Y-54003689D01*
X141685027Y-54003694D01*
X141713622Y-54096609D01*
X141715648Y-54103191D01*
X141728631Y-54127926D01*
X141803557Y-54220636D01*
X141809179Y-54225321D01*
X143090116Y-55292769D01*
X143150888Y-55343412D01*
X143195340Y-55406441D01*
X143204500Y-55457877D01*
X143204500Y-57709333D01*
X143220177Y-57805941D01*
X143227477Y-57827841D01*
X143272900Y-57914533D01*
X143276493Y-57919324D01*
X143276497Y-57919330D01*
X143410336Y-58097781D01*
X143634716Y-58396955D01*
X143780908Y-58591877D01*
X143826150Y-58652200D01*
X143826991Y-58653242D01*
X143838949Y-58668059D01*
X143838968Y-58668082D01*
X143839781Y-58669089D01*
X143843172Y-58672998D01*
X143862963Y-58693758D01*
X143957026Y-58755052D01*
X143970519Y-58760641D01*
X143976072Y-58762942D01*
X143976076Y-58762943D01*
X143982835Y-58765743D01*
X143990009Y-58767170D01*
X143990012Y-58767171D01*
X144033860Y-58775893D01*
X144099750Y-58789000D01*
X149010273Y-58789000D01*
X149084773Y-58808962D01*
X149139311Y-58863500D01*
X149159273Y-58938000D01*
X149139311Y-59012500D01*
X149115632Y-59043359D01*
X149074280Y-59084711D01*
X149025649Y-59154163D01*
X148952258Y-59258975D01*
X148952256Y-59258979D01*
X148948525Y-59264307D01*
X148855868Y-59463012D01*
X148854185Y-59469293D01*
X148801555Y-59665713D01*
X148799123Y-59674788D01*
X148798557Y-59681259D01*
X148798556Y-59681264D01*
X148780650Y-59885932D01*
X148780014Y-59893200D01*
X148780581Y-59899681D01*
X148796719Y-60084133D01*
X148799123Y-60111612D01*
X148800804Y-60117886D01*
X148800805Y-60117891D01*
X148819302Y-60186923D01*
X148855868Y-60323388D01*
X148948525Y-60522093D01*
X148952256Y-60527421D01*
X148952258Y-60527425D01*
X148992502Y-60584899D01*
X149074280Y-60701689D01*
X149229311Y-60856720D01*
X149284512Y-60895372D01*
X149403575Y-60978742D01*
X149403579Y-60978744D01*
X149408907Y-60982475D01*
X149607612Y-61075132D01*
X149613893Y-61076815D01*
X149813109Y-61130195D01*
X149813114Y-61130196D01*
X149819388Y-61131877D01*
X149825859Y-61132443D01*
X149825864Y-61132444D01*
X150031319Y-61150419D01*
X150037800Y-61150986D01*
X150044281Y-61150419D01*
X150249736Y-61132444D01*
X150249741Y-61132443D01*
X150256212Y-61131877D01*
X150262486Y-61130196D01*
X150262491Y-61130195D01*
X150461707Y-61076815D01*
X150467988Y-61075132D01*
X150666693Y-60982475D01*
X150672021Y-60978744D01*
X150672025Y-60978742D01*
X150791088Y-60895372D01*
X150846289Y-60856720D01*
X151001320Y-60701689D01*
X151127075Y-60522093D01*
X151170144Y-60429730D01*
X151219721Y-60370646D01*
X151292198Y-60344267D01*
X151305184Y-60343700D01*
X153394879Y-60343700D01*
X153469379Y-60363662D01*
X153500238Y-60387341D01*
X154115659Y-61002762D01*
X154154223Y-61069557D01*
X154159300Y-61108121D01*
X154159300Y-64625162D01*
X154139338Y-64699662D01*
X154086483Y-64753213D01*
X153966042Y-64824868D01*
X153966033Y-64824874D01*
X153960171Y-64828362D01*
X153808105Y-64961720D01*
X153803878Y-64967082D01*
X153803877Y-64967083D01*
X153721352Y-65071767D01*
X153682889Y-65120557D01*
X153588714Y-65299553D01*
X153528737Y-65492713D01*
X153527934Y-65499496D01*
X153527934Y-65499497D01*
X153514015Y-65617102D01*
X153504964Y-65693569D01*
X153507312Y-65729395D01*
X153510364Y-65775952D01*
X153518192Y-65895394D01*
X153567978Y-66091428D01*
X153570836Y-66097628D01*
X153570838Y-66097633D01*
X153645168Y-66258865D01*
X153652656Y-66275107D01*
X153769388Y-66440280D01*
X153875627Y-66543773D01*
X153915061Y-66610055D01*
X153916070Y-66687176D01*
X153878384Y-66754471D01*
X153812100Y-66793906D01*
X153771655Y-66799500D01*
X137998321Y-66799500D01*
X137923821Y-66779538D01*
X137892962Y-66755859D01*
X137481902Y-66344799D01*
X137443338Y-66278004D01*
X137443338Y-66200876D01*
X137481902Y-66134081D01*
X137548697Y-66095517D01*
X137587261Y-66090440D01*
X145330544Y-66090440D01*
X145333283Y-66090236D01*
X145333295Y-66090236D01*
X145438783Y-66082397D01*
X145529477Y-66075657D01*
X145671899Y-66043430D01*
X145785097Y-66017816D01*
X145785103Y-66017814D01*
X145790491Y-66016595D01*
X145850968Y-65993077D01*
X146034751Y-65921608D01*
X146034753Y-65921607D01*
X146039909Y-65919602D01*
X146044705Y-65916861D01*
X146044711Y-65916858D01*
X146193169Y-65832006D01*
X146272250Y-65786808D01*
X146482411Y-65621130D01*
X146665775Y-65426209D01*
X146668923Y-65421671D01*
X146668928Y-65421665D01*
X146785291Y-65253927D01*
X146818314Y-65206325D01*
X146925763Y-64988441D01*
X146934232Y-64971268D01*
X146934234Y-64971262D01*
X146936676Y-64966311D01*
X146939589Y-64957213D01*
X147016576Y-64716704D01*
X147018262Y-64711437D01*
X147021328Y-64692614D01*
X147060391Y-64452751D01*
X147060391Y-64452750D01*
X147061278Y-64447304D01*
X147064781Y-64179714D01*
X147028693Y-63914545D01*
X147023892Y-63898072D01*
X146955354Y-63662925D01*
X146955351Y-63662917D01*
X146953808Y-63657623D01*
X146841769Y-63414592D01*
X146731426Y-63246292D01*
X146698074Y-63195421D01*
X146698071Y-63195417D01*
X146695038Y-63190791D01*
X146516840Y-62991137D01*
X146311088Y-62820015D01*
X146214701Y-62761526D01*
X146087031Y-62684053D01*
X146087024Y-62684050D01*
X146082302Y-62681184D01*
X146077206Y-62679047D01*
X146077202Y-62679045D01*
X145840608Y-62579833D01*
X145840606Y-62579832D01*
X145835509Y-62577695D01*
X145830154Y-62576335D01*
X145830148Y-62576333D01*
X145581490Y-62513182D01*
X145581487Y-62513181D01*
X145576130Y-62511821D01*
X145570630Y-62511267D01*
X145570629Y-62511267D01*
X145535283Y-62507708D01*
X145353859Y-62489440D01*
X136716401Y-62489440D01*
X136707954Y-62489200D01*
X136633627Y-62484979D01*
X136633622Y-62484979D01*
X136628109Y-62484666D01*
X136546125Y-62492199D01*
X136511807Y-62495352D01*
X136509217Y-62495567D01*
X136398256Y-62503813D01*
X136398252Y-62503814D01*
X136392743Y-62504223D01*
X136387352Y-62505443D01*
X136387350Y-62505443D01*
X136386854Y-62505555D01*
X136367630Y-62508600D01*
X136367128Y-62508646D01*
X136367120Y-62508647D01*
X136361619Y-62509153D01*
X136248122Y-62536926D01*
X136245682Y-62537500D01*
X136131729Y-62563285D01*
X136126105Y-62565472D01*
X136107542Y-62571325D01*
X136101674Y-62572761D01*
X136089614Y-62577695D01*
X135993574Y-62616986D01*
X135991158Y-62617950D01*
X135904187Y-62651771D01*
X135882311Y-62660278D01*
X135877510Y-62663022D01*
X135877508Y-62663023D01*
X135877083Y-62663266D01*
X135859561Y-62671812D01*
X135853988Y-62674092D01*
X135849238Y-62676918D01*
X135849232Y-62676921D01*
X135753610Y-62733811D01*
X135751389Y-62735107D01*
X135731170Y-62746662D01*
X135657236Y-62766300D01*
X128314081Y-62766300D01*
X128305634Y-62766060D01*
X128231307Y-62761839D01*
X128231302Y-62761839D01*
X128225789Y-62761526D01*
X128143805Y-62769059D01*
X128109487Y-62772212D01*
X128106897Y-62772427D01*
X127995936Y-62780673D01*
X127995932Y-62780674D01*
X127990423Y-62781083D01*
X127985032Y-62782303D01*
X127985030Y-62782303D01*
X127984534Y-62782415D01*
X127965310Y-62785460D01*
X127964808Y-62785506D01*
X127964800Y-62785507D01*
X127959299Y-62786013D01*
X127845802Y-62813786D01*
X127843362Y-62814360D01*
X127729409Y-62840145D01*
X127723785Y-62842332D01*
X127705222Y-62848185D01*
X127699354Y-62849621D01*
X127651299Y-62869281D01*
X127591254Y-62893846D01*
X127588840Y-62894809D01*
X127479991Y-62937138D01*
X127475190Y-62939882D01*
X127475188Y-62939883D01*
X127474763Y-62940126D01*
X127457241Y-62948672D01*
X127451668Y-62950952D01*
X127446913Y-62953781D01*
X127351314Y-63010657D01*
X127349067Y-63011968D01*
X127261366Y-63062093D01*
X127247650Y-63069932D01*
X127243320Y-63073345D01*
X127243316Y-63073348D01*
X127242926Y-63073656D01*
X127226859Y-63084699D01*
X127221679Y-63087781D01*
X127131182Y-63161721D01*
X127129292Y-63163238D01*
X127037489Y-63235610D01*
X126964331Y-63313379D01*
X126961163Y-63316646D01*
X125170811Y-65106998D01*
X125169010Y-65109088D01*
X125168999Y-65109100D01*
X125085225Y-65206325D01*
X125040597Y-65258118D01*
X125037651Y-65262788D01*
X125037646Y-65262794D01*
X124981989Y-65351006D01*
X124897795Y-65484446D01*
X124790014Y-65729395D01*
X124719624Y-65987585D01*
X124688170Y-66253343D01*
X119500000Y-66253343D01*
X119500000Y-57801706D01*
X120186940Y-57801706D01*
X120190058Y-57827906D01*
X120235501Y-57930213D01*
X120314727Y-58009301D01*
X120327307Y-58014863D01*
X120327309Y-58014864D01*
X120406866Y-58050036D01*
X120417113Y-58054566D01*
X120431758Y-58056273D01*
X120438510Y-58057061D01*
X120438518Y-58057061D01*
X120442794Y-58057560D01*
X124032206Y-58057560D01*
X124058406Y-58054442D01*
X124160713Y-58008999D01*
X124239801Y-57929773D01*
X124254621Y-57896251D01*
X124303003Y-57836185D01*
X124374936Y-57808357D01*
X124390897Y-57807500D01*
X124577737Y-57807500D01*
X124652237Y-57827462D01*
X124706775Y-57882000D01*
X124726737Y-57956500D01*
X124724800Y-57980450D01*
X124693322Y-58173736D01*
X124693250Y-58179259D01*
X124690772Y-58368559D01*
X124689819Y-58441326D01*
X124690564Y-58446798D01*
X124690564Y-58446803D01*
X124709574Y-58586481D01*
X124725907Y-58706495D01*
X124727453Y-58711799D01*
X124727454Y-58711804D01*
X124799246Y-58958115D01*
X124799249Y-58958123D01*
X124800792Y-58963417D01*
X124831406Y-59029823D01*
X124908816Y-59197738D01*
X124912831Y-59206448D01*
X124950765Y-59264307D01*
X125054638Y-59422738D01*
X125059562Y-59430249D01*
X125237760Y-59629903D01*
X125443512Y-59801025D01*
X125471806Y-59818194D01*
X125667569Y-59936987D01*
X125667576Y-59936990D01*
X125672298Y-59939856D01*
X125677394Y-59941993D01*
X125677398Y-59941995D01*
X125913992Y-60041207D01*
X125919091Y-60043345D01*
X125924446Y-60044705D01*
X125924452Y-60044707D01*
X126173110Y-60107858D01*
X126173113Y-60107859D01*
X126178470Y-60109219D01*
X126183970Y-60109773D01*
X126183971Y-60109773D01*
X126215481Y-60112946D01*
X126400741Y-60131600D01*
X128149719Y-60131600D01*
X128158166Y-60131840D01*
X128232493Y-60136061D01*
X128232498Y-60136061D01*
X128238011Y-60136374D01*
X128319995Y-60128841D01*
X128354313Y-60125688D01*
X128356903Y-60125473D01*
X128467864Y-60117227D01*
X128467868Y-60117226D01*
X128473377Y-60116817D01*
X128478768Y-60115597D01*
X128478770Y-60115597D01*
X128479266Y-60115485D01*
X128498490Y-60112440D01*
X128498992Y-60112394D01*
X128499000Y-60112393D01*
X128504501Y-60111887D01*
X128509869Y-60110574D01*
X128509872Y-60110573D01*
X128547660Y-60101326D01*
X128617974Y-60084121D01*
X128620427Y-60083543D01*
X128734391Y-60057755D01*
X128739540Y-60055753D01*
X128739552Y-60055749D01*
X128740014Y-60055569D01*
X128758589Y-60049713D01*
X128759069Y-60049596D01*
X128759087Y-60049590D01*
X128764445Y-60048279D01*
X128872635Y-60004018D01*
X128874944Y-60003097D01*
X128983809Y-59960762D01*
X128989044Y-59957770D01*
X129006551Y-59949232D01*
X129007016Y-59949042D01*
X129007026Y-59949037D01*
X129012132Y-59946948D01*
X129112488Y-59887242D01*
X129114733Y-59885932D01*
X129211358Y-59830707D01*
X129211360Y-59830706D01*
X129216150Y-59827968D01*
X129220480Y-59824555D01*
X129220484Y-59824552D01*
X129220874Y-59824244D01*
X129236941Y-59813201D01*
X129242121Y-59810119D01*
X129332612Y-59736185D01*
X129334602Y-59734588D01*
X129421970Y-59665713D01*
X129421976Y-59665707D01*
X129426311Y-59662290D01*
X129499454Y-59584536D01*
X129502622Y-59581270D01*
X131721947Y-57361944D01*
X131735061Y-57350291D01*
X131746069Y-57341613D01*
X131750411Y-57338190D01*
X131823572Y-57260418D01*
X131826740Y-57257152D01*
X132281630Y-56802261D01*
X132283589Y-56800302D01*
X132285390Y-56798212D01*
X132285401Y-56798200D01*
X132410193Y-56653372D01*
X132410195Y-56653369D01*
X132413803Y-56649182D01*
X132420027Y-56639317D01*
X132437970Y-56610880D01*
X132525393Y-56472322D01*
X132556605Y-56422854D01*
X132589643Y-56347771D01*
X132662156Y-56182971D01*
X132662156Y-56182970D01*
X132664385Y-56177905D01*
X132734776Y-55919715D01*
X132738057Y-55892000D01*
X132765580Y-55659448D01*
X132766230Y-55653957D01*
X132760240Y-55457877D01*
X132758227Y-55391986D01*
X132758226Y-55391980D01*
X132758058Y-55386469D01*
X132710438Y-55123126D01*
X132624417Y-54869716D01*
X132501884Y-54631803D01*
X132470717Y-54588509D01*
X132348758Y-54419100D01*
X132345530Y-54414616D01*
X132341676Y-54410660D01*
X132341672Y-54410655D01*
X132246120Y-54312568D01*
X132158793Y-54222924D01*
X132154396Y-54219581D01*
X132154391Y-54219576D01*
X131950176Y-54064288D01*
X131945772Y-54060939D01*
X131711149Y-53932220D01*
X131460076Y-53839594D01*
X131454670Y-53838470D01*
X131454668Y-53838469D01*
X131308140Y-53807992D01*
X131198071Y-53785098D01*
X131192546Y-53784784D01*
X131192544Y-53784784D01*
X130936407Y-53770239D01*
X130936402Y-53770239D01*
X130930889Y-53769926D01*
X130925394Y-53770431D01*
X130925388Y-53770431D01*
X130769191Y-53784784D01*
X130664399Y-53794413D01*
X130404454Y-53858021D01*
X130399338Y-53860114D01*
X130161884Y-53957258D01*
X130161877Y-53957261D01*
X130156767Y-53959352D01*
X129986014Y-54060940D01*
X129926779Y-54096181D01*
X129887925Y-54127926D01*
X129832898Y-54172885D01*
X129762576Y-54204562D01*
X129738625Y-54206500D01*
X124390860Y-54206500D01*
X124316360Y-54186538D01*
X124261822Y-54132000D01*
X124254689Y-54117984D01*
X124245084Y-54096360D01*
X124245083Y-54096359D01*
X124239499Y-54083787D01*
X124160273Y-54004699D01*
X124147693Y-53999137D01*
X124147691Y-53999136D01*
X124068134Y-53963964D01*
X124068133Y-53963964D01*
X124057887Y-53959434D01*
X124043242Y-53957727D01*
X124036490Y-53956939D01*
X124036482Y-53956939D01*
X124032206Y-53956440D01*
X120442794Y-53956440D01*
X120416594Y-53959558D01*
X120314287Y-54005001D01*
X120235199Y-54084227D01*
X120229637Y-54096807D01*
X120229636Y-54096809D01*
X120196003Y-54172885D01*
X120189934Y-54186613D01*
X120186940Y-54212294D01*
X120186940Y-57801706D01*
X119500000Y-57801706D01*
X119500000Y-47149000D01*
X119519962Y-47074500D01*
X119574500Y-47019962D01*
X119649000Y-47000000D01*
X176351000Y-47000000D01*
X176425500Y-47019962D01*
G37*
%TD.AperFunction*%
%TD*%
%TA.AperFunction,Conductor*%
%TO.N,Net-(D1-Pad1)*%
G36*
X145489375Y-49478583D02*
G01*
X146040630Y-50091089D01*
X146050000Y-50115506D01*
X146050000Y-53340000D01*
X147372809Y-54662809D01*
X147383500Y-54688618D01*
X147383500Y-55562500D01*
X148018500Y-56197500D01*
X150733882Y-56197500D01*
X150759691Y-56208191D01*
X151246309Y-56694809D01*
X151257000Y-56720618D01*
X151257000Y-58082965D01*
X151246309Y-58108774D01*
X151240747Y-58113335D01*
X150694695Y-58477370D01*
X150674448Y-58483500D01*
X144099750Y-58483500D01*
X144073941Y-58472809D01*
X144070550Y-58468900D01*
X143879116Y-58213655D01*
X149427840Y-58213655D01*
X149429478Y-58217609D01*
X149432857Y-58220484D01*
X149435773Y-58222511D01*
X149612840Y-58321470D01*
X149616087Y-58322889D01*
X149809003Y-58385572D01*
X149812468Y-58386333D01*
X150013876Y-58410349D01*
X150017434Y-58410424D01*
X150219660Y-58394864D01*
X150223177Y-58394244D01*
X150418526Y-58339701D01*
X150421852Y-58338411D01*
X150602886Y-58246964D01*
X150605899Y-58245052D01*
X150642993Y-58216070D01*
X150645729Y-58211235D01*
X150644724Y-58207611D01*
X150042934Y-57605821D01*
X150037800Y-57603694D01*
X150032666Y-57605821D01*
X149429967Y-58208521D01*
X149427840Y-58213655D01*
X143879116Y-58213655D01*
X143517300Y-57731233D01*
X143510000Y-57709333D01*
X143510000Y-57359956D01*
X144442079Y-57359956D01*
X144443308Y-57362922D01*
X144583872Y-57461345D01*
X144586629Y-57462937D01*
X144797774Y-57561395D01*
X144800760Y-57562482D01*
X145025797Y-57622781D01*
X145028921Y-57623332D01*
X145261011Y-57643637D01*
X145264189Y-57643637D01*
X145496279Y-57623332D01*
X145499403Y-57622781D01*
X145724440Y-57562482D01*
X145727426Y-57561395D01*
X145938571Y-57462937D01*
X145941328Y-57461345D01*
X146080180Y-57364121D01*
X146083166Y-57359434D01*
X146082471Y-57356299D01*
X146066379Y-57340207D01*
X148980459Y-57340207D01*
X148997433Y-57542340D01*
X148998073Y-57545829D01*
X149053983Y-57740811D01*
X149055290Y-57744111D01*
X149148008Y-57924520D01*
X149149931Y-57927505D01*
X149174637Y-57958676D01*
X149179491Y-57961378D01*
X149183186Y-57960326D01*
X149785179Y-57358334D01*
X149787306Y-57353200D01*
X150288294Y-57353200D01*
X150290421Y-57358334D01*
X150893589Y-57961501D01*
X150897994Y-57963326D01*
X150903038Y-57961017D01*
X151003080Y-57784909D01*
X151004522Y-57781671D01*
X151068548Y-57589202D01*
X151069335Y-57585737D01*
X151094853Y-57383740D01*
X151094995Y-57381709D01*
X151095379Y-57354221D01*
X151095294Y-57352190D01*
X151075425Y-57149558D01*
X151074734Y-57146066D01*
X151016109Y-56951893D01*
X151014756Y-56948608D01*
X150919529Y-56769511D01*
X150917564Y-56766554D01*
X150901654Y-56747048D01*
X150896762Y-56744414D01*
X150892922Y-56745566D01*
X150290421Y-57348066D01*
X150288294Y-57353200D01*
X149787306Y-57353200D01*
X149785179Y-57348066D01*
X149182911Y-56745799D01*
X149177777Y-56743672D01*
X149173909Y-56745275D01*
X149166315Y-56754325D01*
X149164305Y-56757262D01*
X149066593Y-56934999D01*
X149065187Y-56938279D01*
X149003857Y-57131616D01*
X149003120Y-57135080D01*
X148980508Y-57336669D01*
X148980459Y-57340207D01*
X146066379Y-57340207D01*
X145267734Y-56541561D01*
X145262600Y-56539434D01*
X145257466Y-56541561D01*
X144444206Y-57354822D01*
X144442079Y-57359956D01*
X143510000Y-57359956D01*
X143510000Y-56290529D01*
X143907903Y-56290529D01*
X143928208Y-56522619D01*
X143928759Y-56525743D01*
X143989058Y-56750780D01*
X143990145Y-56753766D01*
X144088603Y-56964911D01*
X144090195Y-56967668D01*
X144187419Y-57106520D01*
X144192106Y-57109506D01*
X144195241Y-57108811D01*
X145009979Y-56294074D01*
X145012106Y-56288940D01*
X145513094Y-56288940D01*
X145515221Y-56294074D01*
X146328482Y-57107334D01*
X146333616Y-57109461D01*
X146336582Y-57108232D01*
X146435005Y-56967668D01*
X146436597Y-56964911D01*
X146535055Y-56753766D01*
X146536142Y-56750780D01*
X146596441Y-56525743D01*
X146596992Y-56522619D01*
X146599445Y-56494583D01*
X149429336Y-56494583D01*
X149430437Y-56498349D01*
X150032666Y-57100579D01*
X150037800Y-57102706D01*
X150042934Y-57100579D01*
X150644805Y-56498707D01*
X150646932Y-56493573D01*
X150645364Y-56489788D01*
X150630580Y-56477559D01*
X150627623Y-56475564D01*
X150449203Y-56379092D01*
X150445932Y-56377717D01*
X150252163Y-56317735D01*
X150248683Y-56317021D01*
X150046957Y-56295819D01*
X150043408Y-56295795D01*
X149841402Y-56314179D01*
X149837916Y-56314843D01*
X149643330Y-56372114D01*
X149640037Y-56373444D01*
X149460287Y-56467415D01*
X149457309Y-56469363D01*
X149432005Y-56489708D01*
X149429336Y-56494583D01*
X146599445Y-56494583D01*
X146617297Y-56290529D01*
X146617297Y-56287351D01*
X146596992Y-56055261D01*
X146596441Y-56052137D01*
X146536142Y-55827100D01*
X146535055Y-55824114D01*
X146436597Y-55612969D01*
X146435005Y-55610212D01*
X146337781Y-55471360D01*
X146333094Y-55468374D01*
X146329959Y-55469069D01*
X145515221Y-56283806D01*
X145513094Y-56288940D01*
X145012106Y-56288940D01*
X145009979Y-56283806D01*
X144196718Y-55470546D01*
X144191584Y-55468419D01*
X144188618Y-55469648D01*
X144090195Y-55610212D01*
X144088603Y-55612969D01*
X143990145Y-55824114D01*
X143989058Y-55827100D01*
X143928759Y-56052137D01*
X143928208Y-56055261D01*
X143907903Y-56287351D01*
X143907903Y-56290529D01*
X143510000Y-56290529D01*
X143510000Y-55245000D01*
X143478135Y-55218446D01*
X144442034Y-55218446D01*
X144442729Y-55221581D01*
X145257466Y-56036319D01*
X145262600Y-56038446D01*
X145267734Y-56036319D01*
X146080994Y-55223058D01*
X146083121Y-55217924D01*
X146081892Y-55214958D01*
X145941328Y-55116535D01*
X145938571Y-55114943D01*
X145727426Y-55016485D01*
X145724440Y-55015398D01*
X145499403Y-54955099D01*
X145496279Y-54954548D01*
X145264189Y-54934243D01*
X145261011Y-54934243D01*
X145028921Y-54954548D01*
X145025797Y-54955099D01*
X144800760Y-55015398D01*
X144797774Y-55016485D01*
X144586629Y-55114943D01*
X144583872Y-55116535D01*
X144445020Y-55213759D01*
X144442034Y-55218446D01*
X143478135Y-55218446D01*
X141999133Y-53985944D01*
X141986150Y-53961209D01*
X141986000Y-53957904D01*
X141986000Y-53249458D01*
X142477361Y-53249458D01*
X142477710Y-53253003D01*
X142482461Y-53276892D01*
X142485159Y-53283407D01*
X142503268Y-53310509D01*
X142508251Y-53315492D01*
X142535356Y-53333603D01*
X142541863Y-53336298D01*
X142565759Y-53341052D01*
X142569299Y-53341400D01*
X143795100Y-53341400D01*
X143800233Y-53339273D01*
X143802360Y-53334140D01*
X143802360Y-53334139D01*
X144152360Y-53334139D01*
X144154487Y-53339272D01*
X144159620Y-53341399D01*
X145385418Y-53341399D01*
X145388963Y-53341050D01*
X145412852Y-53336299D01*
X145419367Y-53333601D01*
X145446469Y-53315492D01*
X145451452Y-53310509D01*
X145469563Y-53283404D01*
X145472258Y-53276897D01*
X145477012Y-53253001D01*
X145477360Y-53249461D01*
X145477360Y-52023660D01*
X145475233Y-52018527D01*
X145470100Y-52016400D01*
X144159620Y-52016400D01*
X144154487Y-52018527D01*
X144152360Y-52023660D01*
X144152360Y-53334139D01*
X143802360Y-53334139D01*
X143802360Y-52023660D01*
X143800233Y-52018527D01*
X143795100Y-52016400D01*
X142484621Y-52016400D01*
X142479488Y-52018527D01*
X142477361Y-52023660D01*
X142477361Y-53249458D01*
X141986000Y-53249458D01*
X141986000Y-51659140D01*
X142477360Y-51659140D01*
X142479487Y-51664273D01*
X142484620Y-51666400D01*
X143795100Y-51666400D01*
X143800233Y-51664273D01*
X143802360Y-51659140D01*
X144152360Y-51659140D01*
X144154487Y-51664273D01*
X144159620Y-51666400D01*
X145470099Y-51666400D01*
X145475232Y-51664273D01*
X145477359Y-51659140D01*
X145477359Y-50433342D01*
X145477010Y-50429797D01*
X145472259Y-50405908D01*
X145469561Y-50399393D01*
X145451452Y-50372291D01*
X145446469Y-50367308D01*
X145419364Y-50349197D01*
X145412857Y-50346502D01*
X145388961Y-50341748D01*
X145385421Y-50341400D01*
X144159620Y-50341400D01*
X144154487Y-50343527D01*
X144152360Y-50348660D01*
X144152360Y-51659140D01*
X143802360Y-51659140D01*
X143802360Y-50348661D01*
X143800233Y-50343528D01*
X143795100Y-50341401D01*
X142569302Y-50341401D01*
X142565757Y-50341750D01*
X142541868Y-50346501D01*
X142535353Y-50349199D01*
X142508251Y-50367308D01*
X142503268Y-50372291D01*
X142485157Y-50399396D01*
X142482462Y-50405903D01*
X142477708Y-50429799D01*
X142477360Y-50433339D01*
X142477360Y-51659140D01*
X141986000Y-51659140D01*
X141986000Y-50120283D01*
X141996691Y-50094474D01*
X142001285Y-50090582D01*
X142865482Y-49473299D01*
X142886696Y-49466500D01*
X145462245Y-49466500D01*
X145489375Y-49478583D01*
G37*
%TD.AperFunction*%
%TD*%
M02*
