M48
; DRILL file {KiCad (6.0.8)} date Sat Nov 19 23:45:39 2022
; FORMAT={-:-/ absolute / metric / decimal}
; #@! TF.CreationDate,2022-11-19T23:45:39+04:00
; #@! TF.GenerationSoftware,Kicad,Pcbnew,(6.0.8)
; #@! TF.FileFunction,Plated,1,2,PTH
FMAT,2
METRIC
; #@! TA.AperFunction,Plated,PTH,ComponentDrill
T1C0.700
; #@! TA.AperFunction,Plated,PTH,ComponentDrill
T2C0.762
; #@! TA.AperFunction,Plated,PTH,ComponentDrill
T3C0.800
; #@! TA.AperFunction,Plated,PTH,ComponentDrill
T4C1.000
; #@! TA.AperFunction,Plated,PTH,ComponentDrill
T5C1.001
; #@! TA.AperFunction,Plated,PTH,ComponentDrill
T6C1.199
; #@! TA.AperFunction,Plated,PTH,ComponentDrill
T7C1.200
; #@! TA.AperFunction,Plated,PTH,ComponentDrill
T8C1.400
%
G90
G05
T1
X161.201Y-65.913
X161.214Y-62.624
X168.821Y-65.913
X168.834Y-62.624
T2
X150.038Y-54.813
X150.038Y-57.353
X150.038Y-59.893
X150.038Y-62.433
X157.658Y-54.813
X157.658Y-57.353
X157.658Y-59.893
X157.658Y-62.433
T3
X154.61Y-65.722
X157.11Y-65.722
T4
X130.962Y-50.575
X130.962Y-55.575
X136.383Y-59.567
X136.383Y-64.567
X165.064Y-52.772
X165.064Y-57.772
T5
X126.492Y-58.331
X126.492Y-66.332
X145.263Y-56.289
X145.263Y-64.29
T6
X122.237Y-56.007
X122.364Y-50.609
X172.971Y-51.184
X172.971Y-58.138
T7
X150.076Y-50.444
X155.156Y-50.444
T8
X138.897Y-51.841
X143.977Y-51.841
T0
M30
