%TF.GenerationSoftware,KiCad,Pcbnew,(6.0.8)*%
%TF.CreationDate,2022-11-19T23:45:40+04:00*%
%TF.ProjectId,MC34063_Buck_Rev3,4d433334-3036-4335-9f42-75636b5f5265,rev?*%
%TF.SameCoordinates,Original*%
%TF.FileFunction,Drillmap*%
%TF.FilePolarity,Positive*%
%FSLAX45Y45*%
G04 Gerber Fmt 4.5, Leading zero omitted, Abs format (unit mm)*
G04 Created by KiCad (PCBNEW (6.0.8)) date 2022-11-19 23:45:40*
%MOMM*%
%LPD*%
G01*
G04 APERTURE LIST*
%ADD10C,0.050000*%
%ADD11C,0.200000*%
%ADD12C,0.070000*%
%ADD13C,0.076200*%
%ADD14C,0.080000*%
%ADD15C,0.100000*%
%ADD16C,0.100076*%
%ADD17C,0.119888*%
%ADD18C,0.120000*%
%ADD19C,0.140000*%
G04 APERTURE END LIST*
D10*
X17700000Y-4650000D02*
X17700000Y-6900000D01*
X17700000Y-6900000D02*
X11900000Y-6900000D01*
X11900000Y-6900000D02*
X11900000Y-4650000D01*
X11900000Y-4650000D02*
X17700000Y-4650000D01*
D11*
D12*
X16085110Y-6556300D02*
X16155110Y-6626300D01*
X16155110Y-6556300D02*
X16085110Y-6626300D01*
X16086380Y-6227370D02*
X16156380Y-6297370D01*
X16156380Y-6227370D02*
X16086380Y-6297370D01*
X16847110Y-6556300D02*
X16917110Y-6626300D01*
X16917110Y-6556300D02*
X16847110Y-6626300D01*
X16848380Y-6227370D02*
X16918380Y-6297370D01*
X16918380Y-6227370D02*
X16848380Y-6297370D01*
D13*
X15041880Y-5481320D02*
G75*
G03*
X15041880Y-5481320I-38100J0D01*
G01*
X15041880Y-5735320D02*
G75*
G03*
X15041880Y-5735320I-38100J0D01*
G01*
X15041880Y-5989320D02*
G75*
G03*
X15041880Y-5989320I-38100J0D01*
G01*
X15041880Y-6243320D02*
G75*
G03*
X15041880Y-6243320I-38100J0D01*
G01*
X15803880Y-5481320D02*
G75*
G03*
X15803880Y-5481320I-38100J0D01*
G01*
X15803880Y-5735320D02*
G75*
G03*
X15803880Y-5735320I-38100J0D01*
G01*
X15803880Y-5989320D02*
G75*
G03*
X15803880Y-5989320I-38100J0D01*
G01*
X15803880Y-6243320D02*
G75*
G03*
X15803880Y-6243320I-38100J0D01*
G01*
D14*
X15460980Y-6532250D02*
X15460980Y-6612250D01*
X15420980Y-6572250D02*
X15500980Y-6572250D01*
X15710980Y-6532250D02*
X15710980Y-6612250D01*
X15670980Y-6572250D02*
X15750980Y-6572250D01*
D15*
X13131596Y-5092876D02*
X13131596Y-5022164D01*
X13060884Y-5022164D01*
X13060884Y-5092876D01*
X13131596Y-5092876D01*
X13131596Y-5592876D02*
X13131596Y-5522164D01*
X13060884Y-5522164D01*
X13060884Y-5592876D01*
X13131596Y-5592876D01*
X13673632Y-5992036D02*
X13673632Y-5921324D01*
X13602920Y-5921324D01*
X13602920Y-5992036D01*
X13673632Y-5992036D01*
X13673632Y-6492036D02*
X13673632Y-6421324D01*
X13602920Y-6421324D01*
X13602920Y-6492036D01*
X13673632Y-6492036D01*
X16541800Y-5312586D02*
X16541800Y-5241874D01*
X16471088Y-5241874D01*
X16471088Y-5312586D01*
X16541800Y-5312586D01*
X16541800Y-5812586D02*
X16541800Y-5741874D01*
X16471088Y-5741874D01*
X16471088Y-5812586D01*
X16541800Y-5812586D01*
D16*
X12649200Y-5883148D02*
X12699238Y-5833110D01*
X12649200Y-5783072D01*
X12599162Y-5833110D01*
X12649200Y-5883148D01*
X12649200Y-6683248D02*
X12699238Y-6633210D01*
X12649200Y-6583172D01*
X12599162Y-6633210D01*
X12649200Y-6683248D01*
X14526260Y-5678932D02*
X14576298Y-5628894D01*
X14526260Y-5578856D01*
X14476222Y-5628894D01*
X14526260Y-5678932D01*
X14526260Y-6479032D02*
X14576298Y-6428994D01*
X14526260Y-6378956D01*
X14476222Y-6428994D01*
X14526260Y-6479032D01*
D17*
X12163806Y-5540756D02*
X12283694Y-5660644D01*
X12283694Y-5540756D02*
X12163806Y-5660644D01*
X12283694Y-5600700D02*
G75*
G03*
X12283694Y-5600700I-59944J0D01*
G01*
X12176506Y-5001006D02*
X12296394Y-5120894D01*
X12296394Y-5001006D02*
X12176506Y-5120894D01*
X12296394Y-5060950D02*
G75*
G03*
X12296394Y-5060950I-59944J0D01*
G01*
X17237202Y-5058410D02*
X17357090Y-5178298D01*
X17357090Y-5058410D02*
X17237202Y-5178298D01*
X17357090Y-5118354D02*
G75*
G03*
X17357090Y-5118354I-59944J0D01*
G01*
X17237202Y-5753862D02*
X17357090Y-5873750D01*
X17357090Y-5753862D02*
X17237202Y-5873750D01*
X17357090Y-5813806D02*
G75*
G03*
X17357090Y-5813806I-59944J0D01*
G01*
D18*
X14947590Y-4984440D02*
X15067590Y-5104440D01*
X15067590Y-4984440D02*
X14947590Y-5104440D01*
X15007590Y-4984440D02*
X15007590Y-5104440D01*
X14947590Y-5044440D02*
X15067590Y-5044440D01*
X15455590Y-4984440D02*
X15575590Y-5104440D01*
X15575590Y-4984440D02*
X15455590Y-5104440D01*
X15515590Y-4984440D02*
X15515590Y-5104440D01*
X15455590Y-5044440D02*
X15575590Y-5044440D01*
D19*
X13819736Y-5114140D02*
X13959736Y-5254140D01*
X13959736Y-5114140D02*
X13819736Y-5254140D01*
X13939234Y-5233638D02*
X13939234Y-5134642D01*
X13840238Y-5134642D01*
X13840238Y-5233638D01*
X13939234Y-5233638D01*
X14327736Y-5114140D02*
X14467736Y-5254140D01*
X14467736Y-5114140D02*
X14327736Y-5254140D01*
X14447234Y-5233638D02*
X14447234Y-5134642D01*
X14348238Y-5134642D01*
X14348238Y-5233638D01*
X14447234Y-5233638D01*
D11*
X12155119Y-7212976D02*
X12155119Y-7012976D01*
X12202738Y-7012976D01*
X12231309Y-7022500D01*
X12250357Y-7041548D01*
X12259881Y-7060595D01*
X12269405Y-7098690D01*
X12269405Y-7127262D01*
X12259881Y-7165357D01*
X12250357Y-7184405D01*
X12231309Y-7203452D01*
X12202738Y-7212976D01*
X12155119Y-7212976D01*
X12355119Y-7212976D02*
X12355119Y-7079643D01*
X12355119Y-7117738D02*
X12364643Y-7098690D01*
X12374167Y-7089167D01*
X12393214Y-7079643D01*
X12412262Y-7079643D01*
X12478928Y-7212976D02*
X12478928Y-7079643D01*
X12478928Y-7012976D02*
X12469405Y-7022500D01*
X12478928Y-7032024D01*
X12488452Y-7022500D01*
X12478928Y-7012976D01*
X12478928Y-7032024D01*
X12602738Y-7212976D02*
X12583690Y-7203452D01*
X12574167Y-7184405D01*
X12574167Y-7012976D01*
X12707500Y-7212976D02*
X12688452Y-7203452D01*
X12678928Y-7184405D01*
X12678928Y-7012976D01*
X12936071Y-7212976D02*
X12936071Y-7012976D01*
X13002738Y-7155833D01*
X13069405Y-7012976D01*
X13069405Y-7212976D01*
X13250357Y-7212976D02*
X13250357Y-7108214D01*
X13240833Y-7089167D01*
X13221786Y-7079643D01*
X13183690Y-7079643D01*
X13164643Y-7089167D01*
X13250357Y-7203452D02*
X13231309Y-7212976D01*
X13183690Y-7212976D01*
X13164643Y-7203452D01*
X13155119Y-7184405D01*
X13155119Y-7165357D01*
X13164643Y-7146309D01*
X13183690Y-7136786D01*
X13231309Y-7136786D01*
X13250357Y-7127262D01*
X13345595Y-7079643D02*
X13345595Y-7279643D01*
X13345595Y-7089167D02*
X13364643Y-7079643D01*
X13402738Y-7079643D01*
X13421786Y-7089167D01*
X13431309Y-7098690D01*
X13440833Y-7117738D01*
X13440833Y-7174881D01*
X13431309Y-7193928D01*
X13421786Y-7203452D01*
X13402738Y-7212976D01*
X13364643Y-7212976D01*
X13345595Y-7203452D01*
X13526548Y-7193928D02*
X13536071Y-7203452D01*
X13526548Y-7212976D01*
X13517024Y-7203452D01*
X13526548Y-7193928D01*
X13526548Y-7212976D01*
X13526548Y-7089167D02*
X13536071Y-7098690D01*
X13526548Y-7108214D01*
X13517024Y-7098690D01*
X13526548Y-7089167D01*
X13526548Y-7108214D01*
D12*
X11827500Y-7507500D02*
X11897500Y-7577500D01*
X11897500Y-7507500D02*
X11827500Y-7577500D01*
D11*
X12193214Y-7432976D02*
X12212262Y-7432976D01*
X12231309Y-7442500D01*
X12240833Y-7452024D01*
X12250357Y-7471071D01*
X12259881Y-7509167D01*
X12259881Y-7556786D01*
X12250357Y-7594881D01*
X12240833Y-7613928D01*
X12231309Y-7623452D01*
X12212262Y-7632976D01*
X12193214Y-7632976D01*
X12174167Y-7623452D01*
X12164643Y-7613928D01*
X12155119Y-7594881D01*
X12145595Y-7556786D01*
X12145595Y-7509167D01*
X12155119Y-7471071D01*
X12164643Y-7452024D01*
X12174167Y-7442500D01*
X12193214Y-7432976D01*
X12345595Y-7613928D02*
X12355119Y-7623452D01*
X12345595Y-7632976D01*
X12336071Y-7623452D01*
X12345595Y-7613928D01*
X12345595Y-7632976D01*
X12421786Y-7432976D02*
X12555119Y-7432976D01*
X12469405Y-7632976D01*
X12669405Y-7432976D02*
X12688452Y-7432976D01*
X12707500Y-7442500D01*
X12717024Y-7452024D01*
X12726548Y-7471071D01*
X12736071Y-7509167D01*
X12736071Y-7556786D01*
X12726548Y-7594881D01*
X12717024Y-7613928D01*
X12707500Y-7623452D01*
X12688452Y-7632976D01*
X12669405Y-7632976D01*
X12650357Y-7623452D01*
X12640833Y-7613928D01*
X12631309Y-7594881D01*
X12621786Y-7556786D01*
X12621786Y-7509167D01*
X12631309Y-7471071D01*
X12640833Y-7452024D01*
X12650357Y-7442500D01*
X12669405Y-7432976D01*
X12859881Y-7432976D02*
X12878928Y-7432976D01*
X12897976Y-7442500D01*
X12907500Y-7452024D01*
X12917024Y-7471071D01*
X12926548Y-7509167D01*
X12926548Y-7556786D01*
X12917024Y-7594881D01*
X12907500Y-7613928D01*
X12897976Y-7623452D01*
X12878928Y-7632976D01*
X12859881Y-7632976D01*
X12840833Y-7623452D01*
X12831309Y-7613928D01*
X12821786Y-7594881D01*
X12812262Y-7556786D01*
X12812262Y-7509167D01*
X12821786Y-7471071D01*
X12831309Y-7452024D01*
X12840833Y-7442500D01*
X12859881Y-7432976D01*
X13012262Y-7632976D02*
X13012262Y-7499643D01*
X13012262Y-7518690D02*
X13021786Y-7509167D01*
X13040833Y-7499643D01*
X13069405Y-7499643D01*
X13088452Y-7509167D01*
X13097976Y-7528214D01*
X13097976Y-7632976D01*
X13097976Y-7528214D02*
X13107500Y-7509167D01*
X13126548Y-7499643D01*
X13155119Y-7499643D01*
X13174167Y-7509167D01*
X13183690Y-7528214D01*
X13183690Y-7632976D01*
X13278928Y-7632976D02*
X13278928Y-7499643D01*
X13278928Y-7518690D02*
X13288452Y-7509167D01*
X13307500Y-7499643D01*
X13336071Y-7499643D01*
X13355119Y-7509167D01*
X13364643Y-7528214D01*
X13364643Y-7632976D01*
X13364643Y-7528214D02*
X13374167Y-7509167D01*
X13393214Y-7499643D01*
X13421786Y-7499643D01*
X13440833Y-7509167D01*
X13450357Y-7528214D01*
X13450357Y-7632976D01*
X13840833Y-7423452D02*
X13669405Y-7680595D01*
X14097976Y-7432976D02*
X14117024Y-7432976D01*
X14136071Y-7442500D01*
X14145595Y-7452024D01*
X14155119Y-7471071D01*
X14164643Y-7509167D01*
X14164643Y-7556786D01*
X14155119Y-7594881D01*
X14145595Y-7613928D01*
X14136071Y-7623452D01*
X14117024Y-7632976D01*
X14097976Y-7632976D01*
X14078928Y-7623452D01*
X14069405Y-7613928D01*
X14059881Y-7594881D01*
X14050357Y-7556786D01*
X14050357Y-7509167D01*
X14059881Y-7471071D01*
X14069405Y-7452024D01*
X14078928Y-7442500D01*
X14097976Y-7432976D01*
X14250357Y-7613928D02*
X14259881Y-7623452D01*
X14250357Y-7632976D01*
X14240833Y-7623452D01*
X14250357Y-7613928D01*
X14250357Y-7632976D01*
X14383690Y-7432976D02*
X14402738Y-7432976D01*
X14421786Y-7442500D01*
X14431309Y-7452024D01*
X14440833Y-7471071D01*
X14450357Y-7509167D01*
X14450357Y-7556786D01*
X14440833Y-7594881D01*
X14431309Y-7613928D01*
X14421786Y-7623452D01*
X14402738Y-7632976D01*
X14383690Y-7632976D01*
X14364643Y-7623452D01*
X14355119Y-7613928D01*
X14345595Y-7594881D01*
X14336071Y-7556786D01*
X14336071Y-7509167D01*
X14345595Y-7471071D01*
X14355119Y-7452024D01*
X14364643Y-7442500D01*
X14383690Y-7432976D01*
X14526548Y-7452024D02*
X14536071Y-7442500D01*
X14555119Y-7432976D01*
X14602738Y-7432976D01*
X14621786Y-7442500D01*
X14631309Y-7452024D01*
X14640833Y-7471071D01*
X14640833Y-7490119D01*
X14631309Y-7518690D01*
X14517024Y-7632976D01*
X14640833Y-7632976D01*
X14707500Y-7432976D02*
X14840833Y-7432976D01*
X14755119Y-7632976D01*
X15002738Y-7432976D02*
X14964643Y-7432976D01*
X14945595Y-7442500D01*
X14936071Y-7452024D01*
X14917024Y-7480595D01*
X14907500Y-7518690D01*
X14907500Y-7594881D01*
X14917024Y-7613928D01*
X14926548Y-7623452D01*
X14945595Y-7632976D01*
X14983690Y-7632976D01*
X15002738Y-7623452D01*
X15012262Y-7613928D01*
X15021786Y-7594881D01*
X15021786Y-7547262D01*
X15012262Y-7528214D01*
X15002738Y-7518690D01*
X14983690Y-7509167D01*
X14945595Y-7509167D01*
X14926548Y-7518690D01*
X14917024Y-7528214D01*
X14907500Y-7547262D01*
X15097976Y-7432976D02*
X15097976Y-7471071D01*
X15174167Y-7432976D02*
X15174167Y-7471071D01*
X15469405Y-7709167D02*
X15459881Y-7699643D01*
X15440833Y-7671071D01*
X15431309Y-7652024D01*
X15421786Y-7623452D01*
X15412262Y-7575833D01*
X15412262Y-7537738D01*
X15421786Y-7490119D01*
X15431309Y-7461548D01*
X15440833Y-7442500D01*
X15459881Y-7413928D01*
X15469405Y-7404405D01*
X15631309Y-7499643D02*
X15631309Y-7632976D01*
X15583690Y-7423452D02*
X15536071Y-7566309D01*
X15659881Y-7566309D01*
X15888452Y-7632976D02*
X15888452Y-7432976D01*
X15974167Y-7632976D02*
X15974167Y-7528214D01*
X15964643Y-7509167D01*
X15945595Y-7499643D01*
X15917024Y-7499643D01*
X15897976Y-7509167D01*
X15888452Y-7518690D01*
X16097976Y-7632976D02*
X16078928Y-7623452D01*
X16069405Y-7613928D01*
X16059881Y-7594881D01*
X16059881Y-7537738D01*
X16069405Y-7518690D01*
X16078928Y-7509167D01*
X16097976Y-7499643D01*
X16126548Y-7499643D01*
X16145595Y-7509167D01*
X16155119Y-7518690D01*
X16164643Y-7537738D01*
X16164643Y-7594881D01*
X16155119Y-7613928D01*
X16145595Y-7623452D01*
X16126548Y-7632976D01*
X16097976Y-7632976D01*
X16278928Y-7632976D02*
X16259881Y-7623452D01*
X16250357Y-7604405D01*
X16250357Y-7432976D01*
X16431309Y-7623452D02*
X16412262Y-7632976D01*
X16374167Y-7632976D01*
X16355119Y-7623452D01*
X16345595Y-7604405D01*
X16345595Y-7528214D01*
X16355119Y-7509167D01*
X16374167Y-7499643D01*
X16412262Y-7499643D01*
X16431309Y-7509167D01*
X16440833Y-7528214D01*
X16440833Y-7547262D01*
X16345595Y-7566309D01*
X16517024Y-7623452D02*
X16536071Y-7632976D01*
X16574167Y-7632976D01*
X16593214Y-7623452D01*
X16602738Y-7604405D01*
X16602738Y-7594881D01*
X16593214Y-7575833D01*
X16574167Y-7566309D01*
X16545595Y-7566309D01*
X16526548Y-7556786D01*
X16517024Y-7537738D01*
X16517024Y-7528214D01*
X16526548Y-7509167D01*
X16545595Y-7499643D01*
X16574167Y-7499643D01*
X16593214Y-7509167D01*
X16669405Y-7709167D02*
X16678928Y-7699643D01*
X16697976Y-7671071D01*
X16707500Y-7652024D01*
X16717024Y-7623452D01*
X16726548Y-7575833D01*
X16726548Y-7537738D01*
X16717024Y-7490119D01*
X16707500Y-7461548D01*
X16697976Y-7442500D01*
X16678928Y-7413928D01*
X16669405Y-7404405D01*
D13*
X11897500Y-7806500D02*
G75*
G03*
X11897500Y-7806500I-38100J0D01*
G01*
D11*
X12193214Y-7696976D02*
X12212262Y-7696976D01*
X12231309Y-7706500D01*
X12240833Y-7716024D01*
X12250357Y-7735071D01*
X12259881Y-7773167D01*
X12259881Y-7820786D01*
X12250357Y-7858881D01*
X12240833Y-7877928D01*
X12231309Y-7887452D01*
X12212262Y-7896976D01*
X12193214Y-7896976D01*
X12174167Y-7887452D01*
X12164643Y-7877928D01*
X12155119Y-7858881D01*
X12145595Y-7820786D01*
X12145595Y-7773167D01*
X12155119Y-7735071D01*
X12164643Y-7716024D01*
X12174167Y-7706500D01*
X12193214Y-7696976D01*
X12345595Y-7877928D02*
X12355119Y-7887452D01*
X12345595Y-7896976D01*
X12336071Y-7887452D01*
X12345595Y-7877928D01*
X12345595Y-7896976D01*
X12421786Y-7696976D02*
X12555119Y-7696976D01*
X12469405Y-7896976D01*
X12717024Y-7696976D02*
X12678928Y-7696976D01*
X12659881Y-7706500D01*
X12650357Y-7716024D01*
X12631309Y-7744595D01*
X12621786Y-7782690D01*
X12621786Y-7858881D01*
X12631309Y-7877928D01*
X12640833Y-7887452D01*
X12659881Y-7896976D01*
X12697976Y-7896976D01*
X12717024Y-7887452D01*
X12726548Y-7877928D01*
X12736071Y-7858881D01*
X12736071Y-7811262D01*
X12726548Y-7792214D01*
X12717024Y-7782690D01*
X12697976Y-7773167D01*
X12659881Y-7773167D01*
X12640833Y-7782690D01*
X12631309Y-7792214D01*
X12621786Y-7811262D01*
X12812262Y-7716024D02*
X12821786Y-7706500D01*
X12840833Y-7696976D01*
X12888452Y-7696976D01*
X12907500Y-7706500D01*
X12917024Y-7716024D01*
X12926548Y-7735071D01*
X12926548Y-7754119D01*
X12917024Y-7782690D01*
X12802738Y-7896976D01*
X12926548Y-7896976D01*
X13012262Y-7896976D02*
X13012262Y-7763643D01*
X13012262Y-7782690D02*
X13021786Y-7773167D01*
X13040833Y-7763643D01*
X13069405Y-7763643D01*
X13088452Y-7773167D01*
X13097976Y-7792214D01*
X13097976Y-7896976D01*
X13097976Y-7792214D02*
X13107500Y-7773167D01*
X13126548Y-7763643D01*
X13155119Y-7763643D01*
X13174167Y-7773167D01*
X13183690Y-7792214D01*
X13183690Y-7896976D01*
X13278928Y-7896976D02*
X13278928Y-7763643D01*
X13278928Y-7782690D02*
X13288452Y-7773167D01*
X13307500Y-7763643D01*
X13336071Y-7763643D01*
X13355119Y-7773167D01*
X13364643Y-7792214D01*
X13364643Y-7896976D01*
X13364643Y-7792214D02*
X13374167Y-7773167D01*
X13393214Y-7763643D01*
X13421786Y-7763643D01*
X13440833Y-7773167D01*
X13450357Y-7792214D01*
X13450357Y-7896976D01*
X13840833Y-7687452D02*
X13669405Y-7944595D01*
X14097976Y-7696976D02*
X14117024Y-7696976D01*
X14136071Y-7706500D01*
X14145595Y-7716024D01*
X14155119Y-7735071D01*
X14164643Y-7773167D01*
X14164643Y-7820786D01*
X14155119Y-7858881D01*
X14145595Y-7877928D01*
X14136071Y-7887452D01*
X14117024Y-7896976D01*
X14097976Y-7896976D01*
X14078928Y-7887452D01*
X14069405Y-7877928D01*
X14059881Y-7858881D01*
X14050357Y-7820786D01*
X14050357Y-7773167D01*
X14059881Y-7735071D01*
X14069405Y-7716024D01*
X14078928Y-7706500D01*
X14097976Y-7696976D01*
X14250357Y-7877928D02*
X14259881Y-7887452D01*
X14250357Y-7896976D01*
X14240833Y-7887452D01*
X14250357Y-7877928D01*
X14250357Y-7896976D01*
X14383690Y-7696976D02*
X14402738Y-7696976D01*
X14421786Y-7706500D01*
X14431309Y-7716024D01*
X14440833Y-7735071D01*
X14450357Y-7773167D01*
X14450357Y-7820786D01*
X14440833Y-7858881D01*
X14431309Y-7877928D01*
X14421786Y-7887452D01*
X14402738Y-7896976D01*
X14383690Y-7896976D01*
X14364643Y-7887452D01*
X14355119Y-7877928D01*
X14345595Y-7858881D01*
X14336071Y-7820786D01*
X14336071Y-7773167D01*
X14345595Y-7735071D01*
X14355119Y-7716024D01*
X14364643Y-7706500D01*
X14383690Y-7696976D01*
X14517024Y-7696976D02*
X14640833Y-7696976D01*
X14574167Y-7773167D01*
X14602738Y-7773167D01*
X14621786Y-7782690D01*
X14631309Y-7792214D01*
X14640833Y-7811262D01*
X14640833Y-7858881D01*
X14631309Y-7877928D01*
X14621786Y-7887452D01*
X14602738Y-7896976D01*
X14545595Y-7896976D01*
X14526548Y-7887452D01*
X14517024Y-7877928D01*
X14764643Y-7696976D02*
X14783690Y-7696976D01*
X14802738Y-7706500D01*
X14812262Y-7716024D01*
X14821786Y-7735071D01*
X14831309Y-7773167D01*
X14831309Y-7820786D01*
X14821786Y-7858881D01*
X14812262Y-7877928D01*
X14802738Y-7887452D01*
X14783690Y-7896976D01*
X14764643Y-7896976D01*
X14745595Y-7887452D01*
X14736071Y-7877928D01*
X14726548Y-7858881D01*
X14717024Y-7820786D01*
X14717024Y-7773167D01*
X14726548Y-7735071D01*
X14736071Y-7716024D01*
X14745595Y-7706500D01*
X14764643Y-7696976D01*
X14955119Y-7696976D02*
X14974167Y-7696976D01*
X14993214Y-7706500D01*
X15002738Y-7716024D01*
X15012262Y-7735071D01*
X15021786Y-7773167D01*
X15021786Y-7820786D01*
X15012262Y-7858881D01*
X15002738Y-7877928D01*
X14993214Y-7887452D01*
X14974167Y-7896976D01*
X14955119Y-7896976D01*
X14936071Y-7887452D01*
X14926548Y-7877928D01*
X14917024Y-7858881D01*
X14907500Y-7820786D01*
X14907500Y-7773167D01*
X14917024Y-7735071D01*
X14926548Y-7716024D01*
X14936071Y-7706500D01*
X14955119Y-7696976D01*
X15097976Y-7696976D02*
X15097976Y-7735071D01*
X15174167Y-7696976D02*
X15174167Y-7735071D01*
X15469405Y-7973167D02*
X15459881Y-7963643D01*
X15440833Y-7935071D01*
X15431309Y-7916024D01*
X15421786Y-7887452D01*
X15412262Y-7839833D01*
X15412262Y-7801738D01*
X15421786Y-7754119D01*
X15431309Y-7725548D01*
X15440833Y-7706500D01*
X15459881Y-7677928D01*
X15469405Y-7668405D01*
X15574167Y-7782690D02*
X15555119Y-7773167D01*
X15545595Y-7763643D01*
X15536071Y-7744595D01*
X15536071Y-7735071D01*
X15545595Y-7716024D01*
X15555119Y-7706500D01*
X15574167Y-7696976D01*
X15612262Y-7696976D01*
X15631309Y-7706500D01*
X15640833Y-7716024D01*
X15650357Y-7735071D01*
X15650357Y-7744595D01*
X15640833Y-7763643D01*
X15631309Y-7773167D01*
X15612262Y-7782690D01*
X15574167Y-7782690D01*
X15555119Y-7792214D01*
X15545595Y-7801738D01*
X15536071Y-7820786D01*
X15536071Y-7858881D01*
X15545595Y-7877928D01*
X15555119Y-7887452D01*
X15574167Y-7896976D01*
X15612262Y-7896976D01*
X15631309Y-7887452D01*
X15640833Y-7877928D01*
X15650357Y-7858881D01*
X15650357Y-7820786D01*
X15640833Y-7801738D01*
X15631309Y-7792214D01*
X15612262Y-7782690D01*
X15888452Y-7896976D02*
X15888452Y-7696976D01*
X15974167Y-7896976D02*
X15974167Y-7792214D01*
X15964643Y-7773167D01*
X15945595Y-7763643D01*
X15917024Y-7763643D01*
X15897976Y-7773167D01*
X15888452Y-7782690D01*
X16097976Y-7896976D02*
X16078928Y-7887452D01*
X16069405Y-7877928D01*
X16059881Y-7858881D01*
X16059881Y-7801738D01*
X16069405Y-7782690D01*
X16078928Y-7773167D01*
X16097976Y-7763643D01*
X16126548Y-7763643D01*
X16145595Y-7773167D01*
X16155119Y-7782690D01*
X16164643Y-7801738D01*
X16164643Y-7858881D01*
X16155119Y-7877928D01*
X16145595Y-7887452D01*
X16126548Y-7896976D01*
X16097976Y-7896976D01*
X16278928Y-7896976D02*
X16259881Y-7887452D01*
X16250357Y-7868405D01*
X16250357Y-7696976D01*
X16431309Y-7887452D02*
X16412262Y-7896976D01*
X16374167Y-7896976D01*
X16355119Y-7887452D01*
X16345595Y-7868405D01*
X16345595Y-7792214D01*
X16355119Y-7773167D01*
X16374167Y-7763643D01*
X16412262Y-7763643D01*
X16431309Y-7773167D01*
X16440833Y-7792214D01*
X16440833Y-7811262D01*
X16345595Y-7830309D01*
X16517024Y-7887452D02*
X16536071Y-7896976D01*
X16574167Y-7896976D01*
X16593214Y-7887452D01*
X16602738Y-7868405D01*
X16602738Y-7858881D01*
X16593214Y-7839833D01*
X16574167Y-7830309D01*
X16545595Y-7830309D01*
X16526548Y-7820786D01*
X16517024Y-7801738D01*
X16517024Y-7792214D01*
X16526548Y-7773167D01*
X16545595Y-7763643D01*
X16574167Y-7763643D01*
X16593214Y-7773167D01*
X16669405Y-7973167D02*
X16678928Y-7963643D01*
X16697976Y-7935071D01*
X16707500Y-7916024D01*
X16717024Y-7887452D01*
X16726548Y-7839833D01*
X16726548Y-7801738D01*
X16717024Y-7754119D01*
X16707500Y-7725548D01*
X16697976Y-7706500D01*
X16678928Y-7677928D01*
X16669405Y-7668405D01*
D14*
X11857500Y-8030500D02*
X11857500Y-8110500D01*
X11817500Y-8070500D02*
X11897500Y-8070500D01*
D11*
X12193214Y-7960976D02*
X12212262Y-7960976D01*
X12231309Y-7970500D01*
X12240833Y-7980024D01*
X12250357Y-7999071D01*
X12259881Y-8037167D01*
X12259881Y-8084786D01*
X12250357Y-8122881D01*
X12240833Y-8141928D01*
X12231309Y-8151452D01*
X12212262Y-8160976D01*
X12193214Y-8160976D01*
X12174167Y-8151452D01*
X12164643Y-8141928D01*
X12155119Y-8122881D01*
X12145595Y-8084786D01*
X12145595Y-8037167D01*
X12155119Y-7999071D01*
X12164643Y-7980024D01*
X12174167Y-7970500D01*
X12193214Y-7960976D01*
X12345595Y-8141928D02*
X12355119Y-8151452D01*
X12345595Y-8160976D01*
X12336071Y-8151452D01*
X12345595Y-8141928D01*
X12345595Y-8160976D01*
X12469405Y-8046690D02*
X12450357Y-8037167D01*
X12440833Y-8027643D01*
X12431309Y-8008595D01*
X12431309Y-7999071D01*
X12440833Y-7980024D01*
X12450357Y-7970500D01*
X12469405Y-7960976D01*
X12507500Y-7960976D01*
X12526548Y-7970500D01*
X12536071Y-7980024D01*
X12545595Y-7999071D01*
X12545595Y-8008595D01*
X12536071Y-8027643D01*
X12526548Y-8037167D01*
X12507500Y-8046690D01*
X12469405Y-8046690D01*
X12450357Y-8056214D01*
X12440833Y-8065738D01*
X12431309Y-8084786D01*
X12431309Y-8122881D01*
X12440833Y-8141928D01*
X12450357Y-8151452D01*
X12469405Y-8160976D01*
X12507500Y-8160976D01*
X12526548Y-8151452D01*
X12536071Y-8141928D01*
X12545595Y-8122881D01*
X12545595Y-8084786D01*
X12536071Y-8065738D01*
X12526548Y-8056214D01*
X12507500Y-8046690D01*
X12669405Y-7960976D02*
X12688452Y-7960976D01*
X12707500Y-7970500D01*
X12717024Y-7980024D01*
X12726548Y-7999071D01*
X12736071Y-8037167D01*
X12736071Y-8084786D01*
X12726548Y-8122881D01*
X12717024Y-8141928D01*
X12707500Y-8151452D01*
X12688452Y-8160976D01*
X12669405Y-8160976D01*
X12650357Y-8151452D01*
X12640833Y-8141928D01*
X12631309Y-8122881D01*
X12621786Y-8084786D01*
X12621786Y-8037167D01*
X12631309Y-7999071D01*
X12640833Y-7980024D01*
X12650357Y-7970500D01*
X12669405Y-7960976D01*
X12859881Y-7960976D02*
X12878928Y-7960976D01*
X12897976Y-7970500D01*
X12907500Y-7980024D01*
X12917024Y-7999071D01*
X12926548Y-8037167D01*
X12926548Y-8084786D01*
X12917024Y-8122881D01*
X12907500Y-8141928D01*
X12897976Y-8151452D01*
X12878928Y-8160976D01*
X12859881Y-8160976D01*
X12840833Y-8151452D01*
X12831309Y-8141928D01*
X12821786Y-8122881D01*
X12812262Y-8084786D01*
X12812262Y-8037167D01*
X12821786Y-7999071D01*
X12831309Y-7980024D01*
X12840833Y-7970500D01*
X12859881Y-7960976D01*
X13012262Y-8160976D02*
X13012262Y-8027643D01*
X13012262Y-8046690D02*
X13021786Y-8037167D01*
X13040833Y-8027643D01*
X13069405Y-8027643D01*
X13088452Y-8037167D01*
X13097976Y-8056214D01*
X13097976Y-8160976D01*
X13097976Y-8056214D02*
X13107500Y-8037167D01*
X13126548Y-8027643D01*
X13155119Y-8027643D01*
X13174167Y-8037167D01*
X13183690Y-8056214D01*
X13183690Y-8160976D01*
X13278928Y-8160976D02*
X13278928Y-8027643D01*
X13278928Y-8046690D02*
X13288452Y-8037167D01*
X13307500Y-8027643D01*
X13336071Y-8027643D01*
X13355119Y-8037167D01*
X13364643Y-8056214D01*
X13364643Y-8160976D01*
X13364643Y-8056214D02*
X13374167Y-8037167D01*
X13393214Y-8027643D01*
X13421786Y-8027643D01*
X13440833Y-8037167D01*
X13450357Y-8056214D01*
X13450357Y-8160976D01*
X13840833Y-7951452D02*
X13669405Y-8208595D01*
X14097976Y-7960976D02*
X14117024Y-7960976D01*
X14136071Y-7970500D01*
X14145595Y-7980024D01*
X14155119Y-7999071D01*
X14164643Y-8037167D01*
X14164643Y-8084786D01*
X14155119Y-8122881D01*
X14145595Y-8141928D01*
X14136071Y-8151452D01*
X14117024Y-8160976D01*
X14097976Y-8160976D01*
X14078928Y-8151452D01*
X14069405Y-8141928D01*
X14059881Y-8122881D01*
X14050357Y-8084786D01*
X14050357Y-8037167D01*
X14059881Y-7999071D01*
X14069405Y-7980024D01*
X14078928Y-7970500D01*
X14097976Y-7960976D01*
X14250357Y-8141928D02*
X14259881Y-8151452D01*
X14250357Y-8160976D01*
X14240833Y-8151452D01*
X14250357Y-8141928D01*
X14250357Y-8160976D01*
X14383690Y-7960976D02*
X14402738Y-7960976D01*
X14421786Y-7970500D01*
X14431309Y-7980024D01*
X14440833Y-7999071D01*
X14450357Y-8037167D01*
X14450357Y-8084786D01*
X14440833Y-8122881D01*
X14431309Y-8141928D01*
X14421786Y-8151452D01*
X14402738Y-8160976D01*
X14383690Y-8160976D01*
X14364643Y-8151452D01*
X14355119Y-8141928D01*
X14345595Y-8122881D01*
X14336071Y-8084786D01*
X14336071Y-8037167D01*
X14345595Y-7999071D01*
X14355119Y-7980024D01*
X14364643Y-7970500D01*
X14383690Y-7960976D01*
X14517024Y-7960976D02*
X14640833Y-7960976D01*
X14574167Y-8037167D01*
X14602738Y-8037167D01*
X14621786Y-8046690D01*
X14631309Y-8056214D01*
X14640833Y-8075262D01*
X14640833Y-8122881D01*
X14631309Y-8141928D01*
X14621786Y-8151452D01*
X14602738Y-8160976D01*
X14545595Y-8160976D01*
X14526548Y-8151452D01*
X14517024Y-8141928D01*
X14831309Y-8160976D02*
X14717024Y-8160976D01*
X14774167Y-8160976D02*
X14774167Y-7960976D01*
X14755119Y-7989548D01*
X14736071Y-8008595D01*
X14717024Y-8018119D01*
X15012262Y-7960976D02*
X14917024Y-7960976D01*
X14907500Y-8056214D01*
X14917024Y-8046690D01*
X14936071Y-8037167D01*
X14983690Y-8037167D01*
X15002738Y-8046690D01*
X15012262Y-8056214D01*
X15021786Y-8075262D01*
X15021786Y-8122881D01*
X15012262Y-8141928D01*
X15002738Y-8151452D01*
X14983690Y-8160976D01*
X14936071Y-8160976D01*
X14917024Y-8151452D01*
X14907500Y-8141928D01*
X15097976Y-7960976D02*
X15097976Y-7999071D01*
X15174167Y-7960976D02*
X15174167Y-7999071D01*
X15469405Y-8237167D02*
X15459881Y-8227643D01*
X15440833Y-8199071D01*
X15431309Y-8180024D01*
X15421786Y-8151452D01*
X15412262Y-8103833D01*
X15412262Y-8065738D01*
X15421786Y-8018119D01*
X15431309Y-7989548D01*
X15440833Y-7970500D01*
X15459881Y-7941928D01*
X15469405Y-7932405D01*
X15536071Y-7980024D02*
X15545595Y-7970500D01*
X15564643Y-7960976D01*
X15612262Y-7960976D01*
X15631309Y-7970500D01*
X15640833Y-7980024D01*
X15650357Y-7999071D01*
X15650357Y-8018119D01*
X15640833Y-8046690D01*
X15526548Y-8160976D01*
X15650357Y-8160976D01*
X15888452Y-8160976D02*
X15888452Y-7960976D01*
X15974167Y-8160976D02*
X15974167Y-8056214D01*
X15964643Y-8037167D01*
X15945595Y-8027643D01*
X15917024Y-8027643D01*
X15897976Y-8037167D01*
X15888452Y-8046690D01*
X16097976Y-8160976D02*
X16078928Y-8151452D01*
X16069405Y-8141928D01*
X16059881Y-8122881D01*
X16059881Y-8065738D01*
X16069405Y-8046690D01*
X16078928Y-8037167D01*
X16097976Y-8027643D01*
X16126548Y-8027643D01*
X16145595Y-8037167D01*
X16155119Y-8046690D01*
X16164643Y-8065738D01*
X16164643Y-8122881D01*
X16155119Y-8141928D01*
X16145595Y-8151452D01*
X16126548Y-8160976D01*
X16097976Y-8160976D01*
X16278928Y-8160976D02*
X16259881Y-8151452D01*
X16250357Y-8132405D01*
X16250357Y-7960976D01*
X16431309Y-8151452D02*
X16412262Y-8160976D01*
X16374167Y-8160976D01*
X16355119Y-8151452D01*
X16345595Y-8132405D01*
X16345595Y-8056214D01*
X16355119Y-8037167D01*
X16374167Y-8027643D01*
X16412262Y-8027643D01*
X16431309Y-8037167D01*
X16440833Y-8056214D01*
X16440833Y-8075262D01*
X16345595Y-8094309D01*
X16517024Y-8151452D02*
X16536071Y-8160976D01*
X16574167Y-8160976D01*
X16593214Y-8151452D01*
X16602738Y-8132405D01*
X16602738Y-8122881D01*
X16593214Y-8103833D01*
X16574167Y-8094309D01*
X16545595Y-8094309D01*
X16526548Y-8084786D01*
X16517024Y-8065738D01*
X16517024Y-8056214D01*
X16526548Y-8037167D01*
X16545595Y-8027643D01*
X16574167Y-8027643D01*
X16593214Y-8037167D01*
X16669405Y-8237167D02*
X16678928Y-8227643D01*
X16697976Y-8199071D01*
X16707500Y-8180024D01*
X16717024Y-8151452D01*
X16726548Y-8103833D01*
X16726548Y-8065738D01*
X16717024Y-8018119D01*
X16707500Y-7989548D01*
X16697976Y-7970500D01*
X16678928Y-7941928D01*
X16669405Y-7932405D01*
D15*
X11882856Y-8369856D02*
X11882856Y-8299144D01*
X11812144Y-8299144D01*
X11812144Y-8369856D01*
X11882856Y-8369856D01*
D11*
X12259881Y-8424976D02*
X12145595Y-8424976D01*
X12202738Y-8424976D02*
X12202738Y-8224976D01*
X12183690Y-8253548D01*
X12164643Y-8272595D01*
X12145595Y-8282119D01*
X12345595Y-8405929D02*
X12355119Y-8415452D01*
X12345595Y-8424976D01*
X12336071Y-8415452D01*
X12345595Y-8405929D01*
X12345595Y-8424976D01*
X12478928Y-8224976D02*
X12497976Y-8224976D01*
X12517024Y-8234500D01*
X12526548Y-8244024D01*
X12536071Y-8263071D01*
X12545595Y-8301167D01*
X12545595Y-8348786D01*
X12536071Y-8386881D01*
X12526548Y-8405929D01*
X12517024Y-8415452D01*
X12497976Y-8424976D01*
X12478928Y-8424976D01*
X12459881Y-8415452D01*
X12450357Y-8405929D01*
X12440833Y-8386881D01*
X12431309Y-8348786D01*
X12431309Y-8301167D01*
X12440833Y-8263071D01*
X12450357Y-8244024D01*
X12459881Y-8234500D01*
X12478928Y-8224976D01*
X12669405Y-8224976D02*
X12688452Y-8224976D01*
X12707500Y-8234500D01*
X12717024Y-8244024D01*
X12726548Y-8263071D01*
X12736071Y-8301167D01*
X12736071Y-8348786D01*
X12726548Y-8386881D01*
X12717024Y-8405929D01*
X12707500Y-8415452D01*
X12688452Y-8424976D01*
X12669405Y-8424976D01*
X12650357Y-8415452D01*
X12640833Y-8405929D01*
X12631309Y-8386881D01*
X12621786Y-8348786D01*
X12621786Y-8301167D01*
X12631309Y-8263071D01*
X12640833Y-8244024D01*
X12650357Y-8234500D01*
X12669405Y-8224976D01*
X12859881Y-8224976D02*
X12878928Y-8224976D01*
X12897976Y-8234500D01*
X12907500Y-8244024D01*
X12917024Y-8263071D01*
X12926548Y-8301167D01*
X12926548Y-8348786D01*
X12917024Y-8386881D01*
X12907500Y-8405929D01*
X12897976Y-8415452D01*
X12878928Y-8424976D01*
X12859881Y-8424976D01*
X12840833Y-8415452D01*
X12831309Y-8405929D01*
X12821786Y-8386881D01*
X12812262Y-8348786D01*
X12812262Y-8301167D01*
X12821786Y-8263071D01*
X12831309Y-8244024D01*
X12840833Y-8234500D01*
X12859881Y-8224976D01*
X13012262Y-8424976D02*
X13012262Y-8291643D01*
X13012262Y-8310690D02*
X13021786Y-8301167D01*
X13040833Y-8291643D01*
X13069405Y-8291643D01*
X13088452Y-8301167D01*
X13097976Y-8320214D01*
X13097976Y-8424976D01*
X13097976Y-8320214D02*
X13107500Y-8301167D01*
X13126548Y-8291643D01*
X13155119Y-8291643D01*
X13174167Y-8301167D01*
X13183690Y-8320214D01*
X13183690Y-8424976D01*
X13278928Y-8424976D02*
X13278928Y-8291643D01*
X13278928Y-8310690D02*
X13288452Y-8301167D01*
X13307500Y-8291643D01*
X13336071Y-8291643D01*
X13355119Y-8301167D01*
X13364643Y-8320214D01*
X13364643Y-8424976D01*
X13364643Y-8320214D02*
X13374167Y-8301167D01*
X13393214Y-8291643D01*
X13421786Y-8291643D01*
X13440833Y-8301167D01*
X13450357Y-8320214D01*
X13450357Y-8424976D01*
X13840833Y-8215452D02*
X13669405Y-8472595D01*
X14097976Y-8224976D02*
X14117024Y-8224976D01*
X14136071Y-8234500D01*
X14145595Y-8244024D01*
X14155119Y-8263071D01*
X14164643Y-8301167D01*
X14164643Y-8348786D01*
X14155119Y-8386881D01*
X14145595Y-8405929D01*
X14136071Y-8415452D01*
X14117024Y-8424976D01*
X14097976Y-8424976D01*
X14078928Y-8415452D01*
X14069405Y-8405929D01*
X14059881Y-8386881D01*
X14050357Y-8348786D01*
X14050357Y-8301167D01*
X14059881Y-8263071D01*
X14069405Y-8244024D01*
X14078928Y-8234500D01*
X14097976Y-8224976D01*
X14250357Y-8405929D02*
X14259881Y-8415452D01*
X14250357Y-8424976D01*
X14240833Y-8415452D01*
X14250357Y-8405929D01*
X14250357Y-8424976D01*
X14383690Y-8224976D02*
X14402738Y-8224976D01*
X14421786Y-8234500D01*
X14431309Y-8244024D01*
X14440833Y-8263071D01*
X14450357Y-8301167D01*
X14450357Y-8348786D01*
X14440833Y-8386881D01*
X14431309Y-8405929D01*
X14421786Y-8415452D01*
X14402738Y-8424976D01*
X14383690Y-8424976D01*
X14364643Y-8415452D01*
X14355119Y-8405929D01*
X14345595Y-8386881D01*
X14336071Y-8348786D01*
X14336071Y-8301167D01*
X14345595Y-8263071D01*
X14355119Y-8244024D01*
X14364643Y-8234500D01*
X14383690Y-8224976D01*
X14517024Y-8224976D02*
X14640833Y-8224976D01*
X14574167Y-8301167D01*
X14602738Y-8301167D01*
X14621786Y-8310690D01*
X14631309Y-8320214D01*
X14640833Y-8339262D01*
X14640833Y-8386881D01*
X14631309Y-8405929D01*
X14621786Y-8415452D01*
X14602738Y-8424976D01*
X14545595Y-8424976D01*
X14526548Y-8415452D01*
X14517024Y-8405929D01*
X14736071Y-8424976D02*
X14774167Y-8424976D01*
X14793214Y-8415452D01*
X14802738Y-8405929D01*
X14821786Y-8377357D01*
X14831309Y-8339262D01*
X14831309Y-8263071D01*
X14821786Y-8244024D01*
X14812262Y-8234500D01*
X14793214Y-8224976D01*
X14755119Y-8224976D01*
X14736071Y-8234500D01*
X14726548Y-8244024D01*
X14717024Y-8263071D01*
X14717024Y-8310690D01*
X14726548Y-8329738D01*
X14736071Y-8339262D01*
X14755119Y-8348786D01*
X14793214Y-8348786D01*
X14812262Y-8339262D01*
X14821786Y-8329738D01*
X14831309Y-8310690D01*
X15002738Y-8291643D02*
X15002738Y-8424976D01*
X14955119Y-8215452D02*
X14907500Y-8358309D01*
X15031309Y-8358309D01*
X15097976Y-8224976D02*
X15097976Y-8263071D01*
X15174167Y-8224976D02*
X15174167Y-8263071D01*
X15469405Y-8501167D02*
X15459881Y-8491643D01*
X15440833Y-8463071D01*
X15431309Y-8444024D01*
X15421786Y-8415452D01*
X15412262Y-8367833D01*
X15412262Y-8329738D01*
X15421786Y-8282119D01*
X15431309Y-8253548D01*
X15440833Y-8234500D01*
X15459881Y-8205928D01*
X15469405Y-8196405D01*
X15631309Y-8224976D02*
X15593214Y-8224976D01*
X15574167Y-8234500D01*
X15564643Y-8244024D01*
X15545595Y-8272595D01*
X15536071Y-8310690D01*
X15536071Y-8386881D01*
X15545595Y-8405929D01*
X15555119Y-8415452D01*
X15574167Y-8424976D01*
X15612262Y-8424976D01*
X15631309Y-8415452D01*
X15640833Y-8405929D01*
X15650357Y-8386881D01*
X15650357Y-8339262D01*
X15640833Y-8320214D01*
X15631309Y-8310690D01*
X15612262Y-8301167D01*
X15574167Y-8301167D01*
X15555119Y-8310690D01*
X15545595Y-8320214D01*
X15536071Y-8339262D01*
X15888452Y-8424976D02*
X15888452Y-8224976D01*
X15974167Y-8424976D02*
X15974167Y-8320214D01*
X15964643Y-8301167D01*
X15945595Y-8291643D01*
X15917024Y-8291643D01*
X15897976Y-8301167D01*
X15888452Y-8310690D01*
X16097976Y-8424976D02*
X16078928Y-8415452D01*
X16069405Y-8405929D01*
X16059881Y-8386881D01*
X16059881Y-8329738D01*
X16069405Y-8310690D01*
X16078928Y-8301167D01*
X16097976Y-8291643D01*
X16126548Y-8291643D01*
X16145595Y-8301167D01*
X16155119Y-8310690D01*
X16164643Y-8329738D01*
X16164643Y-8386881D01*
X16155119Y-8405929D01*
X16145595Y-8415452D01*
X16126548Y-8424976D01*
X16097976Y-8424976D01*
X16278928Y-8424976D02*
X16259881Y-8415452D01*
X16250357Y-8396405D01*
X16250357Y-8224976D01*
X16431309Y-8415452D02*
X16412262Y-8424976D01*
X16374167Y-8424976D01*
X16355119Y-8415452D01*
X16345595Y-8396405D01*
X16345595Y-8320214D01*
X16355119Y-8301167D01*
X16374167Y-8291643D01*
X16412262Y-8291643D01*
X16431309Y-8301167D01*
X16440833Y-8320214D01*
X16440833Y-8339262D01*
X16345595Y-8358309D01*
X16517024Y-8415452D02*
X16536071Y-8424976D01*
X16574167Y-8424976D01*
X16593214Y-8415452D01*
X16602738Y-8396405D01*
X16602738Y-8386881D01*
X16593214Y-8367833D01*
X16574167Y-8358309D01*
X16545595Y-8358309D01*
X16526548Y-8348786D01*
X16517024Y-8329738D01*
X16517024Y-8320214D01*
X16526548Y-8301167D01*
X16545595Y-8291643D01*
X16574167Y-8291643D01*
X16593214Y-8301167D01*
X16669405Y-8501167D02*
X16678928Y-8491643D01*
X16697976Y-8463071D01*
X16707500Y-8444024D01*
X16717024Y-8415452D01*
X16726548Y-8367833D01*
X16726548Y-8329738D01*
X16717024Y-8282119D01*
X16707500Y-8253548D01*
X16697976Y-8234500D01*
X16678928Y-8205928D01*
X16669405Y-8196405D01*
D16*
X11847462Y-8648538D02*
X11897500Y-8598500D01*
X11847462Y-8548462D01*
X11797424Y-8598500D01*
X11847462Y-8648538D01*
D11*
X12259881Y-8688976D02*
X12145595Y-8688976D01*
X12202738Y-8688976D02*
X12202738Y-8488976D01*
X12183690Y-8517548D01*
X12164643Y-8536595D01*
X12145595Y-8546119D01*
X12345595Y-8669929D02*
X12355119Y-8679452D01*
X12345595Y-8688976D01*
X12336071Y-8679452D01*
X12345595Y-8669929D01*
X12345595Y-8688976D01*
X12478928Y-8488976D02*
X12497976Y-8488976D01*
X12517024Y-8498500D01*
X12526548Y-8508024D01*
X12536071Y-8527071D01*
X12545595Y-8565167D01*
X12545595Y-8612786D01*
X12536071Y-8650881D01*
X12526548Y-8669929D01*
X12517024Y-8679452D01*
X12497976Y-8688976D01*
X12478928Y-8688976D01*
X12459881Y-8679452D01*
X12450357Y-8669929D01*
X12440833Y-8650881D01*
X12431309Y-8612786D01*
X12431309Y-8565167D01*
X12440833Y-8527071D01*
X12450357Y-8508024D01*
X12459881Y-8498500D01*
X12478928Y-8488976D01*
X12669405Y-8488976D02*
X12688452Y-8488976D01*
X12707500Y-8498500D01*
X12717024Y-8508024D01*
X12726548Y-8527071D01*
X12736071Y-8565167D01*
X12736071Y-8612786D01*
X12726548Y-8650881D01*
X12717024Y-8669929D01*
X12707500Y-8679452D01*
X12688452Y-8688976D01*
X12669405Y-8688976D01*
X12650357Y-8679452D01*
X12640833Y-8669929D01*
X12631309Y-8650881D01*
X12621786Y-8612786D01*
X12621786Y-8565167D01*
X12631309Y-8527071D01*
X12640833Y-8508024D01*
X12650357Y-8498500D01*
X12669405Y-8488976D01*
X12926548Y-8688976D02*
X12812262Y-8688976D01*
X12869405Y-8688976D02*
X12869405Y-8488976D01*
X12850357Y-8517548D01*
X12831309Y-8536595D01*
X12812262Y-8546119D01*
X13012262Y-8688976D02*
X13012262Y-8555643D01*
X13012262Y-8574690D02*
X13021786Y-8565167D01*
X13040833Y-8555643D01*
X13069405Y-8555643D01*
X13088452Y-8565167D01*
X13097976Y-8584214D01*
X13097976Y-8688976D01*
X13097976Y-8584214D02*
X13107500Y-8565167D01*
X13126548Y-8555643D01*
X13155119Y-8555643D01*
X13174167Y-8565167D01*
X13183690Y-8584214D01*
X13183690Y-8688976D01*
X13278928Y-8688976D02*
X13278928Y-8555643D01*
X13278928Y-8574690D02*
X13288452Y-8565167D01*
X13307500Y-8555643D01*
X13336071Y-8555643D01*
X13355119Y-8565167D01*
X13364643Y-8584214D01*
X13364643Y-8688976D01*
X13364643Y-8584214D02*
X13374167Y-8565167D01*
X13393214Y-8555643D01*
X13421786Y-8555643D01*
X13440833Y-8565167D01*
X13450357Y-8584214D01*
X13450357Y-8688976D01*
X13840833Y-8479452D02*
X13669405Y-8736595D01*
X14097976Y-8488976D02*
X14117024Y-8488976D01*
X14136071Y-8498500D01*
X14145595Y-8508024D01*
X14155119Y-8527071D01*
X14164643Y-8565167D01*
X14164643Y-8612786D01*
X14155119Y-8650881D01*
X14145595Y-8669929D01*
X14136071Y-8679452D01*
X14117024Y-8688976D01*
X14097976Y-8688976D01*
X14078928Y-8679452D01*
X14069405Y-8669929D01*
X14059881Y-8650881D01*
X14050357Y-8612786D01*
X14050357Y-8565167D01*
X14059881Y-8527071D01*
X14069405Y-8508024D01*
X14078928Y-8498500D01*
X14097976Y-8488976D01*
X14250357Y-8669929D02*
X14259881Y-8679452D01*
X14250357Y-8688976D01*
X14240833Y-8679452D01*
X14250357Y-8669929D01*
X14250357Y-8688976D01*
X14383690Y-8488976D02*
X14402738Y-8488976D01*
X14421786Y-8498500D01*
X14431309Y-8508024D01*
X14440833Y-8527071D01*
X14450357Y-8565167D01*
X14450357Y-8612786D01*
X14440833Y-8650881D01*
X14431309Y-8669929D01*
X14421786Y-8679452D01*
X14402738Y-8688976D01*
X14383690Y-8688976D01*
X14364643Y-8679452D01*
X14355119Y-8669929D01*
X14345595Y-8650881D01*
X14336071Y-8612786D01*
X14336071Y-8565167D01*
X14345595Y-8527071D01*
X14355119Y-8508024D01*
X14364643Y-8498500D01*
X14383690Y-8488976D01*
X14517024Y-8488976D02*
X14640833Y-8488976D01*
X14574167Y-8565167D01*
X14602738Y-8565167D01*
X14621786Y-8574690D01*
X14631309Y-8584214D01*
X14640833Y-8603262D01*
X14640833Y-8650881D01*
X14631309Y-8669929D01*
X14621786Y-8679452D01*
X14602738Y-8688976D01*
X14545595Y-8688976D01*
X14526548Y-8679452D01*
X14517024Y-8669929D01*
X14736071Y-8688976D02*
X14774167Y-8688976D01*
X14793214Y-8679452D01*
X14802738Y-8669929D01*
X14821786Y-8641357D01*
X14831309Y-8603262D01*
X14831309Y-8527071D01*
X14821786Y-8508024D01*
X14812262Y-8498500D01*
X14793214Y-8488976D01*
X14755119Y-8488976D01*
X14736071Y-8498500D01*
X14726548Y-8508024D01*
X14717024Y-8527071D01*
X14717024Y-8574690D01*
X14726548Y-8593738D01*
X14736071Y-8603262D01*
X14755119Y-8612786D01*
X14793214Y-8612786D01*
X14812262Y-8603262D01*
X14821786Y-8593738D01*
X14831309Y-8574690D01*
X15002738Y-8555643D02*
X15002738Y-8688976D01*
X14955119Y-8479452D02*
X14907500Y-8622310D01*
X15031309Y-8622310D01*
X15097976Y-8488976D02*
X15097976Y-8527071D01*
X15174167Y-8488976D02*
X15174167Y-8527071D01*
X15469405Y-8765167D02*
X15459881Y-8755643D01*
X15440833Y-8727071D01*
X15431309Y-8708024D01*
X15421786Y-8679452D01*
X15412262Y-8631833D01*
X15412262Y-8593738D01*
X15421786Y-8546119D01*
X15431309Y-8517548D01*
X15440833Y-8498500D01*
X15459881Y-8469929D01*
X15469405Y-8460405D01*
X15631309Y-8555643D02*
X15631309Y-8688976D01*
X15583690Y-8479452D02*
X15536071Y-8622310D01*
X15659881Y-8622310D01*
X15888452Y-8688976D02*
X15888452Y-8488976D01*
X15974167Y-8688976D02*
X15974167Y-8584214D01*
X15964643Y-8565167D01*
X15945595Y-8555643D01*
X15917024Y-8555643D01*
X15897976Y-8565167D01*
X15888452Y-8574690D01*
X16097976Y-8688976D02*
X16078928Y-8679452D01*
X16069405Y-8669929D01*
X16059881Y-8650881D01*
X16059881Y-8593738D01*
X16069405Y-8574690D01*
X16078928Y-8565167D01*
X16097976Y-8555643D01*
X16126548Y-8555643D01*
X16145595Y-8565167D01*
X16155119Y-8574690D01*
X16164643Y-8593738D01*
X16164643Y-8650881D01*
X16155119Y-8669929D01*
X16145595Y-8679452D01*
X16126548Y-8688976D01*
X16097976Y-8688976D01*
X16278928Y-8688976D02*
X16259881Y-8679452D01*
X16250357Y-8660405D01*
X16250357Y-8488976D01*
X16431309Y-8679452D02*
X16412262Y-8688976D01*
X16374167Y-8688976D01*
X16355119Y-8679452D01*
X16345595Y-8660405D01*
X16345595Y-8584214D01*
X16355119Y-8565167D01*
X16374167Y-8555643D01*
X16412262Y-8555643D01*
X16431309Y-8565167D01*
X16440833Y-8584214D01*
X16440833Y-8603262D01*
X16345595Y-8622310D01*
X16517024Y-8679452D02*
X16536071Y-8688976D01*
X16574167Y-8688976D01*
X16593214Y-8679452D01*
X16602738Y-8660405D01*
X16602738Y-8650881D01*
X16593214Y-8631833D01*
X16574167Y-8622310D01*
X16545595Y-8622310D01*
X16526548Y-8612786D01*
X16517024Y-8593738D01*
X16517024Y-8584214D01*
X16526548Y-8565167D01*
X16545595Y-8555643D01*
X16574167Y-8555643D01*
X16593214Y-8565167D01*
X16669405Y-8765167D02*
X16678928Y-8755643D01*
X16697976Y-8727071D01*
X16707500Y-8708024D01*
X16717024Y-8679452D01*
X16726548Y-8631833D01*
X16726548Y-8593738D01*
X16717024Y-8546119D01*
X16707500Y-8517548D01*
X16697976Y-8498500D01*
X16678928Y-8469929D01*
X16669405Y-8460405D01*
D17*
X11777612Y-8802556D02*
X11897500Y-8922444D01*
X11897500Y-8802556D02*
X11777612Y-8922444D01*
X11897500Y-8862500D02*
G75*
G03*
X11897500Y-8862500I-59944J0D01*
G01*
D11*
X12259881Y-8952976D02*
X12145595Y-8952976D01*
X12202738Y-8952976D02*
X12202738Y-8752976D01*
X12183690Y-8781548D01*
X12164643Y-8800595D01*
X12145595Y-8810119D01*
X12345595Y-8933929D02*
X12355119Y-8943452D01*
X12345595Y-8952976D01*
X12336071Y-8943452D01*
X12345595Y-8933929D01*
X12345595Y-8952976D01*
X12545595Y-8952976D02*
X12431309Y-8952976D01*
X12488452Y-8952976D02*
X12488452Y-8752976D01*
X12469405Y-8781548D01*
X12450357Y-8800595D01*
X12431309Y-8810119D01*
X12640833Y-8952976D02*
X12678928Y-8952976D01*
X12697976Y-8943452D01*
X12707500Y-8933929D01*
X12726548Y-8905357D01*
X12736071Y-8867262D01*
X12736071Y-8791071D01*
X12726548Y-8772024D01*
X12717024Y-8762500D01*
X12697976Y-8752976D01*
X12659881Y-8752976D01*
X12640833Y-8762500D01*
X12631309Y-8772024D01*
X12621786Y-8791071D01*
X12621786Y-8838690D01*
X12631309Y-8857738D01*
X12640833Y-8867262D01*
X12659881Y-8876786D01*
X12697976Y-8876786D01*
X12717024Y-8867262D01*
X12726548Y-8857738D01*
X12736071Y-8838690D01*
X12831309Y-8952976D02*
X12869405Y-8952976D01*
X12888452Y-8943452D01*
X12897976Y-8933929D01*
X12917024Y-8905357D01*
X12926548Y-8867262D01*
X12926548Y-8791071D01*
X12917024Y-8772024D01*
X12907500Y-8762500D01*
X12888452Y-8752976D01*
X12850357Y-8752976D01*
X12831309Y-8762500D01*
X12821786Y-8772024D01*
X12812262Y-8791071D01*
X12812262Y-8838690D01*
X12821786Y-8857738D01*
X12831309Y-8867262D01*
X12850357Y-8876786D01*
X12888452Y-8876786D01*
X12907500Y-8867262D01*
X12917024Y-8857738D01*
X12926548Y-8838690D01*
X13012262Y-8952976D02*
X13012262Y-8819643D01*
X13012262Y-8838690D02*
X13021786Y-8829167D01*
X13040833Y-8819643D01*
X13069405Y-8819643D01*
X13088452Y-8829167D01*
X13097976Y-8848214D01*
X13097976Y-8952976D01*
X13097976Y-8848214D02*
X13107500Y-8829167D01*
X13126548Y-8819643D01*
X13155119Y-8819643D01*
X13174167Y-8829167D01*
X13183690Y-8848214D01*
X13183690Y-8952976D01*
X13278928Y-8952976D02*
X13278928Y-8819643D01*
X13278928Y-8838690D02*
X13288452Y-8829167D01*
X13307500Y-8819643D01*
X13336071Y-8819643D01*
X13355119Y-8829167D01*
X13364643Y-8848214D01*
X13364643Y-8952976D01*
X13364643Y-8848214D02*
X13374167Y-8829167D01*
X13393214Y-8819643D01*
X13421786Y-8819643D01*
X13440833Y-8829167D01*
X13450357Y-8848214D01*
X13450357Y-8952976D01*
X13840833Y-8743452D02*
X13669405Y-9000595D01*
X14097976Y-8752976D02*
X14117024Y-8752976D01*
X14136071Y-8762500D01*
X14145595Y-8772024D01*
X14155119Y-8791071D01*
X14164643Y-8829167D01*
X14164643Y-8876786D01*
X14155119Y-8914881D01*
X14145595Y-8933929D01*
X14136071Y-8943452D01*
X14117024Y-8952976D01*
X14097976Y-8952976D01*
X14078928Y-8943452D01*
X14069405Y-8933929D01*
X14059881Y-8914881D01*
X14050357Y-8876786D01*
X14050357Y-8829167D01*
X14059881Y-8791071D01*
X14069405Y-8772024D01*
X14078928Y-8762500D01*
X14097976Y-8752976D01*
X14250357Y-8933929D02*
X14259881Y-8943452D01*
X14250357Y-8952976D01*
X14240833Y-8943452D01*
X14250357Y-8933929D01*
X14250357Y-8952976D01*
X14383690Y-8752976D02*
X14402738Y-8752976D01*
X14421786Y-8762500D01*
X14431309Y-8772024D01*
X14440833Y-8791071D01*
X14450357Y-8829167D01*
X14450357Y-8876786D01*
X14440833Y-8914881D01*
X14431309Y-8933929D01*
X14421786Y-8943452D01*
X14402738Y-8952976D01*
X14383690Y-8952976D01*
X14364643Y-8943452D01*
X14355119Y-8933929D01*
X14345595Y-8914881D01*
X14336071Y-8876786D01*
X14336071Y-8829167D01*
X14345595Y-8791071D01*
X14355119Y-8772024D01*
X14364643Y-8762500D01*
X14383690Y-8752976D01*
X14621786Y-8819643D02*
X14621786Y-8952976D01*
X14574167Y-8743452D02*
X14526548Y-8886310D01*
X14650357Y-8886310D01*
X14707500Y-8752976D02*
X14840833Y-8752976D01*
X14755119Y-8952976D01*
X14907500Y-8772024D02*
X14917024Y-8762500D01*
X14936071Y-8752976D01*
X14983690Y-8752976D01*
X15002738Y-8762500D01*
X15012262Y-8772024D01*
X15021786Y-8791071D01*
X15021786Y-8810119D01*
X15012262Y-8838690D01*
X14897976Y-8952976D01*
X15021786Y-8952976D01*
X15097976Y-8752976D02*
X15097976Y-8791071D01*
X15174167Y-8752976D02*
X15174167Y-8791071D01*
X15469405Y-9029167D02*
X15459881Y-9019643D01*
X15440833Y-8991071D01*
X15431309Y-8972024D01*
X15421786Y-8943452D01*
X15412262Y-8895833D01*
X15412262Y-8857738D01*
X15421786Y-8810119D01*
X15431309Y-8781548D01*
X15440833Y-8762500D01*
X15459881Y-8733929D01*
X15469405Y-8724405D01*
X15631309Y-8819643D02*
X15631309Y-8952976D01*
X15583690Y-8743452D02*
X15536071Y-8886310D01*
X15659881Y-8886310D01*
X15888452Y-8952976D02*
X15888452Y-8752976D01*
X15974167Y-8952976D02*
X15974167Y-8848214D01*
X15964643Y-8829167D01*
X15945595Y-8819643D01*
X15917024Y-8819643D01*
X15897976Y-8829167D01*
X15888452Y-8838690D01*
X16097976Y-8952976D02*
X16078928Y-8943452D01*
X16069405Y-8933929D01*
X16059881Y-8914881D01*
X16059881Y-8857738D01*
X16069405Y-8838690D01*
X16078928Y-8829167D01*
X16097976Y-8819643D01*
X16126548Y-8819643D01*
X16145595Y-8829167D01*
X16155119Y-8838690D01*
X16164643Y-8857738D01*
X16164643Y-8914881D01*
X16155119Y-8933929D01*
X16145595Y-8943452D01*
X16126548Y-8952976D01*
X16097976Y-8952976D01*
X16278928Y-8952976D02*
X16259881Y-8943452D01*
X16250357Y-8924405D01*
X16250357Y-8752976D01*
X16431309Y-8943452D02*
X16412262Y-8952976D01*
X16374167Y-8952976D01*
X16355119Y-8943452D01*
X16345595Y-8924405D01*
X16345595Y-8848214D01*
X16355119Y-8829167D01*
X16374167Y-8819643D01*
X16412262Y-8819643D01*
X16431309Y-8829167D01*
X16440833Y-8848214D01*
X16440833Y-8867262D01*
X16345595Y-8886310D01*
X16517024Y-8943452D02*
X16536071Y-8952976D01*
X16574167Y-8952976D01*
X16593214Y-8943452D01*
X16602738Y-8924405D01*
X16602738Y-8914881D01*
X16593214Y-8895833D01*
X16574167Y-8886310D01*
X16545595Y-8886310D01*
X16526548Y-8876786D01*
X16517024Y-8857738D01*
X16517024Y-8848214D01*
X16526548Y-8829167D01*
X16545595Y-8819643D01*
X16574167Y-8819643D01*
X16593214Y-8829167D01*
X16669405Y-9029167D02*
X16678928Y-9019643D01*
X16697976Y-8991071D01*
X16707500Y-8972024D01*
X16717024Y-8943452D01*
X16726548Y-8895833D01*
X16726548Y-8857738D01*
X16717024Y-8810119D01*
X16707500Y-8781548D01*
X16697976Y-8762500D01*
X16678928Y-8733929D01*
X16669405Y-8724405D01*
D18*
X11777500Y-9066500D02*
X11897500Y-9186500D01*
X11897500Y-9066500D02*
X11777500Y-9186500D01*
X11837500Y-9066500D02*
X11837500Y-9186500D01*
X11777500Y-9126500D02*
X11897500Y-9126500D01*
D11*
X12259881Y-9216976D02*
X12145595Y-9216976D01*
X12202738Y-9216976D02*
X12202738Y-9016976D01*
X12183690Y-9045548D01*
X12164643Y-9064595D01*
X12145595Y-9074119D01*
X12345595Y-9197929D02*
X12355119Y-9207452D01*
X12345595Y-9216976D01*
X12336071Y-9207452D01*
X12345595Y-9197929D01*
X12345595Y-9216976D01*
X12431309Y-9036024D02*
X12440833Y-9026500D01*
X12459881Y-9016976D01*
X12507500Y-9016976D01*
X12526548Y-9026500D01*
X12536071Y-9036024D01*
X12545595Y-9055071D01*
X12545595Y-9074119D01*
X12536071Y-9102690D01*
X12421786Y-9216976D01*
X12545595Y-9216976D01*
X12669405Y-9016976D02*
X12688452Y-9016976D01*
X12707500Y-9026500D01*
X12717024Y-9036024D01*
X12726548Y-9055071D01*
X12736071Y-9093167D01*
X12736071Y-9140786D01*
X12726548Y-9178881D01*
X12717024Y-9197929D01*
X12707500Y-9207452D01*
X12688452Y-9216976D01*
X12669405Y-9216976D01*
X12650357Y-9207452D01*
X12640833Y-9197929D01*
X12631309Y-9178881D01*
X12621786Y-9140786D01*
X12621786Y-9093167D01*
X12631309Y-9055071D01*
X12640833Y-9036024D01*
X12650357Y-9026500D01*
X12669405Y-9016976D01*
X12859881Y-9016976D02*
X12878928Y-9016976D01*
X12897976Y-9026500D01*
X12907500Y-9036024D01*
X12917024Y-9055071D01*
X12926548Y-9093167D01*
X12926548Y-9140786D01*
X12917024Y-9178881D01*
X12907500Y-9197929D01*
X12897976Y-9207452D01*
X12878928Y-9216976D01*
X12859881Y-9216976D01*
X12840833Y-9207452D01*
X12831309Y-9197929D01*
X12821786Y-9178881D01*
X12812262Y-9140786D01*
X12812262Y-9093167D01*
X12821786Y-9055071D01*
X12831309Y-9036024D01*
X12840833Y-9026500D01*
X12859881Y-9016976D01*
X13012262Y-9216976D02*
X13012262Y-9083643D01*
X13012262Y-9102690D02*
X13021786Y-9093167D01*
X13040833Y-9083643D01*
X13069405Y-9083643D01*
X13088452Y-9093167D01*
X13097976Y-9112214D01*
X13097976Y-9216976D01*
X13097976Y-9112214D02*
X13107500Y-9093167D01*
X13126548Y-9083643D01*
X13155119Y-9083643D01*
X13174167Y-9093167D01*
X13183690Y-9112214D01*
X13183690Y-9216976D01*
X13278928Y-9216976D02*
X13278928Y-9083643D01*
X13278928Y-9102690D02*
X13288452Y-9093167D01*
X13307500Y-9083643D01*
X13336071Y-9083643D01*
X13355119Y-9093167D01*
X13364643Y-9112214D01*
X13364643Y-9216976D01*
X13364643Y-9112214D02*
X13374167Y-9093167D01*
X13393214Y-9083643D01*
X13421786Y-9083643D01*
X13440833Y-9093167D01*
X13450357Y-9112214D01*
X13450357Y-9216976D01*
X13840833Y-9007452D02*
X13669405Y-9264595D01*
X14097976Y-9016976D02*
X14117024Y-9016976D01*
X14136071Y-9026500D01*
X14145595Y-9036024D01*
X14155119Y-9055071D01*
X14164643Y-9093167D01*
X14164643Y-9140786D01*
X14155119Y-9178881D01*
X14145595Y-9197929D01*
X14136071Y-9207452D01*
X14117024Y-9216976D01*
X14097976Y-9216976D01*
X14078928Y-9207452D01*
X14069405Y-9197929D01*
X14059881Y-9178881D01*
X14050357Y-9140786D01*
X14050357Y-9093167D01*
X14059881Y-9055071D01*
X14069405Y-9036024D01*
X14078928Y-9026500D01*
X14097976Y-9016976D01*
X14250357Y-9197929D02*
X14259881Y-9207452D01*
X14250357Y-9216976D01*
X14240833Y-9207452D01*
X14250357Y-9197929D01*
X14250357Y-9216976D01*
X14383690Y-9016976D02*
X14402738Y-9016976D01*
X14421786Y-9026500D01*
X14431309Y-9036024D01*
X14440833Y-9055071D01*
X14450357Y-9093167D01*
X14450357Y-9140786D01*
X14440833Y-9178881D01*
X14431309Y-9197929D01*
X14421786Y-9207452D01*
X14402738Y-9216976D01*
X14383690Y-9216976D01*
X14364643Y-9207452D01*
X14355119Y-9197929D01*
X14345595Y-9178881D01*
X14336071Y-9140786D01*
X14336071Y-9093167D01*
X14345595Y-9055071D01*
X14355119Y-9036024D01*
X14364643Y-9026500D01*
X14383690Y-9016976D01*
X14621786Y-9083643D02*
X14621786Y-9216976D01*
X14574167Y-9007452D02*
X14526548Y-9150310D01*
X14650357Y-9150310D01*
X14707500Y-9016976D02*
X14840833Y-9016976D01*
X14755119Y-9216976D01*
X14907500Y-9036024D02*
X14917024Y-9026500D01*
X14936071Y-9016976D01*
X14983690Y-9016976D01*
X15002738Y-9026500D01*
X15012262Y-9036024D01*
X15021786Y-9055071D01*
X15021786Y-9074119D01*
X15012262Y-9102690D01*
X14897976Y-9216976D01*
X15021786Y-9216976D01*
X15097976Y-9016976D02*
X15097976Y-9055071D01*
X15174167Y-9016976D02*
X15174167Y-9055071D01*
X15469405Y-9293167D02*
X15459881Y-9283643D01*
X15440833Y-9255071D01*
X15431309Y-9236024D01*
X15421786Y-9207452D01*
X15412262Y-9159833D01*
X15412262Y-9121738D01*
X15421786Y-9074119D01*
X15431309Y-9045548D01*
X15440833Y-9026500D01*
X15459881Y-8997929D01*
X15469405Y-8988405D01*
X15536071Y-9036024D02*
X15545595Y-9026500D01*
X15564643Y-9016976D01*
X15612262Y-9016976D01*
X15631309Y-9026500D01*
X15640833Y-9036024D01*
X15650357Y-9055071D01*
X15650357Y-9074119D01*
X15640833Y-9102690D01*
X15526548Y-9216976D01*
X15650357Y-9216976D01*
X15888452Y-9216976D02*
X15888452Y-9016976D01*
X15974167Y-9216976D02*
X15974167Y-9112214D01*
X15964643Y-9093167D01*
X15945595Y-9083643D01*
X15917024Y-9083643D01*
X15897976Y-9093167D01*
X15888452Y-9102690D01*
X16097976Y-9216976D02*
X16078928Y-9207452D01*
X16069405Y-9197929D01*
X16059881Y-9178881D01*
X16059881Y-9121738D01*
X16069405Y-9102690D01*
X16078928Y-9093167D01*
X16097976Y-9083643D01*
X16126548Y-9083643D01*
X16145595Y-9093167D01*
X16155119Y-9102690D01*
X16164643Y-9121738D01*
X16164643Y-9178881D01*
X16155119Y-9197929D01*
X16145595Y-9207452D01*
X16126548Y-9216976D01*
X16097976Y-9216976D01*
X16278928Y-9216976D02*
X16259881Y-9207452D01*
X16250357Y-9188405D01*
X16250357Y-9016976D01*
X16431309Y-9207452D02*
X16412262Y-9216976D01*
X16374167Y-9216976D01*
X16355119Y-9207452D01*
X16345595Y-9188405D01*
X16345595Y-9112214D01*
X16355119Y-9093167D01*
X16374167Y-9083643D01*
X16412262Y-9083643D01*
X16431309Y-9093167D01*
X16440833Y-9112214D01*
X16440833Y-9131262D01*
X16345595Y-9150310D01*
X16517024Y-9207452D02*
X16536071Y-9216976D01*
X16574167Y-9216976D01*
X16593214Y-9207452D01*
X16602738Y-9188405D01*
X16602738Y-9178881D01*
X16593214Y-9159833D01*
X16574167Y-9150310D01*
X16545595Y-9150310D01*
X16526548Y-9140786D01*
X16517024Y-9121738D01*
X16517024Y-9112214D01*
X16526548Y-9093167D01*
X16545595Y-9083643D01*
X16574167Y-9083643D01*
X16593214Y-9093167D01*
X16669405Y-9293167D02*
X16678928Y-9283643D01*
X16697976Y-9255071D01*
X16707500Y-9236024D01*
X16717024Y-9207452D01*
X16726548Y-9159833D01*
X16726548Y-9121738D01*
X16717024Y-9074119D01*
X16707500Y-9045548D01*
X16697976Y-9026500D01*
X16678928Y-8997929D01*
X16669405Y-8988405D01*
D19*
X11757500Y-9320500D02*
X11897500Y-9460500D01*
X11897500Y-9320500D02*
X11757500Y-9460500D01*
X11876998Y-9439998D02*
X11876998Y-9341002D01*
X11778002Y-9341002D01*
X11778002Y-9439998D01*
X11876998Y-9439998D01*
D11*
X12259881Y-9480976D02*
X12145595Y-9480976D01*
X12202738Y-9480976D02*
X12202738Y-9280976D01*
X12183690Y-9309548D01*
X12164643Y-9328595D01*
X12145595Y-9338119D01*
X12345595Y-9461929D02*
X12355119Y-9471452D01*
X12345595Y-9480976D01*
X12336071Y-9471452D01*
X12345595Y-9461929D01*
X12345595Y-9480976D01*
X12526548Y-9347643D02*
X12526548Y-9480976D01*
X12478928Y-9271452D02*
X12431309Y-9414310D01*
X12555119Y-9414310D01*
X12669405Y-9280976D02*
X12688452Y-9280976D01*
X12707500Y-9290500D01*
X12717024Y-9300024D01*
X12726548Y-9319071D01*
X12736071Y-9357167D01*
X12736071Y-9404786D01*
X12726548Y-9442881D01*
X12717024Y-9461929D01*
X12707500Y-9471452D01*
X12688452Y-9480976D01*
X12669405Y-9480976D01*
X12650357Y-9471452D01*
X12640833Y-9461929D01*
X12631309Y-9442881D01*
X12621786Y-9404786D01*
X12621786Y-9357167D01*
X12631309Y-9319071D01*
X12640833Y-9300024D01*
X12650357Y-9290500D01*
X12669405Y-9280976D01*
X12859881Y-9280976D02*
X12878928Y-9280976D01*
X12897976Y-9290500D01*
X12907500Y-9300024D01*
X12917024Y-9319071D01*
X12926548Y-9357167D01*
X12926548Y-9404786D01*
X12917024Y-9442881D01*
X12907500Y-9461929D01*
X12897976Y-9471452D01*
X12878928Y-9480976D01*
X12859881Y-9480976D01*
X12840833Y-9471452D01*
X12831309Y-9461929D01*
X12821786Y-9442881D01*
X12812262Y-9404786D01*
X12812262Y-9357167D01*
X12821786Y-9319071D01*
X12831309Y-9300024D01*
X12840833Y-9290500D01*
X12859881Y-9280976D01*
X13012262Y-9480976D02*
X13012262Y-9347643D01*
X13012262Y-9366690D02*
X13021786Y-9357167D01*
X13040833Y-9347643D01*
X13069405Y-9347643D01*
X13088452Y-9357167D01*
X13097976Y-9376214D01*
X13097976Y-9480976D01*
X13097976Y-9376214D02*
X13107500Y-9357167D01*
X13126548Y-9347643D01*
X13155119Y-9347643D01*
X13174167Y-9357167D01*
X13183690Y-9376214D01*
X13183690Y-9480976D01*
X13278928Y-9480976D02*
X13278928Y-9347643D01*
X13278928Y-9366690D02*
X13288452Y-9357167D01*
X13307500Y-9347643D01*
X13336071Y-9347643D01*
X13355119Y-9357167D01*
X13364643Y-9376214D01*
X13364643Y-9480976D01*
X13364643Y-9376214D02*
X13374167Y-9357167D01*
X13393214Y-9347643D01*
X13421786Y-9347643D01*
X13440833Y-9357167D01*
X13450357Y-9376214D01*
X13450357Y-9480976D01*
X13840833Y-9271452D02*
X13669405Y-9528595D01*
X14097976Y-9280976D02*
X14117024Y-9280976D01*
X14136071Y-9290500D01*
X14145595Y-9300024D01*
X14155119Y-9319071D01*
X14164643Y-9357167D01*
X14164643Y-9404786D01*
X14155119Y-9442881D01*
X14145595Y-9461929D01*
X14136071Y-9471452D01*
X14117024Y-9480976D01*
X14097976Y-9480976D01*
X14078928Y-9471452D01*
X14069405Y-9461929D01*
X14059881Y-9442881D01*
X14050357Y-9404786D01*
X14050357Y-9357167D01*
X14059881Y-9319071D01*
X14069405Y-9300024D01*
X14078928Y-9290500D01*
X14097976Y-9280976D01*
X14250357Y-9461929D02*
X14259881Y-9471452D01*
X14250357Y-9480976D01*
X14240833Y-9471452D01*
X14250357Y-9461929D01*
X14250357Y-9480976D01*
X14383690Y-9280976D02*
X14402738Y-9280976D01*
X14421786Y-9290500D01*
X14431309Y-9300024D01*
X14440833Y-9319071D01*
X14450357Y-9357167D01*
X14450357Y-9404786D01*
X14440833Y-9442881D01*
X14431309Y-9461929D01*
X14421786Y-9471452D01*
X14402738Y-9480976D01*
X14383690Y-9480976D01*
X14364643Y-9471452D01*
X14355119Y-9461929D01*
X14345595Y-9442881D01*
X14336071Y-9404786D01*
X14336071Y-9357167D01*
X14345595Y-9319071D01*
X14355119Y-9300024D01*
X14364643Y-9290500D01*
X14383690Y-9280976D01*
X14631309Y-9280976D02*
X14536071Y-9280976D01*
X14526548Y-9376214D01*
X14536071Y-9366690D01*
X14555119Y-9357167D01*
X14602738Y-9357167D01*
X14621786Y-9366690D01*
X14631309Y-9376214D01*
X14640833Y-9395262D01*
X14640833Y-9442881D01*
X14631309Y-9461929D01*
X14621786Y-9471452D01*
X14602738Y-9480976D01*
X14555119Y-9480976D01*
X14536071Y-9471452D01*
X14526548Y-9461929D01*
X14821786Y-9280976D02*
X14726548Y-9280976D01*
X14717024Y-9376214D01*
X14726548Y-9366690D01*
X14745595Y-9357167D01*
X14793214Y-9357167D01*
X14812262Y-9366690D01*
X14821786Y-9376214D01*
X14831309Y-9395262D01*
X14831309Y-9442881D01*
X14821786Y-9461929D01*
X14812262Y-9471452D01*
X14793214Y-9480976D01*
X14745595Y-9480976D01*
X14726548Y-9471452D01*
X14717024Y-9461929D01*
X15021786Y-9480976D02*
X14907500Y-9480976D01*
X14964643Y-9480976D02*
X14964643Y-9280976D01*
X14945595Y-9309548D01*
X14926548Y-9328595D01*
X14907500Y-9338119D01*
X15097976Y-9280976D02*
X15097976Y-9319071D01*
X15174167Y-9280976D02*
X15174167Y-9319071D01*
X15469405Y-9557167D02*
X15459881Y-9547643D01*
X15440833Y-9519071D01*
X15431309Y-9500024D01*
X15421786Y-9471452D01*
X15412262Y-9423833D01*
X15412262Y-9385738D01*
X15421786Y-9338119D01*
X15431309Y-9309548D01*
X15440833Y-9290500D01*
X15459881Y-9261929D01*
X15469405Y-9252405D01*
X15536071Y-9300024D02*
X15545595Y-9290500D01*
X15564643Y-9280976D01*
X15612262Y-9280976D01*
X15631309Y-9290500D01*
X15640833Y-9300024D01*
X15650357Y-9319071D01*
X15650357Y-9338119D01*
X15640833Y-9366690D01*
X15526548Y-9480976D01*
X15650357Y-9480976D01*
X15888452Y-9480976D02*
X15888452Y-9280976D01*
X15974167Y-9480976D02*
X15974167Y-9376214D01*
X15964643Y-9357167D01*
X15945595Y-9347643D01*
X15917024Y-9347643D01*
X15897976Y-9357167D01*
X15888452Y-9366690D01*
X16097976Y-9480976D02*
X16078928Y-9471452D01*
X16069405Y-9461929D01*
X16059881Y-9442881D01*
X16059881Y-9385738D01*
X16069405Y-9366690D01*
X16078928Y-9357167D01*
X16097976Y-9347643D01*
X16126548Y-9347643D01*
X16145595Y-9357167D01*
X16155119Y-9366690D01*
X16164643Y-9385738D01*
X16164643Y-9442881D01*
X16155119Y-9461929D01*
X16145595Y-9471452D01*
X16126548Y-9480976D01*
X16097976Y-9480976D01*
X16278928Y-9480976D02*
X16259881Y-9471452D01*
X16250357Y-9452405D01*
X16250357Y-9280976D01*
X16431309Y-9471452D02*
X16412262Y-9480976D01*
X16374167Y-9480976D01*
X16355119Y-9471452D01*
X16345595Y-9452405D01*
X16345595Y-9376214D01*
X16355119Y-9357167D01*
X16374167Y-9347643D01*
X16412262Y-9347643D01*
X16431309Y-9357167D01*
X16440833Y-9376214D01*
X16440833Y-9395262D01*
X16345595Y-9414310D01*
X16517024Y-9471452D02*
X16536071Y-9480976D01*
X16574167Y-9480976D01*
X16593214Y-9471452D01*
X16602738Y-9452405D01*
X16602738Y-9442881D01*
X16593214Y-9423833D01*
X16574167Y-9414310D01*
X16545595Y-9414310D01*
X16526548Y-9404786D01*
X16517024Y-9385738D01*
X16517024Y-9376214D01*
X16526548Y-9357167D01*
X16545595Y-9347643D01*
X16574167Y-9347643D01*
X16593214Y-9357167D01*
X16669405Y-9557167D02*
X16678928Y-9547643D01*
X16697976Y-9519071D01*
X16707500Y-9500024D01*
X16717024Y-9471452D01*
X16726548Y-9423833D01*
X16726548Y-9385738D01*
X16717024Y-9338119D01*
X16707500Y-9309548D01*
X16697976Y-9290500D01*
X16678928Y-9261929D01*
X16669405Y-9252405D01*
M02*
