%TF.GenerationSoftware,KiCad,Pcbnew,(6.0.8)*%
%TF.CreationDate,2022-11-19T23:45:41+04:00*%
%TF.ProjectId,MC34063_Buck_Rev3,4d433334-3036-4335-9f42-75636b5f5265,rev?*%
%TF.SameCoordinates,Original*%
%TF.FileFunction,Drillmap*%
%TF.FilePolarity,Positive*%
%FSLAX45Y45*%
G04 Gerber Fmt 4.5, Leading zero omitted, Abs format (unit mm)*
G04 Created by KiCad (PCBNEW (6.0.8)) date 2022-11-19 23:45:41*
%MOMM*%
%LPD*%
G01*
G04 APERTURE LIST*
%ADD10C,0.050000*%
%ADD11C,0.200000*%
G04 APERTURE END LIST*
D10*
X17700000Y-4650000D02*
X17700000Y-6900000D01*
X17700000Y-6900000D02*
X11900000Y-6900000D01*
X11900000Y-6900000D02*
X11900000Y-4650000D01*
X11900000Y-4650000D02*
X17700000Y-4650000D01*
D11*
X12155119Y-7212976D02*
X12155119Y-7012976D01*
X12202738Y-7012976D01*
X12231309Y-7022500D01*
X12250357Y-7041548D01*
X12259881Y-7060595D01*
X12269405Y-7098690D01*
X12269405Y-7127262D01*
X12259881Y-7165357D01*
X12250357Y-7184405D01*
X12231309Y-7203452D01*
X12202738Y-7212976D01*
X12155119Y-7212976D01*
X12355119Y-7212976D02*
X12355119Y-7079643D01*
X12355119Y-7117738D02*
X12364643Y-7098690D01*
X12374167Y-7089167D01*
X12393214Y-7079643D01*
X12412262Y-7079643D01*
X12478928Y-7212976D02*
X12478928Y-7079643D01*
X12478928Y-7012976D02*
X12469405Y-7022500D01*
X12478928Y-7032024D01*
X12488452Y-7022500D01*
X12478928Y-7012976D01*
X12478928Y-7032024D01*
X12602738Y-7212976D02*
X12583690Y-7203452D01*
X12574167Y-7184405D01*
X12574167Y-7012976D01*
X12707500Y-7212976D02*
X12688452Y-7203452D01*
X12678928Y-7184405D01*
X12678928Y-7012976D01*
X12936071Y-7212976D02*
X12936071Y-7012976D01*
X13002738Y-7155833D01*
X13069405Y-7012976D01*
X13069405Y-7212976D01*
X13250357Y-7212976D02*
X13250357Y-7108214D01*
X13240833Y-7089167D01*
X13221786Y-7079643D01*
X13183690Y-7079643D01*
X13164643Y-7089167D01*
X13250357Y-7203452D02*
X13231309Y-7212976D01*
X13183690Y-7212976D01*
X13164643Y-7203452D01*
X13155119Y-7184405D01*
X13155119Y-7165357D01*
X13164643Y-7146309D01*
X13183690Y-7136786D01*
X13231309Y-7136786D01*
X13250357Y-7127262D01*
X13345595Y-7079643D02*
X13345595Y-7279643D01*
X13345595Y-7089167D02*
X13364643Y-7079643D01*
X13402738Y-7079643D01*
X13421786Y-7089167D01*
X13431309Y-7098690D01*
X13440833Y-7117738D01*
X13440833Y-7174881D01*
X13431309Y-7193928D01*
X13421786Y-7203452D01*
X13402738Y-7212976D01*
X13364643Y-7212976D01*
X13345595Y-7203452D01*
X13526548Y-7193928D02*
X13536071Y-7203452D01*
X13526548Y-7212976D01*
X13517024Y-7203452D01*
X13526548Y-7193928D01*
X13526548Y-7212976D01*
X13526548Y-7089167D02*
X13536071Y-7098690D01*
X13526548Y-7108214D01*
X13517024Y-7098690D01*
X13526548Y-7089167D01*
X13526548Y-7108214D01*
M02*
