%TF.GenerationSoftware,KiCad,Pcbnew,(6.0.8)*%
%TF.CreationDate,2022-11-19T23:45:32+04:00*%
%TF.ProjectId,MC34063_Buck_Rev3,4d433334-3036-4335-9f42-75636b5f5265,rev?*%
%TF.SameCoordinates,Original*%
%TF.FileFunction,Legend,Top*%
%TF.FilePolarity,Positive*%
%FSLAX46Y46*%
G04 Gerber Fmt 4.6, Leading zero omitted, Abs format (unit mm)*
G04 Created by KiCad (PCBNEW (6.0.8)) date 2022-11-19 23:45:32*
%MOMM*%
%LPD*%
G01*
G04 APERTURE LIST*
%ADD10C,0.150000*%
%ADD11C,0.120000*%
G04 APERTURE END LIST*
D10*
%TO.C,C1*%
X160429913Y-49343582D02*
X160382294Y-49391201D01*
X160239437Y-49438820D01*
X160144199Y-49438820D01*
X160001341Y-49391201D01*
X159906103Y-49295963D01*
X159858484Y-49200725D01*
X159810865Y-49010249D01*
X159810865Y-48867392D01*
X159858484Y-48676916D01*
X159906103Y-48581678D01*
X160001341Y-48486440D01*
X160144199Y-48438820D01*
X160239437Y-48438820D01*
X160382294Y-48486440D01*
X160429913Y-48534059D01*
X161382294Y-49438820D02*
X160810865Y-49438820D01*
X161096580Y-49438820D02*
X161096580Y-48438820D01*
X161001341Y-48581678D01*
X160906103Y-48676916D01*
X160810865Y-48724535D01*
%TO.C,C2*%
X152228253Y-66470802D02*
X152180634Y-66518421D01*
X152037777Y-66566040D01*
X151942539Y-66566040D01*
X151799681Y-66518421D01*
X151704443Y-66423183D01*
X151656824Y-66327945D01*
X151609205Y-66137469D01*
X151609205Y-65994612D01*
X151656824Y-65804136D01*
X151704443Y-65708898D01*
X151799681Y-65613660D01*
X151942539Y-65566040D01*
X152037777Y-65566040D01*
X152180634Y-65613660D01*
X152228253Y-65661279D01*
X152609205Y-65661279D02*
X152656824Y-65613660D01*
X152752062Y-65566040D01*
X152990158Y-65566040D01*
X153085396Y-65613660D01*
X153133015Y-65661279D01*
X153180634Y-65756517D01*
X153180634Y-65851755D01*
X153133015Y-65994612D01*
X152561586Y-66566040D01*
X153180634Y-66566040D01*
%TO.C,C3*%
X131593293Y-56326042D02*
X131545674Y-56373661D01*
X131402817Y-56421280D01*
X131307579Y-56421280D01*
X131164721Y-56373661D01*
X131069483Y-56278423D01*
X131021864Y-56183185D01*
X130974245Y-55992709D01*
X130974245Y-55849852D01*
X131021864Y-55659376D01*
X131069483Y-55564138D01*
X131164721Y-55468900D01*
X131307579Y-55421280D01*
X131402817Y-55421280D01*
X131545674Y-55468900D01*
X131593293Y-55516519D01*
X131926626Y-55421280D02*
X132545674Y-55421280D01*
X132212340Y-55802233D01*
X132355198Y-55802233D01*
X132450436Y-55849852D01*
X132498055Y-55897471D01*
X132545674Y-55992709D01*
X132545674Y-56230804D01*
X132498055Y-56326042D01*
X132450436Y-56373661D01*
X132355198Y-56421280D01*
X132069483Y-56421280D01*
X131974245Y-56373661D01*
X131926626Y-56326042D01*
%TO.C,R1*%
X164750453Y-63058300D02*
X164417120Y-62582110D01*
X164179024Y-63058300D02*
X164179024Y-62058300D01*
X164559977Y-62058300D01*
X164655215Y-62105920D01*
X164702834Y-62153539D01*
X164750453Y-62248777D01*
X164750453Y-62391634D01*
X164702834Y-62486872D01*
X164655215Y-62534491D01*
X164559977Y-62582110D01*
X164179024Y-62582110D01*
X165702834Y-63058300D02*
X165131405Y-63058300D01*
X165417120Y-63058300D02*
X165417120Y-62058300D01*
X165321881Y-62201158D01*
X165226643Y-62296396D01*
X165131405Y-62344015D01*
%TO.C,R3*%
X164750453Y-66352680D02*
X164417120Y-65876490D01*
X164179024Y-66352680D02*
X164179024Y-65352680D01*
X164559977Y-65352680D01*
X164655215Y-65400300D01*
X164702834Y-65447919D01*
X164750453Y-65543157D01*
X164750453Y-65686014D01*
X164702834Y-65781252D01*
X164655215Y-65828871D01*
X164559977Y-65876490D01*
X164179024Y-65876490D01*
X165083786Y-65352680D02*
X165702834Y-65352680D01*
X165369500Y-65733633D01*
X165512358Y-65733633D01*
X165607596Y-65781252D01*
X165655215Y-65828871D01*
X165702834Y-65924109D01*
X165702834Y-66162204D01*
X165655215Y-66257442D01*
X165607596Y-66305061D01*
X165512358Y-66352680D01*
X165226643Y-66352680D01*
X165131405Y-66305061D01*
X165083786Y-66257442D01*
%TO.C,U1*%
X153300180Y-59385104D02*
X154109704Y-59385104D01*
X154204942Y-59337485D01*
X154252561Y-59289866D01*
X154300180Y-59194628D01*
X154300180Y-59004152D01*
X154252561Y-58908914D01*
X154204942Y-58861295D01*
X154109704Y-58813676D01*
X153300180Y-58813676D01*
X154300180Y-57813676D02*
X154300180Y-58385104D01*
X154300180Y-58099390D02*
X153300180Y-58099390D01*
X153443038Y-58194628D01*
X153538276Y-58289866D01*
X153585895Y-58385104D01*
%TO.C,L1*%
X143058140Y-58126926D02*
X143058140Y-58603117D01*
X142058140Y-58603117D01*
X143058140Y-57269783D02*
X143058140Y-57841212D01*
X143058140Y-57555498D02*
X142058140Y-57555498D01*
X142200998Y-57650736D01*
X142296236Y-57745974D01*
X142343855Y-57841212D01*
%TO.C,D1*%
X144687064Y-49093380D02*
X144687064Y-48093380D01*
X144925160Y-48093380D01*
X145068017Y-48141000D01*
X145163255Y-48236238D01*
X145210874Y-48331476D01*
X145258493Y-48521952D01*
X145258493Y-48664809D01*
X145210874Y-48855285D01*
X145163255Y-48950523D01*
X145068017Y-49045761D01*
X144925160Y-49093380D01*
X144687064Y-49093380D01*
X146210874Y-49093380D02*
X145639445Y-49093380D01*
X145925160Y-49093380D02*
X145925160Y-48093380D01*
X145829921Y-48236238D01*
X145734683Y-48331476D01*
X145639445Y-48379095D01*
%TO.C,R2*%
X158562300Y-49153106D02*
X158086110Y-49486440D01*
X158562300Y-49724535D02*
X157562300Y-49724535D01*
X157562300Y-49343582D01*
X157609920Y-49248344D01*
X157657539Y-49200725D01*
X157752777Y-49153106D01*
X157895634Y-49153106D01*
X157990872Y-49200725D01*
X158038491Y-49248344D01*
X158086110Y-49343582D01*
X158086110Y-49724535D01*
X157657539Y-48772154D02*
X157609920Y-48724535D01*
X157562300Y-48629297D01*
X157562300Y-48391201D01*
X157609920Y-48295963D01*
X157657539Y-48248344D01*
X157752777Y-48200725D01*
X157848015Y-48200725D01*
X157990872Y-48248344D01*
X158562300Y-48819773D01*
X158562300Y-48200725D01*
%TO.C,GND*%
X124531500Y-49974404D02*
X124483880Y-50069642D01*
X124483880Y-50212500D01*
X124531500Y-50355357D01*
X124626738Y-50450595D01*
X124721976Y-50498214D01*
X124912452Y-50545833D01*
X125055309Y-50545833D01*
X125245785Y-50498214D01*
X125341023Y-50450595D01*
X125436261Y-50355357D01*
X125483880Y-50212500D01*
X125483880Y-50117261D01*
X125436261Y-49974404D01*
X125388642Y-49926785D01*
X125055309Y-49926785D01*
X125055309Y-50117261D01*
X125483880Y-49498214D02*
X124483880Y-49498214D01*
X125483880Y-48926785D01*
X124483880Y-48926785D01*
X125483880Y-48450595D02*
X124483880Y-48450595D01*
X124483880Y-48212500D01*
X124531500Y-48069642D01*
X124626738Y-47974404D01*
X124721976Y-47926785D01*
X124912452Y-47879166D01*
X125055309Y-47879166D01*
X125245785Y-47926785D01*
X125341023Y-47974404D01*
X125436261Y-48069642D01*
X125483880Y-48212500D01*
X125483880Y-48450595D01*
%TO.C,Vout*%
X120825450Y-58360060D02*
X121158783Y-59360060D01*
X121492117Y-58360060D01*
X121968307Y-59360060D02*
X121873069Y-59312441D01*
X121825450Y-59264822D01*
X121777831Y-59169584D01*
X121777831Y-58883870D01*
X121825450Y-58788632D01*
X121873069Y-58741013D01*
X121968307Y-58693394D01*
X122111164Y-58693394D01*
X122206402Y-58741013D01*
X122254021Y-58788632D01*
X122301640Y-58883870D01*
X122301640Y-59169584D01*
X122254021Y-59264822D01*
X122206402Y-59312441D01*
X122111164Y-59360060D01*
X121968307Y-59360060D01*
X123158783Y-58693394D02*
X123158783Y-59360060D01*
X122730212Y-58693394D02*
X122730212Y-59217203D01*
X122777831Y-59312441D01*
X122873069Y-59360060D01*
X123015926Y-59360060D01*
X123111164Y-59312441D01*
X123158783Y-59264822D01*
X123492117Y-58693394D02*
X123873069Y-58693394D01*
X123634974Y-58360060D02*
X123634974Y-59217203D01*
X123682593Y-59312441D01*
X123777831Y-59360060D01*
X123873069Y-59360060D01*
%TO.C,Vin*%
X172783310Y-54773580D02*
X173116643Y-55773580D01*
X173449977Y-54773580D01*
X173783310Y-55773580D02*
X173783310Y-55106914D01*
X173783310Y-54773580D02*
X173735691Y-54821200D01*
X173783310Y-54868819D01*
X173830929Y-54821200D01*
X173783310Y-54773580D01*
X173783310Y-54868819D01*
X174259500Y-55106914D02*
X174259500Y-55773580D01*
X174259500Y-55202152D02*
X174307120Y-55154533D01*
X174402358Y-55106914D01*
X174545215Y-55106914D01*
X174640453Y-55154533D01*
X174688072Y-55249771D01*
X174688072Y-55773580D01*
%TO.C,GND*%
X170817635Y-48120680D02*
X170722397Y-48073060D01*
X170579540Y-48073060D01*
X170436682Y-48120680D01*
X170341444Y-48215918D01*
X170293825Y-48311156D01*
X170246206Y-48501632D01*
X170246206Y-48644489D01*
X170293825Y-48834965D01*
X170341444Y-48930203D01*
X170436682Y-49025441D01*
X170579540Y-49073060D01*
X170674778Y-49073060D01*
X170817635Y-49025441D01*
X170865254Y-48977822D01*
X170865254Y-48644489D01*
X170674778Y-48644489D01*
X171293825Y-49073060D02*
X171293825Y-48073060D01*
X171865254Y-49073060D01*
X171865254Y-48073060D01*
X172341444Y-49073060D02*
X172341444Y-48073060D01*
X172579540Y-48073060D01*
X172722397Y-48120680D01*
X172817635Y-48215918D01*
X172865254Y-48311156D01*
X172912873Y-48501632D01*
X172912873Y-48644489D01*
X172865254Y-48834965D01*
X172817635Y-48930203D01*
X172722397Y-49025441D01*
X172579540Y-49073060D01*
X172341444Y-49073060D01*
%TO.C,L1*%
X124467880Y-65317666D02*
X124467880Y-65793857D01*
X123467880Y-65793857D01*
X124467880Y-64460523D02*
X124467880Y-65031952D01*
X124467880Y-64746238D02*
X123467880Y-64746238D01*
X123610738Y-64841476D01*
X123705976Y-64936714D01*
X123753595Y-65031952D01*
%TO.C,C3*%
X135739142Y-49061666D02*
X135786761Y-49109285D01*
X135834380Y-49252142D01*
X135834380Y-49347380D01*
X135786761Y-49490238D01*
X135691523Y-49585476D01*
X135596285Y-49633095D01*
X135405809Y-49680714D01*
X135262952Y-49680714D01*
X135072476Y-49633095D01*
X134977238Y-49585476D01*
X134882000Y-49490238D01*
X134834380Y-49347380D01*
X134834380Y-49252142D01*
X134882000Y-49109285D01*
X134929619Y-49061666D01*
X134834380Y-48728333D02*
X134834380Y-48109285D01*
X135215333Y-48442619D01*
X135215333Y-48299761D01*
X135262952Y-48204523D01*
X135310571Y-48156904D01*
X135405809Y-48109285D01*
X135643904Y-48109285D01*
X135739142Y-48156904D01*
X135786761Y-48204523D01*
X135834380Y-48299761D01*
X135834380Y-48585476D01*
X135786761Y-48680714D01*
X135739142Y-48728333D01*
D11*
%TO.C,C1*%
X166245440Y-52111300D02*
X169015440Y-52111300D01*
X161021440Y-52231300D02*
X163883440Y-52231300D01*
X160065440Y-54551300D02*
X170063440Y-54551300D01*
X163410440Y-50471300D02*
X166718440Y-50471300D01*
X166245440Y-52071300D02*
X168983440Y-52071300D01*
X166245440Y-53231300D02*
X169688440Y-53231300D01*
X160801440Y-52551300D02*
X163883440Y-52551300D01*
X166245440Y-53191300D02*
X169670440Y-53191300D01*
X162115440Y-51151300D02*
X168013440Y-51151300D01*
X162687440Y-50791300D02*
X167441440Y-50791300D01*
X161427440Y-51751300D02*
X163883440Y-51751300D01*
X160113440Y-54271300D02*
X170015440Y-54271300D01*
X160021440Y-54992300D02*
X170107440Y-54992300D01*
X161389440Y-51791300D02*
X163883440Y-51791300D01*
X161280440Y-51911300D02*
X163883440Y-51911300D01*
X164151440Y-50271300D02*
X165977440Y-50271300D01*
X160014440Y-55232300D02*
X170114440Y-55232300D01*
X166245440Y-53711300D02*
X169870440Y-53711300D01*
X160934440Y-52351300D02*
X163883440Y-52351300D01*
X161809440Y-51391300D02*
X168319440Y-51391300D01*
X166245440Y-52511300D02*
X169301440Y-52511300D01*
X160059440Y-54592300D02*
X170069440Y-54592300D01*
X166245440Y-52631300D02*
X169376440Y-52631300D01*
X166245440Y-52911300D02*
X169534440Y-52911300D01*
X160077440Y-54471300D02*
X170051440Y-54471300D01*
X160728440Y-52671300D02*
X163883440Y-52671300D01*
X161466440Y-51711300D02*
X163883440Y-51711300D01*
X166245440Y-52391300D02*
X169221440Y-52391300D01*
X160992440Y-52271300D02*
X163883440Y-52271300D01*
X163960440Y-50311300D02*
X166168440Y-50311300D01*
X162007440Y-51231300D02*
X168121440Y-51231300D01*
X166245440Y-51751300D02*
X168701440Y-51751300D01*
X160681440Y-52751300D02*
X163883440Y-52751300D01*
X164314440Y-59722300D02*
X165814440Y-59722300D01*
X160147440Y-54111300D02*
X169981440Y-54111300D01*
X160024440Y-54952300D02*
X170104440Y-54952300D01*
X166245440Y-53031300D02*
X169595440Y-53031300D01*
X166245440Y-53631300D02*
X169843440Y-53631300D01*
X160129440Y-54191300D02*
X169999440Y-54191300D01*
X163528440Y-50431300D02*
X166600440Y-50431300D01*
X160044440Y-54712300D02*
X170084440Y-54712300D01*
X160752440Y-52631300D02*
X163883440Y-52631300D01*
X160704440Y-52711300D02*
X163883440Y-52711300D01*
X160594440Y-52911300D02*
X163883440Y-52911300D01*
X166245440Y-51831300D02*
X168776440Y-51831300D01*
X162924440Y-50671300D02*
X167204440Y-50671300D01*
X161316440Y-51871300D02*
X163883440Y-51871300D01*
X162412440Y-50951300D02*
X167716440Y-50951300D01*
X160573440Y-52951300D02*
X163883440Y-52951300D01*
X161629440Y-51551300D02*
X168499440Y-51551300D01*
X160157440Y-54071300D02*
X169971440Y-54071300D01*
X161673440Y-51511300D02*
X168455440Y-51511300D01*
X166245440Y-51871300D02*
X168812440Y-51871300D01*
X163011440Y-50631300D02*
X167117440Y-50631300D01*
X161082440Y-52151300D02*
X163883440Y-52151300D01*
X166245440Y-51671300D02*
X168623440Y-51671300D01*
X160514440Y-53071300D02*
X163883440Y-53071300D01*
X163301440Y-50511300D02*
X166827440Y-50511300D01*
X160033440Y-54832300D02*
X170095440Y-54832300D01*
X160659440Y-52791300D02*
X163883440Y-52791300D01*
X166245440Y-52991300D02*
X169575440Y-52991300D01*
X166245440Y-52151300D02*
X169046440Y-52151300D01*
X160188440Y-53951300D02*
X163883440Y-53951300D01*
X161587440Y-51591300D02*
X168541440Y-51591300D01*
X166245440Y-52031300D02*
X168950440Y-52031300D01*
X160533440Y-53031300D02*
X163883440Y-53031300D01*
X162060440Y-51191300D02*
X168068440Y-51191300D01*
X166245440Y-51791300D02*
X168739440Y-51791300D01*
X160406440Y-53311300D02*
X163883440Y-53311300D01*
X163657440Y-50391300D02*
X166471440Y-50391300D01*
X160313440Y-53551300D02*
X163883440Y-53551300D01*
X160040440Y-54752300D02*
X170088440Y-54752300D01*
X166245440Y-51951300D02*
X168883440Y-51951300D01*
X160138440Y-54151300D02*
X169990440Y-54151300D01*
X160017440Y-55072300D02*
X170111440Y-55072300D01*
X166245440Y-53591300D02*
X169829440Y-53591300D01*
X166245440Y-53311300D02*
X169722440Y-53311300D01*
X160026440Y-54912300D02*
X170102440Y-54912300D01*
X160210440Y-53871300D02*
X163883440Y-53871300D01*
X166245440Y-52191300D02*
X169077440Y-52191300D01*
X166245440Y-52431300D02*
X169249440Y-52431300D01*
X166245440Y-53551300D02*
X169815440Y-53551300D01*
X160963440Y-52311300D02*
X163883440Y-52311300D01*
X160553440Y-52991300D02*
X163883440Y-52991300D01*
X162842440Y-50711300D02*
X167286440Y-50711300D01*
X160636440Y-52831300D02*
X163883440Y-52831300D01*
X166245440Y-53071300D02*
X169614440Y-53071300D01*
X166245440Y-52871300D02*
X169513440Y-52871300D01*
X161505440Y-51671300D02*
X163883440Y-51671300D01*
X161211440Y-51991300D02*
X163883440Y-51991300D01*
X161906440Y-51311300D02*
X168222440Y-51311300D01*
X166245440Y-52551300D02*
X169327440Y-52551300D01*
X160907440Y-52391300D02*
X163883440Y-52391300D01*
X160016440Y-55112300D02*
X170112440Y-55112300D01*
X160879440Y-52431300D02*
X163883440Y-52431300D01*
X160036440Y-54792300D02*
X170092440Y-54792300D01*
X160097440Y-54351300D02*
X170031440Y-54351300D01*
X160015440Y-55152300D02*
X170113440Y-55152300D01*
X160105440Y-54311300D02*
X170023440Y-54311300D01*
X160090440Y-54391300D02*
X170038440Y-54391300D01*
X166245440Y-52351300D02*
X169194440Y-52351300D01*
X166245440Y-52471300D02*
X169275440Y-52471300D01*
X161717440Y-51471300D02*
X168411440Y-51471300D01*
X166245440Y-53471300D02*
X169786440Y-53471300D01*
X162615440Y-50831300D02*
X167513440Y-50831300D01*
X160615440Y-52871300D02*
X163883440Y-52871300D01*
X160423440Y-53271300D02*
X163883440Y-53271300D01*
X160246440Y-53751300D02*
X163883440Y-53751300D01*
X166245440Y-53271300D02*
X169705440Y-53271300D01*
X166245440Y-52751300D02*
X169447440Y-52751300D01*
X160083440Y-54431300D02*
X170045440Y-54431300D01*
X166245440Y-53831300D02*
X169907440Y-53831300D01*
X162228440Y-51071300D02*
X167900440Y-51071300D01*
X166245440Y-53431300D02*
X169770440Y-53431300D01*
X166245440Y-52951300D02*
X169555440Y-52951300D01*
X161857440Y-51351300D02*
X168271440Y-51351300D01*
X166245440Y-53791300D02*
X169895440Y-53791300D01*
X160827440Y-52511300D02*
X163883440Y-52511300D01*
X160440440Y-53231300D02*
X163883440Y-53231300D01*
X162349440Y-50991300D02*
X167779440Y-50991300D01*
X162287440Y-51031300D02*
X167841440Y-51031300D01*
X160272440Y-53671300D02*
X163883440Y-53671300D01*
X160177440Y-53991300D02*
X169951440Y-53991300D01*
X166245440Y-51711300D02*
X168662440Y-51711300D01*
X160014440Y-55192300D02*
X170114440Y-55192300D01*
X160199440Y-53911300D02*
X163883440Y-53911300D01*
X166245440Y-52591300D02*
X169352440Y-52591300D01*
X160299440Y-53591300D02*
X163883440Y-53591300D01*
X160121440Y-54231300D02*
X170007440Y-54231300D01*
X161352440Y-51831300D02*
X163883440Y-51831300D01*
X166245440Y-53671300D02*
X169856440Y-53671300D01*
X162545440Y-50871300D02*
X167583440Y-50871300D01*
X160776440Y-52591300D02*
X163883440Y-52591300D01*
X166245440Y-53751300D02*
X169882440Y-53751300D01*
X163799440Y-50351300D02*
X166329440Y-50351300D01*
X166245440Y-53871300D02*
X169918440Y-53871300D01*
X166245440Y-53151300D02*
X169652440Y-53151300D01*
X160054440Y-54632300D02*
X170074440Y-54632300D01*
X166245440Y-53351300D02*
X169738440Y-53351300D01*
X164785440Y-50191300D02*
X165343440Y-50191300D01*
X160327440Y-53511300D02*
X163883440Y-53511300D01*
X160853440Y-52471300D02*
X163883440Y-52471300D01*
X166245440Y-53511300D02*
X169801440Y-53511300D01*
X166245440Y-51991300D02*
X168917440Y-51991300D01*
X166245440Y-52231300D02*
X169107440Y-52231300D01*
X161245440Y-51951300D02*
X163883440Y-51951300D01*
X160014440Y-55272300D02*
X170114440Y-55272300D01*
X161178440Y-52031300D02*
X163883440Y-52031300D01*
X166245440Y-52791300D02*
X169469440Y-52791300D01*
X161546440Y-51631300D02*
X163883440Y-51631300D01*
X160458440Y-53191300D02*
X163883440Y-53191300D01*
X160221440Y-53831300D02*
X163883440Y-53831300D01*
X160071440Y-54511300D02*
X170057440Y-54511300D01*
X166245440Y-52271300D02*
X169136440Y-52271300D01*
X162170440Y-51111300D02*
X167958440Y-51111300D01*
X162763440Y-50751300D02*
X167365440Y-50751300D01*
X166245440Y-51631300D02*
X168582440Y-51631300D01*
X160029440Y-54872300D02*
X170099440Y-54872300D01*
X160390440Y-53351300D02*
X163883440Y-53351300D01*
X161113440Y-52111300D02*
X163883440Y-52111300D01*
X160495440Y-53111300D02*
X163883440Y-53111300D01*
X160358440Y-53431300D02*
X163883440Y-53431300D01*
X166245440Y-53951300D02*
X169940440Y-53951300D01*
X166245440Y-52831300D02*
X169492440Y-52831300D01*
X163198440Y-50551300D02*
X166930440Y-50551300D01*
X166245440Y-51911300D02*
X168848440Y-51911300D01*
X166245440Y-52311300D02*
X169165440Y-52311300D01*
X160373440Y-53391300D02*
X163883440Y-53391300D01*
X166245440Y-53111300D02*
X169633440Y-53111300D01*
X160258440Y-53711300D02*
X163883440Y-53711300D01*
X166245440Y-52711300D02*
X169424440Y-52711300D01*
X160285440Y-53631300D02*
X163883440Y-53631300D01*
X166245440Y-53911300D02*
X169929440Y-53911300D01*
X160342440Y-53471300D02*
X163883440Y-53471300D01*
X161762440Y-51431300D02*
X168366440Y-51431300D01*
X161145440Y-52071300D02*
X163883440Y-52071300D01*
X160476440Y-53151300D02*
X163883440Y-53151300D01*
X160049440Y-54672300D02*
X170079440Y-54672300D01*
X160167440Y-54031300D02*
X169961440Y-54031300D01*
X163102440Y-50591300D02*
X167026440Y-50591300D01*
X162477440Y-50911300D02*
X167651440Y-50911300D01*
X166245440Y-52671300D02*
X169400440Y-52671300D01*
X166245440Y-53391300D02*
X169755440Y-53391300D01*
X160233440Y-53791300D02*
X163883440Y-53791300D01*
X161956440Y-51271300D02*
X168172440Y-51271300D01*
X164392440Y-50231300D02*
X165736440Y-50231300D01*
X161051440Y-52191300D02*
X163883440Y-52191300D01*
X160019440Y-55032300D02*
X170109440Y-55032300D01*
X165064440Y-60472300D02*
X165064440Y-58972300D01*
X166447704Y-50373863D02*
G75*
G03*
X163684440Y-50372943I-1383264J-4898437D01*
G01*
X163681176Y-50373863D02*
G75*
G03*
X163684440Y-60171657I1383264J-4898437D01*
G01*
X166444440Y-60171657D02*
G75*
G03*
X166447704Y-50373863I-1380000J4899357D01*
G01*
%TO.C,C2*%
X155272800Y-66583500D02*
X156446800Y-66583500D01*
X155272800Y-64861500D02*
X156446800Y-64861500D01*
%TO.C,C3*%
X131447760Y-60985800D02*
X141317760Y-60985800D01*
X137563760Y-59825800D02*
X140913760Y-59825800D01*
X133274760Y-58065800D02*
X139490760Y-58065800D01*
X131423760Y-61105800D02*
X141341760Y-61105800D01*
X131456760Y-60945800D02*
X141308760Y-60945800D01*
X134728760Y-57265800D02*
X138036760Y-57265800D01*
X137563760Y-59185800D02*
X140539760Y-59185800D01*
X137563760Y-60705800D02*
X141247760Y-60705800D01*
X131912760Y-59705800D02*
X135201760Y-59705800D01*
X131660760Y-60265800D02*
X135201760Y-60265800D01*
X132339760Y-59025800D02*
X135201760Y-59025800D01*
X132119760Y-59345800D02*
X135201760Y-59345800D01*
X133933760Y-57625800D02*
X138831760Y-57625800D01*
X131776760Y-59985800D02*
X135201760Y-59985800D01*
X137563760Y-58905800D02*
X140333760Y-58905800D01*
X132598760Y-58705800D02*
X135201760Y-58705800D01*
X132670760Y-58625800D02*
X135201760Y-58625800D01*
X137563760Y-59905800D02*
X140951760Y-59905800D01*
X133863760Y-57665800D02*
X138901760Y-57665800D01*
X137563760Y-59465800D02*
X140718760Y-59465800D01*
X137563760Y-60025800D02*
X141006760Y-60025800D01*
X133175760Y-58145800D02*
X139589760Y-58145800D01*
X134846760Y-57225800D02*
X137918760Y-57225800D01*
X135632760Y-66516800D02*
X137132760Y-66516800D01*
X133433760Y-57945800D02*
X139331760Y-57945800D01*
X131954760Y-59625800D02*
X135201760Y-59625800D01*
X133378760Y-57985800D02*
X139386760Y-57985800D01*
X137563760Y-60585800D02*
X141213760Y-60585800D01*
X131758760Y-60025800D02*
X135201760Y-60025800D01*
X137563760Y-58505800D02*
X139980760Y-58505800D01*
X137563760Y-60105800D02*
X141040760Y-60105800D01*
X137563760Y-59625800D02*
X140810760Y-59625800D01*
X131794760Y-59945800D02*
X135201760Y-59945800D01*
X137563760Y-59585800D02*
X140787760Y-59585800D01*
X131851760Y-59825800D02*
X135201760Y-59825800D01*
X137563760Y-59345800D02*
X140645760Y-59345800D01*
X131354760Y-61586800D02*
X141410760Y-61586800D01*
X131617760Y-60385800D02*
X135201760Y-60385800D01*
X132431760Y-58905800D02*
X135201760Y-58905800D01*
X137563760Y-58945800D02*
X140364760Y-58945800D01*
X131551760Y-60585800D02*
X135201760Y-60585800D01*
X133795760Y-57705800D02*
X138969760Y-57705800D01*
X132070760Y-59425800D02*
X135201760Y-59425800D01*
X131871760Y-59785800D02*
X135201760Y-59785800D01*
X132784760Y-58505800D02*
X135201760Y-58505800D01*
X131506760Y-60745800D02*
X135201760Y-60745800D01*
X131603760Y-60425800D02*
X135201760Y-60425800D01*
X135117760Y-57145800D02*
X137647760Y-57145800D01*
X134619760Y-57305800D02*
X138145760Y-57305800D01*
X131344760Y-61706800D02*
X141420760Y-61706800D01*
X132707760Y-58585800D02*
X135201760Y-58585800D01*
X137563760Y-60185800D02*
X141073760Y-60185800D01*
X133325760Y-58025800D02*
X139439760Y-58025800D01*
X135710760Y-57025800D02*
X137054760Y-57025800D01*
X137563760Y-58705800D02*
X140166760Y-58705800D01*
X132022760Y-59505800D02*
X135201760Y-59505800D01*
X134242760Y-57465800D02*
X138522760Y-57465800D01*
X131367760Y-61466800D02*
X141397760Y-61466800D01*
X131539760Y-60625800D02*
X135201760Y-60625800D01*
X131691760Y-60185800D02*
X135201760Y-60185800D01*
X134005760Y-57585800D02*
X138759760Y-57585800D01*
X133546760Y-57865800D02*
X139218760Y-57865800D01*
X131590760Y-60465800D02*
X135201760Y-60465800D01*
X131339760Y-61786800D02*
X141425760Y-61786800D01*
X135469760Y-57065800D02*
X137295760Y-57065800D01*
X137563760Y-59025800D02*
X140425760Y-59025800D01*
X137563760Y-59665800D02*
X140831760Y-59665800D01*
X131372760Y-61426800D02*
X141392760Y-61426800D01*
X131741760Y-60065800D02*
X135201760Y-60065800D01*
X131335760Y-61866800D02*
X141429760Y-61866800D01*
X137563760Y-60505800D02*
X141188760Y-60505800D01*
X131465760Y-60905800D02*
X141299760Y-60905800D01*
X132905760Y-58385800D02*
X139859760Y-58385800D01*
X134420760Y-57385800D02*
X138344760Y-57385800D01*
X137563760Y-58745800D02*
X140201760Y-58745800D01*
X131933760Y-59665800D02*
X135201760Y-59665800D01*
X136103760Y-56985800D02*
X136661760Y-56985800D01*
X137563760Y-58545800D02*
X140019760Y-58545800D01*
X132225760Y-59185800D02*
X135201760Y-59185800D01*
X131564760Y-60545800D02*
X135201760Y-60545800D01*
X137563760Y-60745800D02*
X141258760Y-60745800D01*
X136382760Y-67266800D02*
X136382760Y-65766800D01*
X137563760Y-59145800D02*
X140512760Y-59145800D01*
X131431760Y-61065800D02*
X141333760Y-61065800D01*
X133080760Y-58225800D02*
X139684760Y-58225800D01*
X137563760Y-59945800D02*
X140970760Y-59945800D01*
X132563760Y-58745800D02*
X135201760Y-58745800D01*
X134329760Y-57425800D02*
X138435760Y-57425800D01*
X132947760Y-58345800D02*
X139817760Y-58345800D01*
X131333760Y-61946800D02*
X141431760Y-61946800D01*
X131999760Y-59545800D02*
X135201760Y-59545800D01*
X131439760Y-61025800D02*
X141325760Y-61025800D01*
X137563760Y-60145800D02*
X141056760Y-60145800D01*
X131358760Y-61546800D02*
X141406760Y-61546800D01*
X132496760Y-58825800D02*
X135201760Y-58825800D01*
X133605760Y-57825800D02*
X139159760Y-57825800D01*
X133667760Y-57785800D02*
X139097760Y-57785800D01*
X137563760Y-60465800D02*
X141174760Y-60465800D01*
X131813760Y-59905800D02*
X135201760Y-59905800D01*
X131401760Y-61225800D02*
X141363760Y-61225800D01*
X133127760Y-58185800D02*
X139637760Y-58185800D01*
X137563760Y-58825800D02*
X140268760Y-58825800D01*
X131645760Y-60305800D02*
X135201760Y-60305800D01*
X137563760Y-59265800D02*
X140593760Y-59265800D01*
X137563760Y-59985800D02*
X140988760Y-59985800D01*
X132864760Y-58425800D02*
X135201760Y-58425800D01*
X137563760Y-60425800D02*
X141161760Y-60425800D01*
X137563760Y-58665800D02*
X140130760Y-58665800D01*
X132823760Y-58465800D02*
X135201760Y-58465800D01*
X131351760Y-61626800D02*
X141413760Y-61626800D01*
X131408760Y-61185800D02*
X141356760Y-61185800D01*
X137563760Y-60305800D02*
X141119760Y-60305800D01*
X132991760Y-58305800D02*
X139773760Y-58305800D01*
X137563760Y-60625800D02*
X141225760Y-60625800D01*
X132310760Y-59065800D02*
X135201760Y-59065800D01*
X131631760Y-60345800D02*
X135201760Y-60345800D01*
X131485760Y-60825800D02*
X141279760Y-60825800D01*
X132171760Y-59265800D02*
X135201760Y-59265800D01*
X132252760Y-59145800D02*
X135201760Y-59145800D01*
X135278760Y-57105800D02*
X137486760Y-57105800D01*
X133730760Y-57745800D02*
X139034760Y-57745800D01*
X131334760Y-61906800D02*
X141430760Y-61906800D01*
X134160760Y-57505800D02*
X138604760Y-57505800D01*
X131495760Y-60785800D02*
X141269760Y-60785800D01*
X132745760Y-58545800D02*
X135201760Y-58545800D01*
X137563760Y-58625800D02*
X140094760Y-58625800D01*
X132634760Y-58665800D02*
X135201760Y-58665800D01*
X134975760Y-57185800D02*
X137789760Y-57185800D01*
X131362760Y-61506800D02*
X141402760Y-61506800D01*
X132046760Y-59465800D02*
X135201760Y-59465800D01*
X131415760Y-61145800D02*
X141349760Y-61145800D01*
X131576760Y-60505800D02*
X135201760Y-60505800D01*
X137563760Y-58985800D02*
X140395760Y-58985800D01*
X132463760Y-58865800D02*
X135201760Y-58865800D01*
X131342760Y-61746800D02*
X141422760Y-61746800D01*
X137563760Y-60225800D02*
X141088760Y-60225800D01*
X137563760Y-59425800D02*
X140694760Y-59425800D01*
X137563760Y-60665800D02*
X141236760Y-60665800D01*
X137563760Y-58585800D02*
X140057760Y-58585800D01*
X137563760Y-59385800D02*
X140670760Y-59385800D01*
X131708760Y-60145800D02*
X135201760Y-60145800D01*
X132145760Y-59305800D02*
X135201760Y-59305800D01*
X132197760Y-59225800D02*
X135201760Y-59225800D01*
X131977760Y-59585800D02*
X135201760Y-59585800D01*
X132529760Y-58785800D02*
X135201760Y-58785800D01*
X137563760Y-58425800D02*
X139900760Y-58425800D01*
X131347760Y-61666800D02*
X141417760Y-61666800D01*
X131377760Y-61386800D02*
X141387760Y-61386800D01*
X132281760Y-59105800D02*
X135201760Y-59105800D01*
X131332760Y-62026800D02*
X141432760Y-62026800D01*
X137563760Y-59785800D02*
X140893760Y-59785800D01*
X133488760Y-57905800D02*
X139276760Y-57905800D01*
X137563760Y-59745800D02*
X140873760Y-59745800D01*
X132369760Y-58985800D02*
X135201760Y-58985800D01*
X131517760Y-60705800D02*
X135201760Y-60705800D01*
X137563760Y-58865800D02*
X140301760Y-58865800D01*
X131891760Y-59745800D02*
X135201760Y-59745800D01*
X133035760Y-58265800D02*
X139729760Y-58265800D01*
X132094760Y-59385800D02*
X135201760Y-59385800D01*
X131676760Y-60225800D02*
X135201760Y-60225800D01*
X137563760Y-59065800D02*
X140454760Y-59065800D01*
X137563760Y-59705800D02*
X140852760Y-59705800D01*
X137563760Y-59505800D02*
X140742760Y-59505800D01*
X131832760Y-59865800D02*
X135201760Y-59865800D01*
X134081760Y-57545800D02*
X138683760Y-57545800D01*
X137563760Y-59105800D02*
X140483760Y-59105800D01*
X131724760Y-60105800D02*
X135201760Y-60105800D01*
X137563760Y-60065800D02*
X141023760Y-60065800D01*
X131475760Y-60865800D02*
X141289760Y-60865800D01*
X131332760Y-61986800D02*
X141432760Y-61986800D01*
X133224760Y-58105800D02*
X139540760Y-58105800D01*
X137563760Y-60545800D02*
X141200760Y-60545800D01*
X131389760Y-61305800D02*
X141375760Y-61305800D01*
X131337760Y-61826800D02*
X141427760Y-61826800D01*
X131528760Y-60665800D02*
X135201760Y-60665800D01*
X137563760Y-59865800D02*
X140932760Y-59865800D01*
X137563760Y-58465800D02*
X139941760Y-58465800D01*
X131332760Y-62066800D02*
X141432760Y-62066800D01*
X131383760Y-61345800D02*
X141381760Y-61345800D01*
X134516760Y-57345800D02*
X138248760Y-57345800D01*
X137563760Y-60385800D02*
X141147760Y-60385800D01*
X137563760Y-60265800D02*
X141104760Y-60265800D01*
X137563760Y-60345800D02*
X141133760Y-60345800D01*
X137563760Y-59225800D02*
X140567760Y-59225800D01*
X132400760Y-58945800D02*
X135201760Y-58945800D01*
X131395760Y-61265800D02*
X141369760Y-61265800D01*
X137563760Y-59545800D02*
X140765760Y-59545800D01*
X137563760Y-59305800D02*
X140619760Y-59305800D01*
X137563760Y-58785800D02*
X140235760Y-58785800D01*
X137762760Y-66966157D02*
G75*
G03*
X137766024Y-57168363I-1380000J4899357D01*
G01*
X134999496Y-57168363D02*
G75*
G03*
X135002760Y-66966157I1383264J-4898437D01*
G01*
X137766024Y-57168363D02*
G75*
G03*
X135002760Y-57167443I-1383264J-4898437D01*
G01*
%TO.C,R1*%
X167953800Y-62623700D02*
X166883800Y-62623700D01*
X163163800Y-63483700D02*
X166883800Y-63483700D01*
X166883800Y-63483700D02*
X166883800Y-61763700D01*
X166883800Y-61763700D02*
X163163800Y-61763700D01*
X162093800Y-62623700D02*
X163163800Y-62623700D01*
X163163800Y-61763700D02*
X163163800Y-63483700D01*
%TO.C,R3*%
X166871100Y-65053000D02*
X163151100Y-65053000D01*
X162081100Y-65913000D02*
X163151100Y-65913000D01*
X166871100Y-66773000D02*
X166871100Y-65053000D01*
X163151100Y-66773000D02*
X166871100Y-66773000D01*
X163151100Y-65053000D02*
X163151100Y-66773000D01*
X167941100Y-65913000D02*
X166871100Y-65913000D01*
D10*
%TO.C,U1*%
X150545800Y-53543200D02*
X150545800Y-53670200D01*
X157149800Y-61036200D02*
X157149800Y-61290200D01*
X157149800Y-63703200D02*
X157149800Y-63576200D01*
X150545800Y-61036200D02*
X150545800Y-61290200D01*
X157149800Y-55956200D02*
X157149800Y-56210200D01*
X150545800Y-63703200D02*
X150545800Y-63576200D01*
X150545800Y-63703200D02*
X157149800Y-63703200D01*
X150545800Y-58496200D02*
X150545800Y-58750200D01*
X150545800Y-55956200D02*
X150545800Y-56210200D01*
X152958800Y-53543200D02*
X150545800Y-53543200D01*
X157149800Y-53543200D02*
X157149800Y-53670200D01*
X157149800Y-58496200D02*
X157149800Y-58750200D01*
X154736800Y-53543200D02*
X157149800Y-53543200D01*
X153847800Y-54432200D02*
G75*
G03*
X154736800Y-53543200I0J889000D01*
G01*
X152958800Y-53543200D02*
G75*
G03*
X153847800Y-54432200I889000J0D01*
G01*
X151942800Y-54432200D02*
G75*
G03*
X151942800Y-54432200I-254000J0D01*
G01*
%TO.C,L1*%
X144962880Y-61290200D02*
X144663160Y-62390020D01*
X144363440Y-60589160D02*
X143461740Y-61488320D01*
X144863820Y-59390280D02*
X143962120Y-58488580D01*
X144561560Y-60990480D02*
X144063720Y-62090300D01*
X145262600Y-61290200D02*
X145262600Y-62489080D01*
X145262600Y-57988200D02*
X145262600Y-59189620D01*
X144561560Y-59588400D02*
X143461740Y-58988960D01*
X144363440Y-60190380D02*
X143062960Y-60490100D01*
X144462500Y-59789060D02*
X143162020Y-59690000D01*
X145262600Y-59189620D02*
X144462500Y-58188860D01*
X146263360Y-60289440D02*
G75*
G03*
X146263360Y-60289440I-1000760J0D01*
G01*
X147563840Y-60289440D02*
G75*
G03*
X147563840Y-60289440I-2301240J0D01*
G01*
D11*
%TO.C,D1*%
X141862461Y-51841400D02*
X140597360Y-51841400D01*
X142030027Y-52730400D02*
X142030027Y-50952400D01*
X140844693Y-50952400D02*
X142030027Y-51841400D01*
X142030027Y-51841400D02*
X140844693Y-52730400D01*
X140844693Y-52730400D02*
X140844693Y-50952400D01*
X146092259Y-51841400D02*
G75*
G03*
X146092259Y-51841400I-2114899J0D01*
G01*
%TO.C,R2*%
X153295900Y-50444400D02*
X151575900Y-50444400D01*
X157015900Y-50444400D02*
G75*
G03*
X157015900Y-50444400I-1860000J0D01*
G01*
D10*
%TO.C,L1*%
X126492000Y-61231780D02*
X125691900Y-60231020D01*
X126192280Y-63332360D02*
X125892560Y-64432180D01*
X126492000Y-63332360D02*
X126492000Y-64531240D01*
X126492000Y-60030360D02*
X126492000Y-61231780D01*
X126093220Y-61432440D02*
X125191520Y-60530740D01*
X125592840Y-62232540D02*
X124292360Y-62532260D01*
X125790960Y-61630560D02*
X124691140Y-61031120D01*
X125691900Y-61831220D02*
X124391420Y-61732160D01*
X125592840Y-62631320D02*
X124691140Y-63530480D01*
X125790960Y-63032640D02*
X125293120Y-64132460D01*
X127492760Y-62331600D02*
G75*
G03*
X127492760Y-62331600I-1000760J0D01*
G01*
X128793240Y-62331600D02*
G75*
G03*
X128793240Y-62331600I-2301240J0D01*
G01*
D11*
%TO.C,C3*%
X125917400Y-52835200D02*
X136007400Y-52835200D01*
X132143400Y-50754200D02*
X135453400Y-50754200D01*
X126626400Y-50474200D02*
X129781400Y-50474200D01*
X125927400Y-52675200D02*
X135997400Y-52675200D01*
X132143400Y-50714200D02*
X135432400Y-50714200D01*
X132143400Y-49474200D02*
X134521400Y-49474200D01*
X132143400Y-51074200D02*
X135603400Y-51074200D01*
X126513400Y-50674200D02*
X129781400Y-50674200D01*
X126211400Y-51354200D02*
X129781400Y-51354200D01*
X132143400Y-50194200D02*
X135119400Y-50194200D01*
X129858400Y-48114200D02*
X132066400Y-48114200D01*
X126674400Y-50394200D02*
X129781400Y-50394200D01*
X128443400Y-48674200D02*
X133481400Y-48674200D01*
X132143400Y-50994200D02*
X135568400Y-50994200D01*
X127615400Y-49274200D02*
X134309400Y-49274200D01*
X132143400Y-49514200D02*
X134560400Y-49514200D01*
X132143400Y-49434200D02*
X134480400Y-49434200D01*
X132143400Y-51194200D02*
X135653400Y-51194200D01*
X132143400Y-51714200D02*
X135827400Y-51714200D01*
X132143400Y-50954200D02*
X135550400Y-50954200D01*
X126534400Y-50634200D02*
X129781400Y-50634200D01*
X126304400Y-51114200D02*
X129781400Y-51114200D01*
X129096400Y-48354200D02*
X132828400Y-48354200D01*
X132143400Y-50314200D02*
X135199400Y-50314200D01*
X126170400Y-51474200D02*
X129781400Y-51474200D01*
X127178400Y-49714200D02*
X129781400Y-49714200D01*
X132143400Y-50594200D02*
X135367400Y-50594200D01*
X126019400Y-52034200D02*
X135905400Y-52034200D01*
X132143400Y-51634200D02*
X135805400Y-51634200D01*
X127143400Y-49754200D02*
X129781400Y-49754200D01*
X126183400Y-51434200D02*
X129781400Y-51434200D01*
X129555400Y-48194200D02*
X132369400Y-48194200D01*
X128661400Y-48554200D02*
X133263400Y-48554200D01*
X127444400Y-49434200D02*
X129781400Y-49434200D01*
X126412400Y-50874200D02*
X129781400Y-50874200D01*
X132143400Y-50434200D02*
X135274400Y-50434200D01*
X132143400Y-50354200D02*
X135225400Y-50354200D01*
X126256400Y-51234200D02*
X129781400Y-51234200D01*
X126832400Y-50154200D02*
X129781400Y-50154200D01*
X127043400Y-49874200D02*
X129781400Y-49874200D01*
X126777400Y-50234200D02*
X129781400Y-50234200D01*
X126055400Y-51874200D02*
X135869400Y-51874200D01*
X127364400Y-49514200D02*
X129781400Y-49514200D01*
X125913400Y-52955200D02*
X136011400Y-52955200D01*
X126431400Y-50834200D02*
X129781400Y-50834200D01*
X126075400Y-51794200D02*
X135849400Y-51794200D01*
X126197400Y-51394200D02*
X129781400Y-51394200D01*
X125915400Y-52875200D02*
X136009400Y-52875200D01*
X126086400Y-51754200D02*
X129781400Y-51754200D01*
X129000400Y-48394200D02*
X132924400Y-48394200D01*
X126725400Y-50314200D02*
X129781400Y-50314200D01*
X130049400Y-48074200D02*
X131875400Y-48074200D01*
X126602400Y-50514200D02*
X129781400Y-50514200D01*
X126471400Y-50754200D02*
X129781400Y-50754200D01*
X126805400Y-50194200D02*
X129781400Y-50194200D01*
X127804400Y-49114200D02*
X134120400Y-49114200D01*
X126036400Y-51954200D02*
X135888400Y-51954200D01*
X127287400Y-49594200D02*
X129781400Y-49594200D01*
X125963400Y-52354200D02*
X135961400Y-52354200D01*
X125995400Y-52154200D02*
X135929400Y-52154200D01*
X132143400Y-49834200D02*
X134848400Y-49834200D01*
X127660400Y-49234200D02*
X134264400Y-49234200D01*
X125981400Y-52234200D02*
X135943400Y-52234200D01*
X126699400Y-50354200D02*
X129781400Y-50354200D01*
X132143400Y-49594200D02*
X134637400Y-49594200D01*
X132143400Y-51514200D02*
X135768400Y-51514200D01*
X125988400Y-52194200D02*
X135936400Y-52194200D01*
X125922400Y-52755200D02*
X136002400Y-52755200D01*
X127755400Y-49154200D02*
X134169400Y-49154200D01*
X128375400Y-48714200D02*
X133549400Y-48714200D01*
X130962400Y-58275200D02*
X130962400Y-56775200D01*
X127958400Y-48994200D02*
X133966400Y-48994200D01*
X132143400Y-50274200D02*
X135173400Y-50274200D01*
X125919400Y-52795200D02*
X136005400Y-52795200D01*
X126393400Y-50914200D02*
X129781400Y-50914200D01*
X129426400Y-48234200D02*
X132498400Y-48234200D01*
X132143400Y-50074200D02*
X135034400Y-50074200D01*
X127325400Y-49554200D02*
X129781400Y-49554200D01*
X126240400Y-51274200D02*
X129781400Y-51274200D01*
X128068400Y-48914200D02*
X133856400Y-48914200D01*
X132143400Y-50474200D02*
X135298400Y-50474200D01*
X126119400Y-51634200D02*
X129781400Y-51634200D01*
X125934400Y-52595200D02*
X135990400Y-52595200D01*
X132143400Y-50834200D02*
X135493400Y-50834200D01*
X132143400Y-50554200D02*
X135345400Y-50554200D01*
X132143400Y-51554200D02*
X135780400Y-51554200D01*
X132143400Y-51434200D02*
X135741400Y-51434200D01*
X132143400Y-50034200D02*
X135005400Y-50034200D01*
X132143400Y-50154200D02*
X135092400Y-50154200D01*
X127571400Y-49314200D02*
X134353400Y-49314200D01*
X127250400Y-49634200D02*
X129781400Y-49634200D01*
X132143400Y-49794200D02*
X134815400Y-49794200D01*
X125914400Y-52915200D02*
X136010400Y-52915200D01*
X132143400Y-51594200D02*
X135793400Y-51594200D01*
X128185400Y-48834200D02*
X133739400Y-48834200D01*
X128740400Y-48514200D02*
X133184400Y-48514200D01*
X126356400Y-50994200D02*
X129781400Y-50994200D01*
X128247400Y-48794200D02*
X133677400Y-48794200D01*
X129697400Y-48154200D02*
X132227400Y-48154200D01*
X132143400Y-50674200D02*
X135411400Y-50674200D01*
X132143400Y-49874200D02*
X134881400Y-49874200D01*
X132143400Y-50514200D02*
X135322400Y-50514200D01*
X126890400Y-50074200D02*
X129781400Y-50074200D01*
X125957400Y-52395200D02*
X135967400Y-52395200D01*
X127527400Y-49354200D02*
X134397400Y-49354200D01*
X126579400Y-50554200D02*
X129781400Y-50554200D01*
X126980400Y-49954200D02*
X129781400Y-49954200D01*
X125912400Y-53075200D02*
X136012400Y-53075200D01*
X132143400Y-49674200D02*
X134710400Y-49674200D01*
X125942400Y-52515200D02*
X135982400Y-52515200D01*
X126097400Y-51714200D02*
X129781400Y-51714200D01*
X132143400Y-51274200D02*
X135684400Y-51274200D01*
X128513400Y-48634200D02*
X133411400Y-48634200D01*
X127011400Y-49914200D02*
X129781400Y-49914200D01*
X126919400Y-50034200D02*
X129781400Y-50034200D01*
X128585400Y-48594200D02*
X133339400Y-48594200D01*
X126144400Y-51554200D02*
X129781400Y-51554200D01*
X129308400Y-48274200D02*
X132616400Y-48274200D01*
X126003400Y-52114200D02*
X135921400Y-52114200D01*
X132143400Y-49754200D02*
X134781400Y-49754200D01*
X132143400Y-51354200D02*
X135713400Y-51354200D01*
X127905400Y-49034200D02*
X134019400Y-49034200D01*
X130683400Y-47994200D02*
X131241400Y-47994200D01*
X128013400Y-48954200D02*
X133911400Y-48954200D01*
X126321400Y-51074200D02*
X129781400Y-51074200D01*
X126045400Y-51914200D02*
X135879400Y-51914200D01*
X132143400Y-49994200D02*
X134975400Y-49994200D01*
X132143400Y-50794200D02*
X135473400Y-50794200D01*
X127485400Y-49394200D02*
X134439400Y-49394200D01*
X125912400Y-53035200D02*
X136012400Y-53035200D01*
X126065400Y-51834200D02*
X135859400Y-51834200D01*
X126225400Y-51314200D02*
X129781400Y-51314200D01*
X126949400Y-49994200D02*
X129781400Y-49994200D01*
X132143400Y-51394200D02*
X135727400Y-51394200D01*
X125912400Y-52995200D02*
X136012400Y-52995200D01*
X132143400Y-50234200D02*
X135147400Y-50234200D01*
X132143400Y-51154200D02*
X135636400Y-51154200D01*
X126156400Y-51514200D02*
X129781400Y-51514200D01*
X132143400Y-49914200D02*
X134913400Y-49914200D01*
X132143400Y-51754200D02*
X135838400Y-51754200D01*
X126557400Y-50594200D02*
X129781400Y-50594200D01*
X126271400Y-51194200D02*
X129781400Y-51194200D01*
X127109400Y-49794200D02*
X129781400Y-49794200D01*
X127214400Y-49674200D02*
X129781400Y-49674200D01*
X128822400Y-48474200D02*
X133102400Y-48474200D01*
X132143400Y-51114200D02*
X135620400Y-51114200D01*
X132143400Y-51034200D02*
X135586400Y-51034200D01*
X125947400Y-52475200D02*
X135977400Y-52475200D01*
X132143400Y-50874200D02*
X135512400Y-50874200D01*
X130290400Y-48034200D02*
X131634400Y-48034200D01*
X132143400Y-50634200D02*
X135390400Y-50634200D01*
X126131400Y-51594200D02*
X129781400Y-51594200D01*
X126861400Y-50114200D02*
X129781400Y-50114200D01*
X127076400Y-49834200D02*
X129781400Y-49834200D01*
X125924400Y-52715200D02*
X136000400Y-52715200D01*
X126492400Y-50714200D02*
X129781400Y-50714200D01*
X132143400Y-49954200D02*
X134944400Y-49954200D01*
X127854400Y-49074200D02*
X134070400Y-49074200D01*
X125952400Y-52435200D02*
X135972400Y-52435200D01*
X126451400Y-50794200D02*
X129781400Y-50794200D01*
X125931400Y-52635200D02*
X135993400Y-52635200D01*
X132143400Y-51314200D02*
X135699400Y-51314200D01*
X128126400Y-48874200D02*
X133798400Y-48874200D01*
X129199400Y-48314200D02*
X132725400Y-48314200D01*
X128310400Y-48754200D02*
X133614400Y-48754200D01*
X126011400Y-52074200D02*
X135913400Y-52074200D01*
X132143400Y-51674200D02*
X135816400Y-51674200D01*
X132143400Y-50914200D02*
X135531400Y-50914200D01*
X130212400Y-57525200D02*
X131712400Y-57525200D01*
X132143400Y-51234200D02*
X135668400Y-51234200D01*
X132143400Y-49634200D02*
X134674400Y-49634200D01*
X127707400Y-49194200D02*
X134217400Y-49194200D01*
X126027400Y-51994200D02*
X135897400Y-51994200D01*
X126108400Y-51674200D02*
X129781400Y-51674200D01*
X125975400Y-52274200D02*
X135949400Y-52274200D01*
X125938400Y-52555200D02*
X135986400Y-52555200D01*
X127403400Y-49474200D02*
X129781400Y-49474200D01*
X132143400Y-50394200D02*
X135250400Y-50394200D01*
X132143400Y-49714200D02*
X134746400Y-49714200D01*
X132143400Y-50114200D02*
X135063400Y-50114200D01*
X126751400Y-50274200D02*
X129781400Y-50274200D01*
X126374400Y-50954200D02*
X129781400Y-50954200D01*
X126288400Y-51154200D02*
X129781400Y-51154200D01*
X132143400Y-49554200D02*
X134599400Y-49554200D01*
X132143400Y-51474200D02*
X135754400Y-51474200D01*
X125969400Y-52314200D02*
X135955400Y-52314200D01*
X126650400Y-50434200D02*
X129781400Y-50434200D01*
X128909400Y-48434200D02*
X133015400Y-48434200D01*
X126338400Y-51034200D02*
X129781400Y-51034200D01*
X132342400Y-57974557D02*
G75*
G03*
X132345664Y-48176763I-1380000J4899357D01*
G01*
X129579136Y-48176763D02*
G75*
G03*
X129582400Y-57974557I1383264J-4898437D01*
G01*
X132345664Y-48176763D02*
G75*
G03*
X129582400Y-48175843I-1383264J-4898437D01*
G01*
%TD*%
M02*
